G75*
%MOIN*%
%OFA0B0*%
%FSLAX25Y25*%
%IPPOS*%
%LPD*%
%AMOC8*
5,1,8,0,0,1.08239X$1,22.5*
%
%ADD10R,0.18110X0.03937*%
%ADD11R,0.13386X0.06299*%
%ADD12R,0.03150X0.03150*%
%ADD13R,0.04331X0.03937*%
%ADD14R,0.03937X0.04331*%
%ADD15R,0.04300X0.07900*%
%ADD16R,0.03150X0.03937*%
%ADD17C,0.00827*%
%ADD18C,0.01181*%
%ADD19R,0.03937X0.03937*%
%ADD20R,0.05906X0.05118*%
%ADD21R,0.05512X0.11811*%
%ADD22R,0.05512X0.01575*%
%ADD23R,0.02500X0.05000*%
%ADD24R,0.08268X0.02756*%
%ADD25R,0.03543X0.01969*%
D10*
X0047315Y0141164D03*
X0047315Y0149038D03*
D11*
X0026843Y0158487D03*
X0026843Y0131715D03*
D12*
X0028461Y0173427D03*
X0022556Y0173427D03*
D13*
X0335189Y0133605D03*
X0342984Y0133605D03*
X0350858Y0133605D03*
X0350858Y0126912D03*
X0342984Y0126912D03*
X0335189Y0126912D03*
D14*
X0366219Y0128959D03*
X0372912Y0128959D03*
X0372912Y0101006D03*
X0372912Y0094313D03*
X0366219Y0094313D03*
X0366219Y0101006D03*
X0342354Y0171321D03*
X0335661Y0171321D03*
X0041849Y0173427D03*
X0035156Y0173427D03*
D15*
X0112299Y0177864D03*
X0122299Y0177864D03*
X0122299Y0142464D03*
X0112299Y0142464D03*
D16*
X0334948Y0147660D03*
X0339279Y0147660D03*
X0339279Y0153565D03*
X0334948Y0153565D03*
D17*
X0289256Y0159255D02*
X0280240Y0159255D01*
X0289256Y0159255D02*
X0289256Y0154569D01*
X0280240Y0154569D01*
X0280240Y0159255D01*
X0280240Y0155355D02*
X0289256Y0155355D01*
X0289256Y0156141D02*
X0280240Y0156141D01*
X0280240Y0156927D02*
X0289256Y0156927D01*
X0289256Y0157713D02*
X0280240Y0157713D01*
X0280240Y0158499D02*
X0289256Y0158499D01*
X0289256Y0167129D02*
X0280240Y0167129D01*
X0289256Y0167129D02*
X0289256Y0162443D01*
X0280240Y0162443D01*
X0280240Y0167129D01*
X0280240Y0163229D02*
X0289256Y0163229D01*
X0289256Y0164015D02*
X0280240Y0164015D01*
X0280240Y0164801D02*
X0289256Y0164801D01*
X0289256Y0165587D02*
X0280240Y0165587D01*
X0280240Y0166373D02*
X0289256Y0166373D01*
X0289256Y0175003D02*
X0280240Y0175003D01*
X0289256Y0175003D02*
X0289256Y0170317D01*
X0280240Y0170317D01*
X0280240Y0175003D01*
X0280240Y0171103D02*
X0289256Y0171103D01*
X0289256Y0171889D02*
X0280240Y0171889D01*
X0280240Y0172675D02*
X0289256Y0172675D01*
X0289256Y0173461D02*
X0280240Y0173461D01*
X0280240Y0174247D02*
X0289256Y0174247D01*
X0289256Y0182877D02*
X0280240Y0182877D01*
X0289256Y0182877D02*
X0289256Y0178191D01*
X0280240Y0178191D01*
X0280240Y0182877D01*
X0280240Y0178977D02*
X0289256Y0178977D01*
X0289256Y0179763D02*
X0280240Y0179763D01*
X0280240Y0180549D02*
X0289256Y0180549D01*
X0289256Y0181335D02*
X0280240Y0181335D01*
X0280240Y0182121D02*
X0289256Y0182121D01*
X0289256Y0190751D02*
X0280240Y0190751D01*
X0289256Y0190751D02*
X0289256Y0186065D01*
X0280240Y0186065D01*
X0280240Y0190751D01*
X0280240Y0186851D02*
X0289256Y0186851D01*
X0289256Y0187637D02*
X0280240Y0187637D01*
X0280240Y0188423D02*
X0289256Y0188423D01*
X0289256Y0189209D02*
X0280240Y0189209D01*
X0280240Y0189995D02*
X0289256Y0189995D01*
X0289256Y0198625D02*
X0280240Y0198625D01*
X0289256Y0198625D02*
X0289256Y0193939D01*
X0280240Y0193939D01*
X0280240Y0198625D01*
X0280240Y0194725D02*
X0289256Y0194725D01*
X0289256Y0195511D02*
X0280240Y0195511D01*
X0280240Y0196297D02*
X0289256Y0196297D01*
X0289256Y0197083D02*
X0280240Y0197083D01*
X0280240Y0197869D02*
X0289256Y0197869D01*
X0274500Y0203616D02*
X0274500Y0212632D01*
X0279186Y0212632D01*
X0279186Y0203616D01*
X0274500Y0203616D01*
X0274500Y0204402D02*
X0279186Y0204402D01*
X0279186Y0205188D02*
X0274500Y0205188D01*
X0274500Y0205974D02*
X0279186Y0205974D01*
X0279186Y0206760D02*
X0274500Y0206760D01*
X0274500Y0207546D02*
X0279186Y0207546D01*
X0279186Y0208332D02*
X0274500Y0208332D01*
X0274500Y0209118D02*
X0279186Y0209118D01*
X0279186Y0209904D02*
X0274500Y0209904D01*
X0274500Y0210690D02*
X0279186Y0210690D01*
X0279186Y0211476D02*
X0274500Y0211476D01*
X0274500Y0212262D02*
X0279186Y0212262D01*
X0266626Y0212632D02*
X0266626Y0203616D01*
X0266626Y0212632D02*
X0271312Y0212632D01*
X0271312Y0203616D01*
X0266626Y0203616D01*
X0266626Y0204402D02*
X0271312Y0204402D01*
X0271312Y0205188D02*
X0266626Y0205188D01*
X0266626Y0205974D02*
X0271312Y0205974D01*
X0271312Y0206760D02*
X0266626Y0206760D01*
X0266626Y0207546D02*
X0271312Y0207546D01*
X0271312Y0208332D02*
X0266626Y0208332D01*
X0266626Y0209118D02*
X0271312Y0209118D01*
X0271312Y0209904D02*
X0266626Y0209904D01*
X0266626Y0210690D02*
X0271312Y0210690D01*
X0271312Y0211476D02*
X0266626Y0211476D01*
X0266626Y0212262D02*
X0271312Y0212262D01*
X0258751Y0212632D02*
X0258751Y0203616D01*
X0258751Y0212632D02*
X0263437Y0212632D01*
X0263437Y0203616D01*
X0258751Y0203616D01*
X0258751Y0204402D02*
X0263437Y0204402D01*
X0263437Y0205188D02*
X0258751Y0205188D01*
X0258751Y0205974D02*
X0263437Y0205974D01*
X0263437Y0206760D02*
X0258751Y0206760D01*
X0258751Y0207546D02*
X0263437Y0207546D01*
X0263437Y0208332D02*
X0258751Y0208332D01*
X0258751Y0209118D02*
X0263437Y0209118D01*
X0263437Y0209904D02*
X0258751Y0209904D01*
X0258751Y0210690D02*
X0263437Y0210690D01*
X0263437Y0211476D02*
X0258751Y0211476D01*
X0258751Y0212262D02*
X0263437Y0212262D01*
X0250877Y0212632D02*
X0250877Y0203616D01*
X0250877Y0212632D02*
X0255563Y0212632D01*
X0255563Y0203616D01*
X0250877Y0203616D01*
X0250877Y0204402D02*
X0255563Y0204402D01*
X0255563Y0205188D02*
X0250877Y0205188D01*
X0250877Y0205974D02*
X0255563Y0205974D01*
X0255563Y0206760D02*
X0250877Y0206760D01*
X0250877Y0207546D02*
X0255563Y0207546D01*
X0255563Y0208332D02*
X0250877Y0208332D01*
X0250877Y0209118D02*
X0255563Y0209118D01*
X0255563Y0209904D02*
X0250877Y0209904D01*
X0250877Y0210690D02*
X0255563Y0210690D01*
X0255563Y0211476D02*
X0250877Y0211476D01*
X0250877Y0212262D02*
X0255563Y0212262D01*
X0243003Y0212632D02*
X0243003Y0203616D01*
X0243003Y0212632D02*
X0247689Y0212632D01*
X0247689Y0203616D01*
X0243003Y0203616D01*
X0243003Y0204402D02*
X0247689Y0204402D01*
X0247689Y0205188D02*
X0243003Y0205188D01*
X0243003Y0205974D02*
X0247689Y0205974D01*
X0247689Y0206760D02*
X0243003Y0206760D01*
X0243003Y0207546D02*
X0247689Y0207546D01*
X0247689Y0208332D02*
X0243003Y0208332D01*
X0243003Y0209118D02*
X0247689Y0209118D01*
X0247689Y0209904D02*
X0243003Y0209904D01*
X0243003Y0210690D02*
X0247689Y0210690D01*
X0247689Y0211476D02*
X0243003Y0211476D01*
X0243003Y0212262D02*
X0247689Y0212262D01*
X0235129Y0212632D02*
X0235129Y0203616D01*
X0235129Y0212632D02*
X0239815Y0212632D01*
X0239815Y0203616D01*
X0235129Y0203616D01*
X0235129Y0204402D02*
X0239815Y0204402D01*
X0239815Y0205188D02*
X0235129Y0205188D01*
X0235129Y0205974D02*
X0239815Y0205974D01*
X0239815Y0206760D02*
X0235129Y0206760D01*
X0235129Y0207546D02*
X0239815Y0207546D01*
X0239815Y0208332D02*
X0235129Y0208332D01*
X0235129Y0209118D02*
X0239815Y0209118D01*
X0239815Y0209904D02*
X0235129Y0209904D01*
X0235129Y0210690D02*
X0239815Y0210690D01*
X0239815Y0211476D02*
X0235129Y0211476D01*
X0235129Y0212262D02*
X0239815Y0212262D01*
X0227255Y0212632D02*
X0227255Y0203616D01*
X0227255Y0212632D02*
X0231941Y0212632D01*
X0231941Y0203616D01*
X0227255Y0203616D01*
X0227255Y0204402D02*
X0231941Y0204402D01*
X0231941Y0205188D02*
X0227255Y0205188D01*
X0227255Y0205974D02*
X0231941Y0205974D01*
X0231941Y0206760D02*
X0227255Y0206760D01*
X0227255Y0207546D02*
X0231941Y0207546D01*
X0231941Y0208332D02*
X0227255Y0208332D01*
X0227255Y0209118D02*
X0231941Y0209118D01*
X0231941Y0209904D02*
X0227255Y0209904D01*
X0227255Y0210690D02*
X0231941Y0210690D01*
X0231941Y0211476D02*
X0227255Y0211476D01*
X0227255Y0212262D02*
X0231941Y0212262D01*
X0219381Y0212632D02*
X0219381Y0203616D01*
X0219381Y0212632D02*
X0224067Y0212632D01*
X0224067Y0203616D01*
X0219381Y0203616D01*
X0219381Y0204402D02*
X0224067Y0204402D01*
X0224067Y0205188D02*
X0219381Y0205188D01*
X0219381Y0205974D02*
X0224067Y0205974D01*
X0224067Y0206760D02*
X0219381Y0206760D01*
X0219381Y0207546D02*
X0224067Y0207546D01*
X0224067Y0208332D02*
X0219381Y0208332D01*
X0219381Y0209118D02*
X0224067Y0209118D01*
X0224067Y0209904D02*
X0219381Y0209904D01*
X0219381Y0210690D02*
X0224067Y0210690D01*
X0224067Y0211476D02*
X0219381Y0211476D01*
X0219381Y0212262D02*
X0224067Y0212262D01*
X0211507Y0212632D02*
X0211507Y0203616D01*
X0211507Y0212632D02*
X0216193Y0212632D01*
X0216193Y0203616D01*
X0211507Y0203616D01*
X0211507Y0204402D02*
X0216193Y0204402D01*
X0216193Y0205188D02*
X0211507Y0205188D01*
X0211507Y0205974D02*
X0216193Y0205974D01*
X0216193Y0206760D02*
X0211507Y0206760D01*
X0211507Y0207546D02*
X0216193Y0207546D01*
X0216193Y0208332D02*
X0211507Y0208332D01*
X0211507Y0209118D02*
X0216193Y0209118D01*
X0216193Y0209904D02*
X0211507Y0209904D01*
X0211507Y0210690D02*
X0216193Y0210690D01*
X0216193Y0211476D02*
X0211507Y0211476D01*
X0211507Y0212262D02*
X0216193Y0212262D01*
X0203633Y0212632D02*
X0203633Y0203616D01*
X0203633Y0212632D02*
X0208319Y0212632D01*
X0208319Y0203616D01*
X0203633Y0203616D01*
X0203633Y0204402D02*
X0208319Y0204402D01*
X0208319Y0205188D02*
X0203633Y0205188D01*
X0203633Y0205974D02*
X0208319Y0205974D01*
X0208319Y0206760D02*
X0203633Y0206760D01*
X0203633Y0207546D02*
X0208319Y0207546D01*
X0208319Y0208332D02*
X0203633Y0208332D01*
X0203633Y0209118D02*
X0208319Y0209118D01*
X0208319Y0209904D02*
X0203633Y0209904D01*
X0203633Y0210690D02*
X0208319Y0210690D01*
X0208319Y0211476D02*
X0203633Y0211476D01*
X0203633Y0212262D02*
X0208319Y0212262D01*
X0195759Y0212632D02*
X0195759Y0203616D01*
X0195759Y0212632D02*
X0200445Y0212632D01*
X0200445Y0203616D01*
X0195759Y0203616D01*
X0195759Y0204402D02*
X0200445Y0204402D01*
X0200445Y0205188D02*
X0195759Y0205188D01*
X0195759Y0205974D02*
X0200445Y0205974D01*
X0200445Y0206760D02*
X0195759Y0206760D01*
X0195759Y0207546D02*
X0200445Y0207546D01*
X0200445Y0208332D02*
X0195759Y0208332D01*
X0195759Y0209118D02*
X0200445Y0209118D01*
X0200445Y0209904D02*
X0195759Y0209904D01*
X0195759Y0210690D02*
X0200445Y0210690D01*
X0200445Y0211476D02*
X0195759Y0211476D01*
X0195759Y0212262D02*
X0200445Y0212262D01*
X0187885Y0212632D02*
X0187885Y0203616D01*
X0187885Y0212632D02*
X0192571Y0212632D01*
X0192571Y0203616D01*
X0187885Y0203616D01*
X0187885Y0204402D02*
X0192571Y0204402D01*
X0192571Y0205188D02*
X0187885Y0205188D01*
X0187885Y0205974D02*
X0192571Y0205974D01*
X0192571Y0206760D02*
X0187885Y0206760D01*
X0187885Y0207546D02*
X0192571Y0207546D01*
X0192571Y0208332D02*
X0187885Y0208332D01*
X0187885Y0209118D02*
X0192571Y0209118D01*
X0192571Y0209904D02*
X0187885Y0209904D01*
X0187885Y0210690D02*
X0192571Y0210690D01*
X0192571Y0211476D02*
X0187885Y0211476D01*
X0187885Y0212262D02*
X0192571Y0212262D01*
X0180011Y0212632D02*
X0180011Y0203616D01*
X0180011Y0212632D02*
X0184697Y0212632D01*
X0184697Y0203616D01*
X0180011Y0203616D01*
X0180011Y0204402D02*
X0184697Y0204402D01*
X0184697Y0205188D02*
X0180011Y0205188D01*
X0180011Y0205974D02*
X0184697Y0205974D01*
X0184697Y0206760D02*
X0180011Y0206760D01*
X0180011Y0207546D02*
X0184697Y0207546D01*
X0184697Y0208332D02*
X0180011Y0208332D01*
X0180011Y0209118D02*
X0184697Y0209118D01*
X0184697Y0209904D02*
X0180011Y0209904D01*
X0180011Y0210690D02*
X0184697Y0210690D01*
X0184697Y0211476D02*
X0180011Y0211476D01*
X0180011Y0212262D02*
X0184697Y0212262D01*
X0172137Y0212632D02*
X0172137Y0203616D01*
X0172137Y0212632D02*
X0176823Y0212632D01*
X0176823Y0203616D01*
X0172137Y0203616D01*
X0172137Y0204402D02*
X0176823Y0204402D01*
X0176823Y0205188D02*
X0172137Y0205188D01*
X0172137Y0205974D02*
X0176823Y0205974D01*
X0176823Y0206760D02*
X0172137Y0206760D01*
X0172137Y0207546D02*
X0176823Y0207546D01*
X0176823Y0208332D02*
X0172137Y0208332D01*
X0172137Y0209118D02*
X0176823Y0209118D01*
X0176823Y0209904D02*
X0172137Y0209904D01*
X0172137Y0210690D02*
X0176823Y0210690D01*
X0176823Y0211476D02*
X0172137Y0211476D01*
X0172137Y0212262D02*
X0176823Y0212262D01*
X0164263Y0212632D02*
X0164263Y0203616D01*
X0164263Y0212632D02*
X0168949Y0212632D01*
X0168949Y0203616D01*
X0164263Y0203616D01*
X0164263Y0204402D02*
X0168949Y0204402D01*
X0168949Y0205188D02*
X0164263Y0205188D01*
X0164263Y0205974D02*
X0168949Y0205974D01*
X0168949Y0206760D02*
X0164263Y0206760D01*
X0164263Y0207546D02*
X0168949Y0207546D01*
X0168949Y0208332D02*
X0164263Y0208332D01*
X0164263Y0209118D02*
X0168949Y0209118D01*
X0168949Y0209904D02*
X0164263Y0209904D01*
X0164263Y0210690D02*
X0168949Y0210690D01*
X0168949Y0211476D02*
X0164263Y0211476D01*
X0164263Y0212262D02*
X0168949Y0212262D01*
X0156389Y0212632D02*
X0156389Y0203616D01*
X0156389Y0212632D02*
X0161075Y0212632D01*
X0161075Y0203616D01*
X0156389Y0203616D01*
X0156389Y0204402D02*
X0161075Y0204402D01*
X0161075Y0205188D02*
X0156389Y0205188D01*
X0156389Y0205974D02*
X0161075Y0205974D01*
X0161075Y0206760D02*
X0156389Y0206760D01*
X0156389Y0207546D02*
X0161075Y0207546D01*
X0161075Y0208332D02*
X0156389Y0208332D01*
X0156389Y0209118D02*
X0161075Y0209118D01*
X0161075Y0209904D02*
X0156389Y0209904D01*
X0156389Y0210690D02*
X0161075Y0210690D01*
X0161075Y0211476D02*
X0156389Y0211476D01*
X0156389Y0212262D02*
X0161075Y0212262D01*
X0148515Y0212632D02*
X0148515Y0203616D01*
X0148515Y0212632D02*
X0153201Y0212632D01*
X0153201Y0203616D01*
X0148515Y0203616D01*
X0148515Y0204402D02*
X0153201Y0204402D01*
X0153201Y0205188D02*
X0148515Y0205188D01*
X0148515Y0205974D02*
X0153201Y0205974D01*
X0153201Y0206760D02*
X0148515Y0206760D01*
X0148515Y0207546D02*
X0153201Y0207546D01*
X0153201Y0208332D02*
X0148515Y0208332D01*
X0148515Y0209118D02*
X0153201Y0209118D01*
X0153201Y0209904D02*
X0148515Y0209904D01*
X0148515Y0210690D02*
X0153201Y0210690D01*
X0153201Y0211476D02*
X0148515Y0211476D01*
X0148515Y0212262D02*
X0153201Y0212262D01*
X0147461Y0193939D02*
X0138445Y0193939D01*
X0138445Y0198625D01*
X0147461Y0198625D01*
X0147461Y0193939D01*
X0147461Y0194725D02*
X0138445Y0194725D01*
X0138445Y0195511D02*
X0147461Y0195511D01*
X0147461Y0196297D02*
X0138445Y0196297D01*
X0138445Y0197083D02*
X0147461Y0197083D01*
X0147461Y0197869D02*
X0138445Y0197869D01*
X0138445Y0186065D02*
X0147461Y0186065D01*
X0138445Y0186065D02*
X0138445Y0190751D01*
X0147461Y0190751D01*
X0147461Y0186065D01*
X0147461Y0186851D02*
X0138445Y0186851D01*
X0138445Y0187637D02*
X0147461Y0187637D01*
X0147461Y0188423D02*
X0138445Y0188423D01*
X0138445Y0189209D02*
X0147461Y0189209D01*
X0147461Y0189995D02*
X0138445Y0189995D01*
X0138445Y0178191D02*
X0147461Y0178191D01*
X0138445Y0178191D02*
X0138445Y0182877D01*
X0147461Y0182877D01*
X0147461Y0178191D01*
X0147461Y0178977D02*
X0138445Y0178977D01*
X0138445Y0179763D02*
X0147461Y0179763D01*
X0147461Y0180549D02*
X0138445Y0180549D01*
X0138445Y0181335D02*
X0147461Y0181335D01*
X0147461Y0182121D02*
X0138445Y0182121D01*
X0138445Y0170317D02*
X0147461Y0170317D01*
X0138445Y0170317D02*
X0138445Y0175003D01*
X0147461Y0175003D01*
X0147461Y0170317D01*
X0147461Y0171103D02*
X0138445Y0171103D01*
X0138445Y0171889D02*
X0147461Y0171889D01*
X0147461Y0172675D02*
X0138445Y0172675D01*
X0138445Y0173461D02*
X0147461Y0173461D01*
X0147461Y0174247D02*
X0138445Y0174247D01*
X0138445Y0162443D02*
X0147461Y0162443D01*
X0138445Y0162443D02*
X0138445Y0167129D01*
X0147461Y0167129D01*
X0147461Y0162443D01*
X0147461Y0163229D02*
X0138445Y0163229D01*
X0138445Y0164015D02*
X0147461Y0164015D01*
X0147461Y0164801D02*
X0138445Y0164801D01*
X0138445Y0165587D02*
X0147461Y0165587D01*
X0147461Y0166373D02*
X0138445Y0166373D01*
X0138445Y0154569D02*
X0147461Y0154569D01*
X0138445Y0154569D02*
X0138445Y0159255D01*
X0147461Y0159255D01*
X0147461Y0154569D01*
X0147461Y0155355D02*
X0138445Y0155355D01*
X0138445Y0156141D02*
X0147461Y0156141D01*
X0147461Y0156927D02*
X0138445Y0156927D01*
X0138445Y0157713D02*
X0147461Y0157713D01*
X0147461Y0158499D02*
X0138445Y0158499D01*
X0138445Y0146695D02*
X0147461Y0146695D01*
X0138445Y0146695D02*
X0138445Y0151381D01*
X0147461Y0151381D01*
X0147461Y0146695D01*
X0147461Y0147481D02*
X0138445Y0147481D01*
X0138445Y0148267D02*
X0147461Y0148267D01*
X0147461Y0149053D02*
X0138445Y0149053D01*
X0138445Y0149839D02*
X0147461Y0149839D01*
X0147461Y0150625D02*
X0138445Y0150625D01*
X0138445Y0138821D02*
X0147461Y0138821D01*
X0138445Y0138821D02*
X0138445Y0143507D01*
X0147461Y0143507D01*
X0147461Y0138821D01*
X0147461Y0139607D02*
X0138445Y0139607D01*
X0138445Y0140393D02*
X0147461Y0140393D01*
X0147461Y0141179D02*
X0138445Y0141179D01*
X0138445Y0141965D02*
X0147461Y0141965D01*
X0147461Y0142751D02*
X0138445Y0142751D01*
X0138445Y0130947D02*
X0147461Y0130947D01*
X0138445Y0130947D02*
X0138445Y0135633D01*
X0147461Y0135633D01*
X0147461Y0130947D01*
X0147461Y0131733D02*
X0138445Y0131733D01*
X0138445Y0132519D02*
X0147461Y0132519D01*
X0147461Y0133305D02*
X0138445Y0133305D01*
X0138445Y0134091D02*
X0147461Y0134091D01*
X0147461Y0134877D02*
X0138445Y0134877D01*
X0138445Y0123073D02*
X0147461Y0123073D01*
X0138445Y0123073D02*
X0138445Y0127759D01*
X0147461Y0127759D01*
X0147461Y0123073D01*
X0147461Y0123859D02*
X0138445Y0123859D01*
X0138445Y0124645D02*
X0147461Y0124645D01*
X0147461Y0125431D02*
X0138445Y0125431D01*
X0138445Y0126217D02*
X0147461Y0126217D01*
X0147461Y0127003D02*
X0138445Y0127003D01*
X0138445Y0115199D02*
X0147461Y0115199D01*
X0138445Y0115199D02*
X0138445Y0119885D01*
X0147461Y0119885D01*
X0147461Y0115199D01*
X0147461Y0115985D02*
X0138445Y0115985D01*
X0138445Y0116771D02*
X0147461Y0116771D01*
X0147461Y0117557D02*
X0138445Y0117557D01*
X0138445Y0118343D02*
X0147461Y0118343D01*
X0147461Y0119129D02*
X0138445Y0119129D01*
X0138445Y0107325D02*
X0147461Y0107325D01*
X0138445Y0107325D02*
X0138445Y0112011D01*
X0147461Y0112011D01*
X0147461Y0107325D01*
X0147461Y0108111D02*
X0138445Y0108111D01*
X0138445Y0108897D02*
X0147461Y0108897D01*
X0147461Y0109683D02*
X0138445Y0109683D01*
X0138445Y0110469D02*
X0147461Y0110469D01*
X0147461Y0111255D02*
X0138445Y0111255D01*
X0138445Y0099451D02*
X0147461Y0099451D01*
X0138445Y0099451D02*
X0138445Y0104137D01*
X0147461Y0104137D01*
X0147461Y0099451D01*
X0147461Y0100237D02*
X0138445Y0100237D01*
X0138445Y0101023D02*
X0147461Y0101023D01*
X0147461Y0101809D02*
X0138445Y0101809D01*
X0138445Y0102595D02*
X0147461Y0102595D01*
X0147461Y0103381D02*
X0138445Y0103381D01*
X0138445Y0091577D02*
X0147461Y0091577D01*
X0138445Y0091577D02*
X0138445Y0096263D01*
X0147461Y0096263D01*
X0147461Y0091577D01*
X0147461Y0092363D02*
X0138445Y0092363D01*
X0138445Y0093149D02*
X0147461Y0093149D01*
X0147461Y0093935D02*
X0138445Y0093935D01*
X0138445Y0094721D02*
X0147461Y0094721D01*
X0147461Y0095507D02*
X0138445Y0095507D01*
X0138445Y0083703D02*
X0147461Y0083703D01*
X0138445Y0083703D02*
X0138445Y0088389D01*
X0147461Y0088389D01*
X0147461Y0083703D01*
X0147461Y0084489D02*
X0138445Y0084489D01*
X0138445Y0085275D02*
X0147461Y0085275D01*
X0147461Y0086061D02*
X0138445Y0086061D01*
X0138445Y0086847D02*
X0147461Y0086847D01*
X0147461Y0087633D02*
X0138445Y0087633D01*
X0138445Y0075829D02*
X0147461Y0075829D01*
X0138445Y0075829D02*
X0138445Y0080515D01*
X0147461Y0080515D01*
X0147461Y0075829D01*
X0147461Y0076615D02*
X0138445Y0076615D01*
X0138445Y0077401D02*
X0147461Y0077401D01*
X0147461Y0078187D02*
X0138445Y0078187D01*
X0138445Y0078973D02*
X0147461Y0078973D01*
X0147461Y0079759D02*
X0138445Y0079759D01*
X0138445Y0067955D02*
X0147461Y0067955D01*
X0138445Y0067955D02*
X0138445Y0072641D01*
X0147461Y0072641D01*
X0147461Y0067955D01*
X0147461Y0068741D02*
X0138445Y0068741D01*
X0138445Y0069527D02*
X0147461Y0069527D01*
X0147461Y0070313D02*
X0138445Y0070313D01*
X0138445Y0071099D02*
X0147461Y0071099D01*
X0147461Y0071885D02*
X0138445Y0071885D01*
X0138445Y0060081D02*
X0147461Y0060081D01*
X0138445Y0060081D02*
X0138445Y0064767D01*
X0147461Y0064767D01*
X0147461Y0060081D01*
X0147461Y0060867D02*
X0138445Y0060867D01*
X0138445Y0061653D02*
X0147461Y0061653D01*
X0147461Y0062439D02*
X0138445Y0062439D01*
X0138445Y0063225D02*
X0147461Y0063225D01*
X0147461Y0064011D02*
X0138445Y0064011D01*
X0138445Y0052207D02*
X0147461Y0052207D01*
X0138445Y0052207D02*
X0138445Y0056893D01*
X0147461Y0056893D01*
X0147461Y0052207D01*
X0147461Y0052993D02*
X0138445Y0052993D01*
X0138445Y0053779D02*
X0147461Y0053779D01*
X0147461Y0054565D02*
X0138445Y0054565D01*
X0138445Y0055351D02*
X0147461Y0055351D01*
X0147461Y0056137D02*
X0138445Y0056137D01*
X0138445Y0044333D02*
X0147461Y0044333D01*
X0138445Y0044333D02*
X0138445Y0049019D01*
X0147461Y0049019D01*
X0147461Y0044333D01*
X0147461Y0045119D02*
X0138445Y0045119D01*
X0138445Y0045905D02*
X0147461Y0045905D01*
X0147461Y0046691D02*
X0138445Y0046691D01*
X0138445Y0047477D02*
X0147461Y0047477D01*
X0147461Y0048263D02*
X0138445Y0048263D01*
X0280240Y0049019D02*
X0289256Y0049019D01*
X0289256Y0044333D01*
X0280240Y0044333D01*
X0280240Y0049019D01*
X0280240Y0045119D02*
X0289256Y0045119D01*
X0289256Y0045905D02*
X0280240Y0045905D01*
X0280240Y0046691D02*
X0289256Y0046691D01*
X0289256Y0047477D02*
X0280240Y0047477D01*
X0280240Y0048263D02*
X0289256Y0048263D01*
X0289256Y0056893D02*
X0280240Y0056893D01*
X0289256Y0056893D02*
X0289256Y0052207D01*
X0280240Y0052207D01*
X0280240Y0056893D01*
X0280240Y0052993D02*
X0289256Y0052993D01*
X0289256Y0053779D02*
X0280240Y0053779D01*
X0280240Y0054565D02*
X0289256Y0054565D01*
X0289256Y0055351D02*
X0280240Y0055351D01*
X0280240Y0056137D02*
X0289256Y0056137D01*
X0289256Y0064767D02*
X0280240Y0064767D01*
X0289256Y0064767D02*
X0289256Y0060081D01*
X0280240Y0060081D01*
X0280240Y0064767D01*
X0280240Y0060867D02*
X0289256Y0060867D01*
X0289256Y0061653D02*
X0280240Y0061653D01*
X0280240Y0062439D02*
X0289256Y0062439D01*
X0289256Y0063225D02*
X0280240Y0063225D01*
X0280240Y0064011D02*
X0289256Y0064011D01*
X0289256Y0072641D02*
X0280240Y0072641D01*
X0289256Y0072641D02*
X0289256Y0067955D01*
X0280240Y0067955D01*
X0280240Y0072641D01*
X0280240Y0068741D02*
X0289256Y0068741D01*
X0289256Y0069527D02*
X0280240Y0069527D01*
X0280240Y0070313D02*
X0289256Y0070313D01*
X0289256Y0071099D02*
X0280240Y0071099D01*
X0280240Y0071885D02*
X0289256Y0071885D01*
X0289256Y0080515D02*
X0280240Y0080515D01*
X0289256Y0080515D02*
X0289256Y0075829D01*
X0280240Y0075829D01*
X0280240Y0080515D01*
X0280240Y0076615D02*
X0289256Y0076615D01*
X0289256Y0077401D02*
X0280240Y0077401D01*
X0280240Y0078187D02*
X0289256Y0078187D01*
X0289256Y0078973D02*
X0280240Y0078973D01*
X0280240Y0079759D02*
X0289256Y0079759D01*
X0289256Y0088389D02*
X0280240Y0088389D01*
X0289256Y0088389D02*
X0289256Y0083703D01*
X0280240Y0083703D01*
X0280240Y0088389D01*
X0280240Y0084489D02*
X0289256Y0084489D01*
X0289256Y0085275D02*
X0280240Y0085275D01*
X0280240Y0086061D02*
X0289256Y0086061D01*
X0289256Y0086847D02*
X0280240Y0086847D01*
X0280240Y0087633D02*
X0289256Y0087633D01*
X0289256Y0096263D02*
X0280240Y0096263D01*
X0289256Y0096263D02*
X0289256Y0091577D01*
X0280240Y0091577D01*
X0280240Y0096263D01*
X0280240Y0092363D02*
X0289256Y0092363D01*
X0289256Y0093149D02*
X0280240Y0093149D01*
X0280240Y0093935D02*
X0289256Y0093935D01*
X0289256Y0094721D02*
X0280240Y0094721D01*
X0280240Y0095507D02*
X0289256Y0095507D01*
X0289256Y0104137D02*
X0280240Y0104137D01*
X0289256Y0104137D02*
X0289256Y0099451D01*
X0280240Y0099451D01*
X0280240Y0104137D01*
X0280240Y0100237D02*
X0289256Y0100237D01*
X0289256Y0101023D02*
X0280240Y0101023D01*
X0280240Y0101809D02*
X0289256Y0101809D01*
X0289256Y0102595D02*
X0280240Y0102595D01*
X0280240Y0103381D02*
X0289256Y0103381D01*
X0289256Y0112011D02*
X0280240Y0112011D01*
X0289256Y0112011D02*
X0289256Y0107325D01*
X0280240Y0107325D01*
X0280240Y0112011D01*
X0280240Y0108111D02*
X0289256Y0108111D01*
X0289256Y0108897D02*
X0280240Y0108897D01*
X0280240Y0109683D02*
X0289256Y0109683D01*
X0289256Y0110469D02*
X0280240Y0110469D01*
X0280240Y0111255D02*
X0289256Y0111255D01*
X0289256Y0119885D02*
X0280240Y0119885D01*
X0289256Y0119885D02*
X0289256Y0115199D01*
X0280240Y0115199D01*
X0280240Y0119885D01*
X0280240Y0115985D02*
X0289256Y0115985D01*
X0289256Y0116771D02*
X0280240Y0116771D01*
X0280240Y0117557D02*
X0289256Y0117557D01*
X0289256Y0118343D02*
X0280240Y0118343D01*
X0280240Y0119129D02*
X0289256Y0119129D01*
X0289256Y0127759D02*
X0280240Y0127759D01*
X0289256Y0127759D02*
X0289256Y0123073D01*
X0280240Y0123073D01*
X0280240Y0127759D01*
X0280240Y0123859D02*
X0289256Y0123859D01*
X0289256Y0124645D02*
X0280240Y0124645D01*
X0280240Y0125431D02*
X0289256Y0125431D01*
X0289256Y0126217D02*
X0280240Y0126217D01*
X0280240Y0127003D02*
X0289256Y0127003D01*
X0289256Y0135633D02*
X0280240Y0135633D01*
X0289256Y0135633D02*
X0289256Y0130947D01*
X0280240Y0130947D01*
X0280240Y0135633D01*
X0280240Y0131733D02*
X0289256Y0131733D01*
X0289256Y0132519D02*
X0280240Y0132519D01*
X0280240Y0133305D02*
X0289256Y0133305D01*
X0289256Y0134091D02*
X0280240Y0134091D01*
X0280240Y0134877D02*
X0289256Y0134877D01*
X0289256Y0143507D02*
X0280240Y0143507D01*
X0289256Y0143507D02*
X0289256Y0138821D01*
X0280240Y0138821D01*
X0280240Y0143507D01*
X0280240Y0139607D02*
X0289256Y0139607D01*
X0289256Y0140393D02*
X0280240Y0140393D01*
X0280240Y0141179D02*
X0289256Y0141179D01*
X0289256Y0141965D02*
X0280240Y0141965D01*
X0280240Y0142751D02*
X0289256Y0142751D01*
X0289256Y0151381D02*
X0280240Y0151381D01*
X0289256Y0151381D02*
X0289256Y0146695D01*
X0280240Y0146695D01*
X0280240Y0151381D01*
X0280240Y0147481D02*
X0289256Y0147481D01*
X0289256Y0148267D02*
X0280240Y0148267D01*
X0280240Y0149053D02*
X0289256Y0149053D01*
X0289256Y0149839D02*
X0280240Y0149839D01*
X0280240Y0150625D02*
X0289256Y0150625D01*
D18*
X0272316Y0188998D02*
X0265622Y0188998D01*
X0265622Y0195692D01*
X0272316Y0195692D01*
X0272316Y0188998D01*
X0272316Y0190120D02*
X0265622Y0190120D01*
X0265622Y0191242D02*
X0272316Y0191242D01*
X0272316Y0192364D02*
X0265622Y0192364D01*
X0265622Y0193486D02*
X0272316Y0193486D01*
X0272316Y0194608D02*
X0265622Y0194608D01*
X0162079Y0188998D02*
X0155385Y0188998D01*
X0155385Y0195692D01*
X0162079Y0195692D01*
X0162079Y0188998D01*
X0162079Y0190120D02*
X0155385Y0190120D01*
X0155385Y0191242D02*
X0162079Y0191242D01*
X0162079Y0192364D02*
X0155385Y0192364D01*
X0155385Y0193486D02*
X0162079Y0193486D01*
X0162079Y0194608D02*
X0155385Y0194608D01*
X0265622Y0047266D02*
X0272316Y0047266D01*
X0265622Y0047266D02*
X0265622Y0053960D01*
X0272316Y0053960D01*
X0272316Y0047266D01*
X0272316Y0048388D02*
X0265622Y0048388D01*
X0265622Y0049510D02*
X0272316Y0049510D01*
X0272316Y0050632D02*
X0265622Y0050632D01*
X0265622Y0051754D02*
X0272316Y0051754D01*
X0272316Y0052876D02*
X0265622Y0052876D01*
D19*
X0253220Y0152975D03*
X0245346Y0152975D03*
X0237472Y0152975D03*
D20*
X0131173Y0101597D03*
X0131173Y0094117D03*
X0123299Y0094117D03*
X0123299Y0101597D03*
X0069362Y0143329D03*
X0069362Y0150809D03*
X0122118Y0052778D03*
X0131567Y0052778D03*
X0131567Y0045298D03*
X0122118Y0045298D03*
D21*
X0065425Y0047463D03*
X0065425Y0066361D03*
X0092197Y0066361D03*
X0092197Y0047463D03*
D22*
X0036291Y0195101D03*
X0036291Y0197660D03*
X0036291Y0200219D03*
X0036291Y0202778D03*
X0036291Y0205337D03*
X0036291Y0238408D03*
X0036291Y0240967D03*
X0036291Y0243526D03*
X0036291Y0246085D03*
X0036291Y0248644D03*
D23*
X0334904Y0206321D03*
X0340829Y0206321D03*
X0340829Y0192542D03*
X0334904Y0192542D03*
X0334904Y0108290D03*
X0340829Y0108290D03*
X0340829Y0094510D03*
X0334904Y0094510D03*
D24*
X0355583Y0140613D03*
X0355583Y0145613D03*
X0355583Y0150613D03*
X0355583Y0155613D03*
X0355583Y0160613D03*
X0371331Y0160613D03*
X0371331Y0155613D03*
X0371331Y0150613D03*
X0371331Y0145613D03*
X0371331Y0140613D03*
D25*
X0357551Y0171164D03*
X0350071Y0171164D03*
M02*
