G75*
%MOIN*%
%OFA0B0*%
%FSLAX25Y25*%
%IPPOS*%
%LPD*%
%AMOC8*
5,1,8,0,0,1.08239X$1,22.5*
%
%ADD10C,0.05937*%
%ADD11C,0.06000*%
%ADD12C,0.05000*%
%ADD13C,0.07500*%
%ADD14C,0.10500*%
%ADD15C,0.04362*%
%ADD16C,0.03969*%
%ADD17C,0.02781*%
%ADD18C,0.00787*%
%ADD19C,0.09449*%
%ADD20C,0.01181*%
%ADD21C,0.06299*%
%ADD22C,0.16598*%
%ADD23C,0.05610*%
D10*
X0047520Y0077748D03*
X0059331Y0097433D03*
X0034528Y0097433D03*
D11*
X0036154Y0120035D03*
X0026154Y0120035D03*
X0060638Y0141696D03*
X0060638Y0151696D03*
X0088850Y0254274D03*
X0098850Y0254274D03*
X0098850Y0264274D03*
X0088850Y0264274D03*
X0108850Y0264274D03*
X0118850Y0264274D03*
X0118850Y0254274D03*
X0108850Y0254274D03*
X0128850Y0254274D03*
X0138850Y0254274D03*
X0138850Y0264274D03*
X0128850Y0264274D03*
X0148850Y0264274D03*
X0158850Y0264274D03*
X0168850Y0264274D03*
X0168850Y0254274D03*
X0158850Y0254274D03*
X0148850Y0254274D03*
X0178850Y0254274D03*
X0188850Y0254274D03*
X0188850Y0264274D03*
X0178850Y0264274D03*
X0198850Y0264274D03*
X0208850Y0264274D03*
X0218850Y0264274D03*
X0218850Y0254274D03*
X0208850Y0254274D03*
X0198850Y0254274D03*
X0228850Y0254274D03*
X0238850Y0254274D03*
X0238850Y0264274D03*
X0228850Y0264274D03*
X0248850Y0264274D03*
X0258850Y0264274D03*
X0258850Y0254274D03*
X0248850Y0254274D03*
X0268850Y0254274D03*
X0278850Y0254274D03*
X0288850Y0254274D03*
X0288850Y0264274D03*
X0278850Y0264274D03*
X0268850Y0264274D03*
X0298850Y0264274D03*
X0308850Y0264274D03*
X0308850Y0254274D03*
X0298850Y0254274D03*
X0318850Y0254274D03*
X0328850Y0254274D03*
X0338850Y0254274D03*
X0338850Y0264274D03*
X0328850Y0264274D03*
X0318850Y0264274D03*
X0392984Y0184865D03*
X0402984Y0184865D03*
X0402984Y0174865D03*
X0392984Y0174865D03*
X0392984Y0164865D03*
X0402984Y0164865D03*
X0402984Y0154865D03*
X0392984Y0154865D03*
X0392984Y0144865D03*
X0402984Y0144865D03*
X0402984Y0134865D03*
X0392984Y0134865D03*
X0392984Y0124865D03*
X0402984Y0124865D03*
X0402984Y0114865D03*
X0392984Y0114865D03*
X0392984Y0104865D03*
X0402984Y0104865D03*
X0402984Y0094865D03*
X0392984Y0094865D03*
D12*
X0391016Y0225809D03*
X0398890Y0225809D03*
X0383142Y0225809D03*
X0375268Y0225809D03*
X0375268Y0251400D03*
X0383142Y0251400D03*
X0391016Y0251400D03*
X0398890Y0251400D03*
D13*
X0361094Y0063998D03*
D14*
X0351056Y0053959D03*
X0371133Y0053959D03*
X0371133Y0074037D03*
X0351056Y0074037D03*
D15*
X0036291Y0190672D03*
X0036291Y0209766D03*
X0036291Y0233979D03*
X0036291Y0253073D03*
D16*
X0025858Y0257798D03*
X0025858Y0229254D03*
X0025858Y0214491D03*
X0025858Y0185947D03*
D17*
X0055583Y0208880D03*
X0058732Y0208880D03*
X0058732Y0212424D03*
X0055583Y0212424D03*
X0055583Y0215967D03*
X0058732Y0215967D03*
X0063693Y0222778D03*
X0063890Y0207935D03*
X0072118Y0208093D03*
X0072315Y0191164D03*
X0072236Y0185928D03*
X0072118Y0180534D03*
X0068181Y0175809D03*
X0064244Y0180534D03*
X0064244Y0186282D03*
X0064126Y0191361D03*
X0068181Y0168723D03*
X0085504Y0156912D03*
X0085504Y0152975D03*
X0092984Y0146282D03*
X0092984Y0143132D03*
X0092984Y0139983D03*
X0092984Y0136833D03*
X0092984Y0133683D03*
X0092984Y0130534D03*
X0104402Y0130928D03*
X0104402Y0134077D03*
X0104402Y0137227D03*
X0104402Y0140376D03*
X0104402Y0143526D03*
X0104402Y0146676D03*
X0112276Y0148250D03*
X0117787Y0148250D03*
X0128811Y0140376D03*
X0134323Y0140376D03*
X0136685Y0133290D03*
X0154795Y0137227D03*
X0174480Y0137227D03*
X0194165Y0137227D03*
X0213850Y0137227D03*
X0233535Y0137227D03*
X0253220Y0137227D03*
X0272906Y0137227D03*
X0272906Y0156912D03*
X0277630Y0156912D03*
X0253220Y0158093D03*
X0246921Y0158093D03*
X0243200Y0158093D03*
X0239619Y0158093D03*
X0235898Y0158093D03*
X0229598Y0168723D03*
X0237472Y0176597D03*
X0253220Y0176597D03*
X0272906Y0176597D03*
X0253220Y0196282D03*
X0233535Y0196282D03*
X0217787Y0196282D03*
X0209913Y0188408D03*
X0213850Y0176597D03*
X0194165Y0176597D03*
X0194165Y0188408D03*
X0194165Y0200219D03*
X0174480Y0200219D03*
X0174480Y0188408D03*
X0174480Y0176597D03*
X0154795Y0176597D03*
X0136685Y0180534D03*
X0126449Y0189983D03*
X0119362Y0189983D03*
X0119362Y0193704D03*
X0119362Y0197285D03*
X0119362Y0201006D03*
X0122512Y0204156D03*
X0104441Y0179668D03*
X0119362Y0168723D03*
X0123299Y0164786D03*
X0127236Y0168723D03*
X0131173Y0164786D03*
X0127236Y0160849D03*
X0131173Y0156912D03*
X0136685Y0156912D03*
X0134323Y0149825D03*
X0154795Y0156912D03*
X0174480Y0156912D03*
X0194165Y0156912D03*
X0213850Y0156912D03*
X0213850Y0117542D03*
X0213850Y0107306D03*
X0213850Y0097857D03*
X0194165Y0097857D03*
X0174480Y0097857D03*
X0165031Y0097857D03*
X0154795Y0097857D03*
X0135898Y0093920D03*
X0131173Y0089983D03*
X0135898Y0086046D03*
X0123299Y0089983D03*
X0118575Y0093920D03*
X0111488Y0097857D03*
X0103614Y0101794D03*
X0099677Y0109668D03*
X0091803Y0113605D03*
X0089441Y0119117D03*
X0073693Y0115180D03*
X0065031Y0113605D03*
X0062669Y0115967D03*
X0060307Y0118329D03*
X0057945Y0120691D03*
X0055583Y0123054D03*
X0053220Y0125416D03*
X0044559Y0124628D03*
X0053220Y0115967D03*
X0068181Y0125416D03*
X0068181Y0133290D03*
X0072906Y0133290D03*
X0069756Y0139589D03*
X0073693Y0143526D03*
X0020937Y0141164D03*
X0020937Y0149038D03*
X0020937Y0113605D03*
X0020937Y0105731D03*
X0020937Y0097857D03*
X0020937Y0089983D03*
X0020937Y0082109D03*
X0020937Y0074235D03*
X0020937Y0066361D03*
X0028811Y0060061D03*
X0022512Y0056912D03*
X0019362Y0050613D03*
X0022512Y0044313D03*
X0028811Y0041164D03*
X0035110Y0044313D03*
X0038260Y0050613D03*
X0035110Y0056912D03*
X0044559Y0042739D03*
X0052433Y0042739D03*
X0061094Y0043132D03*
X0069756Y0043132D03*
X0069756Y0052187D03*
X0061094Y0052187D03*
X0079992Y0042739D03*
X0087866Y0043132D03*
X0096134Y0043132D03*
X0103614Y0042739D03*
X0096134Y0051794D03*
X0087866Y0051794D03*
X0083929Y0074235D03*
X0076055Y0074235D03*
X0076055Y0082109D03*
X0083929Y0082109D03*
X0076055Y0089983D03*
X0119362Y0070298D03*
X0123299Y0070298D03*
X0127236Y0070298D03*
X0131173Y0070298D03*
X0136685Y0070298D03*
X0131567Y0056518D03*
X0135898Y0054550D03*
X0126843Y0054156D03*
X0122118Y0056518D03*
X0117787Y0054156D03*
X0154795Y0058487D03*
X0165031Y0058487D03*
X0174480Y0058487D03*
X0194165Y0058487D03*
X0194165Y0042739D03*
X0186291Y0042739D03*
X0178417Y0042739D03*
X0170543Y0042739D03*
X0162669Y0042739D03*
X0154795Y0042739D03*
X0202039Y0042739D03*
X0209913Y0042739D03*
X0217787Y0042739D03*
X0225661Y0042739D03*
X0233535Y0042739D03*
X0241409Y0042739D03*
X0249283Y0042739D03*
X0257157Y0042739D03*
X0265031Y0042739D03*
X0272906Y0042739D03*
X0292197Y0054550D03*
X0296528Y0042739D03*
X0304402Y0042739D03*
X0312276Y0042739D03*
X0320150Y0042739D03*
X0328024Y0042739D03*
X0335898Y0042739D03*
X0343772Y0042739D03*
X0351646Y0042739D03*
X0359520Y0042739D03*
X0367394Y0042739D03*
X0375268Y0042739D03*
X0383142Y0042739D03*
X0392591Y0044313D03*
X0398890Y0041164D03*
X0405189Y0044313D03*
X0408339Y0050613D03*
X0405189Y0056912D03*
X0398890Y0060061D03*
X0392591Y0056912D03*
X0389441Y0050613D03*
X0406764Y0066361D03*
X0406764Y0074235D03*
X0406764Y0082109D03*
X0406764Y0089983D03*
X0406764Y0097857D03*
X0406764Y0105731D03*
X0383811Y0112109D03*
X0383772Y0124156D03*
X0383811Y0134943D03*
X0381449Y0141991D03*
X0378142Y0146046D03*
X0387748Y0149156D03*
X0383890Y0160967D03*
X0362472Y0149865D03*
X0348496Y0149825D03*
X0348299Y0155613D03*
X0347669Y0164156D03*
X0354165Y0176794D03*
X0340780Y0186164D03*
X0334598Y0178841D03*
X0328181Y0163998D03*
X0326646Y0153880D03*
X0326488Y0142817D03*
X0326567Y0131164D03*
X0325661Y0118526D03*
X0325661Y0114628D03*
X0325543Y0110888D03*
X0326646Y0106597D03*
X0334874Y0101203D03*
X0326724Y0087581D03*
X0325386Y0080376D03*
X0318732Y0080337D03*
X0331961Y0078172D03*
X0312591Y0058920D03*
X0330976Y0058447D03*
X0292197Y0070298D03*
X0292197Y0078172D03*
X0292197Y0086046D03*
X0278417Y0093920D03*
X0272906Y0097857D03*
X0263457Y0097857D03*
X0253220Y0097857D03*
X0233535Y0097857D03*
X0233535Y0117542D03*
X0253220Y0117542D03*
X0272906Y0117542D03*
X0309244Y0112109D03*
X0312787Y0115219D03*
X0314520Y0118723D03*
X0348496Y0140376D03*
X0366370Y0133802D03*
X0366291Y0123880D03*
X0366528Y0112306D03*
X0354008Y0112227D03*
X0352157Y0101243D03*
X0366134Y0088959D03*
X0387709Y0075298D03*
X0272906Y0058487D03*
X0264244Y0058487D03*
X0253220Y0058487D03*
X0233535Y0058487D03*
X0213850Y0058487D03*
X0194165Y0078172D03*
X0233535Y0078172D03*
X0194165Y0117542D03*
X0174480Y0117542D03*
X0154795Y0117542D03*
X0154795Y0200219D03*
X0198102Y0214392D03*
X0200465Y0217542D03*
X0204402Y0217542D03*
X0161882Y0241164D03*
X0164244Y0247463D03*
X0148496Y0247463D03*
X0148496Y0238802D03*
X0139441Y0239589D03*
X0096528Y0238014D03*
X0091803Y0239589D03*
X0083929Y0235652D03*
X0076055Y0235652D03*
X0079992Y0227778D03*
X0061882Y0245101D03*
X0053181Y0235849D03*
X0060307Y0267148D03*
X0044559Y0267148D03*
X0035110Y0272660D03*
X0028811Y0269510D03*
X0022512Y0272660D03*
X0019362Y0278959D03*
X0022512Y0285258D03*
X0028811Y0288408D03*
X0035110Y0285258D03*
X0038260Y0278959D03*
X0044559Y0286833D03*
X0052433Y0286833D03*
X0060307Y0286833D03*
X0068181Y0286833D03*
X0076055Y0286833D03*
X0083929Y0286833D03*
X0091803Y0286833D03*
X0099677Y0286833D03*
X0107551Y0286833D03*
X0115425Y0286833D03*
X0123299Y0286833D03*
X0131173Y0286833D03*
X0139047Y0286833D03*
X0146921Y0286833D03*
X0154795Y0286833D03*
X0162669Y0286833D03*
X0170543Y0286833D03*
X0178417Y0286833D03*
X0186291Y0286833D03*
X0194165Y0286833D03*
X0202039Y0286833D03*
X0209913Y0286833D03*
X0217787Y0286833D03*
X0225661Y0286833D03*
X0233535Y0286833D03*
X0241409Y0286833D03*
X0249283Y0286833D03*
X0257157Y0286833D03*
X0265031Y0286833D03*
X0272906Y0286833D03*
X0280780Y0286833D03*
X0288654Y0286833D03*
X0296528Y0286833D03*
X0304402Y0286833D03*
X0312276Y0286833D03*
X0320150Y0286833D03*
X0328024Y0286833D03*
X0335898Y0286833D03*
X0343772Y0286833D03*
X0351646Y0286833D03*
X0359520Y0286833D03*
X0367394Y0286833D03*
X0375268Y0286833D03*
X0383142Y0286833D03*
X0392591Y0285258D03*
X0398890Y0288408D03*
X0405189Y0285258D03*
X0408339Y0278959D03*
X0405189Y0272660D03*
X0398890Y0269510D03*
X0392591Y0272660D03*
X0389441Y0278959D03*
X0375268Y0275022D03*
X0351646Y0259274D03*
X0351646Y0251400D03*
X0357787Y0251400D03*
X0362591Y0236321D03*
X0359244Y0233841D03*
X0354087Y0230337D03*
X0354362Y0226400D03*
X0350386Y0221046D03*
X0339756Y0212424D03*
X0354008Y0191282D03*
X0375110Y0199235D03*
X0390622Y0194865D03*
X0405937Y0194235D03*
X0406764Y0215967D03*
X0406764Y0223841D03*
X0406764Y0231715D03*
X0406764Y0239589D03*
X0406764Y0247463D03*
X0406764Y0255337D03*
X0406764Y0263211D03*
X0367394Y0235652D03*
X0374717Y0217817D03*
X0390346Y0216203D03*
X0377236Y0178369D03*
X0272906Y0200219D03*
X0257945Y0216754D03*
X0253220Y0214392D03*
X0248496Y0216754D03*
X0204402Y0271479D03*
X0192591Y0272660D03*
X0076055Y0267148D03*
D18*
X0031195Y0040176D02*
X0031011Y0039992D01*
X0396690Y0039992D01*
X0396506Y0040176D01*
X0396506Y0041542D01*
X0394162Y0042513D01*
X0393578Y0041929D01*
X0391603Y0041929D01*
X0390206Y0043326D01*
X0390206Y0045301D01*
X0390790Y0045884D01*
X0389819Y0048228D01*
X0388453Y0048228D01*
X0387057Y0049625D01*
X0387057Y0051600D01*
X0388453Y0052997D01*
X0389819Y0052997D01*
X0390790Y0055341D01*
X0390206Y0055924D01*
X0390206Y0057899D01*
X0391603Y0059296D01*
X0393578Y0059296D01*
X0394162Y0058713D01*
X0396506Y0059684D01*
X0396506Y0061049D01*
X0397902Y0062446D01*
X0399877Y0062446D01*
X0401274Y0061049D01*
X0401274Y0059684D01*
X0403618Y0058713D01*
X0404201Y0059296D01*
X0406177Y0059296D01*
X0407573Y0057899D01*
X0407573Y0055924D01*
X0406990Y0055341D01*
X0407961Y0052997D01*
X0409326Y0052997D01*
X0409510Y0052813D01*
X0409510Y0276759D01*
X0409326Y0276575D01*
X0407961Y0276575D01*
X0406990Y0274231D01*
X0407573Y0273647D01*
X0407573Y0271672D01*
X0406177Y0270276D01*
X0404201Y0270276D01*
X0403618Y0270859D01*
X0401274Y0269888D01*
X0401274Y0268523D01*
X0399877Y0267126D01*
X0397902Y0267126D01*
X0396506Y0268523D01*
X0396506Y0269888D01*
X0394162Y0270859D01*
X0393578Y0270276D01*
X0391603Y0270276D01*
X0390206Y0271672D01*
X0390206Y0273647D01*
X0390790Y0274231D01*
X0389819Y0276575D01*
X0388453Y0276575D01*
X0387057Y0277971D01*
X0387057Y0279947D01*
X0388453Y0281343D01*
X0389819Y0281343D01*
X0390790Y0283687D01*
X0390206Y0284271D01*
X0390206Y0286246D01*
X0391603Y0287643D01*
X0393578Y0287643D01*
X0394162Y0287059D01*
X0396506Y0288030D01*
X0396506Y0289395D01*
X0396690Y0289580D01*
X0031011Y0289580D01*
X0031195Y0289395D01*
X0031195Y0288030D01*
X0033539Y0287059D01*
X0034123Y0287643D01*
X0036098Y0287643D01*
X0037494Y0286246D01*
X0037494Y0284271D01*
X0036911Y0283687D01*
X0037882Y0281343D01*
X0039247Y0281343D01*
X0040644Y0279947D01*
X0040644Y0277971D01*
X0039247Y0276575D01*
X0037882Y0276575D01*
X0036911Y0274231D01*
X0037494Y0273647D01*
X0037494Y0271672D01*
X0036098Y0270276D01*
X0034123Y0270276D01*
X0033539Y0270859D01*
X0031195Y0269888D01*
X0031195Y0268523D01*
X0029799Y0267126D01*
X0027823Y0267126D01*
X0026427Y0268523D01*
X0026427Y0269888D01*
X0024083Y0270859D01*
X0023499Y0270276D01*
X0021524Y0270276D01*
X0020128Y0271672D01*
X0020128Y0273647D01*
X0020711Y0274231D01*
X0019740Y0276575D01*
X0018375Y0276575D01*
X0018191Y0276759D01*
X0018191Y0052813D01*
X0018375Y0052997D01*
X0019740Y0052997D01*
X0020711Y0055341D01*
X0020128Y0055924D01*
X0020128Y0057899D01*
X0021524Y0059296D01*
X0023499Y0059296D01*
X0024083Y0058713D01*
X0026427Y0059684D01*
X0026427Y0061049D01*
X0027823Y0062446D01*
X0029799Y0062446D01*
X0031195Y0061049D01*
X0031195Y0059684D01*
X0033539Y0058713D01*
X0034123Y0059296D01*
X0036098Y0059296D01*
X0037494Y0057899D01*
X0037494Y0055924D01*
X0036911Y0055341D01*
X0037882Y0052997D01*
X0039247Y0052997D01*
X0040644Y0051600D01*
X0040644Y0049625D01*
X0039247Y0048228D01*
X0037882Y0048228D01*
X0036911Y0045884D01*
X0037494Y0045301D01*
X0037494Y0043326D01*
X0036098Y0041929D01*
X0034123Y0041929D01*
X0033539Y0042513D01*
X0031195Y0041542D01*
X0031195Y0040176D01*
X0031195Y0040373D02*
X0396506Y0040373D01*
X0396506Y0041159D02*
X0031195Y0041159D01*
X0032170Y0041945D02*
X0034107Y0041945D01*
X0036114Y0041945D02*
X0391587Y0041945D01*
X0390801Y0042731D02*
X0036900Y0042731D01*
X0037494Y0043517D02*
X0390206Y0043517D01*
X0390206Y0044303D02*
X0037494Y0044303D01*
X0037494Y0045089D02*
X0390206Y0045089D01*
X0390780Y0045875D02*
X0036921Y0045875D01*
X0037233Y0046661D02*
X0390468Y0046661D01*
X0390143Y0047447D02*
X0037558Y0047447D01*
X0039252Y0048233D02*
X0348087Y0048233D01*
X0348199Y0048168D02*
X0348980Y0047845D01*
X0349796Y0047626D01*
X0350633Y0047516D01*
X0350662Y0047516D01*
X0350662Y0053566D01*
X0344612Y0053566D01*
X0344612Y0053537D01*
X0344722Y0052700D01*
X0344941Y0051884D01*
X0345264Y0051103D01*
X0345686Y0050372D01*
X0346200Y0049702D01*
X0346798Y0049104D01*
X0347468Y0048590D01*
X0348199Y0048168D01*
X0346910Y0049018D02*
X0040038Y0049018D01*
X0040644Y0049804D02*
X0346122Y0049804D01*
X0345560Y0050590D02*
X0040644Y0050590D01*
X0040644Y0051376D02*
X0345151Y0051376D01*
X0344866Y0052162D02*
X0040082Y0052162D01*
X0039296Y0052948D02*
X0290427Y0052948D01*
X0289813Y0053562D02*
X0291209Y0052165D01*
X0293184Y0052165D01*
X0294581Y0053562D01*
X0294581Y0055537D01*
X0293184Y0056934D01*
X0291209Y0056934D01*
X0289813Y0055537D01*
X0289813Y0053562D01*
X0289813Y0053734D02*
X0037577Y0053734D01*
X0037251Y0054520D02*
X0289813Y0054520D01*
X0289813Y0055306D02*
X0036926Y0055306D01*
X0037494Y0056092D02*
X0290367Y0056092D01*
X0291153Y0056878D02*
X0037494Y0056878D01*
X0037494Y0057663D02*
X0345776Y0057663D01*
X0345686Y0057547D02*
X0345264Y0056816D01*
X0344941Y0056035D01*
X0344722Y0055219D01*
X0344612Y0054382D01*
X0344612Y0054353D01*
X0350662Y0054353D01*
X0350662Y0060403D01*
X0350633Y0060403D01*
X0349796Y0060293D01*
X0348980Y0060074D01*
X0348199Y0059751D01*
X0347468Y0059329D01*
X0346798Y0058814D01*
X0346200Y0058217D01*
X0345686Y0057547D01*
X0345300Y0056878D02*
X0293241Y0056878D01*
X0294027Y0056092D02*
X0344964Y0056092D01*
X0344745Y0055306D02*
X0294581Y0055306D01*
X0294581Y0054520D02*
X0344630Y0054520D01*
X0344689Y0052948D02*
X0293967Y0052948D01*
X0294581Y0053734D02*
X0350662Y0053734D01*
X0350662Y0053566D02*
X0350662Y0054353D01*
X0351449Y0054353D01*
X0351449Y0060403D01*
X0351478Y0060403D01*
X0352315Y0060293D01*
X0353131Y0060074D01*
X0353912Y0059751D01*
X0354643Y0059329D01*
X0355313Y0058814D01*
X0355911Y0058217D01*
X0356425Y0057547D01*
X0356847Y0056816D01*
X0357170Y0056035D01*
X0357389Y0055219D01*
X0357499Y0054382D01*
X0357499Y0054353D01*
X0351449Y0054353D01*
X0351449Y0053566D01*
X0357499Y0053566D01*
X0357499Y0053537D01*
X0357389Y0052700D01*
X0357170Y0051884D01*
X0356847Y0051103D01*
X0356425Y0050372D01*
X0355911Y0049702D01*
X0355313Y0049104D01*
X0354643Y0048590D01*
X0353912Y0048168D01*
X0353131Y0047845D01*
X0352315Y0047626D01*
X0351478Y0047516D01*
X0351449Y0047516D01*
X0351449Y0053566D01*
X0350662Y0053566D01*
X0350662Y0052948D02*
X0351449Y0052948D01*
X0351449Y0052162D02*
X0350662Y0052162D01*
X0350662Y0051376D02*
X0351449Y0051376D01*
X0351449Y0050590D02*
X0350662Y0050590D01*
X0350662Y0049804D02*
X0351449Y0049804D01*
X0351449Y0049018D02*
X0350662Y0049018D01*
X0350662Y0048233D02*
X0351449Y0048233D01*
X0354024Y0048233D02*
X0368165Y0048233D01*
X0368277Y0048168D02*
X0369058Y0047845D01*
X0369874Y0047626D01*
X0370711Y0047516D01*
X0370740Y0047516D01*
X0370740Y0053566D01*
X0364690Y0053566D01*
X0364690Y0053537D01*
X0364800Y0052700D01*
X0365019Y0051884D01*
X0365342Y0051103D01*
X0365764Y0050372D01*
X0366278Y0049702D01*
X0366876Y0049104D01*
X0367546Y0048590D01*
X0368277Y0048168D01*
X0366988Y0049018D02*
X0355201Y0049018D01*
X0355989Y0049804D02*
X0366200Y0049804D01*
X0365638Y0050590D02*
X0356551Y0050590D01*
X0356960Y0051376D02*
X0365229Y0051376D01*
X0364944Y0052162D02*
X0357245Y0052162D01*
X0357422Y0052948D02*
X0364767Y0052948D01*
X0364690Y0054353D02*
X0370740Y0054353D01*
X0370740Y0060403D01*
X0370711Y0060403D01*
X0369874Y0060293D01*
X0369058Y0060074D01*
X0368277Y0059751D01*
X0367546Y0059329D01*
X0366876Y0058814D01*
X0366278Y0058217D01*
X0365764Y0057547D01*
X0365342Y0056816D01*
X0365019Y0056035D01*
X0364800Y0055219D01*
X0364690Y0054382D01*
X0364690Y0054353D01*
X0364708Y0054520D02*
X0357481Y0054520D01*
X0357366Y0055306D02*
X0364823Y0055306D01*
X0365042Y0056092D02*
X0357147Y0056092D01*
X0356811Y0056878D02*
X0365378Y0056878D01*
X0365854Y0057663D02*
X0356335Y0057663D01*
X0355678Y0058449D02*
X0366511Y0058449D01*
X0367424Y0059235D02*
X0354765Y0059235D01*
X0353259Y0060021D02*
X0358363Y0060021D01*
X0358407Y0059977D02*
X0360151Y0059255D01*
X0362038Y0059255D01*
X0363782Y0059977D01*
X0365116Y0061311D01*
X0365838Y0063055D01*
X0365838Y0064942D01*
X0365116Y0066686D01*
X0363782Y0068020D01*
X0362038Y0068742D01*
X0360151Y0068742D01*
X0358407Y0068020D01*
X0357073Y0066686D01*
X0356351Y0064942D01*
X0356351Y0063055D01*
X0357073Y0061311D01*
X0358407Y0059977D01*
X0357577Y0060807D02*
X0031195Y0060807D01*
X0031195Y0060021D02*
X0348852Y0060021D01*
X0347346Y0059235D02*
X0036159Y0059235D01*
X0036944Y0058449D02*
X0346433Y0058449D01*
X0350662Y0058449D02*
X0351449Y0058449D01*
X0351449Y0057663D02*
X0350662Y0057663D01*
X0350662Y0056878D02*
X0351449Y0056878D01*
X0351449Y0056092D02*
X0350662Y0056092D01*
X0350662Y0055306D02*
X0351449Y0055306D01*
X0351449Y0054520D02*
X0350662Y0054520D01*
X0351449Y0053734D02*
X0370740Y0053734D01*
X0370740Y0053566D02*
X0370740Y0054353D01*
X0371527Y0054353D01*
X0371527Y0060403D01*
X0371556Y0060403D01*
X0372393Y0060293D01*
X0373209Y0060074D01*
X0373990Y0059751D01*
X0374721Y0059329D01*
X0375391Y0058814D01*
X0375988Y0058217D01*
X0376503Y0057547D01*
X0376925Y0056816D01*
X0377248Y0056035D01*
X0377467Y0055219D01*
X0377577Y0054382D01*
X0377577Y0054353D01*
X0371527Y0054353D01*
X0371527Y0053566D01*
X0377577Y0053566D01*
X0377577Y0053537D01*
X0377467Y0052700D01*
X0377248Y0051884D01*
X0376925Y0051103D01*
X0376503Y0050372D01*
X0375988Y0049702D01*
X0375391Y0049104D01*
X0374721Y0048590D01*
X0373990Y0048168D01*
X0373209Y0047845D01*
X0372393Y0047626D01*
X0371556Y0047516D01*
X0371527Y0047516D01*
X0371527Y0053566D01*
X0370740Y0053566D01*
X0370740Y0052948D02*
X0371527Y0052948D01*
X0371527Y0052162D02*
X0370740Y0052162D01*
X0370740Y0051376D02*
X0371527Y0051376D01*
X0371527Y0050590D02*
X0370740Y0050590D01*
X0370740Y0049804D02*
X0371527Y0049804D01*
X0371527Y0049018D02*
X0370740Y0049018D01*
X0370740Y0048233D02*
X0371527Y0048233D01*
X0374102Y0048233D02*
X0388449Y0048233D01*
X0387663Y0049018D02*
X0375279Y0049018D01*
X0376067Y0049804D02*
X0387057Y0049804D01*
X0387057Y0050590D02*
X0376629Y0050590D01*
X0377038Y0051376D02*
X0387057Y0051376D01*
X0387619Y0052162D02*
X0377323Y0052162D01*
X0377500Y0052948D02*
X0388405Y0052948D01*
X0390124Y0053734D02*
X0371527Y0053734D01*
X0371527Y0054520D02*
X0370740Y0054520D01*
X0370740Y0055306D02*
X0371527Y0055306D01*
X0371527Y0056092D02*
X0370740Y0056092D01*
X0370740Y0056878D02*
X0371527Y0056878D01*
X0371527Y0057663D02*
X0370740Y0057663D01*
X0370740Y0058449D02*
X0371527Y0058449D01*
X0371527Y0059235D02*
X0370740Y0059235D01*
X0370740Y0060021D02*
X0371527Y0060021D01*
X0373337Y0060021D02*
X0396506Y0060021D01*
X0396506Y0060807D02*
X0364612Y0060807D01*
X0365233Y0061593D02*
X0397050Y0061593D01*
X0397835Y0062379D02*
X0365558Y0062379D01*
X0365838Y0063165D02*
X0409510Y0063165D01*
X0409510Y0063951D02*
X0365838Y0063951D01*
X0365838Y0064737D02*
X0409510Y0064737D01*
X0409510Y0065523D02*
X0365598Y0065523D01*
X0365272Y0066309D02*
X0409510Y0066309D01*
X0409510Y0067094D02*
X0364707Y0067094D01*
X0363921Y0067880D02*
X0369215Y0067880D01*
X0369058Y0067923D02*
X0369874Y0067704D01*
X0370711Y0067594D01*
X0370740Y0067594D01*
X0370740Y0073644D01*
X0364690Y0073644D01*
X0364690Y0073615D01*
X0364800Y0072778D01*
X0365019Y0071962D01*
X0365342Y0071181D01*
X0365764Y0070450D01*
X0366278Y0069780D01*
X0366876Y0069182D01*
X0367546Y0068668D01*
X0368277Y0068246D01*
X0369058Y0067923D01*
X0367549Y0068666D02*
X0362221Y0068666D01*
X0359968Y0068666D02*
X0354640Y0068666D01*
X0354643Y0068668D02*
X0355313Y0069182D01*
X0355911Y0069780D01*
X0356425Y0070450D01*
X0356847Y0071181D01*
X0357170Y0071962D01*
X0357389Y0072778D01*
X0357499Y0073615D01*
X0357499Y0073644D01*
X0351449Y0073644D01*
X0351449Y0074431D01*
X0350662Y0074431D01*
X0350662Y0080481D01*
X0350633Y0080481D01*
X0349796Y0080371D01*
X0348980Y0080152D01*
X0348199Y0079829D01*
X0347468Y0079407D01*
X0346798Y0078892D01*
X0346200Y0078295D01*
X0345686Y0077625D01*
X0345264Y0076893D01*
X0344941Y0076113D01*
X0344722Y0075297D01*
X0344612Y0074460D01*
X0344612Y0074431D01*
X0350662Y0074431D01*
X0350662Y0073644D01*
X0344612Y0073644D01*
X0344612Y0073615D01*
X0344722Y0072778D01*
X0344941Y0071962D01*
X0345264Y0071181D01*
X0345686Y0070450D01*
X0346200Y0069780D01*
X0346798Y0069182D01*
X0347468Y0068668D01*
X0348199Y0068246D01*
X0348980Y0067923D01*
X0349796Y0067704D01*
X0350633Y0067594D01*
X0350662Y0067594D01*
X0350662Y0073644D01*
X0351449Y0073644D01*
X0351449Y0067594D01*
X0351478Y0067594D01*
X0352315Y0067704D01*
X0353131Y0067923D01*
X0353912Y0068246D01*
X0354643Y0068668D01*
X0355583Y0069452D02*
X0366606Y0069452D01*
X0365927Y0070238D02*
X0356262Y0070238D01*
X0356756Y0071024D02*
X0365433Y0071024D01*
X0365081Y0071810D02*
X0357107Y0071810D01*
X0357340Y0072596D02*
X0364849Y0072596D01*
X0364720Y0073382D02*
X0357468Y0073382D01*
X0357499Y0074431D02*
X0351449Y0074431D01*
X0351449Y0080481D01*
X0351478Y0080481D01*
X0352315Y0080371D01*
X0353131Y0080152D01*
X0353912Y0079829D01*
X0354643Y0079407D01*
X0355313Y0078892D01*
X0355911Y0078295D01*
X0356425Y0077625D01*
X0356847Y0076893D01*
X0357170Y0076113D01*
X0357389Y0075297D01*
X0357499Y0074460D01*
X0357499Y0074431D01*
X0357434Y0074954D02*
X0364755Y0074954D01*
X0364800Y0075297D02*
X0364690Y0074460D01*
X0364690Y0074431D01*
X0370740Y0074431D01*
X0370740Y0080481D01*
X0370711Y0080481D01*
X0369874Y0080371D01*
X0369058Y0080152D01*
X0368277Y0079829D01*
X0367546Y0079407D01*
X0366876Y0078892D01*
X0366278Y0078295D01*
X0365764Y0077625D01*
X0365342Y0076893D01*
X0365019Y0076113D01*
X0364800Y0075297D01*
X0364919Y0075739D02*
X0357270Y0075739D01*
X0357000Y0076525D02*
X0365189Y0076525D01*
X0365583Y0077311D02*
X0356606Y0077311D01*
X0356062Y0078097D02*
X0366127Y0078097D01*
X0366866Y0078883D02*
X0355323Y0078883D01*
X0354189Y0079669D02*
X0368000Y0079669D01*
X0370513Y0080455D02*
X0351676Y0080455D01*
X0351449Y0080455D02*
X0350662Y0080455D01*
X0350435Y0080455D02*
X0327770Y0080455D01*
X0327770Y0081241D02*
X0409510Y0081241D01*
X0409510Y0082027D02*
X0327107Y0082027D01*
X0327770Y0081364D02*
X0326373Y0082761D01*
X0324398Y0082761D01*
X0323002Y0081364D01*
X0323002Y0079389D01*
X0324398Y0077992D01*
X0326373Y0077992D01*
X0327770Y0079389D01*
X0327770Y0081364D01*
X0327770Y0079669D02*
X0347922Y0079669D01*
X0346788Y0078883D02*
X0327264Y0078883D01*
X0326479Y0078097D02*
X0346049Y0078097D01*
X0345505Y0077311D02*
X0294581Y0077311D01*
X0294581Y0077184D02*
X0293184Y0075787D01*
X0291209Y0075787D01*
X0289813Y0077184D01*
X0289813Y0079159D01*
X0291209Y0080556D01*
X0293184Y0080556D01*
X0294581Y0079159D01*
X0294581Y0077184D01*
X0294581Y0078097D02*
X0317600Y0078097D01*
X0317745Y0077953D02*
X0319720Y0077953D01*
X0321117Y0079349D01*
X0321117Y0081325D01*
X0319720Y0082721D01*
X0317745Y0082721D01*
X0316348Y0081325D01*
X0316348Y0079349D01*
X0317745Y0077953D01*
X0316814Y0078883D02*
X0294581Y0078883D01*
X0294071Y0079669D02*
X0316348Y0079669D01*
X0316348Y0080455D02*
X0293285Y0080455D01*
X0291108Y0080455D02*
X0050698Y0080455D01*
X0050694Y0080460D02*
X0050231Y0080923D01*
X0049701Y0081308D01*
X0049117Y0081605D01*
X0048494Y0081808D01*
X0047913Y0081900D01*
X0047913Y0078142D01*
X0047126Y0078142D01*
X0047126Y0081900D01*
X0046545Y0081808D01*
X0045922Y0081605D01*
X0045338Y0081308D01*
X0044808Y0080923D01*
X0044345Y0080460D01*
X0043960Y0079929D01*
X0043662Y0079346D01*
X0043460Y0078723D01*
X0043368Y0078142D01*
X0047126Y0078142D01*
X0047126Y0077354D01*
X0047913Y0077354D01*
X0047913Y0073596D01*
X0048494Y0073688D01*
X0049117Y0073891D01*
X0049701Y0074188D01*
X0050231Y0074573D01*
X0050694Y0075037D01*
X0051080Y0075567D01*
X0051377Y0076150D01*
X0051579Y0076773D01*
X0051671Y0077354D01*
X0047913Y0077354D01*
X0047913Y0078142D01*
X0051671Y0078142D01*
X0051579Y0078723D01*
X0051377Y0079346D01*
X0051080Y0079929D01*
X0050694Y0080460D01*
X0051212Y0079669D02*
X0290322Y0079669D01*
X0289813Y0078883D02*
X0051527Y0078883D01*
X0051665Y0077311D02*
X0289813Y0077311D01*
X0289813Y0078097D02*
X0047913Y0078097D01*
X0047913Y0077311D02*
X0047126Y0077311D01*
X0047126Y0077354D02*
X0047126Y0073596D01*
X0046545Y0073688D01*
X0045922Y0073891D01*
X0045338Y0074188D01*
X0044808Y0074573D01*
X0044345Y0075037D01*
X0043960Y0075567D01*
X0043662Y0076150D01*
X0043460Y0076773D01*
X0043368Y0077354D01*
X0047126Y0077354D01*
X0047126Y0078097D02*
X0018191Y0078097D01*
X0018191Y0077311D02*
X0043375Y0077311D01*
X0043541Y0076525D02*
X0018191Y0076525D01*
X0018191Y0075739D02*
X0043872Y0075739D01*
X0044428Y0074954D02*
X0018191Y0074954D01*
X0018191Y0074168D02*
X0045379Y0074168D01*
X0047126Y0074168D02*
X0047913Y0074168D01*
X0047913Y0074954D02*
X0047126Y0074954D01*
X0047126Y0075739D02*
X0047913Y0075739D01*
X0047913Y0076525D02*
X0047126Y0076525D01*
X0047126Y0078883D02*
X0047913Y0078883D01*
X0047913Y0079669D02*
X0047126Y0079669D01*
X0047126Y0080455D02*
X0047913Y0080455D01*
X0047913Y0081241D02*
X0047126Y0081241D01*
X0045246Y0081241D02*
X0018191Y0081241D01*
X0018191Y0082027D02*
X0317050Y0082027D01*
X0316348Y0081241D02*
X0049793Y0081241D01*
X0051499Y0076525D02*
X0290471Y0076525D01*
X0293922Y0076525D02*
X0345111Y0076525D01*
X0344841Y0075739D02*
X0051168Y0075739D01*
X0050611Y0074954D02*
X0344677Y0074954D01*
X0344643Y0073382D02*
X0018191Y0073382D01*
X0018191Y0072596D02*
X0291123Y0072596D01*
X0291209Y0072682D02*
X0289813Y0071285D01*
X0289813Y0069310D01*
X0291209Y0067913D01*
X0293184Y0067913D01*
X0294581Y0069310D01*
X0294581Y0071285D01*
X0293184Y0072682D01*
X0291209Y0072682D01*
X0290337Y0071810D02*
X0018191Y0071810D01*
X0018191Y0071024D02*
X0289813Y0071024D01*
X0289813Y0070238D02*
X0018191Y0070238D01*
X0018191Y0069452D02*
X0289813Y0069452D01*
X0290456Y0068666D02*
X0018191Y0068666D01*
X0018191Y0067880D02*
X0349137Y0067880D01*
X0350662Y0067880D02*
X0351449Y0067880D01*
X0351449Y0068666D02*
X0350662Y0068666D01*
X0350662Y0069452D02*
X0351449Y0069452D01*
X0351449Y0070238D02*
X0350662Y0070238D01*
X0350662Y0071024D02*
X0351449Y0071024D01*
X0351449Y0071810D02*
X0350662Y0071810D01*
X0350662Y0072596D02*
X0351449Y0072596D01*
X0351449Y0073382D02*
X0350662Y0073382D01*
X0350662Y0074168D02*
X0049661Y0074168D01*
X0043512Y0078883D02*
X0018191Y0078883D01*
X0018191Y0079669D02*
X0043827Y0079669D01*
X0044342Y0080455D02*
X0018191Y0080455D01*
X0018191Y0082813D02*
X0409510Y0082813D01*
X0409510Y0083599D02*
X0018191Y0083599D01*
X0018191Y0084385D02*
X0134187Y0084385D01*
X0133513Y0085058D02*
X0134910Y0083661D01*
X0136885Y0083661D01*
X0138282Y0085058D01*
X0138282Y0087033D01*
X0136885Y0088430D01*
X0134910Y0088430D01*
X0133513Y0087033D01*
X0133513Y0085058D01*
X0133513Y0085170D02*
X0018191Y0085170D01*
X0018191Y0085956D02*
X0133513Y0085956D01*
X0133513Y0086742D02*
X0062693Y0086742D01*
X0063552Y0087098D02*
X0065554Y0089100D01*
X0409510Y0089100D01*
X0409510Y0088314D02*
X0293300Y0088314D01*
X0293184Y0088430D02*
X0291209Y0088430D01*
X0289813Y0087033D01*
X0289813Y0085058D01*
X0291209Y0083661D01*
X0293184Y0083661D01*
X0294581Y0085058D01*
X0294581Y0087033D01*
X0293184Y0088430D01*
X0294086Y0087528D02*
X0409510Y0087528D01*
X0409510Y0086742D02*
X0294581Y0086742D01*
X0294581Y0085956D02*
X0409510Y0085956D01*
X0409510Y0085170D02*
X0294581Y0085170D01*
X0293908Y0084385D02*
X0409510Y0084385D01*
X0409510Y0080455D02*
X0371754Y0080455D01*
X0371556Y0080481D02*
X0371527Y0080481D01*
X0371527Y0074431D01*
X0370740Y0074431D01*
X0370740Y0073644D01*
X0371527Y0073644D01*
X0371527Y0074431D01*
X0377577Y0074431D01*
X0377577Y0074460D01*
X0377467Y0075297D01*
X0377248Y0076113D01*
X0376925Y0076893D01*
X0376503Y0077625D01*
X0375988Y0078295D01*
X0375391Y0078892D01*
X0374721Y0079407D01*
X0373990Y0079829D01*
X0373209Y0080152D01*
X0372393Y0080371D01*
X0371556Y0080481D01*
X0371527Y0080455D02*
X0370740Y0080455D01*
X0370740Y0079669D02*
X0371527Y0079669D01*
X0371527Y0078883D02*
X0370740Y0078883D01*
X0370740Y0078097D02*
X0371527Y0078097D01*
X0371527Y0077311D02*
X0370740Y0077311D01*
X0370740Y0076525D02*
X0371527Y0076525D01*
X0371527Y0075739D02*
X0370740Y0075739D01*
X0370740Y0074954D02*
X0371527Y0074954D01*
X0371527Y0074168D02*
X0409510Y0074168D01*
X0409510Y0074954D02*
X0377512Y0074954D01*
X0377348Y0075739D02*
X0409510Y0075739D01*
X0409510Y0076525D02*
X0377078Y0076525D01*
X0376684Y0077311D02*
X0409510Y0077311D01*
X0409510Y0078097D02*
X0376140Y0078097D01*
X0375400Y0078883D02*
X0409510Y0078883D01*
X0409510Y0079669D02*
X0374267Y0079669D01*
X0370740Y0074168D02*
X0351449Y0074168D01*
X0351449Y0074954D02*
X0350662Y0074954D01*
X0350662Y0075739D02*
X0351449Y0075739D01*
X0351449Y0076525D02*
X0350662Y0076525D01*
X0350662Y0077311D02*
X0351449Y0077311D01*
X0351449Y0078097D02*
X0350662Y0078097D01*
X0350662Y0078883D02*
X0351449Y0078883D01*
X0351449Y0079669D02*
X0350662Y0079669D01*
X0344771Y0072596D02*
X0293270Y0072596D01*
X0294056Y0071810D02*
X0345004Y0071810D01*
X0345355Y0071024D02*
X0294581Y0071024D01*
X0294581Y0070238D02*
X0345849Y0070238D01*
X0346528Y0069452D02*
X0294581Y0069452D01*
X0293937Y0068666D02*
X0347471Y0068666D01*
X0352974Y0067880D02*
X0358268Y0067880D01*
X0357482Y0067094D02*
X0018191Y0067094D01*
X0018191Y0066309D02*
X0356917Y0066309D01*
X0356591Y0065523D02*
X0018191Y0065523D01*
X0018191Y0064737D02*
X0356351Y0064737D01*
X0356351Y0063951D02*
X0018191Y0063951D01*
X0018191Y0063165D02*
X0356351Y0063165D01*
X0356631Y0062379D02*
X0029865Y0062379D01*
X0030651Y0061593D02*
X0356956Y0061593D01*
X0351449Y0060021D02*
X0350662Y0060021D01*
X0350662Y0059235D02*
X0351449Y0059235D01*
X0363826Y0060021D02*
X0368930Y0060021D01*
X0374843Y0059235D02*
X0391542Y0059235D01*
X0390756Y0058449D02*
X0375756Y0058449D01*
X0376413Y0057663D02*
X0390206Y0057663D01*
X0390206Y0056878D02*
X0376889Y0056878D01*
X0377225Y0056092D02*
X0390206Y0056092D01*
X0390775Y0055306D02*
X0377444Y0055306D01*
X0377559Y0054520D02*
X0390450Y0054520D01*
X0393639Y0059235D02*
X0395423Y0059235D01*
X0399944Y0062379D02*
X0409510Y0062379D01*
X0409510Y0061593D02*
X0400730Y0061593D01*
X0401274Y0060807D02*
X0409510Y0060807D01*
X0409510Y0060021D02*
X0401274Y0060021D01*
X0402356Y0059235D02*
X0404141Y0059235D01*
X0406237Y0059235D02*
X0409510Y0059235D01*
X0409510Y0058449D02*
X0407023Y0058449D01*
X0407573Y0057663D02*
X0409510Y0057663D01*
X0409510Y0056878D02*
X0407573Y0056878D01*
X0407573Y0056092D02*
X0409510Y0056092D01*
X0409510Y0055306D02*
X0407004Y0055306D01*
X0407330Y0054520D02*
X0409510Y0054520D01*
X0409510Y0053734D02*
X0407655Y0053734D01*
X0409375Y0052948D02*
X0409510Y0052948D01*
X0409510Y0067880D02*
X0373052Y0067880D01*
X0373209Y0067923D02*
X0373990Y0068246D01*
X0374721Y0068668D01*
X0375391Y0069182D01*
X0375988Y0069780D01*
X0376503Y0070450D01*
X0376925Y0071181D01*
X0377248Y0071962D01*
X0377467Y0072778D01*
X0377577Y0073615D01*
X0377577Y0073644D01*
X0371527Y0073644D01*
X0371527Y0067594D01*
X0371556Y0067594D01*
X0372393Y0067704D01*
X0373209Y0067923D01*
X0374718Y0068666D02*
X0409510Y0068666D01*
X0409510Y0069452D02*
X0375661Y0069452D01*
X0376340Y0070238D02*
X0409510Y0070238D01*
X0409510Y0071024D02*
X0376834Y0071024D01*
X0377185Y0071810D02*
X0409510Y0071810D01*
X0409510Y0072596D02*
X0377418Y0072596D01*
X0377546Y0073382D02*
X0409510Y0073382D01*
X0409510Y0089886D02*
X0065880Y0089886D01*
X0066205Y0090672D02*
X0409510Y0090672D01*
X0409510Y0091458D02*
X0405430Y0091458D01*
X0405182Y0091278D02*
X0405716Y0091666D01*
X0406183Y0092133D01*
X0406571Y0092667D01*
X0406871Y0093255D01*
X0407075Y0093883D01*
X0407168Y0094471D01*
X0403378Y0094471D01*
X0403378Y0095258D01*
X0407168Y0095258D01*
X0407075Y0095847D01*
X0406871Y0096474D01*
X0406571Y0097063D01*
X0406183Y0097597D01*
X0405716Y0098063D01*
X0405182Y0098451D01*
X0404594Y0098751D01*
X0403966Y0098955D01*
X0403378Y0099048D01*
X0403378Y0095258D01*
X0402591Y0095258D01*
X0402591Y0099048D01*
X0402002Y0098955D01*
X0401374Y0098751D01*
X0400786Y0098451D01*
X0400252Y0098063D01*
X0399785Y0097597D01*
X0399397Y0097063D01*
X0399098Y0096474D01*
X0398894Y0095847D01*
X0398801Y0095258D01*
X0402590Y0095258D01*
X0402590Y0094471D01*
X0398801Y0094471D01*
X0398894Y0093883D01*
X0399098Y0093255D01*
X0399397Y0092667D01*
X0399785Y0092133D01*
X0400252Y0091666D01*
X0400786Y0091278D01*
X0401374Y0090978D01*
X0402002Y0090774D01*
X0402591Y0090681D01*
X0402591Y0094471D01*
X0403378Y0094471D01*
X0403378Y0090681D01*
X0403966Y0090774D01*
X0404594Y0090978D01*
X0405182Y0091278D01*
X0406264Y0092244D02*
X0409510Y0092244D01*
X0409510Y0093030D02*
X0406756Y0093030D01*
X0407053Y0093815D02*
X0409510Y0093815D01*
X0409510Y0094601D02*
X0403378Y0094601D01*
X0403378Y0093815D02*
X0402591Y0093815D01*
X0402591Y0093030D02*
X0403378Y0093030D01*
X0403378Y0092244D02*
X0402591Y0092244D01*
X0402591Y0091458D02*
X0403378Y0091458D01*
X0400539Y0091458D02*
X0395195Y0091458D01*
X0395246Y0091479D02*
X0396370Y0092602D01*
X0396978Y0094070D01*
X0396978Y0095659D01*
X0396370Y0097127D01*
X0395246Y0098250D01*
X0393779Y0098858D01*
X0392190Y0098858D01*
X0390722Y0098250D01*
X0389599Y0097127D01*
X0388991Y0095659D01*
X0388991Y0094070D01*
X0389599Y0092602D01*
X0390722Y0091479D01*
X0392190Y0090871D01*
X0393779Y0090871D01*
X0395246Y0091479D01*
X0396011Y0092244D02*
X0399705Y0092244D01*
X0399213Y0093030D02*
X0396547Y0093030D01*
X0396872Y0093815D02*
X0398916Y0093815D01*
X0398821Y0095387D02*
X0396978Y0095387D01*
X0396978Y0094601D02*
X0402590Y0094601D01*
X0402591Y0095387D02*
X0403378Y0095387D01*
X0403378Y0096173D02*
X0402591Y0096173D01*
X0402591Y0096959D02*
X0403378Y0096959D01*
X0403378Y0097745D02*
X0402591Y0097745D01*
X0402591Y0098531D02*
X0403378Y0098531D01*
X0405026Y0098531D02*
X0409510Y0098531D01*
X0409510Y0099317D02*
X0303360Y0099317D01*
X0303685Y0099642D02*
X0304263Y0101038D01*
X0304263Y0102549D01*
X0303685Y0103946D01*
X0302616Y0105014D01*
X0301220Y0105593D01*
X0299709Y0105593D01*
X0298313Y0105014D01*
X0297244Y0103946D01*
X0296666Y0102549D01*
X0296666Y0101038D01*
X0297244Y0099642D01*
X0298313Y0098573D01*
X0299709Y0097995D01*
X0301220Y0097995D01*
X0302616Y0098573D01*
X0303685Y0099642D01*
X0303876Y0100103D02*
X0409510Y0100103D01*
X0409510Y0100889D02*
X0404319Y0100889D01*
X0404594Y0100978D02*
X0405182Y0101278D01*
X0405716Y0101666D01*
X0406183Y0102133D01*
X0406571Y0102667D01*
X0406871Y0103255D01*
X0407075Y0103883D01*
X0407168Y0104471D01*
X0403378Y0104471D01*
X0403378Y0105258D01*
X0407168Y0105258D01*
X0407075Y0105847D01*
X0406871Y0106474D01*
X0406571Y0107063D01*
X0406183Y0107597D01*
X0405716Y0108063D01*
X0405182Y0108451D01*
X0404594Y0108751D01*
X0403966Y0108955D01*
X0403378Y0109048D01*
X0403378Y0105258D01*
X0402591Y0105258D01*
X0402591Y0109048D01*
X0402002Y0108955D01*
X0401374Y0108751D01*
X0400786Y0108451D01*
X0400252Y0108063D01*
X0399785Y0107597D01*
X0399397Y0107063D01*
X0399098Y0106474D01*
X0398894Y0105847D01*
X0398801Y0105258D01*
X0402590Y0105258D01*
X0402590Y0104471D01*
X0398801Y0104471D01*
X0398894Y0103883D01*
X0399098Y0103255D01*
X0399397Y0102667D01*
X0399785Y0102133D01*
X0400252Y0101666D01*
X0400786Y0101278D01*
X0401374Y0100978D01*
X0402002Y0100774D01*
X0402591Y0100681D01*
X0402591Y0104471D01*
X0403378Y0104471D01*
X0403378Y0100681D01*
X0403966Y0100774D01*
X0404594Y0100978D01*
X0403378Y0100889D02*
X0402591Y0100889D01*
X0402591Y0101675D02*
X0403378Y0101675D01*
X0403378Y0102461D02*
X0402591Y0102461D01*
X0402591Y0103246D02*
X0403378Y0103246D01*
X0403378Y0104032D02*
X0402591Y0104032D01*
X0402590Y0104818D02*
X0396978Y0104818D01*
X0396978Y0104070D02*
X0396370Y0102602D01*
X0395246Y0101479D01*
X0393779Y0100871D01*
X0392190Y0100871D01*
X0390722Y0101479D01*
X0389599Y0102602D01*
X0388991Y0104070D01*
X0388991Y0105659D01*
X0389599Y0107127D01*
X0390722Y0108250D01*
X0392190Y0108858D01*
X0393779Y0108858D01*
X0395246Y0108250D01*
X0396370Y0107127D01*
X0396978Y0105659D01*
X0396978Y0104070D01*
X0396962Y0104032D02*
X0398870Y0104032D01*
X0399102Y0103246D02*
X0396637Y0103246D01*
X0396228Y0102461D02*
X0399547Y0102461D01*
X0400243Y0101675D02*
X0395442Y0101675D01*
X0393822Y0100889D02*
X0401650Y0100889D01*
X0400943Y0098531D02*
X0394569Y0098531D01*
X0395752Y0097745D02*
X0399934Y0097745D01*
X0399345Y0096959D02*
X0396439Y0096959D01*
X0396765Y0096173D02*
X0399000Y0096173D01*
X0406035Y0097745D02*
X0409510Y0097745D01*
X0409510Y0096959D02*
X0406624Y0096959D01*
X0406969Y0096173D02*
X0409510Y0096173D01*
X0409510Y0095387D02*
X0407147Y0095387D01*
X0405725Y0101675D02*
X0409510Y0101675D01*
X0409510Y0102461D02*
X0406421Y0102461D01*
X0406866Y0103246D02*
X0409510Y0103246D01*
X0409510Y0104032D02*
X0407098Y0104032D01*
X0407113Y0105604D02*
X0409510Y0105604D01*
X0409510Y0104818D02*
X0403378Y0104818D01*
X0403378Y0105604D02*
X0402591Y0105604D01*
X0402591Y0106390D02*
X0403378Y0106390D01*
X0403378Y0107176D02*
X0402591Y0107176D01*
X0402591Y0107962D02*
X0403378Y0107962D01*
X0403378Y0108748D02*
X0402591Y0108748D01*
X0401368Y0108748D02*
X0394045Y0108748D01*
X0395535Y0107962D02*
X0400151Y0107962D01*
X0399480Y0107176D02*
X0396321Y0107176D01*
X0396675Y0106390D02*
X0399070Y0106390D01*
X0398855Y0105604D02*
X0396978Y0105604D01*
X0394345Y0111106D02*
X0401124Y0111106D01*
X0401374Y0110978D02*
X0402002Y0110774D01*
X0402591Y0110681D01*
X0402591Y0114471D01*
X0403378Y0114471D01*
X0403378Y0115258D01*
X0407168Y0115258D01*
X0407075Y0115847D01*
X0406871Y0116474D01*
X0406571Y0117063D01*
X0406183Y0117597D01*
X0405716Y0118063D01*
X0405182Y0118451D01*
X0404594Y0118751D01*
X0403966Y0118955D01*
X0403378Y0119048D01*
X0403378Y0115258D01*
X0402591Y0115258D01*
X0402591Y0119048D01*
X0402002Y0118955D01*
X0401374Y0118751D01*
X0400786Y0118451D01*
X0400252Y0118063D01*
X0399785Y0117597D01*
X0399397Y0117063D01*
X0399098Y0116474D01*
X0398894Y0115847D01*
X0398801Y0115258D01*
X0402590Y0115258D01*
X0402590Y0114471D01*
X0398801Y0114471D01*
X0398894Y0113883D01*
X0399098Y0113255D01*
X0399397Y0112667D01*
X0399785Y0112133D01*
X0400252Y0111666D01*
X0400786Y0111278D01*
X0401374Y0110978D01*
X0402591Y0111106D02*
X0403378Y0111106D01*
X0403378Y0110681D02*
X0403966Y0110774D01*
X0404594Y0110978D01*
X0405182Y0111278D01*
X0405716Y0111666D01*
X0406183Y0112133D01*
X0406571Y0112667D01*
X0406871Y0113255D01*
X0407075Y0113883D01*
X0407168Y0114471D01*
X0403378Y0114471D01*
X0403378Y0110681D01*
X0403378Y0111891D02*
X0402591Y0111891D01*
X0402591Y0112677D02*
X0403378Y0112677D01*
X0403378Y0113463D02*
X0402591Y0113463D01*
X0402591Y0114249D02*
X0403378Y0114249D01*
X0403378Y0115035D02*
X0409510Y0115035D01*
X0409510Y0114249D02*
X0407133Y0114249D01*
X0406938Y0113463D02*
X0409510Y0113463D01*
X0409510Y0112677D02*
X0406577Y0112677D01*
X0405942Y0111891D02*
X0409510Y0111891D01*
X0409510Y0111106D02*
X0404844Y0111106D01*
X0404600Y0108748D02*
X0409510Y0108748D01*
X0409510Y0109534D02*
X0327561Y0109534D01*
X0327928Y0109901D02*
X0326531Y0108504D01*
X0324556Y0108504D01*
X0323159Y0109901D01*
X0323159Y0111876D01*
X0324101Y0112817D01*
X0323277Y0113641D01*
X0323277Y0115616D01*
X0324238Y0116577D01*
X0323277Y0117538D01*
X0323277Y0119514D01*
X0324674Y0120910D01*
X0326649Y0120910D01*
X0328046Y0119514D01*
X0328046Y0117538D01*
X0327084Y0116577D01*
X0328046Y0115616D01*
X0328046Y0113641D01*
X0327104Y0112699D01*
X0327928Y0111876D01*
X0327928Y0109901D01*
X0327928Y0110320D02*
X0409510Y0110320D01*
X0409510Y0107962D02*
X0405818Y0107962D01*
X0406489Y0107176D02*
X0409510Y0107176D01*
X0409510Y0106390D02*
X0406898Y0106390D01*
X0400027Y0111891D02*
X0395659Y0111891D01*
X0395246Y0111479D02*
X0396370Y0112602D01*
X0396978Y0114070D01*
X0396978Y0115659D01*
X0396370Y0117127D01*
X0395246Y0118250D01*
X0393779Y0118858D01*
X0392190Y0118858D01*
X0390722Y0118250D01*
X0389599Y0117127D01*
X0388991Y0115659D01*
X0388991Y0114070D01*
X0389599Y0112602D01*
X0390722Y0111479D01*
X0392190Y0110871D01*
X0393779Y0110871D01*
X0395246Y0111479D01*
X0396401Y0112677D02*
X0399392Y0112677D01*
X0399030Y0113463D02*
X0396727Y0113463D01*
X0396978Y0114249D02*
X0398836Y0114249D01*
X0398890Y0115821D02*
X0396911Y0115821D01*
X0396978Y0115035D02*
X0402590Y0115035D01*
X0402591Y0115821D02*
X0403378Y0115821D01*
X0403378Y0116607D02*
X0402591Y0116607D01*
X0402591Y0117393D02*
X0403378Y0117393D01*
X0403378Y0118179D02*
X0402591Y0118179D01*
X0402591Y0118965D02*
X0403378Y0118965D01*
X0403905Y0118965D02*
X0409510Y0118965D01*
X0409510Y0119751D02*
X0327809Y0119751D01*
X0328046Y0118965D02*
X0402063Y0118965D01*
X0402591Y0120681D02*
X0402591Y0124471D01*
X0403378Y0124471D01*
X0403378Y0125258D01*
X0407168Y0125258D01*
X0407075Y0125847D01*
X0406871Y0126474D01*
X0406571Y0127063D01*
X0406183Y0127597D01*
X0405716Y0128063D01*
X0405182Y0128451D01*
X0404594Y0128751D01*
X0403966Y0128955D01*
X0403378Y0129048D01*
X0403378Y0125258D01*
X0402591Y0125258D01*
X0402591Y0129048D01*
X0402002Y0128955D01*
X0401374Y0128751D01*
X0400786Y0128451D01*
X0400252Y0128063D01*
X0399785Y0127597D01*
X0399397Y0127063D01*
X0399098Y0126474D01*
X0398894Y0125847D01*
X0398801Y0125258D01*
X0402590Y0125258D01*
X0402590Y0124471D01*
X0398801Y0124471D01*
X0398894Y0123883D01*
X0399098Y0123255D01*
X0399397Y0122667D01*
X0399785Y0122133D01*
X0400252Y0121666D01*
X0400786Y0121278D01*
X0401374Y0120978D01*
X0402002Y0120774D01*
X0402591Y0120681D01*
X0402591Y0121322D02*
X0403378Y0121322D01*
X0403378Y0120681D02*
X0403966Y0120774D01*
X0404594Y0120978D01*
X0405182Y0121278D01*
X0405716Y0121666D01*
X0406183Y0122133D01*
X0406571Y0122667D01*
X0406871Y0123255D01*
X0407075Y0123883D01*
X0407168Y0124471D01*
X0403378Y0124471D01*
X0403378Y0120681D01*
X0403378Y0122108D02*
X0402591Y0122108D01*
X0402591Y0122894D02*
X0403378Y0122894D01*
X0403378Y0123680D02*
X0402591Y0123680D01*
X0402591Y0124466D02*
X0403378Y0124466D01*
X0403378Y0125252D02*
X0409510Y0125252D01*
X0409510Y0126038D02*
X0407013Y0126038D01*
X0406693Y0126824D02*
X0409510Y0126824D01*
X0409510Y0127610D02*
X0406170Y0127610D01*
X0405259Y0128396D02*
X0409510Y0128396D01*
X0409510Y0129182D02*
X0109678Y0129182D01*
X0109945Y0129825D02*
X0109945Y0147209D01*
X0111288Y0145866D01*
X0113263Y0145866D01*
X0114660Y0147263D01*
X0114660Y0149238D01*
X0113263Y0150635D01*
X0111288Y0150635D01*
X0109891Y0149238D01*
X0109891Y0147907D01*
X0109101Y0149816D01*
X0107542Y0151375D01*
X0105504Y0152219D01*
X0103299Y0152219D01*
X0101262Y0151375D01*
X0099702Y0149816D01*
X0098858Y0147778D01*
X0098858Y0129825D01*
X0099702Y0127788D01*
X0101262Y0126228D01*
X0103299Y0125384D01*
X0105504Y0125384D01*
X0107542Y0126228D01*
X0109101Y0127788D01*
X0109945Y0129825D01*
X0109945Y0129967D02*
X0409510Y0129967D01*
X0409510Y0130753D02*
X0403835Y0130753D01*
X0403966Y0130774D02*
X0404594Y0130978D01*
X0405182Y0131278D01*
X0405716Y0131666D01*
X0406183Y0132133D01*
X0406571Y0132667D01*
X0406871Y0133255D01*
X0407075Y0133883D01*
X0407168Y0134471D01*
X0403378Y0134471D01*
X0403378Y0135258D01*
X0407168Y0135258D01*
X0407075Y0135847D01*
X0406871Y0136474D01*
X0406571Y0137063D01*
X0406183Y0137597D01*
X0405716Y0138063D01*
X0405182Y0138451D01*
X0404594Y0138751D01*
X0403966Y0138955D01*
X0403378Y0139048D01*
X0403378Y0135258D01*
X0402591Y0135258D01*
X0402591Y0139048D01*
X0402002Y0138955D01*
X0401374Y0138751D01*
X0400786Y0138451D01*
X0400252Y0138063D01*
X0399785Y0137597D01*
X0399397Y0137063D01*
X0399098Y0136474D01*
X0398894Y0135847D01*
X0398801Y0135258D01*
X0402590Y0135258D01*
X0402590Y0134471D01*
X0398801Y0134471D01*
X0398894Y0133883D01*
X0399098Y0133255D01*
X0399397Y0132667D01*
X0399785Y0132133D01*
X0400252Y0131666D01*
X0400786Y0131278D01*
X0401374Y0130978D01*
X0402002Y0130774D01*
X0402591Y0130681D01*
X0402591Y0134471D01*
X0403378Y0134471D01*
X0403378Y0130681D01*
X0403966Y0130774D01*
X0403378Y0130753D02*
X0402591Y0130753D01*
X0402133Y0130753D02*
X0109945Y0130753D01*
X0109945Y0131539D02*
X0390662Y0131539D01*
X0390722Y0131479D02*
X0392190Y0130871D01*
X0393779Y0130871D01*
X0395246Y0131479D01*
X0396370Y0132602D01*
X0396978Y0134070D01*
X0396978Y0135659D01*
X0396370Y0137127D01*
X0395246Y0138250D01*
X0393779Y0138858D01*
X0392190Y0138858D01*
X0390722Y0138250D01*
X0389599Y0137127D01*
X0388991Y0135659D01*
X0388991Y0134070D01*
X0389599Y0132602D01*
X0390722Y0131479D01*
X0389876Y0132325D02*
X0109945Y0132325D01*
X0109945Y0133111D02*
X0382271Y0133111D01*
X0382823Y0132559D02*
X0384799Y0132559D01*
X0386195Y0133956D01*
X0386195Y0135931D01*
X0384799Y0137328D01*
X0382823Y0137328D01*
X0381427Y0135931D01*
X0381427Y0133956D01*
X0382823Y0132559D01*
X0381485Y0133897D02*
X0109945Y0133897D01*
X0109945Y0134683D02*
X0381427Y0134683D01*
X0381427Y0135469D02*
X0109945Y0135469D01*
X0109945Y0136255D02*
X0381751Y0136255D01*
X0382537Y0137041D02*
X0109945Y0137041D01*
X0109945Y0137827D02*
X0390298Y0137827D01*
X0389563Y0137041D02*
X0385085Y0137041D01*
X0385871Y0136255D02*
X0389237Y0136255D01*
X0388991Y0135469D02*
X0386195Y0135469D01*
X0386195Y0134683D02*
X0388991Y0134683D01*
X0389062Y0133897D02*
X0386137Y0133897D01*
X0385351Y0133111D02*
X0389388Y0133111D01*
X0391073Y0128396D02*
X0109353Y0128396D01*
X0108923Y0127610D02*
X0390081Y0127610D01*
X0389599Y0127127D02*
X0388991Y0125659D01*
X0388991Y0124070D01*
X0389599Y0122602D01*
X0390722Y0121479D01*
X0392190Y0120871D01*
X0393779Y0120871D01*
X0395246Y0121479D01*
X0396370Y0122602D01*
X0396978Y0124070D01*
X0396978Y0125659D01*
X0396370Y0127127D01*
X0395246Y0128250D01*
X0393779Y0128858D01*
X0392190Y0128858D01*
X0390722Y0128250D01*
X0389599Y0127127D01*
X0389473Y0126824D02*
X0108137Y0126824D01*
X0107082Y0126038D02*
X0389148Y0126038D01*
X0388991Y0125252D02*
X0094718Y0125252D01*
X0094087Y0124991D02*
X0096124Y0125834D01*
X0097684Y0127394D01*
X0098528Y0129431D01*
X0098528Y0147385D01*
X0097684Y0149422D01*
X0096124Y0150981D01*
X0094087Y0151825D01*
X0091882Y0151825D01*
X0089844Y0150981D01*
X0088285Y0149422D01*
X0087441Y0147385D01*
X0087441Y0129431D01*
X0088285Y0127394D01*
X0089844Y0125834D01*
X0091882Y0124991D01*
X0094087Y0124991D01*
X0096328Y0126038D02*
X0101721Y0126038D01*
X0100666Y0126824D02*
X0097114Y0126824D01*
X0097773Y0127610D02*
X0099880Y0127610D01*
X0099450Y0128396D02*
X0098099Y0128396D01*
X0098424Y0129182D02*
X0099125Y0129182D01*
X0098858Y0129967D02*
X0098528Y0129967D01*
X0098528Y0130753D02*
X0098858Y0130753D01*
X0098858Y0131539D02*
X0098528Y0131539D01*
X0098528Y0132325D02*
X0098858Y0132325D01*
X0098858Y0133111D02*
X0098528Y0133111D01*
X0098528Y0133897D02*
X0098858Y0133897D01*
X0098858Y0134683D02*
X0098528Y0134683D01*
X0098528Y0135469D02*
X0098858Y0135469D01*
X0098858Y0136255D02*
X0098528Y0136255D01*
X0098528Y0137041D02*
X0098858Y0137041D01*
X0098858Y0137827D02*
X0098528Y0137827D01*
X0098528Y0138613D02*
X0098858Y0138613D01*
X0098858Y0139398D02*
X0098528Y0139398D01*
X0098528Y0140184D02*
X0098858Y0140184D01*
X0098858Y0140970D02*
X0098528Y0140970D01*
X0098528Y0141756D02*
X0098858Y0141756D01*
X0098858Y0142542D02*
X0098528Y0142542D01*
X0098528Y0143328D02*
X0098858Y0143328D01*
X0098858Y0144114D02*
X0098528Y0144114D01*
X0098528Y0144900D02*
X0098858Y0144900D01*
X0098858Y0145686D02*
X0098528Y0145686D01*
X0098528Y0146472D02*
X0098858Y0146472D01*
X0098858Y0147258D02*
X0098528Y0147258D01*
X0098255Y0148043D02*
X0098968Y0148043D01*
X0099294Y0148829D02*
X0097929Y0148829D01*
X0097490Y0149615D02*
X0099619Y0149615D01*
X0100288Y0150401D02*
X0096704Y0150401D01*
X0095627Y0151187D02*
X0101074Y0151187D01*
X0102705Y0151973D02*
X0066031Y0151973D01*
X0066031Y0151187D02*
X0090341Y0151187D01*
X0089264Y0150401D02*
X0065940Y0150401D01*
X0066031Y0150623D02*
X0065210Y0148641D01*
X0063693Y0147123D01*
X0061711Y0146302D01*
X0059565Y0146302D01*
X0057583Y0147123D01*
X0056065Y0148641D01*
X0055244Y0150623D01*
X0055244Y0152769D01*
X0056065Y0154751D01*
X0057583Y0156269D01*
X0059565Y0157090D01*
X0061711Y0157090D01*
X0063693Y0156269D01*
X0065210Y0154751D01*
X0066031Y0152769D01*
X0066031Y0150623D01*
X0065614Y0149615D02*
X0088478Y0149615D01*
X0088039Y0148829D02*
X0065288Y0148829D01*
X0064613Y0148043D02*
X0087714Y0148043D01*
X0087441Y0147258D02*
X0063827Y0147258D01*
X0062119Y0146472D02*
X0087441Y0146472D01*
X0087441Y0145686D02*
X0061930Y0145686D01*
X0061620Y0145786D02*
X0061031Y0145880D01*
X0061031Y0142090D01*
X0060244Y0142090D01*
X0060244Y0145880D01*
X0059656Y0145786D01*
X0059028Y0145583D01*
X0058440Y0145283D01*
X0057906Y0144895D01*
X0057439Y0144428D01*
X0057051Y0143894D01*
X0056751Y0143306D01*
X0056547Y0142678D01*
X0056454Y0142090D01*
X0060244Y0142090D01*
X0060244Y0141302D01*
X0061031Y0141302D01*
X0061031Y0137512D01*
X0061620Y0137606D01*
X0062248Y0137810D01*
X0062836Y0138109D01*
X0063370Y0138497D01*
X0063837Y0138964D01*
X0064225Y0139498D01*
X0064524Y0140086D01*
X0064728Y0140714D01*
X0064821Y0141302D01*
X0061032Y0141302D01*
X0061032Y0142090D01*
X0064821Y0142090D01*
X0064728Y0142678D01*
X0064524Y0143306D01*
X0064225Y0143894D01*
X0063837Y0144428D01*
X0063370Y0144895D01*
X0062836Y0145283D01*
X0062248Y0145583D01*
X0061620Y0145786D01*
X0061031Y0145686D02*
X0060244Y0145686D01*
X0060244Y0144900D02*
X0061031Y0144900D01*
X0061031Y0144114D02*
X0060244Y0144114D01*
X0060244Y0143328D02*
X0061031Y0143328D01*
X0061031Y0142542D02*
X0060244Y0142542D01*
X0060244Y0141756D02*
X0018191Y0141756D01*
X0018191Y0140970D02*
X0056507Y0140970D01*
X0056547Y0140714D02*
X0056751Y0140086D01*
X0057051Y0139498D01*
X0057439Y0138964D01*
X0057906Y0138497D01*
X0058440Y0138109D01*
X0059028Y0137810D01*
X0059656Y0137606D01*
X0060244Y0137512D01*
X0060244Y0141302D01*
X0056454Y0141302D01*
X0056547Y0140714D01*
X0056719Y0140184D02*
X0018191Y0140184D01*
X0018191Y0139398D02*
X0057123Y0139398D01*
X0057791Y0138613D02*
X0018191Y0138613D01*
X0018191Y0137827D02*
X0058995Y0137827D01*
X0060244Y0137827D02*
X0061031Y0137827D01*
X0061031Y0138613D02*
X0060244Y0138613D01*
X0060244Y0139398D02*
X0061031Y0139398D01*
X0061031Y0140184D02*
X0060244Y0140184D01*
X0060244Y0140970D02*
X0061031Y0140970D01*
X0061032Y0141756D02*
X0087441Y0141756D01*
X0087441Y0140970D02*
X0064769Y0140970D01*
X0064556Y0140184D02*
X0087441Y0140184D01*
X0087441Y0139398D02*
X0064152Y0139398D01*
X0063485Y0138613D02*
X0087441Y0138613D01*
X0087441Y0137827D02*
X0062281Y0137827D01*
X0061393Y0135514D02*
X0059882Y0135514D01*
X0058486Y0134935D01*
X0057417Y0133867D01*
X0056839Y0132471D01*
X0056839Y0130959D01*
X0057417Y0129563D01*
X0058486Y0128494D01*
X0059882Y0127916D01*
X0061393Y0127916D01*
X0062790Y0128494D01*
X0063858Y0129563D01*
X0064437Y0130959D01*
X0064437Y0132471D01*
X0063858Y0133867D01*
X0062790Y0134935D01*
X0061393Y0135514D01*
X0061502Y0135469D02*
X0087441Y0135469D01*
X0087441Y0136255D02*
X0018191Y0136255D01*
X0018191Y0137041D02*
X0087441Y0137041D01*
X0087441Y0134683D02*
X0063042Y0134683D01*
X0063828Y0133897D02*
X0087441Y0133897D01*
X0087441Y0133111D02*
X0064171Y0133111D01*
X0064437Y0132325D02*
X0087441Y0132325D01*
X0087441Y0131539D02*
X0064437Y0131539D01*
X0064351Y0130753D02*
X0087441Y0130753D01*
X0087441Y0129967D02*
X0064026Y0129967D01*
X0063477Y0129182D02*
X0087544Y0129182D01*
X0087870Y0128396D02*
X0062551Y0128396D01*
X0058725Y0128396D02*
X0056383Y0128396D01*
X0055681Y0129098D02*
X0054084Y0129759D01*
X0052357Y0129759D01*
X0050760Y0129098D01*
X0049538Y0127876D01*
X0048877Y0126280D01*
X0048877Y0124552D01*
X0049538Y0122955D01*
X0062571Y0109923D01*
X0064168Y0109261D01*
X0065895Y0109261D01*
X0067492Y0109923D01*
X0068714Y0111144D01*
X0069375Y0112741D01*
X0069375Y0114469D01*
X0068714Y0116065D01*
X0055681Y0129098D01*
X0055479Y0129182D02*
X0057799Y0129182D01*
X0057250Y0129967D02*
X0018191Y0129967D01*
X0018191Y0129182D02*
X0050962Y0129182D01*
X0050058Y0128396D02*
X0018191Y0128396D01*
X0018191Y0127610D02*
X0049428Y0127610D01*
X0049103Y0126824D02*
X0018191Y0126824D01*
X0018191Y0126038D02*
X0048877Y0126038D01*
X0048877Y0125252D02*
X0037653Y0125252D01*
X0037227Y0125428D02*
X0035081Y0125428D01*
X0033099Y0124607D01*
X0031582Y0123090D01*
X0030761Y0121108D01*
X0030761Y0118962D01*
X0031582Y0116979D01*
X0033099Y0115462D01*
X0035081Y0114641D01*
X0037227Y0114641D01*
X0039210Y0115462D01*
X0040727Y0116979D01*
X0041548Y0118962D01*
X0041548Y0121108D01*
X0040727Y0123090D01*
X0039210Y0124607D01*
X0037227Y0125428D01*
X0039351Y0124466D02*
X0048913Y0124466D01*
X0049238Y0123680D02*
X0040137Y0123680D01*
X0040808Y0122894D02*
X0049600Y0122894D01*
X0050386Y0122108D02*
X0041133Y0122108D01*
X0041459Y0121322D02*
X0051171Y0121322D01*
X0051957Y0120537D02*
X0041548Y0120537D01*
X0041548Y0119751D02*
X0052743Y0119751D01*
X0053529Y0118965D02*
X0041548Y0118965D01*
X0041224Y0118179D02*
X0054315Y0118179D01*
X0055101Y0117393D02*
X0040898Y0117393D01*
X0040354Y0116607D02*
X0055887Y0116607D01*
X0056673Y0115821D02*
X0039569Y0115821D01*
X0038179Y0115035D02*
X0057459Y0115035D01*
X0058245Y0114249D02*
X0018191Y0114249D01*
X0018191Y0113463D02*
X0059031Y0113463D01*
X0059816Y0112677D02*
X0018191Y0112677D01*
X0018191Y0111891D02*
X0060602Y0111891D01*
X0061388Y0111106D02*
X0018191Y0111106D01*
X0018191Y0110320D02*
X0062174Y0110320D01*
X0063510Y0109534D02*
X0018191Y0109534D01*
X0018191Y0108748D02*
X0057708Y0108748D01*
X0058104Y0108912D02*
X0055488Y0107828D01*
X0053485Y0105826D01*
X0052402Y0103210D01*
X0052402Y0091716D01*
X0053485Y0089100D01*
X0055488Y0087098D01*
X0058104Y0086014D01*
X0060936Y0086014D01*
X0063552Y0087098D01*
X0063982Y0087528D02*
X0134008Y0087528D01*
X0134794Y0088314D02*
X0064768Y0088314D01*
X0065554Y0089100D02*
X0066638Y0091716D01*
X0066638Y0103210D01*
X0065554Y0105826D01*
X0063552Y0107828D01*
X0060936Y0108912D01*
X0058104Y0108912D01*
X0055811Y0107962D02*
X0018191Y0107962D01*
X0018191Y0107176D02*
X0054835Y0107176D01*
X0054050Y0106390D02*
X0018191Y0106390D01*
X0018191Y0105604D02*
X0053393Y0105604D01*
X0053068Y0104818D02*
X0018191Y0104818D01*
X0018191Y0104032D02*
X0052742Y0104032D01*
X0052417Y0103246D02*
X0018191Y0103246D01*
X0018191Y0102461D02*
X0052402Y0102461D01*
X0052402Y0101675D02*
X0018191Y0101675D01*
X0018191Y0100889D02*
X0032203Y0100889D01*
X0032346Y0100993D02*
X0031816Y0100608D01*
X0031353Y0100145D01*
X0030968Y0099615D01*
X0030670Y0099031D01*
X0030468Y0098408D01*
X0030376Y0097827D01*
X0034134Y0097827D01*
X0034134Y0101585D01*
X0033553Y0101493D01*
X0032930Y0101290D01*
X0032346Y0100993D01*
X0031322Y0100103D02*
X0018191Y0100103D01*
X0018191Y0099317D02*
X0030816Y0099317D01*
X0030508Y0098531D02*
X0018191Y0098531D01*
X0018191Y0097745D02*
X0034134Y0097745D01*
X0034134Y0097827D02*
X0034134Y0097039D01*
X0034921Y0097039D01*
X0034921Y0093281D01*
X0035502Y0093373D01*
X0036125Y0093576D01*
X0036709Y0093873D01*
X0037239Y0094258D01*
X0037702Y0094722D01*
X0038087Y0095252D01*
X0038385Y0095835D01*
X0038587Y0096458D01*
X0038679Y0097039D01*
X0034921Y0097039D01*
X0034921Y0097827D01*
X0034134Y0097827D01*
X0034134Y0098531D02*
X0034921Y0098531D01*
X0034921Y0097827D02*
X0034921Y0101585D01*
X0035502Y0101493D01*
X0036125Y0101290D01*
X0036709Y0100993D01*
X0037239Y0100608D01*
X0037702Y0100145D01*
X0038087Y0099615D01*
X0038385Y0099031D01*
X0038587Y0098408D01*
X0038679Y0097827D01*
X0034921Y0097827D01*
X0034921Y0097745D02*
X0052402Y0097745D01*
X0052402Y0096959D02*
X0038667Y0096959D01*
X0038495Y0096173D02*
X0052402Y0096173D01*
X0052402Y0095387D02*
X0038157Y0095387D01*
X0037582Y0094601D02*
X0052402Y0094601D01*
X0052402Y0093815D02*
X0036596Y0093815D01*
X0034921Y0093815D02*
X0034134Y0093815D01*
X0034134Y0093281D02*
X0034134Y0097039D01*
X0030376Y0097039D01*
X0030468Y0096458D01*
X0030670Y0095835D01*
X0030968Y0095252D01*
X0031353Y0094722D01*
X0031816Y0094258D01*
X0032346Y0093873D01*
X0032930Y0093576D01*
X0033553Y0093373D01*
X0034134Y0093281D01*
X0034134Y0094601D02*
X0034921Y0094601D01*
X0034921Y0095387D02*
X0034134Y0095387D01*
X0034134Y0096173D02*
X0034921Y0096173D01*
X0034921Y0096959D02*
X0034134Y0096959D01*
X0034134Y0099317D02*
X0034921Y0099317D01*
X0034921Y0100103D02*
X0034134Y0100103D01*
X0034134Y0100889D02*
X0034921Y0100889D01*
X0036852Y0100889D02*
X0052402Y0100889D01*
X0052402Y0100103D02*
X0037733Y0100103D01*
X0038239Y0099317D02*
X0052402Y0099317D01*
X0052402Y0098531D02*
X0038547Y0098531D01*
X0032459Y0093815D02*
X0018191Y0093815D01*
X0018191Y0093030D02*
X0052402Y0093030D01*
X0052402Y0092244D02*
X0018191Y0092244D01*
X0018191Y0091458D02*
X0052509Y0091458D01*
X0052834Y0090672D02*
X0018191Y0090672D01*
X0018191Y0089886D02*
X0053160Y0089886D01*
X0053485Y0089100D02*
X0018191Y0089100D01*
X0018191Y0088314D02*
X0054271Y0088314D01*
X0055057Y0087528D02*
X0018191Y0087528D01*
X0018191Y0086742D02*
X0056346Y0086742D01*
X0066531Y0091458D02*
X0390773Y0091458D01*
X0389957Y0092244D02*
X0066638Y0092244D01*
X0066638Y0093030D02*
X0389422Y0093030D01*
X0389096Y0093815D02*
X0066638Y0093815D01*
X0066638Y0094601D02*
X0388991Y0094601D01*
X0388991Y0095387D02*
X0066638Y0095387D01*
X0066638Y0096173D02*
X0389204Y0096173D01*
X0389529Y0096959D02*
X0066638Y0096959D01*
X0066638Y0097745D02*
X0390217Y0097745D01*
X0391400Y0098531D02*
X0302514Y0098531D01*
X0304202Y0100889D02*
X0392147Y0100889D01*
X0390526Y0101675D02*
X0304263Y0101675D01*
X0304263Y0102461D02*
X0389740Y0102461D01*
X0389332Y0103246D02*
X0303975Y0103246D01*
X0303598Y0104032D02*
X0389006Y0104032D01*
X0388991Y0104818D02*
X0302812Y0104818D01*
X0298117Y0104818D02*
X0065971Y0104818D01*
X0066297Y0104032D02*
X0297331Y0104032D01*
X0296955Y0103246D02*
X0066623Y0103246D01*
X0066638Y0102461D02*
X0296666Y0102461D01*
X0296666Y0101675D02*
X0066638Y0101675D01*
X0066638Y0100889D02*
X0296728Y0100889D01*
X0297053Y0100103D02*
X0066638Y0100103D01*
X0066638Y0099317D02*
X0297569Y0099317D01*
X0298415Y0098531D02*
X0066638Y0098531D01*
X0065646Y0105604D02*
X0388991Y0105604D01*
X0389293Y0106390D02*
X0064990Y0106390D01*
X0064204Y0107176D02*
X0389648Y0107176D01*
X0390434Y0107962D02*
X0063229Y0107962D01*
X0061331Y0108748D02*
X0324312Y0108748D01*
X0323526Y0109534D02*
X0066553Y0109534D01*
X0067889Y0110320D02*
X0307661Y0110320D01*
X0308256Y0109724D02*
X0310232Y0109724D01*
X0311628Y0111121D01*
X0311628Y0113006D01*
X0311800Y0112835D01*
X0313775Y0112835D01*
X0315172Y0114231D01*
X0315172Y0116206D01*
X0315040Y0116339D01*
X0315507Y0116339D01*
X0316904Y0117735D01*
X0316904Y0119710D01*
X0315507Y0121107D01*
X0313532Y0121107D01*
X0312135Y0119710D01*
X0312135Y0117735D01*
X0312268Y0117603D01*
X0311800Y0117603D01*
X0310403Y0116206D01*
X0310403Y0114321D01*
X0310232Y0114493D01*
X0308256Y0114493D01*
X0306860Y0113096D01*
X0306860Y0111121D01*
X0308256Y0109724D01*
X0306875Y0111106D02*
X0068675Y0111106D01*
X0069023Y0111891D02*
X0306860Y0111891D01*
X0306860Y0112677D02*
X0069349Y0112677D01*
X0069375Y0113463D02*
X0307227Y0113463D01*
X0308013Y0114249D02*
X0069375Y0114249D01*
X0069140Y0115035D02*
X0310403Y0115035D01*
X0310403Y0115821D02*
X0068815Y0115821D01*
X0068172Y0116607D02*
X0310804Y0116607D01*
X0311590Y0117393D02*
X0067386Y0117393D01*
X0066600Y0118179D02*
X0312135Y0118179D01*
X0312135Y0118965D02*
X0065814Y0118965D01*
X0065028Y0119751D02*
X0312176Y0119751D01*
X0312962Y0120537D02*
X0064242Y0120537D01*
X0063456Y0121322D02*
X0391100Y0121322D01*
X0390093Y0122108D02*
X0062670Y0122108D01*
X0061884Y0122894D02*
X0389478Y0122894D01*
X0389152Y0123680D02*
X0061098Y0123680D01*
X0060312Y0124466D02*
X0388991Y0124466D01*
X0394869Y0121322D02*
X0400725Y0121322D01*
X0399810Y0122108D02*
X0395876Y0122108D01*
X0396491Y0122894D02*
X0399281Y0122894D01*
X0398960Y0123680D02*
X0396816Y0123680D01*
X0396978Y0124466D02*
X0398801Y0124466D01*
X0398956Y0126038D02*
X0396821Y0126038D01*
X0396978Y0125252D02*
X0402590Y0125252D01*
X0402591Y0126038D02*
X0403378Y0126038D01*
X0403378Y0126824D02*
X0402591Y0126824D01*
X0402591Y0127610D02*
X0403378Y0127610D01*
X0403378Y0128396D02*
X0402591Y0128396D01*
X0400710Y0128396D02*
X0394895Y0128396D01*
X0395887Y0127610D02*
X0399799Y0127610D01*
X0399276Y0126824D02*
X0396495Y0126824D01*
X0395307Y0131539D02*
X0400426Y0131539D01*
X0399645Y0132325D02*
X0396093Y0132325D01*
X0396581Y0133111D02*
X0399171Y0133111D01*
X0398892Y0133897D02*
X0396906Y0133897D01*
X0396978Y0134683D02*
X0402590Y0134683D01*
X0402591Y0135469D02*
X0403378Y0135469D01*
X0403378Y0136255D02*
X0402591Y0136255D01*
X0402591Y0137041D02*
X0403378Y0137041D01*
X0403378Y0137827D02*
X0402591Y0137827D01*
X0402591Y0138613D02*
X0403378Y0138613D01*
X0404866Y0138613D02*
X0409510Y0138613D01*
X0409510Y0139398D02*
X0109945Y0139398D01*
X0109945Y0138613D02*
X0391597Y0138613D01*
X0392190Y0140871D02*
X0393779Y0140871D01*
X0395246Y0141479D01*
X0396370Y0142602D01*
X0396978Y0144070D01*
X0396978Y0145659D01*
X0396370Y0147127D01*
X0395246Y0148250D01*
X0393779Y0148858D01*
X0392190Y0148858D01*
X0390722Y0148250D01*
X0389599Y0147127D01*
X0388991Y0145659D01*
X0388991Y0144070D01*
X0389599Y0142602D01*
X0390722Y0141479D01*
X0392190Y0140871D01*
X0391950Y0140970D02*
X0109945Y0140970D01*
X0109945Y0140184D02*
X0409510Y0140184D01*
X0409510Y0140970D02*
X0404570Y0140970D01*
X0404594Y0140978D02*
X0405182Y0141278D01*
X0405716Y0141666D01*
X0406183Y0142133D01*
X0406571Y0142667D01*
X0406871Y0143255D01*
X0407075Y0143883D01*
X0407168Y0144471D01*
X0403378Y0144471D01*
X0403378Y0145258D01*
X0407168Y0145258D01*
X0407075Y0145847D01*
X0406871Y0146474D01*
X0406571Y0147063D01*
X0406183Y0147597D01*
X0405716Y0148063D01*
X0405182Y0148451D01*
X0404594Y0148751D01*
X0403966Y0148955D01*
X0403378Y0149048D01*
X0403378Y0145258D01*
X0402591Y0145258D01*
X0402591Y0149048D01*
X0402002Y0148955D01*
X0401374Y0148751D01*
X0400786Y0148451D01*
X0400252Y0148063D01*
X0399785Y0147597D01*
X0399397Y0147063D01*
X0399098Y0146474D01*
X0398894Y0145847D01*
X0398801Y0145258D01*
X0402590Y0145258D01*
X0402590Y0144471D01*
X0398801Y0144471D01*
X0398894Y0143883D01*
X0399098Y0143255D01*
X0399397Y0142667D01*
X0399785Y0142133D01*
X0400252Y0141666D01*
X0400786Y0141278D01*
X0401374Y0140978D01*
X0402002Y0140774D01*
X0402591Y0140681D01*
X0402591Y0144471D01*
X0403378Y0144471D01*
X0403378Y0140681D01*
X0403966Y0140774D01*
X0404594Y0140978D01*
X0403378Y0140970D02*
X0402591Y0140970D01*
X0402591Y0141756D02*
X0403378Y0141756D01*
X0403378Y0142542D02*
X0402591Y0142542D01*
X0402591Y0143328D02*
X0403378Y0143328D01*
X0403378Y0144114D02*
X0402591Y0144114D01*
X0402590Y0144900D02*
X0396978Y0144900D01*
X0396967Y0145686D02*
X0398868Y0145686D01*
X0399097Y0146472D02*
X0396641Y0146472D01*
X0396239Y0147258D02*
X0399539Y0147258D01*
X0400232Y0148043D02*
X0395453Y0148043D01*
X0393848Y0148829D02*
X0401616Y0148829D01*
X0402591Y0148829D02*
X0403378Y0148829D01*
X0403378Y0148043D02*
X0402591Y0148043D01*
X0402591Y0147258D02*
X0403378Y0147258D01*
X0403378Y0146472D02*
X0402591Y0146472D01*
X0402591Y0145686D02*
X0403378Y0145686D01*
X0403378Y0144900D02*
X0409510Y0144900D01*
X0409510Y0145686D02*
X0407100Y0145686D01*
X0406872Y0146472D02*
X0409510Y0146472D01*
X0409510Y0147258D02*
X0406429Y0147258D01*
X0405736Y0148043D02*
X0409510Y0148043D01*
X0409510Y0148829D02*
X0404353Y0148829D01*
X0403966Y0150774D02*
X0404594Y0150978D01*
X0405182Y0151278D01*
X0405716Y0151666D01*
X0406183Y0152133D01*
X0406571Y0152667D01*
X0406871Y0153255D01*
X0407075Y0153883D01*
X0407168Y0154471D01*
X0403378Y0154471D01*
X0403378Y0155258D01*
X0407168Y0155258D01*
X0407075Y0155847D01*
X0406871Y0156474D01*
X0406571Y0157063D01*
X0406183Y0157597D01*
X0405716Y0158063D01*
X0405182Y0158451D01*
X0404594Y0158751D01*
X0403966Y0158955D01*
X0403378Y0159048D01*
X0403378Y0155258D01*
X0402591Y0155258D01*
X0402591Y0159048D01*
X0402002Y0158955D01*
X0401374Y0158751D01*
X0400786Y0158451D01*
X0400252Y0158063D01*
X0399785Y0157597D01*
X0399397Y0157063D01*
X0399098Y0156474D01*
X0398894Y0155847D01*
X0398801Y0155258D01*
X0402590Y0155258D01*
X0402590Y0154471D01*
X0398801Y0154471D01*
X0398894Y0153883D01*
X0399098Y0153255D01*
X0399397Y0152667D01*
X0399785Y0152133D01*
X0400252Y0151666D01*
X0400786Y0151278D01*
X0401374Y0150978D01*
X0402002Y0150774D01*
X0402591Y0150681D01*
X0402591Y0154471D01*
X0403378Y0154471D01*
X0403378Y0150681D01*
X0403966Y0150774D01*
X0403378Y0151187D02*
X0402591Y0151187D01*
X0402591Y0151973D02*
X0403378Y0151973D01*
X0403378Y0152759D02*
X0402591Y0152759D01*
X0402591Y0153545D02*
X0403378Y0153545D01*
X0403378Y0154331D02*
X0402591Y0154331D01*
X0402590Y0155117D02*
X0396978Y0155117D01*
X0396978Y0155659D02*
X0396370Y0157127D01*
X0395246Y0158250D01*
X0393779Y0158858D01*
X0392190Y0158858D01*
X0390722Y0158250D01*
X0389599Y0157127D01*
X0388991Y0155659D01*
X0388991Y0154070D01*
X0389599Y0152602D01*
X0390722Y0151479D01*
X0392190Y0150871D01*
X0393779Y0150871D01*
X0395246Y0151479D01*
X0396370Y0152602D01*
X0396978Y0154070D01*
X0396978Y0155659D01*
X0396877Y0155903D02*
X0398912Y0155903D01*
X0399207Y0156689D02*
X0396552Y0156689D01*
X0396022Y0157474D02*
X0399697Y0157474D01*
X0400523Y0158260D02*
X0395222Y0158260D01*
X0393779Y0160871D02*
X0395246Y0161479D01*
X0396370Y0162602D01*
X0396978Y0164070D01*
X0396978Y0165659D01*
X0396370Y0167127D01*
X0395246Y0168250D01*
X0393779Y0168858D01*
X0392190Y0168858D01*
X0390722Y0168250D01*
X0389599Y0167127D01*
X0388991Y0165659D01*
X0388991Y0164070D01*
X0389599Y0162602D01*
X0390722Y0161479D01*
X0392190Y0160871D01*
X0393779Y0160871D01*
X0395066Y0161404D02*
X0400613Y0161404D01*
X0400786Y0161278D02*
X0401374Y0160978D01*
X0402002Y0160774D01*
X0402591Y0160681D01*
X0402591Y0164471D01*
X0403378Y0164471D01*
X0403378Y0165258D01*
X0407168Y0165258D01*
X0407075Y0165847D01*
X0406871Y0166474D01*
X0406571Y0167063D01*
X0406183Y0167597D01*
X0405716Y0168063D01*
X0405182Y0168451D01*
X0404594Y0168751D01*
X0403966Y0168955D01*
X0403378Y0169048D01*
X0403378Y0165258D01*
X0402591Y0165258D01*
X0402591Y0169048D01*
X0402002Y0168955D01*
X0401374Y0168751D01*
X0400786Y0168451D01*
X0400252Y0168063D01*
X0399785Y0167597D01*
X0399397Y0167063D01*
X0399098Y0166474D01*
X0398894Y0165847D01*
X0398801Y0165258D01*
X0402590Y0165258D01*
X0402590Y0164471D01*
X0398801Y0164471D01*
X0398894Y0163883D01*
X0399098Y0163255D01*
X0399397Y0162667D01*
X0399785Y0162133D01*
X0400252Y0161666D01*
X0400786Y0161278D01*
X0399744Y0162190D02*
X0395958Y0162190D01*
X0396525Y0162976D02*
X0399240Y0162976D01*
X0398933Y0163762D02*
X0396850Y0163762D01*
X0396978Y0164548D02*
X0402590Y0164548D01*
X0402591Y0165334D02*
X0403378Y0165334D01*
X0403378Y0166119D02*
X0402591Y0166119D01*
X0402591Y0166905D02*
X0403378Y0166905D01*
X0403378Y0167691D02*
X0402591Y0167691D01*
X0402591Y0168477D02*
X0403378Y0168477D01*
X0405131Y0168477D02*
X0409510Y0168477D01*
X0409510Y0167691D02*
X0406088Y0167691D01*
X0406651Y0166905D02*
X0409510Y0166905D01*
X0409510Y0166119D02*
X0406986Y0166119D01*
X0407156Y0165334D02*
X0409510Y0165334D01*
X0409510Y0164548D02*
X0403378Y0164548D01*
X0403378Y0164471D02*
X0407168Y0164471D01*
X0407075Y0163883D01*
X0406871Y0163255D01*
X0406571Y0162667D01*
X0406183Y0162133D01*
X0405716Y0161666D01*
X0405182Y0161278D01*
X0404594Y0160978D01*
X0403966Y0160774D01*
X0403378Y0160681D01*
X0403378Y0164471D01*
X0403378Y0163762D02*
X0402591Y0163762D01*
X0402591Y0162976D02*
X0403378Y0162976D01*
X0403378Y0162190D02*
X0402591Y0162190D01*
X0402591Y0161404D02*
X0403378Y0161404D01*
X0405356Y0161404D02*
X0409510Y0161404D01*
X0409510Y0162190D02*
X0406225Y0162190D01*
X0406729Y0162976D02*
X0409510Y0162976D01*
X0409510Y0163762D02*
X0407035Y0163762D01*
X0409510Y0160618D02*
X0243857Y0160618D01*
X0243714Y0160677D02*
X0242686Y0160677D01*
X0241736Y0160284D01*
X0241409Y0159957D01*
X0241083Y0160284D01*
X0240133Y0160677D01*
X0239105Y0160677D01*
X0238155Y0160284D01*
X0237428Y0159557D01*
X0237035Y0158607D01*
X0237035Y0157579D01*
X0237428Y0156629D01*
X0238155Y0155902D01*
X0239105Y0155509D01*
X0240133Y0155509D01*
X0241083Y0155902D01*
X0241409Y0156229D01*
X0241736Y0155902D01*
X0242686Y0155509D01*
X0243714Y0155509D01*
X0244664Y0155902D01*
X0245391Y0156629D01*
X0245784Y0157579D01*
X0245784Y0158607D01*
X0245391Y0159557D01*
X0244664Y0160284D01*
X0243714Y0160677D01*
X0242543Y0160618D02*
X0240276Y0160618D01*
X0238962Y0160618D02*
X0018191Y0160618D01*
X0018191Y0159832D02*
X0237703Y0159832D01*
X0237217Y0159046D02*
X0018191Y0159046D01*
X0018191Y0158260D02*
X0237035Y0158260D01*
X0237078Y0157474D02*
X0018191Y0157474D01*
X0018191Y0156689D02*
X0058596Y0156689D01*
X0057216Y0155903D02*
X0018191Y0155903D01*
X0018191Y0155117D02*
X0056431Y0155117D01*
X0055891Y0154331D02*
X0018191Y0154331D01*
X0018191Y0153545D02*
X0055566Y0153545D01*
X0055244Y0152759D02*
X0018191Y0152759D01*
X0018191Y0151973D02*
X0055244Y0151973D01*
X0055244Y0151187D02*
X0018191Y0151187D01*
X0018191Y0150401D02*
X0055336Y0150401D01*
X0055662Y0149615D02*
X0018191Y0149615D01*
X0018191Y0148829D02*
X0055987Y0148829D01*
X0056663Y0148043D02*
X0018191Y0148043D01*
X0018191Y0147258D02*
X0057448Y0147258D01*
X0059156Y0146472D02*
X0018191Y0146472D01*
X0018191Y0145686D02*
X0059346Y0145686D01*
X0057913Y0144900D02*
X0018191Y0144900D01*
X0018191Y0144114D02*
X0057211Y0144114D01*
X0056763Y0143328D02*
X0018191Y0143328D01*
X0018191Y0142542D02*
X0056526Y0142542D01*
X0063363Y0144900D02*
X0087441Y0144900D01*
X0087441Y0144114D02*
X0064065Y0144114D01*
X0064513Y0143328D02*
X0087441Y0143328D01*
X0087441Y0142542D02*
X0064750Y0142542D01*
X0059774Y0135469D02*
X0018191Y0135469D01*
X0018191Y0134683D02*
X0058233Y0134683D01*
X0057448Y0133897D02*
X0018191Y0133897D01*
X0018191Y0133111D02*
X0057104Y0133111D01*
X0056839Y0132325D02*
X0018191Y0132325D01*
X0018191Y0131539D02*
X0056839Y0131539D01*
X0056924Y0130753D02*
X0018191Y0130753D01*
X0018191Y0125252D02*
X0034656Y0125252D01*
X0032958Y0124466D02*
X0018191Y0124466D01*
X0018191Y0123680D02*
X0024072Y0123680D01*
X0023956Y0123621D02*
X0023422Y0123233D01*
X0022956Y0122767D01*
X0022568Y0122233D01*
X0022268Y0121644D01*
X0022064Y0121017D01*
X0021971Y0120428D01*
X0025761Y0120428D01*
X0025761Y0119641D01*
X0026548Y0119641D01*
X0026548Y0120428D01*
X0030338Y0120428D01*
X0030245Y0121017D01*
X0030041Y0121644D01*
X0029741Y0122233D01*
X0029353Y0122767D01*
X0028886Y0123233D01*
X0028352Y0123621D01*
X0027764Y0123921D01*
X0027136Y0124125D01*
X0026548Y0124218D01*
X0026548Y0120428D01*
X0025761Y0120428D01*
X0025761Y0124218D01*
X0025172Y0124125D01*
X0024545Y0123921D01*
X0023956Y0123621D01*
X0023083Y0122894D02*
X0018191Y0122894D01*
X0018191Y0122108D02*
X0022504Y0122108D01*
X0022163Y0121322D02*
X0018191Y0121322D01*
X0018191Y0120537D02*
X0021988Y0120537D01*
X0021971Y0119641D02*
X0022064Y0119053D01*
X0022268Y0118425D01*
X0022568Y0117837D01*
X0022956Y0117303D01*
X0023422Y0116836D01*
X0023956Y0116448D01*
X0024545Y0116148D01*
X0025172Y0115944D01*
X0025761Y0115851D01*
X0025761Y0119641D01*
X0021971Y0119641D01*
X0022092Y0118965D02*
X0018191Y0118965D01*
X0018191Y0119751D02*
X0025761Y0119751D01*
X0025761Y0120537D02*
X0026548Y0120537D01*
X0026548Y0121322D02*
X0025761Y0121322D01*
X0025761Y0122108D02*
X0026548Y0122108D01*
X0026548Y0122894D02*
X0025761Y0122894D01*
X0025761Y0123680D02*
X0026548Y0123680D01*
X0028237Y0123680D02*
X0032172Y0123680D01*
X0031501Y0122894D02*
X0029225Y0122894D01*
X0029804Y0122108D02*
X0031175Y0122108D01*
X0030850Y0121322D02*
X0030145Y0121322D01*
X0030321Y0120537D02*
X0030761Y0120537D01*
X0030761Y0119751D02*
X0026548Y0119751D01*
X0026548Y0119641D02*
X0030338Y0119641D01*
X0030245Y0119053D01*
X0030041Y0118425D01*
X0029741Y0117837D01*
X0029353Y0117303D01*
X0028886Y0116836D01*
X0028352Y0116448D01*
X0027764Y0116148D01*
X0027136Y0115944D01*
X0026548Y0115851D01*
X0026548Y0119641D01*
X0026548Y0118965D02*
X0025761Y0118965D01*
X0025761Y0118179D02*
X0026548Y0118179D01*
X0026548Y0117393D02*
X0025761Y0117393D01*
X0025761Y0116607D02*
X0026548Y0116607D01*
X0028571Y0116607D02*
X0031954Y0116607D01*
X0031410Y0117393D02*
X0029419Y0117393D01*
X0029915Y0118179D02*
X0031085Y0118179D01*
X0030761Y0118965D02*
X0030216Y0118965D01*
X0032740Y0115821D02*
X0018191Y0115821D01*
X0018191Y0115035D02*
X0034130Y0115035D01*
X0023737Y0116607D02*
X0018191Y0116607D01*
X0018191Y0117393D02*
X0022890Y0117393D01*
X0022393Y0118179D02*
X0018191Y0118179D01*
X0018191Y0096959D02*
X0030389Y0096959D01*
X0030560Y0096173D02*
X0018191Y0096173D01*
X0018191Y0095387D02*
X0030899Y0095387D01*
X0031473Y0094601D02*
X0018191Y0094601D01*
X0018191Y0062379D02*
X0027757Y0062379D01*
X0026971Y0061593D02*
X0018191Y0061593D01*
X0018191Y0060807D02*
X0026427Y0060807D01*
X0026427Y0060021D02*
X0018191Y0060021D01*
X0018191Y0059235D02*
X0021463Y0059235D01*
X0020678Y0058449D02*
X0018191Y0058449D01*
X0018191Y0057663D02*
X0020128Y0057663D01*
X0020128Y0056878D02*
X0018191Y0056878D01*
X0018191Y0056092D02*
X0020128Y0056092D01*
X0020696Y0055306D02*
X0018191Y0055306D01*
X0018191Y0054520D02*
X0020371Y0054520D01*
X0020045Y0053734D02*
X0018191Y0053734D01*
X0018191Y0052948D02*
X0018326Y0052948D01*
X0023560Y0059235D02*
X0025345Y0059235D01*
X0032277Y0059235D02*
X0034062Y0059235D01*
X0059527Y0125252D02*
X0091250Y0125252D01*
X0089641Y0126038D02*
X0058741Y0126038D01*
X0057955Y0126824D02*
X0088855Y0126824D01*
X0088195Y0127610D02*
X0057169Y0127610D01*
X0066031Y0152759D02*
X0389534Y0152759D01*
X0389208Y0153545D02*
X0065710Y0153545D01*
X0065385Y0154331D02*
X0388991Y0154331D01*
X0388991Y0155117D02*
X0064845Y0155117D01*
X0064059Y0155903D02*
X0238155Y0155903D01*
X0237403Y0156689D02*
X0062679Y0156689D01*
X0067194Y0173425D02*
X0065797Y0174822D01*
X0065797Y0176797D01*
X0067194Y0178194D01*
X0069169Y0178194D01*
X0070565Y0176797D01*
X0070565Y0174822D01*
X0069169Y0173425D01*
X0067194Y0173425D01*
X0066640Y0173979D02*
X0018191Y0173979D01*
X0018191Y0174765D02*
X0065854Y0174765D01*
X0065797Y0175550D02*
X0018191Y0175550D01*
X0018191Y0176336D02*
X0065797Y0176336D01*
X0066122Y0177122D02*
X0018191Y0177122D01*
X0018191Y0177908D02*
X0066908Y0177908D01*
X0069454Y0177908D02*
X0101074Y0177908D01*
X0101233Y0177524D02*
X0102297Y0176460D01*
X0103688Y0175883D01*
X0105194Y0175883D01*
X0106585Y0176460D01*
X0107649Y0177524D01*
X0108225Y0178915D01*
X0108225Y0180420D01*
X0107649Y0181811D01*
X0106585Y0182876D01*
X0105194Y0183452D01*
X0103688Y0183452D01*
X0102297Y0182876D01*
X0101233Y0181811D01*
X0100657Y0180420D01*
X0100657Y0178915D01*
X0101233Y0177524D01*
X0101635Y0177122D02*
X0070240Y0177122D01*
X0070565Y0176336D02*
X0102595Y0176336D01*
X0100748Y0178694D02*
X0018191Y0178694D01*
X0018191Y0179480D02*
X0100657Y0179480D01*
X0100657Y0180266D02*
X0018191Y0180266D01*
X0018191Y0181052D02*
X0100918Y0181052D01*
X0101259Y0181838D02*
X0018191Y0181838D01*
X0018191Y0182624D02*
X0102045Y0182624D01*
X0103586Y0183410D02*
X0027780Y0183410D01*
X0027884Y0183479D02*
X0028327Y0183921D01*
X0028675Y0184442D01*
X0028914Y0185020D01*
X0029036Y0185634D01*
X0029036Y0185849D01*
X0025957Y0185849D01*
X0025957Y0186046D01*
X0025760Y0186046D01*
X0025760Y0189125D01*
X0025545Y0189125D01*
X0024931Y0189003D01*
X0024353Y0188763D01*
X0023832Y0188416D01*
X0023390Y0187973D01*
X0023042Y0187453D01*
X0022802Y0186874D01*
X0022680Y0186260D01*
X0022680Y0186046D01*
X0025760Y0186046D01*
X0025760Y0185849D01*
X0025957Y0185849D01*
X0025957Y0182769D01*
X0026171Y0182769D01*
X0026785Y0182891D01*
X0027364Y0183131D01*
X0027884Y0183479D01*
X0028510Y0184195D02*
X0387591Y0184195D01*
X0387591Y0183792D02*
X0388412Y0181809D01*
X0389929Y0180292D01*
X0391911Y0179471D01*
X0394057Y0179471D01*
X0396040Y0180292D01*
X0397557Y0181809D01*
X0397984Y0182841D01*
X0398412Y0181809D01*
X0399929Y0180292D01*
X0401911Y0179471D01*
X0404057Y0179471D01*
X0406040Y0180292D01*
X0407557Y0181809D01*
X0408378Y0183792D01*
X0408378Y0185937D01*
X0407557Y0187920D01*
X0406040Y0189437D01*
X0404057Y0190258D01*
X0401911Y0190258D01*
X0399929Y0189437D01*
X0398412Y0187920D01*
X0397984Y0186888D01*
X0397557Y0187920D01*
X0396040Y0189437D01*
X0394057Y0190258D01*
X0391911Y0190258D01*
X0389929Y0189437D01*
X0388412Y0187920D01*
X0387591Y0185937D01*
X0387591Y0183792D01*
X0387749Y0183410D02*
X0105296Y0183410D01*
X0106837Y0182624D02*
X0388074Y0182624D01*
X0388400Y0181838D02*
X0107623Y0181838D01*
X0107964Y0181052D02*
X0389169Y0181052D01*
X0389992Y0180266D02*
X0108225Y0180266D01*
X0108225Y0179480D02*
X0391889Y0179480D01*
X0392190Y0178858D02*
X0390722Y0178250D01*
X0389599Y0177127D01*
X0388991Y0175659D01*
X0388991Y0174070D01*
X0389599Y0172602D01*
X0390722Y0171479D01*
X0392190Y0170871D01*
X0393779Y0170871D01*
X0395246Y0171479D01*
X0396370Y0172602D01*
X0396978Y0174070D01*
X0396978Y0175659D01*
X0396370Y0177127D01*
X0395246Y0178250D01*
X0393779Y0178858D01*
X0392190Y0178858D01*
X0391793Y0178694D02*
X0108134Y0178694D01*
X0107808Y0177908D02*
X0390380Y0177908D01*
X0389597Y0177122D02*
X0107247Y0177122D01*
X0106287Y0176336D02*
X0389271Y0176336D01*
X0388991Y0175550D02*
X0070565Y0175550D01*
X0070508Y0174765D02*
X0388991Y0174765D01*
X0389028Y0173979D02*
X0069722Y0173979D01*
X0039282Y0189073D02*
X0038913Y0188520D01*
X0038443Y0188050D01*
X0037890Y0187681D01*
X0037276Y0187427D01*
X0036624Y0187297D01*
X0036488Y0187297D01*
X0036488Y0190475D01*
X0036488Y0190869D01*
X0036094Y0190869D01*
X0036094Y0194046D01*
X0035959Y0194046D01*
X0035307Y0193917D01*
X0034693Y0193662D01*
X0034140Y0193293D01*
X0033670Y0192823D01*
X0033301Y0192270D01*
X0033046Y0191656D01*
X0032917Y0191004D01*
X0032917Y0190869D01*
X0036094Y0190869D01*
X0036094Y0190475D01*
X0032917Y0190475D01*
X0032917Y0190339D01*
X0033046Y0189687D01*
X0033301Y0189073D01*
X0033670Y0188520D01*
X0034140Y0188050D01*
X0034693Y0187681D01*
X0035307Y0187427D01*
X0035959Y0187297D01*
X0036094Y0187297D01*
X0036094Y0190475D01*
X0036488Y0190475D01*
X0039666Y0190475D01*
X0039666Y0190339D01*
X0039536Y0189687D01*
X0039282Y0189073D01*
X0039174Y0188911D02*
X0389403Y0188911D01*
X0388617Y0188125D02*
X0038517Y0188125D01*
X0036836Y0187339D02*
X0388171Y0187339D01*
X0387846Y0186553D02*
X0028978Y0186553D01*
X0029036Y0186260D02*
X0028914Y0186874D01*
X0028675Y0187453D01*
X0028327Y0187973D01*
X0027884Y0188416D01*
X0027364Y0188763D01*
X0026785Y0189003D01*
X0026171Y0189125D01*
X0025957Y0189125D01*
X0025957Y0186046D01*
X0029036Y0186046D01*
X0029036Y0186260D01*
X0029036Y0185767D02*
X0387591Y0185767D01*
X0387591Y0184981D02*
X0028898Y0184981D01*
X0028722Y0187339D02*
X0035746Y0187339D01*
X0036094Y0187339D02*
X0036488Y0187339D01*
X0036488Y0188125D02*
X0036094Y0188125D01*
X0036094Y0188911D02*
X0036488Y0188911D01*
X0036488Y0189697D02*
X0036094Y0189697D01*
X0036094Y0190483D02*
X0018191Y0190483D01*
X0018191Y0191269D02*
X0032969Y0191269D01*
X0033211Y0192055D02*
X0018191Y0192055D01*
X0018191Y0192841D02*
X0033688Y0192841D01*
X0034639Y0193626D02*
X0018191Y0193626D01*
X0018191Y0194412D02*
X0116858Y0194412D01*
X0116778Y0194218D02*
X0116778Y0193190D01*
X0117171Y0192240D01*
X0117898Y0191513D01*
X0118848Y0191120D01*
X0119876Y0191120D01*
X0120826Y0191513D01*
X0121553Y0192240D01*
X0121946Y0193190D01*
X0121946Y0194218D01*
X0121553Y0195168D01*
X0121226Y0195494D01*
X0121553Y0195821D01*
X0121946Y0196771D01*
X0121946Y0197799D01*
X0121553Y0198749D01*
X0120826Y0199476D01*
X0119876Y0199869D01*
X0118848Y0199869D01*
X0117898Y0199476D01*
X0117171Y0198749D01*
X0116778Y0197799D01*
X0116778Y0196771D01*
X0117171Y0195821D01*
X0117498Y0195494D01*
X0117171Y0195168D01*
X0116778Y0194218D01*
X0116778Y0193626D02*
X0037944Y0193626D01*
X0037890Y0193662D02*
X0037276Y0193917D01*
X0036624Y0194046D01*
X0036488Y0194046D01*
X0036488Y0190869D01*
X0039666Y0190869D01*
X0039666Y0191004D01*
X0039536Y0191656D01*
X0039282Y0192270D01*
X0038913Y0192823D01*
X0038443Y0193293D01*
X0037890Y0193662D01*
X0038895Y0192841D02*
X0116923Y0192841D01*
X0117357Y0192055D02*
X0039371Y0192055D01*
X0039613Y0191269D02*
X0118488Y0191269D01*
X0120236Y0191269D02*
X0409510Y0191269D01*
X0409510Y0192055D02*
X0121368Y0192055D01*
X0121802Y0192841D02*
X0409510Y0192841D01*
X0409510Y0193626D02*
X0121946Y0193626D01*
X0121866Y0194412D02*
X0409510Y0194412D01*
X0409510Y0195198D02*
X0121523Y0195198D01*
X0121621Y0195984D02*
X0409510Y0195984D01*
X0409510Y0196770D02*
X0121946Y0196770D01*
X0121946Y0197556D02*
X0409510Y0197556D01*
X0409510Y0198342D02*
X0121722Y0198342D01*
X0121174Y0199128D02*
X0409510Y0199128D01*
X0409510Y0199914D02*
X0018191Y0199914D01*
X0018191Y0200700D02*
X0409510Y0200700D01*
X0409510Y0201486D02*
X0018191Y0201486D01*
X0018191Y0202271D02*
X0121024Y0202271D01*
X0121524Y0201772D02*
X0123499Y0201772D01*
X0124896Y0203168D01*
X0124896Y0205143D01*
X0123499Y0206540D01*
X0121524Y0206540D01*
X0120128Y0205143D01*
X0120128Y0203168D01*
X0121524Y0201772D01*
X0120238Y0203057D02*
X0018191Y0203057D01*
X0018191Y0203843D02*
X0120128Y0203843D01*
X0120128Y0204629D02*
X0018191Y0204629D01*
X0018191Y0205415D02*
X0120399Y0205415D01*
X0121185Y0206201D02*
X0018191Y0206201D01*
X0018191Y0206987D02*
X0034376Y0206987D01*
X0034140Y0207145D02*
X0034693Y0206775D01*
X0035307Y0206521D01*
X0035959Y0206391D01*
X0036094Y0206391D01*
X0036094Y0209569D01*
X0032917Y0209569D01*
X0032917Y0209434D01*
X0033046Y0208782D01*
X0033301Y0208168D01*
X0033670Y0207615D01*
X0034140Y0207145D01*
X0033564Y0207773D02*
X0018191Y0207773D01*
X0018191Y0208559D02*
X0033139Y0208559D01*
X0032934Y0209345D02*
X0018191Y0209345D01*
X0018191Y0210131D02*
X0032923Y0210131D01*
X0032917Y0210099D02*
X0032917Y0209963D01*
X0036094Y0209963D01*
X0036094Y0209569D01*
X0036488Y0209569D01*
X0036488Y0206391D01*
X0036624Y0206391D01*
X0037276Y0206521D01*
X0037890Y0206775D01*
X0038443Y0207145D01*
X0038913Y0207615D01*
X0039282Y0208168D01*
X0039536Y0208782D01*
X0039666Y0209434D01*
X0039666Y0209569D01*
X0036488Y0209569D01*
X0036488Y0209963D01*
X0036094Y0209963D01*
X0036094Y0213141D01*
X0035959Y0213141D01*
X0035307Y0213011D01*
X0034693Y0212757D01*
X0034140Y0212388D01*
X0033670Y0211917D01*
X0033301Y0211365D01*
X0033046Y0210751D01*
X0032917Y0210099D01*
X0033115Y0210916D02*
X0018191Y0210916D01*
X0018191Y0211702D02*
X0024311Y0211702D01*
X0024353Y0211674D02*
X0024931Y0211435D01*
X0025545Y0211313D01*
X0025760Y0211313D01*
X0025760Y0214392D01*
X0025957Y0214392D01*
X0025957Y0214589D01*
X0029036Y0214589D01*
X0029036Y0214804D01*
X0028914Y0215418D01*
X0028675Y0215996D01*
X0028327Y0216516D01*
X0027884Y0216959D01*
X0027364Y0217307D01*
X0026785Y0217546D01*
X0026171Y0217668D01*
X0025957Y0217668D01*
X0025957Y0214589D01*
X0025760Y0214589D01*
X0025760Y0217668D01*
X0025545Y0217668D01*
X0024931Y0217546D01*
X0024353Y0217307D01*
X0023832Y0216959D01*
X0023390Y0216516D01*
X0023042Y0215996D01*
X0022802Y0215418D01*
X0022680Y0214804D01*
X0022680Y0214589D01*
X0025760Y0214589D01*
X0025760Y0214392D01*
X0022680Y0214392D01*
X0022680Y0214178D01*
X0022802Y0213564D01*
X0023042Y0212985D01*
X0023390Y0212465D01*
X0023832Y0212022D01*
X0024353Y0211674D01*
X0023374Y0212488D02*
X0018191Y0212488D01*
X0018191Y0213274D02*
X0022922Y0213274D01*
X0022704Y0214060D02*
X0018191Y0214060D01*
X0018191Y0214846D02*
X0022689Y0214846D01*
X0022891Y0215632D02*
X0018191Y0215632D01*
X0018191Y0216418D02*
X0023324Y0216418D01*
X0024199Y0217204D02*
X0018191Y0217204D01*
X0018191Y0217990D02*
X0054234Y0217990D01*
X0054595Y0218351D02*
X0053198Y0216955D01*
X0053198Y0214979D01*
X0053982Y0214195D01*
X0053198Y0213411D01*
X0053198Y0211436D01*
X0053982Y0210652D01*
X0053198Y0209868D01*
X0053198Y0207893D01*
X0054595Y0206496D01*
X0056570Y0206496D01*
X0057157Y0207083D01*
X0057745Y0206496D01*
X0059720Y0206496D01*
X0061117Y0207893D01*
X0061117Y0209868D01*
X0060332Y0210652D01*
X0061117Y0211436D01*
X0061117Y0213411D01*
X0060332Y0214195D01*
X0061117Y0214979D01*
X0061117Y0216955D01*
X0059720Y0218351D01*
X0057745Y0218351D01*
X0057157Y0217764D01*
X0056570Y0218351D01*
X0054595Y0218351D01*
X0053448Y0217204D02*
X0027518Y0217204D01*
X0028393Y0216418D02*
X0053198Y0216418D01*
X0053198Y0215632D02*
X0028825Y0215632D01*
X0029028Y0214846D02*
X0053332Y0214846D01*
X0053847Y0214060D02*
X0029013Y0214060D01*
X0029036Y0214178D02*
X0029036Y0214392D01*
X0025957Y0214392D01*
X0025957Y0211313D01*
X0026171Y0211313D01*
X0026785Y0211435D01*
X0027364Y0211674D01*
X0027884Y0212022D01*
X0028327Y0212465D01*
X0028675Y0212985D01*
X0028914Y0213564D01*
X0029036Y0214178D01*
X0028794Y0213274D02*
X0053198Y0213274D01*
X0053198Y0212488D02*
X0038292Y0212488D01*
X0038443Y0212388D02*
X0037890Y0212757D01*
X0037276Y0213011D01*
X0036624Y0213141D01*
X0036488Y0213141D01*
X0036488Y0209963D01*
X0039666Y0209963D01*
X0039666Y0210099D01*
X0039536Y0210751D01*
X0039282Y0211365D01*
X0038913Y0211917D01*
X0038443Y0212388D01*
X0039056Y0211702D02*
X0053198Y0211702D01*
X0053718Y0210916D02*
X0039468Y0210916D01*
X0039660Y0210131D02*
X0053461Y0210131D01*
X0053198Y0209345D02*
X0039648Y0209345D01*
X0039444Y0208559D02*
X0053198Y0208559D01*
X0053318Y0207773D02*
X0039018Y0207773D01*
X0038206Y0206987D02*
X0054104Y0206987D01*
X0057061Y0206987D02*
X0057254Y0206987D01*
X0060211Y0206987D02*
X0409510Y0206987D01*
X0409510Y0207773D02*
X0060997Y0207773D01*
X0061117Y0208559D02*
X0409510Y0208559D01*
X0409510Y0209345D02*
X0061117Y0209345D01*
X0060854Y0210131D02*
X0409510Y0210131D01*
X0409510Y0210916D02*
X0060597Y0210916D01*
X0061117Y0211702D02*
X0409510Y0211702D01*
X0409510Y0212488D02*
X0061117Y0212488D01*
X0061117Y0213274D02*
X0409510Y0213274D01*
X0409510Y0214060D02*
X0060468Y0214060D01*
X0060983Y0214846D02*
X0409510Y0214846D01*
X0409510Y0215632D02*
X0061117Y0215632D01*
X0061117Y0216418D02*
X0409510Y0216418D01*
X0409510Y0217204D02*
X0060867Y0217204D01*
X0060081Y0217990D02*
X0409510Y0217990D01*
X0409510Y0218776D02*
X0351488Y0218776D01*
X0351373Y0218661D02*
X0352770Y0220058D01*
X0352770Y0222033D01*
X0351373Y0223430D01*
X0349398Y0223430D01*
X0348002Y0222033D01*
X0348002Y0220058D01*
X0349398Y0218661D01*
X0351373Y0218661D01*
X0352274Y0219562D02*
X0409510Y0219562D01*
X0409510Y0220347D02*
X0352770Y0220347D01*
X0352770Y0221133D02*
X0381643Y0221133D01*
X0382168Y0220916D02*
X0384115Y0220916D01*
X0385914Y0221661D01*
X0387290Y0223037D01*
X0387836Y0224356D01*
X0388054Y0223830D01*
X0389037Y0222848D01*
X0390321Y0222316D01*
X0391711Y0222316D01*
X0392995Y0222848D01*
X0393978Y0223830D01*
X0394509Y0225114D01*
X0394509Y0226504D01*
X0393978Y0227788D01*
X0392995Y0228771D01*
X0391711Y0229303D01*
X0390321Y0229303D01*
X0389037Y0228771D01*
X0388054Y0227788D01*
X0387836Y0227263D01*
X0387290Y0228581D01*
X0385914Y0229958D01*
X0384115Y0230703D01*
X0382168Y0230703D01*
X0380370Y0229958D01*
X0378993Y0228581D01*
X0378555Y0227525D01*
X0378541Y0227559D01*
X0378137Y0228164D01*
X0377622Y0228679D01*
X0377017Y0229083D01*
X0376345Y0229361D01*
X0375632Y0229503D01*
X0375624Y0229503D01*
X0375624Y0226166D01*
X0374911Y0226166D01*
X0374911Y0225453D01*
X0371574Y0225453D01*
X0371574Y0225446D01*
X0371716Y0224732D01*
X0371994Y0224060D01*
X0372399Y0223455D01*
X0372913Y0222940D01*
X0373518Y0222536D01*
X0374190Y0222258D01*
X0374904Y0222116D01*
X0374911Y0222116D01*
X0374911Y0225453D01*
X0375624Y0225453D01*
X0375624Y0222116D01*
X0375632Y0222116D01*
X0376345Y0222258D01*
X0377017Y0222536D01*
X0377622Y0222940D01*
X0378137Y0223455D01*
X0378541Y0224060D01*
X0378555Y0224094D01*
X0378993Y0223037D01*
X0380370Y0221661D01*
X0382168Y0220916D01*
X0380111Y0221919D02*
X0352770Y0221919D01*
X0352098Y0222705D02*
X0373265Y0222705D01*
X0372374Y0223491D02*
X0018191Y0223491D01*
X0018191Y0222705D02*
X0348674Y0222705D01*
X0348002Y0221919D02*
X0018191Y0221919D01*
X0018191Y0221133D02*
X0348002Y0221133D01*
X0348002Y0220347D02*
X0018191Y0220347D01*
X0018191Y0219562D02*
X0348498Y0219562D01*
X0349284Y0218776D02*
X0018191Y0218776D01*
X0018191Y0224277D02*
X0353113Y0224277D01*
X0353375Y0224016D02*
X0355350Y0224016D01*
X0356746Y0225412D01*
X0356746Y0227388D01*
X0355628Y0228506D01*
X0356471Y0229349D01*
X0356471Y0231325D01*
X0355074Y0232721D01*
X0353099Y0232721D01*
X0351702Y0231325D01*
X0351702Y0229349D01*
X0352821Y0228231D01*
X0351978Y0227388D01*
X0351978Y0225412D01*
X0353375Y0224016D01*
X0352327Y0225063D02*
X0018191Y0225063D01*
X0018191Y0225849D02*
X0351978Y0225849D01*
X0351978Y0226635D02*
X0027658Y0226635D01*
X0027884Y0226786D02*
X0028327Y0227228D01*
X0028675Y0227749D01*
X0028914Y0228327D01*
X0029036Y0228941D01*
X0029036Y0229156D01*
X0025957Y0229156D01*
X0025957Y0229353D01*
X0029036Y0229353D01*
X0029036Y0229567D01*
X0028914Y0230181D01*
X0028675Y0230760D01*
X0028327Y0231280D01*
X0027884Y0231723D01*
X0027364Y0232071D01*
X0026785Y0232310D01*
X0026171Y0232432D01*
X0025957Y0232432D01*
X0025957Y0229353D01*
X0025760Y0229353D01*
X0025760Y0232432D01*
X0025545Y0232432D01*
X0024931Y0232310D01*
X0024353Y0232071D01*
X0023832Y0231723D01*
X0023390Y0231280D01*
X0023042Y0230760D01*
X0022802Y0230181D01*
X0022680Y0229567D01*
X0022680Y0229353D01*
X0025760Y0229353D01*
X0025760Y0229156D01*
X0025957Y0229156D01*
X0025957Y0226076D01*
X0026171Y0226076D01*
X0026785Y0226198D01*
X0027364Y0226438D01*
X0027884Y0226786D01*
X0028455Y0227421D02*
X0352011Y0227421D01*
X0352797Y0228207D02*
X0028864Y0228207D01*
X0029036Y0228992D02*
X0352059Y0228992D01*
X0351702Y0229778D02*
X0028994Y0229778D01*
X0028755Y0230564D02*
X0351702Y0230564D01*
X0351728Y0231350D02*
X0038432Y0231350D01*
X0038443Y0231357D02*
X0038913Y0231827D01*
X0039282Y0232380D01*
X0039536Y0232994D01*
X0039666Y0233646D01*
X0039666Y0233782D01*
X0036488Y0233782D01*
X0036488Y0230604D01*
X0036624Y0230604D01*
X0037276Y0230734D01*
X0037890Y0230988D01*
X0038443Y0231357D01*
X0039119Y0232136D02*
X0352514Y0232136D01*
X0355659Y0232136D02*
X0357577Y0232136D01*
X0358256Y0231457D02*
X0360232Y0231457D01*
X0361628Y0232853D01*
X0361628Y0233937D01*
X0363578Y0233937D01*
X0364975Y0235334D01*
X0364975Y0237309D01*
X0363578Y0238705D01*
X0361603Y0238705D01*
X0360206Y0237309D01*
X0360206Y0236225D01*
X0358256Y0236225D01*
X0356860Y0234829D01*
X0356860Y0232853D01*
X0358256Y0231457D01*
X0356445Y0231350D02*
X0409510Y0231350D01*
X0409510Y0230564D02*
X0384450Y0230564D01*
X0386093Y0229778D02*
X0409510Y0229778D01*
X0409510Y0228992D02*
X0400335Y0228992D01*
X0400869Y0228771D02*
X0399585Y0229303D01*
X0398195Y0229303D01*
X0396911Y0228771D01*
X0395928Y0227788D01*
X0395396Y0226504D01*
X0395396Y0225114D01*
X0395928Y0223830D01*
X0396911Y0222848D01*
X0398195Y0222316D01*
X0399585Y0222316D01*
X0400869Y0222848D01*
X0401852Y0223830D01*
X0402383Y0225114D01*
X0402383Y0226504D01*
X0401852Y0227788D01*
X0400869Y0228771D01*
X0401433Y0228207D02*
X0409510Y0228207D01*
X0409510Y0227421D02*
X0402004Y0227421D01*
X0402329Y0226635D02*
X0409510Y0226635D01*
X0409510Y0225849D02*
X0402383Y0225849D01*
X0402362Y0225063D02*
X0409510Y0225063D01*
X0409510Y0224277D02*
X0402037Y0224277D01*
X0401512Y0223491D02*
X0409510Y0223491D01*
X0409510Y0222705D02*
X0400525Y0222705D01*
X0397255Y0222705D02*
X0392651Y0222705D01*
X0393638Y0223491D02*
X0396267Y0223491D01*
X0395743Y0224277D02*
X0394163Y0224277D01*
X0394488Y0225063D02*
X0395417Y0225063D01*
X0395396Y0225849D02*
X0394509Y0225849D01*
X0394455Y0226635D02*
X0395450Y0226635D01*
X0395776Y0227421D02*
X0394130Y0227421D01*
X0393559Y0228207D02*
X0396346Y0228207D01*
X0397445Y0228992D02*
X0392461Y0228992D01*
X0389571Y0228992D02*
X0386879Y0228992D01*
X0387446Y0228207D02*
X0388472Y0228207D01*
X0387902Y0227421D02*
X0387771Y0227421D01*
X0387804Y0224277D02*
X0387869Y0224277D01*
X0387478Y0223491D02*
X0388393Y0223491D01*
X0389381Y0222705D02*
X0386958Y0222705D01*
X0386172Y0221919D02*
X0409510Y0221919D01*
X0409510Y0221133D02*
X0384641Y0221133D01*
X0379325Y0222705D02*
X0377270Y0222705D01*
X0378161Y0223491D02*
X0378805Y0223491D01*
X0375624Y0223491D02*
X0374911Y0223491D01*
X0374911Y0222705D02*
X0375624Y0222705D01*
X0375624Y0224277D02*
X0374911Y0224277D01*
X0374911Y0225063D02*
X0375624Y0225063D01*
X0374911Y0225849D02*
X0356746Y0225849D01*
X0356746Y0226635D02*
X0371666Y0226635D01*
X0371716Y0226887D02*
X0371574Y0226173D01*
X0371574Y0226166D01*
X0374911Y0226166D01*
X0374911Y0229503D01*
X0374904Y0229503D01*
X0374190Y0229361D01*
X0373518Y0229083D01*
X0372913Y0228679D01*
X0372399Y0228164D01*
X0371994Y0227559D01*
X0371716Y0226887D01*
X0371937Y0227421D02*
X0356713Y0227421D01*
X0355927Y0228207D02*
X0372441Y0228207D01*
X0373383Y0228992D02*
X0356114Y0228992D01*
X0356471Y0229778D02*
X0380190Y0229778D01*
X0379404Y0228992D02*
X0377152Y0228992D01*
X0378094Y0228207D02*
X0378838Y0228207D01*
X0375624Y0228207D02*
X0374911Y0228207D01*
X0374911Y0228992D02*
X0375624Y0228992D01*
X0375624Y0227421D02*
X0374911Y0227421D01*
X0374911Y0226635D02*
X0375624Y0226635D01*
X0371650Y0225063D02*
X0356397Y0225063D01*
X0355611Y0224277D02*
X0371904Y0224277D01*
X0360911Y0232136D02*
X0409510Y0232136D01*
X0409510Y0232922D02*
X0361628Y0232922D01*
X0361628Y0233708D02*
X0409510Y0233708D01*
X0409510Y0234494D02*
X0364135Y0234494D01*
X0364921Y0235280D02*
X0409510Y0235280D01*
X0409510Y0236066D02*
X0364975Y0236066D01*
X0364975Y0236852D02*
X0409510Y0236852D01*
X0409510Y0237638D02*
X0364646Y0237638D01*
X0363860Y0238423D02*
X0409510Y0238423D01*
X0409510Y0239209D02*
X0141825Y0239209D01*
X0141825Y0238601D02*
X0140429Y0237205D01*
X0138453Y0237205D01*
X0137057Y0238601D01*
X0137057Y0240577D01*
X0138453Y0241973D01*
X0140429Y0241973D01*
X0141825Y0240577D01*
X0141825Y0238601D01*
X0141647Y0238423D02*
X0361321Y0238423D01*
X0360535Y0237638D02*
X0140861Y0237638D01*
X0141825Y0239995D02*
X0409510Y0239995D01*
X0409510Y0240781D02*
X0141621Y0240781D01*
X0140835Y0241567D02*
X0409510Y0241567D01*
X0409510Y0242353D02*
X0018191Y0242353D01*
X0018191Y0241567D02*
X0138047Y0241567D01*
X0137261Y0240781D02*
X0018191Y0240781D01*
X0018191Y0239995D02*
X0095137Y0239995D01*
X0095540Y0240398D02*
X0094143Y0239002D01*
X0094143Y0237027D01*
X0095540Y0235630D01*
X0097515Y0235630D01*
X0098912Y0237027D01*
X0098912Y0239002D01*
X0097515Y0240398D01*
X0095540Y0240398D01*
X0094351Y0239209D02*
X0018191Y0239209D01*
X0018191Y0238423D02*
X0094143Y0238423D01*
X0094143Y0237638D02*
X0018191Y0237638D01*
X0018191Y0236852D02*
X0034516Y0236852D01*
X0034693Y0236969D02*
X0034140Y0236600D01*
X0033670Y0236130D01*
X0033301Y0235577D01*
X0033046Y0234963D01*
X0032917Y0234311D01*
X0032917Y0234176D01*
X0036094Y0234176D01*
X0036094Y0233782D01*
X0032917Y0233782D01*
X0032917Y0233646D01*
X0033046Y0232994D01*
X0033301Y0232380D01*
X0033670Y0231827D01*
X0034140Y0231357D01*
X0034693Y0230988D01*
X0035307Y0230734D01*
X0035959Y0230604D01*
X0036094Y0230604D01*
X0036094Y0233782D01*
X0036488Y0233782D01*
X0036488Y0234176D01*
X0036094Y0234176D01*
X0036094Y0237354D01*
X0035959Y0237354D01*
X0035307Y0237224D01*
X0034693Y0236969D01*
X0033627Y0236066D02*
X0018191Y0236066D01*
X0018191Y0235280D02*
X0033177Y0235280D01*
X0032953Y0234494D02*
X0018191Y0234494D01*
X0018191Y0233708D02*
X0032917Y0233708D01*
X0033076Y0232922D02*
X0018191Y0232922D01*
X0018191Y0232136D02*
X0024511Y0232136D01*
X0025760Y0232136D02*
X0025957Y0232136D01*
X0025957Y0231350D02*
X0025760Y0231350D01*
X0025760Y0230564D02*
X0025957Y0230564D01*
X0025957Y0229778D02*
X0025760Y0229778D01*
X0025760Y0229156D02*
X0022680Y0229156D01*
X0022680Y0228941D01*
X0022802Y0228327D01*
X0023042Y0227749D01*
X0023390Y0227228D01*
X0023832Y0226786D01*
X0024353Y0226438D01*
X0024931Y0226198D01*
X0025545Y0226076D01*
X0025760Y0226076D01*
X0025760Y0229156D01*
X0025760Y0228992D02*
X0025957Y0228992D01*
X0025957Y0228207D02*
X0025760Y0228207D01*
X0025760Y0227421D02*
X0025957Y0227421D01*
X0025957Y0226635D02*
X0025760Y0226635D01*
X0024059Y0226635D02*
X0018191Y0226635D01*
X0018191Y0227421D02*
X0023261Y0227421D01*
X0022852Y0228207D02*
X0018191Y0228207D01*
X0018191Y0228992D02*
X0022680Y0228992D01*
X0022722Y0229778D02*
X0018191Y0229778D01*
X0018191Y0230564D02*
X0022961Y0230564D01*
X0023460Y0231350D02*
X0018191Y0231350D01*
X0027205Y0232136D02*
X0033464Y0232136D01*
X0034151Y0231350D02*
X0028257Y0231350D01*
X0036094Y0231350D02*
X0036488Y0231350D01*
X0036488Y0232136D02*
X0036094Y0232136D01*
X0036094Y0232922D02*
X0036488Y0232922D01*
X0036488Y0233708D02*
X0036094Y0233708D01*
X0036488Y0234176D02*
X0039666Y0234176D01*
X0039666Y0234311D01*
X0039536Y0234963D01*
X0039282Y0235577D01*
X0038913Y0236130D01*
X0038443Y0236600D01*
X0037890Y0236969D01*
X0037276Y0237224D01*
X0036624Y0237354D01*
X0036488Y0237354D01*
X0036488Y0234176D01*
X0036488Y0234494D02*
X0036094Y0234494D01*
X0036094Y0235280D02*
X0036488Y0235280D01*
X0036488Y0236066D02*
X0036094Y0236066D01*
X0036094Y0236852D02*
X0036488Y0236852D01*
X0038066Y0236852D02*
X0094318Y0236852D01*
X0095104Y0236066D02*
X0038956Y0236066D01*
X0039405Y0235280D02*
X0357311Y0235280D01*
X0356860Y0234494D02*
X0039630Y0234494D01*
X0039666Y0233708D02*
X0356860Y0233708D01*
X0356860Y0232922D02*
X0039506Y0232922D01*
X0036624Y0249698D02*
X0037276Y0249828D01*
X0037890Y0250083D01*
X0038443Y0250452D01*
X0038913Y0250922D01*
X0039282Y0251475D01*
X0039536Y0252089D01*
X0039666Y0252741D01*
X0039666Y0252876D01*
X0036488Y0252876D01*
X0036488Y0249698D01*
X0036624Y0249698D01*
X0036094Y0249698D02*
X0036094Y0252876D01*
X0032917Y0252876D01*
X0032917Y0252741D01*
X0033046Y0252089D01*
X0033301Y0251475D01*
X0033670Y0250922D01*
X0034140Y0250452D01*
X0034693Y0250083D01*
X0035307Y0249828D01*
X0035959Y0249698D01*
X0036094Y0249698D01*
X0036094Y0250212D02*
X0036488Y0250212D01*
X0036488Y0250998D02*
X0036094Y0250998D01*
X0036094Y0251784D02*
X0036488Y0251784D01*
X0036488Y0252570D02*
X0036094Y0252570D01*
X0036094Y0252876D02*
X0036488Y0252876D01*
X0036488Y0253270D01*
X0036094Y0253270D01*
X0036094Y0252876D01*
X0036094Y0253270D02*
X0032917Y0253270D01*
X0032917Y0253406D01*
X0033046Y0254058D01*
X0033301Y0254672D01*
X0033670Y0255225D01*
X0034140Y0255695D01*
X0034693Y0256064D01*
X0035307Y0256318D01*
X0035959Y0256448D01*
X0036094Y0256448D01*
X0036094Y0253270D01*
X0036094Y0253356D02*
X0036488Y0253356D01*
X0036488Y0253270D02*
X0036488Y0256448D01*
X0036624Y0256448D01*
X0037276Y0256318D01*
X0037890Y0256064D01*
X0038443Y0255695D01*
X0038913Y0255225D01*
X0039282Y0254672D01*
X0039536Y0254058D01*
X0039666Y0253406D01*
X0039666Y0253270D01*
X0036488Y0253270D01*
X0036488Y0254142D02*
X0036094Y0254142D01*
X0036094Y0254928D02*
X0036488Y0254928D01*
X0036488Y0255714D02*
X0036094Y0255714D01*
X0034168Y0255714D02*
X0028268Y0255714D01*
X0028327Y0255772D02*
X0028675Y0256292D01*
X0028914Y0256871D01*
X0029036Y0257485D01*
X0029036Y0257699D01*
X0025957Y0257699D01*
X0025957Y0257896D01*
X0029036Y0257896D01*
X0029036Y0258111D01*
X0028914Y0258725D01*
X0028675Y0259303D01*
X0028327Y0259823D01*
X0027884Y0260266D01*
X0027364Y0260614D01*
X0026785Y0260853D01*
X0026171Y0260976D01*
X0025957Y0260976D01*
X0025957Y0257896D01*
X0025760Y0257896D01*
X0025760Y0260976D01*
X0025545Y0260976D01*
X0024931Y0260853D01*
X0024353Y0260614D01*
X0023832Y0260266D01*
X0023390Y0259823D01*
X0023042Y0259303D01*
X0022802Y0258725D01*
X0022680Y0258111D01*
X0022680Y0257896D01*
X0025760Y0257896D01*
X0025760Y0257699D01*
X0025957Y0257699D01*
X0025957Y0254620D01*
X0026171Y0254620D01*
X0026785Y0254742D01*
X0027364Y0254981D01*
X0027884Y0255329D01*
X0028327Y0255772D01*
X0028760Y0256499D02*
X0083934Y0256499D01*
X0083609Y0255714D02*
X0038414Y0255714D01*
X0039111Y0254928D02*
X0083457Y0254928D01*
X0083457Y0255347D02*
X0083457Y0253201D01*
X0084278Y0251219D01*
X0085795Y0249701D01*
X0087778Y0248880D01*
X0089923Y0248880D01*
X0091906Y0249701D01*
X0093423Y0251219D01*
X0094244Y0253201D01*
X0094244Y0255347D01*
X0093423Y0257329D01*
X0091906Y0258847D01*
X0089923Y0259668D01*
X0087778Y0259668D01*
X0085795Y0258847D01*
X0084278Y0257329D01*
X0083457Y0255347D01*
X0083457Y0254142D02*
X0039502Y0254142D01*
X0039666Y0253356D02*
X0083457Y0253356D01*
X0083718Y0252570D02*
X0039632Y0252570D01*
X0039410Y0251784D02*
X0084044Y0251784D01*
X0084498Y0250998D02*
X0038964Y0250998D01*
X0038084Y0250212D02*
X0085284Y0250212D01*
X0086460Y0249426D02*
X0018191Y0249426D01*
X0018191Y0248640D02*
X0372804Y0248640D01*
X0372913Y0248531D02*
X0373518Y0248127D01*
X0374190Y0247848D01*
X0374904Y0247706D01*
X0374911Y0247706D01*
X0374911Y0251044D01*
X0371574Y0251044D01*
X0371574Y0251036D01*
X0371716Y0250323D01*
X0371994Y0249650D01*
X0372399Y0249045D01*
X0372913Y0248531D01*
X0372144Y0249426D02*
X0131241Y0249426D01*
X0131906Y0249701D02*
X0133423Y0251219D01*
X0134244Y0253201D01*
X0134244Y0255347D01*
X0133423Y0257329D01*
X0131906Y0258847D01*
X0130874Y0259274D01*
X0131906Y0259701D01*
X0133423Y0261219D01*
X0134244Y0263201D01*
X0134244Y0265347D01*
X0133423Y0267329D01*
X0131906Y0268847D01*
X0129923Y0269668D01*
X0127778Y0269668D01*
X0125795Y0268847D01*
X0124278Y0267329D01*
X0123457Y0265347D01*
X0123457Y0263201D01*
X0124278Y0261219D01*
X0125795Y0259701D01*
X0126827Y0259274D01*
X0125795Y0258847D01*
X0124278Y0257329D01*
X0123850Y0256297D01*
X0123423Y0257329D01*
X0121906Y0258847D01*
X0119923Y0259668D01*
X0117778Y0259668D01*
X0115795Y0258847D01*
X0114278Y0257329D01*
X0113850Y0256297D01*
X0113423Y0257329D01*
X0111906Y0258847D01*
X0109923Y0259668D01*
X0107778Y0259668D01*
X0105795Y0258847D01*
X0104278Y0257329D01*
X0103457Y0255347D01*
X0103457Y0253201D01*
X0104278Y0251219D01*
X0105795Y0249701D01*
X0107778Y0248880D01*
X0109923Y0248880D01*
X0111906Y0249701D01*
X0113423Y0251219D01*
X0113850Y0252251D01*
X0114278Y0251219D01*
X0115795Y0249701D01*
X0117778Y0248880D01*
X0119923Y0248880D01*
X0121906Y0249701D01*
X0123423Y0251219D01*
X0123850Y0252251D01*
X0124278Y0251219D01*
X0125795Y0249701D01*
X0127778Y0248880D01*
X0129923Y0248880D01*
X0131906Y0249701D01*
X0132416Y0250212D02*
X0337780Y0250212D01*
X0337868Y0250184D02*
X0338457Y0250090D01*
X0338457Y0253880D01*
X0339244Y0253880D01*
X0339244Y0250090D01*
X0339832Y0250184D01*
X0340460Y0250388D01*
X0341048Y0250687D01*
X0341582Y0251075D01*
X0342049Y0251542D01*
X0342437Y0252076D01*
X0342737Y0252664D01*
X0342941Y0253292D01*
X0343034Y0253880D01*
X0339244Y0253880D01*
X0339244Y0254668D01*
X0338457Y0254668D01*
X0338457Y0258458D01*
X0337868Y0258364D01*
X0337241Y0258160D01*
X0336652Y0257861D01*
X0336118Y0257473D01*
X0335652Y0257006D01*
X0335264Y0256472D01*
X0334964Y0255884D01*
X0334760Y0255256D01*
X0334667Y0254668D01*
X0338457Y0254668D01*
X0338457Y0253880D01*
X0334667Y0253880D01*
X0334760Y0253292D01*
X0334964Y0252664D01*
X0335264Y0252076D01*
X0335652Y0251542D01*
X0336118Y0251075D01*
X0336652Y0250687D01*
X0337241Y0250388D01*
X0337868Y0250184D01*
X0338457Y0250212D02*
X0339244Y0250212D01*
X0339920Y0250212D02*
X0371762Y0250212D01*
X0371582Y0250998D02*
X0341476Y0250998D01*
X0342225Y0251784D02*
X0371578Y0251784D01*
X0371574Y0251764D02*
X0371716Y0252477D01*
X0371994Y0253150D01*
X0372399Y0253755D01*
X0372913Y0254269D01*
X0373518Y0254673D01*
X0374190Y0254952D01*
X0374904Y0255094D01*
X0374911Y0255094D01*
X0374911Y0251756D01*
X0374911Y0251044D01*
X0375624Y0251044D01*
X0375624Y0247706D01*
X0375632Y0247706D01*
X0376345Y0247848D01*
X0377017Y0248127D01*
X0377622Y0248531D01*
X0378137Y0249045D01*
X0378541Y0249650D01*
X0378555Y0249685D01*
X0378993Y0248628D01*
X0380370Y0247251D01*
X0382168Y0246506D01*
X0384115Y0246506D01*
X0385914Y0247251D01*
X0387290Y0248628D01*
X0387836Y0249946D01*
X0388054Y0249421D01*
X0389037Y0248438D01*
X0390321Y0247906D01*
X0391711Y0247906D01*
X0392995Y0248438D01*
X0393978Y0249421D01*
X0394509Y0250705D01*
X0394509Y0252095D01*
X0393978Y0253379D01*
X0392995Y0254362D01*
X0391711Y0254894D01*
X0390321Y0254894D01*
X0389037Y0254362D01*
X0388054Y0253379D01*
X0387836Y0252854D01*
X0387290Y0254172D01*
X0385914Y0255549D01*
X0384115Y0256294D01*
X0382168Y0256294D01*
X0380370Y0255549D01*
X0378993Y0254172D01*
X0378555Y0253115D01*
X0378541Y0253150D01*
X0378137Y0253755D01*
X0377622Y0254269D01*
X0377017Y0254673D01*
X0376345Y0254952D01*
X0375632Y0255094D01*
X0375624Y0255094D01*
X0375624Y0251756D01*
X0374911Y0251756D01*
X0371574Y0251756D01*
X0371574Y0251764D01*
X0371754Y0252570D02*
X0342689Y0252570D01*
X0342951Y0253356D02*
X0372132Y0253356D01*
X0372786Y0254142D02*
X0339244Y0254142D01*
X0339244Y0254668D02*
X0343034Y0254668D01*
X0342941Y0255256D01*
X0342737Y0255884D01*
X0342437Y0256472D01*
X0342049Y0257006D01*
X0341582Y0257473D01*
X0341048Y0257861D01*
X0340460Y0258160D01*
X0339832Y0258364D01*
X0339244Y0258458D01*
X0339244Y0254668D01*
X0339244Y0254928D02*
X0338457Y0254928D01*
X0338457Y0255714D02*
X0339244Y0255714D01*
X0339244Y0256499D02*
X0338457Y0256499D01*
X0338457Y0257285D02*
X0339244Y0257285D01*
X0339244Y0258071D02*
X0338457Y0258071D01*
X0337066Y0258071D02*
X0330119Y0258071D01*
X0329645Y0258268D02*
X0328056Y0258268D01*
X0326588Y0257660D01*
X0325465Y0256536D01*
X0324857Y0255068D01*
X0324857Y0253480D01*
X0325465Y0252012D01*
X0326588Y0250888D01*
X0328056Y0250280D01*
X0329645Y0250280D01*
X0331113Y0250888D01*
X0332236Y0252012D01*
X0332844Y0253480D01*
X0332844Y0255068D01*
X0332236Y0256536D01*
X0331113Y0257660D01*
X0329645Y0258268D01*
X0329645Y0260280D02*
X0331113Y0260888D01*
X0332236Y0262012D01*
X0332844Y0263480D01*
X0332844Y0265068D01*
X0332236Y0266536D01*
X0331113Y0267660D01*
X0329645Y0268268D01*
X0328056Y0268268D01*
X0326588Y0267660D01*
X0325465Y0266536D01*
X0324857Y0265068D01*
X0324857Y0263480D01*
X0325465Y0262012D01*
X0326588Y0260888D01*
X0328056Y0260280D01*
X0329645Y0260280D01*
X0330004Y0260429D02*
X0337159Y0260429D01*
X0337241Y0260388D02*
X0337868Y0260184D01*
X0338457Y0260090D01*
X0338457Y0263880D01*
X0339244Y0263880D01*
X0339244Y0260090D01*
X0339832Y0260184D01*
X0340460Y0260388D01*
X0341048Y0260687D01*
X0341582Y0261075D01*
X0342049Y0261542D01*
X0342437Y0262076D01*
X0342737Y0262664D01*
X0342941Y0263292D01*
X0343034Y0263880D01*
X0339244Y0263880D01*
X0339244Y0264668D01*
X0338457Y0264668D01*
X0338457Y0268458D01*
X0337868Y0268364D01*
X0337241Y0268160D01*
X0336652Y0267861D01*
X0336118Y0267473D01*
X0335652Y0267006D01*
X0335264Y0266472D01*
X0334964Y0265884D01*
X0334760Y0265256D01*
X0334667Y0264668D01*
X0338457Y0264668D01*
X0338457Y0263880D01*
X0334667Y0263880D01*
X0334760Y0263292D01*
X0334964Y0262664D01*
X0335264Y0262076D01*
X0335652Y0261542D01*
X0336118Y0261075D01*
X0336652Y0260687D01*
X0337241Y0260388D01*
X0338457Y0260429D02*
X0339244Y0260429D01*
X0339244Y0261215D02*
X0338457Y0261215D01*
X0338457Y0262001D02*
X0339244Y0262001D01*
X0339244Y0262787D02*
X0338457Y0262787D01*
X0338457Y0263573D02*
X0339244Y0263573D01*
X0339244Y0264359D02*
X0409510Y0264359D01*
X0409510Y0265144D02*
X0342958Y0265144D01*
X0342941Y0265256D02*
X0342737Y0265884D01*
X0342437Y0266472D01*
X0342049Y0267006D01*
X0341582Y0267473D01*
X0341048Y0267861D01*
X0340460Y0268160D01*
X0339832Y0268364D01*
X0339244Y0268458D01*
X0339244Y0264668D01*
X0343034Y0264668D01*
X0342941Y0265256D01*
X0342713Y0265930D02*
X0409510Y0265930D01*
X0409510Y0266716D02*
X0342260Y0266716D01*
X0341542Y0267502D02*
X0397526Y0267502D01*
X0396740Y0268288D02*
X0340067Y0268288D01*
X0339244Y0268288D02*
X0338457Y0268288D01*
X0338457Y0267502D02*
X0339244Y0267502D01*
X0339244Y0266716D02*
X0338457Y0266716D01*
X0338457Y0265930D02*
X0339244Y0265930D01*
X0339244Y0265144D02*
X0338457Y0265144D01*
X0338457Y0264359D02*
X0332844Y0264359D01*
X0332813Y0265144D02*
X0334742Y0265144D01*
X0334988Y0265930D02*
X0332487Y0265930D01*
X0332056Y0266716D02*
X0335441Y0266716D01*
X0336159Y0267502D02*
X0331270Y0267502D01*
X0332844Y0263573D02*
X0334715Y0263573D01*
X0334924Y0262787D02*
X0332557Y0262787D01*
X0332225Y0262001D02*
X0335318Y0262001D01*
X0335979Y0261215D02*
X0331439Y0261215D01*
X0327697Y0260429D02*
X0320004Y0260429D01*
X0319645Y0260280D02*
X0321113Y0260888D01*
X0322236Y0262012D01*
X0322844Y0263480D01*
X0322844Y0265068D01*
X0322236Y0266536D01*
X0321113Y0267660D01*
X0319645Y0268268D01*
X0318056Y0268268D01*
X0316588Y0267660D01*
X0315465Y0266536D01*
X0314857Y0265068D01*
X0314857Y0263480D01*
X0315465Y0262012D01*
X0316588Y0260888D01*
X0318056Y0260280D01*
X0319645Y0260280D01*
X0317697Y0260429D02*
X0310004Y0260429D01*
X0309645Y0260280D02*
X0311113Y0260888D01*
X0312236Y0262012D01*
X0312844Y0263480D01*
X0312844Y0265068D01*
X0312236Y0266536D01*
X0311113Y0267660D01*
X0309645Y0268268D01*
X0308056Y0268268D01*
X0306588Y0267660D01*
X0305465Y0266536D01*
X0304857Y0265068D01*
X0304857Y0263480D01*
X0305465Y0262012D01*
X0306588Y0260888D01*
X0308056Y0260280D01*
X0309645Y0260280D01*
X0307697Y0260429D02*
X0300004Y0260429D01*
X0299645Y0260280D02*
X0301113Y0260888D01*
X0302236Y0262012D01*
X0302844Y0263480D01*
X0302844Y0265068D01*
X0302236Y0266536D01*
X0301113Y0267660D01*
X0299645Y0268268D01*
X0298056Y0268268D01*
X0296588Y0267660D01*
X0295465Y0266536D01*
X0294857Y0265068D01*
X0294857Y0263480D01*
X0295465Y0262012D01*
X0296588Y0260888D01*
X0298056Y0260280D01*
X0299645Y0260280D01*
X0297697Y0260429D02*
X0290004Y0260429D01*
X0289645Y0260280D02*
X0291113Y0260888D01*
X0292236Y0262012D01*
X0292844Y0263480D01*
X0292844Y0265068D01*
X0292236Y0266536D01*
X0291113Y0267660D01*
X0289645Y0268268D01*
X0288056Y0268268D01*
X0286588Y0267660D01*
X0285465Y0266536D01*
X0284857Y0265068D01*
X0284857Y0263480D01*
X0285465Y0262012D01*
X0286588Y0260888D01*
X0288056Y0260280D01*
X0289645Y0260280D01*
X0287697Y0260429D02*
X0280004Y0260429D01*
X0279645Y0260280D02*
X0281113Y0260888D01*
X0282236Y0262012D01*
X0282844Y0263480D01*
X0282844Y0265068D01*
X0282236Y0266536D01*
X0281113Y0267660D01*
X0279645Y0268268D01*
X0278056Y0268268D01*
X0276588Y0267660D01*
X0275465Y0266536D01*
X0274857Y0265068D01*
X0274857Y0263480D01*
X0275465Y0262012D01*
X0276588Y0260888D01*
X0278056Y0260280D01*
X0279645Y0260280D01*
X0277697Y0260429D02*
X0270004Y0260429D01*
X0269645Y0260280D02*
X0271113Y0260888D01*
X0272236Y0262012D01*
X0272844Y0263480D01*
X0272844Y0265068D01*
X0272236Y0266536D01*
X0271113Y0267660D01*
X0269645Y0268268D01*
X0268056Y0268268D01*
X0266588Y0267660D01*
X0265465Y0266536D01*
X0264857Y0265068D01*
X0264857Y0263480D01*
X0265465Y0262012D01*
X0266588Y0260888D01*
X0268056Y0260280D01*
X0269645Y0260280D01*
X0267697Y0260429D02*
X0260004Y0260429D01*
X0259645Y0260280D02*
X0261113Y0260888D01*
X0262236Y0262012D01*
X0262844Y0263480D01*
X0262844Y0265068D01*
X0262236Y0266536D01*
X0261113Y0267660D01*
X0259645Y0268268D01*
X0258056Y0268268D01*
X0256588Y0267660D01*
X0255465Y0266536D01*
X0254857Y0265068D01*
X0254857Y0263480D01*
X0255465Y0262012D01*
X0256588Y0260888D01*
X0258056Y0260280D01*
X0259645Y0260280D01*
X0257697Y0260429D02*
X0250004Y0260429D01*
X0249645Y0260280D02*
X0251113Y0260888D01*
X0252236Y0262012D01*
X0252844Y0263480D01*
X0252844Y0265068D01*
X0252236Y0266536D01*
X0251113Y0267660D01*
X0249645Y0268268D01*
X0248056Y0268268D01*
X0246588Y0267660D01*
X0245465Y0266536D01*
X0244857Y0265068D01*
X0244857Y0263480D01*
X0245465Y0262012D01*
X0246588Y0260888D01*
X0248056Y0260280D01*
X0249645Y0260280D01*
X0247697Y0260429D02*
X0240004Y0260429D01*
X0239645Y0260280D02*
X0241113Y0260888D01*
X0242236Y0262012D01*
X0242844Y0263480D01*
X0242844Y0265068D01*
X0242236Y0266536D01*
X0241113Y0267660D01*
X0239645Y0268268D01*
X0238056Y0268268D01*
X0236588Y0267660D01*
X0235465Y0266536D01*
X0234857Y0265068D01*
X0234857Y0263480D01*
X0235465Y0262012D01*
X0236588Y0260888D01*
X0238056Y0260280D01*
X0239645Y0260280D01*
X0237697Y0260429D02*
X0230004Y0260429D01*
X0229645Y0260280D02*
X0231113Y0260888D01*
X0232236Y0262012D01*
X0232844Y0263480D01*
X0232844Y0265068D01*
X0232236Y0266536D01*
X0231113Y0267660D01*
X0229645Y0268268D01*
X0228056Y0268268D01*
X0226588Y0267660D01*
X0225465Y0266536D01*
X0224857Y0265068D01*
X0224857Y0263480D01*
X0225465Y0262012D01*
X0226588Y0260888D01*
X0228056Y0260280D01*
X0229645Y0260280D01*
X0227697Y0260429D02*
X0220004Y0260429D01*
X0219645Y0260280D02*
X0221113Y0260888D01*
X0222236Y0262012D01*
X0222844Y0263480D01*
X0222844Y0265068D01*
X0222236Y0266536D01*
X0221113Y0267660D01*
X0219645Y0268268D01*
X0218056Y0268268D01*
X0216588Y0267660D01*
X0215465Y0266536D01*
X0214857Y0265068D01*
X0214857Y0263480D01*
X0215465Y0262012D01*
X0216588Y0260888D01*
X0218056Y0260280D01*
X0219645Y0260280D01*
X0217697Y0260429D02*
X0210004Y0260429D01*
X0209645Y0260280D02*
X0211113Y0260888D01*
X0212236Y0262012D01*
X0212844Y0263480D01*
X0212844Y0265068D01*
X0212236Y0266536D01*
X0211113Y0267660D01*
X0209645Y0268268D01*
X0208056Y0268268D01*
X0206588Y0267660D01*
X0205465Y0266536D01*
X0204857Y0265068D01*
X0204857Y0263480D01*
X0205465Y0262012D01*
X0206588Y0260888D01*
X0208056Y0260280D01*
X0209645Y0260280D01*
X0207697Y0260429D02*
X0200004Y0260429D01*
X0199645Y0260280D02*
X0201113Y0260888D01*
X0202236Y0262012D01*
X0202844Y0263480D01*
X0202844Y0265068D01*
X0202236Y0266536D01*
X0201113Y0267660D01*
X0199645Y0268268D01*
X0198056Y0268268D01*
X0196588Y0267660D01*
X0195465Y0266536D01*
X0194857Y0265068D01*
X0194857Y0263480D01*
X0195465Y0262012D01*
X0196588Y0260888D01*
X0198056Y0260280D01*
X0199645Y0260280D01*
X0197697Y0260429D02*
X0190004Y0260429D01*
X0189645Y0260280D02*
X0191113Y0260888D01*
X0192236Y0262012D01*
X0192844Y0263480D01*
X0192844Y0265068D01*
X0192236Y0266536D01*
X0191113Y0267660D01*
X0189645Y0268268D01*
X0188056Y0268268D01*
X0186588Y0267660D01*
X0185465Y0266536D01*
X0184857Y0265068D01*
X0184857Y0263480D01*
X0185465Y0262012D01*
X0186588Y0260888D01*
X0188056Y0260280D01*
X0189645Y0260280D01*
X0187697Y0260429D02*
X0180004Y0260429D01*
X0179645Y0260280D02*
X0181113Y0260888D01*
X0182236Y0262012D01*
X0182844Y0263480D01*
X0182844Y0265068D01*
X0182236Y0266536D01*
X0181113Y0267660D01*
X0179645Y0268268D01*
X0178056Y0268268D01*
X0176588Y0267660D01*
X0175465Y0266536D01*
X0174857Y0265068D01*
X0174857Y0263480D01*
X0175465Y0262012D01*
X0176588Y0260888D01*
X0178056Y0260280D01*
X0179645Y0260280D01*
X0177697Y0260429D02*
X0170004Y0260429D01*
X0169645Y0260280D02*
X0171113Y0260888D01*
X0172236Y0262012D01*
X0172844Y0263480D01*
X0172844Y0265068D01*
X0172236Y0266536D01*
X0171113Y0267660D01*
X0169645Y0268268D01*
X0168056Y0268268D01*
X0166588Y0267660D01*
X0165465Y0266536D01*
X0164857Y0265068D01*
X0164857Y0263480D01*
X0165465Y0262012D01*
X0166588Y0260888D01*
X0168056Y0260280D01*
X0169645Y0260280D01*
X0167697Y0260429D02*
X0160004Y0260429D01*
X0159645Y0260280D02*
X0161113Y0260888D01*
X0162236Y0262012D01*
X0162844Y0263480D01*
X0162844Y0265068D01*
X0162236Y0266536D01*
X0161113Y0267660D01*
X0159645Y0268268D01*
X0158056Y0268268D01*
X0156588Y0267660D01*
X0155465Y0266536D01*
X0154857Y0265068D01*
X0154857Y0263480D01*
X0155465Y0262012D01*
X0156588Y0260888D01*
X0158056Y0260280D01*
X0159645Y0260280D01*
X0157697Y0260429D02*
X0150542Y0260429D01*
X0150460Y0260388D02*
X0151048Y0260687D01*
X0151582Y0261075D01*
X0152049Y0261542D01*
X0152437Y0262076D01*
X0152737Y0262664D01*
X0152941Y0263292D01*
X0153034Y0263880D01*
X0149244Y0263880D01*
X0149244Y0260090D01*
X0149832Y0260184D01*
X0150460Y0260388D01*
X0149244Y0260429D02*
X0148457Y0260429D01*
X0148457Y0260090D02*
X0147868Y0260184D01*
X0147241Y0260388D01*
X0146652Y0260687D01*
X0146118Y0261075D01*
X0145652Y0261542D01*
X0145264Y0262076D01*
X0144964Y0262664D01*
X0144760Y0263292D01*
X0144667Y0263880D01*
X0148457Y0263880D01*
X0149244Y0263880D01*
X0149244Y0264668D01*
X0148457Y0264668D01*
X0148457Y0268458D01*
X0147868Y0268364D01*
X0147241Y0268160D01*
X0146652Y0267861D01*
X0146118Y0267473D01*
X0145652Y0267006D01*
X0145264Y0266472D01*
X0144964Y0265884D01*
X0144760Y0265256D01*
X0144667Y0264668D01*
X0148457Y0264668D01*
X0148457Y0263880D01*
X0148457Y0260090D01*
X0148457Y0261215D02*
X0149244Y0261215D01*
X0149244Y0262001D02*
X0148457Y0262001D01*
X0148457Y0262787D02*
X0149244Y0262787D01*
X0149244Y0263573D02*
X0148457Y0263573D01*
X0148457Y0264359D02*
X0139244Y0264359D01*
X0139244Y0264668D02*
X0143034Y0264668D01*
X0142941Y0265256D01*
X0142737Y0265884D01*
X0142437Y0266472D01*
X0142049Y0267006D01*
X0141582Y0267473D01*
X0141048Y0267861D01*
X0140460Y0268160D01*
X0139832Y0268364D01*
X0139244Y0268458D01*
X0139244Y0264668D01*
X0138457Y0264668D01*
X0138457Y0268458D01*
X0137868Y0268364D01*
X0137241Y0268160D01*
X0136652Y0267861D01*
X0136118Y0267473D01*
X0135652Y0267006D01*
X0135264Y0266472D01*
X0134964Y0265884D01*
X0134760Y0265256D01*
X0134667Y0264668D01*
X0138457Y0264668D01*
X0138457Y0263880D01*
X0139244Y0263880D01*
X0139244Y0260090D01*
X0139832Y0260184D01*
X0140460Y0260388D01*
X0141048Y0260687D01*
X0141582Y0261075D01*
X0142049Y0261542D01*
X0142437Y0262076D01*
X0142737Y0262664D01*
X0142941Y0263292D01*
X0143034Y0263880D01*
X0139244Y0263880D01*
X0139244Y0264668D01*
X0139244Y0265144D02*
X0138457Y0265144D01*
X0138457Y0264359D02*
X0134244Y0264359D01*
X0134667Y0263880D02*
X0134760Y0263292D01*
X0134964Y0262664D01*
X0135264Y0262076D01*
X0135652Y0261542D01*
X0136118Y0261075D01*
X0136652Y0260687D01*
X0137241Y0260388D01*
X0137868Y0260184D01*
X0138457Y0260090D01*
X0138457Y0263880D01*
X0134667Y0263880D01*
X0134715Y0263573D02*
X0134244Y0263573D01*
X0134072Y0262787D02*
X0134924Y0262787D01*
X0135318Y0262001D02*
X0133747Y0262001D01*
X0133419Y0261215D02*
X0135979Y0261215D01*
X0137159Y0260429D02*
X0132633Y0260429D01*
X0131765Y0259643D02*
X0409510Y0259643D01*
X0409510Y0258857D02*
X0131880Y0258857D01*
X0132681Y0258071D02*
X0137582Y0258071D01*
X0138056Y0258268D02*
X0136588Y0257660D01*
X0135465Y0256536D01*
X0134857Y0255068D01*
X0134857Y0253480D01*
X0135465Y0252012D01*
X0136588Y0250888D01*
X0138056Y0250280D01*
X0139645Y0250280D01*
X0141113Y0250888D01*
X0142236Y0252012D01*
X0142844Y0253480D01*
X0142844Y0255068D01*
X0142236Y0256536D01*
X0141113Y0257660D01*
X0139645Y0258268D01*
X0138056Y0258268D01*
X0140119Y0258071D02*
X0147582Y0258071D01*
X0148056Y0258268D02*
X0146588Y0257660D01*
X0145465Y0256536D01*
X0144857Y0255068D01*
X0144857Y0253480D01*
X0145465Y0252012D01*
X0146588Y0250888D01*
X0148056Y0250280D01*
X0149645Y0250280D01*
X0151113Y0250888D01*
X0152236Y0252012D01*
X0152844Y0253480D01*
X0152844Y0255068D01*
X0152236Y0256536D01*
X0151113Y0257660D01*
X0149645Y0258268D01*
X0148056Y0258268D01*
X0150119Y0258071D02*
X0157582Y0258071D01*
X0158056Y0258268D02*
X0156588Y0257660D01*
X0155465Y0256536D01*
X0154857Y0255068D01*
X0154857Y0253480D01*
X0155465Y0252012D01*
X0156588Y0250888D01*
X0158056Y0250280D01*
X0159645Y0250280D01*
X0161113Y0250888D01*
X0162236Y0252012D01*
X0162844Y0253480D01*
X0162844Y0255068D01*
X0162236Y0256536D01*
X0161113Y0257660D01*
X0159645Y0258268D01*
X0158056Y0258268D01*
X0160119Y0258071D02*
X0167582Y0258071D01*
X0168056Y0258268D02*
X0166588Y0257660D01*
X0165465Y0256536D01*
X0164857Y0255068D01*
X0164857Y0253480D01*
X0165465Y0252012D01*
X0166588Y0250888D01*
X0168056Y0250280D01*
X0169645Y0250280D01*
X0171113Y0250888D01*
X0172236Y0252012D01*
X0172844Y0253480D01*
X0172844Y0255068D01*
X0172236Y0256536D01*
X0171113Y0257660D01*
X0169645Y0258268D01*
X0168056Y0258268D01*
X0170119Y0258071D02*
X0177582Y0258071D01*
X0178056Y0258268D02*
X0176588Y0257660D01*
X0175465Y0256536D01*
X0174857Y0255068D01*
X0174857Y0253480D01*
X0175465Y0252012D01*
X0176588Y0250888D01*
X0178056Y0250280D01*
X0179645Y0250280D01*
X0181113Y0250888D01*
X0182236Y0252012D01*
X0182844Y0253480D01*
X0182844Y0255068D01*
X0182236Y0256536D01*
X0181113Y0257660D01*
X0179645Y0258268D01*
X0178056Y0258268D01*
X0180119Y0258071D02*
X0187582Y0258071D01*
X0188056Y0258268D02*
X0186588Y0257660D01*
X0185465Y0256536D01*
X0184857Y0255068D01*
X0184857Y0253480D01*
X0185465Y0252012D01*
X0186588Y0250888D01*
X0188056Y0250280D01*
X0189645Y0250280D01*
X0191113Y0250888D01*
X0192236Y0252012D01*
X0192844Y0253480D01*
X0192844Y0255068D01*
X0192236Y0256536D01*
X0191113Y0257660D01*
X0189645Y0258268D01*
X0188056Y0258268D01*
X0190119Y0258071D02*
X0197582Y0258071D01*
X0198056Y0258268D02*
X0196588Y0257660D01*
X0195465Y0256536D01*
X0194857Y0255068D01*
X0194857Y0253480D01*
X0195465Y0252012D01*
X0196588Y0250888D01*
X0198056Y0250280D01*
X0199645Y0250280D01*
X0201113Y0250888D01*
X0202236Y0252012D01*
X0202844Y0253480D01*
X0202844Y0255068D01*
X0202236Y0256536D01*
X0201113Y0257660D01*
X0199645Y0258268D01*
X0198056Y0258268D01*
X0200119Y0258071D02*
X0207582Y0258071D01*
X0208056Y0258268D02*
X0206588Y0257660D01*
X0205465Y0256536D01*
X0204857Y0255068D01*
X0204857Y0253480D01*
X0205465Y0252012D01*
X0206588Y0250888D01*
X0208056Y0250280D01*
X0209645Y0250280D01*
X0211113Y0250888D01*
X0212236Y0252012D01*
X0212844Y0253480D01*
X0212844Y0255068D01*
X0212236Y0256536D01*
X0211113Y0257660D01*
X0209645Y0258268D01*
X0208056Y0258268D01*
X0210119Y0258071D02*
X0217582Y0258071D01*
X0218056Y0258268D02*
X0216588Y0257660D01*
X0215465Y0256536D01*
X0214857Y0255068D01*
X0214857Y0253480D01*
X0215465Y0252012D01*
X0216588Y0250888D01*
X0218056Y0250280D01*
X0219645Y0250280D01*
X0221113Y0250888D01*
X0222236Y0252012D01*
X0222844Y0253480D01*
X0222844Y0255068D01*
X0222236Y0256536D01*
X0221113Y0257660D01*
X0219645Y0258268D01*
X0218056Y0258268D01*
X0220119Y0258071D02*
X0227582Y0258071D01*
X0228056Y0258268D02*
X0226588Y0257660D01*
X0225465Y0256536D01*
X0224857Y0255068D01*
X0224857Y0253480D01*
X0225465Y0252012D01*
X0226588Y0250888D01*
X0228056Y0250280D01*
X0229645Y0250280D01*
X0231113Y0250888D01*
X0232236Y0252012D01*
X0232844Y0253480D01*
X0232844Y0255068D01*
X0232236Y0256536D01*
X0231113Y0257660D01*
X0229645Y0258268D01*
X0228056Y0258268D01*
X0230119Y0258071D02*
X0237582Y0258071D01*
X0238056Y0258268D02*
X0236588Y0257660D01*
X0235465Y0256536D01*
X0234857Y0255068D01*
X0234857Y0253480D01*
X0235465Y0252012D01*
X0236588Y0250888D01*
X0238056Y0250280D01*
X0239645Y0250280D01*
X0241113Y0250888D01*
X0242236Y0252012D01*
X0242844Y0253480D01*
X0242844Y0255068D01*
X0242236Y0256536D01*
X0241113Y0257660D01*
X0239645Y0258268D01*
X0238056Y0258268D01*
X0240119Y0258071D02*
X0247582Y0258071D01*
X0248056Y0258268D02*
X0246588Y0257660D01*
X0245465Y0256536D01*
X0244857Y0255068D01*
X0244857Y0253480D01*
X0245465Y0252012D01*
X0246588Y0250888D01*
X0248056Y0250280D01*
X0249645Y0250280D01*
X0251113Y0250888D01*
X0252236Y0252012D01*
X0252844Y0253480D01*
X0252844Y0255068D01*
X0252236Y0256536D01*
X0251113Y0257660D01*
X0249645Y0258268D01*
X0248056Y0258268D01*
X0250119Y0258071D02*
X0257582Y0258071D01*
X0258056Y0258268D02*
X0256588Y0257660D01*
X0255465Y0256536D01*
X0254857Y0255068D01*
X0254857Y0253480D01*
X0255465Y0252012D01*
X0256588Y0250888D01*
X0258056Y0250280D01*
X0259645Y0250280D01*
X0261113Y0250888D01*
X0262236Y0252012D01*
X0262844Y0253480D01*
X0262844Y0255068D01*
X0262236Y0256536D01*
X0261113Y0257660D01*
X0259645Y0258268D01*
X0258056Y0258268D01*
X0260119Y0258071D02*
X0267582Y0258071D01*
X0268056Y0258268D02*
X0266588Y0257660D01*
X0265465Y0256536D01*
X0264857Y0255068D01*
X0264857Y0253480D01*
X0265465Y0252012D01*
X0266588Y0250888D01*
X0268056Y0250280D01*
X0269645Y0250280D01*
X0271113Y0250888D01*
X0272236Y0252012D01*
X0272844Y0253480D01*
X0272844Y0255068D01*
X0272236Y0256536D01*
X0271113Y0257660D01*
X0269645Y0258268D01*
X0268056Y0258268D01*
X0270119Y0258071D02*
X0277582Y0258071D01*
X0278056Y0258268D02*
X0276588Y0257660D01*
X0275465Y0256536D01*
X0274857Y0255068D01*
X0274857Y0253480D01*
X0275465Y0252012D01*
X0276588Y0250888D01*
X0278056Y0250280D01*
X0279645Y0250280D01*
X0281113Y0250888D01*
X0282236Y0252012D01*
X0282844Y0253480D01*
X0282844Y0255068D01*
X0282236Y0256536D01*
X0281113Y0257660D01*
X0279645Y0258268D01*
X0278056Y0258268D01*
X0280119Y0258071D02*
X0287582Y0258071D01*
X0288056Y0258268D02*
X0286588Y0257660D01*
X0285465Y0256536D01*
X0284857Y0255068D01*
X0284857Y0253480D01*
X0285465Y0252012D01*
X0286588Y0250888D01*
X0288056Y0250280D01*
X0289645Y0250280D01*
X0291113Y0250888D01*
X0292236Y0252012D01*
X0292844Y0253480D01*
X0292844Y0255068D01*
X0292236Y0256536D01*
X0291113Y0257660D01*
X0289645Y0258268D01*
X0288056Y0258268D01*
X0290119Y0258071D02*
X0297582Y0258071D01*
X0298056Y0258268D02*
X0296588Y0257660D01*
X0295465Y0256536D01*
X0294857Y0255068D01*
X0294857Y0253480D01*
X0295465Y0252012D01*
X0296588Y0250888D01*
X0298056Y0250280D01*
X0299645Y0250280D01*
X0301113Y0250888D01*
X0302236Y0252012D01*
X0302844Y0253480D01*
X0302844Y0255068D01*
X0302236Y0256536D01*
X0301113Y0257660D01*
X0299645Y0258268D01*
X0298056Y0258268D01*
X0300119Y0258071D02*
X0307582Y0258071D01*
X0308056Y0258268D02*
X0306588Y0257660D01*
X0305465Y0256536D01*
X0304857Y0255068D01*
X0304857Y0253480D01*
X0305465Y0252012D01*
X0306588Y0250888D01*
X0308056Y0250280D01*
X0309645Y0250280D01*
X0311113Y0250888D01*
X0312236Y0252012D01*
X0312844Y0253480D01*
X0312844Y0255068D01*
X0312236Y0256536D01*
X0311113Y0257660D01*
X0309645Y0258268D01*
X0308056Y0258268D01*
X0310119Y0258071D02*
X0317582Y0258071D01*
X0318056Y0258268D02*
X0316588Y0257660D01*
X0315465Y0256536D01*
X0314857Y0255068D01*
X0314857Y0253480D01*
X0315465Y0252012D01*
X0316588Y0250888D01*
X0318056Y0250280D01*
X0319645Y0250280D01*
X0321113Y0250888D01*
X0322236Y0252012D01*
X0322844Y0253480D01*
X0322844Y0255068D01*
X0322236Y0256536D01*
X0321113Y0257660D01*
X0319645Y0258268D01*
X0318056Y0258268D01*
X0320119Y0258071D02*
X0327582Y0258071D01*
X0326214Y0257285D02*
X0321487Y0257285D01*
X0322251Y0256499D02*
X0325449Y0256499D01*
X0325124Y0255714D02*
X0322577Y0255714D01*
X0322844Y0254928D02*
X0324857Y0254928D01*
X0324857Y0254142D02*
X0322844Y0254142D01*
X0322793Y0253356D02*
X0324908Y0253356D01*
X0325234Y0252570D02*
X0322467Y0252570D01*
X0322008Y0251784D02*
X0325692Y0251784D01*
X0326478Y0250998D02*
X0321222Y0250998D01*
X0316478Y0250998D02*
X0311222Y0250998D01*
X0312008Y0251784D02*
X0315692Y0251784D01*
X0315234Y0252570D02*
X0312467Y0252570D01*
X0312793Y0253356D02*
X0314908Y0253356D01*
X0314857Y0254142D02*
X0312844Y0254142D01*
X0312844Y0254928D02*
X0314857Y0254928D01*
X0315124Y0255714D02*
X0312577Y0255714D01*
X0312251Y0256499D02*
X0315449Y0256499D01*
X0316214Y0257285D02*
X0311487Y0257285D01*
X0311439Y0261215D02*
X0316262Y0261215D01*
X0315476Y0262001D02*
X0312225Y0262001D01*
X0312557Y0262787D02*
X0315144Y0262787D01*
X0314857Y0263573D02*
X0312844Y0263573D01*
X0312844Y0264359D02*
X0314857Y0264359D01*
X0314888Y0265144D02*
X0312813Y0265144D01*
X0312487Y0265930D02*
X0315214Y0265930D01*
X0315645Y0266716D02*
X0312056Y0266716D01*
X0311270Y0267502D02*
X0316431Y0267502D01*
X0321270Y0267502D02*
X0326431Y0267502D01*
X0325645Y0266716D02*
X0322056Y0266716D01*
X0322487Y0265930D02*
X0325214Y0265930D01*
X0324888Y0265144D02*
X0322813Y0265144D01*
X0322844Y0264359D02*
X0324857Y0264359D01*
X0324857Y0263573D02*
X0322844Y0263573D01*
X0322557Y0262787D02*
X0325144Y0262787D01*
X0325476Y0262001D02*
X0322225Y0262001D01*
X0321439Y0261215D02*
X0326262Y0261215D01*
X0331487Y0257285D02*
X0335931Y0257285D01*
X0335284Y0256499D02*
X0332251Y0256499D01*
X0332577Y0255714D02*
X0334909Y0255714D01*
X0334708Y0254928D02*
X0332844Y0254928D01*
X0332844Y0254142D02*
X0338457Y0254142D01*
X0338457Y0253356D02*
X0339244Y0253356D01*
X0339244Y0252570D02*
X0338457Y0252570D01*
X0338457Y0251784D02*
X0339244Y0251784D01*
X0339244Y0250998D02*
X0338457Y0250998D01*
X0336225Y0250998D02*
X0331222Y0250998D01*
X0332008Y0251784D02*
X0335476Y0251784D01*
X0335012Y0252570D02*
X0332467Y0252570D01*
X0332793Y0253356D02*
X0334750Y0253356D01*
X0340635Y0258071D02*
X0409510Y0258071D01*
X0409510Y0257285D02*
X0341770Y0257285D01*
X0342417Y0256499D02*
X0409510Y0256499D01*
X0409510Y0255714D02*
X0385516Y0255714D01*
X0386535Y0254928D02*
X0409510Y0254928D01*
X0409510Y0254142D02*
X0401089Y0254142D01*
X0400869Y0254362D02*
X0401852Y0253379D01*
X0402383Y0252095D01*
X0402383Y0250705D01*
X0401852Y0249421D01*
X0400869Y0248438D01*
X0399585Y0247906D01*
X0398195Y0247906D01*
X0396911Y0248438D01*
X0395928Y0249421D01*
X0395396Y0250705D01*
X0395396Y0252095D01*
X0395928Y0253379D01*
X0396911Y0254362D01*
X0398195Y0254894D01*
X0399585Y0254894D01*
X0400869Y0254362D01*
X0401861Y0253356D02*
X0409510Y0253356D01*
X0409510Y0252570D02*
X0402187Y0252570D01*
X0402383Y0251784D02*
X0409510Y0251784D01*
X0409510Y0250998D02*
X0402383Y0250998D01*
X0402179Y0250212D02*
X0409510Y0250212D01*
X0409510Y0249426D02*
X0401854Y0249426D01*
X0401071Y0248640D02*
X0409510Y0248640D01*
X0409510Y0247854D02*
X0386517Y0247854D01*
X0387296Y0248640D02*
X0388835Y0248640D01*
X0388052Y0249426D02*
X0387621Y0249426D01*
X0385472Y0247068D02*
X0409510Y0247068D01*
X0409510Y0246283D02*
X0018191Y0246283D01*
X0018191Y0247068D02*
X0380811Y0247068D01*
X0379767Y0247854D02*
X0376360Y0247854D01*
X0375624Y0247854D02*
X0374911Y0247854D01*
X0374175Y0247854D02*
X0018191Y0247854D01*
X0018191Y0245497D02*
X0409510Y0245497D01*
X0409510Y0244711D02*
X0018191Y0244711D01*
X0018191Y0243925D02*
X0409510Y0243925D01*
X0409510Y0243139D02*
X0018191Y0243139D01*
X0018191Y0250212D02*
X0034499Y0250212D01*
X0033619Y0250998D02*
X0018191Y0250998D01*
X0018191Y0251784D02*
X0033173Y0251784D01*
X0032951Y0252570D02*
X0018191Y0252570D01*
X0018191Y0253356D02*
X0032917Y0253356D01*
X0033081Y0254142D02*
X0018191Y0254142D01*
X0018191Y0254928D02*
X0024483Y0254928D01*
X0024353Y0254981D02*
X0024931Y0254742D01*
X0025545Y0254620D01*
X0025760Y0254620D01*
X0025760Y0257699D01*
X0022680Y0257699D01*
X0022680Y0257485D01*
X0022802Y0256871D01*
X0023042Y0256292D01*
X0023390Y0255772D01*
X0023832Y0255329D01*
X0024353Y0254981D01*
X0023448Y0255714D02*
X0018191Y0255714D01*
X0018191Y0256499D02*
X0022956Y0256499D01*
X0022720Y0257285D02*
X0018191Y0257285D01*
X0018191Y0258071D02*
X0022680Y0258071D01*
X0022857Y0258857D02*
X0018191Y0258857D01*
X0018191Y0259643D02*
X0023269Y0259643D01*
X0024076Y0260429D02*
X0018191Y0260429D01*
X0018191Y0261215D02*
X0085979Y0261215D01*
X0086118Y0261075D02*
X0086652Y0260687D01*
X0087241Y0260388D01*
X0087868Y0260184D01*
X0088457Y0260090D01*
X0088457Y0263880D01*
X0089244Y0263880D01*
X0089244Y0260090D01*
X0089832Y0260184D01*
X0090460Y0260388D01*
X0091048Y0260687D01*
X0091582Y0261075D01*
X0092049Y0261542D01*
X0092437Y0262076D01*
X0092737Y0262664D01*
X0092941Y0263292D01*
X0093034Y0263880D01*
X0089244Y0263880D01*
X0089244Y0264668D01*
X0088457Y0264668D01*
X0088457Y0268458D01*
X0087868Y0268364D01*
X0087241Y0268160D01*
X0086652Y0267861D01*
X0086118Y0267473D01*
X0085652Y0267006D01*
X0085264Y0266472D01*
X0084964Y0265884D01*
X0084760Y0265256D01*
X0084667Y0264668D01*
X0088457Y0264668D01*
X0088457Y0263880D01*
X0084667Y0263880D01*
X0084760Y0263292D01*
X0084964Y0262664D01*
X0085264Y0262076D01*
X0085652Y0261542D01*
X0086118Y0261075D01*
X0085318Y0262001D02*
X0018191Y0262001D01*
X0018191Y0262787D02*
X0084924Y0262787D01*
X0084715Y0263573D02*
X0018191Y0263573D01*
X0018191Y0264359D02*
X0088457Y0264359D01*
X0088457Y0265144D02*
X0089244Y0265144D01*
X0089244Y0264668D02*
X0089244Y0268458D01*
X0089832Y0268364D01*
X0090460Y0268160D01*
X0091048Y0267861D01*
X0091582Y0267473D01*
X0092049Y0267006D01*
X0092437Y0266472D01*
X0092737Y0265884D01*
X0092941Y0265256D01*
X0093034Y0264668D01*
X0089244Y0264668D01*
X0089244Y0264359D02*
X0098457Y0264359D01*
X0098457Y0264668D02*
X0098457Y0263880D01*
X0099244Y0263880D01*
X0099244Y0260090D01*
X0099832Y0260184D01*
X0100460Y0260388D01*
X0101048Y0260687D01*
X0101582Y0261075D01*
X0102049Y0261542D01*
X0102437Y0262076D01*
X0102737Y0262664D01*
X0102941Y0263292D01*
X0103034Y0263880D01*
X0099244Y0263880D01*
X0099244Y0264668D01*
X0098457Y0264668D01*
X0098457Y0268458D01*
X0097868Y0268364D01*
X0097241Y0268160D01*
X0096652Y0267861D01*
X0096118Y0267473D01*
X0095652Y0267006D01*
X0095264Y0266472D01*
X0094964Y0265884D01*
X0094760Y0265256D01*
X0094667Y0264668D01*
X0098457Y0264668D01*
X0098457Y0265144D02*
X0099244Y0265144D01*
X0099244Y0264668D02*
X0099244Y0268458D01*
X0099832Y0268364D01*
X0100460Y0268160D01*
X0101048Y0267861D01*
X0101582Y0267473D01*
X0102049Y0267006D01*
X0102437Y0266472D01*
X0102737Y0265884D01*
X0102941Y0265256D01*
X0103034Y0264668D01*
X0099244Y0264668D01*
X0099244Y0264359D02*
X0108457Y0264359D01*
X0108457Y0264668D02*
X0108457Y0263880D01*
X0109244Y0263880D01*
X0109244Y0260090D01*
X0109832Y0260184D01*
X0110460Y0260388D01*
X0111048Y0260687D01*
X0111582Y0261075D01*
X0112049Y0261542D01*
X0112437Y0262076D01*
X0112737Y0262664D01*
X0112941Y0263292D01*
X0113034Y0263880D01*
X0109244Y0263880D01*
X0109244Y0264668D01*
X0108457Y0264668D01*
X0108457Y0268458D01*
X0107868Y0268364D01*
X0107241Y0268160D01*
X0106652Y0267861D01*
X0106118Y0267473D01*
X0105652Y0267006D01*
X0105264Y0266472D01*
X0104964Y0265884D01*
X0104760Y0265256D01*
X0104667Y0264668D01*
X0108457Y0264668D01*
X0108457Y0265144D02*
X0109244Y0265144D01*
X0109244Y0264668D02*
X0109244Y0268458D01*
X0109832Y0268364D01*
X0110460Y0268160D01*
X0111048Y0267861D01*
X0111582Y0267473D01*
X0112049Y0267006D01*
X0112437Y0266472D01*
X0112737Y0265884D01*
X0112941Y0265256D01*
X0113034Y0264668D01*
X0109244Y0264668D01*
X0109244Y0264359D02*
X0118457Y0264359D01*
X0118457Y0264668D02*
X0118457Y0263880D01*
X0119244Y0263880D01*
X0119244Y0260090D01*
X0119832Y0260184D01*
X0120460Y0260388D01*
X0121048Y0260687D01*
X0121582Y0261075D01*
X0122049Y0261542D01*
X0122437Y0262076D01*
X0122737Y0262664D01*
X0122941Y0263292D01*
X0123034Y0263880D01*
X0119244Y0263880D01*
X0119244Y0264668D01*
X0118457Y0264668D01*
X0118457Y0268458D01*
X0117868Y0268364D01*
X0117241Y0268160D01*
X0116652Y0267861D01*
X0116118Y0267473D01*
X0115652Y0267006D01*
X0115264Y0266472D01*
X0114964Y0265884D01*
X0114760Y0265256D01*
X0114667Y0264668D01*
X0118457Y0264668D01*
X0118457Y0265144D02*
X0119244Y0265144D01*
X0119244Y0264668D02*
X0119244Y0268458D01*
X0119832Y0268364D01*
X0120460Y0268160D01*
X0121048Y0267861D01*
X0121582Y0267473D01*
X0122049Y0267006D01*
X0122437Y0266472D01*
X0122737Y0265884D01*
X0122941Y0265256D01*
X0123034Y0264668D01*
X0119244Y0264668D01*
X0119244Y0264359D02*
X0123457Y0264359D01*
X0123457Y0265144D02*
X0122958Y0265144D01*
X0122713Y0265930D02*
X0123698Y0265930D01*
X0124024Y0266716D02*
X0122260Y0266716D01*
X0121542Y0267502D02*
X0124451Y0267502D01*
X0125237Y0268288D02*
X0120067Y0268288D01*
X0119244Y0268288D02*
X0118457Y0268288D01*
X0118457Y0267502D02*
X0119244Y0267502D01*
X0119244Y0266716D02*
X0118457Y0266716D01*
X0118457Y0265930D02*
X0119244Y0265930D01*
X0118457Y0263880D02*
X0114667Y0263880D01*
X0114760Y0263292D01*
X0114964Y0262664D01*
X0115264Y0262076D01*
X0115652Y0261542D01*
X0116118Y0261075D01*
X0116652Y0260687D01*
X0117241Y0260388D01*
X0117868Y0260184D01*
X0118457Y0260090D01*
X0118457Y0263880D01*
X0118457Y0263573D02*
X0119244Y0263573D01*
X0119244Y0262787D02*
X0118457Y0262787D01*
X0118457Y0262001D02*
X0119244Y0262001D01*
X0119244Y0261215D02*
X0118457Y0261215D01*
X0118457Y0260429D02*
X0119244Y0260429D01*
X0119983Y0259643D02*
X0125936Y0259643D01*
X0125821Y0258857D02*
X0121880Y0258857D01*
X0122681Y0258071D02*
X0125020Y0258071D01*
X0124260Y0257285D02*
X0123441Y0257285D01*
X0123767Y0256499D02*
X0123934Y0256499D01*
X0124044Y0251784D02*
X0123657Y0251784D01*
X0123202Y0250998D02*
X0124498Y0250998D01*
X0125284Y0250212D02*
X0122416Y0250212D01*
X0121241Y0249426D02*
X0126460Y0249426D01*
X0133202Y0250998D02*
X0136478Y0250998D01*
X0135692Y0251784D02*
X0133657Y0251784D01*
X0133983Y0252570D02*
X0135234Y0252570D01*
X0134908Y0253356D02*
X0134244Y0253356D01*
X0134244Y0254142D02*
X0134857Y0254142D01*
X0134857Y0254928D02*
X0134244Y0254928D01*
X0134092Y0255714D02*
X0135124Y0255714D01*
X0135449Y0256499D02*
X0133767Y0256499D01*
X0133441Y0257285D02*
X0136214Y0257285D01*
X0138457Y0260429D02*
X0139244Y0260429D01*
X0139244Y0261215D02*
X0138457Y0261215D01*
X0138457Y0262001D02*
X0139244Y0262001D01*
X0139244Y0262787D02*
X0138457Y0262787D01*
X0138457Y0263573D02*
X0139244Y0263573D01*
X0139244Y0265930D02*
X0138457Y0265930D01*
X0138457Y0266716D02*
X0139244Y0266716D01*
X0139244Y0267502D02*
X0138457Y0267502D01*
X0138457Y0268288D02*
X0139244Y0268288D01*
X0140067Y0268288D02*
X0147634Y0268288D01*
X0148457Y0268288D02*
X0149244Y0268288D01*
X0149244Y0268458D02*
X0149832Y0268364D01*
X0150460Y0268160D01*
X0151048Y0267861D01*
X0151582Y0267473D01*
X0152049Y0267006D01*
X0152437Y0266472D01*
X0152737Y0265884D01*
X0152941Y0265256D01*
X0153034Y0264668D01*
X0149244Y0264668D01*
X0149244Y0268458D01*
X0150067Y0268288D02*
X0337634Y0268288D01*
X0342985Y0263573D02*
X0409510Y0263573D01*
X0409510Y0262787D02*
X0342777Y0262787D01*
X0342383Y0262001D02*
X0409510Y0262001D01*
X0409510Y0261215D02*
X0341722Y0261215D01*
X0340542Y0260429D02*
X0409510Y0260429D01*
X0409510Y0267502D02*
X0400254Y0267502D01*
X0401040Y0268288D02*
X0409510Y0268288D01*
X0409510Y0269074D02*
X0401274Y0269074D01*
X0401274Y0269860D02*
X0409510Y0269860D01*
X0409510Y0270646D02*
X0406547Y0270646D01*
X0407333Y0271432D02*
X0409510Y0271432D01*
X0409510Y0272218D02*
X0407573Y0272218D01*
X0407573Y0273004D02*
X0409510Y0273004D01*
X0409510Y0273790D02*
X0407431Y0273790D01*
X0407133Y0274575D02*
X0409510Y0274575D01*
X0409510Y0275361D02*
X0407458Y0275361D01*
X0407784Y0276147D02*
X0409510Y0276147D01*
X0403831Y0270646D02*
X0403104Y0270646D01*
X0396506Y0269860D02*
X0206155Y0269860D01*
X0206786Y0270491D02*
X0205389Y0269094D01*
X0203414Y0269094D01*
X0202017Y0270491D01*
X0202017Y0272466D01*
X0203414Y0273863D01*
X0205389Y0273863D01*
X0206786Y0272466D01*
X0206786Y0270491D01*
X0206786Y0270646D02*
X0391233Y0270646D01*
X0390447Y0271432D02*
X0206786Y0271432D01*
X0206786Y0272218D02*
X0390206Y0272218D01*
X0390206Y0273004D02*
X0206249Y0273004D01*
X0205463Y0273790D02*
X0390348Y0273790D01*
X0390647Y0274575D02*
X0194047Y0274575D01*
X0193578Y0275044D02*
X0191603Y0275044D01*
X0190206Y0273647D01*
X0190206Y0271672D01*
X0191603Y0270276D01*
X0193578Y0270276D01*
X0194975Y0271672D01*
X0194975Y0273647D01*
X0193578Y0275044D01*
X0194833Y0273790D02*
X0203341Y0273790D01*
X0202555Y0273004D02*
X0194975Y0273004D01*
X0194975Y0272218D02*
X0202017Y0272218D01*
X0202017Y0271432D02*
X0194734Y0271432D01*
X0193948Y0270646D02*
X0202017Y0270646D01*
X0202648Y0269860D02*
X0031195Y0269860D01*
X0031195Y0269074D02*
X0126344Y0269074D01*
X0131356Y0269074D02*
X0396506Y0269074D01*
X0394676Y0270646D02*
X0393948Y0270646D01*
X0390321Y0275361D02*
X0037379Y0275361D01*
X0037054Y0274575D02*
X0191134Y0274575D01*
X0190348Y0273790D02*
X0037352Y0273790D01*
X0037494Y0273004D02*
X0190206Y0273004D01*
X0190206Y0272218D02*
X0037494Y0272218D01*
X0037254Y0271432D02*
X0190447Y0271432D01*
X0191233Y0270646D02*
X0036468Y0270646D01*
X0033752Y0270646D02*
X0033025Y0270646D01*
X0030961Y0268288D02*
X0087634Y0268288D01*
X0088457Y0268288D02*
X0089244Y0268288D01*
X0089244Y0267502D02*
X0088457Y0267502D01*
X0088457Y0266716D02*
X0089244Y0266716D01*
X0089244Y0265930D02*
X0088457Y0265930D01*
X0088457Y0263573D02*
X0089244Y0263573D01*
X0089244Y0262787D02*
X0088457Y0262787D01*
X0088457Y0262001D02*
X0089244Y0262001D01*
X0089244Y0261215D02*
X0088457Y0261215D01*
X0088457Y0260429D02*
X0089244Y0260429D01*
X0089983Y0259643D02*
X0107718Y0259643D01*
X0107868Y0260184D02*
X0108457Y0260090D01*
X0108457Y0263880D01*
X0104667Y0263880D01*
X0104760Y0263292D01*
X0104964Y0262664D01*
X0105264Y0262076D01*
X0105652Y0261542D01*
X0106118Y0261075D01*
X0106652Y0260687D01*
X0107241Y0260388D01*
X0107868Y0260184D01*
X0108457Y0260429D02*
X0109244Y0260429D01*
X0109244Y0261215D02*
X0108457Y0261215D01*
X0108457Y0262001D02*
X0109244Y0262001D01*
X0109244Y0262787D02*
X0108457Y0262787D01*
X0108457Y0263573D02*
X0109244Y0263573D01*
X0109244Y0265930D02*
X0108457Y0265930D01*
X0108457Y0266716D02*
X0109244Y0266716D01*
X0109244Y0267502D02*
X0108457Y0267502D01*
X0108457Y0268288D02*
X0109244Y0268288D01*
X0110067Y0268288D02*
X0117634Y0268288D01*
X0116159Y0267502D02*
X0111542Y0267502D01*
X0112260Y0266716D02*
X0115441Y0266716D01*
X0114988Y0265930D02*
X0112713Y0265930D01*
X0112958Y0265144D02*
X0114742Y0265144D01*
X0114715Y0263573D02*
X0112985Y0263573D01*
X0112777Y0262787D02*
X0114924Y0262787D01*
X0115318Y0262001D02*
X0112383Y0262001D01*
X0111722Y0261215D02*
X0115979Y0261215D01*
X0117159Y0260429D02*
X0110542Y0260429D01*
X0109983Y0259643D02*
X0117718Y0259643D01*
X0115821Y0258857D02*
X0111880Y0258857D01*
X0112681Y0258071D02*
X0115020Y0258071D01*
X0114260Y0257285D02*
X0113441Y0257285D01*
X0113767Y0256499D02*
X0113934Y0256499D01*
X0114044Y0251784D02*
X0113657Y0251784D01*
X0113202Y0250998D02*
X0114498Y0250998D01*
X0115284Y0250212D02*
X0112416Y0250212D01*
X0111241Y0249426D02*
X0116460Y0249426D01*
X0106460Y0249426D02*
X0091241Y0249426D01*
X0092416Y0250212D02*
X0105284Y0250212D01*
X0104498Y0250998D02*
X0101222Y0250998D01*
X0101113Y0250888D02*
X0102236Y0252012D01*
X0102844Y0253480D01*
X0102844Y0255068D01*
X0102236Y0256536D01*
X0101113Y0257660D01*
X0099645Y0258268D01*
X0098056Y0258268D01*
X0096588Y0257660D01*
X0095465Y0256536D01*
X0094857Y0255068D01*
X0094857Y0253480D01*
X0095465Y0252012D01*
X0096588Y0250888D01*
X0098056Y0250280D01*
X0099645Y0250280D01*
X0101113Y0250888D01*
X0102008Y0251784D02*
X0104044Y0251784D01*
X0103718Y0252570D02*
X0102467Y0252570D01*
X0102793Y0253356D02*
X0103457Y0253356D01*
X0103457Y0254142D02*
X0102844Y0254142D01*
X0102844Y0254928D02*
X0103457Y0254928D01*
X0103609Y0255714D02*
X0102577Y0255714D01*
X0102251Y0256499D02*
X0103934Y0256499D01*
X0104260Y0257285D02*
X0101487Y0257285D01*
X0100119Y0258071D02*
X0105020Y0258071D01*
X0105821Y0258857D02*
X0091880Y0258857D01*
X0092681Y0258071D02*
X0097582Y0258071D01*
X0096214Y0257285D02*
X0093441Y0257285D01*
X0093767Y0256499D02*
X0095449Y0256499D01*
X0095124Y0255714D02*
X0094092Y0255714D01*
X0094244Y0254928D02*
X0094857Y0254928D01*
X0094857Y0254142D02*
X0094244Y0254142D01*
X0094244Y0253356D02*
X0094908Y0253356D01*
X0095234Y0252570D02*
X0093983Y0252570D01*
X0093657Y0251784D02*
X0095692Y0251784D01*
X0096478Y0250998D02*
X0093202Y0250998D01*
X0087718Y0259643D02*
X0028447Y0259643D01*
X0028859Y0258857D02*
X0085821Y0258857D01*
X0085020Y0258071D02*
X0029036Y0258071D01*
X0028997Y0257285D02*
X0084260Y0257285D01*
X0087159Y0260429D02*
X0027640Y0260429D01*
X0025957Y0260429D02*
X0025760Y0260429D01*
X0025760Y0259643D02*
X0025957Y0259643D01*
X0025957Y0258857D02*
X0025760Y0258857D01*
X0025760Y0258071D02*
X0025957Y0258071D01*
X0025957Y0257285D02*
X0025760Y0257285D01*
X0025760Y0256499D02*
X0025957Y0256499D01*
X0025957Y0255714D02*
X0025760Y0255714D01*
X0025760Y0254928D02*
X0025957Y0254928D01*
X0027234Y0254928D02*
X0033472Y0254928D01*
X0030175Y0267502D02*
X0086159Y0267502D01*
X0085441Y0266716D02*
X0018191Y0266716D01*
X0018191Y0265930D02*
X0084988Y0265930D01*
X0084742Y0265144D02*
X0018191Y0265144D01*
X0018191Y0267502D02*
X0027447Y0267502D01*
X0026661Y0268288D02*
X0018191Y0268288D01*
X0018191Y0269074D02*
X0026427Y0269074D01*
X0026427Y0269860D02*
X0018191Y0269860D01*
X0018191Y0270646D02*
X0021154Y0270646D01*
X0020368Y0271432D02*
X0018191Y0271432D01*
X0018191Y0272218D02*
X0020128Y0272218D01*
X0020128Y0273004D02*
X0018191Y0273004D01*
X0018191Y0273790D02*
X0020270Y0273790D01*
X0020568Y0274575D02*
X0018191Y0274575D01*
X0018191Y0275361D02*
X0020243Y0275361D01*
X0019917Y0276147D02*
X0018191Y0276147D01*
X0023870Y0270646D02*
X0024597Y0270646D01*
X0037705Y0276147D02*
X0389996Y0276147D01*
X0388095Y0276933D02*
X0039606Y0276933D01*
X0040392Y0277719D02*
X0387309Y0277719D01*
X0387057Y0278505D02*
X0040644Y0278505D01*
X0040644Y0279291D02*
X0387057Y0279291D01*
X0387187Y0280077D02*
X0040514Y0280077D01*
X0039728Y0280863D02*
X0387973Y0280863D01*
X0389945Y0281649D02*
X0037756Y0281649D01*
X0037430Y0282435D02*
X0390271Y0282435D01*
X0390596Y0283220D02*
X0037104Y0283220D01*
X0037230Y0284006D02*
X0390471Y0284006D01*
X0390206Y0284792D02*
X0037494Y0284792D01*
X0037494Y0285578D02*
X0390206Y0285578D01*
X0390325Y0286364D02*
X0037376Y0286364D01*
X0036590Y0287150D02*
X0391110Y0287150D01*
X0394071Y0287150D02*
X0394381Y0287150D01*
X0396278Y0287936D02*
X0031422Y0287936D01*
X0031195Y0288722D02*
X0396506Y0288722D01*
X0396618Y0289508D02*
X0031083Y0289508D01*
X0033320Y0287150D02*
X0033630Y0287150D01*
X0090067Y0268288D02*
X0097634Y0268288D01*
X0098457Y0268288D02*
X0099244Y0268288D01*
X0099244Y0267502D02*
X0098457Y0267502D01*
X0098457Y0266716D02*
X0099244Y0266716D01*
X0099244Y0265930D02*
X0098457Y0265930D01*
X0098457Y0263880D02*
X0094667Y0263880D01*
X0094760Y0263292D01*
X0094964Y0262664D01*
X0095264Y0262076D01*
X0095652Y0261542D01*
X0096118Y0261075D01*
X0096652Y0260687D01*
X0097241Y0260388D01*
X0097868Y0260184D01*
X0098457Y0260090D01*
X0098457Y0263880D01*
X0098457Y0263573D02*
X0099244Y0263573D01*
X0099244Y0262787D02*
X0098457Y0262787D01*
X0098457Y0262001D02*
X0099244Y0262001D01*
X0099244Y0261215D02*
X0098457Y0261215D01*
X0098457Y0260429D02*
X0099244Y0260429D01*
X0100542Y0260429D02*
X0107159Y0260429D01*
X0105979Y0261215D02*
X0101722Y0261215D01*
X0102383Y0262001D02*
X0105318Y0262001D01*
X0104924Y0262787D02*
X0102777Y0262787D01*
X0102985Y0263573D02*
X0104715Y0263573D01*
X0104742Y0265144D02*
X0102958Y0265144D01*
X0102713Y0265930D02*
X0104988Y0265930D01*
X0105441Y0266716D02*
X0102260Y0266716D01*
X0101542Y0267502D02*
X0106159Y0267502D01*
X0107634Y0268288D02*
X0100067Y0268288D01*
X0096159Y0267502D02*
X0091542Y0267502D01*
X0092260Y0266716D02*
X0095441Y0266716D01*
X0094988Y0265930D02*
X0092713Y0265930D01*
X0092958Y0265144D02*
X0094742Y0265144D01*
X0094715Y0263573D02*
X0092985Y0263573D01*
X0092777Y0262787D02*
X0094924Y0262787D01*
X0095318Y0262001D02*
X0092383Y0262001D01*
X0091722Y0261215D02*
X0095979Y0261215D01*
X0097159Y0260429D02*
X0090542Y0260429D01*
X0097918Y0239995D02*
X0137057Y0239995D01*
X0137057Y0239209D02*
X0098704Y0239209D01*
X0098912Y0238423D02*
X0137235Y0238423D01*
X0138021Y0237638D02*
X0098912Y0237638D01*
X0098737Y0236852D02*
X0360206Y0236852D01*
X0358097Y0236066D02*
X0097951Y0236066D01*
X0120542Y0260429D02*
X0125068Y0260429D01*
X0124282Y0261215D02*
X0121722Y0261215D01*
X0122383Y0262001D02*
X0123954Y0262001D01*
X0123628Y0262787D02*
X0122777Y0262787D01*
X0122985Y0263573D02*
X0123457Y0263573D01*
X0132464Y0268288D02*
X0137634Y0268288D01*
X0136159Y0267502D02*
X0133250Y0267502D01*
X0133677Y0266716D02*
X0135441Y0266716D01*
X0134988Y0265930D02*
X0134002Y0265930D01*
X0134244Y0265144D02*
X0134742Y0265144D01*
X0140542Y0260429D02*
X0147159Y0260429D01*
X0145979Y0261215D02*
X0141722Y0261215D01*
X0142383Y0262001D02*
X0145318Y0262001D01*
X0144924Y0262787D02*
X0142777Y0262787D01*
X0142985Y0263573D02*
X0144715Y0263573D01*
X0144742Y0265144D02*
X0142958Y0265144D01*
X0142713Y0265930D02*
X0144988Y0265930D01*
X0145441Y0266716D02*
X0142260Y0266716D01*
X0141542Y0267502D02*
X0146159Y0267502D01*
X0148457Y0267502D02*
X0149244Y0267502D01*
X0149244Y0266716D02*
X0148457Y0266716D01*
X0148457Y0265930D02*
X0149244Y0265930D01*
X0149244Y0265144D02*
X0148457Y0265144D01*
X0149244Y0264359D02*
X0154857Y0264359D01*
X0154888Y0265144D02*
X0152958Y0265144D01*
X0152713Y0265930D02*
X0155214Y0265930D01*
X0155645Y0266716D02*
X0152260Y0266716D01*
X0151542Y0267502D02*
X0156431Y0267502D01*
X0154857Y0263573D02*
X0152985Y0263573D01*
X0152777Y0262787D02*
X0155144Y0262787D01*
X0155476Y0262001D02*
X0152383Y0262001D01*
X0151722Y0261215D02*
X0156262Y0261215D01*
X0156214Y0257285D02*
X0151487Y0257285D01*
X0152251Y0256499D02*
X0155449Y0256499D01*
X0155124Y0255714D02*
X0152577Y0255714D01*
X0152844Y0254928D02*
X0154857Y0254928D01*
X0154857Y0254142D02*
X0152844Y0254142D01*
X0152793Y0253356D02*
X0154908Y0253356D01*
X0155234Y0252570D02*
X0152467Y0252570D01*
X0152008Y0251784D02*
X0155692Y0251784D01*
X0156478Y0250998D02*
X0151222Y0250998D01*
X0146478Y0250998D02*
X0141222Y0250998D01*
X0142008Y0251784D02*
X0145692Y0251784D01*
X0145234Y0252570D02*
X0142467Y0252570D01*
X0142793Y0253356D02*
X0144908Y0253356D01*
X0144857Y0254142D02*
X0142844Y0254142D01*
X0142844Y0254928D02*
X0144857Y0254928D01*
X0145124Y0255714D02*
X0142577Y0255714D01*
X0142251Y0256499D02*
X0145449Y0256499D01*
X0146214Y0257285D02*
X0141487Y0257285D01*
X0161487Y0257285D02*
X0166214Y0257285D01*
X0165449Y0256499D02*
X0162251Y0256499D01*
X0162577Y0255714D02*
X0165124Y0255714D01*
X0164857Y0254928D02*
X0162844Y0254928D01*
X0162844Y0254142D02*
X0164857Y0254142D01*
X0164908Y0253356D02*
X0162793Y0253356D01*
X0162467Y0252570D02*
X0165234Y0252570D01*
X0165692Y0251784D02*
X0162008Y0251784D01*
X0161222Y0250998D02*
X0166478Y0250998D01*
X0171222Y0250998D02*
X0176478Y0250998D01*
X0175692Y0251784D02*
X0172008Y0251784D01*
X0172467Y0252570D02*
X0175234Y0252570D01*
X0174908Y0253356D02*
X0172793Y0253356D01*
X0172844Y0254142D02*
X0174857Y0254142D01*
X0174857Y0254928D02*
X0172844Y0254928D01*
X0172577Y0255714D02*
X0175124Y0255714D01*
X0175449Y0256499D02*
X0172251Y0256499D01*
X0171487Y0257285D02*
X0176214Y0257285D01*
X0176262Y0261215D02*
X0171439Y0261215D01*
X0172225Y0262001D02*
X0175476Y0262001D01*
X0175144Y0262787D02*
X0172557Y0262787D01*
X0172844Y0263573D02*
X0174857Y0263573D01*
X0174857Y0264359D02*
X0172844Y0264359D01*
X0172813Y0265144D02*
X0174888Y0265144D01*
X0175214Y0265930D02*
X0172487Y0265930D01*
X0172056Y0266716D02*
X0175645Y0266716D01*
X0176431Y0267502D02*
X0171270Y0267502D01*
X0166431Y0267502D02*
X0161270Y0267502D01*
X0162056Y0266716D02*
X0165645Y0266716D01*
X0165214Y0265930D02*
X0162487Y0265930D01*
X0162813Y0265144D02*
X0164888Y0265144D01*
X0164857Y0264359D02*
X0162844Y0264359D01*
X0162844Y0263573D02*
X0164857Y0263573D01*
X0165144Y0262787D02*
X0162557Y0262787D01*
X0162225Y0262001D02*
X0165476Y0262001D01*
X0166262Y0261215D02*
X0161439Y0261215D01*
X0181439Y0261215D02*
X0186262Y0261215D01*
X0185476Y0262001D02*
X0182225Y0262001D01*
X0182557Y0262787D02*
X0185144Y0262787D01*
X0184857Y0263573D02*
X0182844Y0263573D01*
X0182844Y0264359D02*
X0184857Y0264359D01*
X0184888Y0265144D02*
X0182813Y0265144D01*
X0182487Y0265930D02*
X0185214Y0265930D01*
X0185645Y0266716D02*
X0182056Y0266716D01*
X0181270Y0267502D02*
X0186431Y0267502D01*
X0191270Y0267502D02*
X0196431Y0267502D01*
X0195645Y0266716D02*
X0192056Y0266716D01*
X0192487Y0265930D02*
X0195214Y0265930D01*
X0194888Y0265144D02*
X0192813Y0265144D01*
X0192844Y0264359D02*
X0194857Y0264359D01*
X0194857Y0263573D02*
X0192844Y0263573D01*
X0192557Y0262787D02*
X0195144Y0262787D01*
X0195476Y0262001D02*
X0192225Y0262001D01*
X0191439Y0261215D02*
X0196262Y0261215D01*
X0196214Y0257285D02*
X0191487Y0257285D01*
X0192251Y0256499D02*
X0195449Y0256499D01*
X0195124Y0255714D02*
X0192577Y0255714D01*
X0192844Y0254928D02*
X0194857Y0254928D01*
X0194857Y0254142D02*
X0192844Y0254142D01*
X0192793Y0253356D02*
X0194908Y0253356D01*
X0195234Y0252570D02*
X0192467Y0252570D01*
X0192008Y0251784D02*
X0195692Y0251784D01*
X0196478Y0250998D02*
X0191222Y0250998D01*
X0186478Y0250998D02*
X0181222Y0250998D01*
X0182008Y0251784D02*
X0185692Y0251784D01*
X0185234Y0252570D02*
X0182467Y0252570D01*
X0182793Y0253356D02*
X0184908Y0253356D01*
X0184857Y0254142D02*
X0182844Y0254142D01*
X0182844Y0254928D02*
X0184857Y0254928D01*
X0185124Y0255714D02*
X0182577Y0255714D01*
X0182251Y0256499D02*
X0185449Y0256499D01*
X0186214Y0257285D02*
X0181487Y0257285D01*
X0201487Y0257285D02*
X0206214Y0257285D01*
X0205449Y0256499D02*
X0202251Y0256499D01*
X0202577Y0255714D02*
X0205124Y0255714D01*
X0204857Y0254928D02*
X0202844Y0254928D01*
X0202844Y0254142D02*
X0204857Y0254142D01*
X0204908Y0253356D02*
X0202793Y0253356D01*
X0202467Y0252570D02*
X0205234Y0252570D01*
X0205692Y0251784D02*
X0202008Y0251784D01*
X0201222Y0250998D02*
X0206478Y0250998D01*
X0211222Y0250998D02*
X0216478Y0250998D01*
X0215692Y0251784D02*
X0212008Y0251784D01*
X0212467Y0252570D02*
X0215234Y0252570D01*
X0214908Y0253356D02*
X0212793Y0253356D01*
X0212844Y0254142D02*
X0214857Y0254142D01*
X0214857Y0254928D02*
X0212844Y0254928D01*
X0212577Y0255714D02*
X0215124Y0255714D01*
X0215449Y0256499D02*
X0212251Y0256499D01*
X0211487Y0257285D02*
X0216214Y0257285D01*
X0216262Y0261215D02*
X0211439Y0261215D01*
X0212225Y0262001D02*
X0215476Y0262001D01*
X0215144Y0262787D02*
X0212557Y0262787D01*
X0212844Y0263573D02*
X0214857Y0263573D01*
X0214857Y0264359D02*
X0212844Y0264359D01*
X0212813Y0265144D02*
X0214888Y0265144D01*
X0215214Y0265930D02*
X0212487Y0265930D01*
X0212056Y0266716D02*
X0215645Y0266716D01*
X0216431Y0267502D02*
X0211270Y0267502D01*
X0206431Y0267502D02*
X0201270Y0267502D01*
X0202056Y0266716D02*
X0205645Y0266716D01*
X0205214Y0265930D02*
X0202487Y0265930D01*
X0202813Y0265144D02*
X0204888Y0265144D01*
X0204857Y0264359D02*
X0202844Y0264359D01*
X0202844Y0263573D02*
X0204857Y0263573D01*
X0205144Y0262787D02*
X0202557Y0262787D01*
X0202225Y0262001D02*
X0205476Y0262001D01*
X0206262Y0261215D02*
X0201439Y0261215D01*
X0221439Y0261215D02*
X0226262Y0261215D01*
X0225476Y0262001D02*
X0222225Y0262001D01*
X0222557Y0262787D02*
X0225144Y0262787D01*
X0224857Y0263573D02*
X0222844Y0263573D01*
X0222844Y0264359D02*
X0224857Y0264359D01*
X0224888Y0265144D02*
X0222813Y0265144D01*
X0222487Y0265930D02*
X0225214Y0265930D01*
X0225645Y0266716D02*
X0222056Y0266716D01*
X0221270Y0267502D02*
X0226431Y0267502D01*
X0231270Y0267502D02*
X0236431Y0267502D01*
X0235645Y0266716D02*
X0232056Y0266716D01*
X0232487Y0265930D02*
X0235214Y0265930D01*
X0234888Y0265144D02*
X0232813Y0265144D01*
X0232844Y0264359D02*
X0234857Y0264359D01*
X0234857Y0263573D02*
X0232844Y0263573D01*
X0232557Y0262787D02*
X0235144Y0262787D01*
X0235476Y0262001D02*
X0232225Y0262001D01*
X0231439Y0261215D02*
X0236262Y0261215D01*
X0236214Y0257285D02*
X0231487Y0257285D01*
X0232251Y0256499D02*
X0235449Y0256499D01*
X0235124Y0255714D02*
X0232577Y0255714D01*
X0232844Y0254928D02*
X0234857Y0254928D01*
X0234857Y0254142D02*
X0232844Y0254142D01*
X0232793Y0253356D02*
X0234908Y0253356D01*
X0235234Y0252570D02*
X0232467Y0252570D01*
X0232008Y0251784D02*
X0235692Y0251784D01*
X0236478Y0250998D02*
X0231222Y0250998D01*
X0226478Y0250998D02*
X0221222Y0250998D01*
X0222008Y0251784D02*
X0225692Y0251784D01*
X0225234Y0252570D02*
X0222467Y0252570D01*
X0222793Y0253356D02*
X0224908Y0253356D01*
X0224857Y0254142D02*
X0222844Y0254142D01*
X0222844Y0254928D02*
X0224857Y0254928D01*
X0225124Y0255714D02*
X0222577Y0255714D01*
X0222251Y0256499D02*
X0225449Y0256499D01*
X0226214Y0257285D02*
X0221487Y0257285D01*
X0241487Y0257285D02*
X0246214Y0257285D01*
X0245449Y0256499D02*
X0242251Y0256499D01*
X0242577Y0255714D02*
X0245124Y0255714D01*
X0244857Y0254928D02*
X0242844Y0254928D01*
X0242844Y0254142D02*
X0244857Y0254142D01*
X0244908Y0253356D02*
X0242793Y0253356D01*
X0242467Y0252570D02*
X0245234Y0252570D01*
X0245692Y0251784D02*
X0242008Y0251784D01*
X0241222Y0250998D02*
X0246478Y0250998D01*
X0251222Y0250998D02*
X0256478Y0250998D01*
X0255692Y0251784D02*
X0252008Y0251784D01*
X0252467Y0252570D02*
X0255234Y0252570D01*
X0254908Y0253356D02*
X0252793Y0253356D01*
X0252844Y0254142D02*
X0254857Y0254142D01*
X0254857Y0254928D02*
X0252844Y0254928D01*
X0252577Y0255714D02*
X0255124Y0255714D01*
X0255449Y0256499D02*
X0252251Y0256499D01*
X0251487Y0257285D02*
X0256214Y0257285D01*
X0256262Y0261215D02*
X0251439Y0261215D01*
X0252225Y0262001D02*
X0255476Y0262001D01*
X0255144Y0262787D02*
X0252557Y0262787D01*
X0252844Y0263573D02*
X0254857Y0263573D01*
X0254857Y0264359D02*
X0252844Y0264359D01*
X0252813Y0265144D02*
X0254888Y0265144D01*
X0255214Y0265930D02*
X0252487Y0265930D01*
X0252056Y0266716D02*
X0255645Y0266716D01*
X0256431Y0267502D02*
X0251270Y0267502D01*
X0246431Y0267502D02*
X0241270Y0267502D01*
X0242056Y0266716D02*
X0245645Y0266716D01*
X0245214Y0265930D02*
X0242487Y0265930D01*
X0242813Y0265144D02*
X0244888Y0265144D01*
X0244857Y0264359D02*
X0242844Y0264359D01*
X0242844Y0263573D02*
X0244857Y0263573D01*
X0245144Y0262787D02*
X0242557Y0262787D01*
X0242225Y0262001D02*
X0245476Y0262001D01*
X0246262Y0261215D02*
X0241439Y0261215D01*
X0261439Y0261215D02*
X0266262Y0261215D01*
X0265476Y0262001D02*
X0262225Y0262001D01*
X0262557Y0262787D02*
X0265144Y0262787D01*
X0264857Y0263573D02*
X0262844Y0263573D01*
X0262844Y0264359D02*
X0264857Y0264359D01*
X0264888Y0265144D02*
X0262813Y0265144D01*
X0262487Y0265930D02*
X0265214Y0265930D01*
X0265645Y0266716D02*
X0262056Y0266716D01*
X0261270Y0267502D02*
X0266431Y0267502D01*
X0271270Y0267502D02*
X0276431Y0267502D01*
X0275645Y0266716D02*
X0272056Y0266716D01*
X0272487Y0265930D02*
X0275214Y0265930D01*
X0274888Y0265144D02*
X0272813Y0265144D01*
X0272844Y0264359D02*
X0274857Y0264359D01*
X0274857Y0263573D02*
X0272844Y0263573D01*
X0272557Y0262787D02*
X0275144Y0262787D01*
X0275476Y0262001D02*
X0272225Y0262001D01*
X0271439Y0261215D02*
X0276262Y0261215D01*
X0276214Y0257285D02*
X0271487Y0257285D01*
X0272251Y0256499D02*
X0275449Y0256499D01*
X0275124Y0255714D02*
X0272577Y0255714D01*
X0272844Y0254928D02*
X0274857Y0254928D01*
X0274857Y0254142D02*
X0272844Y0254142D01*
X0272793Y0253356D02*
X0274908Y0253356D01*
X0275234Y0252570D02*
X0272467Y0252570D01*
X0272008Y0251784D02*
X0275692Y0251784D01*
X0276478Y0250998D02*
X0271222Y0250998D01*
X0266478Y0250998D02*
X0261222Y0250998D01*
X0262008Y0251784D02*
X0265692Y0251784D01*
X0265234Y0252570D02*
X0262467Y0252570D01*
X0262793Y0253356D02*
X0264908Y0253356D01*
X0264857Y0254142D02*
X0262844Y0254142D01*
X0262844Y0254928D02*
X0264857Y0254928D01*
X0265124Y0255714D02*
X0262577Y0255714D01*
X0262251Y0256499D02*
X0265449Y0256499D01*
X0266214Y0257285D02*
X0261487Y0257285D01*
X0281487Y0257285D02*
X0286214Y0257285D01*
X0285449Y0256499D02*
X0282251Y0256499D01*
X0282577Y0255714D02*
X0285124Y0255714D01*
X0284857Y0254928D02*
X0282844Y0254928D01*
X0282844Y0254142D02*
X0284857Y0254142D01*
X0284908Y0253356D02*
X0282793Y0253356D01*
X0282467Y0252570D02*
X0285234Y0252570D01*
X0285692Y0251784D02*
X0282008Y0251784D01*
X0281222Y0250998D02*
X0286478Y0250998D01*
X0291222Y0250998D02*
X0296478Y0250998D01*
X0295692Y0251784D02*
X0292008Y0251784D01*
X0292467Y0252570D02*
X0295234Y0252570D01*
X0294908Y0253356D02*
X0292793Y0253356D01*
X0292844Y0254142D02*
X0294857Y0254142D01*
X0294857Y0254928D02*
X0292844Y0254928D01*
X0292577Y0255714D02*
X0295124Y0255714D01*
X0295449Y0256499D02*
X0292251Y0256499D01*
X0291487Y0257285D02*
X0296214Y0257285D01*
X0296262Y0261215D02*
X0291439Y0261215D01*
X0292225Y0262001D02*
X0295476Y0262001D01*
X0295144Y0262787D02*
X0292557Y0262787D01*
X0292844Y0263573D02*
X0294857Y0263573D01*
X0294857Y0264359D02*
X0292844Y0264359D01*
X0292813Y0265144D02*
X0294888Y0265144D01*
X0295214Y0265930D02*
X0292487Y0265930D01*
X0292056Y0266716D02*
X0295645Y0266716D01*
X0296431Y0267502D02*
X0291270Y0267502D01*
X0286431Y0267502D02*
X0281270Y0267502D01*
X0282056Y0266716D02*
X0285645Y0266716D01*
X0285214Y0265930D02*
X0282487Y0265930D01*
X0282813Y0265144D02*
X0284888Y0265144D01*
X0284857Y0264359D02*
X0282844Y0264359D01*
X0282844Y0263573D02*
X0284857Y0263573D01*
X0285144Y0262787D02*
X0282557Y0262787D01*
X0282225Y0262001D02*
X0285476Y0262001D01*
X0286262Y0261215D02*
X0281439Y0261215D01*
X0301439Y0261215D02*
X0306262Y0261215D01*
X0305476Y0262001D02*
X0302225Y0262001D01*
X0302557Y0262787D02*
X0305144Y0262787D01*
X0304857Y0263573D02*
X0302844Y0263573D01*
X0302844Y0264359D02*
X0304857Y0264359D01*
X0304888Y0265144D02*
X0302813Y0265144D01*
X0302487Y0265930D02*
X0305214Y0265930D01*
X0305645Y0266716D02*
X0302056Y0266716D01*
X0301270Y0267502D02*
X0306431Y0267502D01*
X0306214Y0257285D02*
X0301487Y0257285D01*
X0302251Y0256499D02*
X0305449Y0256499D01*
X0305124Y0255714D02*
X0302577Y0255714D01*
X0302844Y0254928D02*
X0304857Y0254928D01*
X0304857Y0254142D02*
X0302844Y0254142D01*
X0302793Y0253356D02*
X0304908Y0253356D01*
X0305234Y0252570D02*
X0302467Y0252570D01*
X0302008Y0251784D02*
X0305692Y0251784D01*
X0306478Y0250998D02*
X0301222Y0250998D01*
X0342792Y0255714D02*
X0380768Y0255714D01*
X0379749Y0254928D02*
X0376403Y0254928D01*
X0375624Y0254928D02*
X0374911Y0254928D01*
X0374132Y0254928D02*
X0342993Y0254928D01*
X0356471Y0230564D02*
X0381833Y0230564D01*
X0378988Y0248640D02*
X0377732Y0248640D01*
X0378391Y0249426D02*
X0378662Y0249426D01*
X0375624Y0249426D02*
X0374911Y0249426D01*
X0374911Y0248640D02*
X0375624Y0248640D01*
X0375624Y0250212D02*
X0374911Y0250212D01*
X0374911Y0250998D02*
X0375624Y0250998D01*
X0375624Y0251784D02*
X0374911Y0251784D01*
X0374911Y0252570D02*
X0375624Y0252570D01*
X0375624Y0253356D02*
X0374911Y0253356D01*
X0374911Y0254142D02*
X0375624Y0254142D01*
X0377750Y0254142D02*
X0378980Y0254142D01*
X0378655Y0253356D02*
X0378403Y0253356D01*
X0387303Y0254142D02*
X0388817Y0254142D01*
X0388044Y0253356D02*
X0387629Y0253356D01*
X0393215Y0254142D02*
X0396691Y0254142D01*
X0395918Y0253356D02*
X0393987Y0253356D01*
X0394313Y0252570D02*
X0395593Y0252570D01*
X0395396Y0251784D02*
X0394509Y0251784D01*
X0394509Y0250998D02*
X0395396Y0250998D01*
X0395600Y0250212D02*
X0394305Y0250212D01*
X0393980Y0249426D02*
X0395926Y0249426D01*
X0396709Y0248640D02*
X0393197Y0248640D01*
X0409510Y0206201D02*
X0123839Y0206201D01*
X0124624Y0205415D02*
X0409510Y0205415D01*
X0409510Y0204629D02*
X0124896Y0204629D01*
X0124896Y0203843D02*
X0409510Y0203843D01*
X0409510Y0203057D02*
X0124785Y0203057D01*
X0123999Y0202271D02*
X0409510Y0202271D01*
X0409510Y0190483D02*
X0036488Y0190483D01*
X0036488Y0191269D02*
X0036094Y0191269D01*
X0036094Y0192055D02*
X0036488Y0192055D01*
X0036488Y0192841D02*
X0036094Y0192841D01*
X0036094Y0193626D02*
X0036488Y0193626D01*
X0039538Y0189697D02*
X0390556Y0189697D01*
X0395412Y0189697D02*
X0400556Y0189697D01*
X0399403Y0188911D02*
X0396566Y0188911D01*
X0397352Y0188125D02*
X0398617Y0188125D01*
X0398171Y0187339D02*
X0397797Y0187339D01*
X0397894Y0182624D02*
X0398074Y0182624D01*
X0398400Y0181838D02*
X0397569Y0181838D01*
X0396799Y0181052D02*
X0399169Y0181052D01*
X0399992Y0180266D02*
X0395977Y0180266D01*
X0394079Y0179480D02*
X0401889Y0179480D01*
X0402002Y0178955D02*
X0401374Y0178751D01*
X0400786Y0178451D01*
X0400252Y0178063D01*
X0399785Y0177597D01*
X0399397Y0177063D01*
X0399098Y0176474D01*
X0398894Y0175847D01*
X0398801Y0175258D01*
X0402590Y0175258D01*
X0402590Y0174471D01*
X0398801Y0174471D01*
X0398894Y0173883D01*
X0399098Y0173255D01*
X0399397Y0172667D01*
X0399785Y0172133D01*
X0400252Y0171666D01*
X0400786Y0171278D01*
X0401374Y0170978D01*
X0402002Y0170774D01*
X0402591Y0170681D01*
X0402591Y0174471D01*
X0403378Y0174471D01*
X0403378Y0175258D01*
X0407168Y0175258D01*
X0407075Y0175847D01*
X0406871Y0176474D01*
X0406571Y0177063D01*
X0406183Y0177597D01*
X0405716Y0178063D01*
X0405182Y0178451D01*
X0404594Y0178751D01*
X0403966Y0178955D01*
X0403378Y0179048D01*
X0403378Y0175258D01*
X0402591Y0175258D01*
X0402591Y0179048D01*
X0402002Y0178955D01*
X0402591Y0178694D02*
X0403378Y0178694D01*
X0403378Y0177908D02*
X0402591Y0177908D01*
X0402591Y0177122D02*
X0403378Y0177122D01*
X0403378Y0176336D02*
X0402591Y0176336D01*
X0402591Y0175550D02*
X0403378Y0175550D01*
X0403378Y0174765D02*
X0409510Y0174765D01*
X0409510Y0175550D02*
X0407122Y0175550D01*
X0406916Y0176336D02*
X0409510Y0176336D01*
X0409510Y0177122D02*
X0406528Y0177122D01*
X0405871Y0177908D02*
X0409510Y0177908D01*
X0409510Y0178694D02*
X0404706Y0178694D01*
X0404079Y0179480D02*
X0409510Y0179480D01*
X0409510Y0180266D02*
X0405977Y0180266D01*
X0406799Y0181052D02*
X0409510Y0181052D01*
X0409510Y0181838D02*
X0407569Y0181838D01*
X0407894Y0182624D02*
X0409510Y0182624D01*
X0409510Y0183410D02*
X0408220Y0183410D01*
X0408378Y0184195D02*
X0409510Y0184195D01*
X0409510Y0184981D02*
X0408378Y0184981D01*
X0408378Y0185767D02*
X0409510Y0185767D01*
X0409510Y0186553D02*
X0408123Y0186553D01*
X0407797Y0187339D02*
X0409510Y0187339D01*
X0409510Y0188125D02*
X0407352Y0188125D01*
X0406566Y0188911D02*
X0409510Y0188911D01*
X0409510Y0189697D02*
X0405412Y0189697D01*
X0401263Y0178694D02*
X0394175Y0178694D01*
X0395589Y0177908D02*
X0400097Y0177908D01*
X0399441Y0177122D02*
X0396372Y0177122D01*
X0396697Y0176336D02*
X0399053Y0176336D01*
X0398847Y0175550D02*
X0396978Y0175550D01*
X0396978Y0174765D02*
X0402590Y0174765D01*
X0402591Y0173979D02*
X0403378Y0173979D01*
X0403378Y0174471D02*
X0403378Y0170681D01*
X0403966Y0170774D01*
X0404594Y0170978D01*
X0405182Y0171278D01*
X0405716Y0171666D01*
X0406183Y0172133D01*
X0406571Y0172667D01*
X0406871Y0173255D01*
X0407075Y0173883D01*
X0407168Y0174471D01*
X0403378Y0174471D01*
X0403378Y0173193D02*
X0402591Y0173193D01*
X0402591Y0172407D02*
X0403378Y0172407D01*
X0403378Y0171621D02*
X0402591Y0171621D01*
X0402591Y0170835D02*
X0403378Y0170835D01*
X0404153Y0170835D02*
X0409510Y0170835D01*
X0409510Y0171621D02*
X0405654Y0171621D01*
X0406382Y0172407D02*
X0409510Y0172407D01*
X0409510Y0173193D02*
X0406839Y0173193D01*
X0407090Y0173979D02*
X0409510Y0173979D01*
X0409510Y0170049D02*
X0018191Y0170049D01*
X0018191Y0169263D02*
X0409510Y0169263D01*
X0401815Y0170835D02*
X0018191Y0170835D01*
X0018191Y0171621D02*
X0390580Y0171621D01*
X0389794Y0172407D02*
X0018191Y0172407D01*
X0018191Y0173193D02*
X0389354Y0173193D01*
X0391270Y0168477D02*
X0018191Y0168477D01*
X0018191Y0167691D02*
X0390163Y0167691D01*
X0389507Y0166905D02*
X0018191Y0166905D01*
X0018191Y0166119D02*
X0389181Y0166119D01*
X0388991Y0165334D02*
X0018191Y0165334D01*
X0018191Y0164548D02*
X0388991Y0164548D01*
X0389118Y0163762D02*
X0018191Y0163762D01*
X0018191Y0162976D02*
X0389444Y0162976D01*
X0390011Y0162190D02*
X0018191Y0162190D01*
X0018191Y0161404D02*
X0390903Y0161404D01*
X0390746Y0158260D02*
X0255605Y0158260D01*
X0255605Y0157474D02*
X0389946Y0157474D01*
X0389417Y0156689D02*
X0255188Y0156689D01*
X0255605Y0157105D02*
X0254208Y0155709D01*
X0252233Y0155709D01*
X0250836Y0157105D01*
X0250836Y0159080D01*
X0252233Y0160477D01*
X0254208Y0160477D01*
X0255605Y0159080D01*
X0255605Y0157105D01*
X0254402Y0155903D02*
X0389091Y0155903D01*
X0390228Y0151973D02*
X0106098Y0151973D01*
X0107729Y0151187D02*
X0386407Y0151187D01*
X0386760Y0151540D02*
X0385364Y0150143D01*
X0385364Y0148168D01*
X0386760Y0146772D01*
X0388736Y0146772D01*
X0390132Y0148168D01*
X0390132Y0150143D01*
X0388736Y0151540D01*
X0386760Y0151540D01*
X0385621Y0150401D02*
X0119008Y0150401D01*
X0118775Y0150635D02*
X0116800Y0150635D01*
X0115403Y0149238D01*
X0115403Y0147263D01*
X0116800Y0145866D01*
X0118775Y0145866D01*
X0120172Y0147263D01*
X0120172Y0149238D01*
X0118775Y0150635D01*
X0119794Y0149615D02*
X0385364Y0149615D01*
X0385364Y0148829D02*
X0120172Y0148829D01*
X0120172Y0148043D02*
X0376768Y0148043D01*
X0377154Y0148430D02*
X0375757Y0147033D01*
X0375757Y0145058D01*
X0377154Y0143661D01*
X0379129Y0143661D01*
X0380526Y0145058D01*
X0380526Y0147033D01*
X0379129Y0148430D01*
X0377154Y0148430D01*
X0375982Y0147258D02*
X0120166Y0147258D01*
X0119380Y0146472D02*
X0375757Y0146472D01*
X0375757Y0145686D02*
X0109945Y0145686D01*
X0109945Y0146472D02*
X0110682Y0146472D01*
X0109945Y0144900D02*
X0375916Y0144900D01*
X0376702Y0144114D02*
X0109945Y0144114D01*
X0109945Y0143328D02*
X0389298Y0143328D01*
X0388991Y0144114D02*
X0379582Y0144114D01*
X0380368Y0144900D02*
X0388991Y0144900D01*
X0389002Y0145686D02*
X0380526Y0145686D01*
X0380526Y0146472D02*
X0389327Y0146472D01*
X0389222Y0147258D02*
X0389729Y0147258D01*
X0390007Y0148043D02*
X0390515Y0148043D01*
X0390132Y0148829D02*
X0392120Y0148829D01*
X0390132Y0149615D02*
X0409510Y0149615D01*
X0409510Y0150401D02*
X0389875Y0150401D01*
X0389089Y0151187D02*
X0391426Y0151187D01*
X0394542Y0151187D02*
X0400964Y0151187D01*
X0399945Y0151973D02*
X0395741Y0151973D01*
X0396435Y0152759D02*
X0399350Y0152759D01*
X0399004Y0153545D02*
X0396760Y0153545D01*
X0396978Y0154331D02*
X0398823Y0154331D01*
X0402591Y0155903D02*
X0403378Y0155903D01*
X0403378Y0156689D02*
X0402591Y0156689D01*
X0402591Y0157474D02*
X0403378Y0157474D01*
X0403378Y0158260D02*
X0402591Y0158260D01*
X0402591Y0159046D02*
X0403378Y0159046D01*
X0403390Y0159046D02*
X0409510Y0159046D01*
X0409510Y0158260D02*
X0405445Y0158260D01*
X0406272Y0157474D02*
X0409510Y0157474D01*
X0409510Y0156689D02*
X0406762Y0156689D01*
X0407056Y0155903D02*
X0409510Y0155903D01*
X0409510Y0155117D02*
X0403378Y0155117D01*
X0407146Y0154331D02*
X0409510Y0154331D01*
X0409510Y0153545D02*
X0406965Y0153545D01*
X0406618Y0152759D02*
X0409510Y0152759D01*
X0409510Y0151973D02*
X0406023Y0151973D01*
X0405004Y0151187D02*
X0409510Y0151187D01*
X0409510Y0144114D02*
X0407111Y0144114D01*
X0406894Y0143328D02*
X0409510Y0143328D01*
X0409510Y0142542D02*
X0406481Y0142542D01*
X0405807Y0141756D02*
X0409510Y0141756D01*
X0409510Y0137827D02*
X0405953Y0137827D01*
X0406582Y0137041D02*
X0409510Y0137041D01*
X0409510Y0136255D02*
X0406942Y0136255D01*
X0407135Y0135469D02*
X0409510Y0135469D01*
X0409510Y0134683D02*
X0403378Y0134683D01*
X0403378Y0133897D02*
X0402591Y0133897D01*
X0402591Y0133111D02*
X0403378Y0133111D01*
X0403378Y0132325D02*
X0402591Y0132325D01*
X0402591Y0131539D02*
X0403378Y0131539D01*
X0405542Y0131539D02*
X0409510Y0131539D01*
X0409510Y0132325D02*
X0406323Y0132325D01*
X0406798Y0133111D02*
X0409510Y0133111D01*
X0409510Y0133897D02*
X0407077Y0133897D01*
X0401103Y0138613D02*
X0394372Y0138613D01*
X0395670Y0137827D02*
X0400016Y0137827D01*
X0399386Y0137041D02*
X0396406Y0137041D01*
X0396731Y0136255D02*
X0399026Y0136255D01*
X0398834Y0135469D02*
X0396978Y0135469D01*
X0394019Y0140970D02*
X0401399Y0140970D01*
X0400162Y0141756D02*
X0395524Y0141756D01*
X0396310Y0142542D02*
X0399488Y0142542D01*
X0399074Y0143328D02*
X0396671Y0143328D01*
X0396978Y0144114D02*
X0398857Y0144114D01*
X0390445Y0141756D02*
X0109945Y0141756D01*
X0109945Y0142542D02*
X0389659Y0142542D01*
X0386275Y0147258D02*
X0380302Y0147258D01*
X0379516Y0148043D02*
X0385489Y0148043D01*
X0402578Y0159046D02*
X0255605Y0159046D01*
X0254853Y0159832D02*
X0409510Y0159832D01*
X0398813Y0165334D02*
X0396978Y0165334D01*
X0396787Y0166119D02*
X0398982Y0166119D01*
X0399317Y0166905D02*
X0396462Y0166905D01*
X0395805Y0167691D02*
X0399880Y0167691D01*
X0400837Y0168477D02*
X0394699Y0168477D01*
X0395388Y0171621D02*
X0400314Y0171621D01*
X0399586Y0172407D02*
X0396174Y0172407D01*
X0396614Y0173193D02*
X0399129Y0173193D01*
X0398879Y0173979D02*
X0396940Y0173979D01*
X0407167Y0124466D02*
X0409510Y0124466D01*
X0409510Y0123680D02*
X0407009Y0123680D01*
X0406687Y0122894D02*
X0409510Y0122894D01*
X0409510Y0122108D02*
X0406159Y0122108D01*
X0405244Y0121322D02*
X0409510Y0121322D01*
X0409510Y0120537D02*
X0327023Y0120537D01*
X0328046Y0118179D02*
X0390651Y0118179D01*
X0389865Y0117393D02*
X0327900Y0117393D01*
X0327114Y0116607D02*
X0389383Y0116607D01*
X0389058Y0115821D02*
X0327841Y0115821D01*
X0328046Y0115035D02*
X0388991Y0115035D01*
X0388991Y0114249D02*
X0328046Y0114249D01*
X0327868Y0113463D02*
X0389242Y0113463D01*
X0389567Y0112677D02*
X0327126Y0112677D01*
X0327912Y0111891D02*
X0390309Y0111891D01*
X0391623Y0111106D02*
X0327928Y0111106D01*
X0326775Y0108748D02*
X0391923Y0108748D01*
X0396585Y0116607D02*
X0399165Y0116607D01*
X0399637Y0117393D02*
X0396104Y0117393D01*
X0395318Y0118179D02*
X0400411Y0118179D01*
X0405557Y0118179D02*
X0409510Y0118179D01*
X0409510Y0117393D02*
X0406331Y0117393D01*
X0406803Y0116607D02*
X0409510Y0116607D01*
X0409510Y0115821D02*
X0407079Y0115821D01*
X0371527Y0073382D02*
X0370740Y0073382D01*
X0370740Y0072596D02*
X0371527Y0072596D01*
X0371527Y0071810D02*
X0370740Y0071810D01*
X0370740Y0071024D02*
X0371527Y0071024D01*
X0371527Y0070238D02*
X0370740Y0070238D01*
X0370740Y0069452D02*
X0371527Y0069452D01*
X0371527Y0068666D02*
X0370740Y0068666D01*
X0370740Y0067880D02*
X0371527Y0067880D01*
X0393594Y0041945D02*
X0395531Y0041945D01*
X0324293Y0078097D02*
X0319864Y0078097D01*
X0320650Y0078883D02*
X0323507Y0078883D01*
X0323002Y0079669D02*
X0321117Y0079669D01*
X0321117Y0080455D02*
X0323002Y0080455D01*
X0323002Y0081241D02*
X0321117Y0081241D01*
X0320414Y0082027D02*
X0323664Y0082027D01*
X0291093Y0088314D02*
X0137001Y0088314D01*
X0137787Y0087528D02*
X0290308Y0087528D01*
X0289813Y0086742D02*
X0138282Y0086742D01*
X0138282Y0085956D02*
X0289813Y0085956D01*
X0289813Y0085170D02*
X0138282Y0085170D01*
X0137608Y0084385D02*
X0290486Y0084385D01*
X0310827Y0110320D02*
X0323159Y0110320D01*
X0323159Y0111106D02*
X0311613Y0111106D01*
X0311628Y0111891D02*
X0323175Y0111891D01*
X0323961Y0112677D02*
X0311628Y0112677D01*
X0314404Y0113463D02*
X0323455Y0113463D01*
X0323277Y0114249D02*
X0315172Y0114249D01*
X0315172Y0115035D02*
X0323277Y0115035D01*
X0323482Y0115821D02*
X0315172Y0115821D01*
X0315776Y0116607D02*
X0324209Y0116607D01*
X0323423Y0117393D02*
X0316562Y0117393D01*
X0316904Y0118179D02*
X0323277Y0118179D01*
X0323277Y0118965D02*
X0316904Y0118965D01*
X0316864Y0119751D02*
X0323514Y0119751D01*
X0324300Y0120537D02*
X0316078Y0120537D01*
X0252039Y0155903D02*
X0244664Y0155903D01*
X0245415Y0156689D02*
X0251253Y0156689D01*
X0250836Y0157474D02*
X0245741Y0157474D01*
X0245784Y0158260D02*
X0250836Y0158260D01*
X0250836Y0159046D02*
X0245602Y0159046D01*
X0245115Y0159832D02*
X0251588Y0159832D01*
X0241736Y0155903D02*
X0241083Y0155903D01*
X0116566Y0150401D02*
X0113497Y0150401D01*
X0114283Y0149615D02*
X0115780Y0149615D01*
X0115403Y0148829D02*
X0114660Y0148829D01*
X0114660Y0148043D02*
X0115403Y0148043D01*
X0115408Y0147258D02*
X0114655Y0147258D01*
X0113869Y0146472D02*
X0116194Y0146472D01*
X0111055Y0150401D02*
X0108515Y0150401D01*
X0109184Y0149615D02*
X0110269Y0149615D01*
X0109891Y0148829D02*
X0109509Y0148829D01*
X0109835Y0148043D02*
X0109891Y0148043D01*
X0117202Y0195198D02*
X0018191Y0195198D01*
X0018191Y0195984D02*
X0117104Y0195984D01*
X0116778Y0196770D02*
X0018191Y0196770D01*
X0018191Y0197556D02*
X0116778Y0197556D01*
X0117003Y0198342D02*
X0018191Y0198342D01*
X0018191Y0199128D02*
X0117550Y0199128D01*
X0057383Y0217990D02*
X0056932Y0217990D01*
X0036488Y0212488D02*
X0036094Y0212488D01*
X0036094Y0211702D02*
X0036488Y0211702D01*
X0036488Y0210916D02*
X0036094Y0210916D01*
X0036094Y0210131D02*
X0036488Y0210131D01*
X0036488Y0209345D02*
X0036094Y0209345D01*
X0036094Y0208559D02*
X0036488Y0208559D01*
X0036488Y0207773D02*
X0036094Y0207773D01*
X0036094Y0206987D02*
X0036488Y0206987D01*
X0033526Y0211702D02*
X0027406Y0211702D01*
X0028343Y0212488D02*
X0034291Y0212488D01*
X0025957Y0212488D02*
X0025760Y0212488D01*
X0025760Y0211702D02*
X0025957Y0211702D01*
X0025957Y0213274D02*
X0025760Y0213274D01*
X0025760Y0214060D02*
X0025957Y0214060D01*
X0025957Y0214846D02*
X0025760Y0214846D01*
X0025760Y0215632D02*
X0025957Y0215632D01*
X0025957Y0216418D02*
X0025760Y0216418D01*
X0025760Y0217204D02*
X0025957Y0217204D01*
X0025760Y0188911D02*
X0025957Y0188911D01*
X0025957Y0188125D02*
X0025760Y0188125D01*
X0025760Y0187339D02*
X0025957Y0187339D01*
X0025957Y0186553D02*
X0025760Y0186553D01*
X0025760Y0185849D02*
X0022680Y0185849D01*
X0022680Y0185634D01*
X0022802Y0185020D01*
X0023042Y0184442D01*
X0023390Y0183921D01*
X0023832Y0183479D01*
X0024353Y0183131D01*
X0024931Y0182891D01*
X0025545Y0182769D01*
X0025760Y0182769D01*
X0025760Y0185849D01*
X0025760Y0185767D02*
X0025957Y0185767D01*
X0025957Y0184981D02*
X0025760Y0184981D01*
X0025760Y0184195D02*
X0025957Y0184195D01*
X0025957Y0183410D02*
X0025760Y0183410D01*
X0023936Y0183410D02*
X0018191Y0183410D01*
X0018191Y0184195D02*
X0023207Y0184195D01*
X0022819Y0184981D02*
X0018191Y0184981D01*
X0018191Y0185767D02*
X0022680Y0185767D01*
X0022739Y0186553D02*
X0018191Y0186553D01*
X0018191Y0187339D02*
X0022995Y0187339D01*
X0023542Y0188125D02*
X0018191Y0188125D01*
X0018191Y0188911D02*
X0024709Y0188911D01*
X0027008Y0188911D02*
X0033409Y0188911D01*
X0033044Y0189697D02*
X0018191Y0189697D01*
X0028175Y0188125D02*
X0034065Y0188125D01*
D19*
X0059520Y0101794D02*
X0059520Y0093132D01*
D20*
X0059520Y0097244D01*
X0059331Y0097433D01*
D21*
X0065031Y0113605D02*
X0053220Y0125416D01*
X0092984Y0130534D02*
X0092984Y0146282D01*
X0104402Y0146676D02*
X0104402Y0130928D01*
D22*
X0028811Y0050613D03*
X0028811Y0278959D03*
X0398890Y0278959D03*
X0398890Y0050613D03*
D23*
X0300465Y0101794D03*
X0060638Y0131715D03*
M02*
