G75*
%MOIN*%
%OFA0B0*%
%FSLAX25Y25*%
%IPPOS*%
%LPD*%
%AMOC8*
5,1,8,0,0,1.08239X$1,22.5*
%
%ADD10C,0.01000*%
%ADD11C,0.00800*%
D10*
X0202259Y0209556D02*
X0201325Y0210490D01*
X0201325Y0211424D01*
X0202259Y0212358D01*
X0205061Y0212358D01*
X0205061Y0210490D01*
X0204127Y0209556D01*
X0202259Y0209556D01*
X0205061Y0212358D02*
X0203193Y0214226D01*
X0201325Y0215160D01*
X0202338Y0219456D02*
X0202338Y0223192D01*
X0204206Y0225060D01*
X0206074Y0223192D01*
X0206074Y0219456D01*
X0206074Y0222258D02*
X0202338Y0222258D01*
X0199997Y0225060D02*
X0199997Y0219456D01*
X0196261Y0219456D01*
X0187843Y0219456D02*
X0187843Y0225060D01*
X0185040Y0225060D01*
X0184106Y0224126D01*
X0184106Y0223192D01*
X0185040Y0222258D01*
X0187843Y0222258D01*
X0187843Y0219456D02*
X0185040Y0219456D01*
X0184106Y0220390D01*
X0184106Y0221324D01*
X0185040Y0222258D01*
X0181766Y0224126D02*
X0181766Y0220390D01*
X0180831Y0219456D01*
X0178963Y0219456D01*
X0178029Y0220390D01*
X0178029Y0224126D01*
X0178963Y0225060D01*
X0180831Y0225060D01*
X0181766Y0224126D01*
X0175688Y0223192D02*
X0173820Y0225060D01*
X0171952Y0223192D01*
X0171952Y0219456D01*
X0169611Y0219456D02*
X0169611Y0225060D01*
X0166809Y0225060D01*
X0165875Y0224126D01*
X0165875Y0222258D01*
X0166809Y0221324D01*
X0169611Y0221324D01*
X0167743Y0221324D02*
X0165875Y0219456D01*
X0163534Y0219456D02*
X0160732Y0219456D01*
X0159797Y0220390D01*
X0159797Y0224126D01*
X0160732Y0225060D01*
X0163534Y0225060D01*
X0163534Y0219456D01*
X0171952Y0222258D02*
X0175688Y0222258D01*
X0175688Y0223192D02*
X0175688Y0219456D01*
X0207166Y0210490D02*
X0207166Y0209556D01*
X0208100Y0209556D01*
X0208100Y0210490D01*
X0207166Y0210490D01*
X0210441Y0210490D02*
X0211375Y0209556D01*
X0213243Y0209556D01*
X0214177Y0210490D01*
X0210441Y0214226D01*
X0210441Y0210490D01*
X0214177Y0210490D02*
X0214177Y0214226D01*
X0213243Y0215160D01*
X0211375Y0215160D01*
X0210441Y0214226D01*
X0210283Y0219456D02*
X0208415Y0221324D01*
X0208415Y0225060D01*
X0212151Y0225060D02*
X0212151Y0221324D01*
X0210283Y0219456D01*
X0214492Y0219456D02*
X0218229Y0219456D01*
X0218229Y0225060D01*
X0214492Y0225060D01*
X0216360Y0222258D02*
X0218229Y0222258D01*
X0220491Y0215160D02*
X0219556Y0214226D01*
X0223293Y0210490D01*
X0222359Y0209556D01*
X0220491Y0209556D01*
X0219556Y0210490D01*
X0219556Y0214226D01*
X0220491Y0215160D02*
X0222359Y0215160D01*
X0223293Y0214226D01*
X0223293Y0210490D01*
X0225634Y0213292D02*
X0227502Y0209556D01*
X0229370Y0213292D01*
X0229449Y0219456D02*
X0230383Y0220390D01*
X0229449Y0219456D02*
X0227581Y0219456D01*
X0226647Y0220390D01*
X0226647Y0221324D01*
X0227581Y0222258D01*
X0229449Y0222258D01*
X0230383Y0223192D01*
X0230383Y0224126D01*
X0229449Y0225060D01*
X0227581Y0225060D01*
X0226647Y0224126D01*
X0232724Y0225060D02*
X0236460Y0225060D01*
X0236460Y0219456D01*
X0232724Y0219456D01*
X0234592Y0222258D02*
X0236460Y0222258D01*
X0238643Y0225060D02*
X0240512Y0225060D01*
X0239578Y0225060D02*
X0239578Y0219456D01*
X0240512Y0219456D02*
X0238643Y0219456D01*
X0242852Y0219456D02*
X0244721Y0221324D01*
X0243786Y0221324D02*
X0246589Y0221324D01*
X0246589Y0219456D02*
X0246589Y0225060D01*
X0243786Y0225060D01*
X0242852Y0224126D01*
X0242852Y0222258D01*
X0243786Y0221324D01*
X0248930Y0219456D02*
X0252666Y0219456D01*
X0252666Y0225060D01*
X0248930Y0225060D01*
X0250798Y0222258D02*
X0252666Y0222258D01*
X0255007Y0221324D02*
X0255007Y0220390D01*
X0255941Y0219456D01*
X0257809Y0219456D01*
X0258743Y0220390D01*
X0257809Y0222258D02*
X0255941Y0222258D01*
X0255007Y0221324D01*
X0255007Y0224126D02*
X0255941Y0225060D01*
X0257809Y0225060D01*
X0258743Y0224126D01*
X0258743Y0223192D01*
X0257809Y0222258D01*
X0267161Y0225060D02*
X0270898Y0225060D01*
X0270898Y0219456D01*
X0267161Y0219456D01*
X0269029Y0222258D02*
X0270898Y0222258D01*
X0217216Y0210490D02*
X0216282Y0210490D01*
X0216282Y0209556D01*
X0217216Y0209556D01*
X0217216Y0210490D01*
D11*
X0043425Y0121307D02*
X0043425Y0118505D01*
X0044826Y0119906D02*
X0042024Y0119906D01*
X0062322Y0157087D02*
X0062322Y0159890D01*
X0063724Y0158488D02*
X0060921Y0158488D01*
X0172512Y0093526D02*
X0172512Y0089195D01*
X0172512Y0093526D02*
X0199283Y0117424D01*
X0228417Y0117424D01*
X0255189Y0093526D01*
X0255189Y0089195D01*
X0255189Y0062424D02*
X0255189Y0051006D01*
X0255189Y0051007D02*
X0255183Y0050719D01*
X0255170Y0050432D01*
X0255150Y0050145D01*
X0255123Y0049859D01*
X0255089Y0049573D01*
X0255049Y0049288D01*
X0255001Y0049005D01*
X0254946Y0048722D01*
X0254885Y0048442D01*
X0254817Y0048162D01*
X0254741Y0047885D01*
X0254660Y0047609D01*
X0254571Y0047335D01*
X0254476Y0047064D01*
X0254374Y0046795D01*
X0254266Y0046529D01*
X0254151Y0046265D01*
X0254030Y0046004D01*
X0253902Y0045746D01*
X0253768Y0045492D01*
X0253628Y0045241D01*
X0253482Y0044993D01*
X0253330Y0044749D01*
X0253172Y0044508D01*
X0253009Y0044272D01*
X0252839Y0044040D01*
X0252664Y0043812D01*
X0252483Y0043588D01*
X0252297Y0043368D01*
X0252106Y0043154D01*
X0251909Y0042944D01*
X0251708Y0042739D01*
X0251501Y0042539D01*
X0251290Y0042343D01*
X0251074Y0042154D01*
X0250853Y0041969D01*
X0250628Y0041790D01*
X0250399Y0041617D01*
X0250166Y0041449D01*
X0249928Y0041287D01*
X0249687Y0041130D01*
X0249442Y0040980D01*
X0249193Y0040836D01*
X0248941Y0040697D01*
X0248685Y0040565D01*
X0248426Y0040440D01*
X0248165Y0040320D01*
X0247900Y0040207D01*
X0247633Y0040101D01*
X0247364Y0040001D01*
X0247092Y0039907D01*
X0246817Y0039821D01*
X0246541Y0039741D01*
X0246263Y0039668D01*
X0245983Y0039601D01*
X0245702Y0039542D01*
X0245419Y0039489D01*
X0245135Y0039443D01*
X0244850Y0039404D01*
X0244565Y0039372D01*
X0244278Y0039348D01*
X0243991Y0039330D01*
X0243704Y0039319D01*
X0243416Y0039315D01*
X0243128Y0039318D01*
X0242841Y0039328D01*
X0242554Y0039346D01*
X0242267Y0039370D01*
X0241982Y0039401D01*
X0241697Y0039439D01*
X0241413Y0039484D01*
X0241130Y0039536D01*
X0240848Y0039595D01*
X0240568Y0039661D01*
X0240290Y0039733D01*
X0240013Y0039813D01*
X0239739Y0039899D01*
X0239467Y0039991D01*
X0239197Y0040091D01*
X0238930Y0040196D01*
X0238665Y0040309D01*
X0238403Y0040428D01*
X0238144Y0040553D01*
X0237888Y0040684D01*
X0237636Y0040822D01*
X0237387Y0040966D01*
X0237141Y0041115D01*
X0236899Y0041271D01*
X0236661Y0041433D01*
X0236428Y0041600D01*
X0236198Y0041773D01*
X0235972Y0041951D01*
X0235751Y0042135D01*
X0235535Y0042325D01*
X0235323Y0042519D01*
X0235116Y0042719D01*
X0234914Y0042924D01*
X0234717Y0043133D01*
X0234716Y0043132D02*
X0233982Y0043633D01*
X0233235Y0044116D01*
X0232478Y0044580D01*
X0231709Y0045026D01*
X0230929Y0045453D01*
X0230139Y0045860D01*
X0229339Y0046249D01*
X0228531Y0046617D01*
X0227713Y0046966D01*
X0226887Y0047295D01*
X0226053Y0047603D01*
X0225212Y0047891D01*
X0224365Y0048158D01*
X0223511Y0048405D01*
X0222651Y0048630D01*
X0221786Y0048835D01*
X0220916Y0049018D01*
X0220042Y0049180D01*
X0219164Y0049321D01*
X0218283Y0049440D01*
X0217400Y0049537D01*
X0216514Y0049613D01*
X0215627Y0049668D01*
X0214739Y0049700D01*
X0213850Y0049711D01*
X0212961Y0049700D01*
X0212073Y0049668D01*
X0211186Y0049613D01*
X0210300Y0049537D01*
X0209417Y0049440D01*
X0208536Y0049321D01*
X0207658Y0049180D01*
X0206784Y0049018D01*
X0205914Y0048835D01*
X0205049Y0048630D01*
X0204189Y0048405D01*
X0203335Y0048158D01*
X0202488Y0047891D01*
X0201647Y0047603D01*
X0200813Y0047295D01*
X0199987Y0046966D01*
X0199169Y0046617D01*
X0198361Y0046249D01*
X0197561Y0045860D01*
X0196771Y0045453D01*
X0195991Y0045026D01*
X0195222Y0044580D01*
X0194465Y0044116D01*
X0193718Y0043633D01*
X0192984Y0043132D01*
X0192794Y0042920D01*
X0192599Y0042713D01*
X0192398Y0042511D01*
X0192193Y0042313D01*
X0191983Y0042121D01*
X0191769Y0041934D01*
X0191550Y0041752D01*
X0191326Y0041575D01*
X0191098Y0041404D01*
X0190867Y0041239D01*
X0190631Y0041079D01*
X0190391Y0040925D01*
X0190148Y0040777D01*
X0189901Y0040635D01*
X0189651Y0040499D01*
X0189398Y0040369D01*
X0189141Y0040245D01*
X0188882Y0040128D01*
X0188619Y0040017D01*
X0188355Y0039912D01*
X0188087Y0039814D01*
X0187818Y0039723D01*
X0187546Y0039638D01*
X0187272Y0039559D01*
X0186996Y0039488D01*
X0186719Y0039423D01*
X0186440Y0039365D01*
X0186160Y0039313D01*
X0185879Y0039269D01*
X0185597Y0039231D01*
X0185314Y0039201D01*
X0185030Y0039177D01*
X0184746Y0039160D01*
X0184461Y0039150D01*
X0184176Y0039147D01*
X0183891Y0039151D01*
X0183607Y0039162D01*
X0183323Y0039180D01*
X0183039Y0039204D01*
X0182756Y0039236D01*
X0182474Y0039274D01*
X0182193Y0039320D01*
X0181913Y0039372D01*
X0181634Y0039431D01*
X0181357Y0039497D01*
X0181082Y0039569D01*
X0180808Y0039649D01*
X0180537Y0039734D01*
X0180267Y0039827D01*
X0180000Y0039926D01*
X0179736Y0040031D01*
X0179474Y0040143D01*
X0179215Y0040261D01*
X0178959Y0040386D01*
X0178706Y0040517D01*
X0178456Y0040653D01*
X0178210Y0040796D01*
X0177967Y0040945D01*
X0177728Y0041100D01*
X0177493Y0041260D01*
X0177261Y0041427D01*
X0177034Y0041598D01*
X0176811Y0041776D01*
X0176593Y0041958D01*
X0176379Y0042146D01*
X0176169Y0042339D01*
X0175965Y0042537D01*
X0175765Y0042740D01*
X0175571Y0042948D01*
X0175381Y0043161D01*
X0175197Y0043378D01*
X0175018Y0043599D01*
X0174844Y0043825D01*
X0174676Y0044055D01*
X0174514Y0044289D01*
X0174357Y0044527D01*
X0174207Y0044768D01*
X0174062Y0045013D01*
X0173923Y0045262D01*
X0173790Y0045514D01*
X0173664Y0045769D01*
X0173544Y0046027D01*
X0173430Y0046288D01*
X0173322Y0046552D01*
X0173221Y0046818D01*
X0173126Y0047087D01*
X0173038Y0047358D01*
X0172957Y0047631D01*
X0172882Y0047905D01*
X0172814Y0048182D01*
X0172753Y0048460D01*
X0172699Y0048740D01*
X0172651Y0049020D01*
X0172611Y0049302D01*
X0172577Y0049585D01*
X0172550Y0049868D01*
X0172530Y0050152D01*
X0172517Y0050437D01*
X0172511Y0050722D01*
X0172511Y0051006D01*
X0172512Y0051006D02*
X0172512Y0062424D01*
X0370543Y0222266D02*
X0370543Y0254550D01*
X0379205Y0254550D02*
X0379205Y0222266D01*
X0387079Y0222266D02*
X0387079Y0238802D01*
X0387079Y0254550D01*
X0388916Y0247516D02*
X0388916Y0244713D01*
X0388916Y0246115D02*
X0393119Y0246115D01*
X0391718Y0244713D01*
X0391718Y0242912D02*
X0388916Y0242912D01*
X0391018Y0242912D02*
X0391018Y0240109D01*
X0391718Y0240109D02*
X0393119Y0241511D01*
X0391718Y0242912D01*
X0391718Y0240109D02*
X0388916Y0240109D01*
X0387079Y0238802D02*
X0403614Y0238802D01*
X0403614Y0222266D01*
X0400993Y0229873D02*
X0396790Y0229873D01*
X0396790Y0231975D01*
X0397490Y0232676D01*
X0400293Y0232676D01*
X0400993Y0231975D01*
X0400993Y0229873D01*
X0399592Y0234477D02*
X0400993Y0235878D01*
X0396790Y0235878D01*
X0396790Y0234477D02*
X0396790Y0237280D01*
X0396790Y0240109D02*
X0399592Y0240109D01*
X0400993Y0241511D01*
X0399592Y0242912D01*
X0396790Y0242912D01*
X0397490Y0244713D02*
X0396790Y0245414D01*
X0396790Y0246815D01*
X0397490Y0247516D01*
X0400293Y0247516D01*
X0397490Y0244713D01*
X0400293Y0244713D01*
X0400993Y0245414D01*
X0400993Y0246815D01*
X0400293Y0247516D01*
X0398892Y0242912D02*
X0398892Y0240109D01*
X0403614Y0238802D02*
X0403614Y0254550D01*
X0385245Y0245907D02*
X0385245Y0244506D01*
X0384545Y0243805D01*
X0385245Y0242004D02*
X0382443Y0242004D01*
X0381042Y0240603D01*
X0382443Y0239202D01*
X0385245Y0239202D01*
X0384545Y0237400D02*
X0383844Y0237400D01*
X0383144Y0236699D01*
X0382443Y0237400D01*
X0381742Y0237400D01*
X0381042Y0236699D01*
X0381042Y0235298D01*
X0381742Y0234598D01*
X0383144Y0235999D02*
X0383144Y0236699D01*
X0384545Y0237400D02*
X0385245Y0236699D01*
X0385245Y0235298D01*
X0384545Y0234598D01*
X0383144Y0232796D02*
X0383144Y0229994D01*
X0384545Y0231395D02*
X0381742Y0231395D01*
X0377371Y0232996D02*
X0376671Y0232296D01*
X0373868Y0232296D01*
X0373168Y0232996D01*
X0373168Y0234397D01*
X0373868Y0235098D01*
X0375270Y0235098D01*
X0375270Y0233697D01*
X0376671Y0235098D02*
X0377371Y0234397D01*
X0377371Y0232996D01*
X0377371Y0236900D02*
X0373168Y0236900D01*
X0373168Y0239702D02*
X0377371Y0239702D01*
X0377371Y0241504D02*
X0377371Y0243605D01*
X0376671Y0244306D01*
X0373868Y0244306D01*
X0373168Y0243605D01*
X0373168Y0241504D01*
X0377371Y0241504D01*
X0373168Y0239702D02*
X0377371Y0236900D01*
X0381742Y0243805D02*
X0381042Y0244506D01*
X0381042Y0245907D01*
X0381742Y0246608D01*
X0382443Y0246608D01*
X0383144Y0245907D01*
X0383144Y0245207D01*
X0383144Y0245907D02*
X0383844Y0246608D01*
X0384545Y0246608D01*
X0385245Y0245907D01*
X0389616Y0237280D02*
X0388916Y0236579D01*
X0388916Y0235178D01*
X0389616Y0234477D01*
X0392419Y0237280D01*
X0389616Y0237280D01*
X0392419Y0237280D02*
X0393119Y0236579D01*
X0393119Y0235178D01*
X0392419Y0234477D01*
X0389616Y0234477D01*
X0389616Y0232676D02*
X0392419Y0232676D01*
X0393119Y0231975D01*
X0393119Y0229873D01*
X0388916Y0229873D01*
X0388916Y0231975D01*
X0389616Y0232676D01*
M02*
