G75*
%MOIN*%
%OFA0B0*%
%FSLAX25Y25*%
%IPPOS*%
%LPD*%
%AMOC8*
5,1,8,0,0,1.08239X$1,22.5*
%
%ADD10C,0.07874*%
%ADD11OC8,0.07400*%
%ADD12C,0.07400*%
%ADD13R,0.06000X0.06000*%
%ADD14C,0.06000*%
%ADD15C,0.07500*%
%ADD16C,0.10500*%
%ADD17R,0.23898X0.23898*%
%ADD18C,0.04762*%
%ADD19C,0.04369*%
%ADD20C,0.02781*%
%ADD21C,0.01575*%
%ADD22C,0.06299*%
%ADD23C,0.02400*%
%ADD24C,0.03937*%
%ADD25C,0.01181*%
%ADD26C,0.00787*%
%ADD27C,0.01200*%
%ADD28C,0.00800*%
%ADD29C,0.23622*%
%ADD30C,0.07087*%
D10*
X0043583Y0077748D02*
X0051457Y0077748D01*
X0059331Y0093496D02*
X0059331Y0101370D01*
X0034528Y0101370D02*
X0034528Y0093496D01*
D11*
X0088850Y0254274D03*
X0098850Y0254274D03*
X0098850Y0264274D03*
X0088850Y0264274D03*
X0108850Y0264274D03*
X0118850Y0264274D03*
X0118850Y0254274D03*
X0108850Y0254274D03*
X0128850Y0254274D03*
X0138850Y0254274D03*
X0138850Y0264274D03*
X0128850Y0264274D03*
X0148850Y0264274D03*
X0158850Y0264274D03*
X0168850Y0264274D03*
X0168850Y0254274D03*
X0158850Y0254274D03*
X0148850Y0254274D03*
X0178850Y0254274D03*
X0188850Y0254274D03*
X0188850Y0264274D03*
X0178850Y0264274D03*
X0198850Y0264274D03*
X0208850Y0264274D03*
X0218850Y0264274D03*
X0218850Y0254274D03*
X0208850Y0254274D03*
X0198850Y0254274D03*
X0228850Y0254274D03*
X0238850Y0254274D03*
X0238850Y0264274D03*
X0228850Y0264274D03*
X0248850Y0264274D03*
X0258850Y0264274D03*
X0258850Y0254274D03*
X0248850Y0254274D03*
X0268850Y0254274D03*
X0278850Y0254274D03*
X0288850Y0254274D03*
X0288850Y0264274D03*
X0278850Y0264274D03*
X0268850Y0264274D03*
X0298850Y0264274D03*
X0308850Y0264274D03*
X0308850Y0254274D03*
X0298850Y0254274D03*
X0318850Y0254274D03*
X0328850Y0254274D03*
X0338850Y0254274D03*
X0338850Y0264274D03*
X0328850Y0264274D03*
X0318850Y0264274D03*
D12*
X0392984Y0184865D03*
X0402984Y0184865D03*
X0402984Y0174865D03*
X0392984Y0174865D03*
X0392984Y0164865D03*
X0402984Y0164865D03*
X0402984Y0154865D03*
X0392984Y0154865D03*
X0392984Y0144865D03*
X0402984Y0144865D03*
X0402984Y0134865D03*
X0392984Y0134865D03*
X0392984Y0124865D03*
X0402984Y0124865D03*
X0402984Y0114865D03*
X0392984Y0114865D03*
X0392984Y0104865D03*
X0402984Y0104865D03*
X0402984Y0094865D03*
X0392984Y0094865D03*
X0060638Y0141696D03*
X0060638Y0151696D03*
X0036154Y0120035D03*
X0026154Y0120035D03*
D13*
X0398890Y0225809D03*
X0398890Y0251400D03*
D14*
X0391016Y0251400D03*
X0383142Y0251400D03*
X0375268Y0251400D03*
X0375268Y0225809D03*
X0383142Y0225809D03*
X0391016Y0225809D03*
D15*
X0361094Y0063998D03*
D16*
X0351056Y0053959D03*
X0371133Y0053959D03*
X0371133Y0074037D03*
X0351056Y0074037D03*
D17*
X0263063Y0075809D03*
X0213850Y0075809D03*
X0164638Y0075809D03*
D18*
X0038672Y0190672D02*
X0033910Y0190672D01*
X0033910Y0209766D02*
X0038672Y0209766D01*
X0038672Y0233979D02*
X0033910Y0233979D01*
X0033910Y0253073D02*
X0038672Y0253073D01*
D19*
X0028043Y0257798D02*
X0023674Y0257798D01*
X0023674Y0229254D02*
X0028043Y0229254D01*
X0028043Y0214491D02*
X0023674Y0214491D01*
X0023674Y0185947D02*
X0028043Y0185947D01*
D20*
X0028811Y0041164D03*
X0022512Y0044313D03*
X0019362Y0050613D03*
X0022512Y0056912D03*
X0028811Y0060061D03*
X0035110Y0056912D03*
X0038260Y0050613D03*
X0035110Y0044313D03*
X0044559Y0042739D03*
X0052433Y0042739D03*
X0061094Y0043132D03*
X0069756Y0043132D03*
X0069756Y0052187D03*
X0061094Y0052187D03*
X0079992Y0042739D03*
X0087866Y0043132D03*
X0096134Y0043132D03*
X0103614Y0042739D03*
X0096134Y0051794D03*
X0087866Y0051794D03*
X0083929Y0074235D03*
X0076055Y0074235D03*
X0076055Y0082109D03*
X0083929Y0082109D03*
X0076055Y0089983D03*
X0099677Y0109668D03*
X0091803Y0113605D03*
X0089441Y0119117D03*
X0092984Y0130534D03*
X0092984Y0133683D03*
X0092984Y0136833D03*
X0092984Y0139983D03*
X0092984Y0143132D03*
X0092984Y0146282D03*
X0085504Y0152975D03*
X0085504Y0156912D03*
X0073693Y0143526D03*
X0069756Y0139589D03*
X0068181Y0133290D03*
X0072906Y0133290D03*
X0068181Y0125416D03*
X0060307Y0118329D03*
X0062669Y0115967D03*
X0065031Y0113605D03*
X0073693Y0115180D03*
X0057945Y0120691D03*
X0055583Y0123054D03*
X0053220Y0125416D03*
X0044559Y0124628D03*
X0053220Y0115967D03*
X0020937Y0113605D03*
X0020937Y0105731D03*
X0020937Y0097857D03*
X0020937Y0089983D03*
X0020937Y0082109D03*
X0020937Y0074235D03*
X0020937Y0066361D03*
X0103614Y0101794D03*
X0111488Y0097857D03*
X0118575Y0093920D03*
X0123299Y0089983D03*
X0131173Y0089983D03*
X0135898Y0093920D03*
X0135898Y0086046D03*
X0136685Y0070298D03*
X0131173Y0070298D03*
X0127236Y0070298D03*
X0123299Y0070298D03*
X0119362Y0070298D03*
X0122118Y0056518D03*
X0117787Y0054156D03*
X0126843Y0054156D03*
X0131567Y0056518D03*
X0135898Y0054550D03*
X0154795Y0058487D03*
X0165031Y0058487D03*
X0174480Y0058487D03*
X0194165Y0058487D03*
X0194165Y0042739D03*
X0186291Y0042739D03*
X0178417Y0042739D03*
X0170543Y0042739D03*
X0162669Y0042739D03*
X0154795Y0042739D03*
X0202039Y0042739D03*
X0209913Y0042739D03*
X0217787Y0042739D03*
X0225661Y0042739D03*
X0233535Y0042739D03*
X0241409Y0042739D03*
X0249283Y0042739D03*
X0257157Y0042739D03*
X0265031Y0042739D03*
X0272906Y0042739D03*
X0292197Y0054550D03*
X0296528Y0042739D03*
X0304402Y0042739D03*
X0312276Y0042739D03*
X0320150Y0042739D03*
X0328024Y0042739D03*
X0335898Y0042739D03*
X0343772Y0042739D03*
X0351646Y0042739D03*
X0359520Y0042739D03*
X0367394Y0042739D03*
X0375268Y0042739D03*
X0383142Y0042739D03*
X0392591Y0044313D03*
X0398890Y0041164D03*
X0405189Y0044313D03*
X0408339Y0050613D03*
X0405189Y0056912D03*
X0398890Y0060061D03*
X0392591Y0056912D03*
X0389441Y0050613D03*
X0406764Y0066361D03*
X0406764Y0074235D03*
X0406764Y0082109D03*
X0406764Y0089983D03*
X0406764Y0097857D03*
X0406764Y0105731D03*
X0383811Y0112109D03*
X0383772Y0124156D03*
X0383811Y0134943D03*
X0381449Y0141991D03*
X0378142Y0146046D03*
X0387748Y0149156D03*
X0383890Y0160967D03*
X0362472Y0149865D03*
X0348496Y0149825D03*
X0348299Y0155613D03*
X0347669Y0164156D03*
X0354165Y0176794D03*
X0340780Y0186164D03*
X0334598Y0178841D03*
X0328181Y0163998D03*
X0326646Y0153880D03*
X0326488Y0142817D03*
X0326567Y0131164D03*
X0325661Y0118526D03*
X0325661Y0114628D03*
X0325543Y0110888D03*
X0326646Y0106597D03*
X0334874Y0101203D03*
X0326724Y0087581D03*
X0325386Y0080376D03*
X0318732Y0080337D03*
X0331961Y0078172D03*
X0312591Y0058920D03*
X0330976Y0058447D03*
X0292197Y0070298D03*
X0292197Y0078172D03*
X0292197Y0086046D03*
X0278417Y0093920D03*
X0272906Y0097857D03*
X0263457Y0097857D03*
X0253220Y0097857D03*
X0233535Y0097857D03*
X0213850Y0097857D03*
X0213850Y0107306D03*
X0213850Y0117542D03*
X0194165Y0117542D03*
X0174480Y0117542D03*
X0154795Y0117542D03*
X0154795Y0097857D03*
X0165031Y0097857D03*
X0174480Y0097857D03*
X0194165Y0097857D03*
X0194165Y0078172D03*
X0213850Y0058487D03*
X0233535Y0058487D03*
X0253220Y0058487D03*
X0264244Y0058487D03*
X0272906Y0058487D03*
X0233535Y0078172D03*
X0233535Y0117542D03*
X0253220Y0117542D03*
X0272906Y0117542D03*
X0272906Y0137227D03*
X0253220Y0137227D03*
X0233535Y0137227D03*
X0213850Y0137227D03*
X0194165Y0137227D03*
X0174480Y0137227D03*
X0154795Y0137227D03*
X0136685Y0133290D03*
X0134323Y0140376D03*
X0128811Y0140376D03*
X0134323Y0149825D03*
X0136685Y0156912D03*
X0131173Y0156912D03*
X0127236Y0160849D03*
X0123299Y0164786D03*
X0119362Y0168723D03*
X0127236Y0168723D03*
X0131173Y0164786D03*
X0136685Y0180534D03*
X0126449Y0189983D03*
X0119362Y0189983D03*
X0119362Y0193704D03*
X0119362Y0197285D03*
X0119362Y0201006D03*
X0122512Y0204156D03*
X0104441Y0179668D03*
X0072118Y0180534D03*
X0072236Y0185928D03*
X0072315Y0191164D03*
X0064126Y0191361D03*
X0064244Y0186282D03*
X0064244Y0180534D03*
X0068181Y0175809D03*
X0068181Y0168723D03*
X0104402Y0146676D03*
X0104402Y0143526D03*
X0104402Y0140376D03*
X0104402Y0137227D03*
X0104402Y0134077D03*
X0104402Y0130928D03*
X0112276Y0148250D03*
X0117787Y0148250D03*
X0154795Y0156912D03*
X0174480Y0156912D03*
X0194165Y0156912D03*
X0213850Y0156912D03*
X0229598Y0168723D03*
X0237472Y0176597D03*
X0253220Y0176597D03*
X0272906Y0176597D03*
X0253220Y0158093D03*
X0246921Y0158093D03*
X0243200Y0158093D03*
X0239619Y0158093D03*
X0235898Y0158093D03*
X0213850Y0176597D03*
X0209913Y0188408D03*
X0217787Y0196282D03*
X0233535Y0196282D03*
X0253220Y0196282D03*
X0272906Y0200219D03*
X0257945Y0216754D03*
X0253220Y0214392D03*
X0248496Y0216754D03*
X0204402Y0217542D03*
X0200465Y0217542D03*
X0198102Y0214392D03*
X0194165Y0200219D03*
X0194165Y0188408D03*
X0194165Y0176597D03*
X0174480Y0176597D03*
X0174480Y0188408D03*
X0174480Y0200219D03*
X0154795Y0200219D03*
X0154795Y0176597D03*
X0079992Y0227778D03*
X0076055Y0235652D03*
X0083929Y0235652D03*
X0091803Y0239589D03*
X0096528Y0238014D03*
X0063693Y0222778D03*
X0058732Y0215967D03*
X0055583Y0215967D03*
X0055583Y0212424D03*
X0058732Y0212424D03*
X0058732Y0208880D03*
X0055583Y0208880D03*
X0063890Y0207935D03*
X0072118Y0208093D03*
X0053181Y0235849D03*
X0061882Y0245101D03*
X0060307Y0267148D03*
X0044559Y0267148D03*
X0035110Y0272660D03*
X0028811Y0269510D03*
X0022512Y0272660D03*
X0019362Y0278959D03*
X0022512Y0285258D03*
X0028811Y0288408D03*
X0035110Y0285258D03*
X0038260Y0278959D03*
X0044559Y0286833D03*
X0052433Y0286833D03*
X0060307Y0286833D03*
X0068181Y0286833D03*
X0076055Y0286833D03*
X0083929Y0286833D03*
X0091803Y0286833D03*
X0099677Y0286833D03*
X0107551Y0286833D03*
X0115425Y0286833D03*
X0123299Y0286833D03*
X0131173Y0286833D03*
X0139047Y0286833D03*
X0146921Y0286833D03*
X0154795Y0286833D03*
X0162669Y0286833D03*
X0170543Y0286833D03*
X0178417Y0286833D03*
X0186291Y0286833D03*
X0194165Y0286833D03*
X0202039Y0286833D03*
X0209913Y0286833D03*
X0217787Y0286833D03*
X0225661Y0286833D03*
X0233535Y0286833D03*
X0241409Y0286833D03*
X0249283Y0286833D03*
X0257157Y0286833D03*
X0265031Y0286833D03*
X0272906Y0286833D03*
X0280780Y0286833D03*
X0288654Y0286833D03*
X0296528Y0286833D03*
X0304402Y0286833D03*
X0312276Y0286833D03*
X0320150Y0286833D03*
X0328024Y0286833D03*
X0335898Y0286833D03*
X0343772Y0286833D03*
X0351646Y0286833D03*
X0359520Y0286833D03*
X0367394Y0286833D03*
X0375268Y0286833D03*
X0383142Y0286833D03*
X0392591Y0285258D03*
X0398890Y0288408D03*
X0405189Y0285258D03*
X0408339Y0278959D03*
X0405189Y0272660D03*
X0398890Y0269510D03*
X0392591Y0272660D03*
X0389441Y0278959D03*
X0375268Y0275022D03*
X0351646Y0259274D03*
X0351646Y0251400D03*
X0357787Y0251400D03*
X0362591Y0236321D03*
X0359244Y0233841D03*
X0354087Y0230337D03*
X0354362Y0226400D03*
X0350386Y0221046D03*
X0339756Y0212424D03*
X0354008Y0191282D03*
X0375110Y0199235D03*
X0390622Y0194865D03*
X0405937Y0194235D03*
X0406764Y0215967D03*
X0406764Y0223841D03*
X0406764Y0231715D03*
X0406764Y0239589D03*
X0406764Y0247463D03*
X0406764Y0255337D03*
X0406764Y0263211D03*
X0367394Y0235652D03*
X0374717Y0217817D03*
X0390346Y0216203D03*
X0377236Y0178369D03*
X0348496Y0140376D03*
X0366370Y0133802D03*
X0366291Y0123880D03*
X0366528Y0112306D03*
X0354008Y0112227D03*
X0352157Y0101243D03*
X0366134Y0088959D03*
X0387709Y0075298D03*
X0314520Y0118723D03*
X0312787Y0115219D03*
X0309244Y0112109D03*
X0277630Y0156912D03*
X0272906Y0156912D03*
X0161882Y0241164D03*
X0164244Y0247463D03*
X0148496Y0247463D03*
X0148496Y0238802D03*
X0139441Y0239589D03*
X0192591Y0272660D03*
X0204402Y0271479D03*
X0076055Y0267148D03*
X0020937Y0149038D03*
X0020937Y0141164D03*
D21*
X0018772Y0141067D02*
X0030217Y0141067D01*
X0030217Y0139494D02*
X0018772Y0139494D01*
X0018772Y0137920D02*
X0030217Y0137920D01*
X0030217Y0136347D02*
X0018772Y0136347D01*
X0018772Y0134774D02*
X0030217Y0134774D01*
X0030217Y0133200D02*
X0018772Y0133200D01*
X0018772Y0131627D02*
X0030217Y0131627D01*
X0030217Y0130054D02*
X0018772Y0130054D01*
X0018772Y0128480D02*
X0030217Y0128480D01*
X0030217Y0126907D02*
X0018772Y0126907D01*
X0018772Y0125334D02*
X0030217Y0125334D01*
X0029599Y0124068D02*
X0028926Y0124557D01*
X0028184Y0124935D01*
X0027392Y0125192D01*
X0026570Y0125322D01*
X0026367Y0125322D01*
X0026367Y0120247D01*
X0025942Y0120247D01*
X0025942Y0119822D01*
X0026367Y0119822D01*
X0026367Y0114747D01*
X0026570Y0114747D01*
X0027392Y0114877D01*
X0028184Y0115135D01*
X0028926Y0115512D01*
X0029599Y0116002D01*
X0030187Y0116590D01*
X0030424Y0116916D01*
X0030655Y0116360D01*
X0032480Y0114535D01*
X0034864Y0113547D01*
X0037445Y0113547D01*
X0039829Y0114535D01*
X0041654Y0116360D01*
X0042642Y0118744D01*
X0042642Y0121325D01*
X0042091Y0122654D01*
X0042091Y0168686D01*
X0051324Y0177919D01*
X0052228Y0180101D01*
X0052228Y0237287D01*
X0062766Y0247825D01*
X0067356Y0247825D01*
X0054474Y0234943D01*
X0053142Y0233611D01*
X0052420Y0231870D01*
X0052420Y0172260D01*
X0046206Y0166046D01*
X0044874Y0164713D01*
X0044153Y0162972D01*
X0044153Y0128804D01*
X0044874Y0127063D01*
X0046206Y0125731D01*
X0050537Y0121400D01*
X0050537Y0121400D01*
X0062348Y0109589D01*
X0064089Y0108868D01*
X0065974Y0108868D01*
X0067715Y0109589D01*
X0069047Y0110921D01*
X0069768Y0112662D01*
X0069768Y0114547D01*
X0069047Y0116288D01*
X0058115Y0127220D01*
X0059620Y0126597D01*
X0061656Y0126597D01*
X0063051Y0127175D01*
X0085145Y0127175D01*
X0088429Y0123892D01*
X0089704Y0122616D01*
X0130893Y0122616D01*
X0138444Y0115065D01*
X0138444Y0090097D01*
X0137103Y0088756D01*
X0136487Y0089011D01*
X0135308Y0089011D01*
X0134218Y0088560D01*
X0133384Y0087725D01*
X0132932Y0086636D01*
X0132932Y0085456D01*
X0133384Y0084366D01*
X0134218Y0083532D01*
X0135308Y0083080D01*
X0136487Y0083080D01*
X0137577Y0083532D01*
X0137913Y0083868D01*
X0138375Y0083868D01*
X0139650Y0085144D01*
X0142800Y0088293D01*
X0142800Y0088383D01*
X0151114Y0080069D01*
X0151114Y0063208D01*
X0152037Y0062286D01*
X0177239Y0062286D01*
X0178161Y0063208D01*
X0178161Y0088411D01*
X0177239Y0089333D01*
X0152037Y0089333D01*
X0151114Y0088411D01*
X0151114Y0086786D01*
X0145359Y0092541D01*
X0145359Y0118525D01*
X0120162Y0143722D01*
X0120162Y0146432D01*
X0120301Y0146571D01*
X0120753Y0147661D01*
X0120753Y0148840D01*
X0120301Y0149930D01*
X0119467Y0150764D01*
X0118377Y0151216D01*
X0118181Y0151216D01*
X0117438Y0151958D01*
X0117438Y0191417D01*
X0117675Y0191179D01*
X0118770Y0190726D01*
X0119955Y0190726D01*
X0121049Y0191179D01*
X0121887Y0192017D01*
X0122173Y0192707D01*
X0209152Y0192707D01*
X0238622Y0163238D01*
X0238622Y0160903D01*
X0237932Y0160617D01*
X0237094Y0159780D01*
X0236641Y0158685D01*
X0236641Y0157501D01*
X0237094Y0156406D01*
X0237932Y0155568D01*
X0239027Y0155115D01*
X0240211Y0155115D01*
X0241306Y0155568D01*
X0241409Y0155672D01*
X0241513Y0155568D01*
X0242608Y0155115D01*
X0243792Y0155115D01*
X0244887Y0155568D01*
X0245725Y0156406D01*
X0246178Y0157501D01*
X0246178Y0158685D01*
X0245725Y0159780D01*
X0244887Y0160617D01*
X0244197Y0160903D01*
X0244197Y0165547D01*
X0243033Y0166711D01*
X0211462Y0198282D01*
X0209815Y0198282D01*
X0122173Y0198282D01*
X0121887Y0198972D01*
X0121049Y0199810D01*
X0119955Y0200263D01*
X0118770Y0200263D01*
X0117675Y0199810D01*
X0117438Y0199572D01*
X0117438Y0204774D01*
X0140425Y0227760D01*
X0141816Y0229151D01*
X0141816Y0237770D01*
X0141955Y0237909D01*
X0142406Y0238999D01*
X0142406Y0240179D01*
X0141955Y0241269D01*
X0141121Y0242103D01*
X0140031Y0242554D01*
X0139655Y0242554D01*
X0146383Y0249282D01*
X0146666Y0248999D01*
X0151035Y0248999D01*
X0153850Y0251814D01*
X0156666Y0248999D01*
X0161035Y0248999D01*
X0163850Y0251814D01*
X0166666Y0248999D01*
X0171035Y0248999D01*
X0173850Y0251814D01*
X0176666Y0248999D01*
X0181035Y0248999D01*
X0183850Y0251814D01*
X0186666Y0248999D01*
X0191035Y0248999D01*
X0193850Y0251814D01*
X0196666Y0248999D01*
X0201035Y0248999D01*
X0203850Y0251814D01*
X0206666Y0248999D01*
X0211035Y0248999D01*
X0213850Y0251814D01*
X0216666Y0248999D01*
X0221035Y0248999D01*
X0221515Y0249479D01*
X0221515Y0249317D01*
X0249720Y0221112D01*
X0347420Y0221112D01*
X0347420Y0220456D01*
X0347872Y0219366D01*
X0348706Y0218532D01*
X0349796Y0218080D01*
X0350976Y0218080D01*
X0352066Y0218532D01*
X0352900Y0219366D01*
X0353351Y0220456D01*
X0353351Y0221636D01*
X0352900Y0222725D01*
X0352066Y0223560D01*
X0350976Y0224011D01*
X0350894Y0224011D01*
X0350713Y0224192D01*
X0350486Y0224419D01*
X0352150Y0224419D01*
X0352682Y0223886D01*
X0353772Y0223435D01*
X0354952Y0223435D01*
X0356042Y0223886D01*
X0356876Y0224720D01*
X0357328Y0225810D01*
X0357328Y0226990D01*
X0356876Y0228080D01*
X0356450Y0228506D01*
X0356601Y0228657D01*
X0357052Y0229747D01*
X0357052Y0230927D01*
X0356601Y0232017D01*
X0355931Y0232687D01*
X0356513Y0232687D01*
X0356730Y0232161D01*
X0357564Y0231327D01*
X0358654Y0230876D01*
X0359834Y0230876D01*
X0360924Y0231327D01*
X0361758Y0232161D01*
X0362209Y0233251D01*
X0362209Y0233356D01*
X0363180Y0233356D01*
X0364270Y0233807D01*
X0365104Y0234642D01*
X0365556Y0235731D01*
X0365556Y0236911D01*
X0365104Y0238001D01*
X0364270Y0238835D01*
X0363180Y0239287D01*
X0362705Y0239287D01*
X0362682Y0239310D01*
X0362219Y0239773D01*
X0379326Y0239773D01*
X0388838Y0230262D01*
X0388838Y0229859D01*
X0388424Y0229688D01*
X0387936Y0229200D01*
X0386420Y0230716D01*
X0384293Y0231597D01*
X0381991Y0231597D01*
X0379863Y0230716D01*
X0378356Y0229209D01*
X0378256Y0229309D01*
X0377672Y0229733D01*
X0377029Y0230061D01*
X0376342Y0230284D01*
X0375629Y0230397D01*
X0375268Y0230397D01*
X0375268Y0225810D01*
X0375268Y0225810D01*
X0375268Y0230397D01*
X0374907Y0230397D01*
X0374193Y0230284D01*
X0373507Y0230061D01*
X0372863Y0229733D01*
X0372279Y0229309D01*
X0371769Y0228798D01*
X0371344Y0228214D01*
X0371016Y0227570D01*
X0370793Y0226884D01*
X0370680Y0226170D01*
X0370680Y0225809D01*
X0370680Y0225448D01*
X0370793Y0224735D01*
X0371016Y0224048D01*
X0371344Y0223405D01*
X0371769Y0222821D01*
X0372279Y0222310D01*
X0372863Y0221886D01*
X0373507Y0221558D01*
X0374193Y0221335D01*
X0374907Y0221222D01*
X0375268Y0221222D01*
X0375629Y0221222D01*
X0376342Y0221335D01*
X0377029Y0221558D01*
X0377672Y0221886D01*
X0378256Y0222310D01*
X0378356Y0222410D01*
X0379863Y0220903D01*
X0381991Y0220022D01*
X0384293Y0220022D01*
X0386420Y0220903D01*
X0387936Y0222419D01*
X0388424Y0221931D01*
X0390106Y0221235D01*
X0391926Y0221235D01*
X0393607Y0221931D01*
X0394315Y0222639D01*
X0394315Y0222157D01*
X0395237Y0221235D01*
X0402542Y0221235D01*
X0403465Y0222157D01*
X0403465Y0229462D01*
X0402542Y0230384D01*
X0400151Y0230384D01*
X0384738Y0245797D01*
X0386420Y0246494D01*
X0387936Y0248010D01*
X0388424Y0247522D01*
X0390106Y0246825D01*
X0391926Y0246825D01*
X0393607Y0247522D01*
X0394315Y0248229D01*
X0394315Y0247748D01*
X0395237Y0246825D01*
X0402542Y0246825D01*
X0403465Y0247748D01*
X0403465Y0255052D01*
X0402542Y0255975D01*
X0395237Y0255975D01*
X0394315Y0255052D01*
X0394315Y0254571D01*
X0393607Y0255278D01*
X0391926Y0255975D01*
X0390106Y0255975D01*
X0389079Y0255549D01*
X0389079Y0256232D01*
X0388175Y0258414D01*
X0361810Y0284780D01*
X0359627Y0285683D01*
X0140627Y0285683D01*
X0138445Y0284780D01*
X0136774Y0283109D01*
X0124968Y0271303D01*
X0124064Y0269121D01*
X0124064Y0268662D01*
X0123002Y0267600D01*
X0121041Y0269561D01*
X0119063Y0269561D01*
X0119063Y0264487D01*
X0118638Y0264487D01*
X0118638Y0269561D01*
X0116660Y0269561D01*
X0113850Y0266752D01*
X0111041Y0269561D01*
X0109063Y0269561D01*
X0109063Y0264487D01*
X0108638Y0264487D01*
X0108638Y0269561D01*
X0106660Y0269561D01*
X0103850Y0266752D01*
X0101041Y0269561D01*
X0099063Y0269561D01*
X0099063Y0264487D01*
X0098638Y0264487D01*
X0098638Y0269561D01*
X0096660Y0269561D01*
X0093850Y0266752D01*
X0091041Y0269561D01*
X0089063Y0269561D01*
X0089063Y0264487D01*
X0088638Y0264487D01*
X0088638Y0269561D01*
X0086660Y0269561D01*
X0083563Y0266464D01*
X0083563Y0264487D01*
X0088638Y0264487D01*
X0088638Y0264061D01*
X0083563Y0264061D01*
X0083563Y0262084D01*
X0085524Y0260123D01*
X0085101Y0259699D01*
X0059126Y0259699D01*
X0056944Y0258795D01*
X0055274Y0257125D01*
X0041258Y0243109D01*
X0040354Y0240927D01*
X0040354Y0237578D01*
X0039830Y0237795D01*
X0039063Y0237947D01*
X0036291Y0237947D01*
X0033519Y0237947D01*
X0032753Y0237795D01*
X0032030Y0237496D01*
X0031380Y0237061D01*
X0030828Y0236509D01*
X0030393Y0235859D01*
X0030094Y0235136D01*
X0029942Y0234370D01*
X0029942Y0233979D01*
X0036291Y0233979D01*
X0036291Y0233979D01*
X0036291Y0237947D01*
X0036291Y0233979D01*
X0036291Y0233979D01*
X0029942Y0233979D01*
X0029942Y0233588D01*
X0030094Y0232821D01*
X0030324Y0232266D01*
X0029829Y0232597D01*
X0029143Y0232881D01*
X0028414Y0233026D01*
X0025858Y0233026D01*
X0023303Y0233026D01*
X0022574Y0232881D01*
X0021887Y0232597D01*
X0021270Y0232184D01*
X0020744Y0231659D01*
X0020332Y0231041D01*
X0020047Y0230354D01*
X0019902Y0229626D01*
X0019902Y0229254D01*
X0019902Y0228883D01*
X0020047Y0228154D01*
X0020332Y0227468D01*
X0020744Y0226850D01*
X0021270Y0226325D01*
X0021887Y0225912D01*
X0022574Y0225628D01*
X0023303Y0225483D01*
X0025858Y0225483D01*
X0025858Y0229254D01*
X0025858Y0229254D01*
X0019902Y0229254D01*
X0025858Y0229254D01*
X0025858Y0229254D01*
X0025858Y0225483D01*
X0028414Y0225483D01*
X0029143Y0225628D01*
X0029829Y0225912D01*
X0030447Y0226325D01*
X0030972Y0226850D01*
X0031385Y0227468D01*
X0031669Y0228154D01*
X0031814Y0228883D01*
X0031814Y0229254D01*
X0025858Y0229254D01*
X0025858Y0229254D01*
X0025858Y0233026D01*
X0025858Y0229254D01*
X0025858Y0229254D01*
X0031814Y0229254D01*
X0031814Y0229626D01*
X0031669Y0230354D01*
X0031469Y0230837D01*
X0032030Y0230462D01*
X0032753Y0230163D01*
X0033519Y0230010D01*
X0036291Y0230010D01*
X0036291Y0233979D01*
X0036291Y0233979D01*
X0036291Y0230010D01*
X0039063Y0230010D01*
X0039830Y0230163D01*
X0040354Y0230380D01*
X0040354Y0213365D01*
X0039830Y0213582D01*
X0039063Y0213735D01*
X0036291Y0213735D01*
X0033519Y0213735D01*
X0032753Y0213582D01*
X0032030Y0213283D01*
X0031469Y0212908D01*
X0031669Y0213390D01*
X0031814Y0214119D01*
X0031814Y0214490D01*
X0025858Y0214490D01*
X0025858Y0214490D01*
X0025858Y0210719D01*
X0023303Y0210719D01*
X0022574Y0210864D01*
X0021887Y0211148D01*
X0021270Y0211561D01*
X0020744Y0212086D01*
X0020332Y0212704D01*
X0020047Y0213390D01*
X0019902Y0214119D01*
X0019902Y0214490D01*
X0025858Y0214490D01*
X0025858Y0214491D01*
X0025858Y0218262D01*
X0023303Y0218262D01*
X0022574Y0218117D01*
X0021887Y0217833D01*
X0021270Y0217420D01*
X0020744Y0216895D01*
X0020332Y0216277D01*
X0020047Y0215591D01*
X0019902Y0214862D01*
X0019902Y0214491D01*
X0025858Y0214491D01*
X0025858Y0214491D01*
X0025858Y0218262D01*
X0028414Y0218262D01*
X0029143Y0218117D01*
X0029829Y0217833D01*
X0030447Y0217420D01*
X0030972Y0216895D01*
X0031385Y0216277D01*
X0031669Y0215591D01*
X0031814Y0214862D01*
X0031814Y0214491D01*
X0025858Y0214491D01*
X0025858Y0214490D01*
X0025858Y0210719D01*
X0028414Y0210719D01*
X0029143Y0210864D01*
X0029829Y0211148D01*
X0030324Y0211479D01*
X0030094Y0210924D01*
X0029942Y0210157D01*
X0029942Y0209766D01*
X0029942Y0209375D01*
X0030094Y0208609D01*
X0030393Y0207886D01*
X0030828Y0207236D01*
X0031380Y0206684D01*
X0032030Y0206249D01*
X0032753Y0205950D01*
X0033519Y0205798D01*
X0036291Y0205798D01*
X0036291Y0209766D01*
X0029942Y0209766D01*
X0036291Y0209766D01*
X0036291Y0209766D01*
X0036291Y0209766D01*
X0036291Y0213735D01*
X0036291Y0209766D01*
X0036291Y0209766D01*
X0036291Y0205798D01*
X0039063Y0205798D01*
X0039830Y0205950D01*
X0040354Y0206167D01*
X0040354Y0194270D01*
X0039830Y0194488D01*
X0039063Y0194640D01*
X0036291Y0194640D01*
X0033519Y0194640D01*
X0032753Y0194488D01*
X0032030Y0194188D01*
X0031380Y0193754D01*
X0030828Y0193201D01*
X0030393Y0192551D01*
X0030094Y0191829D01*
X0029942Y0191063D01*
X0029942Y0190672D01*
X0036291Y0190672D01*
X0036291Y0194640D01*
X0036291Y0190672D01*
X0036291Y0190672D01*
X0036291Y0190672D01*
X0029942Y0190672D01*
X0029942Y0190281D01*
X0030094Y0189514D01*
X0030324Y0188959D01*
X0029829Y0189290D01*
X0029143Y0189574D01*
X0028414Y0189719D01*
X0025858Y0189719D01*
X0023303Y0189719D01*
X0022574Y0189574D01*
X0021887Y0189290D01*
X0021270Y0188877D01*
X0020744Y0188352D01*
X0020332Y0187734D01*
X0020047Y0187047D01*
X0019902Y0186319D01*
X0019902Y0185947D01*
X0019902Y0185576D01*
X0020047Y0184847D01*
X0020332Y0184161D01*
X0020744Y0183543D01*
X0021270Y0183018D01*
X0021887Y0182605D01*
X0022574Y0182321D01*
X0023303Y0182176D01*
X0025858Y0182176D01*
X0025858Y0185947D01*
X0019902Y0185947D01*
X0025858Y0185947D01*
X0025858Y0185947D01*
X0025858Y0185947D01*
X0025858Y0182176D01*
X0028414Y0182176D01*
X0029143Y0182321D01*
X0029829Y0182605D01*
X0030447Y0183018D01*
X0030972Y0183543D01*
X0031385Y0184161D01*
X0031669Y0184847D01*
X0031814Y0185576D01*
X0031814Y0185947D01*
X0025858Y0185947D01*
X0025858Y0185947D01*
X0025858Y0189719D01*
X0025858Y0185947D01*
X0025858Y0185947D01*
X0031814Y0185947D01*
X0031814Y0186319D01*
X0031669Y0187047D01*
X0031469Y0187530D01*
X0032030Y0187155D01*
X0032753Y0186856D01*
X0033519Y0186703D01*
X0036291Y0186703D01*
X0036291Y0190672D01*
X0036291Y0190672D01*
X0036291Y0186703D01*
X0039063Y0186703D01*
X0039830Y0186856D01*
X0040354Y0187073D01*
X0040354Y0183741D01*
X0031121Y0174508D01*
X0030217Y0172326D01*
X0030217Y0123438D01*
X0030187Y0123479D01*
X0029599Y0124068D01*
X0029906Y0123761D02*
X0030217Y0123761D01*
X0026367Y0123761D02*
X0025942Y0123761D01*
X0025942Y0125322D02*
X0025942Y0120247D01*
X0020867Y0120247D01*
X0020867Y0120451D01*
X0020997Y0121273D01*
X0021254Y0122064D01*
X0021632Y0122806D01*
X0022121Y0123479D01*
X0022710Y0124068D01*
X0023383Y0124557D01*
X0024125Y0124935D01*
X0024916Y0125192D01*
X0025738Y0125322D01*
X0025942Y0125322D01*
X0025942Y0122187D02*
X0026367Y0122187D01*
X0026367Y0120614D02*
X0025942Y0120614D01*
X0025942Y0119822D02*
X0020867Y0119822D01*
X0020867Y0119619D01*
X0020997Y0118797D01*
X0021254Y0118005D01*
X0021632Y0117263D01*
X0022121Y0116590D01*
X0022710Y0116002D01*
X0023383Y0115512D01*
X0024125Y0115135D01*
X0024916Y0114877D01*
X0025738Y0114747D01*
X0025942Y0114747D01*
X0025942Y0119822D01*
X0025942Y0119041D02*
X0026367Y0119041D01*
X0026367Y0117467D02*
X0025942Y0117467D01*
X0025942Y0115894D02*
X0026367Y0115894D01*
X0029451Y0115894D02*
X0031120Y0115894D01*
X0032997Y0114321D02*
X0018772Y0114321D01*
X0018772Y0115894D02*
X0022858Y0115894D01*
X0021528Y0117467D02*
X0018772Y0117467D01*
X0018772Y0119041D02*
X0020958Y0119041D01*
X0020893Y0120614D02*
X0018772Y0120614D01*
X0018772Y0122187D02*
X0021317Y0122187D01*
X0022403Y0123761D02*
X0018772Y0123761D01*
X0018772Y0112747D02*
X0059190Y0112747D01*
X0060763Y0111174D02*
X0018772Y0111174D01*
X0018772Y0109601D02*
X0062336Y0109601D01*
X0060830Y0108027D02*
X0138444Y0108027D01*
X0138444Y0106454D02*
X0063756Y0106454D01*
X0063140Y0107071D02*
X0060668Y0108094D01*
X0057993Y0108094D01*
X0055522Y0107071D01*
X0053630Y0105179D01*
X0052606Y0102708D01*
X0052606Y0092158D01*
X0053630Y0089687D01*
X0055522Y0087795D01*
X0057993Y0086772D01*
X0060668Y0086772D01*
X0063140Y0087795D01*
X0065031Y0089687D01*
X0066055Y0092158D01*
X0066055Y0102708D01*
X0065031Y0105179D01*
X0063140Y0107071D01*
X0065155Y0104881D02*
X0138444Y0104881D01*
X0138444Y0103307D02*
X0065807Y0103307D01*
X0066055Y0101734D02*
X0138444Y0101734D01*
X0138444Y0100161D02*
X0066055Y0100161D01*
X0066055Y0098588D02*
X0138444Y0098588D01*
X0138444Y0097014D02*
X0066055Y0097014D01*
X0066055Y0095441D02*
X0138444Y0095441D01*
X0138444Y0093868D02*
X0066055Y0093868D01*
X0066055Y0092294D02*
X0138444Y0092294D01*
X0138444Y0090721D02*
X0065460Y0090721D01*
X0064492Y0089148D02*
X0137494Y0089148D01*
X0140508Y0086001D02*
X0145182Y0086001D01*
X0143609Y0087574D02*
X0142081Y0087574D01*
X0142984Y0091557D02*
X0142984Y0117542D01*
X0117787Y0142739D01*
X0117787Y0148250D01*
X0115063Y0150975D01*
X0115063Y0205757D01*
X0139441Y0230135D01*
X0139441Y0239589D01*
X0141464Y0241759D02*
X0229073Y0241759D01*
X0230646Y0240186D02*
X0142403Y0240186D01*
X0142246Y0238613D02*
X0232219Y0238613D01*
X0233793Y0237039D02*
X0141816Y0237039D01*
X0141816Y0235466D02*
X0235366Y0235466D01*
X0236939Y0233893D02*
X0141816Y0233893D01*
X0141816Y0232319D02*
X0238512Y0232319D01*
X0240086Y0230746D02*
X0141816Y0230746D01*
X0141816Y0229173D02*
X0241659Y0229173D01*
X0243232Y0227599D02*
X0140264Y0227599D01*
X0138690Y0226026D02*
X0244806Y0226026D01*
X0246379Y0224453D02*
X0137117Y0224453D01*
X0135544Y0222879D02*
X0247952Y0222879D01*
X0249526Y0221306D02*
X0133970Y0221306D01*
X0132397Y0219733D02*
X0347720Y0219733D01*
X0349605Y0218159D02*
X0130824Y0218159D01*
X0129250Y0216586D02*
X0408929Y0216586D01*
X0408929Y0215013D02*
X0127677Y0215013D01*
X0126104Y0213439D02*
X0408929Y0213439D01*
X0408929Y0211866D02*
X0124530Y0211866D01*
X0122957Y0210293D02*
X0408929Y0210293D01*
X0408929Y0208720D02*
X0121384Y0208720D01*
X0121922Y0207121D02*
X0120832Y0206670D01*
X0119998Y0205836D01*
X0119546Y0204746D01*
X0119546Y0203566D01*
X0119998Y0202476D01*
X0120832Y0201642D01*
X0121922Y0201191D01*
X0123102Y0201191D01*
X0124192Y0201642D01*
X0124527Y0201978D01*
X0206636Y0201978D01*
X0206645Y0201969D01*
X0214756Y0201969D01*
X0214766Y0201978D01*
X0217037Y0201978D01*
X0251033Y0167982D01*
X0251033Y0160099D01*
X0250707Y0159773D01*
X0250255Y0158683D01*
X0250255Y0157503D01*
X0250707Y0156413D01*
X0251541Y0155579D01*
X0252631Y0155128D01*
X0253810Y0155128D01*
X0254900Y0155579D01*
X0255734Y0156413D01*
X0256186Y0157503D01*
X0256186Y0158683D01*
X0255734Y0159773D01*
X0255408Y0160099D01*
X0255408Y0169781D01*
X0254127Y0171062D01*
X0254113Y0171062D01*
X0218842Y0206334D01*
X0214766Y0206334D01*
X0214756Y0206343D01*
X0206645Y0206343D01*
X0206636Y0206334D01*
X0124527Y0206334D01*
X0124192Y0206670D01*
X0123102Y0207121D01*
X0121922Y0207121D01*
X0119810Y0207146D02*
X0408929Y0207146D01*
X0408929Y0205573D02*
X0219603Y0205573D01*
X0221176Y0204000D02*
X0408929Y0204000D01*
X0408929Y0202426D02*
X0222749Y0202426D01*
X0224323Y0200853D02*
X0408929Y0200853D01*
X0408929Y0199280D02*
X0225896Y0199280D01*
X0227469Y0197706D02*
X0408929Y0197706D01*
X0408929Y0196133D02*
X0229042Y0196133D01*
X0230616Y0194560D02*
X0408929Y0194560D01*
X0408929Y0192986D02*
X0232189Y0192986D01*
X0233762Y0191413D02*
X0408929Y0191413D01*
X0408929Y0189840D02*
X0407184Y0189840D01*
X0406659Y0190364D02*
X0404275Y0191352D01*
X0401694Y0191352D01*
X0399309Y0190364D01*
X0397984Y0189039D01*
X0396659Y0190364D01*
X0394275Y0191352D01*
X0391694Y0191352D01*
X0389309Y0190364D01*
X0387484Y0188539D01*
X0386497Y0186155D01*
X0386497Y0183574D01*
X0387484Y0181190D01*
X0389309Y0179365D01*
X0389815Y0179155D01*
X0388512Y0177852D01*
X0387709Y0175914D01*
X0387709Y0173815D01*
X0388512Y0171877D01*
X0389996Y0170393D01*
X0391272Y0169865D01*
X0389996Y0169336D01*
X0388512Y0167852D01*
X0387709Y0165914D01*
X0387709Y0163815D01*
X0388512Y0161877D01*
X0389996Y0160393D01*
X0391272Y0159865D01*
X0389996Y0159336D01*
X0388512Y0157852D01*
X0387709Y0155914D01*
X0387709Y0153815D01*
X0388426Y0152085D01*
X0388338Y0152121D01*
X0387158Y0152121D01*
X0386068Y0151670D01*
X0385234Y0150836D01*
X0384783Y0149746D01*
X0384783Y0149271D01*
X0383736Y0148224D01*
X0380157Y0148224D01*
X0379821Y0148560D01*
X0378732Y0149011D01*
X0377552Y0149011D01*
X0376462Y0148560D01*
X0375628Y0147725D01*
X0375176Y0146636D01*
X0375176Y0145456D01*
X0375628Y0144366D01*
X0376462Y0143532D01*
X0377552Y0143080D01*
X0378732Y0143080D01*
X0379821Y0143532D01*
X0380157Y0143868D01*
X0385540Y0143868D01*
X0386816Y0145144D01*
X0387797Y0146125D01*
X0387709Y0145914D01*
X0387709Y0143815D01*
X0388512Y0141877D01*
X0389996Y0140393D01*
X0391272Y0139865D01*
X0389996Y0139336D01*
X0388512Y0137852D01*
X0388210Y0137121D01*
X0385827Y0137121D01*
X0385491Y0137457D01*
X0384401Y0137909D01*
X0383221Y0137909D01*
X0382131Y0137457D01*
X0381297Y0136623D01*
X0380846Y0135533D01*
X0380846Y0134353D01*
X0381297Y0133264D01*
X0382131Y0132429D01*
X0383221Y0131978D01*
X0384401Y0131978D01*
X0385491Y0132429D01*
X0385827Y0132765D01*
X0388144Y0132765D01*
X0388512Y0131877D01*
X0389996Y0130393D01*
X0391272Y0129865D01*
X0389996Y0129336D01*
X0388512Y0127852D01*
X0387709Y0125914D01*
X0387709Y0123815D01*
X0388512Y0121877D01*
X0389996Y0120393D01*
X0391272Y0119865D01*
X0389996Y0119336D01*
X0388512Y0117852D01*
X0387709Y0115914D01*
X0387709Y0113815D01*
X0388512Y0111877D01*
X0389996Y0110393D01*
X0391272Y0109865D01*
X0389996Y0109336D01*
X0388512Y0107852D01*
X0387709Y0105914D01*
X0387709Y0103815D01*
X0388512Y0101877D01*
X0389996Y0100393D01*
X0391272Y0099865D01*
X0389996Y0099336D01*
X0388512Y0097852D01*
X0387709Y0095914D01*
X0387709Y0093815D01*
X0388512Y0091877D01*
X0389996Y0090393D01*
X0391935Y0089590D01*
X0394033Y0089590D01*
X0395972Y0090393D01*
X0397456Y0091877D01*
X0397983Y0093148D01*
X0398084Y0092835D01*
X0398462Y0092093D01*
X0398951Y0091420D01*
X0399540Y0090832D01*
X0400213Y0090342D01*
X0400955Y0089965D01*
X0401746Y0089707D01*
X0402568Y0089577D01*
X0402772Y0089577D01*
X0402772Y0094652D01*
X0403197Y0094652D01*
X0403197Y0095077D01*
X0408272Y0095077D01*
X0408272Y0095281D01*
X0408141Y0096103D01*
X0407884Y0096894D01*
X0407506Y0097636D01*
X0407017Y0098309D01*
X0406429Y0098898D01*
X0405755Y0099387D01*
X0405014Y0099765D01*
X0404706Y0099865D01*
X0405014Y0099965D01*
X0405755Y0100342D01*
X0406429Y0100832D01*
X0407017Y0101420D01*
X0407506Y0102093D01*
X0407884Y0102835D01*
X0408141Y0103626D01*
X0408272Y0104448D01*
X0408272Y0104652D01*
X0403197Y0104652D01*
X0403197Y0105077D01*
X0408272Y0105077D01*
X0408272Y0105281D01*
X0408141Y0106103D01*
X0407884Y0106894D01*
X0407506Y0107636D01*
X0407017Y0108309D01*
X0406429Y0108898D01*
X0405755Y0109387D01*
X0405014Y0109765D01*
X0404706Y0109865D01*
X0405014Y0109965D01*
X0405755Y0110342D01*
X0406429Y0110832D01*
X0407017Y0111420D01*
X0407506Y0112093D01*
X0407884Y0112835D01*
X0408141Y0113626D01*
X0408272Y0114448D01*
X0408272Y0114652D01*
X0403197Y0114652D01*
X0403197Y0115077D01*
X0408272Y0115077D01*
X0408272Y0115281D01*
X0408141Y0116103D01*
X0407884Y0116894D01*
X0407506Y0117636D01*
X0407017Y0118309D01*
X0406429Y0118898D01*
X0405755Y0119387D01*
X0405014Y0119765D01*
X0404706Y0119865D01*
X0405014Y0119965D01*
X0405755Y0120342D01*
X0406429Y0120832D01*
X0407017Y0121420D01*
X0407506Y0122093D01*
X0407884Y0122835D01*
X0408141Y0123626D01*
X0408272Y0124448D01*
X0408272Y0124652D01*
X0403197Y0124652D01*
X0403197Y0125077D01*
X0408272Y0125077D01*
X0408272Y0125281D01*
X0408141Y0126103D01*
X0407884Y0126894D01*
X0407506Y0127636D01*
X0407017Y0128309D01*
X0406429Y0128898D01*
X0405755Y0129387D01*
X0405014Y0129765D01*
X0404706Y0129865D01*
X0405014Y0129965D01*
X0405755Y0130342D01*
X0406429Y0130832D01*
X0407017Y0131420D01*
X0407506Y0132093D01*
X0407884Y0132835D01*
X0408141Y0133626D01*
X0408272Y0134448D01*
X0408272Y0134652D01*
X0403197Y0134652D01*
X0403197Y0135077D01*
X0408272Y0135077D01*
X0408272Y0135281D01*
X0408141Y0136103D01*
X0407884Y0136894D01*
X0407506Y0137636D01*
X0407017Y0138309D01*
X0406429Y0138898D01*
X0405755Y0139387D01*
X0405014Y0139765D01*
X0404706Y0139865D01*
X0405014Y0139965D01*
X0405755Y0140342D01*
X0406429Y0140832D01*
X0407017Y0141420D01*
X0407506Y0142093D01*
X0407884Y0142835D01*
X0408141Y0143626D01*
X0408272Y0144448D01*
X0408272Y0144652D01*
X0403197Y0144652D01*
X0403197Y0145077D01*
X0408272Y0145077D01*
X0408272Y0145281D01*
X0408141Y0146103D01*
X0407884Y0146894D01*
X0407506Y0147636D01*
X0407017Y0148309D01*
X0406429Y0148898D01*
X0405755Y0149387D01*
X0405014Y0149765D01*
X0404706Y0149865D01*
X0405014Y0149965D01*
X0405755Y0150342D01*
X0406429Y0150832D01*
X0407017Y0151420D01*
X0407506Y0152093D01*
X0407884Y0152835D01*
X0408141Y0153626D01*
X0408272Y0154448D01*
X0408272Y0154652D01*
X0403197Y0154652D01*
X0403197Y0155077D01*
X0408272Y0155077D01*
X0408272Y0155281D01*
X0408141Y0156103D01*
X0407884Y0156894D01*
X0407506Y0157636D01*
X0407017Y0158309D01*
X0406429Y0158898D01*
X0405755Y0159387D01*
X0405014Y0159765D01*
X0404706Y0159865D01*
X0405014Y0159965D01*
X0405755Y0160342D01*
X0406429Y0160832D01*
X0407017Y0161420D01*
X0407506Y0162093D01*
X0407884Y0162835D01*
X0408141Y0163626D01*
X0408272Y0164448D01*
X0408272Y0164652D01*
X0403197Y0164652D01*
X0403197Y0165077D01*
X0408272Y0165077D01*
X0408272Y0165281D01*
X0408141Y0166103D01*
X0407884Y0166894D01*
X0407506Y0167636D01*
X0407017Y0168309D01*
X0406429Y0168898D01*
X0405755Y0169387D01*
X0405014Y0169765D01*
X0404706Y0169865D01*
X0405014Y0169965D01*
X0405755Y0170342D01*
X0406429Y0170832D01*
X0407017Y0171420D01*
X0407506Y0172093D01*
X0407884Y0172835D01*
X0408141Y0173626D01*
X0408272Y0174448D01*
X0408272Y0174652D01*
X0403197Y0174652D01*
X0403197Y0175077D01*
X0408272Y0175077D01*
X0408272Y0175281D01*
X0408141Y0176103D01*
X0407884Y0176894D01*
X0407506Y0177636D01*
X0407017Y0178309D01*
X0406429Y0178898D01*
X0406103Y0179134D01*
X0406659Y0179365D01*
X0408484Y0181190D01*
X0408929Y0182264D01*
X0408929Y0059504D01*
X0407109Y0061324D01*
X0404056Y0063086D01*
X0400652Y0063998D01*
X0397127Y0063998D01*
X0393723Y0063086D01*
X0390671Y0061324D01*
X0388178Y0058832D01*
X0386416Y0055779D01*
X0385504Y0052375D01*
X0385504Y0048850D01*
X0386416Y0045446D01*
X0388178Y0042394D01*
X0389999Y0040573D01*
X0037702Y0040573D01*
X0039522Y0042394D01*
X0041285Y0045446D01*
X0042197Y0048850D01*
X0042197Y0052375D01*
X0041285Y0055779D01*
X0039522Y0058832D01*
X0037030Y0061324D01*
X0033978Y0063086D01*
X0030573Y0063998D01*
X0027049Y0063998D01*
X0023644Y0063086D01*
X0020592Y0061324D01*
X0018772Y0059504D01*
X0018772Y0270068D01*
X0020592Y0268248D01*
X0023644Y0266485D01*
X0027049Y0265573D01*
X0030573Y0265573D01*
X0033978Y0266485D01*
X0037030Y0268248D01*
X0039522Y0270740D01*
X0041285Y0273792D01*
X0042197Y0277197D01*
X0042197Y0280721D01*
X0041285Y0284126D01*
X0039522Y0287178D01*
X0037702Y0288998D01*
X0389999Y0288998D01*
X0388178Y0287178D01*
X0386416Y0284126D01*
X0385504Y0280721D01*
X0385504Y0277197D01*
X0386416Y0273792D01*
X0388178Y0270740D01*
X0390671Y0268248D01*
X0393723Y0266485D01*
X0397127Y0265573D01*
X0400652Y0265573D01*
X0404056Y0266485D01*
X0407109Y0268248D01*
X0408929Y0270068D01*
X0408929Y0187465D01*
X0408484Y0188539D01*
X0406659Y0190364D01*
X0408597Y0188266D02*
X0408929Y0188266D01*
X0408929Y0181973D02*
X0408808Y0181973D01*
X0408929Y0180400D02*
X0407694Y0180400D01*
X0406500Y0178827D02*
X0408929Y0178827D01*
X0408929Y0177253D02*
X0407701Y0177253D01*
X0408208Y0175680D02*
X0408929Y0175680D01*
X0408929Y0174107D02*
X0408217Y0174107D01*
X0407731Y0172533D02*
X0408929Y0172533D01*
X0408929Y0170960D02*
X0406557Y0170960D01*
X0405756Y0169387D02*
X0408929Y0169387D01*
X0408929Y0167813D02*
X0407377Y0167813D01*
X0408097Y0166240D02*
X0408929Y0166240D01*
X0408929Y0164667D02*
X0403197Y0164667D01*
X0403197Y0164652D02*
X0403197Y0155077D01*
X0402772Y0155077D01*
X0402772Y0160152D01*
X0402772Y0164652D01*
X0403197Y0164652D01*
X0403197Y0165077D02*
X0402772Y0165077D01*
X0402772Y0170152D01*
X0402772Y0174652D01*
X0403197Y0174652D01*
X0403197Y0165077D01*
X0403197Y0166240D02*
X0402772Y0166240D01*
X0402772Y0167813D02*
X0403197Y0167813D01*
X0403197Y0169387D02*
X0402772Y0169387D01*
X0402772Y0170960D02*
X0403197Y0170960D01*
X0403197Y0172533D02*
X0402772Y0172533D01*
X0402772Y0174107D02*
X0403197Y0174107D01*
X0390118Y0169387D02*
X0255408Y0169387D01*
X0255408Y0167813D02*
X0388496Y0167813D01*
X0387845Y0166240D02*
X0255408Y0166240D01*
X0255408Y0164667D02*
X0387709Y0164667D01*
X0388008Y0163093D02*
X0255408Y0163093D01*
X0255408Y0161520D02*
X0388869Y0161520D01*
X0391073Y0159947D02*
X0255560Y0159947D01*
X0256186Y0158373D02*
X0389033Y0158373D01*
X0388077Y0156800D02*
X0255895Y0156800D01*
X0254050Y0155227D02*
X0387709Y0155227D01*
X0387776Y0153654D02*
X0117438Y0153654D01*
X0117438Y0155227D02*
X0238756Y0155227D01*
X0240481Y0155227D02*
X0242338Y0155227D01*
X0244062Y0155227D02*
X0252391Y0155227D01*
X0250546Y0156800D02*
X0245888Y0156800D01*
X0246178Y0158373D02*
X0250255Y0158373D01*
X0250881Y0159947D02*
X0245558Y0159947D01*
X0244197Y0161520D02*
X0251033Y0161520D01*
X0251033Y0163093D02*
X0244197Y0163093D01*
X0244197Y0164667D02*
X0251033Y0164667D01*
X0251033Y0166240D02*
X0243503Y0166240D01*
X0241930Y0167813D02*
X0251033Y0167813D01*
X0249629Y0169387D02*
X0240357Y0169387D01*
X0238784Y0170960D02*
X0248055Y0170960D01*
X0246482Y0172533D02*
X0237210Y0172533D01*
X0235637Y0174107D02*
X0244909Y0174107D01*
X0243335Y0175680D02*
X0234064Y0175680D01*
X0232490Y0177253D02*
X0241762Y0177253D01*
X0240189Y0178827D02*
X0230917Y0178827D01*
X0229344Y0180400D02*
X0238615Y0180400D01*
X0237042Y0181973D02*
X0227770Y0181973D01*
X0226197Y0183547D02*
X0235469Y0183547D01*
X0233896Y0185120D02*
X0224624Y0185120D01*
X0223050Y0186693D02*
X0232322Y0186693D01*
X0230749Y0188266D02*
X0221477Y0188266D01*
X0219904Y0189840D02*
X0229176Y0189840D01*
X0227602Y0191413D02*
X0218330Y0191413D01*
X0216757Y0192986D02*
X0226029Y0192986D01*
X0224456Y0194560D02*
X0215184Y0194560D01*
X0213611Y0196133D02*
X0222882Y0196133D01*
X0221309Y0197706D02*
X0212037Y0197706D01*
X0218162Y0200853D02*
X0117438Y0200853D01*
X0117438Y0202426D02*
X0120048Y0202426D01*
X0119546Y0204000D02*
X0117438Y0204000D01*
X0118237Y0205573D02*
X0119889Y0205573D01*
X0121579Y0199280D02*
X0219736Y0199280D01*
X0210447Y0191413D02*
X0121283Y0191413D01*
X0117442Y0191413D02*
X0117438Y0191413D01*
X0117438Y0189840D02*
X0212020Y0189840D01*
X0213593Y0188266D02*
X0117438Y0188266D01*
X0117438Y0186693D02*
X0215166Y0186693D01*
X0216740Y0185120D02*
X0117438Y0185120D01*
X0117438Y0183547D02*
X0218313Y0183547D01*
X0219886Y0181973D02*
X0117438Y0181973D01*
X0117438Y0180400D02*
X0221460Y0180400D01*
X0223033Y0178827D02*
X0117438Y0178827D01*
X0117438Y0177253D02*
X0224606Y0177253D01*
X0226180Y0175680D02*
X0117438Y0175680D01*
X0117438Y0174107D02*
X0227753Y0174107D01*
X0229326Y0172533D02*
X0117438Y0172533D01*
X0117438Y0170960D02*
X0230900Y0170960D01*
X0232473Y0169387D02*
X0117438Y0169387D01*
X0117438Y0167813D02*
X0234046Y0167813D01*
X0235620Y0166240D02*
X0117438Y0166240D01*
X0117438Y0164667D02*
X0237193Y0164667D01*
X0238622Y0163093D02*
X0117438Y0163093D01*
X0117438Y0161520D02*
X0238622Y0161520D01*
X0237261Y0159947D02*
X0117438Y0159947D01*
X0117438Y0158373D02*
X0236641Y0158373D01*
X0236931Y0156800D02*
X0117438Y0156800D01*
X0117438Y0152080D02*
X0387059Y0152080D01*
X0385098Y0150507D02*
X0119725Y0150507D01*
X0120714Y0148934D02*
X0377365Y0148934D01*
X0378918Y0148934D02*
X0384446Y0148934D01*
X0387459Y0145787D02*
X0387709Y0145787D01*
X0387709Y0144214D02*
X0385886Y0144214D01*
X0388196Y0142640D02*
X0121244Y0142640D01*
X0120162Y0144214D02*
X0375780Y0144214D01*
X0375176Y0145787D02*
X0120162Y0145787D01*
X0120628Y0147360D02*
X0375477Y0147360D01*
X0381183Y0136347D02*
X0127537Y0136347D01*
X0125964Y0137920D02*
X0388580Y0137920D01*
X0390376Y0139494D02*
X0124391Y0139494D01*
X0122817Y0141067D02*
X0389322Y0141067D01*
X0380846Y0134774D02*
X0129111Y0134774D01*
X0130684Y0133200D02*
X0381360Y0133200D01*
X0388762Y0131627D02*
X0132257Y0131627D01*
X0133831Y0130054D02*
X0390815Y0130054D01*
X0389140Y0128480D02*
X0135404Y0128480D01*
X0136977Y0126907D02*
X0388121Y0126907D01*
X0387709Y0125334D02*
X0138551Y0125334D01*
X0140124Y0123761D02*
X0387732Y0123761D01*
X0388384Y0122187D02*
X0141697Y0122187D01*
X0143271Y0120614D02*
X0312217Y0120614D01*
X0312006Y0120403D02*
X0311554Y0119313D01*
X0311554Y0118133D01*
X0311630Y0117949D01*
X0311108Y0117733D01*
X0310273Y0116899D01*
X0309822Y0115809D01*
X0309822Y0115074D01*
X0308654Y0115074D01*
X0307564Y0114623D01*
X0306730Y0113788D01*
X0306279Y0112698D01*
X0306279Y0111519D01*
X0306730Y0110429D01*
X0307564Y0109595D01*
X0308654Y0109143D01*
X0309834Y0109143D01*
X0310924Y0109595D01*
X0311260Y0109931D01*
X0322730Y0109931D01*
X0323029Y0109208D01*
X0323864Y0108374D01*
X0324953Y0107923D01*
X0326133Y0107923D01*
X0327223Y0108374D01*
X0328057Y0109208D01*
X0328509Y0110298D01*
X0328509Y0111478D01*
X0328057Y0112568D01*
X0327926Y0112699D01*
X0328175Y0112949D01*
X0328627Y0114038D01*
X0328627Y0115218D01*
X0328175Y0116308D01*
X0327906Y0116577D01*
X0328175Y0116846D01*
X0328627Y0117936D01*
X0328627Y0119116D01*
X0328175Y0120206D01*
X0327341Y0121040D01*
X0326251Y0121491D01*
X0325072Y0121491D01*
X0323982Y0121040D01*
X0323843Y0120901D01*
X0316535Y0120901D01*
X0316199Y0121237D01*
X0315110Y0121688D01*
X0313930Y0121688D01*
X0312840Y0121237D01*
X0312006Y0120403D01*
X0311554Y0119041D02*
X0144844Y0119041D01*
X0145359Y0117467D02*
X0310842Y0117467D01*
X0309857Y0115894D02*
X0145359Y0115894D01*
X0145359Y0114321D02*
X0307262Y0114321D01*
X0306299Y0112747D02*
X0145359Y0112747D01*
X0145359Y0111174D02*
X0306422Y0111174D01*
X0307558Y0109601D02*
X0145359Y0109601D01*
X0145359Y0108027D02*
X0324701Y0108027D01*
X0326386Y0108027D02*
X0388687Y0108027D01*
X0387933Y0106454D02*
X0302588Y0106454D01*
X0303364Y0106133D02*
X0301483Y0106912D01*
X0299447Y0106912D01*
X0297565Y0106133D01*
X0296126Y0104693D01*
X0295346Y0102812D01*
X0295346Y0100776D01*
X0296126Y0098895D01*
X0297565Y0097455D01*
X0299447Y0096676D01*
X0301483Y0096676D01*
X0303364Y0097455D01*
X0304803Y0098895D01*
X0305583Y0100776D01*
X0305583Y0102812D01*
X0304803Y0104693D01*
X0303364Y0106133D01*
X0304616Y0104881D02*
X0387709Y0104881D01*
X0387920Y0103307D02*
X0305377Y0103307D01*
X0305583Y0101734D02*
X0388655Y0101734D01*
X0390556Y0100161D02*
X0305328Y0100161D01*
X0304496Y0098588D02*
X0389248Y0098588D01*
X0388165Y0097014D02*
X0302300Y0097014D01*
X0298629Y0097014D02*
X0145359Y0097014D01*
X0145359Y0095441D02*
X0387709Y0095441D01*
X0387709Y0093868D02*
X0145359Y0093868D01*
X0145606Y0092294D02*
X0388339Y0092294D01*
X0389668Y0090721D02*
X0147179Y0090721D01*
X0148753Y0089148D02*
X0151851Y0089148D01*
X0151114Y0087574D02*
X0150326Y0087574D01*
X0146756Y0084428D02*
X0138935Y0084428D01*
X0133358Y0084428D02*
X0018772Y0084428D01*
X0018772Y0086001D02*
X0132932Y0086001D01*
X0133321Y0087574D02*
X0062606Y0087574D01*
X0056055Y0087574D02*
X0018772Y0087574D01*
X0018772Y0089148D02*
X0031114Y0089148D01*
X0030929Y0089282D02*
X0031632Y0088771D01*
X0032407Y0088376D01*
X0033234Y0088108D01*
X0034093Y0087972D01*
X0034331Y0087972D01*
X0034331Y0097236D01*
X0034724Y0097236D01*
X0034724Y0087972D01*
X0034962Y0087972D01*
X0035821Y0088108D01*
X0036648Y0088376D01*
X0037423Y0088771D01*
X0038126Y0089282D01*
X0038741Y0089897D01*
X0039252Y0090601D01*
X0039647Y0091375D01*
X0039916Y0092202D01*
X0040052Y0093061D01*
X0040052Y0097236D01*
X0034724Y0097236D01*
X0034724Y0097630D01*
X0034331Y0097630D01*
X0034331Y0106894D01*
X0034093Y0106894D01*
X0033234Y0106758D01*
X0032407Y0106490D01*
X0031632Y0106095D01*
X0030929Y0105584D01*
X0030314Y0104969D01*
X0029803Y0104265D01*
X0029408Y0103491D01*
X0029139Y0102664D01*
X0029003Y0101805D01*
X0029003Y0097630D01*
X0034331Y0097630D01*
X0034331Y0097236D01*
X0029003Y0097236D01*
X0029003Y0093061D01*
X0029139Y0092202D01*
X0029408Y0091375D01*
X0029803Y0090601D01*
X0030314Y0089897D01*
X0030929Y0089282D01*
X0029741Y0090721D02*
X0018772Y0090721D01*
X0018772Y0092294D02*
X0029125Y0092294D01*
X0029003Y0093868D02*
X0018772Y0093868D01*
X0018772Y0095441D02*
X0029003Y0095441D01*
X0029003Y0097014D02*
X0018772Y0097014D01*
X0018772Y0098588D02*
X0029003Y0098588D01*
X0029003Y0100161D02*
X0018772Y0100161D01*
X0018772Y0101734D02*
X0029003Y0101734D01*
X0029348Y0103307D02*
X0018772Y0103307D01*
X0018772Y0104881D02*
X0030250Y0104881D01*
X0032337Y0106454D02*
X0018772Y0106454D01*
X0018772Y0108027D02*
X0057831Y0108027D01*
X0054905Y0106454D02*
X0036718Y0106454D01*
X0036648Y0106490D02*
X0035821Y0106758D01*
X0034962Y0106894D01*
X0034724Y0106894D01*
X0034724Y0097630D01*
X0040052Y0097630D01*
X0040052Y0101805D01*
X0039916Y0102664D01*
X0039647Y0103491D01*
X0039252Y0104265D01*
X0038741Y0104969D01*
X0038126Y0105584D01*
X0037423Y0106095D01*
X0036648Y0106490D01*
X0034724Y0106454D02*
X0034331Y0106454D01*
X0034331Y0104881D02*
X0034724Y0104881D01*
X0034724Y0103307D02*
X0034331Y0103307D01*
X0034331Y0101734D02*
X0034724Y0101734D01*
X0034724Y0100161D02*
X0034331Y0100161D01*
X0034331Y0098588D02*
X0034724Y0098588D01*
X0034724Y0097014D02*
X0034331Y0097014D01*
X0034331Y0095441D02*
X0034724Y0095441D01*
X0034724Y0093868D02*
X0034331Y0093868D01*
X0034331Y0092294D02*
X0034724Y0092294D01*
X0034724Y0090721D02*
X0034331Y0090721D01*
X0034331Y0089148D02*
X0034724Y0089148D01*
X0037941Y0089148D02*
X0054169Y0089148D01*
X0053202Y0090721D02*
X0039314Y0090721D01*
X0039930Y0092294D02*
X0052606Y0092294D01*
X0052606Y0093868D02*
X0040052Y0093868D01*
X0040052Y0095441D02*
X0052606Y0095441D01*
X0052606Y0097014D02*
X0040052Y0097014D01*
X0040052Y0098588D02*
X0052606Y0098588D01*
X0052606Y0100161D02*
X0040052Y0100161D01*
X0040052Y0101734D02*
X0052606Y0101734D01*
X0052855Y0103307D02*
X0039707Y0103307D01*
X0038805Y0104881D02*
X0053506Y0104881D01*
X0057616Y0114321D02*
X0039312Y0114321D01*
X0041188Y0115894D02*
X0056043Y0115894D01*
X0054470Y0117467D02*
X0042113Y0117467D01*
X0042642Y0119041D02*
X0052896Y0119041D01*
X0051323Y0120614D02*
X0042642Y0120614D01*
X0042285Y0122187D02*
X0049750Y0122187D01*
X0048177Y0123761D02*
X0042091Y0123761D01*
X0042091Y0125334D02*
X0046603Y0125334D01*
X0045030Y0126907D02*
X0042091Y0126907D01*
X0042091Y0128480D02*
X0044287Y0128480D01*
X0044153Y0130054D02*
X0042091Y0130054D01*
X0042091Y0131627D02*
X0044153Y0131627D01*
X0044153Y0133200D02*
X0042091Y0133200D01*
X0042091Y0134774D02*
X0044153Y0134774D01*
X0044153Y0136347D02*
X0042091Y0136347D01*
X0042091Y0137920D02*
X0044153Y0137920D01*
X0044153Y0139494D02*
X0042091Y0139494D01*
X0042091Y0141067D02*
X0044153Y0141067D01*
X0044153Y0142640D02*
X0042091Y0142640D01*
X0042091Y0144214D02*
X0044153Y0144214D01*
X0044153Y0145787D02*
X0042091Y0145787D01*
X0042091Y0147360D02*
X0044153Y0147360D01*
X0044153Y0148934D02*
X0042091Y0148934D01*
X0042091Y0150507D02*
X0044153Y0150507D01*
X0044153Y0152080D02*
X0042091Y0152080D01*
X0042091Y0153654D02*
X0044153Y0153654D01*
X0044153Y0155227D02*
X0042091Y0155227D01*
X0042091Y0156800D02*
X0044153Y0156800D01*
X0044153Y0158373D02*
X0042091Y0158373D01*
X0042091Y0159947D02*
X0044153Y0159947D01*
X0044153Y0161520D02*
X0042091Y0161520D01*
X0042091Y0163093D02*
X0044203Y0163093D01*
X0044855Y0164667D02*
X0042091Y0164667D01*
X0042091Y0166240D02*
X0046401Y0166240D01*
X0047974Y0167813D02*
X0042091Y0167813D01*
X0042792Y0169387D02*
X0049547Y0169387D01*
X0051121Y0170960D02*
X0044366Y0170960D01*
X0045939Y0172533D02*
X0052420Y0172533D01*
X0052420Y0174107D02*
X0047512Y0174107D01*
X0049086Y0175680D02*
X0052420Y0175680D01*
X0052420Y0177253D02*
X0050659Y0177253D01*
X0051700Y0178827D02*
X0052420Y0178827D01*
X0052420Y0180400D02*
X0052228Y0180400D01*
X0052228Y0181973D02*
X0052420Y0181973D01*
X0052420Y0183547D02*
X0052228Y0183547D01*
X0052228Y0185120D02*
X0052420Y0185120D01*
X0052420Y0186693D02*
X0052228Y0186693D01*
X0052228Y0188266D02*
X0052420Y0188266D01*
X0052420Y0189840D02*
X0052228Y0189840D01*
X0052228Y0191413D02*
X0052420Y0191413D01*
X0052420Y0192986D02*
X0052228Y0192986D01*
X0052228Y0194560D02*
X0052420Y0194560D01*
X0052420Y0196133D02*
X0052228Y0196133D01*
X0052228Y0197706D02*
X0052420Y0197706D01*
X0052420Y0199280D02*
X0052228Y0199280D01*
X0052228Y0200853D02*
X0052420Y0200853D01*
X0052420Y0202426D02*
X0052228Y0202426D01*
X0052228Y0204000D02*
X0052420Y0204000D01*
X0052420Y0205573D02*
X0052228Y0205573D01*
X0052228Y0207146D02*
X0052420Y0207146D01*
X0052420Y0208720D02*
X0052228Y0208720D01*
X0052228Y0210293D02*
X0052420Y0210293D01*
X0052420Y0211866D02*
X0052228Y0211866D01*
X0052228Y0213439D02*
X0052420Y0213439D01*
X0052420Y0215013D02*
X0052228Y0215013D01*
X0052228Y0216586D02*
X0052420Y0216586D01*
X0052420Y0218159D02*
X0052228Y0218159D01*
X0052228Y0219733D02*
X0052420Y0219733D01*
X0052420Y0221306D02*
X0052228Y0221306D01*
X0052228Y0222879D02*
X0052420Y0222879D01*
X0052420Y0224453D02*
X0052228Y0224453D01*
X0052228Y0226026D02*
X0052420Y0226026D01*
X0052420Y0227599D02*
X0052228Y0227599D01*
X0052228Y0229173D02*
X0052420Y0229173D01*
X0052420Y0230746D02*
X0052228Y0230746D01*
X0052228Y0232319D02*
X0052607Y0232319D01*
X0052228Y0233893D02*
X0053423Y0233893D01*
X0054474Y0234943D02*
X0054474Y0234943D01*
X0054997Y0235466D02*
X0052228Y0235466D01*
X0052228Y0237039D02*
X0056570Y0237039D01*
X0058143Y0238613D02*
X0053554Y0238613D01*
X0055127Y0240186D02*
X0059717Y0240186D01*
X0061290Y0241759D02*
X0056700Y0241759D01*
X0058274Y0243332D02*
X0062863Y0243332D01*
X0064437Y0244906D02*
X0059847Y0244906D01*
X0061420Y0246479D02*
X0066010Y0246479D01*
X0073115Y0240186D02*
X0094506Y0240186D01*
X0094848Y0240528D02*
X0094014Y0239694D01*
X0093562Y0238604D01*
X0093562Y0237851D01*
X0067360Y0211649D01*
X0066200Y0210488D01*
X0066200Y0178022D01*
X0065667Y0177489D01*
X0065216Y0176399D01*
X0065216Y0175220D01*
X0065667Y0174130D01*
X0066501Y0173296D01*
X0067591Y0172844D01*
X0068771Y0172844D01*
X0069861Y0173296D01*
X0070695Y0174130D01*
X0071146Y0175220D01*
X0071146Y0176399D01*
X0070695Y0177489D01*
X0070162Y0178022D01*
X0070162Y0208847D01*
X0096364Y0235049D01*
X0096583Y0235049D01*
X0076534Y0214999D01*
X0075630Y0212817D01*
X0075630Y0167245D01*
X0066018Y0157633D01*
X0063257Y0157633D01*
X0061928Y0158183D01*
X0059347Y0158183D01*
X0056963Y0157196D01*
X0055138Y0155371D01*
X0054150Y0152986D01*
X0054150Y0150406D01*
X0055138Y0148021D01*
X0056963Y0146196D01*
X0057519Y0145966D01*
X0057193Y0145729D01*
X0056605Y0145141D01*
X0056116Y0144467D01*
X0055738Y0143726D01*
X0055481Y0142934D01*
X0055350Y0142112D01*
X0055350Y0141909D01*
X0060425Y0141909D01*
X0060425Y0141483D01*
X0055350Y0141483D01*
X0055350Y0141280D01*
X0055481Y0140458D01*
X0055738Y0139666D01*
X0056116Y0138925D01*
X0056605Y0138252D01*
X0057193Y0137663D01*
X0057867Y0137174D01*
X0058608Y0136796D01*
X0059125Y0136628D01*
X0057739Y0136054D01*
X0056299Y0134614D01*
X0055520Y0132733D01*
X0055520Y0130697D01*
X0056143Y0129193D01*
X0053627Y0131709D01*
X0053627Y0160068D01*
X0059841Y0166282D01*
X0061173Y0167614D01*
X0061894Y0169355D01*
X0061894Y0228965D01*
X0073616Y0240687D01*
X0093458Y0240687D01*
X0093627Y0240757D01*
X0095402Y0240757D01*
X0094848Y0240528D01*
X0093566Y0238613D02*
X0071542Y0238613D01*
X0069968Y0237039D02*
X0092751Y0237039D01*
X0091178Y0235466D02*
X0068395Y0235466D01*
X0066822Y0233893D02*
X0089604Y0233893D01*
X0088031Y0232319D02*
X0065248Y0232319D01*
X0063675Y0230746D02*
X0086458Y0230746D01*
X0084884Y0229173D02*
X0062102Y0229173D01*
X0061894Y0227599D02*
X0083311Y0227599D01*
X0081738Y0226026D02*
X0061894Y0226026D01*
X0061894Y0224453D02*
X0080164Y0224453D01*
X0078591Y0222879D02*
X0061894Y0222879D01*
X0061894Y0221306D02*
X0077018Y0221306D01*
X0075444Y0219733D02*
X0061894Y0219733D01*
X0061894Y0218159D02*
X0073871Y0218159D01*
X0072298Y0216586D02*
X0061894Y0216586D01*
X0061894Y0215013D02*
X0070724Y0215013D01*
X0069151Y0213439D02*
X0061894Y0213439D01*
X0061894Y0211866D02*
X0067578Y0211866D01*
X0066200Y0210293D02*
X0061894Y0210293D01*
X0061894Y0208720D02*
X0066200Y0208720D01*
X0066200Y0207146D02*
X0061894Y0207146D01*
X0061894Y0205573D02*
X0066200Y0205573D01*
X0066200Y0204000D02*
X0061894Y0204000D01*
X0061894Y0202426D02*
X0066200Y0202426D01*
X0066200Y0200853D02*
X0061894Y0200853D01*
X0061894Y0199280D02*
X0066200Y0199280D01*
X0066200Y0197706D02*
X0061894Y0197706D01*
X0061894Y0196133D02*
X0066200Y0196133D01*
X0066200Y0194560D02*
X0061894Y0194560D01*
X0061894Y0192986D02*
X0066200Y0192986D01*
X0066200Y0191413D02*
X0061894Y0191413D01*
X0061894Y0189840D02*
X0066200Y0189840D01*
X0066200Y0188266D02*
X0061894Y0188266D01*
X0061894Y0186693D02*
X0066200Y0186693D01*
X0066200Y0185120D02*
X0061894Y0185120D01*
X0061894Y0183547D02*
X0066200Y0183547D01*
X0066200Y0181973D02*
X0061894Y0181973D01*
X0061894Y0180400D02*
X0066200Y0180400D01*
X0066200Y0178827D02*
X0061894Y0178827D01*
X0061894Y0177253D02*
X0065569Y0177253D01*
X0065216Y0175680D02*
X0061894Y0175680D01*
X0061894Y0174107D02*
X0065690Y0174107D01*
X0061894Y0172533D02*
X0075630Y0172533D01*
X0075630Y0170960D02*
X0061894Y0170960D01*
X0061894Y0169387D02*
X0075630Y0169387D01*
X0075630Y0167813D02*
X0061256Y0167813D01*
X0059799Y0166240D02*
X0074625Y0166240D01*
X0073052Y0164667D02*
X0058226Y0164667D01*
X0056652Y0163093D02*
X0071478Y0163093D01*
X0069905Y0161520D02*
X0055079Y0161520D01*
X0053627Y0159947D02*
X0068332Y0159947D01*
X0066758Y0158373D02*
X0053627Y0158373D01*
X0053627Y0156800D02*
X0056567Y0156800D01*
X0055078Y0155227D02*
X0053627Y0155227D01*
X0053627Y0153654D02*
X0054427Y0153654D01*
X0054150Y0152080D02*
X0053627Y0152080D01*
X0053627Y0150507D02*
X0054150Y0150507D01*
X0053627Y0148934D02*
X0054760Y0148934D01*
X0055799Y0147360D02*
X0053627Y0147360D01*
X0053627Y0145787D02*
X0057273Y0145787D01*
X0055986Y0144214D02*
X0053627Y0144214D01*
X0053627Y0142640D02*
X0055434Y0142640D01*
X0055384Y0141067D02*
X0053627Y0141067D01*
X0053627Y0139494D02*
X0055826Y0139494D01*
X0056936Y0137920D02*
X0053627Y0137920D01*
X0053627Y0136347D02*
X0058446Y0136347D01*
X0056458Y0134774D02*
X0053627Y0134774D01*
X0053627Y0133200D02*
X0055713Y0133200D01*
X0055520Y0131627D02*
X0053708Y0131627D01*
X0055282Y0130054D02*
X0055786Y0130054D01*
X0058428Y0126907D02*
X0058871Y0126907D01*
X0060001Y0125334D02*
X0086986Y0125334D01*
X0085413Y0126907D02*
X0062405Y0126907D01*
X0061575Y0123761D02*
X0088560Y0123761D01*
X0087047Y0131433D02*
X0086950Y0131531D01*
X0065756Y0131531D01*
X0065756Y0132733D01*
X0064977Y0134614D01*
X0063537Y0136054D01*
X0062151Y0136628D01*
X0062667Y0136796D01*
X0063409Y0137174D01*
X0064082Y0137663D01*
X0064671Y0138252D01*
X0065160Y0138925D01*
X0065538Y0139666D01*
X0065795Y0140458D01*
X0065925Y0141280D01*
X0065925Y0141483D01*
X0060850Y0141483D01*
X0060850Y0141909D01*
X0065925Y0141909D01*
X0065925Y0142112D01*
X0065795Y0142934D01*
X0065538Y0143726D01*
X0065160Y0144467D01*
X0064671Y0145141D01*
X0064082Y0145729D01*
X0064041Y0145759D01*
X0069658Y0145759D01*
X0071840Y0146663D01*
X0084930Y0159753D01*
X0086600Y0161423D01*
X0087047Y0162502D01*
X0087047Y0131433D01*
X0087047Y0131627D02*
X0065756Y0131627D01*
X0065562Y0133200D02*
X0087047Y0133200D01*
X0087047Y0134774D02*
X0064817Y0134774D01*
X0062829Y0136347D02*
X0087047Y0136347D01*
X0087047Y0137920D02*
X0064340Y0137920D01*
X0065450Y0139494D02*
X0087047Y0139494D01*
X0087047Y0141067D02*
X0065891Y0141067D01*
X0065842Y0142640D02*
X0087047Y0142640D01*
X0087047Y0144214D02*
X0065289Y0144214D01*
X0069725Y0145787D02*
X0087047Y0145787D01*
X0087047Y0147360D02*
X0072538Y0147360D01*
X0074111Y0148934D02*
X0087047Y0148934D01*
X0087047Y0150507D02*
X0075684Y0150507D01*
X0077258Y0152080D02*
X0087047Y0152080D01*
X0087047Y0153654D02*
X0078831Y0153654D01*
X0080404Y0155227D02*
X0087047Y0155227D01*
X0087047Y0156800D02*
X0081977Y0156800D01*
X0083551Y0158373D02*
X0087047Y0158373D01*
X0087047Y0159947D02*
X0085124Y0159947D01*
X0086640Y0161520D02*
X0087047Y0161520D01*
X0075630Y0174107D02*
X0070672Y0174107D01*
X0071146Y0175680D02*
X0075630Y0175680D01*
X0075630Y0177253D02*
X0070793Y0177253D01*
X0070162Y0178827D02*
X0075630Y0178827D01*
X0075630Y0180400D02*
X0070162Y0180400D01*
X0070162Y0181973D02*
X0075630Y0181973D01*
X0075630Y0183547D02*
X0070162Y0183547D01*
X0070162Y0185120D02*
X0075630Y0185120D01*
X0075630Y0186693D02*
X0070162Y0186693D01*
X0070162Y0188266D02*
X0075630Y0188266D01*
X0075630Y0189840D02*
X0070162Y0189840D01*
X0070162Y0191413D02*
X0075630Y0191413D01*
X0075630Y0192986D02*
X0070162Y0192986D01*
X0070162Y0194560D02*
X0075630Y0194560D01*
X0075630Y0196133D02*
X0070162Y0196133D01*
X0070162Y0197706D02*
X0075630Y0197706D01*
X0075630Y0199280D02*
X0070162Y0199280D01*
X0070162Y0200853D02*
X0075630Y0200853D01*
X0075630Y0202426D02*
X0070162Y0202426D01*
X0070162Y0204000D02*
X0075630Y0204000D01*
X0075630Y0205573D02*
X0070162Y0205573D01*
X0070162Y0207146D02*
X0075630Y0207146D01*
X0075630Y0208720D02*
X0070162Y0208720D01*
X0071608Y0210293D02*
X0075630Y0210293D01*
X0075630Y0211866D02*
X0073181Y0211866D01*
X0074755Y0213439D02*
X0075888Y0213439D01*
X0076328Y0215013D02*
X0076547Y0215013D01*
X0077901Y0216586D02*
X0078121Y0216586D01*
X0079475Y0218159D02*
X0079694Y0218159D01*
X0081048Y0219733D02*
X0081267Y0219733D01*
X0082621Y0221306D02*
X0082841Y0221306D01*
X0084194Y0222879D02*
X0084414Y0222879D01*
X0085768Y0224453D02*
X0085987Y0224453D01*
X0087341Y0226026D02*
X0087561Y0226026D01*
X0088914Y0227599D02*
X0089134Y0227599D01*
X0090488Y0229173D02*
X0090707Y0229173D01*
X0092061Y0230746D02*
X0092280Y0230746D01*
X0093634Y0232319D02*
X0093854Y0232319D01*
X0095208Y0233893D02*
X0095427Y0233893D01*
X0085008Y0260639D02*
X0030535Y0260639D01*
X0030447Y0260727D02*
X0029829Y0261140D01*
X0029143Y0261424D01*
X0028414Y0261569D01*
X0025858Y0261569D01*
X0023303Y0261569D01*
X0022574Y0261424D01*
X0021887Y0261140D01*
X0021270Y0260727D01*
X0020744Y0260202D01*
X0020332Y0259584D01*
X0020047Y0258898D01*
X0019902Y0258169D01*
X0019902Y0257798D01*
X0025858Y0257798D01*
X0025858Y0261569D01*
X0025858Y0257798D01*
X0025858Y0257798D01*
X0025858Y0257798D01*
X0019902Y0257798D01*
X0019902Y0257426D01*
X0020047Y0256697D01*
X0020332Y0256011D01*
X0020744Y0255393D01*
X0021270Y0254868D01*
X0021887Y0254455D01*
X0022574Y0254171D01*
X0023303Y0254026D01*
X0025858Y0254026D01*
X0025858Y0257798D01*
X0031814Y0257798D01*
X0031814Y0258169D01*
X0031669Y0258898D01*
X0031385Y0259584D01*
X0030972Y0260202D01*
X0030447Y0260727D01*
X0031600Y0259066D02*
X0057596Y0259066D01*
X0055641Y0257492D02*
X0031814Y0257492D01*
X0031814Y0257426D02*
X0031814Y0257798D01*
X0025858Y0257798D01*
X0025858Y0257798D01*
X0025858Y0257798D01*
X0025858Y0254026D01*
X0028414Y0254026D01*
X0029143Y0254171D01*
X0029829Y0254455D01*
X0030324Y0254786D01*
X0030094Y0254231D01*
X0029942Y0253464D01*
X0029942Y0253073D01*
X0029942Y0252682D01*
X0030094Y0251916D01*
X0030393Y0251193D01*
X0030828Y0250543D01*
X0031380Y0249991D01*
X0032030Y0249556D01*
X0032753Y0249257D01*
X0033519Y0249105D01*
X0036291Y0249105D01*
X0036291Y0253073D01*
X0029942Y0253073D01*
X0036291Y0253073D01*
X0036291Y0253073D01*
X0036291Y0253073D01*
X0036291Y0249105D01*
X0039063Y0249105D01*
X0039830Y0249257D01*
X0040552Y0249556D01*
X0041202Y0249991D01*
X0041755Y0250543D01*
X0042189Y0251193D01*
X0042488Y0251916D01*
X0042641Y0252682D01*
X0042641Y0253073D01*
X0036291Y0253073D01*
X0036291Y0257042D01*
X0033519Y0257042D01*
X0032753Y0256889D01*
X0032030Y0256590D01*
X0031469Y0256215D01*
X0031669Y0256697D01*
X0031814Y0257426D01*
X0030142Y0254346D02*
X0029564Y0254346D01*
X0029942Y0252772D02*
X0018772Y0252772D01*
X0018772Y0251199D02*
X0030391Y0251199D01*
X0031927Y0249626D02*
X0018772Y0249626D01*
X0018772Y0248052D02*
X0046201Y0248052D01*
X0044628Y0246479D02*
X0018772Y0246479D01*
X0018772Y0244906D02*
X0043054Y0244906D01*
X0041481Y0243332D02*
X0018772Y0243332D01*
X0018772Y0241759D02*
X0040699Y0241759D01*
X0040354Y0240186D02*
X0018772Y0240186D01*
X0018772Y0238613D02*
X0040354Y0238613D01*
X0036291Y0237039D02*
X0036291Y0237039D01*
X0036291Y0235466D02*
X0036291Y0235466D01*
X0036291Y0233893D02*
X0036291Y0233893D01*
X0036291Y0232319D02*
X0036291Y0232319D01*
X0036291Y0230746D02*
X0036291Y0230746D01*
X0040354Y0229173D02*
X0031814Y0229173D01*
X0031605Y0230746D02*
X0031507Y0230746D01*
X0030302Y0232319D02*
X0030244Y0232319D01*
X0029942Y0233893D02*
X0018772Y0233893D01*
X0018772Y0235466D02*
X0030231Y0235466D01*
X0031358Y0237039D02*
X0018772Y0237039D01*
X0018772Y0232319D02*
X0021472Y0232319D01*
X0020209Y0230746D02*
X0018772Y0230746D01*
X0018772Y0229173D02*
X0019902Y0229173D01*
X0020277Y0227599D02*
X0018772Y0227599D01*
X0018772Y0226026D02*
X0021717Y0226026D01*
X0018772Y0224453D02*
X0040354Y0224453D01*
X0040354Y0226026D02*
X0030000Y0226026D01*
X0031439Y0227599D02*
X0040354Y0227599D01*
X0040354Y0222879D02*
X0018772Y0222879D01*
X0018772Y0221306D02*
X0040354Y0221306D01*
X0040354Y0219733D02*
X0018772Y0219733D01*
X0018772Y0218159D02*
X0022786Y0218159D01*
X0020538Y0216586D02*
X0018772Y0216586D01*
X0018772Y0215013D02*
X0019932Y0215013D01*
X0020038Y0213439D02*
X0018772Y0213439D01*
X0018772Y0211866D02*
X0020964Y0211866D01*
X0018772Y0210293D02*
X0029969Y0210293D01*
X0030072Y0208720D02*
X0018772Y0208720D01*
X0018772Y0207146D02*
X0030918Y0207146D01*
X0036291Y0207146D02*
X0036291Y0207146D01*
X0036291Y0208720D02*
X0036291Y0208720D01*
X0036291Y0210293D02*
X0036291Y0210293D01*
X0036291Y0211866D02*
X0036291Y0211866D01*
X0036291Y0213439D02*
X0036291Y0213439D01*
X0032408Y0213439D02*
X0031679Y0213439D01*
X0031784Y0215013D02*
X0040354Y0215013D01*
X0040354Y0216586D02*
X0031178Y0216586D01*
X0028931Y0218159D02*
X0040354Y0218159D01*
X0040354Y0213439D02*
X0040174Y0213439D01*
X0040354Y0205573D02*
X0018772Y0205573D01*
X0018772Y0204000D02*
X0040354Y0204000D01*
X0040354Y0202426D02*
X0018772Y0202426D01*
X0018772Y0200853D02*
X0040354Y0200853D01*
X0040354Y0199280D02*
X0018772Y0199280D01*
X0018772Y0197706D02*
X0040354Y0197706D01*
X0040354Y0196133D02*
X0018772Y0196133D01*
X0018772Y0194560D02*
X0033115Y0194560D01*
X0030684Y0192986D02*
X0018772Y0192986D01*
X0018772Y0191413D02*
X0030011Y0191413D01*
X0030029Y0189840D02*
X0018772Y0189840D01*
X0018772Y0188266D02*
X0020688Y0188266D01*
X0019977Y0186693D02*
X0018772Y0186693D01*
X0018772Y0185120D02*
X0019993Y0185120D01*
X0020742Y0183547D02*
X0018772Y0183547D01*
X0018772Y0181973D02*
X0038586Y0181973D01*
X0037013Y0180400D02*
X0018772Y0180400D01*
X0018772Y0178827D02*
X0035440Y0178827D01*
X0033866Y0177253D02*
X0018772Y0177253D01*
X0018772Y0175680D02*
X0032293Y0175680D01*
X0030955Y0174107D02*
X0018772Y0174107D01*
X0018772Y0172533D02*
X0030303Y0172533D01*
X0030217Y0170960D02*
X0018772Y0170960D01*
X0018772Y0169387D02*
X0030217Y0169387D01*
X0030217Y0167813D02*
X0018772Y0167813D01*
X0018772Y0166240D02*
X0030217Y0166240D01*
X0030217Y0164667D02*
X0018772Y0164667D01*
X0018772Y0163093D02*
X0030217Y0163093D01*
X0030217Y0161520D02*
X0018772Y0161520D01*
X0018772Y0159947D02*
X0030217Y0159947D01*
X0030217Y0158373D02*
X0018772Y0158373D01*
X0018772Y0156800D02*
X0030217Y0156800D01*
X0030217Y0155227D02*
X0018772Y0155227D01*
X0018772Y0153654D02*
X0030217Y0153654D01*
X0030217Y0152080D02*
X0018772Y0152080D01*
X0018772Y0150507D02*
X0030217Y0150507D01*
X0030217Y0148934D02*
X0018772Y0148934D01*
X0018772Y0147360D02*
X0030217Y0147360D01*
X0030217Y0145787D02*
X0018772Y0145787D01*
X0018772Y0144214D02*
X0030217Y0144214D01*
X0030217Y0142640D02*
X0018772Y0142640D01*
X0063148Y0122187D02*
X0131322Y0122187D01*
X0132895Y0120614D02*
X0064721Y0120614D01*
X0066295Y0119041D02*
X0134468Y0119041D01*
X0136042Y0117467D02*
X0067868Y0117467D01*
X0069211Y0115894D02*
X0137615Y0115894D01*
X0138444Y0114321D02*
X0069768Y0114321D01*
X0069768Y0112747D02*
X0138444Y0112747D01*
X0138444Y0111174D02*
X0069152Y0111174D01*
X0067727Y0109601D02*
X0138444Y0109601D01*
X0145359Y0106454D02*
X0298342Y0106454D01*
X0296314Y0104881D02*
X0145359Y0104881D01*
X0145359Y0103307D02*
X0295552Y0103307D01*
X0295346Y0101734D02*
X0145359Y0101734D01*
X0145359Y0100161D02*
X0295601Y0100161D01*
X0296433Y0098588D02*
X0145359Y0098588D01*
X0142984Y0091557D02*
X0158732Y0075809D01*
X0164638Y0075809D01*
X0151114Y0076561D02*
X0056862Y0076561D01*
X0056845Y0076454D02*
X0056981Y0077313D01*
X0056981Y0077551D01*
X0047717Y0077551D01*
X0047717Y0077945D01*
X0056981Y0077945D01*
X0056981Y0078183D01*
X0056845Y0079042D01*
X0056576Y0079869D01*
X0056182Y0080643D01*
X0055670Y0081347D01*
X0055056Y0081962D01*
X0054352Y0082473D01*
X0053577Y0082868D01*
X0052750Y0083136D01*
X0051891Y0083272D01*
X0047717Y0083272D01*
X0047717Y0077945D01*
X0047323Y0077945D01*
X0047323Y0083272D01*
X0043148Y0083272D01*
X0042289Y0083136D01*
X0041462Y0082868D01*
X0040687Y0082473D01*
X0039984Y0081962D01*
X0039369Y0081347D01*
X0038858Y0080643D01*
X0038463Y0079869D01*
X0038194Y0079042D01*
X0038058Y0078183D01*
X0038058Y0077945D01*
X0047323Y0077945D01*
X0047323Y0077551D01*
X0047717Y0077551D01*
X0047717Y0072224D01*
X0051891Y0072224D01*
X0052750Y0072360D01*
X0053577Y0072628D01*
X0054352Y0073023D01*
X0055056Y0073534D01*
X0055670Y0074149D01*
X0056182Y0074853D01*
X0056576Y0075627D01*
X0056845Y0076454D01*
X0056250Y0074988D02*
X0151114Y0074988D01*
X0151114Y0073414D02*
X0054891Y0073414D01*
X0056981Y0078134D02*
X0151114Y0078134D01*
X0151114Y0079708D02*
X0056629Y0079708D01*
X0055718Y0081281D02*
X0149902Y0081281D01*
X0148329Y0082854D02*
X0053603Y0082854D01*
X0047717Y0082854D02*
X0047323Y0082854D01*
X0047323Y0081281D02*
X0047717Y0081281D01*
X0047717Y0079708D02*
X0047323Y0079708D01*
X0047323Y0078134D02*
X0047717Y0078134D01*
X0047323Y0077551D02*
X0038058Y0077551D01*
X0038058Y0077313D01*
X0038194Y0076454D01*
X0038463Y0075627D01*
X0038858Y0074853D01*
X0039369Y0074149D01*
X0039984Y0073534D01*
X0040687Y0073023D01*
X0041462Y0072628D01*
X0042289Y0072360D01*
X0043148Y0072224D01*
X0047323Y0072224D01*
X0047323Y0077551D01*
X0047323Y0076561D02*
X0047717Y0076561D01*
X0047717Y0074988D02*
X0047323Y0074988D01*
X0047323Y0073414D02*
X0047717Y0073414D01*
X0040149Y0073414D02*
X0018772Y0073414D01*
X0018772Y0071841D02*
X0151114Y0071841D01*
X0151114Y0070268D02*
X0018772Y0070268D01*
X0018772Y0068695D02*
X0151114Y0068695D01*
X0151114Y0067121D02*
X0018772Y0067121D01*
X0018772Y0065548D02*
X0151114Y0065548D01*
X0151114Y0063975D02*
X0030662Y0063975D01*
X0026960Y0063975D02*
X0018772Y0063975D01*
X0018772Y0062401D02*
X0022458Y0062401D01*
X0020096Y0060828D02*
X0018772Y0060828D01*
X0035164Y0062401D02*
X0151921Y0062401D01*
X0177354Y0062401D02*
X0201254Y0062401D01*
X0201289Y0062381D02*
X0201693Y0062273D01*
X0213063Y0062273D01*
X0213063Y0075022D01*
X0214638Y0075022D01*
X0214638Y0076597D01*
X0227387Y0076597D01*
X0227387Y0087967D01*
X0227278Y0088371D01*
X0227069Y0088733D01*
X0226774Y0089028D01*
X0226412Y0089237D01*
X0226008Y0089346D01*
X0214638Y0089346D01*
X0214638Y0076597D01*
X0213063Y0076597D01*
X0213063Y0089346D01*
X0201693Y0089346D01*
X0201289Y0089237D01*
X0200927Y0089028D01*
X0200631Y0088733D01*
X0200422Y0088371D01*
X0200314Y0087967D01*
X0200314Y0076597D01*
X0213063Y0076597D01*
X0213063Y0075022D01*
X0200314Y0075022D01*
X0200314Y0063652D01*
X0200422Y0063248D01*
X0200631Y0062886D01*
X0200927Y0062590D01*
X0201289Y0062381D01*
X0200314Y0063975D02*
X0178161Y0063975D01*
X0178161Y0065548D02*
X0200314Y0065548D01*
X0200314Y0067121D02*
X0178161Y0067121D01*
X0178161Y0068695D02*
X0200314Y0068695D01*
X0200314Y0070268D02*
X0178161Y0070268D01*
X0178161Y0071841D02*
X0200314Y0071841D01*
X0200314Y0073414D02*
X0178161Y0073414D01*
X0178161Y0074988D02*
X0200314Y0074988D01*
X0200314Y0078134D02*
X0178161Y0078134D01*
X0178161Y0076561D02*
X0213063Y0076561D01*
X0213063Y0074988D02*
X0214638Y0074988D01*
X0214638Y0075022D02*
X0214638Y0062273D01*
X0226008Y0062273D01*
X0226412Y0062381D01*
X0226774Y0062590D01*
X0227069Y0062886D01*
X0227278Y0063248D01*
X0227387Y0063652D01*
X0227387Y0075022D01*
X0214638Y0075022D01*
X0214638Y0076561D02*
X0249539Y0076561D01*
X0249539Y0074988D02*
X0227387Y0074988D01*
X0227387Y0073414D02*
X0249539Y0073414D01*
X0249539Y0071841D02*
X0227387Y0071841D01*
X0227387Y0070268D02*
X0249539Y0070268D01*
X0249539Y0068695D02*
X0227387Y0068695D01*
X0227387Y0067121D02*
X0249539Y0067121D01*
X0249539Y0065548D02*
X0227387Y0065548D01*
X0227387Y0063975D02*
X0249539Y0063975D01*
X0249539Y0063208D02*
X0250462Y0062286D01*
X0275664Y0062286D01*
X0276587Y0063208D01*
X0276587Y0088411D01*
X0275664Y0089333D01*
X0250462Y0089333D01*
X0249539Y0088411D01*
X0249539Y0063208D01*
X0250346Y0062401D02*
X0226446Y0062401D01*
X0214638Y0062401D02*
X0213063Y0062401D01*
X0213063Y0063975D02*
X0214638Y0063975D01*
X0214638Y0065548D02*
X0213063Y0065548D01*
X0213063Y0067121D02*
X0214638Y0067121D01*
X0214638Y0068695D02*
X0213063Y0068695D01*
X0213063Y0070268D02*
X0214638Y0070268D01*
X0214638Y0071841D02*
X0213063Y0071841D01*
X0213063Y0073414D02*
X0214638Y0073414D01*
X0214638Y0078134D02*
X0213063Y0078134D01*
X0213063Y0079708D02*
X0214638Y0079708D01*
X0214638Y0081281D02*
X0213063Y0081281D01*
X0213063Y0082854D02*
X0214638Y0082854D01*
X0214638Y0084428D02*
X0213063Y0084428D01*
X0213063Y0086001D02*
X0214638Y0086001D01*
X0214638Y0087574D02*
X0213063Y0087574D01*
X0213063Y0089148D02*
X0214638Y0089148D01*
X0226568Y0089148D02*
X0250276Y0089148D01*
X0249539Y0087574D02*
X0227387Y0087574D01*
X0227387Y0086001D02*
X0249539Y0086001D01*
X0249539Y0084428D02*
X0227387Y0084428D01*
X0227387Y0082854D02*
X0249539Y0082854D01*
X0249539Y0081281D02*
X0227387Y0081281D01*
X0227387Y0079708D02*
X0249539Y0079708D01*
X0249539Y0078134D02*
X0227387Y0078134D01*
X0200314Y0079708D02*
X0178161Y0079708D01*
X0178161Y0081281D02*
X0200314Y0081281D01*
X0200314Y0082854D02*
X0178161Y0082854D01*
X0178161Y0084428D02*
X0200314Y0084428D01*
X0200314Y0086001D02*
X0178161Y0086001D01*
X0178161Y0087574D02*
X0200314Y0087574D01*
X0201133Y0089148D02*
X0177424Y0089148D01*
X0275850Y0089148D02*
X0408929Y0089148D01*
X0408929Y0090721D02*
X0406277Y0090721D01*
X0406429Y0090832D02*
X0407017Y0091420D01*
X0407506Y0092093D01*
X0407884Y0092835D01*
X0408141Y0093626D01*
X0408272Y0094448D01*
X0408272Y0094652D01*
X0403197Y0094652D01*
X0403197Y0089577D01*
X0403400Y0089577D01*
X0404222Y0089707D01*
X0405014Y0089965D01*
X0405755Y0090342D01*
X0406429Y0090832D01*
X0407609Y0092294D02*
X0408929Y0092294D01*
X0408929Y0093868D02*
X0408180Y0093868D01*
X0408246Y0095441D02*
X0408929Y0095441D01*
X0408929Y0097014D02*
X0407823Y0097014D01*
X0406739Y0098588D02*
X0408929Y0098588D01*
X0408929Y0100161D02*
X0405399Y0100161D01*
X0403197Y0100161D02*
X0402772Y0100161D01*
X0402772Y0100152D02*
X0402772Y0095077D01*
X0403197Y0095077D01*
X0403197Y0104652D01*
X0402772Y0104652D01*
X0402772Y0100152D01*
X0402772Y0098588D02*
X0403197Y0098588D01*
X0403197Y0097014D02*
X0402772Y0097014D01*
X0402772Y0095441D02*
X0403197Y0095441D01*
X0403197Y0093868D02*
X0402772Y0093868D01*
X0402772Y0092294D02*
X0403197Y0092294D01*
X0403197Y0090721D02*
X0402772Y0090721D01*
X0399692Y0090721D02*
X0396300Y0090721D01*
X0397629Y0092294D02*
X0398360Y0092294D01*
X0408929Y0087574D02*
X0294773Y0087574D01*
X0294711Y0087725D02*
X0293877Y0088560D01*
X0292787Y0089011D01*
X0291607Y0089011D01*
X0290517Y0088560D01*
X0289683Y0087725D01*
X0289231Y0086636D01*
X0289231Y0085456D01*
X0289683Y0084366D01*
X0290517Y0083532D01*
X0291607Y0083080D01*
X0292787Y0083080D01*
X0293877Y0083532D01*
X0294711Y0084366D01*
X0295162Y0085456D01*
X0295162Y0086636D01*
X0294711Y0087725D01*
X0295162Y0086001D02*
X0408929Y0086001D01*
X0408929Y0084428D02*
X0294736Y0084428D01*
X0292787Y0081137D02*
X0291607Y0081137D01*
X0290517Y0080686D01*
X0289683Y0079851D01*
X0289231Y0078761D01*
X0289231Y0077582D01*
X0289683Y0076492D01*
X0290517Y0075658D01*
X0291607Y0075206D01*
X0292787Y0075206D01*
X0293877Y0075658D01*
X0294711Y0076492D01*
X0295162Y0077582D01*
X0295162Y0078761D01*
X0294711Y0079851D01*
X0293877Y0080686D01*
X0292787Y0081137D01*
X0294770Y0079708D02*
X0315783Y0079708D01*
X0315767Y0079747D02*
X0316218Y0078657D01*
X0317053Y0077823D01*
X0318142Y0077372D01*
X0319322Y0077372D01*
X0320412Y0077823D01*
X0320748Y0078159D01*
X0323409Y0078159D01*
X0323706Y0077862D01*
X0324796Y0077411D01*
X0325976Y0077411D01*
X0327066Y0077862D01*
X0327900Y0078697D01*
X0328351Y0079787D01*
X0328351Y0080966D01*
X0327900Y0082056D01*
X0327066Y0082890D01*
X0325976Y0083342D01*
X0324796Y0083342D01*
X0323706Y0082890D01*
X0323331Y0082515D01*
X0320748Y0082515D01*
X0320412Y0082851D01*
X0319322Y0083302D01*
X0318142Y0083302D01*
X0317053Y0082851D01*
X0316218Y0082017D01*
X0315767Y0080927D01*
X0315767Y0079747D01*
X0315914Y0081281D02*
X0276587Y0081281D01*
X0276587Y0079708D02*
X0289623Y0079708D01*
X0289231Y0078134D02*
X0276587Y0078134D01*
X0276587Y0076561D02*
X0289654Y0076561D01*
X0291607Y0073263D02*
X0290517Y0072812D01*
X0289683Y0071977D01*
X0289231Y0070887D01*
X0289231Y0069708D01*
X0289683Y0068618D01*
X0290517Y0067784D01*
X0291607Y0067332D01*
X0292787Y0067332D01*
X0293877Y0067784D01*
X0294711Y0068618D01*
X0295162Y0069708D01*
X0295162Y0070887D01*
X0294711Y0071977D01*
X0293877Y0072812D01*
X0292787Y0073263D01*
X0291607Y0073263D01*
X0289627Y0071841D02*
X0276587Y0071841D01*
X0276587Y0070268D02*
X0289231Y0070268D01*
X0289651Y0068695D02*
X0276587Y0068695D01*
X0276587Y0067121D02*
X0356687Y0067121D01*
X0356580Y0067015D02*
X0355770Y0065058D01*
X0355770Y0062939D01*
X0356580Y0060982D01*
X0358078Y0059484D01*
X0360035Y0058674D01*
X0362154Y0058674D01*
X0364111Y0059484D01*
X0365609Y0060982D01*
X0366419Y0062939D01*
X0366419Y0065058D01*
X0365609Y0067015D01*
X0364111Y0068513D01*
X0362154Y0069323D01*
X0360035Y0069323D01*
X0358078Y0068513D01*
X0356580Y0067015D01*
X0355973Y0065548D02*
X0276587Y0065548D01*
X0276587Y0063975D02*
X0355770Y0063975D01*
X0355993Y0062401D02*
X0275780Y0062401D01*
X0276587Y0073414D02*
X0350268Y0073414D01*
X0350268Y0073250D02*
X0344263Y0073250D01*
X0344335Y0072701D01*
X0344567Y0071835D01*
X0344910Y0071007D01*
X0345358Y0070231D01*
X0345904Y0069520D01*
X0346538Y0068886D01*
X0347249Y0068340D01*
X0348025Y0067892D01*
X0348853Y0067549D01*
X0349719Y0067317D01*
X0350268Y0067245D01*
X0350268Y0073250D01*
X0350268Y0074825D01*
X0350268Y0080830D01*
X0349719Y0080758D01*
X0348853Y0080526D01*
X0348025Y0080183D01*
X0347249Y0079735D01*
X0346538Y0079189D01*
X0345904Y0078555D01*
X0345358Y0077844D01*
X0344910Y0077068D01*
X0344567Y0076240D01*
X0344335Y0075374D01*
X0344263Y0074825D01*
X0350268Y0074825D01*
X0351843Y0074825D01*
X0351843Y0080830D01*
X0352392Y0080758D01*
X0353258Y0080526D01*
X0354086Y0080183D01*
X0354862Y0079735D01*
X0355573Y0079189D01*
X0356207Y0078555D01*
X0356753Y0077844D01*
X0357201Y0077068D01*
X0357544Y0076240D01*
X0357776Y0075374D01*
X0357848Y0074825D01*
X0351843Y0074825D01*
X0351843Y0073250D01*
X0357848Y0073250D01*
X0357776Y0072701D01*
X0357544Y0071835D01*
X0357201Y0071007D01*
X0356753Y0070231D01*
X0356207Y0069520D01*
X0355573Y0068886D01*
X0354862Y0068340D01*
X0354086Y0067892D01*
X0353258Y0067549D01*
X0352392Y0067317D01*
X0351843Y0067245D01*
X0351843Y0073250D01*
X0350268Y0073250D01*
X0350268Y0071841D02*
X0351843Y0071841D01*
X0351843Y0070268D02*
X0350268Y0070268D01*
X0350268Y0068695D02*
X0351843Y0068695D01*
X0355324Y0068695D02*
X0358518Y0068695D01*
X0356774Y0070268D02*
X0365415Y0070268D01*
X0365436Y0070231D02*
X0365982Y0069520D01*
X0366616Y0068886D01*
X0367327Y0068340D01*
X0368103Y0067892D01*
X0368931Y0067549D01*
X0369797Y0067317D01*
X0370346Y0067245D01*
X0370346Y0073250D01*
X0364341Y0073250D01*
X0364413Y0072701D01*
X0364645Y0071835D01*
X0364988Y0071007D01*
X0365436Y0070231D01*
X0364643Y0071841D02*
X0357546Y0071841D01*
X0357827Y0074988D02*
X0364362Y0074988D01*
X0364341Y0074825D02*
X0370346Y0074825D01*
X0370346Y0080830D01*
X0369797Y0080758D01*
X0368931Y0080526D01*
X0368103Y0080183D01*
X0367327Y0079735D01*
X0366616Y0079189D01*
X0365982Y0078555D01*
X0365436Y0077844D01*
X0364988Y0077068D01*
X0364645Y0076240D01*
X0364413Y0075374D01*
X0364341Y0074825D01*
X0364778Y0076561D02*
X0357411Y0076561D01*
X0356530Y0078134D02*
X0365659Y0078134D01*
X0367292Y0079708D02*
X0354897Y0079708D01*
X0351843Y0079708D02*
X0350268Y0079708D01*
X0350268Y0078134D02*
X0351843Y0078134D01*
X0351843Y0076561D02*
X0350268Y0076561D01*
X0350268Y0074988D02*
X0351843Y0074988D01*
X0351843Y0073414D02*
X0370346Y0073414D01*
X0370346Y0073250D02*
X0370346Y0074825D01*
X0371921Y0074825D01*
X0371921Y0080830D01*
X0372470Y0080758D01*
X0373336Y0080526D01*
X0374164Y0080183D01*
X0374940Y0079735D01*
X0375651Y0079189D01*
X0376285Y0078555D01*
X0376831Y0077844D01*
X0377279Y0077068D01*
X0377622Y0076240D01*
X0377854Y0075374D01*
X0377926Y0074825D01*
X0371921Y0074825D01*
X0371921Y0073250D01*
X0377926Y0073250D01*
X0377854Y0072701D01*
X0377622Y0071835D01*
X0377279Y0071007D01*
X0376831Y0070231D01*
X0376285Y0069520D01*
X0375651Y0068886D01*
X0374940Y0068340D01*
X0374164Y0067892D01*
X0373336Y0067549D01*
X0372470Y0067317D01*
X0371921Y0067245D01*
X0371921Y0073250D01*
X0370346Y0073250D01*
X0370346Y0071841D02*
X0371921Y0071841D01*
X0371921Y0070268D02*
X0370346Y0070268D01*
X0370346Y0068695D02*
X0371921Y0068695D01*
X0375402Y0068695D02*
X0408929Y0068695D01*
X0408929Y0070268D02*
X0376852Y0070268D01*
X0377624Y0071841D02*
X0408929Y0071841D01*
X0408929Y0073414D02*
X0371921Y0073414D01*
X0371921Y0074988D02*
X0370346Y0074988D01*
X0370346Y0076561D02*
X0371921Y0076561D01*
X0371921Y0078134D02*
X0370346Y0078134D01*
X0370346Y0079708D02*
X0371921Y0079708D01*
X0374975Y0079708D02*
X0408929Y0079708D01*
X0408929Y0081281D02*
X0328221Y0081281D01*
X0328319Y0079708D02*
X0347214Y0079708D01*
X0345581Y0078134D02*
X0327338Y0078134D01*
X0323434Y0078134D02*
X0320723Y0078134D01*
X0316741Y0078134D02*
X0295162Y0078134D01*
X0294739Y0076561D02*
X0344700Y0076561D01*
X0344284Y0074988D02*
X0276587Y0074988D01*
X0276587Y0082854D02*
X0317061Y0082854D01*
X0320404Y0082854D02*
X0323670Y0082854D01*
X0327101Y0082854D02*
X0408929Y0082854D01*
X0408929Y0078134D02*
X0376608Y0078134D01*
X0377489Y0076561D02*
X0408929Y0076561D01*
X0408929Y0074988D02*
X0377905Y0074988D01*
X0366865Y0068695D02*
X0363671Y0068695D01*
X0365502Y0067121D02*
X0408929Y0067121D01*
X0408929Y0065548D02*
X0366216Y0065548D01*
X0366419Y0063975D02*
X0397039Y0063975D01*
X0400741Y0063975D02*
X0408929Y0063975D01*
X0408929Y0062401D02*
X0405243Y0062401D01*
X0407605Y0060828D02*
X0408929Y0060828D01*
X0392537Y0062401D02*
X0366196Y0062401D01*
X0365454Y0060828D02*
X0390175Y0060828D01*
X0388601Y0059255D02*
X0375464Y0059255D01*
X0375651Y0059111D02*
X0374940Y0059657D01*
X0374164Y0060105D01*
X0373336Y0060448D01*
X0372470Y0060680D01*
X0371921Y0060752D01*
X0371921Y0054747D01*
X0370346Y0054747D01*
X0370346Y0060752D01*
X0369797Y0060680D01*
X0368931Y0060448D01*
X0368103Y0060105D01*
X0367327Y0059657D01*
X0366616Y0059111D01*
X0365982Y0058477D01*
X0365436Y0057766D01*
X0364988Y0056990D01*
X0364645Y0056162D01*
X0364413Y0055296D01*
X0364341Y0054747D01*
X0370346Y0054747D01*
X0370346Y0053172D01*
X0364341Y0053172D01*
X0364413Y0052623D01*
X0364645Y0051757D01*
X0364988Y0050929D01*
X0365436Y0050153D01*
X0365982Y0049442D01*
X0366616Y0048808D01*
X0367327Y0048262D01*
X0368103Y0047814D01*
X0368931Y0047471D01*
X0369797Y0047239D01*
X0370346Y0047167D01*
X0370346Y0053172D01*
X0371921Y0053172D01*
X0371921Y0054747D01*
X0377926Y0054747D01*
X0377854Y0055296D01*
X0377622Y0056162D01*
X0377279Y0056990D01*
X0376831Y0057766D01*
X0376285Y0058477D01*
X0375651Y0059111D01*
X0376880Y0057681D02*
X0387514Y0057681D01*
X0386606Y0056108D02*
X0377636Y0056108D01*
X0377926Y0053172D02*
X0371921Y0053172D01*
X0371921Y0047167D01*
X0372470Y0047239D01*
X0373336Y0047471D01*
X0374164Y0047814D01*
X0374940Y0048262D01*
X0375651Y0048808D01*
X0376285Y0049442D01*
X0376831Y0050153D01*
X0377279Y0050929D01*
X0377622Y0051757D01*
X0377854Y0052623D01*
X0377926Y0053172D01*
X0377898Y0052961D02*
X0385661Y0052961D01*
X0385504Y0051388D02*
X0377469Y0051388D01*
X0376571Y0049815D02*
X0385504Y0049815D01*
X0385667Y0048241D02*
X0374904Y0048241D01*
X0371921Y0048241D02*
X0370346Y0048241D01*
X0370346Y0049815D02*
X0371921Y0049815D01*
X0371921Y0051388D02*
X0370346Y0051388D01*
X0370346Y0052961D02*
X0371921Y0052961D01*
X0371921Y0054535D02*
X0386083Y0054535D01*
X0386089Y0046668D02*
X0041612Y0046668D01*
X0042034Y0048241D02*
X0347285Y0048241D01*
X0347249Y0048262D02*
X0348025Y0047814D01*
X0348853Y0047471D01*
X0349719Y0047239D01*
X0350268Y0047167D01*
X0350268Y0053172D01*
X0344263Y0053172D01*
X0344335Y0052623D01*
X0344567Y0051757D01*
X0344910Y0050929D01*
X0345358Y0050153D01*
X0345904Y0049442D01*
X0346538Y0048808D01*
X0347249Y0048262D01*
X0345617Y0049815D02*
X0042197Y0049815D01*
X0042197Y0051388D02*
X0344720Y0051388D01*
X0344291Y0052961D02*
X0294749Y0052961D01*
X0294711Y0052870D02*
X0295162Y0053960D01*
X0295162Y0055139D01*
X0294711Y0056229D01*
X0293877Y0057063D01*
X0292787Y0057515D01*
X0291607Y0057515D01*
X0290517Y0057063D01*
X0289683Y0056229D01*
X0289231Y0055139D01*
X0289231Y0053960D01*
X0289683Y0052870D01*
X0290517Y0052036D01*
X0291607Y0051584D01*
X0292787Y0051584D01*
X0293877Y0052036D01*
X0294711Y0052870D01*
X0295162Y0054535D02*
X0350268Y0054535D01*
X0350268Y0054747D02*
X0350268Y0053172D01*
X0351843Y0053172D01*
X0351843Y0054747D01*
X0350268Y0054747D01*
X0350268Y0060752D01*
X0349719Y0060680D01*
X0348853Y0060448D01*
X0348025Y0060105D01*
X0347249Y0059657D01*
X0346538Y0059111D01*
X0345904Y0058477D01*
X0345358Y0057766D01*
X0344910Y0056990D01*
X0344567Y0056162D01*
X0344335Y0055296D01*
X0344263Y0054747D01*
X0350268Y0054747D01*
X0350268Y0056108D02*
X0351843Y0056108D01*
X0351843Y0054747D02*
X0351843Y0060752D01*
X0352392Y0060680D01*
X0353258Y0060448D01*
X0354086Y0060105D01*
X0354862Y0059657D01*
X0355573Y0059111D01*
X0356207Y0058477D01*
X0356753Y0057766D01*
X0357201Y0056990D01*
X0357544Y0056162D01*
X0357776Y0055296D01*
X0357848Y0054747D01*
X0351843Y0054747D01*
X0351843Y0054535D02*
X0370346Y0054535D01*
X0370346Y0056108D02*
X0371921Y0056108D01*
X0371921Y0057681D02*
X0370346Y0057681D01*
X0370346Y0059255D02*
X0371921Y0059255D01*
X0366803Y0059255D02*
X0363556Y0059255D01*
X0365387Y0057681D02*
X0356802Y0057681D01*
X0357558Y0056108D02*
X0364631Y0056108D01*
X0364368Y0052961D02*
X0357820Y0052961D01*
X0357848Y0053172D02*
X0351843Y0053172D01*
X0351843Y0047167D01*
X0352392Y0047239D01*
X0353258Y0047471D01*
X0354086Y0047814D01*
X0354862Y0048262D01*
X0355573Y0048808D01*
X0356207Y0049442D01*
X0356753Y0050153D01*
X0357201Y0050929D01*
X0357544Y0051757D01*
X0357776Y0052623D01*
X0357848Y0053172D01*
X0357391Y0051388D02*
X0364798Y0051388D01*
X0365695Y0049815D02*
X0356494Y0049815D01*
X0354826Y0048241D02*
X0367362Y0048241D01*
X0351843Y0048241D02*
X0350268Y0048241D01*
X0350268Y0049815D02*
X0351843Y0049815D01*
X0351843Y0051388D02*
X0350268Y0051388D01*
X0350268Y0052961D02*
X0351843Y0052961D01*
X0351843Y0057681D02*
X0350268Y0057681D01*
X0350268Y0059255D02*
X0351843Y0059255D01*
X0355386Y0059255D02*
X0358633Y0059255D01*
X0356735Y0060828D02*
X0037526Y0060828D01*
X0039099Y0059255D02*
X0346725Y0059255D01*
X0345309Y0057681D02*
X0040186Y0057681D01*
X0041095Y0056108D02*
X0289633Y0056108D01*
X0289231Y0054535D02*
X0041618Y0054535D01*
X0042040Y0052961D02*
X0289645Y0052961D01*
X0294761Y0056108D02*
X0344553Y0056108D01*
X0346787Y0068695D02*
X0294742Y0068695D01*
X0295162Y0070268D02*
X0345337Y0070268D01*
X0344565Y0071841D02*
X0294767Y0071841D01*
X0289657Y0084428D02*
X0276587Y0084428D01*
X0276587Y0086001D02*
X0289231Y0086001D01*
X0289620Y0087574D02*
X0276587Y0087574D01*
X0310930Y0109601D02*
X0322867Y0109601D01*
X0328220Y0109601D02*
X0390635Y0109601D01*
X0389215Y0111174D02*
X0328509Y0111174D01*
X0327974Y0112747D02*
X0388152Y0112747D01*
X0387709Y0114321D02*
X0328627Y0114321D01*
X0328347Y0115894D02*
X0387709Y0115894D01*
X0388353Y0117467D02*
X0328433Y0117467D01*
X0328627Y0119041D02*
X0389701Y0119041D01*
X0389775Y0120614D02*
X0327767Y0120614D01*
X0389429Y0170960D02*
X0254229Y0170960D01*
X0252642Y0172533D02*
X0388240Y0172533D01*
X0387709Y0174107D02*
X0251069Y0174107D01*
X0249496Y0175680D02*
X0387709Y0175680D01*
X0388264Y0177253D02*
X0247922Y0177253D01*
X0246349Y0178827D02*
X0389487Y0178827D01*
X0388274Y0180400D02*
X0244776Y0180400D01*
X0243202Y0181973D02*
X0387160Y0181973D01*
X0386508Y0183547D02*
X0241629Y0183547D01*
X0240056Y0185120D02*
X0386497Y0185120D01*
X0386720Y0186693D02*
X0238482Y0186693D01*
X0236909Y0188266D02*
X0387371Y0188266D01*
X0388785Y0189840D02*
X0235336Y0189840D01*
X0227499Y0243332D02*
X0140433Y0243332D01*
X0142007Y0244906D02*
X0225926Y0244906D01*
X0224353Y0246479D02*
X0143580Y0246479D01*
X0145153Y0248052D02*
X0222779Y0248052D01*
X0216039Y0249626D02*
X0211662Y0249626D01*
X0213235Y0251199D02*
X0214466Y0251199D01*
X0206039Y0249626D02*
X0201662Y0249626D01*
X0203235Y0251199D02*
X0204466Y0251199D01*
X0196039Y0249626D02*
X0191662Y0249626D01*
X0193235Y0251199D02*
X0194466Y0251199D01*
X0186039Y0249626D02*
X0181662Y0249626D01*
X0183235Y0251199D02*
X0184466Y0251199D01*
X0176039Y0249626D02*
X0171662Y0249626D01*
X0173235Y0251199D02*
X0174466Y0251199D01*
X0166039Y0249626D02*
X0161662Y0249626D01*
X0163235Y0251199D02*
X0164466Y0251199D01*
X0156039Y0249626D02*
X0151662Y0249626D01*
X0153235Y0251199D02*
X0154466Y0251199D01*
X0148638Y0264061D02*
X0143563Y0264061D01*
X0139063Y0264061D01*
X0139063Y0264487D01*
X0148638Y0264487D01*
X0148638Y0269561D01*
X0146660Y0269561D01*
X0143850Y0266752D01*
X0141041Y0269561D01*
X0140019Y0269561D01*
X0144267Y0273809D01*
X0151449Y0273809D01*
X0151449Y0269153D01*
X0151041Y0269561D01*
X0149063Y0269561D01*
X0149063Y0264487D01*
X0148638Y0264487D01*
X0148638Y0264061D01*
X0148638Y0265359D02*
X0149063Y0265359D01*
X0149063Y0266932D02*
X0148638Y0266932D01*
X0148638Y0268505D02*
X0149063Y0268505D01*
X0151449Y0270079D02*
X0140536Y0270079D01*
X0142096Y0268505D02*
X0145604Y0268505D01*
X0144031Y0266932D02*
X0143670Y0266932D01*
X0142109Y0271652D02*
X0151449Y0271652D01*
X0151449Y0273225D02*
X0143683Y0273225D01*
X0134757Y0281092D02*
X0042098Y0281092D01*
X0042197Y0279519D02*
X0133184Y0279519D01*
X0131610Y0277945D02*
X0042197Y0277945D01*
X0041976Y0276372D02*
X0130037Y0276372D01*
X0128464Y0274799D02*
X0041554Y0274799D01*
X0040957Y0273225D02*
X0126890Y0273225D01*
X0125317Y0271652D02*
X0040049Y0271652D01*
X0038861Y0270079D02*
X0124461Y0270079D01*
X0123907Y0268505D02*
X0122096Y0268505D01*
X0119063Y0268505D02*
X0118638Y0268505D01*
X0118638Y0266932D02*
X0119063Y0266932D01*
X0119063Y0265359D02*
X0118638Y0265359D01*
X0118638Y0264487D02*
X0118638Y0264061D01*
X0113563Y0264061D01*
X0109063Y0264061D01*
X0109063Y0264487D01*
X0118638Y0264487D01*
X0115604Y0268505D02*
X0112096Y0268505D01*
X0113670Y0266932D02*
X0114031Y0266932D01*
X0109063Y0266932D02*
X0108638Y0266932D01*
X0108638Y0265359D02*
X0109063Y0265359D01*
X0108638Y0264487D02*
X0108638Y0264061D01*
X0103563Y0264061D01*
X0099063Y0264061D01*
X0099063Y0264487D01*
X0108638Y0264487D01*
X0108638Y0268505D02*
X0109063Y0268505D01*
X0105604Y0268505D02*
X0102096Y0268505D01*
X0103670Y0266932D02*
X0104031Y0266932D01*
X0099063Y0266932D02*
X0098638Y0266932D01*
X0098638Y0265359D02*
X0099063Y0265359D01*
X0098638Y0264487D02*
X0098638Y0264061D01*
X0093563Y0264061D01*
X0089063Y0264061D01*
X0089063Y0264487D01*
X0098638Y0264487D01*
X0098638Y0268505D02*
X0099063Y0268505D01*
X0095604Y0268505D02*
X0092096Y0268505D01*
X0093670Y0266932D02*
X0094031Y0266932D01*
X0089063Y0266932D02*
X0088638Y0266932D01*
X0088638Y0265359D02*
X0089063Y0265359D01*
X0089063Y0268505D02*
X0088638Y0268505D01*
X0085604Y0268505D02*
X0037288Y0268505D01*
X0034752Y0266932D02*
X0084031Y0266932D01*
X0083563Y0265359D02*
X0018772Y0265359D01*
X0018772Y0266932D02*
X0022871Y0266932D01*
X0020334Y0268505D02*
X0018772Y0268505D01*
X0018772Y0263786D02*
X0083563Y0263786D01*
X0083563Y0262212D02*
X0018772Y0262212D01*
X0018772Y0260639D02*
X0021181Y0260639D01*
X0020117Y0259066D02*
X0018772Y0259066D01*
X0018772Y0257492D02*
X0019902Y0257492D01*
X0020393Y0255919D02*
X0018772Y0255919D01*
X0018772Y0254346D02*
X0022152Y0254346D01*
X0025858Y0254346D02*
X0025858Y0254346D01*
X0025858Y0255919D02*
X0025858Y0255919D01*
X0025858Y0257492D02*
X0025858Y0257492D01*
X0025858Y0259066D02*
X0025858Y0259066D01*
X0025858Y0260639D02*
X0025858Y0260639D01*
X0036291Y0257042D02*
X0036291Y0253073D01*
X0036291Y0253073D01*
X0036291Y0253073D01*
X0042641Y0253073D01*
X0042641Y0253464D01*
X0042488Y0254231D01*
X0042189Y0254953D01*
X0041755Y0255603D01*
X0041202Y0256156D01*
X0040552Y0256590D01*
X0039830Y0256889D01*
X0039063Y0257042D01*
X0036291Y0257042D01*
X0036291Y0255919D02*
X0036291Y0255919D01*
X0036291Y0254346D02*
X0036291Y0254346D01*
X0036291Y0252772D02*
X0036291Y0252772D01*
X0036291Y0251199D02*
X0036291Y0251199D01*
X0036291Y0249626D02*
X0036291Y0249626D01*
X0040656Y0249626D02*
X0047774Y0249626D01*
X0049348Y0251199D02*
X0042192Y0251199D01*
X0042641Y0252772D02*
X0050921Y0252772D01*
X0052494Y0254346D02*
X0042441Y0254346D01*
X0041439Y0255919D02*
X0054068Y0255919D01*
X0055274Y0257125D02*
X0055274Y0257125D01*
X0041676Y0282665D02*
X0136330Y0282665D01*
X0137904Y0284239D02*
X0041219Y0284239D01*
X0040311Y0285812D02*
X0387390Y0285812D01*
X0386481Y0284239D02*
X0362351Y0284239D01*
X0363924Y0282665D02*
X0386025Y0282665D01*
X0385603Y0281092D02*
X0365497Y0281092D01*
X0367071Y0279519D02*
X0385504Y0279519D01*
X0385504Y0277945D02*
X0368644Y0277945D01*
X0370217Y0276372D02*
X0385725Y0276372D01*
X0386146Y0274799D02*
X0371790Y0274799D01*
X0373364Y0273225D02*
X0386743Y0273225D01*
X0387652Y0271652D02*
X0374937Y0271652D01*
X0376510Y0270079D02*
X0388840Y0270079D01*
X0390413Y0268505D02*
X0378084Y0268505D01*
X0379657Y0266932D02*
X0392949Y0266932D01*
X0385950Y0260639D02*
X0408929Y0260639D01*
X0408929Y0262212D02*
X0384377Y0262212D01*
X0382804Y0263786D02*
X0408929Y0263786D01*
X0408929Y0265359D02*
X0381230Y0265359D01*
X0387524Y0259066D02*
X0408929Y0259066D01*
X0408929Y0257492D02*
X0388557Y0257492D01*
X0389079Y0255919D02*
X0389971Y0255919D01*
X0392060Y0255919D02*
X0395182Y0255919D01*
X0402598Y0255919D02*
X0408929Y0255919D01*
X0408929Y0254346D02*
X0403465Y0254346D01*
X0403465Y0252772D02*
X0408929Y0252772D01*
X0408929Y0251199D02*
X0403465Y0251199D01*
X0403465Y0249626D02*
X0408929Y0249626D01*
X0408929Y0248052D02*
X0403465Y0248052D01*
X0408929Y0246479D02*
X0386385Y0246479D01*
X0385629Y0244906D02*
X0408929Y0244906D01*
X0408929Y0243332D02*
X0387203Y0243332D01*
X0388776Y0241759D02*
X0408929Y0241759D01*
X0408929Y0240186D02*
X0390349Y0240186D01*
X0391923Y0238613D02*
X0408929Y0238613D01*
X0408929Y0237039D02*
X0393496Y0237039D01*
X0395069Y0235466D02*
X0408929Y0235466D01*
X0408929Y0233893D02*
X0396643Y0233893D01*
X0398216Y0232319D02*
X0408929Y0232319D01*
X0408929Y0230746D02*
X0399789Y0230746D01*
X0403465Y0229173D02*
X0408929Y0229173D01*
X0408929Y0227599D02*
X0403465Y0227599D01*
X0403465Y0226026D02*
X0408929Y0226026D01*
X0408929Y0224453D02*
X0403465Y0224453D01*
X0403465Y0222879D02*
X0408929Y0222879D01*
X0408929Y0221306D02*
X0402613Y0221306D01*
X0408929Y0219733D02*
X0353052Y0219733D01*
X0353351Y0221306D02*
X0374376Y0221306D01*
X0375268Y0221306D02*
X0375268Y0221306D01*
X0375268Y0221222D02*
X0375268Y0225809D01*
X0375268Y0225809D01*
X0375268Y0221222D01*
X0376159Y0221306D02*
X0379460Y0221306D01*
X0375268Y0222879D02*
X0375268Y0222879D01*
X0375268Y0224453D02*
X0375268Y0224453D01*
X0375268Y0225809D02*
X0370680Y0225809D01*
X0375268Y0225809D01*
X0375268Y0225809D01*
X0375268Y0226026D02*
X0375268Y0226026D01*
X0375268Y0227599D02*
X0375268Y0227599D01*
X0375268Y0229173D02*
X0375268Y0229173D01*
X0372143Y0229173D02*
X0356814Y0229173D01*
X0357052Y0230746D02*
X0379936Y0230746D01*
X0383634Y0235466D02*
X0365446Y0235466D01*
X0365503Y0237039D02*
X0382060Y0237039D01*
X0380487Y0238613D02*
X0364493Y0238613D01*
X0364355Y0233893D02*
X0385207Y0233893D01*
X0386780Y0232319D02*
X0361823Y0232319D01*
X0356665Y0232319D02*
X0356298Y0232319D01*
X0357075Y0227599D02*
X0371031Y0227599D01*
X0370680Y0226026D02*
X0357328Y0226026D01*
X0356609Y0224453D02*
X0370885Y0224453D01*
X0371726Y0222879D02*
X0352746Y0222879D01*
X0350713Y0224192D02*
X0350713Y0224192D01*
X0351167Y0218159D02*
X0408929Y0218159D01*
X0395166Y0221306D02*
X0392098Y0221306D01*
X0389933Y0221306D02*
X0386823Y0221306D01*
X0386347Y0230746D02*
X0388353Y0230746D01*
X0372594Y0247672D02*
X0336094Y0247672D01*
X0336094Y0249552D01*
X0336660Y0248987D01*
X0338638Y0248987D01*
X0338638Y0254061D01*
X0339063Y0254061D01*
X0339063Y0248987D01*
X0341041Y0248987D01*
X0344138Y0252084D01*
X0344138Y0254061D01*
X0339063Y0254061D01*
X0339063Y0254487D01*
X0338638Y0254487D01*
X0338638Y0264061D01*
X0339063Y0264061D01*
X0339063Y0258987D01*
X0339063Y0254487D01*
X0344138Y0254487D01*
X0344138Y0256464D01*
X0341328Y0259274D01*
X0344138Y0262084D01*
X0344138Y0264061D01*
X0339063Y0264061D01*
X0339063Y0264487D01*
X0338638Y0264487D01*
X0338638Y0269561D01*
X0336660Y0269561D01*
X0333841Y0266743D01*
X0331035Y0269549D01*
X0326666Y0269549D01*
X0326521Y0269405D01*
X0322117Y0273809D01*
X0355987Y0273809D01*
X0373989Y0255808D01*
X0373507Y0255651D01*
X0372863Y0255323D01*
X0372279Y0254899D01*
X0371769Y0254388D01*
X0371344Y0253804D01*
X0371016Y0253161D01*
X0370793Y0252474D01*
X0370680Y0251761D01*
X0370680Y0251400D01*
X0370680Y0251039D01*
X0370793Y0250326D01*
X0371016Y0249639D01*
X0371344Y0248996D01*
X0371769Y0248412D01*
X0372279Y0247901D01*
X0372594Y0247672D01*
X0372128Y0248052D02*
X0336094Y0248052D01*
X0338638Y0249626D02*
X0339063Y0249626D01*
X0339063Y0251199D02*
X0338638Y0251199D01*
X0338638Y0252772D02*
X0339063Y0252772D01*
X0339063Y0254346D02*
X0371738Y0254346D01*
X0370890Y0252772D02*
X0344138Y0252772D01*
X0343253Y0251199D02*
X0370680Y0251199D01*
X0370680Y0251400D02*
X0375268Y0251400D01*
X0375268Y0251400D01*
X0370680Y0251400D01*
X0371023Y0249626D02*
X0341680Y0249626D01*
X0344138Y0255919D02*
X0373878Y0255919D01*
X0372305Y0257492D02*
X0343110Y0257492D01*
X0341536Y0259066D02*
X0370731Y0259066D01*
X0369158Y0260639D02*
X0342693Y0260639D01*
X0344138Y0262212D02*
X0367585Y0262212D01*
X0366011Y0263786D02*
X0344138Y0263786D01*
X0344138Y0264487D02*
X0344138Y0266464D01*
X0341041Y0269561D01*
X0339063Y0269561D01*
X0339063Y0264487D01*
X0344138Y0264487D01*
X0344138Y0265359D02*
X0364438Y0265359D01*
X0362865Y0266932D02*
X0343670Y0266932D01*
X0342096Y0268505D02*
X0361291Y0268505D01*
X0359718Y0270079D02*
X0325847Y0270079D01*
X0324274Y0271652D02*
X0358145Y0271652D01*
X0356571Y0273225D02*
X0322701Y0273225D01*
X0332079Y0268505D02*
X0335604Y0268505D01*
X0334031Y0266932D02*
X0333652Y0266932D01*
X0338638Y0266932D02*
X0339063Y0266932D01*
X0339063Y0265359D02*
X0338638Y0265359D01*
X0338638Y0263786D02*
X0339063Y0263786D01*
X0339063Y0262212D02*
X0338638Y0262212D01*
X0338638Y0260639D02*
X0339063Y0260639D01*
X0339063Y0259066D02*
X0338638Y0259066D01*
X0338638Y0257492D02*
X0339063Y0257492D01*
X0339063Y0255919D02*
X0338638Y0255919D01*
X0338638Y0268505D02*
X0339063Y0268505D01*
X0388386Y0287385D02*
X0039315Y0287385D01*
X0037742Y0288959D02*
X0389959Y0288959D01*
X0404830Y0266932D02*
X0408929Y0266932D01*
X0408929Y0268505D02*
X0407367Y0268505D01*
X0394315Y0248052D02*
X0394138Y0248052D01*
X0397184Y0189840D02*
X0398785Y0189840D01*
X0402772Y0163093D02*
X0403197Y0163093D01*
X0403197Y0161520D02*
X0402772Y0161520D01*
X0402772Y0159947D02*
X0403197Y0159947D01*
X0403197Y0158373D02*
X0402772Y0158373D01*
X0402772Y0156800D02*
X0403197Y0156800D01*
X0403197Y0155227D02*
X0402772Y0155227D01*
X0402772Y0154652D02*
X0403197Y0154652D01*
X0403197Y0145077D01*
X0402772Y0145077D01*
X0402772Y0150152D01*
X0402772Y0154652D01*
X0402772Y0153654D02*
X0403197Y0153654D01*
X0403197Y0152080D02*
X0402772Y0152080D01*
X0402772Y0150507D02*
X0403197Y0150507D01*
X0403197Y0148934D02*
X0402772Y0148934D01*
X0402772Y0147360D02*
X0403197Y0147360D01*
X0403197Y0145787D02*
X0402772Y0145787D01*
X0402772Y0144652D02*
X0403197Y0144652D01*
X0403197Y0135077D01*
X0402772Y0135077D01*
X0402772Y0140152D01*
X0402772Y0144652D01*
X0402772Y0144214D02*
X0403197Y0144214D01*
X0403197Y0142640D02*
X0402772Y0142640D01*
X0402772Y0141067D02*
X0403197Y0141067D01*
X0403197Y0139494D02*
X0402772Y0139494D01*
X0402772Y0137920D02*
X0403197Y0137920D01*
X0403197Y0136347D02*
X0402772Y0136347D01*
X0403197Y0134774D02*
X0408929Y0134774D01*
X0408929Y0136347D02*
X0408062Y0136347D01*
X0407300Y0137920D02*
X0408929Y0137920D01*
X0408929Y0139494D02*
X0405546Y0139494D01*
X0406664Y0141067D02*
X0408929Y0141067D01*
X0408929Y0142640D02*
X0407785Y0142640D01*
X0408234Y0144214D02*
X0408929Y0144214D01*
X0408929Y0145787D02*
X0408191Y0145787D01*
X0407647Y0147360D02*
X0408929Y0147360D01*
X0408929Y0148934D02*
X0406379Y0148934D01*
X0405982Y0150507D02*
X0408929Y0150507D01*
X0408929Y0152080D02*
X0407497Y0152080D01*
X0408146Y0153654D02*
X0408929Y0153654D01*
X0408929Y0155227D02*
X0408272Y0155227D01*
X0407915Y0156800D02*
X0408929Y0156800D01*
X0408929Y0158373D02*
X0406953Y0158373D01*
X0408929Y0159947D02*
X0404959Y0159947D01*
X0407090Y0161520D02*
X0408929Y0161520D01*
X0408929Y0163093D02*
X0407968Y0163093D01*
X0403197Y0134652D02*
X0403197Y0125077D01*
X0402772Y0125077D01*
X0402772Y0130152D01*
X0402772Y0134652D01*
X0403197Y0134652D01*
X0403197Y0133200D02*
X0402772Y0133200D01*
X0402772Y0131627D02*
X0403197Y0131627D01*
X0403197Y0130054D02*
X0402772Y0130054D01*
X0402772Y0128480D02*
X0403197Y0128480D01*
X0403197Y0126907D02*
X0402772Y0126907D01*
X0402772Y0125334D02*
X0403197Y0125334D01*
X0403197Y0124652D02*
X0403197Y0115077D01*
X0402772Y0115077D01*
X0402772Y0120152D01*
X0402772Y0124652D01*
X0403197Y0124652D01*
X0403197Y0123761D02*
X0402772Y0123761D01*
X0402772Y0122187D02*
X0403197Y0122187D01*
X0403197Y0120614D02*
X0402772Y0120614D01*
X0402772Y0119041D02*
X0403197Y0119041D01*
X0403197Y0117467D02*
X0402772Y0117467D01*
X0402772Y0115894D02*
X0403197Y0115894D01*
X0403197Y0114652D02*
X0403197Y0105077D01*
X0402772Y0105077D01*
X0402772Y0110152D01*
X0402772Y0114652D01*
X0403197Y0114652D01*
X0403197Y0114321D02*
X0402772Y0114321D01*
X0402772Y0112747D02*
X0403197Y0112747D01*
X0403197Y0111174D02*
X0402772Y0111174D01*
X0402772Y0109601D02*
X0403197Y0109601D01*
X0403197Y0108027D02*
X0402772Y0108027D01*
X0402772Y0106454D02*
X0403197Y0106454D01*
X0403197Y0104881D02*
X0408929Y0104881D01*
X0408929Y0106454D02*
X0408027Y0106454D01*
X0407222Y0108027D02*
X0408929Y0108027D01*
X0408929Y0109601D02*
X0405335Y0109601D01*
X0406771Y0111174D02*
X0408929Y0111174D01*
X0408929Y0112747D02*
X0407840Y0112747D01*
X0408251Y0114321D02*
X0408929Y0114321D01*
X0408929Y0115894D02*
X0408175Y0115894D01*
X0407592Y0117467D02*
X0408929Y0117467D01*
X0408929Y0119041D02*
X0406232Y0119041D01*
X0406129Y0120614D02*
X0408929Y0120614D01*
X0408929Y0122187D02*
X0407554Y0122187D01*
X0408163Y0123761D02*
X0408929Y0123761D01*
X0408929Y0125334D02*
X0408263Y0125334D01*
X0407878Y0126907D02*
X0408929Y0126907D01*
X0408929Y0128480D02*
X0406846Y0128480D01*
X0405189Y0130054D02*
X0408929Y0130054D01*
X0408929Y0131627D02*
X0407168Y0131627D01*
X0408003Y0133200D02*
X0408929Y0133200D01*
X0408929Y0103307D02*
X0408038Y0103307D01*
X0407245Y0101734D02*
X0408929Y0101734D01*
X0403197Y0101734D02*
X0402772Y0101734D01*
X0402772Y0103307D02*
X0403197Y0103307D01*
X0386619Y0045095D02*
X0041082Y0045095D01*
X0040174Y0043522D02*
X0387527Y0043522D01*
X0388624Y0041948D02*
X0039077Y0041948D01*
X0038789Y0074988D02*
X0018772Y0074988D01*
X0018772Y0076561D02*
X0038177Y0076561D01*
X0038058Y0078134D02*
X0018772Y0078134D01*
X0018772Y0079708D02*
X0038411Y0079708D01*
X0039321Y0081281D02*
X0018772Y0081281D01*
X0018772Y0082854D02*
X0041436Y0082854D01*
X0040160Y0183547D02*
X0030975Y0183547D01*
X0031723Y0185120D02*
X0040354Y0185120D01*
X0040354Y0186693D02*
X0031740Y0186693D01*
X0036291Y0188266D02*
X0036291Y0188266D01*
X0036291Y0189840D02*
X0036291Y0189840D01*
X0036291Y0191413D02*
X0036291Y0191413D01*
X0036291Y0192986D02*
X0036291Y0192986D01*
X0036291Y0194560D02*
X0036291Y0194560D01*
X0039468Y0194560D02*
X0040354Y0194560D01*
X0025858Y0188266D02*
X0025858Y0188266D01*
X0025858Y0186693D02*
X0025858Y0186693D01*
X0025858Y0185120D02*
X0025858Y0185120D01*
X0025858Y0183547D02*
X0025858Y0183547D01*
X0025858Y0211866D02*
X0025858Y0211866D01*
X0025858Y0213439D02*
X0025858Y0213439D01*
X0025858Y0215013D02*
X0025858Y0215013D01*
X0025858Y0216586D02*
X0025858Y0216586D01*
X0025858Y0218159D02*
X0025858Y0218159D01*
X0025858Y0226026D02*
X0025858Y0226026D01*
X0025858Y0227599D02*
X0025858Y0227599D01*
X0025858Y0229173D02*
X0025858Y0229173D01*
X0025858Y0230746D02*
X0025858Y0230746D01*
X0025858Y0232319D02*
X0025858Y0232319D01*
D22*
X0046291Y0239746D02*
X0060307Y0253762D01*
X0088339Y0253762D01*
X0088850Y0254274D01*
X0098850Y0254274D02*
X0098850Y0249392D01*
X0094953Y0245494D01*
X0092586Y0245494D01*
X0092516Y0245424D01*
X0071654Y0245424D01*
X0057157Y0230928D01*
X0057157Y0219515D01*
X0057157Y0170298D01*
X0048890Y0162030D01*
X0048890Y0129746D01*
X0053220Y0125416D01*
X0065031Y0113605D01*
X0036154Y0120035D02*
X0036154Y0171145D01*
X0046291Y0181282D01*
X0046291Y0239746D01*
X0081567Y0211636D02*
X0108732Y0238802D01*
X0108732Y0254156D01*
X0108850Y0254274D01*
X0118575Y0253998D02*
X0118850Y0254274D01*
X0118575Y0253998D02*
X0118575Y0235652D01*
X0092984Y0210061D01*
X0092984Y0143132D01*
X0092984Y0130534D01*
X0104402Y0130928D02*
X0104402Y0143526D01*
X0104441Y0143565D01*
X0104441Y0179668D01*
X0104441Y0208132D01*
X0128811Y0232502D01*
X0128811Y0254235D01*
X0128850Y0254274D01*
X0128850Y0264274D01*
X0130001Y0265424D01*
X0130001Y0267940D01*
X0141808Y0279746D01*
X0358447Y0279746D01*
X0383142Y0255051D01*
X0081567Y0211636D02*
X0081567Y0164786D01*
X0068477Y0151696D01*
X0060638Y0151696D01*
D23*
X0112276Y0148250D02*
X0112276Y0206987D01*
X0135161Y0229872D01*
X0135161Y0242002D01*
X0147433Y0254274D01*
X0148850Y0254274D01*
D24*
X0383142Y0255051D02*
X0383142Y0251400D01*
D25*
X0381961Y0245494D02*
X0398890Y0228565D01*
X0398890Y0225809D01*
X0391016Y0225809D02*
X0391016Y0231164D01*
X0380228Y0241951D01*
X0270150Y0241951D01*
X0263850Y0248250D01*
X0263850Y0259274D01*
X0268850Y0264274D01*
X0268850Y0254274D02*
X0268850Y0248586D01*
X0271942Y0245494D01*
X0381961Y0245494D01*
X0362591Y0236321D02*
X0360504Y0238408D01*
X0268181Y0238408D01*
X0258850Y0247739D01*
X0258850Y0254274D01*
X0258732Y0254156D01*
X0258732Y0250613D01*
X0248850Y0253014D02*
X0248850Y0254274D01*
X0248850Y0253014D02*
X0267000Y0234865D01*
X0358220Y0234865D01*
X0359244Y0233841D01*
X0354087Y0230337D02*
X0353772Y0230337D01*
X0353575Y0230534D01*
X0263063Y0230534D01*
X0239323Y0254274D01*
X0238850Y0254274D01*
X0233960Y0257669D02*
X0233960Y0249794D01*
X0257157Y0226597D01*
X0354165Y0226597D01*
X0354362Y0226400D01*
X0350386Y0221439D02*
X0348535Y0223290D01*
X0250622Y0223290D01*
X0223693Y0250219D01*
X0223693Y0252200D01*
X0223741Y0252248D01*
X0223741Y0267196D01*
X0226843Y0270298D01*
X0242591Y0270298D01*
X0248614Y0264274D01*
X0248850Y0264274D01*
X0238850Y0264274D02*
X0233929Y0259353D01*
X0233929Y0257699D01*
X0233960Y0257669D01*
X0203741Y0259165D02*
X0203741Y0270818D01*
X0204402Y0271479D01*
X0203741Y0259165D02*
X0198850Y0254274D01*
X0207551Y0204156D02*
X0122512Y0204156D01*
X0057157Y0217542D02*
X0055583Y0215967D01*
X0057157Y0217542D02*
X0057157Y0219515D01*
X0060638Y0131715D02*
X0063000Y0129353D01*
X0086048Y0129353D01*
X0090607Y0124794D01*
X0131795Y0124794D01*
X0140622Y0115967D01*
X0140622Y0089195D01*
X0137472Y0086046D01*
X0135898Y0086046D01*
X0253220Y0168875D02*
X0217940Y0204156D01*
X0213850Y0204156D01*
X0314520Y0118723D02*
X0325465Y0118723D01*
X0325661Y0118526D01*
X0325071Y0115219D02*
X0325661Y0114628D01*
X0325071Y0115219D02*
X0312787Y0115219D01*
X0309244Y0112109D02*
X0324323Y0112109D01*
X0325543Y0110888D01*
X0325386Y0080376D02*
X0325346Y0080337D01*
X0318732Y0080337D01*
X0383811Y0134943D02*
X0392906Y0134943D01*
X0392984Y0134865D01*
X0384638Y0146046D02*
X0378142Y0146046D01*
X0384638Y0146046D02*
X0387748Y0149156D01*
X0350386Y0221046D02*
X0350386Y0221439D01*
D26*
X0328850Y0264274D02*
X0318921Y0274203D01*
X0195740Y0274203D01*
X0194197Y0272660D01*
X0192591Y0272660D01*
X0096528Y0238014D02*
X0068181Y0209668D01*
X0068181Y0175809D01*
D27*
X0207551Y0204156D02*
X0213850Y0204156D01*
X0253220Y0168875D02*
X0253220Y0158093D01*
D28*
X0243200Y0158093D02*
X0242209Y0159083D01*
X0242209Y0164723D01*
X0210638Y0196294D01*
X0121331Y0196294D01*
X0120340Y0197285D01*
X0119362Y0197285D01*
X0121331Y0194694D02*
X0120340Y0193704D01*
X0119362Y0193704D01*
X0121331Y0194694D02*
X0209976Y0194694D01*
X0240609Y0164061D01*
X0240609Y0159083D01*
X0239619Y0158093D01*
D29*
X0398890Y0050613D03*
X0398890Y0278959D03*
X0028811Y0278959D03*
X0028811Y0050613D03*
D30*
X0060638Y0131715D03*
X0300465Y0101794D03*
M02*
