G75*
%MOIN*%
%OFA0B0*%
%FSLAX25Y25*%
%IPPOS*%
%LPD*%
%AMOC8*
5,1,8,0,0,1.08239X$1,22.5*
%
%ADD10C,0.00800*%
%ADD11C,0.00600*%
%ADD12C,0.01200*%
%ADD13R,0.00020X0.00020*%
%ADD14R,0.00020X0.00020*%
%ADD15R,0.00040X0.00020*%
%ADD16R,0.00060X0.00020*%
%ADD17R,0.00060X0.00020*%
%ADD18R,0.00080X0.00020*%
%ADD19R,0.00100X0.00020*%
%ADD20R,0.00100X0.00020*%
%ADD21R,0.00120X0.00020*%
%ADD22R,0.00140X0.00020*%
%ADD23R,0.00140X0.00020*%
%ADD24R,0.00180X0.00020*%
%ADD25R,0.00180X0.00020*%
%ADD26R,0.00200X0.00020*%
%ADD27R,0.00220X0.00020*%
%ADD28R,0.00220X0.00020*%
%ADD29R,0.00240X0.00020*%
%ADD30R,0.00260X0.00020*%
%ADD31R,0.00260X0.00020*%
%ADD32R,0.00300X0.00020*%
%ADD33R,0.00300X0.00020*%
%ADD34R,0.00320X0.00020*%
%ADD35R,0.00340X0.00020*%
%ADD36R,0.00340X0.00020*%
%ADD37R,0.00360X0.00020*%
%ADD38R,0.00380X0.00020*%
%ADD39R,0.00380X0.00020*%
%ADD40R,0.00420X0.00020*%
%ADD41R,0.00420X0.00020*%
%ADD42R,0.00440X0.00020*%
%ADD43R,0.00460X0.00020*%
%ADD44R,0.00460X0.00020*%
%ADD45R,0.00480X0.00020*%
%ADD46R,0.00500X0.00020*%
%ADD47R,0.00500X0.00020*%
%ADD48R,0.00540X0.00020*%
%ADD49R,0.00540X0.00020*%
%ADD50R,0.00560X0.00020*%
%ADD51R,0.00580X0.00020*%
%ADD52R,0.00620X0.00020*%
%ADD53R,0.00600X0.00020*%
%ADD54R,0.00580X0.00020*%
%ADD55R,0.00980X0.00020*%
%ADD56R,0.01000X0.00020*%
%ADD57R,0.01220X0.00020*%
%ADD58R,0.01260X0.00020*%
%ADD59R,0.01420X0.00020*%
%ADD60R,0.00880X0.00020*%
%ADD61R,0.01460X0.00020*%
%ADD62R,0.01620X0.00020*%
%ADD63R,0.01080X0.00020*%
%ADD64R,0.01640X0.00020*%
%ADD65R,0.00620X0.00020*%
%ADD66R,0.01760X0.00020*%
%ADD67R,0.01780X0.00020*%
%ADD68R,0.01800X0.00020*%
%ADD69R,0.00620X0.00020*%
%ADD70R,0.01900X0.00020*%
%ADD71R,0.01400X0.00020*%
%ADD72R,0.01940X0.00020*%
%ADD73R,0.00700X0.00020*%
%ADD74R,0.02040X0.00020*%
%ADD75R,0.00660X0.00020*%
%ADD76R,0.01540X0.00020*%
%ADD77R,0.02020X0.00020*%
%ADD78R,0.02080X0.00020*%
%ADD79R,0.00700X0.00020*%
%ADD80R,0.02160X0.00020*%
%ADD81R,0.00640X0.00020*%
%ADD82R,0.00660X0.00020*%
%ADD83R,0.01660X0.00020*%
%ADD84R,0.02200X0.00020*%
%ADD85R,0.02260X0.00020*%
%ADD86R,0.00640X0.00020*%
%ADD87R,0.02320X0.00020*%
%ADD88R,0.02380X0.00020*%
%ADD89R,0.01860X0.00020*%
%ADD90R,0.02420X0.00020*%
%ADD91R,0.02480X0.00020*%
%ADD92R,0.01960X0.00020*%
%ADD93R,0.02520X0.00020*%
%ADD94R,0.02580X0.00020*%
%ADD95R,0.02040X0.00020*%
%ADD96R,0.02620X0.00020*%
%ADD97R,0.00680X0.00020*%
%ADD98R,0.02660X0.00020*%
%ADD99R,0.02120X0.00020*%
%ADD100R,0.02700X0.00020*%
%ADD101R,0.02740X0.00020*%
%ADD102R,0.02160X0.00020*%
%ADD103R,0.02760X0.00020*%
%ADD104R,0.02800X0.00020*%
%ADD105R,0.02840X0.00020*%
%ADD106R,0.02200X0.00020*%
%ADD107R,0.02880X0.00020*%
%ADD108R,0.02920X0.00020*%
%ADD109R,0.02220X0.00020*%
%ADD110R,0.02980X0.00020*%
%ADD111R,0.03000X0.00020*%
%ADD112R,0.03060X0.00020*%
%ADD113R,0.00720X0.00020*%
%ADD114R,0.03060X0.00020*%
%ADD115R,0.02280X0.00020*%
%ADD116R,0.03080X0.00020*%
%ADD117R,0.03120X0.00020*%
%ADD118R,0.00740X0.00020*%
%ADD119R,0.03140X0.00020*%
%ADD120R,0.03160X0.00020*%
%ADD121R,0.03180X0.00020*%
%ADD122R,0.03220X0.00020*%
%ADD123R,0.02340X0.00020*%
%ADD124R,0.03260X0.00020*%
%ADD125R,0.00740X0.00020*%
%ADD126R,0.03280X0.00020*%
%ADD127R,0.02360X0.00020*%
%ADD128R,0.03340X0.00020*%
%ADD129R,0.03340X0.00020*%
%ADD130R,0.02400X0.00020*%
%ADD131R,0.03360X0.00020*%
%ADD132R,0.03400X0.00020*%
%ADD133R,0.00780X0.00020*%
%ADD134R,0.03400X0.00020*%
%ADD135R,0.02420X0.00020*%
%ADD136R,0.03440X0.00020*%
%ADD137R,0.03460X0.00020*%
%ADD138R,0.00780X0.00020*%
%ADD139R,0.03480X0.00020*%
%ADD140R,0.02440X0.00020*%
%ADD141R,0.03540X0.00020*%
%ADD142R,0.03520X0.00020*%
%ADD143R,0.02460X0.00020*%
%ADD144R,0.03560X0.00020*%
%ADD145R,0.03580X0.00020*%
%ADD146R,0.03600X0.00020*%
%ADD147R,0.03660X0.00020*%
%ADD148R,0.00080X0.00020*%
%ADD149R,0.00800X0.00020*%
%ADD150R,0.03640X0.00020*%
%ADD151R,0.02500X0.00020*%
%ADD152R,0.03680X0.00020*%
%ADD153R,0.03720X0.00020*%
%ADD154R,0.00820X0.00020*%
%ADD155R,0.03680X0.00020*%
%ADD156R,0.03720X0.00020*%
%ADD157R,0.03780X0.00020*%
%ADD158R,0.00120X0.00020*%
%ADD159R,0.00820X0.00020*%
%ADD160R,0.03760X0.00020*%
%ADD161R,0.02540X0.00020*%
%ADD162R,0.03800X0.00020*%
%ADD163R,0.03820X0.00020*%
%ADD164R,0.00140X0.00020*%
%ADD165R,0.02560X0.00020*%
%ADD166R,0.01740X0.00020*%
%ADD167R,0.01740X0.00020*%
%ADD168R,0.01820X0.00020*%
%ADD169R,0.01700X0.00020*%
%ADD170R,0.01640X0.00020*%
%ADD171R,0.02580X0.00020*%
%ADD172R,0.01620X0.00020*%
%ADD173R,0.01560X0.00020*%
%ADD174R,0.01580X0.00020*%
%ADD175R,0.01620X0.00020*%
%ADD176R,0.00840X0.00020*%
%ADD177R,0.01560X0.00020*%
%ADD178R,0.01500X0.00020*%
%ADD179R,0.01480X0.00020*%
%ADD180R,0.01540X0.00020*%
%ADD181R,0.00200X0.00020*%
%ADD182R,0.00860X0.00020*%
%ADD183R,0.01440X0.00020*%
%ADD184R,0.00860X0.00020*%
%ADD185R,0.01420X0.00020*%
%ADD186R,0.01320X0.00020*%
%ADD187R,0.01400X0.00020*%
%ADD188R,0.01340X0.00020*%
%ADD189R,0.01360X0.00020*%
%ADD190R,0.01380X0.00020*%
%ADD191R,0.00220X0.00020*%
%ADD192R,0.01200X0.00020*%
%ADD193R,0.00540X0.00020*%
%ADD194R,0.01320X0.00020*%
%ADD195R,0.00240X0.00020*%
%ADD196R,0.01300X0.00020*%
%ADD197R,0.01220X0.00020*%
%ADD198R,0.01140X0.00020*%
%ADD199R,0.01320X0.00020*%
%ADD200R,0.01280X0.00020*%
%ADD201R,0.00900X0.00020*%
%ADD202R,0.00280X0.00020*%
%ADD203R,0.01160X0.00020*%
%ADD204R,0.01280X0.00020*%
%ADD205R,0.01240X0.00020*%
%ADD206R,0.01240X0.00020*%
%ADD207R,0.00280X0.00020*%
%ADD208R,0.00900X0.00020*%
%ADD209R,0.01240X0.00020*%
%ADD210R,0.01120X0.00020*%
%ADD211R,0.01040X0.00020*%
%ADD212R,0.01200X0.00020*%
%ADD213R,0.01220X0.00020*%
%ADD214R,0.01020X0.00020*%
%ADD215R,0.01220X0.00020*%
%ADD216R,0.01180X0.00020*%
%ADD217R,0.00320X0.00020*%
%ADD218R,0.01040X0.00020*%
%ADD219R,0.00980X0.00020*%
%ADD220R,0.00340X0.00020*%
%ADD221R,0.00920X0.00020*%
%ADD222R,0.01020X0.00020*%
%ADD223R,0.00960X0.00020*%
%ADD224R,0.00160X0.00020*%
%ADD225R,0.01180X0.00020*%
%ADD226R,0.01140X0.00020*%
%ADD227R,0.00340X0.00020*%
%ADD228R,0.00940X0.00020*%
%ADD229R,0.01100X0.00020*%
%ADD230R,0.00920X0.00020*%
%ADD231R,0.01120X0.00020*%
%ADD232R,0.00940X0.00020*%
%ADD233R,0.01080X0.00020*%
%ADD234R,0.00920X0.00020*%
%ADD235R,0.01100X0.00020*%
%ADD236R,0.00400X0.00020*%
%ADD237R,0.01060X0.00020*%
%ADD238R,0.00940X0.00020*%
%ADD239R,0.00880X0.00020*%
%ADD240R,0.01120X0.00020*%
%ADD241R,0.00440X0.00020*%
%ADD242R,0.00420X0.00020*%
%ADD243R,0.01040X0.00020*%
%ADD244R,0.00440X0.00020*%
%ADD245R,0.01020X0.00020*%
%ADD246R,0.00840X0.00020*%
%ADD247R,0.00480X0.00020*%
%ADD248R,0.01060X0.00020*%
%ADD249R,0.00820X0.00020*%
%ADD250R,0.01040X0.00020*%
%ADD251R,0.01000X0.00020*%
%ADD252R,0.01020X0.00020*%
%ADD253R,0.00520X0.00020*%
%ADD254R,0.00940X0.00020*%
%ADD255R,0.00820X0.00020*%
%ADD256R,0.00800X0.00020*%
%ADD257R,0.00960X0.00020*%
%ADD258R,0.00540X0.00020*%
%ADD259R,0.00760X0.00020*%
%ADD260R,0.00760X0.00020*%
%ADD261R,0.00740X0.00020*%
%ADD262R,0.00600X0.00020*%
%ADD263R,0.00920X0.00020*%
%ADD264R,0.00740X0.00020*%
%ADD265R,0.00680X0.00020*%
%ADD266R,0.00840X0.00020*%
%ADD267R,0.01340X0.00020*%
%ADD268R,0.01300X0.00020*%
%ADD269R,0.00720X0.00020*%
%ADD270R,0.00720X0.00020*%
%ADD271R,0.01140X0.00020*%
%ADD272R,0.00720X0.00020*%
%ADD273R,0.00840X0.00020*%
%ADD274R,0.01140X0.00020*%
%ADD275R,0.00520X0.00020*%
%ADD276R,0.00140X0.00020*%
%ADD277R,0.00040X0.00020*%
%ADD278R,0.01260X0.00020*%
%ADD279R,0.00020X0.00020*%
%ADD280R,0.01160X0.00020*%
%ADD281R,0.01340X0.00020*%
%ADD282R,0.01340X0.00020*%
%ADD283R,0.01380X0.00020*%
%ADD284R,0.01320X0.00020*%
%ADD285R,0.01360X0.00020*%
%ADD286R,0.01420X0.00020*%
%ADD287R,0.01440X0.00020*%
%ADD288R,0.01460X0.00020*%
%ADD289R,0.01500X0.00020*%
%ADD290R,0.01520X0.00020*%
%ADD291R,0.01540X0.00020*%
%ADD292R,0.01580X0.00020*%
%ADD293R,0.01600X0.00020*%
%ADD294R,0.01660X0.00020*%
%ADD295R,0.01680X0.00020*%
%ADD296R,0.01700X0.00020*%
%ADD297R,0.00160X0.00020*%
%ADD298R,0.01720X0.00020*%
%ADD299R,0.01780X0.00020*%
%ADD300R,0.01760X0.00020*%
%ADD301R,0.01820X0.00020*%
%ADD302R,0.01860X0.00020*%
%ADD303R,0.01880X0.00020*%
%ADD304R,0.00620X0.00020*%
%ADD305R,0.01920X0.00020*%
%ADD306R,0.01940X0.00020*%
%ADD307R,0.01920X0.00020*%
%ADD308R,0.01980X0.00020*%
%ADD309R,0.01960X0.00020*%
%ADD310R,0.01980X0.00020*%
%ADD311R,0.02000X0.00020*%
%ADD312R,0.02020X0.00020*%
%ADD313R,0.02040X0.00020*%
%ADD314R,0.02060X0.00020*%
%ADD315R,0.02060X0.00020*%
%ADD316R,0.02080X0.00020*%
%ADD317R,0.02100X0.00020*%
%ADD318R,0.02120X0.00020*%
%ADD319R,0.02140X0.00020*%
%ADD320R,0.02180X0.00020*%
%ADD321R,0.02180X0.00020*%
%ADD322R,0.02220X0.00020*%
%ADD323R,0.02220X0.00020*%
%ADD324R,0.02240X0.00020*%
%ADD325R,0.02260X0.00020*%
%ADD326R,0.02280X0.00020*%
%ADD327R,0.02300X0.00020*%
%ADD328R,0.02320X0.00020*%
%ADD329R,0.02340X0.00020*%
%ADD330R,0.02440X0.00020*%
%ADD331R,0.06060X0.00020*%
%ADD332R,0.06060X0.00020*%
%ADD333R,0.02480X0.00020*%
%ADD334R,0.04980X0.00020*%
%ADD335R,0.04980X0.00020*%
%ADD336R,0.04940X0.00020*%
%ADD337R,0.06080X0.00020*%
%ADD338R,0.04920X0.00020*%
%ADD339R,0.06100X0.00020*%
%ADD340R,0.04900X0.00020*%
%ADD341R,0.04860X0.00020*%
%ADD342R,0.06100X0.00020*%
%ADD343R,0.04840X0.00020*%
%ADD344R,0.04820X0.00020*%
%ADD345R,0.04780X0.00020*%
%ADD346R,0.04760X0.00020*%
%ADD347R,0.04740X0.00020*%
%ADD348R,0.04700X0.00020*%
%ADD349R,0.04700X0.00020*%
%ADD350R,0.04660X0.00020*%
%ADD351R,0.04620X0.00020*%
%ADD352R,0.04620X0.00020*%
%ADD353R,0.04580X0.00020*%
%ADD354R,0.06080X0.00020*%
%ADD355R,0.04540X0.00020*%
%ADD356R,0.02900X0.00020*%
%ADD357R,0.01240X0.00020*%
%ADD358R,0.04540X0.00020*%
%ADD359R,0.01440X0.00020*%
%ADD360R,0.04500X0.00020*%
%ADD361R,0.04480X0.00020*%
%ADD362R,0.03480X0.00020*%
%ADD363R,0.04460X0.00020*%
%ADD364R,0.03600X0.00020*%
%ADD365R,0.04420X0.00020*%
%ADD366R,0.03700X0.00020*%
%ADD367R,0.04400X0.00020*%
%ADD368R,0.03780X0.00020*%
%ADD369R,0.04380X0.00020*%
%ADD370R,0.03860X0.00020*%
%ADD371R,0.02640X0.00020*%
%ADD372R,0.04340X0.00020*%
%ADD373R,0.03940X0.00020*%
%ADD374R,0.04320X0.00020*%
%ADD375R,0.04020X0.00020*%
%ADD376R,0.04940X0.00020*%
%ADD377R,0.04300X0.00020*%
%ADD378R,0.04080X0.00020*%
%ADD379R,0.04920X0.00020*%
%ADD380R,0.04260X0.00020*%
%ADD381R,0.04140X0.00020*%
%ADD382R,0.04200X0.00020*%
%ADD383R,0.04860X0.00020*%
%ADD384R,0.04220X0.00020*%
%ADD385R,0.04260X0.00020*%
%ADD386R,0.04820X0.00020*%
%ADD387R,0.04180X0.00020*%
%ADD388R,0.04320X0.00020*%
%ADD389R,0.04800X0.00020*%
%ADD390R,0.04180X0.00020*%
%ADD391R,0.04360X0.00020*%
%ADD392R,0.04760X0.00020*%
%ADD393R,0.04140X0.00020*%
%ADD394R,0.04420X0.00020*%
%ADD395R,0.04720X0.00020*%
%ADD396R,0.04100X0.00020*%
%ADD397R,0.04100X0.00020*%
%ADD398R,0.04520X0.00020*%
%ADD399R,0.04660X0.00020*%
%ADD400R,0.04060X0.00020*%
%ADD401R,0.04560X0.00020*%
%ADD402R,0.04620X0.00020*%
%ADD403R,0.04040X0.00020*%
%ADD404R,0.04600X0.00020*%
%ADD405R,0.04580X0.00020*%
%ADD406R,0.04020X0.00020*%
%ADD407R,0.04640X0.00020*%
%ADD408R,0.04520X0.00020*%
%ADD409R,0.03980X0.00020*%
%ADD410R,0.04680X0.00020*%
%ADD411R,0.04480X0.00020*%
%ADD412R,0.03960X0.00020*%
%ADD413R,0.04720X0.00020*%
%ADD414R,0.03940X0.00020*%
%ADD415R,0.03900X0.00020*%
%ADD416R,0.04800X0.00020*%
%ADD417R,0.03520X0.00020*%
%ADD418R,0.03880X0.00020*%
%ADD419R,0.04820X0.00020*%
%ADD420R,0.03380X0.00020*%
%ADD421R,0.03240X0.00020*%
%ADD422R,0.03820X0.00020*%
%ADD423R,0.04900X0.00020*%
%ADD424R,0.03100X0.00020*%
%ADD425R,0.04920X0.00020*%
%ADD426R,0.02920X0.00020*%
%ADD427R,0.00640X0.00020*%
%ADD428R,0.04960X0.00020*%
%ADD429R,0.02760X0.00020*%
%ADD430R,0.03740X0.00020*%
%ADD431R,0.05000X0.00020*%
%ADD432R,0.05020X0.00020*%
%ADD433R,0.03660X0.00020*%
%ADD434R,0.01820X0.00020*%
%ADD435R,0.03620X0.00020*%
%ADD436R,0.01640X0.00020*%
%ADD437R,0.03580X0.00020*%
%ADD438R,0.01600X0.00020*%
%ADD439R,0.03540X0.00020*%
%ADD440R,0.03500X0.00020*%
%ADD441R,0.03460X0.00020*%
%ADD442R,0.02020X0.00020*%
%ADD443R,0.02140X0.00020*%
%ADD444R,0.03420X0.00020*%
%ADD445R,0.02240X0.00020*%
%ADD446R,0.03380X0.00020*%
%ADD447R,0.02360X0.00020*%
%ADD448R,0.03340X0.00020*%
%ADD449R,0.02560X0.00020*%
%ADD450R,0.03300X0.00020*%
%ADD451R,0.02660X0.00020*%
%ADD452R,0.03300X0.00020*%
%ADD453R,0.02680X0.00020*%
%ADD454R,0.02780X0.00020*%
%ADD455R,0.03260X0.00020*%
%ADD456R,0.03220X0.00020*%
%ADD457R,0.02980X0.00020*%
%ADD458R,0.03180X0.00020*%
%ADD459R,0.03200X0.00020*%
%ADD460R,0.03140X0.00020*%
%ADD461R,0.03100X0.00020*%
%ADD462R,0.03080X0.00020*%
%ADD463R,0.03620X0.00020*%
%ADD464R,0.03020X0.00020*%
%ADD465R,0.02960X0.00020*%
%ADD466R,0.02740X0.00020*%
%ADD467R,0.03320X0.00020*%
%ADD468R,0.02540X0.00020*%
%ADD469R,0.02420X0.00020*%
%ADD470R,0.02320X0.00020*%
%ADD471R,0.01900X0.00020*%
%ADD472R,0.03540X0.00020*%
%ADD473R,0.01480X0.00020*%
%ADD474R,0.00040X0.00020*%
%ADD475R,0.00400X0.00020*%
%ADD476R,0.03840X0.00020*%
%ADD477R,0.03900X0.00020*%
%ADD478R,0.00560X0.00020*%
%ADD479R,0.03980X0.00020*%
%ADD480R,0.04060X0.00020*%
%ADD481R,0.04120X0.00020*%
%ADD482R,0.04280X0.00020*%
%ADD483R,0.04340X0.00020*%
%ADD484R,0.04420X0.00020*%
%ADD485R,0.04500X0.00020*%
%ADD486R,0.04560X0.00020*%
%ADD487R,0.04720X0.00020*%
%ADD488R,0.01120X0.00020*%
%ADD489R,0.01720X0.00020*%
%ADD490R,0.04940X0.00020*%
%ADD491R,0.01420X0.00020*%
%ADD492R,0.01520X0.00020*%
%ADD493R,0.02500X0.00020*%
%ADD494R,0.03020X0.00020*%
%ADD495R,0.03720X0.00020*%
%ADD496R,0.03500X0.00020*%
%ADD497R,0.03440X0.00020*%
%ADD498R,0.01680X0.00020*%
%ADD499R,0.02000X0.00020*%
%ADD500R,0.02420X0.00020*%
%ADD501R,0.02300X0.00020*%
%ADD502R,0.03540X0.00020*%
%ADD503R,0.03340X0.00020*%
%ADD504R,0.03280X0.00020*%
%ADD505R,0.02400X0.00020*%
%ADD506R,0.04320X0.00020*%
%ADD507R,0.03420X0.00020*%
%ADD508R,0.03220X0.00020*%
%ADD509R,0.04120X0.00020*%
%ADD510R,0.03200X0.00020*%
%ADD511R,0.03920X0.00020*%
%ADD512R,0.02820X0.00020*%
%ADD513R,0.02900X0.00020*%
%ADD514R,0.02740X0.00020*%
%ADD515R,0.03760X0.00020*%
%ADD516R,0.02820X0.00020*%
%ADD517R,0.02240X0.00020*%
%ADD518R,0.02640X0.00020*%
%ADD519R,0.03420X0.00020*%
%ADD520R,0.02340X0.00020*%
%ADD521R,0.02140X0.00020*%
%ADD522R,0.02920X0.00020*%
%ADD523R,0.02800X0.00020*%
%ADD524R,0.01740X0.00020*%
%ADD525R,0.00520X0.00020*%
%ADD526R,0.01840X0.00020*%
%ADD527R,0.01840X0.00020*%
%ADD528R,0.01800X0.00020*%
%ADD529R,0.00360X0.00020*%
%ADD530R,0.01520X0.00020*%
%ADD531R,0.02020X0.00020*%
%ADD532R,0.05160X0.00020*%
%ADD533R,0.05120X0.00020*%
%ADD534R,0.05100X0.00020*%
%ADD535R,0.05060X0.00020*%
%ADD536R,0.05040X0.00020*%
%ADD537R,0.04960X0.00020*%
%ADD538R,0.04940X0.00020*%
%ADD539R,0.00120X0.00020*%
%ADD540R,0.04540X0.00020*%
%ADD541R,0.04420X0.00020*%
%ADD542R,0.04120X0.00020*%
%ADD543R,0.04040X0.00020*%
%ADD544R,0.03960X0.00020*%
%ADD545R,0.03880X0.00020*%
%ADD546C,0.00300*%
%ADD547R,0.06000X0.06000*%
%ADD548C,0.00500*%
%ADD549C,0.00400*%
%ADD550C,0.01000*%
D10*
X0017205Y0074795D02*
X0017205Y0074913D01*
X0039646Y0074913D01*
X0055787Y0074913D02*
X0058937Y0074913D01*
X0058937Y0088693D01*
X0058937Y0107197D02*
X0058937Y0112315D01*
X0017205Y0112315D01*
X0017205Y0074913D01*
X0036685Y0129353D02*
X0050465Y0129353D01*
X0050465Y0132502D01*
X0040622Y0132502D01*
X0040622Y0137227D01*
X0020937Y0137227D02*
X0020937Y0152975D01*
X0036685Y0160849D02*
X0050465Y0160849D01*
X0050465Y0157699D01*
X0040622Y0157699D01*
X0040622Y0152975D01*
X0044145Y0164261D02*
X0043444Y0164961D01*
X0044145Y0164261D02*
X0045546Y0164261D01*
X0046247Y0164961D01*
X0046247Y0165662D01*
X0045546Y0166362D01*
X0044145Y0166362D01*
X0043444Y0167063D01*
X0043444Y0167764D01*
X0044145Y0168464D01*
X0045546Y0168464D01*
X0046247Y0167764D01*
X0048048Y0168464D02*
X0050851Y0168464D01*
X0049450Y0168464D02*
X0049450Y0164261D01*
X0052652Y0164261D02*
X0052652Y0167063D01*
X0054053Y0168464D01*
X0055455Y0167063D01*
X0055455Y0164261D01*
X0055455Y0166362D02*
X0052652Y0166362D01*
X0057256Y0168464D02*
X0060059Y0168464D01*
X0058657Y0168464D02*
X0058657Y0164261D01*
X0061860Y0164961D02*
X0062561Y0164261D01*
X0063962Y0164261D01*
X0064663Y0164961D01*
X0064663Y0168464D01*
X0066464Y0167764D02*
X0066464Y0167063D01*
X0067165Y0166362D01*
X0068566Y0166362D01*
X0069266Y0165662D01*
X0069266Y0164961D01*
X0068566Y0164261D01*
X0067165Y0164261D01*
X0066464Y0164961D01*
X0066464Y0167764D02*
X0067165Y0168464D01*
X0068566Y0168464D01*
X0069266Y0167764D01*
X0061860Y0168464D02*
X0061860Y0164961D01*
X0060654Y0159890D02*
X0060654Y0157087D01*
X0059253Y0158488D02*
X0062055Y0158488D01*
X0037039Y0164961D02*
X0037039Y0166362D01*
X0035638Y0166362D01*
X0037039Y0164961D02*
X0036338Y0164261D01*
X0034937Y0164261D01*
X0034237Y0164961D01*
X0034237Y0167764D01*
X0034937Y0168464D01*
X0036338Y0168464D01*
X0037039Y0167764D01*
X0032435Y0167764D02*
X0032435Y0166362D01*
X0031734Y0165662D01*
X0029633Y0165662D01*
X0031034Y0165662D02*
X0032435Y0164261D01*
X0029633Y0164261D02*
X0029633Y0168464D01*
X0031734Y0168464D01*
X0032435Y0167764D01*
X0027831Y0168464D02*
X0027831Y0164261D01*
X0027831Y0166362D02*
X0025029Y0166362D01*
X0025029Y0164261D02*
X0025029Y0168464D01*
X0023227Y0167764D02*
X0022527Y0168464D01*
X0021125Y0168464D01*
X0020425Y0167764D01*
X0020425Y0164961D01*
X0021125Y0164261D01*
X0022527Y0164261D01*
X0023227Y0164961D01*
X0024839Y0171616D02*
X0024839Y0173427D01*
X0026060Y0174347D01*
X0024839Y0175238D02*
X0024839Y0173427D01*
X0024900Y0173327D02*
X0026060Y0172567D01*
X0042642Y0182970D02*
X0046846Y0182970D01*
X0046846Y0185773D01*
X0044744Y0184372D02*
X0044744Y0182970D01*
X0042642Y0182970D02*
X0042642Y0185773D01*
X0044744Y0187574D02*
X0044744Y0190377D01*
X0044044Y0192178D02*
X0044744Y0192879D01*
X0044744Y0194280D01*
X0045445Y0194981D01*
X0046145Y0194981D01*
X0046846Y0194280D01*
X0046846Y0192879D01*
X0046145Y0192178D01*
X0044044Y0192178D02*
X0043343Y0192178D01*
X0042642Y0192879D01*
X0042642Y0194280D01*
X0043343Y0194981D01*
X0042642Y0196782D02*
X0046846Y0196782D01*
X0046846Y0199585D01*
X0046846Y0201386D02*
X0042642Y0201386D01*
X0042642Y0203488D01*
X0043343Y0204189D01*
X0044744Y0204189D01*
X0045445Y0203488D01*
X0045445Y0201386D01*
X0045445Y0202787D02*
X0046846Y0204189D01*
X0046846Y0205990D02*
X0046846Y0207391D01*
X0046846Y0206691D02*
X0042642Y0206691D01*
X0042642Y0207391D02*
X0042642Y0205990D01*
X0042642Y0209059D02*
X0046846Y0209059D01*
X0046846Y0211862D01*
X0046145Y0213663D02*
X0046846Y0214364D01*
X0046846Y0215765D01*
X0046145Y0216466D01*
X0045445Y0216466D01*
X0044744Y0215765D01*
X0044744Y0214364D01*
X0044044Y0213663D01*
X0043343Y0213663D01*
X0042642Y0214364D01*
X0042642Y0215765D01*
X0043343Y0216466D01*
X0042642Y0211862D02*
X0042642Y0209059D01*
X0044744Y0209059D02*
X0044744Y0210461D01*
X0050142Y0205023D02*
X0050142Y0202921D01*
X0054346Y0202921D01*
X0054346Y0205023D01*
X0053645Y0205723D01*
X0052945Y0205723D01*
X0052244Y0205023D01*
X0052244Y0202921D01*
X0052945Y0201119D02*
X0053645Y0201119D01*
X0054346Y0200419D01*
X0054346Y0199018D01*
X0053645Y0198317D01*
X0052244Y0199018D02*
X0052244Y0200419D01*
X0052945Y0201119D01*
X0050843Y0201119D02*
X0050142Y0200419D01*
X0050142Y0199018D01*
X0050843Y0198317D01*
X0051544Y0198317D01*
X0052244Y0199018D01*
X0053645Y0196515D02*
X0050142Y0196515D01*
X0050142Y0193713D02*
X0053645Y0193713D01*
X0054346Y0194414D01*
X0054346Y0195815D01*
X0053645Y0196515D01*
X0044744Y0196782D02*
X0044744Y0198183D01*
X0042642Y0199585D02*
X0042642Y0196782D01*
X0050142Y0205023D02*
X0050843Y0205723D01*
X0051544Y0205723D01*
X0052244Y0205023D01*
X0046145Y0232416D02*
X0042642Y0232416D01*
X0042642Y0235219D02*
X0046145Y0235219D01*
X0046846Y0234518D01*
X0046846Y0233117D01*
X0046145Y0232416D01*
X0046846Y0237020D02*
X0042642Y0237020D01*
X0042642Y0239122D01*
X0043343Y0239822D01*
X0044044Y0239822D01*
X0044744Y0239122D01*
X0044744Y0237020D01*
X0044744Y0239122D02*
X0045445Y0239822D01*
X0046145Y0239822D01*
X0046846Y0239122D01*
X0046846Y0237020D01*
X0050142Y0237020D02*
X0053645Y0237020D01*
X0054346Y0237721D01*
X0054346Y0239122D01*
X0053645Y0239822D01*
X0050142Y0239822D01*
X0050843Y0241624D02*
X0051544Y0241624D01*
X0052244Y0242325D01*
X0052244Y0243726D01*
X0052945Y0244426D01*
X0053645Y0244426D01*
X0054346Y0243726D01*
X0054346Y0242325D01*
X0053645Y0241624D01*
X0050843Y0241624D02*
X0050142Y0242325D01*
X0050142Y0243726D01*
X0050843Y0244426D01*
X0050142Y0246228D02*
X0050142Y0248330D01*
X0050843Y0249030D01*
X0051544Y0249030D01*
X0052244Y0248330D01*
X0052244Y0246228D01*
X0054346Y0246228D02*
X0050142Y0246228D01*
X0052244Y0248330D02*
X0052945Y0249030D01*
X0053645Y0249030D01*
X0054346Y0248330D01*
X0054346Y0246228D01*
X0046846Y0246929D02*
X0046846Y0248330D01*
X0046145Y0249030D01*
X0043343Y0249030D01*
X0042642Y0248330D01*
X0042642Y0246929D01*
X0043343Y0246228D01*
X0046145Y0246228D01*
X0046846Y0246929D01*
X0046846Y0244426D02*
X0046846Y0241624D01*
X0042642Y0241624D01*
X0042642Y0250832D02*
X0046846Y0253634D01*
X0046846Y0250832D02*
X0042642Y0253634D01*
X0086648Y0245203D02*
X0090851Y0245203D01*
X0086648Y0242401D01*
X0090851Y0242401D01*
X0090851Y0240733D02*
X0090851Y0239331D01*
X0090851Y0240032D02*
X0086648Y0240032D01*
X0086648Y0239331D02*
X0086648Y0240733D01*
X0086648Y0237530D02*
X0089450Y0237530D01*
X0090851Y0236129D01*
X0089450Y0234728D01*
X0086648Y0234728D01*
X0096656Y0235995D02*
X0100159Y0235995D01*
X0100860Y0235295D01*
X0100860Y0233894D01*
X0100159Y0233193D01*
X0096656Y0233193D01*
X0096656Y0231391D02*
X0099458Y0231391D01*
X0100860Y0229990D01*
X0099458Y0228589D01*
X0096656Y0228589D01*
X0106665Y0230124D02*
X0110868Y0230124D01*
X0110868Y0232926D01*
X0110868Y0234728D02*
X0110868Y0236129D01*
X0110868Y0235428D02*
X0106665Y0235428D01*
X0106665Y0234728D02*
X0106665Y0236129D01*
X0106665Y0237797D02*
X0106665Y0239899D01*
X0107365Y0240599D01*
X0108766Y0240599D01*
X0109467Y0239899D01*
X0109467Y0237797D01*
X0110868Y0237797D02*
X0106665Y0237797D01*
X0100860Y0238497D02*
X0100159Y0237797D01*
X0100860Y0238497D02*
X0100860Y0239899D01*
X0100159Y0240599D01*
X0099458Y0240599D01*
X0098758Y0239899D01*
X0098758Y0238497D01*
X0098057Y0237797D01*
X0097357Y0237797D01*
X0096656Y0238497D01*
X0096656Y0239899D01*
X0097357Y0240599D01*
X0096656Y0242401D02*
X0096656Y0244503D01*
X0097357Y0245203D01*
X0098057Y0245203D01*
X0098758Y0244503D01*
X0098758Y0242401D01*
X0098758Y0244503D02*
X0099458Y0245203D01*
X0100159Y0245203D01*
X0100860Y0244503D01*
X0100860Y0242401D01*
X0096656Y0242401D01*
X0106665Y0243101D02*
X0107365Y0242401D01*
X0110168Y0242401D01*
X0110868Y0243101D01*
X0110868Y0244503D01*
X0110168Y0245203D01*
X0107365Y0245203D01*
X0106665Y0244503D01*
X0106665Y0243101D01*
X0116673Y0242401D02*
X0116673Y0244503D01*
X0117374Y0245203D01*
X0120176Y0245203D01*
X0120877Y0244503D01*
X0120877Y0242401D01*
X0116673Y0242401D01*
X0116673Y0240733D02*
X0116673Y0239331D01*
X0116673Y0240032D02*
X0120877Y0240032D01*
X0120877Y0239331D02*
X0120877Y0240733D01*
X0120877Y0237530D02*
X0116673Y0237530D01*
X0118074Y0236129D01*
X0116673Y0234728D01*
X0120877Y0234728D01*
X0118775Y0232926D02*
X0119475Y0232225D01*
X0119475Y0230124D01*
X0120877Y0230124D02*
X0116673Y0230124D01*
X0116673Y0232225D01*
X0117374Y0232926D01*
X0118775Y0232926D01*
X0126682Y0233894D02*
X0126682Y0235295D01*
X0127382Y0235995D01*
X0128083Y0235995D01*
X0128783Y0235295D01*
X0129484Y0235995D01*
X0130185Y0235995D01*
X0130885Y0235295D01*
X0130885Y0233894D01*
X0130185Y0233193D01*
X0128783Y0234594D02*
X0128783Y0235295D01*
X0126682Y0233894D02*
X0127382Y0233193D01*
X0126682Y0237797D02*
X0129484Y0237797D01*
X0130885Y0239198D01*
X0129484Y0240599D01*
X0126682Y0240599D01*
X0127382Y0242401D02*
X0126682Y0243101D01*
X0126682Y0244503D01*
X0127382Y0245203D01*
X0128083Y0245203D01*
X0128783Y0244503D01*
X0129484Y0245203D01*
X0130185Y0245203D01*
X0130885Y0244503D01*
X0130885Y0243101D01*
X0130185Y0242401D01*
X0128783Y0243802D02*
X0128783Y0244503D01*
X0136690Y0245203D02*
X0136690Y0242401D01*
X0136690Y0243802D02*
X0140894Y0243802D01*
X0140894Y0240599D02*
X0138091Y0240599D01*
X0136690Y0239198D01*
X0138091Y0237797D01*
X0140894Y0237797D01*
X0140193Y0235995D02*
X0140894Y0235295D01*
X0140894Y0233193D01*
X0136690Y0233193D01*
X0136690Y0235295D01*
X0137391Y0235995D01*
X0138091Y0235995D01*
X0138792Y0235295D01*
X0138792Y0233193D01*
X0139492Y0231391D02*
X0136690Y0231391D01*
X0136690Y0228589D02*
X0139492Y0228589D01*
X0140894Y0229990D01*
X0139492Y0231391D01*
X0138792Y0235295D02*
X0139492Y0235995D01*
X0140193Y0235995D01*
X0138792Y0237797D02*
X0138792Y0240599D01*
X0146699Y0239899D02*
X0146699Y0237797D01*
X0150902Y0237797D01*
X0150902Y0239899D01*
X0150202Y0240599D01*
X0147399Y0240599D01*
X0146699Y0239899D01*
X0148100Y0242401D02*
X0146699Y0243802D01*
X0148100Y0245203D01*
X0150902Y0245203D01*
X0148800Y0245203D02*
X0148800Y0242401D01*
X0148100Y0242401D02*
X0150902Y0242401D01*
X0156707Y0242401D02*
X0160911Y0245203D01*
X0160911Y0242401D02*
X0156707Y0245203D01*
X0157408Y0240599D02*
X0156707Y0239899D01*
X0156707Y0237797D01*
X0160911Y0237797D01*
X0159509Y0237797D02*
X0159509Y0239899D01*
X0158809Y0240599D01*
X0157408Y0240599D01*
X0159509Y0239198D02*
X0160911Y0240599D01*
X0166716Y0240599D02*
X0170919Y0237797D01*
X0170919Y0235995D02*
X0166716Y0235995D01*
X0166716Y0237797D02*
X0170919Y0240599D01*
X0170919Y0242401D02*
X0166716Y0242401D01*
X0166716Y0244503D01*
X0167416Y0245203D01*
X0168817Y0245203D01*
X0169518Y0244503D01*
X0169518Y0242401D01*
X0176724Y0242401D02*
X0176724Y0245203D01*
X0178125Y0244503D02*
X0178826Y0245203D01*
X0180227Y0245203D01*
X0180928Y0244503D01*
X0180928Y0243101D01*
X0180227Y0242401D01*
X0178826Y0242401D02*
X0178125Y0243802D01*
X0178125Y0244503D01*
X0178826Y0242401D02*
X0176724Y0242401D01*
X0178125Y0240599D02*
X0176724Y0239198D01*
X0178125Y0237797D01*
X0180928Y0237797D01*
X0178826Y0237797D02*
X0178826Y0240599D01*
X0178125Y0240599D02*
X0180928Y0240599D01*
X0186733Y0239198D02*
X0188134Y0237797D01*
X0190936Y0237797D01*
X0188834Y0237797D02*
X0188834Y0240599D01*
X0188134Y0240599D02*
X0190936Y0240599D01*
X0190236Y0242401D02*
X0190936Y0243101D01*
X0190936Y0244503D01*
X0190236Y0245203D01*
X0189535Y0245203D01*
X0188834Y0244503D01*
X0188834Y0243802D01*
X0188834Y0244503D02*
X0188134Y0245203D01*
X0187433Y0245203D01*
X0186733Y0244503D01*
X0186733Y0243101D01*
X0187433Y0242401D01*
X0188134Y0240599D02*
X0186733Y0239198D01*
X0196774Y0239198D02*
X0198176Y0237797D01*
X0200978Y0237797D01*
X0198876Y0237797D02*
X0198876Y0240599D01*
X0198176Y0240599D02*
X0200978Y0240599D01*
X0200978Y0242401D02*
X0200978Y0245203D01*
X0200978Y0243802D02*
X0196774Y0243802D01*
X0198176Y0242401D01*
X0198176Y0240599D02*
X0196774Y0239198D01*
X0206783Y0239899D02*
X0206783Y0237797D01*
X0210987Y0237797D01*
X0210987Y0239899D01*
X0210286Y0240599D01*
X0209585Y0240599D01*
X0208885Y0239899D01*
X0208885Y0237797D01*
X0208885Y0239899D02*
X0208184Y0240599D01*
X0207484Y0240599D01*
X0206783Y0239899D01*
X0206783Y0242401D02*
X0208885Y0242401D01*
X0208184Y0243802D01*
X0208184Y0244503D01*
X0208885Y0245203D01*
X0210286Y0245203D01*
X0210987Y0244503D01*
X0210987Y0243101D01*
X0210286Y0242401D01*
X0206783Y0242401D02*
X0206783Y0245203D01*
X0216791Y0244503D02*
X0217492Y0245203D01*
X0218193Y0245203D01*
X0218893Y0244503D01*
X0219594Y0245203D01*
X0220294Y0245203D01*
X0220995Y0244503D01*
X0220995Y0243101D01*
X0220294Y0242401D01*
X0220294Y0240599D02*
X0220995Y0239899D01*
X0220995Y0237797D01*
X0216791Y0237797D01*
X0216791Y0239899D01*
X0217492Y0240599D01*
X0218193Y0240599D01*
X0218893Y0239899D01*
X0218893Y0237797D01*
X0218893Y0239899D02*
X0219594Y0240599D01*
X0220294Y0240599D01*
X0217492Y0242401D02*
X0216791Y0243101D01*
X0216791Y0244503D01*
X0218893Y0244503D02*
X0218893Y0243802D01*
X0226800Y0243802D02*
X0231004Y0243802D01*
X0231004Y0242401D02*
X0231004Y0245203D01*
X0228201Y0242401D02*
X0226800Y0243802D01*
X0227501Y0240599D02*
X0226800Y0239899D01*
X0226800Y0237797D01*
X0231004Y0237797D01*
X0231004Y0239899D01*
X0230303Y0240599D01*
X0229602Y0240599D01*
X0228902Y0239899D01*
X0228902Y0237797D01*
X0228902Y0239899D02*
X0228201Y0240599D01*
X0227501Y0240599D01*
X0236808Y0239899D02*
X0236808Y0237797D01*
X0241012Y0237797D01*
X0241012Y0239899D01*
X0240311Y0240599D01*
X0237509Y0240599D01*
X0236808Y0239899D01*
X0236808Y0242401D02*
X0236808Y0245203D01*
X0237509Y0245203D01*
X0240311Y0242401D01*
X0241012Y0242401D01*
X0246817Y0242401D02*
X0246817Y0245203D01*
X0248218Y0244503D02*
X0248919Y0245203D01*
X0250320Y0245203D01*
X0251021Y0244503D01*
X0251021Y0243101D01*
X0250320Y0242401D01*
X0248919Y0242401D02*
X0248218Y0243802D01*
X0248218Y0244503D01*
X0248919Y0242401D02*
X0246817Y0242401D01*
X0247518Y0240599D02*
X0246817Y0239899D01*
X0246817Y0237797D01*
X0251021Y0237797D01*
X0251021Y0239899D01*
X0250320Y0240599D01*
X0247518Y0240599D01*
X0256825Y0239899D02*
X0256825Y0237797D01*
X0261029Y0237797D01*
X0261029Y0239899D01*
X0260328Y0240599D01*
X0257526Y0240599D01*
X0256825Y0239899D01*
X0257526Y0242401D02*
X0256825Y0243101D01*
X0256825Y0244503D01*
X0257526Y0245203D01*
X0258227Y0245203D01*
X0258927Y0244503D01*
X0259628Y0245203D01*
X0260328Y0245203D01*
X0261029Y0244503D01*
X0261029Y0243101D01*
X0260328Y0242401D01*
X0258927Y0243802D02*
X0258927Y0244503D01*
X0266834Y0243802D02*
X0271038Y0243802D01*
X0271038Y0242401D02*
X0271038Y0245203D01*
X0268235Y0242401D02*
X0266834Y0243802D01*
X0267535Y0240599D02*
X0266834Y0239899D01*
X0266834Y0237797D01*
X0271038Y0237797D01*
X0271038Y0239899D01*
X0270337Y0240599D01*
X0267535Y0240599D01*
X0276842Y0239899D02*
X0276842Y0238497D01*
X0277543Y0237797D01*
X0280345Y0237797D01*
X0281046Y0238497D01*
X0281046Y0239899D01*
X0280345Y0240599D01*
X0280345Y0242401D02*
X0281046Y0243101D01*
X0281046Y0244503D01*
X0280345Y0245203D01*
X0278944Y0245203D01*
X0278244Y0244503D01*
X0278244Y0243802D01*
X0278944Y0242401D01*
X0276842Y0242401D01*
X0276842Y0245203D01*
X0277543Y0240599D02*
X0276842Y0239899D01*
X0286851Y0239899D02*
X0286851Y0238497D01*
X0287552Y0237797D01*
X0290354Y0237797D01*
X0291055Y0238497D01*
X0291055Y0239899D01*
X0290354Y0240599D01*
X0290354Y0242401D02*
X0291055Y0243101D01*
X0291055Y0244503D01*
X0290354Y0245203D01*
X0289653Y0245203D01*
X0288953Y0244503D01*
X0288953Y0243802D01*
X0288953Y0244503D02*
X0288252Y0245203D01*
X0287552Y0245203D01*
X0286851Y0244503D01*
X0286851Y0243101D01*
X0287552Y0242401D01*
X0287552Y0240599D02*
X0286851Y0239899D01*
X0296859Y0239899D02*
X0296859Y0238497D01*
X0297560Y0237797D01*
X0300362Y0237797D01*
X0301063Y0238497D01*
X0301063Y0239899D01*
X0300362Y0240599D01*
X0301063Y0242401D02*
X0301063Y0245203D01*
X0301063Y0243802D02*
X0296859Y0243802D01*
X0298261Y0242401D01*
X0297560Y0240599D02*
X0296859Y0239899D01*
X0306835Y0237797D02*
X0311038Y0237797D01*
X0311038Y0240599D01*
X0310338Y0242401D02*
X0306835Y0242401D01*
X0306835Y0245203D02*
X0310338Y0245203D01*
X0311038Y0244503D01*
X0311038Y0243101D01*
X0310338Y0242401D01*
X0316843Y0242401D02*
X0316843Y0244503D01*
X0317544Y0245203D01*
X0320346Y0245203D01*
X0321047Y0244503D01*
X0321047Y0242401D01*
X0316843Y0242401D01*
X0316843Y0240599D02*
X0316843Y0237797D01*
X0321047Y0237797D01*
X0321047Y0240599D01*
X0318945Y0239198D02*
X0318945Y0237797D01*
X0318945Y0235995D02*
X0319646Y0235295D01*
X0319646Y0233193D01*
X0321047Y0233193D02*
X0316843Y0233193D01*
X0316843Y0235295D01*
X0317544Y0235995D01*
X0318945Y0235995D01*
X0319646Y0234594D02*
X0321047Y0235995D01*
X0325255Y0232793D02*
X0325255Y0246605D01*
X0326852Y0245203D02*
X0326852Y0242401D01*
X0326852Y0243802D02*
X0331055Y0243802D01*
X0330355Y0240599D02*
X0331055Y0239899D01*
X0331055Y0238497D01*
X0330355Y0237797D01*
X0328953Y0238497D02*
X0328253Y0237797D01*
X0327552Y0237797D01*
X0326852Y0238497D01*
X0326852Y0239899D01*
X0327552Y0240599D01*
X0328953Y0239899D02*
X0329654Y0240599D01*
X0330355Y0240599D01*
X0328953Y0239899D02*
X0328953Y0238497D01*
X0328953Y0235995D02*
X0329654Y0235295D01*
X0329654Y0233193D01*
X0329654Y0234594D02*
X0331055Y0235995D01*
X0328953Y0235995D02*
X0327552Y0235995D01*
X0326852Y0235295D01*
X0326852Y0233193D01*
X0331055Y0233193D01*
X0336860Y0233894D02*
X0337561Y0233193D01*
X0340363Y0233193D01*
X0341064Y0233894D01*
X0341064Y0235295D01*
X0340363Y0235995D01*
X0338962Y0235995D01*
X0338962Y0234594D01*
X0337561Y0235995D02*
X0336860Y0235295D01*
X0336860Y0233894D01*
X0336860Y0237797D02*
X0341064Y0240599D01*
X0336860Y0240599D01*
X0336860Y0242401D02*
X0336860Y0244503D01*
X0337561Y0245203D01*
X0340363Y0245203D01*
X0341064Y0244503D01*
X0341064Y0242401D01*
X0336860Y0242401D01*
X0336860Y0237797D02*
X0341064Y0237797D01*
X0311038Y0235295D02*
X0311038Y0233193D01*
X0306835Y0233193D01*
X0306835Y0235295D01*
X0307535Y0235995D01*
X0308236Y0235995D01*
X0308936Y0235295D01*
X0308936Y0233193D01*
X0308936Y0235295D02*
X0309637Y0235995D01*
X0310338Y0235995D01*
X0311038Y0235295D01*
X0322967Y0208080D02*
X0322967Y0205278D01*
X0327171Y0205278D01*
X0327171Y0208080D01*
X0325069Y0206679D02*
X0325069Y0205278D01*
X0323668Y0203476D02*
X0322967Y0202776D01*
X0322967Y0200674D01*
X0327171Y0200674D01*
X0327171Y0202776D01*
X0326470Y0203476D01*
X0323668Y0203476D01*
X0323668Y0198872D02*
X0322967Y0198172D01*
X0322967Y0196771D01*
X0323668Y0196070D01*
X0326470Y0196070D01*
X0327171Y0196771D01*
X0327171Y0198172D01*
X0326470Y0198872D01*
X0323668Y0198872D01*
X0322967Y0194269D02*
X0327171Y0194269D01*
X0327171Y0191466D02*
X0322967Y0191466D01*
X0324368Y0192867D01*
X0322967Y0194269D01*
X0342114Y0154213D02*
X0342116Y0154233D01*
X0342122Y0154251D01*
X0342131Y0154269D01*
X0342143Y0154284D01*
X0342158Y0154296D01*
X0342176Y0154305D01*
X0342194Y0154311D01*
X0342214Y0154313D01*
X0342234Y0154311D01*
X0342252Y0154305D01*
X0342270Y0154296D01*
X0342285Y0154284D01*
X0342297Y0154269D01*
X0342306Y0154251D01*
X0342312Y0154233D01*
X0342314Y0154213D01*
X0342312Y0154193D01*
X0342306Y0154175D01*
X0342297Y0154157D01*
X0342285Y0154142D01*
X0342270Y0154130D01*
X0342252Y0154121D01*
X0342234Y0154115D01*
X0342214Y0154113D01*
X0342194Y0154115D01*
X0342176Y0154121D01*
X0342158Y0154130D01*
X0342143Y0154142D01*
X0342131Y0154157D01*
X0342122Y0154175D01*
X0342116Y0154193D01*
X0342114Y0154213D01*
X0357815Y0120807D02*
X0359916Y0120807D01*
X0360617Y0120106D01*
X0360617Y0118705D01*
X0359916Y0118004D01*
X0357815Y0118004D01*
X0359216Y0118004D02*
X0360617Y0116603D01*
X0357815Y0116603D02*
X0357815Y0120807D01*
X0365885Y0120027D02*
X0365885Y0117225D01*
X0366586Y0116524D01*
X0367987Y0116524D01*
X0368688Y0117225D01*
X0368688Y0118626D01*
X0367287Y0118626D01*
X0368688Y0120027D02*
X0367987Y0120728D01*
X0366586Y0120728D01*
X0365885Y0120027D01*
X0374547Y0120728D02*
X0374547Y0116524D01*
X0376649Y0116524D01*
X0377349Y0117225D01*
X0377349Y0117926D01*
X0376649Y0118626D01*
X0374547Y0118626D01*
X0376649Y0118626D02*
X0377349Y0119327D01*
X0377349Y0120027D01*
X0376649Y0120728D01*
X0374547Y0120728D01*
X0327171Y0110364D02*
X0322967Y0110364D01*
X0322967Y0108963D02*
X0322967Y0111765D01*
X0322967Y0107161D02*
X0322967Y0104359D01*
X0327171Y0104359D01*
X0327171Y0107161D01*
X0325069Y0105760D02*
X0325069Y0104359D01*
X0325770Y0102557D02*
X0326470Y0102557D01*
X0327171Y0101856D01*
X0327171Y0100455D01*
X0326470Y0099755D01*
X0325069Y0100455D02*
X0325069Y0101856D01*
X0325770Y0102557D01*
X0323668Y0102557D02*
X0322967Y0101856D01*
X0322967Y0100455D01*
X0323668Y0099755D01*
X0324368Y0099755D01*
X0325069Y0100455D01*
X0322967Y0097953D02*
X0322967Y0095151D01*
X0327171Y0095151D01*
X0327171Y0097953D01*
X0325069Y0096552D02*
X0325069Y0095151D01*
X0325069Y0093349D02*
X0325770Y0092649D01*
X0325770Y0090547D01*
X0327171Y0090547D02*
X0322967Y0090547D01*
X0322967Y0092649D01*
X0323668Y0093349D01*
X0325069Y0093349D01*
X0325770Y0091948D02*
X0327171Y0093349D01*
X0303791Y0094522D02*
X0302390Y0094522D01*
X0303090Y0094522D02*
X0303090Y0090318D01*
X0302390Y0090318D02*
X0303791Y0090318D01*
X0300588Y0090318D02*
X0299187Y0091719D01*
X0299888Y0091719D02*
X0297786Y0091719D01*
X0297786Y0090318D02*
X0297786Y0094522D01*
X0299888Y0094522D01*
X0300588Y0093821D01*
X0300588Y0092420D01*
X0299888Y0091719D01*
X0347709Y0068329D02*
X0347709Y0059668D01*
X0345740Y0050613D02*
X0345740Y0042739D01*
X0348102Y0042739D01*
X0374087Y0042739D01*
X0376449Y0042739D01*
X0376449Y0050613D01*
X0374087Y0042739D02*
X0374087Y0039195D01*
X0372512Y0039195D01*
X0349677Y0039195D01*
X0349677Y0036046D01*
X0372512Y0036046D01*
X0374087Y0036046D01*
X0374087Y0032502D01*
X0378417Y0032502D01*
X0378417Y0028959D01*
X0374480Y0028959D01*
X0369756Y0028959D01*
X0352433Y0028959D01*
X0347709Y0028959D01*
X0343772Y0028959D01*
X0343772Y0032502D01*
X0348102Y0032502D01*
X0352433Y0032502D01*
X0352433Y0028959D01*
X0352433Y0032502D02*
X0369756Y0032502D01*
X0374087Y0032502D01*
X0374480Y0028959D02*
X0374480Y0004943D01*
X0372512Y0003762D01*
X0349677Y0003762D01*
X0349677Y0001400D01*
X0372512Y0001400D01*
X0372512Y0003762D01*
X0349677Y0003762D02*
X0347709Y0004943D01*
X0347709Y0028959D01*
X0348102Y0032502D02*
X0348102Y0036046D01*
X0349677Y0036046D01*
X0349677Y0039195D02*
X0348102Y0039195D01*
X0348102Y0042739D01*
X0356764Y0050613D02*
X0365425Y0050613D01*
X0374480Y0059668D02*
X0374480Y0068329D01*
X0365425Y0077384D02*
X0356764Y0077384D01*
X0372512Y0039195D02*
X0372512Y0036046D01*
X0369756Y0032502D02*
X0369756Y0028959D01*
X0380727Y0183356D02*
X0379326Y0184758D01*
X0383529Y0184758D01*
X0383529Y0186159D02*
X0383529Y0183356D01*
X0340436Y0272398D02*
X0337633Y0272398D01*
X0336933Y0273099D01*
X0336933Y0274500D01*
X0337633Y0275201D01*
X0339034Y0275201D02*
X0339034Y0273800D01*
X0339034Y0275201D02*
X0340436Y0275201D01*
X0341136Y0274500D01*
X0341136Y0273099D01*
X0340436Y0272398D01*
X0341136Y0277002D02*
X0336933Y0277002D01*
X0341136Y0279805D01*
X0336933Y0279805D01*
X0336933Y0281606D02*
X0336933Y0283708D01*
X0337633Y0284409D01*
X0340436Y0284409D01*
X0341136Y0283708D01*
X0341136Y0281606D01*
X0336933Y0281606D01*
X0331127Y0281606D02*
X0328324Y0281606D01*
X0326923Y0283007D01*
X0328324Y0284409D01*
X0331127Y0284409D01*
X0329025Y0284409D02*
X0329025Y0281606D01*
X0326923Y0279805D02*
X0326923Y0277002D01*
X0326923Y0278404D02*
X0331127Y0278404D01*
X0330426Y0275201D02*
X0331127Y0274500D01*
X0331127Y0273099D01*
X0330426Y0272398D01*
X0329025Y0273099D02*
X0328324Y0272398D01*
X0327624Y0272398D01*
X0326923Y0273099D01*
X0326923Y0274500D01*
X0327624Y0275201D01*
X0329025Y0274500D02*
X0329725Y0275201D01*
X0330426Y0275201D01*
X0329025Y0274500D02*
X0329025Y0273099D01*
X0321117Y0272398D02*
X0316913Y0272398D01*
X0318315Y0273800D01*
X0316913Y0275201D01*
X0321117Y0275201D01*
X0320416Y0277002D02*
X0317614Y0277002D01*
X0316913Y0277703D01*
X0316913Y0279104D01*
X0317614Y0279805D01*
X0320416Y0279805D01*
X0321117Y0279104D01*
X0321117Y0277703D01*
X0320416Y0277002D01*
X0321117Y0281606D02*
X0316913Y0281606D01*
X0316913Y0283708D01*
X0317614Y0284409D01*
X0320416Y0284409D01*
X0321117Y0283708D01*
X0321117Y0281606D01*
X0321117Y0286210D02*
X0316913Y0286210D01*
X0316913Y0289013D01*
X0319015Y0287611D02*
X0319015Y0286210D01*
X0321117Y0286210D02*
X0321117Y0289013D01*
X0326923Y0289013D02*
X0326923Y0286210D01*
X0326923Y0287611D02*
X0331127Y0287611D01*
X0311107Y0284409D02*
X0306904Y0284409D01*
X0306904Y0281606D02*
X0311107Y0284409D01*
X0311107Y0281606D02*
X0306904Y0281606D01*
X0307604Y0279805D02*
X0309006Y0279805D01*
X0309706Y0279104D01*
X0309706Y0277002D01*
X0311107Y0277002D02*
X0306904Y0277002D01*
X0306904Y0279104D01*
X0307604Y0279805D01*
X0309706Y0278404D02*
X0311107Y0279805D01*
X0310407Y0275201D02*
X0309006Y0275201D01*
X0309006Y0273800D01*
X0310407Y0275201D02*
X0311107Y0274500D01*
X0311107Y0273099D01*
X0310407Y0272398D01*
X0307604Y0272398D01*
X0306904Y0273099D01*
X0306904Y0274500D01*
X0307604Y0275201D01*
X0301065Y0274500D02*
X0300364Y0275201D01*
X0301065Y0274500D02*
X0301065Y0273099D01*
X0300364Y0272398D01*
X0297562Y0272398D01*
X0296861Y0273099D01*
X0296861Y0274500D01*
X0297562Y0275201D01*
X0297562Y0277002D02*
X0296861Y0277703D01*
X0296861Y0279104D01*
X0297562Y0279805D01*
X0300364Y0277002D01*
X0301065Y0277703D01*
X0301065Y0279104D01*
X0300364Y0279805D01*
X0297562Y0279805D01*
X0297562Y0277002D02*
X0300364Y0277002D01*
X0291055Y0277002D02*
X0288253Y0279805D01*
X0287552Y0279805D01*
X0286851Y0279104D01*
X0286851Y0277703D01*
X0287552Y0277002D01*
X0287552Y0275201D02*
X0286851Y0274500D01*
X0286851Y0273099D01*
X0287552Y0272398D01*
X0290354Y0272398D01*
X0291055Y0273099D01*
X0291055Y0274500D01*
X0290354Y0275201D01*
X0291055Y0277002D02*
X0291055Y0279805D01*
X0281045Y0279104D02*
X0276842Y0279104D01*
X0278944Y0277002D01*
X0278944Y0279805D01*
X0280345Y0275201D02*
X0281045Y0274500D01*
X0281045Y0273099D01*
X0280345Y0272398D01*
X0277542Y0272398D01*
X0276842Y0273099D01*
X0276842Y0274500D01*
X0277542Y0275201D01*
X0271036Y0274500D02*
X0271036Y0272398D01*
X0266832Y0272398D01*
X0266832Y0274500D01*
X0267533Y0275201D01*
X0270335Y0275201D01*
X0271036Y0274500D01*
X0270335Y0277002D02*
X0267533Y0277002D01*
X0266832Y0277703D01*
X0266832Y0279104D01*
X0267533Y0279805D01*
X0270335Y0277002D01*
X0271036Y0277703D01*
X0271036Y0279104D01*
X0270335Y0279805D01*
X0267533Y0279805D01*
X0261026Y0279805D02*
X0261026Y0277002D01*
X0258224Y0279805D01*
X0257523Y0279805D01*
X0256823Y0279104D01*
X0256823Y0277703D01*
X0257523Y0277002D01*
X0257523Y0275201D02*
X0256823Y0274500D01*
X0256823Y0272398D01*
X0261026Y0272398D01*
X0261026Y0274500D01*
X0260326Y0275201D01*
X0257523Y0275201D01*
X0251017Y0274500D02*
X0251017Y0272398D01*
X0246813Y0272398D01*
X0246813Y0274500D01*
X0247514Y0275201D01*
X0250316Y0275201D01*
X0251017Y0274500D01*
X0248915Y0277002D02*
X0248915Y0279805D01*
X0251017Y0279104D02*
X0246813Y0279104D01*
X0248915Y0277002D01*
X0241007Y0277703D02*
X0241007Y0279104D01*
X0240307Y0279805D01*
X0239606Y0279805D01*
X0238905Y0279104D01*
X0238905Y0277002D01*
X0240307Y0277002D01*
X0241007Y0277703D01*
X0238905Y0277002D02*
X0237504Y0278404D01*
X0236804Y0279805D01*
X0237504Y0275201D02*
X0236804Y0274500D01*
X0236804Y0272398D01*
X0241007Y0272398D01*
X0241007Y0274500D01*
X0240307Y0275201D01*
X0237504Y0275201D01*
X0230998Y0274500D02*
X0230998Y0272398D01*
X0226794Y0272398D01*
X0226794Y0274500D01*
X0227495Y0275201D01*
X0228195Y0275201D01*
X0228896Y0274500D01*
X0228896Y0272398D01*
X0228896Y0274500D02*
X0229596Y0275201D01*
X0230297Y0275201D01*
X0230998Y0274500D01*
X0230297Y0277002D02*
X0227495Y0279805D01*
X0230297Y0279805D01*
X0230998Y0279104D01*
X0230998Y0277703D01*
X0230297Y0277002D01*
X0227495Y0277002D01*
X0226794Y0277703D01*
X0226794Y0279104D01*
X0227495Y0279805D01*
X0220988Y0279805D02*
X0220988Y0277002D01*
X0218186Y0279805D01*
X0217485Y0279805D01*
X0216784Y0279104D01*
X0216784Y0277703D01*
X0217485Y0277002D01*
X0217485Y0275201D02*
X0218186Y0275201D01*
X0218886Y0274500D01*
X0218886Y0272398D01*
X0216784Y0272398D02*
X0216784Y0274500D01*
X0217485Y0275201D01*
X0218886Y0274500D02*
X0219587Y0275201D01*
X0220287Y0275201D01*
X0220988Y0274500D01*
X0220988Y0272398D01*
X0216784Y0272398D01*
X0210978Y0272398D02*
X0210978Y0274500D01*
X0210278Y0275201D01*
X0209577Y0275201D01*
X0208877Y0274500D01*
X0208877Y0272398D01*
X0210978Y0272398D02*
X0206775Y0272398D01*
X0206775Y0274500D01*
X0207476Y0275201D01*
X0208176Y0275201D01*
X0208877Y0274500D01*
X0208877Y0277002D02*
X0208877Y0279805D01*
X0210978Y0279104D02*
X0206775Y0279104D01*
X0208877Y0277002D01*
X0200969Y0277703D02*
X0200268Y0277002D01*
X0197466Y0279805D01*
X0200268Y0279805D01*
X0200969Y0279104D01*
X0200969Y0277703D01*
X0200268Y0277002D02*
X0197466Y0277002D01*
X0196765Y0277703D01*
X0196765Y0279104D01*
X0197466Y0279805D01*
X0190993Y0279805D02*
X0190993Y0277002D01*
X0188190Y0279805D01*
X0187490Y0279805D01*
X0186789Y0279104D01*
X0186789Y0277703D01*
X0187490Y0277002D01*
X0188190Y0275201D02*
X0190993Y0275201D01*
X0188891Y0275201D02*
X0188891Y0272398D01*
X0188190Y0272398D02*
X0186789Y0273800D01*
X0188190Y0275201D01*
X0188190Y0272398D02*
X0190993Y0272398D01*
X0196765Y0273800D02*
X0198167Y0275201D01*
X0200969Y0275201D01*
X0198867Y0275201D02*
X0198867Y0272398D01*
X0198167Y0272398D02*
X0200969Y0272398D01*
X0198167Y0272398D02*
X0196765Y0273800D01*
X0180983Y0275201D02*
X0178181Y0275201D01*
X0176780Y0273800D01*
X0178181Y0272398D01*
X0180983Y0272398D01*
X0178881Y0272398D02*
X0178881Y0275201D01*
X0178881Y0277002D02*
X0178881Y0279805D01*
X0176780Y0279104D02*
X0180983Y0279104D01*
X0178881Y0277002D02*
X0176780Y0279104D01*
X0170974Y0279805D02*
X0168171Y0279805D01*
X0166770Y0278404D01*
X0168171Y0277002D01*
X0170974Y0277002D01*
X0170273Y0275201D02*
X0167471Y0275201D01*
X0166770Y0274500D01*
X0166770Y0272398D01*
X0170974Y0272398D01*
X0170974Y0274500D01*
X0170273Y0275201D01*
X0168872Y0277002D02*
X0168872Y0279805D01*
X0167471Y0281606D02*
X0170273Y0281606D01*
X0170974Y0282307D01*
X0170974Y0283708D01*
X0170273Y0284409D01*
X0167471Y0284409D02*
X0166770Y0283708D01*
X0166770Y0282307D01*
X0167471Y0281606D01*
X0160964Y0279805D02*
X0156760Y0277002D01*
X0156760Y0275201D02*
X0156760Y0272398D01*
X0156760Y0273800D02*
X0160964Y0273800D01*
X0160964Y0277002D02*
X0156760Y0279805D01*
X0150954Y0279805D02*
X0146751Y0279805D01*
X0146751Y0281606D02*
X0146751Y0283708D01*
X0147451Y0284409D01*
X0150254Y0284409D01*
X0150954Y0283708D01*
X0150954Y0281606D01*
X0146751Y0281606D01*
X0150954Y0279805D02*
X0146751Y0277002D01*
X0150954Y0277002D01*
X0150254Y0275201D02*
X0148853Y0275201D01*
X0148853Y0273800D01*
X0150254Y0275201D02*
X0150954Y0274500D01*
X0150954Y0273099D01*
X0150254Y0272398D01*
X0147451Y0272398D01*
X0146751Y0273099D01*
X0146751Y0274500D01*
X0147451Y0275201D01*
X0140945Y0274500D02*
X0140244Y0275201D01*
X0138843Y0275201D01*
X0138843Y0273800D01*
X0137442Y0275201D02*
X0136741Y0274500D01*
X0136741Y0273099D01*
X0137442Y0272398D01*
X0140244Y0272398D01*
X0140945Y0273099D01*
X0140945Y0274500D01*
X0140945Y0277002D02*
X0136741Y0277002D01*
X0140945Y0279805D01*
X0136741Y0279805D01*
X0136741Y0281606D02*
X0136741Y0283708D01*
X0137442Y0284409D01*
X0140244Y0284409D01*
X0140945Y0283708D01*
X0140945Y0281606D01*
X0136741Y0281606D01*
X0130935Y0282307D02*
X0130235Y0281606D01*
X0130935Y0282307D02*
X0130935Y0283708D01*
X0130235Y0284409D01*
X0129534Y0284409D01*
X0128834Y0283708D01*
X0128834Y0283007D01*
X0128834Y0283708D02*
X0128133Y0284409D01*
X0127432Y0284409D01*
X0126732Y0283708D01*
X0126732Y0282307D01*
X0127432Y0281606D01*
X0126732Y0279805D02*
X0129534Y0279805D01*
X0130935Y0278404D01*
X0129534Y0277002D01*
X0126732Y0277002D01*
X0127432Y0275201D02*
X0128133Y0275201D01*
X0128834Y0274500D01*
X0129534Y0275201D01*
X0130235Y0275201D01*
X0130935Y0274500D01*
X0130935Y0273099D01*
X0130235Y0272398D01*
X0128834Y0273800D02*
X0128834Y0274500D01*
X0127432Y0275201D02*
X0126732Y0274500D01*
X0126732Y0273099D01*
X0127432Y0272398D01*
X0120892Y0273099D02*
X0120892Y0274500D01*
X0120192Y0275201D01*
X0118791Y0275201D01*
X0118791Y0273800D01*
X0117389Y0275201D02*
X0116689Y0274500D01*
X0116689Y0273099D01*
X0117389Y0272398D01*
X0120192Y0272398D01*
X0120892Y0273099D01*
X0120892Y0277002D02*
X0116689Y0277002D01*
X0120892Y0279805D01*
X0116689Y0279805D01*
X0116689Y0281606D02*
X0116689Y0283708D01*
X0117389Y0284409D01*
X0120192Y0284409D01*
X0120892Y0283708D01*
X0120892Y0281606D01*
X0116689Y0281606D01*
X0110883Y0281606D02*
X0110883Y0283708D01*
X0110182Y0284409D01*
X0107380Y0284409D01*
X0106679Y0283708D01*
X0106679Y0281606D01*
X0110883Y0281606D01*
X0110883Y0279805D02*
X0106679Y0279805D01*
X0106679Y0277002D02*
X0110883Y0279805D01*
X0110883Y0277002D02*
X0106679Y0277002D01*
X0107380Y0275201D02*
X0106679Y0274500D01*
X0106679Y0273099D01*
X0107380Y0272398D01*
X0110182Y0272398D01*
X0110883Y0273099D01*
X0110883Y0274500D01*
X0110182Y0275201D01*
X0108781Y0275201D01*
X0108781Y0273800D01*
X0100873Y0274500D02*
X0100173Y0275201D01*
X0098772Y0275201D01*
X0098772Y0273800D01*
X0097370Y0272398D02*
X0100173Y0272398D01*
X0100873Y0273099D01*
X0100873Y0274500D01*
X0100873Y0277002D02*
X0096670Y0277002D01*
X0100873Y0279805D01*
X0096670Y0279805D01*
X0096670Y0281606D02*
X0096670Y0283708D01*
X0097370Y0284409D01*
X0100173Y0284409D01*
X0100873Y0283708D01*
X0100873Y0281606D01*
X0096670Y0281606D01*
X0090864Y0281606D02*
X0090864Y0283708D01*
X0090163Y0284409D01*
X0087361Y0284409D01*
X0086660Y0283708D01*
X0086660Y0281606D01*
X0090864Y0281606D01*
X0090864Y0279805D02*
X0086660Y0279805D01*
X0086660Y0277002D02*
X0090864Y0279805D01*
X0090864Y0277002D02*
X0086660Y0277002D01*
X0087361Y0275201D02*
X0086660Y0274500D01*
X0086660Y0273099D01*
X0087361Y0272398D01*
X0090163Y0272398D01*
X0090864Y0273099D01*
X0090864Y0274500D01*
X0090163Y0275201D01*
X0088762Y0275201D01*
X0088762Y0273800D01*
X0096670Y0274500D02*
X0096670Y0273099D01*
X0097370Y0272398D01*
X0096670Y0274500D02*
X0097370Y0275201D01*
X0146699Y0235295D02*
X0147399Y0235995D01*
X0150202Y0235995D01*
X0150902Y0235295D01*
X0150902Y0233193D01*
X0146699Y0233193D01*
X0146699Y0235295D01*
X0146699Y0231391D02*
X0149501Y0231391D01*
X0150902Y0229990D01*
X0149501Y0228589D01*
X0146699Y0228589D01*
X0166716Y0233193D02*
X0170919Y0233193D01*
X0169518Y0234594D01*
X0170919Y0235995D01*
X0124612Y0199997D02*
X0123911Y0200698D01*
X0123211Y0200698D01*
X0122510Y0199997D01*
X0122510Y0199296D01*
X0122510Y0199997D02*
X0121809Y0200698D01*
X0121109Y0200698D01*
X0120408Y0199997D01*
X0120408Y0198596D01*
X0121109Y0197895D01*
X0120408Y0196094D02*
X0123211Y0196094D01*
X0124612Y0194693D01*
X0123211Y0193291D01*
X0120408Y0193291D01*
X0121109Y0191490D02*
X0121809Y0191490D01*
X0122510Y0190789D01*
X0123211Y0191490D01*
X0123911Y0191490D01*
X0124612Y0190789D01*
X0124612Y0189388D01*
X0123911Y0188687D01*
X0122510Y0190089D02*
X0122510Y0190789D01*
X0121109Y0191490D02*
X0120408Y0190789D01*
X0120408Y0189388D01*
X0121109Y0188687D01*
X0122510Y0186886D02*
X0122510Y0184083D01*
X0121109Y0185485D02*
X0123911Y0185485D01*
X0113675Y0185485D02*
X0110873Y0185485D01*
X0112274Y0186886D02*
X0112274Y0184083D01*
X0113675Y0188687D02*
X0114376Y0189388D01*
X0114376Y0190789D01*
X0113675Y0191490D01*
X0112974Y0191490D01*
X0112274Y0190789D01*
X0112274Y0190089D01*
X0112274Y0190789D02*
X0111573Y0191490D01*
X0110873Y0191490D01*
X0110172Y0190789D01*
X0110172Y0189388D01*
X0110873Y0188687D01*
X0110172Y0193291D02*
X0112974Y0193291D01*
X0114376Y0194693D01*
X0112974Y0196094D01*
X0110172Y0196094D01*
X0110873Y0197895D02*
X0110172Y0198596D01*
X0110172Y0199997D01*
X0110873Y0200698D01*
X0111573Y0200698D01*
X0112274Y0199997D01*
X0112974Y0200698D01*
X0113675Y0200698D01*
X0114376Y0199997D01*
X0114376Y0198596D01*
X0113675Y0197895D01*
X0112274Y0199296D02*
X0112274Y0199997D01*
X0123911Y0197895D02*
X0124612Y0198596D01*
X0124612Y0199997D01*
X0120408Y0135825D02*
X0120408Y0133023D01*
X0120408Y0134424D02*
X0124612Y0134424D01*
X0124612Y0131221D02*
X0121809Y0131221D01*
X0120408Y0129820D01*
X0121809Y0128419D01*
X0124612Y0128419D01*
X0123911Y0126617D02*
X0124612Y0125917D01*
X0124612Y0123815D01*
X0120408Y0123815D01*
X0120408Y0125917D01*
X0121109Y0126617D01*
X0121809Y0126617D01*
X0122510Y0125917D01*
X0122510Y0123815D01*
X0123211Y0122013D02*
X0120408Y0122013D01*
X0120408Y0119211D02*
X0123211Y0119211D01*
X0124612Y0120612D01*
X0123211Y0122013D01*
X0122510Y0125917D02*
X0123211Y0126617D01*
X0123911Y0126617D01*
X0122510Y0128419D02*
X0122510Y0131221D01*
X0114376Y0130521D02*
X0114376Y0128419D01*
X0110172Y0128419D01*
X0110172Y0130521D01*
X0110873Y0131221D01*
X0113675Y0131221D01*
X0114376Y0130521D01*
X0114376Y0133023D02*
X0111573Y0133023D01*
X0110172Y0134424D01*
X0111573Y0135825D01*
X0114376Y0135825D01*
X0112274Y0135825D02*
X0112274Y0133023D01*
X0113675Y0126617D02*
X0110873Y0126617D01*
X0110172Y0125917D01*
X0110172Y0123815D01*
X0114376Y0123815D01*
X0114376Y0125917D01*
X0113675Y0126617D01*
X0112974Y0122013D02*
X0110172Y0122013D01*
X0110172Y0119211D02*
X0112974Y0119211D01*
X0114376Y0120612D01*
X0112974Y0122013D01*
X0088295Y0129688D02*
X0088295Y0133892D01*
X0086894Y0132491D01*
X0085493Y0133892D01*
X0085493Y0129688D01*
X0083691Y0129688D02*
X0082290Y0131089D01*
X0082991Y0131089D02*
X0080889Y0131089D01*
X0080889Y0129688D02*
X0080889Y0133892D01*
X0082991Y0133892D01*
X0083691Y0133191D01*
X0083691Y0131790D01*
X0082991Y0131089D01*
X0079087Y0129688D02*
X0076285Y0129688D01*
X0076285Y0133892D01*
X0079087Y0133892D01*
X0077686Y0131790D02*
X0076285Y0131790D01*
X0074483Y0131790D02*
X0071681Y0131790D01*
X0071681Y0129688D02*
X0071681Y0133892D01*
X0069880Y0133892D02*
X0067077Y0133892D01*
X0068478Y0133892D02*
X0068478Y0129688D01*
X0074483Y0129688D02*
X0074483Y0133892D01*
D11*
X0104799Y0147564D02*
X0129799Y0147564D01*
X0129799Y0172764D01*
X0104799Y0172764D01*
X0104799Y0147564D01*
X0109299Y0152164D02*
X0109299Y0168164D01*
X0115299Y0168164D01*
X0115299Y0152164D01*
X0109299Y0152164D01*
X0119299Y0152164D02*
X0119299Y0168164D01*
X0125299Y0168164D01*
X0125299Y0152164D01*
X0119299Y0152164D01*
X0069113Y0106159D02*
X0068545Y0106726D01*
X0069113Y0106159D02*
X0069113Y0105025D01*
X0068545Y0104457D01*
X0066277Y0104457D01*
X0065710Y0105025D01*
X0065710Y0106159D01*
X0066277Y0106726D01*
X0066277Y0103043D02*
X0065710Y0102476D01*
X0065710Y0100774D01*
X0069113Y0100774D01*
X0069113Y0102476D01*
X0068545Y0103043D01*
X0066277Y0103043D01*
X0065710Y0099360D02*
X0067978Y0099360D01*
X0069113Y0098225D01*
X0067978Y0097091D01*
X0065710Y0097091D01*
X0066277Y0095677D02*
X0065710Y0095109D01*
X0065710Y0093975D01*
X0066277Y0093408D01*
X0066277Y0095677D02*
X0066844Y0095677D01*
X0069113Y0093408D01*
X0069113Y0095677D01*
X0071710Y0094542D02*
X0072844Y0095677D01*
X0075113Y0095677D01*
X0075113Y0097091D02*
X0071710Y0099360D01*
X0071710Y0097091D02*
X0075113Y0099360D01*
X0079989Y0101998D02*
X0082257Y0101998D01*
X0081123Y0100864D02*
X0081123Y0103132D01*
X0073411Y0095677D02*
X0073411Y0093408D01*
X0072844Y0093408D02*
X0071710Y0094542D01*
X0072844Y0093408D02*
X0075113Y0093408D01*
X0075113Y0091993D02*
X0071710Y0091993D01*
X0072844Y0090859D01*
X0071710Y0089725D01*
X0075113Y0089725D01*
X0069113Y0089725D02*
X0069113Y0091993D01*
X0069113Y0090859D02*
X0065710Y0090859D01*
X0066844Y0089725D01*
X0067411Y0088310D02*
X0067411Y0086042D01*
X0067978Y0084627D02*
X0065710Y0084627D01*
X0067978Y0084627D02*
X0069113Y0083493D01*
X0067978Y0082359D01*
X0065710Y0082359D01*
X0065710Y0080944D02*
X0065710Y0078675D01*
X0067411Y0078675D01*
X0066844Y0079810D01*
X0066844Y0080377D01*
X0067411Y0080944D01*
X0068545Y0080944D01*
X0069113Y0080377D01*
X0069113Y0079243D01*
X0068545Y0078675D01*
X0086350Y0249274D02*
X0091350Y0249274D01*
X0093850Y0251774D01*
X0093850Y0266774D01*
X0096350Y0269274D01*
X0101350Y0269274D01*
X0103850Y0266774D01*
X0103850Y0251774D01*
X0106350Y0249274D01*
X0111350Y0249274D01*
X0113850Y0251774D01*
X0113850Y0266774D01*
X0116350Y0269274D01*
X0121350Y0269274D01*
X0123850Y0266774D01*
X0123850Y0251774D01*
X0126350Y0249274D01*
X0131350Y0249274D01*
X0133850Y0251774D01*
X0133850Y0266774D01*
X0136350Y0269274D01*
X0141350Y0269274D01*
X0143850Y0266774D01*
X0143850Y0251774D01*
X0146350Y0249274D01*
X0151350Y0249274D01*
X0153850Y0251774D01*
X0153850Y0266774D01*
X0156350Y0269274D01*
X0161350Y0269274D01*
X0163850Y0266774D01*
X0163850Y0251774D01*
X0161350Y0249274D01*
X0156350Y0249274D01*
X0153850Y0251774D01*
X0163850Y0251774D02*
X0166350Y0249274D01*
X0171350Y0249274D01*
X0173850Y0251774D01*
X0176350Y0249274D01*
X0181350Y0249274D01*
X0183850Y0251774D01*
X0183850Y0266774D01*
X0186350Y0269274D01*
X0191350Y0269274D01*
X0193850Y0266774D01*
X0193850Y0251774D01*
X0196350Y0249274D01*
X0201350Y0249274D01*
X0203850Y0251774D01*
X0203850Y0266774D01*
X0206350Y0269274D01*
X0211350Y0269274D01*
X0213850Y0266774D01*
X0213850Y0251774D01*
X0216350Y0249274D01*
X0221350Y0249274D01*
X0223850Y0251774D01*
X0223850Y0266774D01*
X0226350Y0269274D01*
X0231350Y0269274D01*
X0233850Y0266774D01*
X0233850Y0251774D01*
X0236350Y0249274D01*
X0241350Y0249274D01*
X0243850Y0251774D01*
X0243850Y0266774D01*
X0246350Y0269274D01*
X0251350Y0269274D01*
X0253850Y0266774D01*
X0253850Y0251774D01*
X0251350Y0249274D01*
X0246350Y0249274D01*
X0243850Y0251774D01*
X0233850Y0251774D02*
X0231350Y0249274D01*
X0226350Y0249274D01*
X0223850Y0251774D01*
X0213850Y0251774D02*
X0211350Y0249274D01*
X0206350Y0249274D01*
X0203850Y0251774D01*
X0193850Y0251774D02*
X0191350Y0249274D01*
X0186350Y0249274D01*
X0183850Y0251774D01*
X0173850Y0251774D02*
X0173850Y0266774D01*
X0176350Y0269274D01*
X0181350Y0269274D01*
X0183850Y0266774D01*
X0173850Y0266774D02*
X0171350Y0269274D01*
X0166350Y0269274D01*
X0163850Y0266774D01*
X0153850Y0266774D02*
X0151350Y0269274D01*
X0146350Y0269274D01*
X0143850Y0266774D01*
X0133850Y0266774D02*
X0131350Y0269274D01*
X0126350Y0269274D01*
X0123850Y0266774D01*
X0113850Y0266774D02*
X0111350Y0269274D01*
X0106350Y0269274D01*
X0103850Y0266774D01*
X0093850Y0266774D02*
X0091350Y0269274D01*
X0086350Y0269274D01*
X0083850Y0266774D01*
X0083850Y0251774D01*
X0086350Y0249274D01*
X0093850Y0251774D02*
X0096350Y0249274D01*
X0101350Y0249274D01*
X0103850Y0251774D01*
X0113850Y0251774D02*
X0116350Y0249274D01*
X0121350Y0249274D01*
X0123850Y0251774D01*
X0133850Y0251774D02*
X0136350Y0249274D01*
X0141350Y0249274D01*
X0143850Y0251774D01*
X0193850Y0266774D02*
X0196350Y0269274D01*
X0201350Y0269274D01*
X0203850Y0266774D01*
X0213850Y0266774D02*
X0216350Y0269274D01*
X0221350Y0269274D01*
X0223850Y0266774D01*
X0233850Y0266774D02*
X0236350Y0269274D01*
X0241350Y0269274D01*
X0243850Y0266774D01*
X0253850Y0266774D02*
X0256350Y0269274D01*
X0261350Y0269274D01*
X0263850Y0266774D01*
X0263850Y0251774D01*
X0261350Y0249274D01*
X0256350Y0249274D01*
X0253850Y0251774D01*
X0263850Y0251774D02*
X0266350Y0249274D01*
X0271350Y0249274D01*
X0273850Y0251774D01*
X0276350Y0249274D01*
X0281350Y0249274D01*
X0283850Y0251774D01*
X0283850Y0266774D01*
X0286350Y0269274D01*
X0291350Y0269274D01*
X0293850Y0266774D01*
X0293850Y0251774D01*
X0296350Y0249274D01*
X0301350Y0249274D01*
X0303850Y0251774D01*
X0303850Y0266774D01*
X0306350Y0269274D01*
X0311350Y0269274D01*
X0313850Y0266774D01*
X0313850Y0251774D01*
X0311350Y0249274D01*
X0306350Y0249274D01*
X0303850Y0251774D01*
X0293850Y0251774D02*
X0291350Y0249274D01*
X0286350Y0249274D01*
X0283850Y0251774D01*
X0273850Y0251774D02*
X0273850Y0266774D01*
X0276350Y0269274D01*
X0281350Y0269274D01*
X0283850Y0266774D01*
X0273850Y0266774D02*
X0271350Y0269274D01*
X0266350Y0269274D01*
X0263850Y0266774D01*
X0293850Y0266774D02*
X0296350Y0269274D01*
X0301350Y0269274D01*
X0303850Y0266774D01*
X0313850Y0266774D02*
X0316350Y0269274D01*
X0321350Y0269274D01*
X0323850Y0266774D01*
X0323850Y0251774D01*
X0321350Y0249274D01*
X0316350Y0249274D01*
X0313850Y0251774D01*
X0323850Y0251774D02*
X0326350Y0249274D01*
X0331350Y0249274D01*
X0333850Y0251774D01*
X0336350Y0249274D01*
X0341350Y0249274D01*
X0343850Y0251774D01*
X0343850Y0266774D01*
X0341350Y0269274D01*
X0336350Y0269274D01*
X0333850Y0266774D01*
X0333850Y0251774D01*
X0333850Y0266774D02*
X0331350Y0269274D01*
X0326350Y0269274D01*
X0323850Y0266774D01*
X0351305Y0163644D02*
X0351307Y0163686D01*
X0351313Y0163728D01*
X0351323Y0163770D01*
X0351336Y0163810D01*
X0351353Y0163849D01*
X0351374Y0163886D01*
X0351398Y0163921D01*
X0351425Y0163953D01*
X0351455Y0163983D01*
X0351487Y0164010D01*
X0351522Y0164034D01*
X0351559Y0164055D01*
X0351598Y0164072D01*
X0351638Y0164085D01*
X0351680Y0164095D01*
X0351722Y0164101D01*
X0351764Y0164103D01*
X0351806Y0164101D01*
X0351848Y0164095D01*
X0351890Y0164085D01*
X0351930Y0164072D01*
X0351969Y0164055D01*
X0352006Y0164034D01*
X0352041Y0164010D01*
X0352073Y0163983D01*
X0352103Y0163953D01*
X0352130Y0163921D01*
X0352154Y0163886D01*
X0352175Y0163849D01*
X0352192Y0163810D01*
X0352205Y0163770D01*
X0352215Y0163728D01*
X0352221Y0163686D01*
X0352223Y0163644D01*
X0352221Y0163602D01*
X0352215Y0163560D01*
X0352205Y0163518D01*
X0352192Y0163478D01*
X0352175Y0163439D01*
X0352154Y0163402D01*
X0352130Y0163367D01*
X0352103Y0163335D01*
X0352073Y0163305D01*
X0352041Y0163278D01*
X0352006Y0163254D01*
X0351969Y0163233D01*
X0351930Y0163216D01*
X0351890Y0163203D01*
X0351848Y0163193D01*
X0351806Y0163187D01*
X0351764Y0163185D01*
X0351722Y0163187D01*
X0351680Y0163193D01*
X0351638Y0163203D01*
X0351598Y0163216D01*
X0351559Y0163233D01*
X0351522Y0163254D01*
X0351487Y0163278D01*
X0351455Y0163305D01*
X0351425Y0163335D01*
X0351398Y0163367D01*
X0351374Y0163402D01*
X0351353Y0163439D01*
X0351336Y0163478D01*
X0351323Y0163518D01*
X0351313Y0163560D01*
X0351307Y0163602D01*
X0351305Y0163644D01*
X0353457Y0163802D02*
X0373457Y0163802D01*
X0373535Y0163880D02*
X0373535Y0162975D01*
X0353457Y0162935D02*
X0353417Y0162935D01*
X0353457Y0162935D02*
X0353457Y0163841D01*
X0353457Y0138447D02*
X0353457Y0137463D01*
X0353457Y0137424D02*
X0373457Y0137424D01*
X0373496Y0137384D02*
X0373496Y0138408D01*
D12*
X0081124Y0099164D02*
X0081124Y0093364D01*
X0084124Y0095564D02*
X0084185Y0095461D01*
X0084242Y0095356D01*
X0084296Y0095250D01*
X0084346Y0095141D01*
X0084393Y0095031D01*
X0084436Y0094920D01*
X0084476Y0094807D01*
X0084511Y0094693D01*
X0084543Y0094577D01*
X0084572Y0094461D01*
X0084596Y0094344D01*
X0084616Y0094226D01*
X0084633Y0094108D01*
X0084645Y0093989D01*
X0084654Y0093870D01*
X0084659Y0093751D01*
X0084660Y0093631D01*
X0084657Y0093511D01*
X0084650Y0093392D01*
X0084639Y0093273D01*
X0084624Y0093154D01*
X0084605Y0093036D01*
X0084583Y0092919D01*
X0084556Y0092802D01*
X0084526Y0092687D01*
X0084492Y0092572D01*
X0084454Y0092459D01*
X0084413Y0092347D01*
X0084368Y0092236D01*
X0084319Y0092127D01*
X0084267Y0092019D01*
X0084211Y0091914D01*
X0084152Y0091810D01*
X0084089Y0091708D01*
X0084023Y0091608D01*
X0083954Y0091511D01*
X0083882Y0091416D01*
X0083806Y0091323D01*
X0083728Y0091233D01*
X0083646Y0091145D01*
X0083562Y0091060D01*
X0083475Y0090978D01*
X0083385Y0090899D01*
X0083293Y0090823D01*
X0083199Y0090750D01*
X0083102Y0090680D01*
X0083003Y0090613D01*
X0082901Y0090550D01*
X0082798Y0090490D01*
X0082692Y0090433D01*
X0082585Y0090380D01*
X0082477Y0090331D01*
X0082366Y0090285D01*
X0082254Y0090243D01*
X0082141Y0090204D01*
X0082027Y0090169D01*
X0081912Y0090138D01*
X0081795Y0090111D01*
X0081678Y0090087D01*
X0081560Y0090068D01*
X0081441Y0090052D01*
X0081323Y0090040D01*
X0081203Y0090032D01*
X0081084Y0090028D01*
X0080964Y0090028D01*
X0080845Y0090032D01*
X0080725Y0090040D01*
X0080607Y0090052D01*
X0080488Y0090068D01*
X0080370Y0090087D01*
X0080253Y0090111D01*
X0080136Y0090138D01*
X0080021Y0090169D01*
X0079907Y0090204D01*
X0079794Y0090243D01*
X0079682Y0090285D01*
X0079571Y0090331D01*
X0079463Y0090380D01*
X0079356Y0090433D01*
X0079250Y0090490D01*
X0079147Y0090550D01*
X0079045Y0090613D01*
X0078946Y0090680D01*
X0078849Y0090750D01*
X0078755Y0090823D01*
X0078663Y0090899D01*
X0078573Y0090978D01*
X0078486Y0091060D01*
X0078402Y0091145D01*
X0078320Y0091233D01*
X0078242Y0091323D01*
X0078166Y0091416D01*
X0078094Y0091511D01*
X0078025Y0091608D01*
X0077959Y0091708D01*
X0077896Y0091810D01*
X0077837Y0091914D01*
X0077781Y0092019D01*
X0077729Y0092127D01*
X0077680Y0092236D01*
X0077635Y0092347D01*
X0077594Y0092459D01*
X0077556Y0092572D01*
X0077522Y0092687D01*
X0077492Y0092802D01*
X0077465Y0092919D01*
X0077443Y0093036D01*
X0077424Y0093154D01*
X0077409Y0093273D01*
X0077398Y0093392D01*
X0077391Y0093511D01*
X0077388Y0093631D01*
X0077389Y0093751D01*
X0077394Y0093870D01*
X0077403Y0093989D01*
X0077415Y0094108D01*
X0077432Y0094226D01*
X0077452Y0094344D01*
X0077476Y0094461D01*
X0077505Y0094577D01*
X0077537Y0094693D01*
X0077572Y0094807D01*
X0077612Y0094920D01*
X0077655Y0095031D01*
X0077702Y0095141D01*
X0077752Y0095250D01*
X0077806Y0095356D01*
X0077863Y0095461D01*
X0077924Y0095564D01*
X0080299Y0093764D02*
X0080301Y0093821D01*
X0080307Y0093878D01*
X0080317Y0093934D01*
X0080330Y0093989D01*
X0080348Y0094043D01*
X0080369Y0094096D01*
X0080393Y0094147D01*
X0080422Y0094197D01*
X0080453Y0094244D01*
X0080488Y0094289D01*
X0080526Y0094332D01*
X0080566Y0094372D01*
X0080610Y0094409D01*
X0080655Y0094443D01*
X0080703Y0094474D01*
X0080753Y0094501D01*
X0080805Y0094525D01*
X0080858Y0094545D01*
X0080913Y0094561D01*
X0080968Y0094574D01*
X0081025Y0094583D01*
X0081081Y0094588D01*
X0081138Y0094589D01*
X0081195Y0094586D01*
X0081252Y0094579D01*
X0081308Y0094568D01*
X0081363Y0094554D01*
X0081417Y0094535D01*
X0081469Y0094513D01*
X0081520Y0094488D01*
X0081569Y0094459D01*
X0081616Y0094426D01*
X0081660Y0094391D01*
X0081702Y0094352D01*
X0081742Y0094311D01*
X0081778Y0094267D01*
X0081811Y0094221D01*
X0081841Y0094172D01*
X0081867Y0094122D01*
X0081890Y0094070D01*
X0081909Y0094016D01*
X0081925Y0093961D01*
X0081937Y0093906D01*
X0081945Y0093849D01*
X0081949Y0093792D01*
X0081949Y0093736D01*
X0081945Y0093679D01*
X0081937Y0093622D01*
X0081925Y0093567D01*
X0081909Y0093512D01*
X0081890Y0093458D01*
X0081867Y0093406D01*
X0081841Y0093356D01*
X0081811Y0093307D01*
X0081778Y0093261D01*
X0081742Y0093217D01*
X0081702Y0093176D01*
X0081660Y0093137D01*
X0081616Y0093102D01*
X0081569Y0093069D01*
X0081520Y0093040D01*
X0081469Y0093015D01*
X0081417Y0092993D01*
X0081363Y0092974D01*
X0081308Y0092960D01*
X0081252Y0092949D01*
X0081195Y0092942D01*
X0081138Y0092939D01*
X0081081Y0092940D01*
X0081025Y0092945D01*
X0080968Y0092954D01*
X0080913Y0092967D01*
X0080858Y0092983D01*
X0080805Y0093003D01*
X0080753Y0093027D01*
X0080703Y0093054D01*
X0080655Y0093085D01*
X0080610Y0093119D01*
X0080566Y0093156D01*
X0080526Y0093196D01*
X0080488Y0093239D01*
X0080453Y0093284D01*
X0080422Y0093331D01*
X0080393Y0093381D01*
X0080369Y0093432D01*
X0080348Y0093485D01*
X0080330Y0093539D01*
X0080317Y0093594D01*
X0080307Y0093650D01*
X0080301Y0093707D01*
X0080299Y0093764D01*
X0081124Y0089964D02*
X0081124Y0085964D01*
D13*
X0070839Y0210369D03*
X0070839Y0214009D03*
X0070839Y0222369D03*
X0099939Y0212509D03*
D14*
X0070839Y0210388D03*
X0070839Y0222348D03*
D15*
X0070849Y0222329D03*
X0075069Y0220609D03*
X0066609Y0220609D03*
X0066609Y0212129D03*
X0070849Y0210409D03*
X0075069Y0212129D03*
D16*
X0070839Y0210469D03*
X0070839Y0210429D03*
X0070839Y0218729D03*
X0070839Y0222269D03*
X0070839Y0222309D03*
X0086519Y0217429D03*
D17*
X0075059Y0220588D03*
X0070839Y0222248D03*
X0070839Y0222288D03*
X0066619Y0220588D03*
X0070839Y0210448D03*
X0099919Y0212488D03*
X0107519Y0213288D03*
D18*
X0075049Y0212148D03*
X0070849Y0210488D03*
X0066629Y0212148D03*
X0068009Y0217048D03*
X0066669Y0220548D03*
X0073669Y0217048D03*
D19*
X0070839Y0222169D03*
X0070839Y0222209D03*
X0070839Y0222229D03*
X0070839Y0210569D03*
X0070839Y0210529D03*
X0070839Y0210509D03*
X0107519Y0213269D03*
D20*
X0086539Y0217448D03*
X0075019Y0220548D03*
X0070839Y0222188D03*
X0070839Y0218748D03*
X0070839Y0213988D03*
X0074999Y0212188D03*
X0070839Y0210548D03*
X0066679Y0212188D03*
D21*
X0067989Y0215688D03*
X0073689Y0215688D03*
X0070849Y0210588D03*
X0070849Y0222148D03*
D22*
X0070839Y0222129D03*
X0070839Y0222109D03*
X0070839Y0222069D03*
X0070839Y0210669D03*
X0070839Y0210629D03*
X0070839Y0210609D03*
D23*
X0070839Y0210648D03*
X0074939Y0212248D03*
X0066739Y0212248D03*
X0070839Y0222088D03*
D24*
X0070839Y0221988D03*
X0074899Y0220448D03*
X0066779Y0220448D03*
X0070839Y0210748D03*
X0070839Y0210688D03*
X0074899Y0212288D03*
D25*
X0074919Y0212269D03*
X0070839Y0210729D03*
X0070839Y0210709D03*
X0066759Y0212269D03*
X0070839Y0218769D03*
X0070839Y0221969D03*
X0070839Y0222009D03*
X0070839Y0222029D03*
X0066759Y0220469D03*
X0107519Y0213229D03*
X0115399Y0213169D03*
D26*
X0107449Y0216869D03*
X0074889Y0220429D03*
X0073709Y0217029D03*
X0067969Y0217029D03*
X0066809Y0212309D03*
X0070849Y0210769D03*
D27*
X0070839Y0210788D03*
X0070839Y0210848D03*
X0070839Y0213948D03*
X0070839Y0221888D03*
X0070839Y0221948D03*
X0115399Y0213148D03*
D28*
X0099839Y0212429D03*
X0074879Y0212309D03*
X0070839Y0210829D03*
X0070839Y0210809D03*
X0066799Y0220429D03*
X0070839Y0221909D03*
X0070839Y0221929D03*
D29*
X0070849Y0221869D03*
X0066829Y0212329D03*
X0070849Y0210869D03*
D30*
X0070839Y0210888D03*
X0070839Y0210948D03*
X0070839Y0221788D03*
X0070839Y0221848D03*
D31*
X0070839Y0221829D03*
X0070839Y0221809D03*
X0074819Y0220369D03*
X0066859Y0220369D03*
X0066879Y0212369D03*
X0070839Y0210929D03*
X0070839Y0210909D03*
X0086579Y0217509D03*
X0099819Y0212409D03*
X0115399Y0213129D03*
D32*
X0115399Y0213109D03*
X0088639Y0218569D03*
X0086599Y0217529D03*
X0074779Y0220329D03*
X0073759Y0217009D03*
X0070839Y0218809D03*
X0070839Y0221709D03*
X0070839Y0221729D03*
X0067919Y0217009D03*
X0066939Y0212429D03*
X0066919Y0212409D03*
X0070839Y0211029D03*
X0070839Y0211009D03*
X0070839Y0210969D03*
X0074759Y0212409D03*
D33*
X0070839Y0210988D03*
X0070839Y0221688D03*
X0070839Y0221748D03*
D34*
X0074729Y0220288D03*
X0066949Y0220288D03*
X0070849Y0211048D03*
X0099789Y0212388D03*
D35*
X0070839Y0211129D03*
X0070839Y0211109D03*
X0070839Y0211069D03*
X0070839Y0213909D03*
X0070839Y0221609D03*
X0070839Y0221629D03*
X0070839Y0221669D03*
D36*
X0070839Y0221648D03*
X0070839Y0211088D03*
D37*
X0070849Y0211148D03*
X0074689Y0220248D03*
X0070849Y0221588D03*
X0086629Y0217548D03*
X0107449Y0216948D03*
X0107529Y0213148D03*
D38*
X0115399Y0213069D03*
X0099759Y0212369D03*
X0074659Y0212509D03*
X0070839Y0211229D03*
X0070839Y0211209D03*
X0070839Y0211169D03*
X0074659Y0220229D03*
X0070839Y0221509D03*
X0070839Y0221529D03*
X0070839Y0221569D03*
X0067019Y0220229D03*
D39*
X0066999Y0220248D03*
X0070839Y0221548D03*
X0074679Y0212488D03*
X0070839Y0211188D03*
X0066999Y0212488D03*
D40*
X0070839Y0211288D03*
X0070839Y0211248D03*
X0070839Y0213888D03*
X0070839Y0218848D03*
X0070839Y0221448D03*
X0115399Y0213048D03*
D41*
X0095979Y0218429D03*
X0086639Y0217569D03*
X0070839Y0221409D03*
X0070839Y0221429D03*
X0070839Y0221469D03*
X0070839Y0211309D03*
X0070839Y0211269D03*
D42*
X0070849Y0211329D03*
X0107529Y0213109D03*
D43*
X0099719Y0212348D03*
X0086659Y0217588D03*
X0074579Y0220148D03*
X0070839Y0221348D03*
X0070839Y0221388D03*
X0067099Y0220148D03*
X0067119Y0212588D03*
X0070839Y0211388D03*
X0070839Y0211348D03*
D44*
X0070839Y0211369D03*
X0070839Y0211409D03*
X0070839Y0213869D03*
X0070839Y0221329D03*
X0070839Y0221369D03*
D45*
X0070849Y0221309D03*
X0074529Y0220109D03*
X0074549Y0220129D03*
X0067149Y0220109D03*
X0067129Y0220129D03*
X0067129Y0212609D03*
X0070849Y0211429D03*
X0074549Y0212609D03*
X0107449Y0217009D03*
X0115409Y0213029D03*
D46*
X0070839Y0211488D03*
X0070839Y0211448D03*
X0067179Y0212648D03*
X0070839Y0221248D03*
X0070839Y0221288D03*
D47*
X0070839Y0221269D03*
X0070839Y0221229D03*
X0070839Y0218869D03*
X0074519Y0212629D03*
X0070839Y0211509D03*
X0070839Y0211469D03*
X0067159Y0212629D03*
D48*
X0067839Y0215769D03*
X0070839Y0211569D03*
X0070839Y0211529D03*
X0073839Y0215769D03*
X0070839Y0221129D03*
X0070839Y0221169D03*
D49*
X0070839Y0221188D03*
X0070839Y0221148D03*
X0070839Y0218888D03*
X0070839Y0213848D03*
X0070839Y0211588D03*
X0070839Y0211548D03*
D50*
X0070849Y0211609D03*
X0067249Y0212709D03*
X0074449Y0220029D03*
X0098869Y0211669D03*
D51*
X0095899Y0218409D03*
X0086699Y0217629D03*
X0074419Y0220009D03*
X0070839Y0221069D03*
X0070839Y0221109D03*
X0067259Y0220009D03*
X0067239Y0220029D03*
X0070839Y0213829D03*
X0070839Y0211669D03*
X0070839Y0211629D03*
X0074419Y0212729D03*
X0074439Y0212709D03*
D52*
X0088259Y0211629D03*
X0091119Y0214209D03*
X0091119Y0214229D03*
X0091119Y0214269D03*
X0091119Y0214309D03*
X0091119Y0214329D03*
X0091119Y0214369D03*
X0091119Y0214409D03*
X0091119Y0214429D03*
X0091119Y0214469D03*
X0091119Y0214509D03*
X0091119Y0214529D03*
X0091119Y0214569D03*
X0091119Y0214609D03*
X0091119Y0214629D03*
X0091119Y0214669D03*
X0091119Y0214709D03*
X0091119Y0214729D03*
X0091119Y0214769D03*
X0091119Y0214809D03*
X0091119Y0214829D03*
X0091119Y0214869D03*
X0091119Y0214909D03*
X0091119Y0214929D03*
X0091119Y0214969D03*
X0091119Y0215009D03*
X0091119Y0215029D03*
X0113159Y0211629D03*
D53*
X0105309Y0211629D03*
X0107449Y0217069D03*
X0070849Y0221029D03*
X0067269Y0212729D03*
X0070849Y0211709D03*
D54*
X0070839Y0211688D03*
X0070839Y0211648D03*
X0070839Y0221048D03*
X0070839Y0221088D03*
X0107539Y0213048D03*
X0115399Y0212988D03*
D55*
X0115159Y0212648D03*
X0114659Y0217548D03*
X0107419Y0217248D03*
X0103439Y0217448D03*
X0103299Y0212748D03*
X0105319Y0211648D03*
X0088259Y0211648D03*
X0084399Y0216388D03*
X0086839Y0217748D03*
X0084479Y0219748D03*
X0070839Y0220148D03*
X0067679Y0215848D03*
X0070839Y0212588D03*
D56*
X0073909Y0213188D03*
X0067769Y0213188D03*
X0067769Y0219548D03*
X0070849Y0220088D03*
X0073909Y0219548D03*
X0084449Y0219788D03*
X0084349Y0216348D03*
X0086569Y0214988D03*
X0086529Y0212588D03*
X0090929Y0213188D03*
X0092749Y0216048D03*
X0093929Y0217348D03*
X0103489Y0217488D03*
X0107369Y0217288D03*
X0111389Y0217548D03*
X0113169Y0211648D03*
X0115069Y0212588D03*
X0107149Y0212588D03*
X0103369Y0212688D03*
D57*
X0105319Y0211669D03*
X0092859Y0216429D03*
X0090819Y0215169D03*
X0088259Y0211669D03*
X0084019Y0216109D03*
X0084119Y0220029D03*
X0073659Y0219309D03*
D58*
X0074119Y0216829D03*
X0070839Y0219469D03*
X0070839Y0219509D03*
X0070839Y0219529D03*
X0070839Y0213609D03*
X0070839Y0213269D03*
X0070839Y0213229D03*
X0070839Y0213209D03*
X0073599Y0213469D03*
X0068079Y0213469D03*
X0086839Y0212369D03*
X0089659Y0212329D03*
X0090799Y0212909D03*
X0092879Y0216509D03*
X0094359Y0217629D03*
X0097959Y0212309D03*
X0098879Y0211729D03*
X0103879Y0217729D03*
X0114299Y0217769D03*
X0114699Y0212369D03*
X0113179Y0211669D03*
D59*
X0105319Y0211688D03*
X0088259Y0211688D03*
D60*
X0086329Y0212788D03*
X0084589Y0216588D03*
X0084709Y0219488D03*
X0084669Y0219548D03*
X0090629Y0217448D03*
X0092689Y0215788D03*
X0093689Y0217148D03*
X0097609Y0212548D03*
X0098869Y0211688D03*
X0103069Y0212988D03*
X0107469Y0212848D03*
X0107509Y0212888D03*
X0111069Y0212848D03*
X0115389Y0212848D03*
X0114869Y0217348D03*
X0111149Y0217348D03*
X0103209Y0217248D03*
X0074069Y0219688D03*
X0067609Y0219688D03*
X0074069Y0213048D03*
D61*
X0073359Y0213688D03*
X0074199Y0216788D03*
X0068319Y0213688D03*
X0087039Y0212288D03*
X0089979Y0217888D03*
X0104039Y0212288D03*
X0113179Y0211688D03*
D62*
X0105319Y0211709D03*
X0088259Y0211709D03*
X0073159Y0213869D03*
X0068519Y0213869D03*
D63*
X0067629Y0215869D03*
X0067849Y0219469D03*
X0070849Y0219909D03*
X0073829Y0219469D03*
X0074049Y0215869D03*
X0073829Y0213269D03*
X0070849Y0212829D03*
X0088669Y0215909D03*
X0090329Y0217709D03*
X0092789Y0216229D03*
X0092789Y0216209D03*
X0094089Y0217469D03*
X0095649Y0218309D03*
X0097829Y0212369D03*
X0098869Y0211709D03*
X0089849Y0212409D03*
X0107149Y0217469D03*
X0111469Y0212509D03*
X0114949Y0212509D03*
X0114489Y0217669D03*
D64*
X0113189Y0211709D03*
D65*
X0115399Y0212969D03*
X0107539Y0213029D03*
X0074379Y0212769D03*
X0070839Y0211769D03*
X0070839Y0211729D03*
X0070839Y0218909D03*
X0070839Y0220969D03*
X0070839Y0221009D03*
X0074379Y0219969D03*
X0067299Y0219969D03*
D66*
X0068689Y0218709D03*
X0072989Y0218709D03*
X0072989Y0214029D03*
X0068689Y0214029D03*
X0088269Y0211729D03*
X0098869Y0211809D03*
D67*
X0105319Y0211729D03*
X0113039Y0218329D03*
X0074319Y0216729D03*
X0068739Y0214069D03*
D68*
X0067369Y0216729D03*
X0068729Y0218669D03*
X0072949Y0218669D03*
X0072949Y0214069D03*
X0104289Y0212229D03*
X0113189Y0211729D03*
D69*
X0073879Y0216948D03*
X0070839Y0220948D03*
X0070839Y0220988D03*
X0067799Y0216948D03*
X0070839Y0211788D03*
X0070839Y0211748D03*
D70*
X0072819Y0214188D03*
X0068859Y0214188D03*
X0068859Y0218548D03*
X0072819Y0218548D03*
X0088259Y0211748D03*
X0095239Y0217988D03*
X0105319Y0211748D03*
D71*
X0106609Y0212288D03*
X0111889Y0212288D03*
X0105329Y0218388D03*
X0104029Y0217788D03*
X0098869Y0211748D03*
X0098049Y0212288D03*
X0089549Y0212288D03*
X0087029Y0215248D03*
X0073409Y0219088D03*
X0068269Y0219088D03*
D72*
X0113179Y0211748D03*
D73*
X0115399Y0212929D03*
X0115659Y0215429D03*
X0115659Y0215469D03*
X0115639Y0215609D03*
X0115639Y0215629D03*
X0115619Y0215729D03*
X0115619Y0215769D03*
X0115599Y0215829D03*
X0115599Y0215869D03*
X0115579Y0215929D03*
X0115579Y0215969D03*
X0115559Y0216009D03*
X0115559Y0216029D03*
X0115559Y0216069D03*
X0115539Y0216109D03*
X0115539Y0216129D03*
X0115519Y0216169D03*
X0115479Y0216309D03*
X0110519Y0216369D03*
X0110499Y0216329D03*
X0110499Y0216309D03*
X0110479Y0216269D03*
X0110459Y0216229D03*
X0110459Y0216209D03*
X0110439Y0216169D03*
X0110439Y0216129D03*
X0110419Y0216069D03*
X0110399Y0216029D03*
X0110399Y0216009D03*
X0110379Y0215929D03*
X0110339Y0214329D03*
X0110359Y0214229D03*
X0110359Y0214209D03*
X0110379Y0214169D03*
X0110379Y0214129D03*
X0110399Y0214069D03*
X0110419Y0214029D03*
X0110419Y0214009D03*
X0110439Y0213929D03*
X0110459Y0213869D03*
X0110479Y0213829D03*
X0110499Y0213769D03*
X0107439Y0217109D03*
X0102479Y0216029D03*
X0102459Y0215969D03*
X0102439Y0215909D03*
X0102419Y0215829D03*
X0102419Y0215809D03*
X0102399Y0215769D03*
X0102399Y0215729D03*
X0102399Y0215709D03*
X0102379Y0215669D03*
X0102379Y0215629D03*
X0102379Y0215609D03*
X0102359Y0215569D03*
X0102359Y0215529D03*
X0102359Y0215509D03*
X0102359Y0215469D03*
X0102339Y0215409D03*
X0102339Y0215369D03*
X0102339Y0215329D03*
X0102339Y0215309D03*
X0102339Y0215269D03*
X0102319Y0215069D03*
X0102319Y0215029D03*
X0102319Y0215009D03*
X0102319Y0214969D03*
X0102339Y0214829D03*
X0102339Y0214809D03*
X0102339Y0214769D03*
X0102339Y0214729D03*
X0102339Y0214709D03*
X0102339Y0214669D03*
X0102359Y0214609D03*
X0102359Y0214569D03*
X0102359Y0214529D03*
X0102379Y0214469D03*
X0102379Y0214429D03*
X0097339Y0213169D03*
X0097359Y0213069D03*
X0097379Y0213009D03*
X0097399Y0212929D03*
X0092599Y0215069D03*
X0092599Y0215109D03*
X0092599Y0215129D03*
X0093279Y0216669D03*
X0091019Y0216709D03*
X0090999Y0216769D03*
X0090979Y0216809D03*
X0090979Y0216829D03*
X0090959Y0216869D03*
X0091079Y0213809D03*
X0091079Y0213769D03*
X0090419Y0212829D03*
X0090399Y0212809D03*
X0086019Y0213569D03*
X0086019Y0213609D03*
X0086019Y0213629D03*
X0086019Y0213669D03*
X0086019Y0213709D03*
X0086019Y0213729D03*
X0086019Y0213769D03*
X0086019Y0213809D03*
X0086019Y0213829D03*
X0086019Y0213869D03*
X0086019Y0213909D03*
X0086019Y0213929D03*
X0086019Y0213969D03*
X0086019Y0214009D03*
X0086039Y0214069D03*
X0086039Y0214109D03*
X0085059Y0217529D03*
X0085079Y0217629D03*
X0085079Y0217669D03*
X0085099Y0217729D03*
X0085099Y0217769D03*
X0085099Y0217809D03*
X0085099Y0217829D03*
X0085119Y0217909D03*
X0085119Y0217929D03*
X0085119Y0217969D03*
X0085119Y0218009D03*
X0085119Y0218029D03*
X0085119Y0218069D03*
X0085119Y0218109D03*
X0085119Y0218129D03*
X0085119Y0218169D03*
X0085119Y0218209D03*
X0085119Y0218229D03*
X0085119Y0218269D03*
X0085119Y0218309D03*
X0085099Y0218409D03*
X0085099Y0218429D03*
X0085099Y0218469D03*
X0086739Y0217669D03*
X0079599Y0217669D03*
X0079599Y0217709D03*
X0079599Y0217729D03*
X0079599Y0217769D03*
X0079599Y0217809D03*
X0079599Y0217829D03*
X0079599Y0217869D03*
X0079599Y0217909D03*
X0079599Y0217929D03*
X0079599Y0217969D03*
X0079599Y0218009D03*
X0079599Y0218029D03*
X0079599Y0218069D03*
X0079599Y0218109D03*
X0079599Y0218129D03*
X0079599Y0218169D03*
X0079599Y0218209D03*
X0079599Y0218229D03*
X0079599Y0218269D03*
X0079599Y0218309D03*
X0079599Y0218329D03*
X0079599Y0218369D03*
X0079599Y0218409D03*
X0079599Y0218429D03*
X0079599Y0218469D03*
X0079599Y0218509D03*
X0079599Y0218529D03*
X0079599Y0218569D03*
X0079599Y0218609D03*
X0079599Y0218629D03*
X0079599Y0218669D03*
X0079599Y0218709D03*
X0079599Y0218729D03*
X0079599Y0218769D03*
X0079599Y0218809D03*
X0079599Y0218829D03*
X0079599Y0218869D03*
X0079599Y0218909D03*
X0079599Y0218929D03*
X0079599Y0218969D03*
X0079599Y0219009D03*
X0079599Y0219029D03*
X0079599Y0219069D03*
X0079599Y0219109D03*
X0079599Y0219129D03*
X0079599Y0219169D03*
X0079599Y0219209D03*
X0079599Y0219229D03*
X0079599Y0219269D03*
X0079599Y0219309D03*
X0079599Y0219329D03*
X0079599Y0219369D03*
X0079599Y0219409D03*
X0079599Y0219429D03*
X0079599Y0219469D03*
X0079599Y0219509D03*
X0079599Y0219529D03*
X0079599Y0219569D03*
X0079599Y0219609D03*
X0079599Y0219629D03*
X0079599Y0219669D03*
X0079599Y0219709D03*
X0079599Y0219729D03*
X0079599Y0219769D03*
X0079599Y0219809D03*
X0079599Y0219829D03*
X0079599Y0219869D03*
X0079599Y0219909D03*
X0079599Y0219929D03*
X0079599Y0219969D03*
X0079599Y0220009D03*
X0079599Y0220029D03*
X0079599Y0220069D03*
X0079599Y0220109D03*
X0079599Y0220129D03*
X0079599Y0220169D03*
X0079599Y0220209D03*
X0079599Y0220229D03*
X0079599Y0220269D03*
X0079599Y0217629D03*
X0079599Y0217609D03*
X0079599Y0217569D03*
X0079599Y0217529D03*
X0079599Y0217509D03*
X0079599Y0217469D03*
X0079599Y0217429D03*
X0079599Y0217409D03*
X0079599Y0217369D03*
X0079599Y0217329D03*
X0079599Y0217309D03*
X0079599Y0217269D03*
X0079599Y0217229D03*
X0079599Y0217209D03*
X0079599Y0217169D03*
X0079599Y0217129D03*
X0079599Y0217109D03*
X0079599Y0217069D03*
X0079599Y0217029D03*
X0079599Y0217009D03*
X0079599Y0216969D03*
X0079599Y0216929D03*
X0079599Y0216909D03*
X0079599Y0216869D03*
X0079599Y0216829D03*
X0079599Y0216809D03*
X0079599Y0216769D03*
X0079599Y0216729D03*
X0079599Y0216709D03*
X0079599Y0216669D03*
X0079599Y0216629D03*
X0079599Y0216609D03*
X0079599Y0216569D03*
X0079599Y0216529D03*
X0079599Y0216509D03*
X0079599Y0216469D03*
X0079599Y0216429D03*
X0079599Y0216409D03*
X0079599Y0216369D03*
X0079599Y0216329D03*
X0079599Y0216309D03*
X0079599Y0216269D03*
X0079599Y0216229D03*
X0079599Y0216209D03*
X0079599Y0216169D03*
X0079599Y0216129D03*
X0079599Y0216109D03*
X0079599Y0216069D03*
X0079599Y0216029D03*
X0079599Y0216009D03*
X0079599Y0215969D03*
X0079599Y0215929D03*
X0079599Y0215909D03*
X0079599Y0215869D03*
X0079599Y0215169D03*
X0079599Y0215129D03*
X0079599Y0215109D03*
X0079599Y0215069D03*
X0079599Y0215029D03*
X0079599Y0215009D03*
X0079599Y0214969D03*
X0079599Y0214929D03*
X0079599Y0214909D03*
X0079599Y0214869D03*
X0079599Y0214829D03*
X0079599Y0214809D03*
X0079599Y0214769D03*
X0079599Y0214729D03*
X0079599Y0214709D03*
X0079599Y0214669D03*
X0079599Y0214629D03*
X0079599Y0214609D03*
X0079599Y0214569D03*
X0079599Y0214529D03*
X0079599Y0214509D03*
X0079599Y0214469D03*
X0079599Y0214429D03*
X0079599Y0214409D03*
X0079599Y0214369D03*
X0079599Y0214329D03*
X0079599Y0214309D03*
X0079599Y0214269D03*
X0079599Y0214229D03*
X0079599Y0214209D03*
X0079599Y0214169D03*
X0079599Y0214129D03*
X0079599Y0214109D03*
X0079599Y0214069D03*
X0079599Y0214029D03*
X0079599Y0214009D03*
X0079599Y0213969D03*
X0079599Y0213929D03*
X0079599Y0213909D03*
X0079599Y0213869D03*
X0079599Y0213829D03*
X0079599Y0213809D03*
X0079599Y0213769D03*
X0079599Y0213729D03*
X0079599Y0213709D03*
X0079599Y0213669D03*
X0079599Y0213629D03*
X0079599Y0213609D03*
X0079599Y0213569D03*
X0079599Y0213529D03*
X0079599Y0213509D03*
X0079599Y0213469D03*
X0079599Y0213429D03*
X0079599Y0213409D03*
X0079599Y0213369D03*
X0079599Y0213329D03*
X0079599Y0213309D03*
X0079599Y0213269D03*
X0079599Y0213229D03*
X0079599Y0213209D03*
X0079599Y0213169D03*
X0079599Y0213129D03*
X0079599Y0213109D03*
X0079599Y0213069D03*
X0079599Y0213029D03*
X0079599Y0213009D03*
X0079599Y0212969D03*
X0079599Y0212929D03*
X0079599Y0212909D03*
X0079599Y0212869D03*
X0079599Y0212829D03*
X0079599Y0212809D03*
X0079599Y0212769D03*
X0079599Y0212729D03*
X0079599Y0212709D03*
X0079599Y0212669D03*
X0079599Y0212629D03*
X0079599Y0212609D03*
X0079599Y0212569D03*
X0079599Y0212529D03*
X0079599Y0212509D03*
X0079599Y0212469D03*
X0079599Y0212429D03*
X0079599Y0212409D03*
X0079599Y0212369D03*
X0079599Y0212329D03*
X0079599Y0212309D03*
X0079599Y0212269D03*
X0079599Y0212229D03*
X0079599Y0212209D03*
X0079599Y0212169D03*
X0079599Y0212129D03*
X0079599Y0212109D03*
X0079599Y0212069D03*
X0079599Y0212029D03*
X0079599Y0212009D03*
X0079599Y0211969D03*
X0079599Y0211929D03*
X0079599Y0211909D03*
X0079599Y0211869D03*
X0079599Y0211829D03*
X0079599Y0211809D03*
X0079599Y0211769D03*
X0074259Y0212869D03*
X0070839Y0211969D03*
X0070839Y0211929D03*
X0070839Y0211909D03*
X0067419Y0212869D03*
X0067419Y0219869D03*
X0070839Y0220769D03*
X0070839Y0220809D03*
X0070839Y0220829D03*
D74*
X0088269Y0211769D03*
X0095169Y0217909D03*
D75*
X0092579Y0217909D03*
X0092579Y0217929D03*
X0092579Y0217969D03*
X0092579Y0218009D03*
X0092579Y0218029D03*
X0092579Y0218069D03*
X0092579Y0218109D03*
X0092579Y0218129D03*
X0092579Y0218169D03*
X0092579Y0218209D03*
X0092579Y0218229D03*
X0092579Y0218269D03*
X0092579Y0218309D03*
X0092579Y0218329D03*
X0092579Y0218369D03*
X0092579Y0218409D03*
X0092579Y0218429D03*
X0092579Y0217869D03*
X0092579Y0217829D03*
X0092579Y0217809D03*
X0092579Y0217769D03*
X0092579Y0217729D03*
X0092579Y0217709D03*
X0092579Y0217669D03*
X0092579Y0217629D03*
X0092579Y0217609D03*
X0092579Y0217569D03*
X0092579Y0217529D03*
X0092579Y0217509D03*
X0092579Y0217469D03*
X0092579Y0217429D03*
X0092579Y0217409D03*
X0092579Y0217369D03*
X0092579Y0217329D03*
X0092579Y0217309D03*
X0092579Y0217269D03*
X0092579Y0217229D03*
X0092579Y0217209D03*
X0092579Y0217169D03*
X0092579Y0217129D03*
X0092579Y0217109D03*
X0092579Y0217069D03*
X0092579Y0217029D03*
X0092579Y0217009D03*
X0092579Y0216969D03*
X0092579Y0216929D03*
X0092579Y0216909D03*
X0092579Y0216869D03*
X0092579Y0216829D03*
X0092579Y0216809D03*
X0092579Y0216769D03*
X0092579Y0216729D03*
X0092579Y0216709D03*
X0092579Y0216669D03*
X0091099Y0216329D03*
X0091099Y0216309D03*
X0091099Y0216269D03*
X0091099Y0216229D03*
X0091099Y0216209D03*
X0091099Y0216169D03*
X0091079Y0216369D03*
X0091079Y0216409D03*
X0091079Y0216429D03*
X0091059Y0216509D03*
X0091059Y0216529D03*
X0092579Y0214829D03*
X0092579Y0214809D03*
X0092579Y0214769D03*
X0092579Y0214729D03*
X0092579Y0214709D03*
X0092579Y0214669D03*
X0092579Y0214629D03*
X0092579Y0214609D03*
X0092579Y0214569D03*
X0092579Y0214529D03*
X0092579Y0214509D03*
X0092579Y0214469D03*
X0092579Y0214429D03*
X0092579Y0214409D03*
X0092579Y0214369D03*
X0092579Y0214329D03*
X0092579Y0214309D03*
X0092579Y0214269D03*
X0092579Y0214229D03*
X0092579Y0214209D03*
X0092579Y0214169D03*
X0092579Y0214129D03*
X0092579Y0214109D03*
X0092579Y0214069D03*
X0092579Y0214029D03*
X0092579Y0214009D03*
X0092579Y0213969D03*
X0092579Y0213929D03*
X0092579Y0213909D03*
X0092579Y0213869D03*
X0092579Y0213829D03*
X0092579Y0213809D03*
X0092579Y0213769D03*
X0092579Y0213729D03*
X0092579Y0213709D03*
X0092579Y0213669D03*
X0092579Y0213629D03*
X0092579Y0213609D03*
X0092579Y0213569D03*
X0092579Y0213529D03*
X0092579Y0213509D03*
X0092579Y0213469D03*
X0092579Y0213429D03*
X0092579Y0213409D03*
X0092579Y0213369D03*
X0092579Y0213329D03*
X0092579Y0213309D03*
X0092579Y0213269D03*
X0092579Y0213229D03*
X0092579Y0213209D03*
X0092579Y0213169D03*
X0092579Y0213129D03*
X0092579Y0213109D03*
X0092579Y0213069D03*
X0092579Y0213029D03*
X0092579Y0213009D03*
X0092579Y0212969D03*
X0092579Y0212929D03*
X0092579Y0212909D03*
X0092579Y0212869D03*
X0092579Y0212829D03*
X0092579Y0212809D03*
X0092579Y0212769D03*
X0092579Y0212729D03*
X0092579Y0212709D03*
X0092579Y0212669D03*
X0092579Y0212629D03*
X0092579Y0212609D03*
X0092579Y0212569D03*
X0092579Y0212529D03*
X0092579Y0212509D03*
X0092579Y0212469D03*
X0092579Y0212429D03*
X0092579Y0212409D03*
X0092579Y0212369D03*
X0092579Y0212329D03*
X0092579Y0212309D03*
X0092579Y0212269D03*
X0092579Y0212229D03*
X0092579Y0212209D03*
X0092579Y0212169D03*
X0092579Y0212129D03*
X0092579Y0212109D03*
X0092579Y0212069D03*
X0092579Y0212029D03*
X0092579Y0212009D03*
X0092579Y0211969D03*
X0092579Y0211929D03*
X0092579Y0211909D03*
X0092579Y0211869D03*
X0092579Y0211829D03*
X0092579Y0211809D03*
X0092579Y0211769D03*
X0091099Y0213909D03*
X0091099Y0213929D03*
X0091099Y0213969D03*
X0097319Y0213409D03*
X0097319Y0213369D03*
X0097319Y0213329D03*
X0097319Y0213309D03*
X0100999Y0213309D03*
X0100999Y0213329D03*
X0100999Y0213369D03*
X0100999Y0213409D03*
X0100999Y0213429D03*
X0100999Y0213469D03*
X0100999Y0213509D03*
X0100999Y0213529D03*
X0100999Y0213569D03*
X0100999Y0213609D03*
X0100999Y0213629D03*
X0100999Y0213669D03*
X0100999Y0213709D03*
X0100999Y0213729D03*
X0100999Y0213769D03*
X0100999Y0213809D03*
X0100999Y0213829D03*
X0100999Y0213869D03*
X0100999Y0213909D03*
X0100999Y0213929D03*
X0100999Y0213969D03*
X0100999Y0214009D03*
X0100999Y0214029D03*
X0100999Y0214069D03*
X0100999Y0214109D03*
X0100999Y0214129D03*
X0100999Y0214169D03*
X0100999Y0214209D03*
X0100999Y0214229D03*
X0100999Y0214269D03*
X0100999Y0214309D03*
X0100999Y0214329D03*
X0100999Y0214369D03*
X0100999Y0214409D03*
X0100999Y0214429D03*
X0100999Y0214469D03*
X0100999Y0214509D03*
X0100999Y0214529D03*
X0100999Y0214569D03*
X0100999Y0214609D03*
X0100999Y0214629D03*
X0100999Y0214669D03*
X0100999Y0214709D03*
X0100999Y0214729D03*
X0100999Y0214769D03*
X0100999Y0214809D03*
X0100999Y0214829D03*
X0100999Y0214869D03*
X0100999Y0214909D03*
X0100999Y0214929D03*
X0100999Y0214969D03*
X0100999Y0215009D03*
X0100999Y0215029D03*
X0100999Y0215069D03*
X0100999Y0215109D03*
X0100999Y0215129D03*
X0100999Y0215169D03*
X0100999Y0215209D03*
X0100999Y0215229D03*
X0100999Y0215269D03*
X0100999Y0215309D03*
X0100999Y0215329D03*
X0100999Y0215369D03*
X0100999Y0215409D03*
X0100999Y0215429D03*
X0100999Y0215469D03*
X0100999Y0215509D03*
X0100999Y0215529D03*
X0100999Y0215569D03*
X0100999Y0215609D03*
X0100999Y0215629D03*
X0100999Y0215669D03*
X0100999Y0215709D03*
X0100999Y0215729D03*
X0100999Y0215769D03*
X0100999Y0215809D03*
X0100999Y0215829D03*
X0100999Y0215869D03*
X0100999Y0215909D03*
X0100999Y0215929D03*
X0100999Y0215969D03*
X0100999Y0216009D03*
X0100999Y0216029D03*
X0100999Y0216069D03*
X0100999Y0216109D03*
X0100999Y0216129D03*
X0100999Y0216169D03*
X0100999Y0216209D03*
X0100999Y0216229D03*
X0100999Y0216269D03*
X0100999Y0216309D03*
X0100999Y0216329D03*
X0100999Y0216369D03*
X0100999Y0216409D03*
X0100999Y0216429D03*
X0100999Y0216469D03*
X0100999Y0216509D03*
X0100999Y0216529D03*
X0100999Y0216569D03*
X0100999Y0216609D03*
X0100999Y0216629D03*
X0100999Y0216669D03*
X0100999Y0216709D03*
X0100999Y0216729D03*
X0100999Y0216769D03*
X0100999Y0216809D03*
X0100999Y0216829D03*
X0100999Y0216869D03*
X0100999Y0216909D03*
X0100999Y0216929D03*
X0100999Y0216969D03*
X0100999Y0217009D03*
X0100999Y0217029D03*
X0100999Y0217069D03*
X0100999Y0217109D03*
X0100999Y0217129D03*
X0100999Y0217169D03*
X0100999Y0217209D03*
X0100999Y0217229D03*
X0100999Y0217269D03*
X0100999Y0217309D03*
X0100999Y0217329D03*
X0100999Y0217369D03*
X0100999Y0217409D03*
X0100999Y0217429D03*
X0100999Y0217469D03*
X0100999Y0217509D03*
X0100999Y0217529D03*
X0100999Y0217569D03*
X0100999Y0217609D03*
X0100999Y0217629D03*
X0100999Y0217669D03*
X0100999Y0217709D03*
X0100999Y0217729D03*
X0100999Y0217769D03*
X0100999Y0217809D03*
X0100999Y0217829D03*
X0100999Y0217869D03*
X0100999Y0217909D03*
X0100999Y0217929D03*
X0100999Y0217969D03*
X0100999Y0218009D03*
X0100999Y0218029D03*
X0100999Y0218069D03*
X0100999Y0218109D03*
X0100999Y0218129D03*
X0100999Y0218169D03*
X0100999Y0218209D03*
X0100999Y0218229D03*
X0100999Y0218269D03*
X0100999Y0218309D03*
X0100999Y0218329D03*
X0100999Y0218369D03*
X0100999Y0218409D03*
X0100999Y0218429D03*
X0100999Y0219529D03*
X0100999Y0219569D03*
X0100999Y0219609D03*
X0100999Y0219629D03*
X0100999Y0219669D03*
X0100999Y0219709D03*
X0100999Y0219729D03*
X0100999Y0219769D03*
X0100999Y0219809D03*
X0100999Y0219829D03*
X0100999Y0219869D03*
X0100999Y0219909D03*
X0100999Y0219929D03*
X0100999Y0219969D03*
X0100999Y0220009D03*
X0100999Y0220029D03*
X0100999Y0220069D03*
X0100999Y0220109D03*
X0100999Y0220129D03*
X0100999Y0220169D03*
X0100999Y0220209D03*
X0100999Y0220229D03*
X0100999Y0220269D03*
X0100999Y0220309D03*
X0100999Y0220329D03*
X0100999Y0220369D03*
X0100999Y0220409D03*
X0100999Y0220429D03*
X0100999Y0220469D03*
X0100999Y0220509D03*
X0100999Y0220529D03*
X0100999Y0220569D03*
X0108959Y0220569D03*
X0108959Y0220609D03*
X0108959Y0220629D03*
X0108959Y0220669D03*
X0108959Y0220709D03*
X0108959Y0220729D03*
X0108959Y0220769D03*
X0108959Y0220809D03*
X0108959Y0220829D03*
X0108959Y0220869D03*
X0108959Y0220909D03*
X0108959Y0220929D03*
X0108959Y0220969D03*
X0108959Y0221009D03*
X0108959Y0221029D03*
X0108959Y0221069D03*
X0108959Y0221109D03*
X0108959Y0221129D03*
X0108959Y0221169D03*
X0108959Y0221209D03*
X0108959Y0221229D03*
X0108959Y0221269D03*
X0108959Y0221309D03*
X0108959Y0221329D03*
X0108959Y0220529D03*
X0108959Y0220509D03*
X0108959Y0220469D03*
X0108959Y0220429D03*
X0108959Y0220409D03*
X0108959Y0220369D03*
X0108959Y0220329D03*
X0108959Y0220309D03*
X0108959Y0220269D03*
X0108959Y0220229D03*
X0108959Y0220209D03*
X0108959Y0220169D03*
X0108959Y0220129D03*
X0108959Y0220109D03*
X0108959Y0220069D03*
X0108959Y0220029D03*
X0108959Y0220009D03*
X0108959Y0219969D03*
X0108959Y0219929D03*
X0108959Y0219909D03*
X0108959Y0219869D03*
X0108959Y0219829D03*
X0108959Y0219809D03*
X0108959Y0219769D03*
X0108959Y0219729D03*
X0108959Y0219709D03*
X0108959Y0219669D03*
X0108959Y0219629D03*
X0108959Y0219609D03*
X0108959Y0219569D03*
X0108959Y0219529D03*
X0108959Y0219509D03*
X0108959Y0219469D03*
X0108959Y0219429D03*
X0108959Y0219409D03*
X0108959Y0219369D03*
X0108959Y0219329D03*
X0108959Y0219309D03*
X0108959Y0219269D03*
X0108959Y0219229D03*
X0108959Y0219209D03*
X0108959Y0219169D03*
X0108959Y0219129D03*
X0108959Y0219109D03*
X0108959Y0219069D03*
X0108959Y0219029D03*
X0108959Y0219009D03*
X0108959Y0218969D03*
X0108959Y0218929D03*
X0108959Y0218909D03*
X0108959Y0218869D03*
X0108959Y0218829D03*
X0108959Y0218809D03*
X0108959Y0218769D03*
X0108959Y0218729D03*
X0108959Y0218709D03*
X0108959Y0218669D03*
X0108959Y0218629D03*
X0108959Y0218609D03*
X0108959Y0218569D03*
X0108959Y0218529D03*
X0108959Y0218509D03*
X0108959Y0218469D03*
X0108959Y0218429D03*
X0108959Y0218409D03*
X0108959Y0218369D03*
X0108959Y0218329D03*
X0108959Y0218309D03*
X0108959Y0218269D03*
X0108959Y0218229D03*
X0108959Y0218209D03*
X0108959Y0218169D03*
X0108959Y0218129D03*
X0108959Y0218109D03*
X0108959Y0218069D03*
X0108959Y0218029D03*
X0108959Y0218009D03*
X0108959Y0217969D03*
X0108959Y0217929D03*
X0108959Y0217909D03*
X0108959Y0217869D03*
X0108959Y0217829D03*
X0108959Y0217809D03*
X0108959Y0217769D03*
X0108959Y0217729D03*
X0108959Y0217709D03*
X0108959Y0217669D03*
X0108959Y0217629D03*
X0108959Y0217609D03*
X0108959Y0217569D03*
X0108959Y0217529D03*
X0108959Y0217509D03*
X0108959Y0217469D03*
X0108959Y0217429D03*
X0108959Y0217409D03*
X0108959Y0217369D03*
X0108959Y0217329D03*
X0108959Y0217309D03*
X0108959Y0217269D03*
X0108959Y0217229D03*
X0108959Y0217209D03*
X0108959Y0217169D03*
X0108959Y0217129D03*
X0108959Y0217109D03*
X0108959Y0217069D03*
X0108959Y0217029D03*
X0108959Y0217009D03*
X0108959Y0216969D03*
X0108959Y0216929D03*
X0108959Y0216909D03*
X0108959Y0216869D03*
X0108959Y0216829D03*
X0108959Y0216809D03*
X0108959Y0216769D03*
X0108959Y0216729D03*
X0108959Y0216709D03*
X0108959Y0216669D03*
X0108959Y0216629D03*
X0108959Y0216609D03*
X0108959Y0216569D03*
X0108959Y0216529D03*
X0108959Y0216509D03*
X0108959Y0216469D03*
X0108959Y0216429D03*
X0108959Y0216409D03*
X0108959Y0216369D03*
X0108959Y0216329D03*
X0108959Y0216309D03*
X0108959Y0216269D03*
X0108959Y0216229D03*
X0108959Y0216209D03*
X0108959Y0216169D03*
X0108959Y0216129D03*
X0108959Y0216109D03*
X0108959Y0216069D03*
X0108959Y0216029D03*
X0108959Y0216009D03*
X0108959Y0215969D03*
X0108959Y0215929D03*
X0108959Y0215909D03*
X0108959Y0215869D03*
X0108959Y0215829D03*
X0108959Y0215809D03*
X0108959Y0215769D03*
X0108959Y0215729D03*
X0108959Y0215709D03*
X0108959Y0215669D03*
X0108959Y0215629D03*
X0108959Y0215609D03*
X0108959Y0215569D03*
X0108959Y0215529D03*
X0108959Y0215509D03*
X0108959Y0215469D03*
X0108959Y0215429D03*
X0108959Y0215409D03*
X0108959Y0215369D03*
X0108959Y0215329D03*
X0108959Y0215309D03*
X0108959Y0215269D03*
X0108959Y0215229D03*
X0108959Y0215209D03*
X0108959Y0215169D03*
X0108959Y0215129D03*
X0108959Y0215109D03*
X0108959Y0215069D03*
X0108959Y0215029D03*
X0108959Y0215009D03*
X0108959Y0214969D03*
X0108959Y0214929D03*
X0108959Y0214909D03*
X0108959Y0214869D03*
X0108959Y0214829D03*
X0108959Y0214809D03*
X0108959Y0214769D03*
X0108959Y0214729D03*
X0108959Y0214709D03*
X0108959Y0214669D03*
X0108959Y0214629D03*
X0108959Y0214609D03*
X0108959Y0214569D03*
X0108959Y0214529D03*
X0108959Y0214509D03*
X0108959Y0214469D03*
X0108959Y0214429D03*
X0108959Y0214409D03*
X0108959Y0214369D03*
X0108959Y0214329D03*
X0108959Y0214309D03*
X0108959Y0214269D03*
X0108959Y0214229D03*
X0108959Y0214209D03*
X0108959Y0214169D03*
X0108959Y0214129D03*
X0108959Y0214109D03*
X0108959Y0214069D03*
X0108959Y0214029D03*
X0108959Y0214009D03*
X0108959Y0213969D03*
X0108959Y0213929D03*
X0108959Y0213909D03*
X0108959Y0213869D03*
X0108959Y0213829D03*
X0108959Y0213809D03*
X0108959Y0213769D03*
X0108959Y0213729D03*
X0108959Y0213709D03*
X0108959Y0213669D03*
X0108959Y0213629D03*
X0108959Y0213609D03*
X0108959Y0213569D03*
X0108959Y0213529D03*
X0108959Y0213509D03*
X0108959Y0213469D03*
X0108959Y0213429D03*
X0108959Y0213409D03*
X0108959Y0213369D03*
X0108959Y0213329D03*
X0108959Y0213309D03*
X0108959Y0213269D03*
X0108959Y0213229D03*
X0108959Y0213209D03*
X0108959Y0213169D03*
X0108959Y0213129D03*
X0108959Y0213109D03*
X0108959Y0213069D03*
X0108959Y0213029D03*
X0108959Y0213009D03*
X0108959Y0212969D03*
X0108959Y0212929D03*
X0108959Y0212909D03*
X0108959Y0212869D03*
X0108959Y0212829D03*
X0108959Y0212809D03*
X0108959Y0212769D03*
X0108959Y0212729D03*
X0108959Y0212709D03*
X0108959Y0212669D03*
X0108959Y0212629D03*
X0108959Y0212609D03*
X0108959Y0212569D03*
X0108959Y0212529D03*
X0108959Y0212509D03*
X0108959Y0212469D03*
X0108959Y0212429D03*
X0108959Y0212409D03*
X0108959Y0212369D03*
X0108959Y0212329D03*
X0108959Y0212309D03*
X0108959Y0212269D03*
X0108959Y0212229D03*
X0108959Y0212209D03*
X0108959Y0212169D03*
X0108959Y0212129D03*
X0108959Y0212109D03*
X0108959Y0212069D03*
X0108959Y0212029D03*
X0108959Y0212009D03*
X0108959Y0211969D03*
X0108959Y0211929D03*
X0108959Y0211909D03*
X0108959Y0211869D03*
X0108959Y0211829D03*
X0108959Y0211809D03*
X0108959Y0211769D03*
X0107539Y0213009D03*
X0110299Y0215509D03*
X0100999Y0213269D03*
X0100999Y0213229D03*
X0100999Y0213209D03*
X0100999Y0213169D03*
X0100999Y0213129D03*
X0100999Y0213109D03*
X0100999Y0213069D03*
X0100999Y0213029D03*
X0100999Y0213009D03*
X0100999Y0212969D03*
X0100999Y0212929D03*
X0100999Y0212909D03*
X0100999Y0212869D03*
X0100999Y0212829D03*
X0100999Y0212809D03*
X0100999Y0212769D03*
X0100999Y0212729D03*
X0100999Y0212709D03*
X0100999Y0212669D03*
X0100999Y0212629D03*
X0100999Y0212609D03*
X0100999Y0212569D03*
X0100999Y0212529D03*
X0100999Y0212509D03*
X0100999Y0212469D03*
X0100999Y0212429D03*
X0100999Y0212409D03*
X0100999Y0212369D03*
X0100999Y0212329D03*
X0100999Y0212309D03*
X0100999Y0212269D03*
X0100999Y0212229D03*
X0100999Y0212209D03*
X0100999Y0212169D03*
X0100999Y0212129D03*
X0100999Y0212109D03*
X0100999Y0212069D03*
X0100999Y0212029D03*
X0100999Y0212009D03*
X0100999Y0211969D03*
X0100999Y0211929D03*
X0100999Y0211909D03*
X0100999Y0211869D03*
X0100999Y0211829D03*
X0100999Y0211809D03*
X0100999Y0211769D03*
X0074319Y0212809D03*
X0070839Y0211869D03*
X0070839Y0211829D03*
X0070839Y0211809D03*
X0070839Y0213809D03*
X0067359Y0212809D03*
X0070839Y0218929D03*
X0070839Y0220869D03*
X0070839Y0220909D03*
X0074339Y0219929D03*
D76*
X0088619Y0218509D03*
X0098879Y0211769D03*
X0104099Y0212269D03*
X0106519Y0217809D03*
D77*
X0105319Y0211769D03*
X0072659Y0214329D03*
X0069019Y0214329D03*
X0069019Y0218409D03*
X0072659Y0218409D03*
D78*
X0113189Y0211769D03*
D79*
X0110459Y0213888D03*
X0110439Y0213948D03*
X0110419Y0213988D03*
X0110399Y0214048D03*
X0110399Y0214088D03*
X0110379Y0214148D03*
X0110359Y0214248D03*
X0110339Y0214348D03*
X0110319Y0214448D03*
X0110359Y0215848D03*
X0110379Y0215948D03*
X0110419Y0216088D03*
X0110439Y0216148D03*
X0110459Y0216188D03*
X0110479Y0216248D03*
X0107539Y0212988D03*
X0115659Y0215448D03*
X0115659Y0215488D03*
X0115639Y0215648D03*
X0115619Y0215748D03*
X0115619Y0215788D03*
X0115599Y0215848D03*
X0115599Y0215888D03*
X0115579Y0215948D03*
X0115579Y0215988D03*
X0115559Y0216048D03*
X0115539Y0216088D03*
X0115519Y0216188D03*
X0115499Y0216248D03*
X0102519Y0216148D03*
X0102499Y0216088D03*
X0102439Y0215888D03*
X0102419Y0215848D03*
X0102419Y0215788D03*
X0102399Y0215748D03*
X0102399Y0215688D03*
X0102379Y0215648D03*
X0102379Y0215588D03*
X0102359Y0215548D03*
X0102359Y0215488D03*
X0102339Y0215388D03*
X0102339Y0215348D03*
X0102339Y0215288D03*
X0102339Y0215248D03*
X0102319Y0215048D03*
X0102319Y0214988D03*
X0102339Y0214848D03*
X0102339Y0214788D03*
X0102339Y0214748D03*
X0102339Y0214688D03*
X0102359Y0214588D03*
X0102359Y0214548D03*
X0102379Y0214448D03*
X0102399Y0214348D03*
X0097359Y0213088D03*
X0097359Y0213048D03*
X0097379Y0212988D03*
X0092599Y0215048D03*
X0092599Y0215088D03*
X0092599Y0215148D03*
X0091079Y0215048D03*
X0091079Y0213788D03*
X0091079Y0213748D03*
X0090379Y0212788D03*
X0091019Y0216688D03*
X0090999Y0216748D03*
X0090999Y0216788D03*
X0090959Y0216888D03*
X0093279Y0216648D03*
X0093299Y0216688D03*
X0086059Y0214188D03*
X0086039Y0214088D03*
X0086019Y0213988D03*
X0086019Y0213948D03*
X0086019Y0213888D03*
X0086019Y0213848D03*
X0086019Y0213788D03*
X0086019Y0213748D03*
X0086019Y0213688D03*
X0086019Y0213648D03*
X0086019Y0213588D03*
X0086019Y0213548D03*
X0079599Y0213548D03*
X0079599Y0213588D03*
X0079599Y0213648D03*
X0079599Y0213688D03*
X0079599Y0213748D03*
X0079599Y0213788D03*
X0079599Y0213848D03*
X0079599Y0213888D03*
X0079599Y0213948D03*
X0079599Y0213988D03*
X0079599Y0214048D03*
X0079599Y0214088D03*
X0079599Y0214148D03*
X0079599Y0214188D03*
X0079599Y0214248D03*
X0079599Y0214288D03*
X0079599Y0214348D03*
X0079599Y0214388D03*
X0079599Y0214448D03*
X0079599Y0214488D03*
X0079599Y0214548D03*
X0079599Y0214588D03*
X0079599Y0214648D03*
X0079599Y0214688D03*
X0079599Y0214748D03*
X0079599Y0214788D03*
X0079599Y0214848D03*
X0079599Y0214888D03*
X0079599Y0214948D03*
X0079599Y0214988D03*
X0079599Y0215048D03*
X0079599Y0215088D03*
X0079599Y0215148D03*
X0079599Y0215848D03*
X0079599Y0215888D03*
X0079599Y0215948D03*
X0079599Y0215988D03*
X0079599Y0216048D03*
X0079599Y0216088D03*
X0079599Y0216148D03*
X0079599Y0216188D03*
X0079599Y0216248D03*
X0079599Y0216288D03*
X0079599Y0216348D03*
X0079599Y0216388D03*
X0079599Y0216448D03*
X0079599Y0216488D03*
X0079599Y0216548D03*
X0079599Y0216588D03*
X0079599Y0216648D03*
X0079599Y0216688D03*
X0079599Y0216748D03*
X0079599Y0216788D03*
X0079599Y0216848D03*
X0079599Y0216888D03*
X0079599Y0216948D03*
X0079599Y0216988D03*
X0079599Y0217048D03*
X0079599Y0217088D03*
X0079599Y0217148D03*
X0079599Y0217188D03*
X0079599Y0217248D03*
X0079599Y0217288D03*
X0079599Y0217348D03*
X0079599Y0217388D03*
X0079599Y0217448D03*
X0079599Y0217488D03*
X0079599Y0217548D03*
X0079599Y0217588D03*
X0079599Y0217648D03*
X0079599Y0217688D03*
X0079599Y0217748D03*
X0079599Y0217788D03*
X0079599Y0217848D03*
X0079599Y0217888D03*
X0079599Y0217948D03*
X0079599Y0217988D03*
X0079599Y0218048D03*
X0079599Y0218088D03*
X0079599Y0218148D03*
X0079599Y0218188D03*
X0079599Y0218248D03*
X0079599Y0218288D03*
X0079599Y0218348D03*
X0079599Y0218388D03*
X0079599Y0218448D03*
X0079599Y0218488D03*
X0079599Y0218548D03*
X0079599Y0218588D03*
X0079599Y0218648D03*
X0079599Y0218688D03*
X0079599Y0218748D03*
X0079599Y0218788D03*
X0079599Y0218848D03*
X0079599Y0218888D03*
X0079599Y0218948D03*
X0079599Y0218988D03*
X0079599Y0219048D03*
X0079599Y0219088D03*
X0079599Y0219148D03*
X0079599Y0219188D03*
X0079599Y0219248D03*
X0079599Y0219288D03*
X0079599Y0219348D03*
X0079599Y0219388D03*
X0079599Y0219448D03*
X0079599Y0219488D03*
X0079599Y0219548D03*
X0079599Y0219588D03*
X0079599Y0219648D03*
X0079599Y0219688D03*
X0079599Y0219748D03*
X0079599Y0219788D03*
X0079599Y0219848D03*
X0079599Y0219888D03*
X0079599Y0219948D03*
X0079599Y0219988D03*
X0079599Y0220048D03*
X0079599Y0220088D03*
X0079599Y0220148D03*
X0079599Y0220188D03*
X0079599Y0220248D03*
X0079599Y0220288D03*
X0085079Y0218588D03*
X0085099Y0218448D03*
X0085099Y0218388D03*
X0085119Y0218288D03*
X0085119Y0218248D03*
X0085119Y0218188D03*
X0085119Y0218148D03*
X0085119Y0218088D03*
X0085119Y0218048D03*
X0085119Y0217988D03*
X0085119Y0217948D03*
X0085119Y0217888D03*
X0085099Y0217848D03*
X0085099Y0217788D03*
X0085099Y0217748D03*
X0085079Y0217648D03*
X0085059Y0217548D03*
X0079599Y0213488D03*
X0079599Y0213448D03*
X0079599Y0213388D03*
X0079599Y0213348D03*
X0079599Y0213288D03*
X0079599Y0213248D03*
X0079599Y0213188D03*
X0079599Y0213148D03*
X0079599Y0213088D03*
X0079599Y0213048D03*
X0079599Y0212988D03*
X0079599Y0212948D03*
X0079599Y0212888D03*
X0079599Y0212848D03*
X0079599Y0212788D03*
X0079599Y0212748D03*
X0079599Y0212688D03*
X0079599Y0212648D03*
X0079599Y0212588D03*
X0079599Y0212548D03*
X0079599Y0212488D03*
X0079599Y0212448D03*
X0079599Y0212388D03*
X0079599Y0212348D03*
X0079599Y0212288D03*
X0079599Y0212248D03*
X0079599Y0212188D03*
X0079599Y0212148D03*
X0079599Y0212088D03*
X0079599Y0212048D03*
X0079599Y0211988D03*
X0079599Y0211948D03*
X0079599Y0211888D03*
X0079599Y0211848D03*
X0079599Y0211788D03*
X0074279Y0212848D03*
X0070839Y0211948D03*
X0070839Y0213788D03*
X0067399Y0212848D03*
X0070839Y0220788D03*
D80*
X0072489Y0218248D03*
X0069189Y0218248D03*
X0072489Y0214488D03*
X0088269Y0211788D03*
X0105309Y0211788D03*
D81*
X0091109Y0211788D03*
X0091109Y0211848D03*
X0091109Y0211888D03*
X0091109Y0211948D03*
X0091109Y0211988D03*
X0091109Y0212048D03*
X0091109Y0212088D03*
X0091109Y0212148D03*
X0091109Y0212188D03*
X0091109Y0212248D03*
X0091109Y0212288D03*
X0091109Y0212348D03*
X0091109Y0212388D03*
X0091109Y0212448D03*
X0091109Y0212488D03*
X0091109Y0212548D03*
X0091109Y0212588D03*
X0091109Y0212648D03*
X0091109Y0212688D03*
X0091109Y0212748D03*
X0091109Y0212788D03*
X0091109Y0214048D03*
X0091109Y0214088D03*
X0091109Y0214148D03*
X0091109Y0215648D03*
X0091109Y0215688D03*
X0091109Y0215748D03*
X0091109Y0215788D03*
X0091109Y0215848D03*
X0091109Y0215888D03*
X0091109Y0215948D03*
X0091109Y0215988D03*
X0091109Y0216048D03*
X0091109Y0216088D03*
X0091109Y0216148D03*
X0074349Y0212788D03*
X0067329Y0212788D03*
X0067329Y0219948D03*
X0074349Y0219948D03*
D82*
X0070839Y0220848D03*
X0070839Y0220888D03*
X0067799Y0215788D03*
X0070839Y0211848D03*
X0086719Y0217648D03*
X0091079Y0216388D03*
X0091079Y0216348D03*
X0091099Y0216288D03*
X0091099Y0216248D03*
X0091099Y0216188D03*
X0092579Y0216648D03*
X0092579Y0216688D03*
X0092579Y0216748D03*
X0092579Y0216788D03*
X0092579Y0216848D03*
X0092579Y0216888D03*
X0092579Y0216948D03*
X0092579Y0216988D03*
X0092579Y0217048D03*
X0092579Y0217088D03*
X0092579Y0217148D03*
X0092579Y0217188D03*
X0092579Y0217248D03*
X0092579Y0217288D03*
X0092579Y0217348D03*
X0092579Y0217388D03*
X0092579Y0217448D03*
X0092579Y0217488D03*
X0092579Y0217548D03*
X0092579Y0217588D03*
X0092579Y0217648D03*
X0092579Y0217688D03*
X0092579Y0217748D03*
X0092579Y0217788D03*
X0092579Y0217848D03*
X0092579Y0217888D03*
X0092579Y0217948D03*
X0092579Y0217988D03*
X0092579Y0218048D03*
X0092579Y0218088D03*
X0092579Y0218148D03*
X0092579Y0218188D03*
X0092579Y0218248D03*
X0092579Y0218288D03*
X0092579Y0218348D03*
X0092579Y0218388D03*
X0092579Y0218448D03*
X0092579Y0214788D03*
X0092579Y0214748D03*
X0092579Y0214688D03*
X0092579Y0214648D03*
X0092579Y0214588D03*
X0092579Y0214548D03*
X0092579Y0214488D03*
X0092579Y0214448D03*
X0092579Y0214388D03*
X0092579Y0214348D03*
X0092579Y0214288D03*
X0092579Y0214248D03*
X0092579Y0214188D03*
X0092579Y0214148D03*
X0092579Y0214088D03*
X0092579Y0214048D03*
X0092579Y0213988D03*
X0092579Y0213948D03*
X0092579Y0213888D03*
X0092579Y0213848D03*
X0092579Y0213788D03*
X0092579Y0213748D03*
X0092579Y0213688D03*
X0092579Y0213648D03*
X0092579Y0213588D03*
X0092579Y0213548D03*
X0092579Y0213488D03*
X0092579Y0213448D03*
X0092579Y0213388D03*
X0092579Y0213348D03*
X0092579Y0213288D03*
X0092579Y0213248D03*
X0092579Y0213188D03*
X0092579Y0213148D03*
X0092579Y0213088D03*
X0092579Y0213048D03*
X0092579Y0212988D03*
X0092579Y0212948D03*
X0092579Y0212888D03*
X0092579Y0212848D03*
X0092579Y0212788D03*
X0092579Y0212748D03*
X0092579Y0212688D03*
X0092579Y0212648D03*
X0092579Y0212588D03*
X0092579Y0212548D03*
X0092579Y0212488D03*
X0092579Y0212448D03*
X0092579Y0212388D03*
X0092579Y0212348D03*
X0092579Y0212288D03*
X0092579Y0212248D03*
X0092579Y0212188D03*
X0092579Y0212148D03*
X0092579Y0212088D03*
X0092579Y0212048D03*
X0092579Y0211988D03*
X0092579Y0211948D03*
X0092579Y0211888D03*
X0092579Y0211848D03*
X0092579Y0211788D03*
X0091099Y0213948D03*
X0091099Y0213988D03*
X0097319Y0213388D03*
X0097319Y0213348D03*
X0097319Y0213288D03*
X0100999Y0213288D03*
X0100999Y0213248D03*
X0100999Y0213188D03*
X0100999Y0213148D03*
X0100999Y0213088D03*
X0100999Y0213048D03*
X0100999Y0212988D03*
X0100999Y0212948D03*
X0100999Y0212888D03*
X0100999Y0212848D03*
X0100999Y0212788D03*
X0100999Y0212748D03*
X0100999Y0212688D03*
X0100999Y0212648D03*
X0100999Y0212588D03*
X0100999Y0212548D03*
X0100999Y0212488D03*
X0100999Y0212448D03*
X0100999Y0212388D03*
X0100999Y0212348D03*
X0100999Y0212288D03*
X0100999Y0212248D03*
X0100999Y0212188D03*
X0100999Y0212148D03*
X0100999Y0212088D03*
X0100999Y0212048D03*
X0100999Y0211988D03*
X0100999Y0211948D03*
X0100999Y0211888D03*
X0100999Y0211848D03*
X0100999Y0211788D03*
X0100999Y0213348D03*
X0100999Y0213388D03*
X0100999Y0213448D03*
X0100999Y0213488D03*
X0100999Y0213548D03*
X0100999Y0213588D03*
X0100999Y0213648D03*
X0100999Y0213688D03*
X0100999Y0213748D03*
X0100999Y0213788D03*
X0100999Y0213848D03*
X0100999Y0213888D03*
X0100999Y0213948D03*
X0100999Y0213988D03*
X0100999Y0214048D03*
X0100999Y0214088D03*
X0100999Y0214148D03*
X0100999Y0214188D03*
X0100999Y0214248D03*
X0100999Y0214288D03*
X0100999Y0214348D03*
X0100999Y0214388D03*
X0100999Y0214448D03*
X0100999Y0214488D03*
X0100999Y0214548D03*
X0100999Y0214588D03*
X0100999Y0214648D03*
X0100999Y0214688D03*
X0100999Y0214748D03*
X0100999Y0214788D03*
X0100999Y0214848D03*
X0100999Y0214888D03*
X0100999Y0214948D03*
X0100999Y0214988D03*
X0100999Y0215048D03*
X0100999Y0215088D03*
X0100999Y0215148D03*
X0100999Y0215188D03*
X0100999Y0215248D03*
X0100999Y0215288D03*
X0100999Y0215348D03*
X0100999Y0215388D03*
X0100999Y0215448D03*
X0100999Y0215488D03*
X0100999Y0215548D03*
X0100999Y0215588D03*
X0100999Y0215648D03*
X0100999Y0215688D03*
X0100999Y0215748D03*
X0100999Y0215788D03*
X0100999Y0215848D03*
X0100999Y0215888D03*
X0100999Y0215948D03*
X0100999Y0215988D03*
X0100999Y0216048D03*
X0100999Y0216088D03*
X0100999Y0216148D03*
X0100999Y0216188D03*
X0100999Y0216248D03*
X0100999Y0216288D03*
X0100999Y0216348D03*
X0100999Y0216388D03*
X0100999Y0216448D03*
X0100999Y0216488D03*
X0100999Y0216548D03*
X0100999Y0216588D03*
X0100999Y0216648D03*
X0100999Y0216688D03*
X0100999Y0216748D03*
X0100999Y0216788D03*
X0100999Y0216848D03*
X0100999Y0216888D03*
X0100999Y0216948D03*
X0100999Y0216988D03*
X0100999Y0217048D03*
X0100999Y0217088D03*
X0100999Y0217148D03*
X0100999Y0217188D03*
X0100999Y0217248D03*
X0100999Y0217288D03*
X0100999Y0217348D03*
X0100999Y0217388D03*
X0100999Y0217448D03*
X0100999Y0217488D03*
X0100999Y0217548D03*
X0100999Y0217588D03*
X0100999Y0217648D03*
X0100999Y0217688D03*
X0100999Y0217748D03*
X0100999Y0217788D03*
X0100999Y0217848D03*
X0100999Y0217888D03*
X0100999Y0217948D03*
X0100999Y0217988D03*
X0100999Y0218048D03*
X0100999Y0218088D03*
X0100999Y0218148D03*
X0100999Y0218188D03*
X0100999Y0218248D03*
X0100999Y0218288D03*
X0100999Y0218348D03*
X0100999Y0218388D03*
X0100999Y0218448D03*
X0100999Y0219548D03*
X0100999Y0219588D03*
X0100999Y0219648D03*
X0100999Y0219688D03*
X0100999Y0219748D03*
X0100999Y0219788D03*
X0100999Y0219848D03*
X0100999Y0219888D03*
X0100999Y0219948D03*
X0100999Y0219988D03*
X0100999Y0220048D03*
X0100999Y0220088D03*
X0100999Y0220148D03*
X0100999Y0220188D03*
X0100999Y0220248D03*
X0100999Y0220288D03*
X0100999Y0220348D03*
X0100999Y0220388D03*
X0100999Y0220448D03*
X0100999Y0220488D03*
X0100999Y0220548D03*
X0100999Y0220588D03*
X0107439Y0217088D03*
X0108959Y0217088D03*
X0108959Y0217048D03*
X0108959Y0216988D03*
X0108959Y0216948D03*
X0108959Y0216888D03*
X0108959Y0216848D03*
X0108959Y0216788D03*
X0108959Y0216748D03*
X0108959Y0216688D03*
X0108959Y0216648D03*
X0108959Y0216588D03*
X0108959Y0216548D03*
X0108959Y0216488D03*
X0108959Y0216448D03*
X0108959Y0216388D03*
X0108959Y0216348D03*
X0108959Y0216288D03*
X0108959Y0216248D03*
X0108959Y0216188D03*
X0108959Y0216148D03*
X0108959Y0216088D03*
X0108959Y0216048D03*
X0108959Y0215988D03*
X0108959Y0215948D03*
X0108959Y0215888D03*
X0108959Y0215848D03*
X0108959Y0215788D03*
X0108959Y0215748D03*
X0108959Y0215688D03*
X0108959Y0215648D03*
X0108959Y0215588D03*
X0108959Y0215548D03*
X0108959Y0215488D03*
X0108959Y0215448D03*
X0108959Y0215388D03*
X0108959Y0215348D03*
X0108959Y0215288D03*
X0108959Y0215248D03*
X0108959Y0215188D03*
X0108959Y0215148D03*
X0108959Y0215088D03*
X0108959Y0215048D03*
X0108959Y0214988D03*
X0108959Y0214948D03*
X0108959Y0214888D03*
X0108959Y0214848D03*
X0108959Y0214788D03*
X0108959Y0214748D03*
X0108959Y0214688D03*
X0108959Y0214648D03*
X0108959Y0214588D03*
X0108959Y0214548D03*
X0108959Y0214488D03*
X0108959Y0214448D03*
X0108959Y0214388D03*
X0108959Y0214348D03*
X0108959Y0214288D03*
X0108959Y0214248D03*
X0108959Y0214188D03*
X0108959Y0214148D03*
X0108959Y0214088D03*
X0108959Y0214048D03*
X0108959Y0213988D03*
X0108959Y0213948D03*
X0108959Y0213888D03*
X0108959Y0213848D03*
X0108959Y0213788D03*
X0108959Y0213748D03*
X0108959Y0213688D03*
X0108959Y0213648D03*
X0108959Y0213588D03*
X0108959Y0213548D03*
X0108959Y0213488D03*
X0108959Y0213448D03*
X0108959Y0213388D03*
X0108959Y0213348D03*
X0108959Y0213288D03*
X0108959Y0213248D03*
X0108959Y0213188D03*
X0108959Y0213148D03*
X0108959Y0213088D03*
X0108959Y0213048D03*
X0108959Y0212988D03*
X0108959Y0212948D03*
X0108959Y0212888D03*
X0108959Y0212848D03*
X0108959Y0212788D03*
X0108959Y0212748D03*
X0108959Y0212688D03*
X0108959Y0212648D03*
X0108959Y0212588D03*
X0108959Y0212548D03*
X0108959Y0212488D03*
X0108959Y0212448D03*
X0108959Y0212388D03*
X0108959Y0212348D03*
X0108959Y0212288D03*
X0108959Y0212248D03*
X0108959Y0212188D03*
X0108959Y0212148D03*
X0108959Y0212088D03*
X0108959Y0212048D03*
X0108959Y0211988D03*
X0108959Y0211948D03*
X0108959Y0211888D03*
X0108959Y0211848D03*
X0108959Y0211788D03*
X0110299Y0215488D03*
X0108959Y0217148D03*
X0108959Y0217188D03*
X0108959Y0217248D03*
X0108959Y0217288D03*
X0108959Y0217348D03*
X0108959Y0217388D03*
X0108959Y0217448D03*
X0108959Y0217488D03*
X0108959Y0217548D03*
X0108959Y0217588D03*
X0108959Y0217648D03*
X0108959Y0217688D03*
X0108959Y0217748D03*
X0108959Y0217788D03*
X0108959Y0217848D03*
X0108959Y0217888D03*
X0108959Y0217948D03*
X0108959Y0217988D03*
X0108959Y0218048D03*
X0108959Y0218088D03*
X0108959Y0218148D03*
X0108959Y0218188D03*
X0108959Y0218248D03*
X0108959Y0218288D03*
X0108959Y0218348D03*
X0108959Y0218388D03*
X0108959Y0218448D03*
X0108959Y0218488D03*
X0108959Y0218548D03*
X0108959Y0218588D03*
X0108959Y0218648D03*
X0108959Y0218688D03*
X0108959Y0218748D03*
X0108959Y0218788D03*
X0108959Y0218848D03*
X0108959Y0218888D03*
X0108959Y0218948D03*
X0108959Y0218988D03*
X0108959Y0219048D03*
X0108959Y0219088D03*
X0108959Y0219148D03*
X0108959Y0219188D03*
X0108959Y0219248D03*
X0108959Y0219288D03*
X0108959Y0219348D03*
X0108959Y0219388D03*
X0108959Y0219448D03*
X0108959Y0219488D03*
X0108959Y0219548D03*
X0108959Y0219588D03*
X0108959Y0219648D03*
X0108959Y0219688D03*
X0108959Y0219748D03*
X0108959Y0219788D03*
X0108959Y0219848D03*
X0108959Y0219888D03*
X0108959Y0219948D03*
X0108959Y0219988D03*
X0108959Y0220048D03*
X0108959Y0220088D03*
X0108959Y0220148D03*
X0108959Y0220188D03*
X0108959Y0220248D03*
X0108959Y0220288D03*
X0108959Y0220348D03*
X0108959Y0220388D03*
X0108959Y0220448D03*
X0108959Y0220488D03*
X0108959Y0220548D03*
X0108959Y0220588D03*
X0108959Y0220648D03*
X0108959Y0220688D03*
X0108959Y0220748D03*
X0108959Y0220788D03*
X0108959Y0220848D03*
X0108959Y0220888D03*
X0108959Y0220948D03*
X0108959Y0220988D03*
X0108959Y0221048D03*
X0108959Y0221088D03*
X0108959Y0221148D03*
X0108959Y0221188D03*
X0108959Y0221248D03*
X0108959Y0221288D03*
X0115399Y0212948D03*
D83*
X0113039Y0218348D03*
X0098879Y0211788D03*
D84*
X0113189Y0211788D03*
X0067209Y0216648D03*
D85*
X0072359Y0218129D03*
X0072399Y0214569D03*
X0088259Y0211809D03*
X0090299Y0215309D03*
X0098819Y0211969D03*
X0105319Y0211809D03*
D86*
X0099629Y0212309D03*
X0091109Y0212309D03*
X0091109Y0212329D03*
X0091109Y0212369D03*
X0091109Y0212409D03*
X0091109Y0212429D03*
X0091109Y0212469D03*
X0091109Y0212509D03*
X0091109Y0212529D03*
X0091109Y0212569D03*
X0091109Y0212609D03*
X0091109Y0212629D03*
X0091109Y0212669D03*
X0091109Y0212709D03*
X0091109Y0212729D03*
X0091109Y0212769D03*
X0091109Y0212809D03*
X0091109Y0212829D03*
X0091109Y0212269D03*
X0091109Y0212229D03*
X0091109Y0212209D03*
X0091109Y0212169D03*
X0091109Y0212129D03*
X0091109Y0212109D03*
X0091109Y0212069D03*
X0091109Y0212029D03*
X0091109Y0212009D03*
X0091109Y0211969D03*
X0091109Y0211929D03*
X0091109Y0211909D03*
X0091109Y0211869D03*
X0091109Y0211829D03*
X0091109Y0211809D03*
X0091109Y0214009D03*
X0091109Y0214029D03*
X0091109Y0214069D03*
X0091109Y0214109D03*
X0091109Y0214129D03*
X0091109Y0214169D03*
X0091109Y0215669D03*
X0091109Y0215709D03*
X0091109Y0215729D03*
X0091109Y0215769D03*
X0091109Y0215809D03*
X0091109Y0215829D03*
X0091109Y0215869D03*
X0091109Y0215909D03*
X0091109Y0215929D03*
X0091109Y0215969D03*
X0091109Y0216009D03*
X0091109Y0216029D03*
X0091109Y0216069D03*
X0091109Y0216109D03*
X0091109Y0216129D03*
X0070849Y0220929D03*
X0067349Y0219929D03*
X0067309Y0212769D03*
D87*
X0072289Y0214669D03*
X0072289Y0218069D03*
X0069389Y0218069D03*
X0098789Y0212009D03*
X0113189Y0211809D03*
D88*
X0105319Y0211829D03*
X0088259Y0211829D03*
X0072239Y0214709D03*
X0072219Y0214729D03*
X0069459Y0214729D03*
X0069439Y0214709D03*
X0069459Y0218009D03*
D89*
X0068799Y0214129D03*
X0072879Y0214129D03*
X0088719Y0215869D03*
X0090499Y0215269D03*
X0095259Y0218009D03*
X0098879Y0211829D03*
D90*
X0088579Y0218409D03*
X0072179Y0217969D03*
X0069499Y0217969D03*
X0069499Y0214769D03*
X0072179Y0214769D03*
X0113039Y0218209D03*
X0113199Y0211829D03*
D91*
X0105309Y0211848D03*
X0098709Y0212148D03*
X0088269Y0211848D03*
X0069589Y0217888D03*
D92*
X0068929Y0218488D03*
X0072749Y0218488D03*
X0072749Y0214248D03*
X0068929Y0214248D03*
X0095209Y0217948D03*
X0098889Y0211848D03*
D93*
X0098689Y0212188D03*
X0113189Y0211848D03*
X0067089Y0216588D03*
D94*
X0088259Y0211869D03*
X0098659Y0212269D03*
X0105319Y0211869D03*
X0113039Y0218169D03*
D95*
X0098889Y0211869D03*
D96*
X0113199Y0211869D03*
D97*
X0110369Y0214188D03*
X0110349Y0214288D03*
X0110329Y0214388D03*
X0110309Y0214488D03*
X0110309Y0214548D03*
X0110309Y0214588D03*
X0110289Y0214648D03*
X0110289Y0214688D03*
X0110289Y0214748D03*
X0110289Y0215388D03*
X0110289Y0215448D03*
X0110309Y0215548D03*
X0110309Y0215588D03*
X0110329Y0215648D03*
X0110329Y0215688D03*
X0110329Y0215748D03*
X0110349Y0215788D03*
X0110369Y0215888D03*
X0110389Y0215988D03*
X0110409Y0216048D03*
X0115629Y0215688D03*
X0115649Y0215588D03*
X0115649Y0215548D03*
X0115669Y0215388D03*
X0102349Y0215448D03*
X0102329Y0215188D03*
X0102329Y0215148D03*
X0102329Y0215088D03*
X0102329Y0214948D03*
X0102329Y0214888D03*
X0097309Y0214888D03*
X0097309Y0214848D03*
X0097309Y0214788D03*
X0097309Y0214748D03*
X0097309Y0214688D03*
X0097309Y0214648D03*
X0097309Y0214588D03*
X0097309Y0214548D03*
X0097309Y0214488D03*
X0097309Y0214448D03*
X0097309Y0214388D03*
X0097309Y0214348D03*
X0097309Y0214288D03*
X0097309Y0214248D03*
X0097309Y0214188D03*
X0097309Y0214148D03*
X0097309Y0214088D03*
X0097309Y0214048D03*
X0097309Y0213988D03*
X0097309Y0213948D03*
X0097309Y0213888D03*
X0097309Y0213848D03*
X0097309Y0213788D03*
X0097309Y0213748D03*
X0097309Y0213688D03*
X0097309Y0213648D03*
X0097309Y0213588D03*
X0097309Y0213548D03*
X0097309Y0213488D03*
X0097309Y0213448D03*
X0097329Y0213248D03*
X0097329Y0213188D03*
X0097349Y0213148D03*
X0097309Y0214948D03*
X0097309Y0214988D03*
X0097309Y0215048D03*
X0097309Y0215088D03*
X0097309Y0215148D03*
X0097309Y0215188D03*
X0097309Y0215248D03*
X0097309Y0215288D03*
X0097309Y0215348D03*
X0097309Y0215388D03*
X0097309Y0215448D03*
X0097309Y0215488D03*
X0097309Y0215548D03*
X0097309Y0215588D03*
X0097309Y0215648D03*
X0097309Y0215688D03*
X0097309Y0215748D03*
X0097309Y0215788D03*
X0097309Y0215848D03*
X0097309Y0215888D03*
X0097309Y0215948D03*
X0097309Y0215988D03*
X0097309Y0216048D03*
X0097309Y0216088D03*
X0097309Y0216148D03*
X0097309Y0216188D03*
X0097309Y0216248D03*
X0097309Y0216288D03*
X0097309Y0216348D03*
X0097309Y0216388D03*
X0097309Y0216448D03*
X0097309Y0216488D03*
X0097309Y0216548D03*
X0097309Y0216588D03*
X0097309Y0216648D03*
X0097309Y0216688D03*
X0097309Y0216748D03*
X0097309Y0216788D03*
X0097309Y0216848D03*
X0097309Y0216888D03*
X0097309Y0216948D03*
X0097309Y0216988D03*
X0097309Y0217048D03*
X0097309Y0217088D03*
X0097309Y0217148D03*
X0097309Y0217188D03*
X0097309Y0217248D03*
X0097309Y0217288D03*
X0097309Y0217348D03*
X0097309Y0217388D03*
X0097309Y0217448D03*
X0097309Y0217488D03*
X0097309Y0217548D03*
X0097309Y0217588D03*
X0097309Y0217648D03*
X0097309Y0217688D03*
X0097309Y0217748D03*
X0097309Y0217788D03*
X0097309Y0217848D03*
X0097309Y0218488D03*
X0097309Y0218548D03*
X0097309Y0218588D03*
X0097309Y0218648D03*
X0097309Y0218688D03*
X0097309Y0218748D03*
X0097309Y0218788D03*
X0097309Y0218848D03*
X0097309Y0218888D03*
X0097309Y0218948D03*
X0097309Y0218988D03*
X0097309Y0219048D03*
X0097309Y0219088D03*
X0097309Y0219148D03*
X0097309Y0219188D03*
X0097309Y0219248D03*
X0097309Y0219288D03*
X0097309Y0219348D03*
X0097309Y0219388D03*
X0097309Y0219448D03*
X0097309Y0219488D03*
X0097309Y0219548D03*
X0097309Y0219588D03*
X0097309Y0219648D03*
X0097309Y0219688D03*
X0097309Y0219748D03*
X0097309Y0219788D03*
X0097309Y0219848D03*
X0097309Y0219888D03*
X0097309Y0219948D03*
X0097309Y0219988D03*
X0097309Y0220048D03*
X0097309Y0220088D03*
X0097309Y0220148D03*
X0097309Y0220188D03*
X0097309Y0220248D03*
X0097309Y0220288D03*
X0097309Y0220348D03*
X0097309Y0220388D03*
X0097309Y0220448D03*
X0097309Y0220488D03*
X0097309Y0220548D03*
X0097309Y0220588D03*
X0092589Y0214988D03*
X0092589Y0214948D03*
X0092589Y0214888D03*
X0092589Y0214848D03*
X0091089Y0213888D03*
X0091089Y0213848D03*
X0091069Y0216448D03*
X0091069Y0216488D03*
X0091049Y0216548D03*
X0091049Y0216588D03*
X0091029Y0216648D03*
X0074289Y0219888D03*
X0067389Y0219888D03*
X0070849Y0211888D03*
D98*
X0088259Y0211888D03*
X0105319Y0211888D03*
X0113039Y0218148D03*
D99*
X0105329Y0218288D03*
X0098889Y0211888D03*
X0088749Y0215848D03*
X0088589Y0218448D03*
X0072529Y0214448D03*
X0069149Y0218288D03*
D100*
X0113199Y0211888D03*
D101*
X0105319Y0218169D03*
X0088259Y0211909D03*
D102*
X0098869Y0211909D03*
X0072509Y0214469D03*
X0069169Y0214469D03*
X0069169Y0218269D03*
X0072509Y0218269D03*
D103*
X0105309Y0211909D03*
D104*
X0113189Y0211909D03*
D105*
X0105309Y0211929D03*
X0088269Y0211929D03*
X0074709Y0216529D03*
X0066969Y0216529D03*
D106*
X0069229Y0218209D03*
X0072449Y0218209D03*
X0072469Y0218229D03*
X0098849Y0211929D03*
D107*
X0113189Y0211929D03*
X0074729Y0216209D03*
X0066949Y0216209D03*
D108*
X0088269Y0211948D03*
X0105309Y0211948D03*
D109*
X0098839Y0211948D03*
X0113039Y0218248D03*
X0074479Y0216648D03*
D110*
X0113199Y0211948D03*
D111*
X0105309Y0211969D03*
X0088269Y0211969D03*
X0074769Y0216229D03*
D112*
X0113199Y0211969D03*
D113*
X0110549Y0213648D03*
X0110529Y0213688D03*
X0110489Y0213788D03*
X0110489Y0216288D03*
X0110529Y0216388D03*
X0110549Y0216448D03*
X0110649Y0216648D03*
X0115389Y0216548D03*
X0115429Y0216448D03*
X0115449Y0216388D03*
X0115489Y0216288D03*
X0115529Y0216148D03*
X0102549Y0216248D03*
X0102529Y0216188D03*
X0102489Y0216048D03*
X0102449Y0215948D03*
X0102349Y0214648D03*
X0102389Y0214388D03*
X0102429Y0214248D03*
X0102429Y0214188D03*
X0102449Y0214148D03*
X0097429Y0212848D03*
X0097389Y0212948D03*
X0095829Y0218388D03*
X0090929Y0216948D03*
X0086089Y0214288D03*
X0086049Y0214148D03*
X0086029Y0214048D03*
X0086029Y0213488D03*
X0086029Y0213448D03*
X0086049Y0213388D03*
X0084989Y0217288D03*
X0085029Y0217448D03*
X0085049Y0217488D03*
X0085089Y0217688D03*
X0085089Y0218488D03*
X0085089Y0218548D03*
X0085049Y0218748D03*
X0074249Y0219848D03*
X0070849Y0220748D03*
X0067429Y0219848D03*
X0070849Y0211988D03*
D114*
X0070839Y0216348D03*
X0070839Y0216388D03*
X0074799Y0216488D03*
X0080779Y0220948D03*
X0088259Y0211988D03*
X0105319Y0218088D03*
X0066879Y0216488D03*
D115*
X0098809Y0211988D03*
D116*
X0105309Y0211988D03*
X0074809Y0216248D03*
X0066869Y0216248D03*
D117*
X0113189Y0211988D03*
D118*
X0110639Y0213469D03*
X0110539Y0213669D03*
X0110639Y0216629D03*
X0110739Y0216809D03*
X0107439Y0217129D03*
X0102739Y0216629D03*
X0102639Y0216429D03*
X0102539Y0213869D03*
X0097439Y0212829D03*
X0097439Y0212809D03*
X0107539Y0212969D03*
X0115339Y0216669D03*
X0086139Y0214429D03*
X0086139Y0214409D03*
X0086039Y0213429D03*
X0085039Y0218769D03*
X0070839Y0220669D03*
X0070839Y0220709D03*
X0070839Y0220729D03*
X0070839Y0212069D03*
X0070839Y0212029D03*
X0070839Y0212009D03*
D119*
X0088259Y0212009D03*
X0105319Y0218069D03*
D120*
X0105309Y0212009D03*
X0113029Y0218009D03*
X0074829Y0216469D03*
X0070849Y0216269D03*
X0066849Y0216469D03*
D121*
X0070839Y0216469D03*
X0080839Y0215209D03*
X0113199Y0212009D03*
D122*
X0105319Y0212029D03*
X0088259Y0212029D03*
D123*
X0088759Y0215829D03*
X0098779Y0212029D03*
X0069399Y0214669D03*
X0067159Y0216109D03*
D124*
X0113199Y0212029D03*
D125*
X0115339Y0216648D03*
X0102639Y0216448D03*
X0102539Y0213888D03*
X0093339Y0216748D03*
X0090339Y0212748D03*
X0085039Y0218788D03*
X0074239Y0212888D03*
X0070839Y0212048D03*
X0067439Y0212888D03*
X0070839Y0218948D03*
X0070839Y0220688D03*
D126*
X0066809Y0216448D03*
X0088269Y0212048D03*
X0105309Y0212048D03*
D127*
X0105329Y0218248D03*
X0098769Y0212048D03*
X0072269Y0214688D03*
X0072269Y0218048D03*
X0069409Y0218048D03*
D128*
X0113199Y0212048D03*
D129*
X0105319Y0218009D03*
X0088259Y0212069D03*
X0080919Y0215229D03*
D130*
X0072229Y0218009D03*
X0098749Y0212069D03*
D131*
X0105309Y0212069D03*
X0080929Y0220929D03*
D132*
X0074929Y0216309D03*
X0066749Y0216309D03*
X0113029Y0217929D03*
X0113209Y0212069D03*
D133*
X0110799Y0213188D03*
X0110759Y0213248D03*
X0110739Y0213288D03*
X0107539Y0212948D03*
X0107439Y0217148D03*
X0110819Y0216948D03*
X0110859Y0216988D03*
X0110899Y0217048D03*
X0115119Y0217048D03*
X0115159Y0216988D03*
X0115179Y0216948D03*
X0115219Y0216888D03*
X0102879Y0216848D03*
X0102839Y0216788D03*
X0102719Y0213488D03*
X0102739Y0213448D03*
X0102779Y0213388D03*
X0099559Y0212288D03*
X0092639Y0215448D03*
X0092639Y0215488D03*
X0093419Y0216848D03*
X0093439Y0216888D03*
X0090839Y0217148D03*
X0090819Y0217188D03*
X0090779Y0217248D03*
X0086219Y0214588D03*
X0086199Y0214548D03*
X0086139Y0213088D03*
X0084839Y0216948D03*
X0084859Y0216988D03*
X0084899Y0219148D03*
X0091039Y0213548D03*
X0074179Y0212948D03*
X0070839Y0212148D03*
X0070839Y0212088D03*
X0074179Y0219788D03*
X0070839Y0220588D03*
X0067499Y0219788D03*
D134*
X0070849Y0216648D03*
X0088269Y0212088D03*
D135*
X0098739Y0212088D03*
X0072199Y0214748D03*
X0069479Y0214748D03*
D136*
X0070849Y0216048D03*
X0105309Y0212088D03*
D137*
X0113199Y0212088D03*
X0070839Y0216688D03*
D138*
X0070839Y0218969D03*
X0070839Y0220569D03*
X0070839Y0220609D03*
X0070839Y0220629D03*
X0074159Y0219769D03*
X0067479Y0219809D03*
X0070839Y0213769D03*
X0070839Y0212129D03*
X0070839Y0212109D03*
X0074199Y0212929D03*
X0084879Y0217029D03*
X0084899Y0217069D03*
X0084919Y0219129D03*
X0084899Y0219169D03*
X0084879Y0219209D03*
X0086219Y0214569D03*
X0086179Y0214509D03*
X0086139Y0213109D03*
X0086159Y0213069D03*
X0086179Y0213029D03*
X0090239Y0212669D03*
X0091039Y0213569D03*
X0091039Y0215069D03*
X0092639Y0215469D03*
X0092639Y0215509D03*
X0093459Y0216909D03*
X0090799Y0217209D03*
X0097499Y0212709D03*
X0097519Y0212669D03*
X0102659Y0213609D03*
X0102679Y0213569D03*
X0102699Y0213529D03*
X0102699Y0213509D03*
X0102799Y0216729D03*
X0102819Y0216769D03*
X0102859Y0216809D03*
X0102859Y0216829D03*
X0110799Y0216909D03*
X0110819Y0216929D03*
X0110839Y0216969D03*
X0110879Y0217029D03*
X0115139Y0217009D03*
X0115179Y0216969D03*
X0115199Y0216929D03*
X0110779Y0213229D03*
D139*
X0105309Y0212109D03*
X0105329Y0217969D03*
X0088269Y0212109D03*
X0074949Y0216409D03*
X0066729Y0216409D03*
D140*
X0074569Y0216129D03*
X0098729Y0212109D03*
D141*
X0113199Y0212109D03*
D142*
X0088269Y0212129D03*
X0081009Y0220909D03*
X0074969Y0216329D03*
X0066709Y0216329D03*
D143*
X0067119Y0216129D03*
X0069539Y0214809D03*
X0072139Y0214809D03*
X0072119Y0217909D03*
X0072139Y0217929D03*
X0069539Y0217929D03*
X0098719Y0212129D03*
X0105319Y0218229D03*
D144*
X0105309Y0212129D03*
X0113029Y0217869D03*
D145*
X0113199Y0212129D03*
D146*
X0105309Y0212148D03*
X0088269Y0212148D03*
X0066689Y0216388D03*
D147*
X0070839Y0216848D03*
X0070839Y0215888D03*
X0081079Y0220888D03*
X0113199Y0212148D03*
D148*
X0115389Y0213209D03*
X0107449Y0216809D03*
X0075029Y0220569D03*
X0066649Y0220569D03*
X0066649Y0212169D03*
X0075029Y0212169D03*
D149*
X0074149Y0212969D03*
X0070849Y0212169D03*
X0067529Y0212969D03*
X0067529Y0219769D03*
X0084829Y0219309D03*
X0084849Y0219269D03*
X0084869Y0219229D03*
X0084849Y0216969D03*
X0084829Y0216929D03*
X0084809Y0216909D03*
X0084789Y0216869D03*
X0084769Y0216829D03*
X0086269Y0214669D03*
X0086249Y0214629D03*
X0086229Y0214609D03*
X0086189Y0213009D03*
X0086209Y0212969D03*
X0091029Y0213509D03*
X0091029Y0213529D03*
X0092649Y0215529D03*
X0092649Y0215569D03*
X0093489Y0216929D03*
X0090789Y0217229D03*
X0090769Y0217269D03*
X0097549Y0212629D03*
X0102729Y0213469D03*
X0102749Y0213429D03*
X0102769Y0213409D03*
X0102789Y0213369D03*
X0102809Y0213329D03*
X0102829Y0213309D03*
X0102889Y0216869D03*
X0102929Y0216909D03*
X0102929Y0216929D03*
X0102969Y0216969D03*
X0110869Y0217009D03*
X0110909Y0217069D03*
X0110949Y0217109D03*
X0115069Y0217109D03*
X0115109Y0217069D03*
X0115129Y0217029D03*
X0110789Y0213209D03*
X0110809Y0213169D03*
X0110849Y0213129D03*
X0110889Y0213069D03*
D150*
X0088869Y0215669D03*
X0088269Y0212169D03*
D151*
X0098699Y0212169D03*
D152*
X0105309Y0212169D03*
X0070849Y0216869D03*
D153*
X0113209Y0212169D03*
D154*
X0110899Y0213048D03*
X0110979Y0217148D03*
X0115039Y0217148D03*
X0102979Y0216988D03*
X0102839Y0213288D03*
X0097579Y0212588D03*
X0093499Y0216948D03*
X0093539Y0216988D03*
X0086279Y0214688D03*
X0086199Y0212988D03*
X0084739Y0216788D03*
X0084779Y0216848D03*
X0084839Y0219288D03*
X0084799Y0219348D03*
X0084779Y0219388D03*
X0074139Y0219748D03*
X0070839Y0220488D03*
X0070839Y0220548D03*
X0067539Y0219748D03*
X0070839Y0212248D03*
X0070839Y0212188D03*
X0074139Y0212988D03*
D155*
X0088269Y0212188D03*
D156*
X0105309Y0212188D03*
D157*
X0113199Y0212188D03*
X0088879Y0215648D03*
X0070839Y0215788D03*
X0070839Y0216948D03*
D158*
X0074989Y0220529D03*
X0066689Y0220529D03*
X0066689Y0212209D03*
X0074989Y0212209D03*
X0099889Y0212469D03*
X0107449Y0216829D03*
D159*
X0107439Y0217169D03*
X0110999Y0217169D03*
X0114999Y0217209D03*
X0110939Y0213009D03*
X0102899Y0213209D03*
X0102879Y0213229D03*
X0102999Y0217009D03*
X0095779Y0218369D03*
X0090739Y0217309D03*
X0086299Y0214709D03*
X0086239Y0212929D03*
X0090199Y0212629D03*
X0070839Y0212229D03*
X0070839Y0212209D03*
X0070839Y0220509D03*
X0070839Y0220529D03*
D160*
X0070849Y0216929D03*
X0088269Y0212209D03*
D161*
X0098679Y0212209D03*
D162*
X0105309Y0212209D03*
X0088269Y0212229D03*
D163*
X0088479Y0218129D03*
X0070839Y0216969D03*
X0070839Y0215769D03*
X0113199Y0212209D03*
D164*
X0074959Y0212229D03*
X0066719Y0212229D03*
D165*
X0088769Y0215809D03*
X0098669Y0212229D03*
X0105329Y0218209D03*
D166*
X0106359Y0212229D03*
X0095319Y0218069D03*
X0087159Y0217909D03*
X0073019Y0218729D03*
X0068659Y0218729D03*
X0068679Y0214009D03*
X0073019Y0214009D03*
D167*
X0112139Y0212229D03*
D168*
X0114239Y0212229D03*
X0095279Y0218029D03*
X0072899Y0214109D03*
X0068779Y0214109D03*
X0068779Y0218629D03*
D169*
X0067399Y0215988D03*
X0073079Y0213948D03*
X0073039Y0218748D03*
X0087199Y0212248D03*
X0090579Y0215248D03*
D170*
X0089369Y0212248D03*
X0094769Y0217788D03*
X0073149Y0218848D03*
D171*
X0098659Y0212248D03*
D172*
X0104179Y0212248D03*
X0073139Y0213888D03*
X0068539Y0213888D03*
X0068539Y0218848D03*
D173*
X0068429Y0213788D03*
X0106469Y0212248D03*
X0114049Y0217848D03*
D174*
X0112019Y0212248D03*
X0087159Y0215288D03*
D175*
X0114359Y0212248D03*
D176*
X0110969Y0212969D03*
X0107529Y0212929D03*
X0102969Y0213109D03*
X0102949Y0213129D03*
X0102929Y0213169D03*
X0103049Y0217069D03*
X0111029Y0217209D03*
X0111049Y0217229D03*
X0114949Y0217269D03*
X0115029Y0217169D03*
X0093609Y0217069D03*
X0093569Y0217029D03*
X0093549Y0217009D03*
X0092669Y0215669D03*
X0091009Y0213429D03*
X0090169Y0212609D03*
X0086269Y0212869D03*
X0086249Y0212909D03*
X0086309Y0214729D03*
X0086349Y0214769D03*
X0084729Y0216769D03*
X0084769Y0219409D03*
X0084749Y0219429D03*
X0074109Y0219729D03*
X0073949Y0216909D03*
X0070849Y0220469D03*
X0067569Y0219729D03*
X0067729Y0216909D03*
X0067569Y0213009D03*
X0070849Y0212269D03*
X0074109Y0213009D03*
D177*
X0073229Y0213809D03*
X0073209Y0213829D03*
X0068449Y0213809D03*
X0067449Y0216769D03*
X0068469Y0218909D03*
X0068449Y0218929D03*
X0083629Y0215929D03*
X0087109Y0212269D03*
X0090649Y0215229D03*
X0089909Y0217909D03*
X0094709Y0217769D03*
D178*
X0095439Y0218169D03*
X0089479Y0212269D03*
X0073319Y0213729D03*
X0113039Y0218369D03*
D179*
X0111949Y0212269D03*
X0106549Y0212269D03*
X0104089Y0217809D03*
X0087049Y0217869D03*
X0087089Y0215269D03*
X0083849Y0220169D03*
X0073329Y0219009D03*
X0068349Y0219009D03*
X0068369Y0213729D03*
D180*
X0073239Y0218929D03*
X0114439Y0212269D03*
D181*
X0086569Y0217488D03*
X0066789Y0212288D03*
D182*
X0067619Y0213048D03*
X0070839Y0212348D03*
X0070839Y0212288D03*
X0070839Y0218988D03*
X0070839Y0220388D03*
X0070839Y0220448D03*
X0084739Y0219448D03*
X0084639Y0216648D03*
X0086359Y0214788D03*
X0090139Y0212588D03*
X0090999Y0213388D03*
X0090999Y0215088D03*
X0092679Y0215748D03*
X0093619Y0217088D03*
X0090679Y0217388D03*
X0103119Y0217148D03*
X0103159Y0217188D03*
X0107439Y0217188D03*
X0111059Y0217248D03*
X0111099Y0217288D03*
X0114939Y0217288D03*
X0111039Y0212888D03*
X0103019Y0213048D03*
X0102979Y0213088D03*
D183*
X0095469Y0218188D03*
X0114509Y0212288D03*
X0073369Y0219048D03*
X0068309Y0219048D03*
D184*
X0070839Y0220409D03*
X0070839Y0220429D03*
X0073959Y0215829D03*
X0074079Y0213029D03*
X0070839Y0212329D03*
X0070839Y0212309D03*
X0067599Y0213029D03*
X0067719Y0215829D03*
X0084659Y0216669D03*
X0084699Y0216729D03*
X0086379Y0214809D03*
X0086299Y0212829D03*
X0086319Y0212809D03*
X0090999Y0213409D03*
X0092679Y0215709D03*
X0092679Y0215729D03*
X0090659Y0217409D03*
X0090639Y0217429D03*
X0084719Y0219469D03*
X0084699Y0219509D03*
X0084679Y0219529D03*
X0103099Y0217129D03*
X0103139Y0217169D03*
X0102999Y0213069D03*
X0103039Y0213029D03*
X0107519Y0212909D03*
X0110999Y0212929D03*
X0111019Y0212909D03*
X0115399Y0212869D03*
X0114919Y0217309D03*
X0111139Y0217329D03*
X0111119Y0217309D03*
X0111079Y0217269D03*
D185*
X0106639Y0217769D03*
X0086979Y0212309D03*
X0068299Y0213669D03*
D186*
X0089609Y0212309D03*
X0092909Y0216569D03*
X0106709Y0212329D03*
D187*
X0103989Y0212309D03*
X0095489Y0218209D03*
X0090029Y0217869D03*
X0074169Y0215929D03*
X0073429Y0213629D03*
X0068249Y0213629D03*
X0067509Y0215929D03*
X0068249Y0219109D03*
X0073429Y0219109D03*
D188*
X0073499Y0219169D03*
X0068179Y0219169D03*
X0073499Y0213569D03*
X0083859Y0216029D03*
X0086979Y0215229D03*
X0092919Y0216609D03*
X0095519Y0218229D03*
X0103979Y0217769D03*
X0106659Y0212309D03*
X0114619Y0212329D03*
X0083979Y0220109D03*
D189*
X0092929Y0216629D03*
X0086929Y0212329D03*
X0074149Y0216809D03*
X0067529Y0216809D03*
X0068189Y0213569D03*
X0070849Y0213469D03*
X0103929Y0212329D03*
X0111829Y0212309D03*
X0111849Y0217809D03*
D190*
X0114199Y0217809D03*
X0114559Y0212309D03*
X0094539Y0217709D03*
X0083819Y0216009D03*
X0083939Y0220129D03*
X0073459Y0219129D03*
X0070839Y0219169D03*
X0070839Y0219209D03*
X0070839Y0219229D03*
X0068219Y0219129D03*
X0068239Y0213609D03*
X0070839Y0213569D03*
X0070839Y0213529D03*
X0070839Y0213509D03*
X0073459Y0213609D03*
D191*
X0074859Y0212329D03*
X0073719Y0215709D03*
X0067959Y0215709D03*
X0066819Y0220409D03*
X0074859Y0220409D03*
X0107519Y0213209D03*
D192*
X0103729Y0212429D03*
X0097909Y0212329D03*
X0092849Y0216409D03*
X0090829Y0212969D03*
X0086769Y0212409D03*
X0084049Y0216129D03*
X0086929Y0217809D03*
X0084149Y0220009D03*
X0073669Y0219329D03*
X0070849Y0219629D03*
X0068029Y0219309D03*
X0068009Y0219329D03*
X0068009Y0213409D03*
X0070849Y0213109D03*
X0073669Y0213409D03*
X0106909Y0217629D03*
D193*
X0099679Y0212329D03*
X0115399Y0213009D03*
X0086679Y0217609D03*
X0074479Y0212669D03*
X0067199Y0212669D03*
D194*
X0094449Y0217669D03*
X0106729Y0217729D03*
X0111789Y0212329D03*
D195*
X0107449Y0216888D03*
X0074829Y0220388D03*
X0070849Y0218788D03*
X0066849Y0220388D03*
X0066849Y0212348D03*
X0074829Y0212348D03*
D196*
X0070839Y0213348D03*
X0070839Y0219388D03*
X0084019Y0220088D03*
X0083899Y0216048D03*
X0086879Y0212348D03*
X0092899Y0216548D03*
X0111799Y0217788D03*
X0114259Y0217788D03*
X0114659Y0212348D03*
D197*
X0092859Y0216448D03*
X0090819Y0212948D03*
X0089719Y0212348D03*
D198*
X0086699Y0212448D03*
X0090859Y0215148D03*
X0090279Y0217748D03*
X0095619Y0218288D03*
X0097859Y0212348D03*
X0111559Y0212448D03*
X0114859Y0212448D03*
D199*
X0103889Y0212348D03*
X0103929Y0217748D03*
X0073529Y0219188D03*
X0070849Y0219348D03*
X0070849Y0213388D03*
D200*
X0070849Y0213288D03*
X0070849Y0219448D03*
X0073589Y0219248D03*
X0090789Y0212888D03*
X0094409Y0217648D03*
X0095549Y0218248D03*
X0106809Y0217688D03*
X0106749Y0212348D03*
X0111749Y0212348D03*
D201*
X0111119Y0212809D03*
X0107439Y0212829D03*
X0107419Y0212809D03*
X0103139Y0212909D03*
X0103119Y0212929D03*
X0103279Y0217309D03*
X0107419Y0217209D03*
X0111179Y0217369D03*
X0111219Y0217409D03*
X0114799Y0217429D03*
X0114819Y0217409D03*
X0114859Y0217369D03*
X0115339Y0212809D03*
X0092699Y0215829D03*
X0090979Y0213329D03*
X0086399Y0212709D03*
X0086379Y0212729D03*
X0086439Y0214869D03*
X0084579Y0216569D03*
X0084539Y0216529D03*
X0086819Y0217729D03*
X0084619Y0219609D03*
X0084599Y0219629D03*
X0074039Y0213069D03*
X0070839Y0212429D03*
X0070839Y0212409D03*
X0070839Y0212369D03*
X0070839Y0213729D03*
X0067639Y0213069D03*
X0070839Y0220309D03*
X0070839Y0220329D03*
D202*
X0070849Y0221769D03*
X0066909Y0220329D03*
X0070849Y0213929D03*
X0074809Y0212369D03*
X0107449Y0216909D03*
D203*
X0103769Y0217669D03*
X0103669Y0212469D03*
X0106869Y0212409D03*
X0106909Y0212429D03*
X0111589Y0212429D03*
X0111629Y0212409D03*
X0111669Y0217729D03*
X0090849Y0213009D03*
X0089769Y0212369D03*
X0086769Y0215129D03*
X0084109Y0216169D03*
X0073709Y0213369D03*
X0070849Y0213009D03*
X0067969Y0213369D03*
X0067969Y0219369D03*
X0070849Y0219729D03*
D204*
X0073569Y0219229D03*
X0074129Y0215909D03*
X0068109Y0219229D03*
X0084049Y0220069D03*
X0086969Y0217829D03*
X0090129Y0217829D03*
X0092889Y0216529D03*
X0083949Y0216069D03*
X0103849Y0212369D03*
D205*
X0106789Y0212369D03*
D206*
X0111709Y0212369D03*
X0111749Y0217769D03*
X0106849Y0217669D03*
X0094329Y0217609D03*
X0092869Y0216469D03*
X0090169Y0217809D03*
X0090809Y0212929D03*
X0073609Y0219269D03*
X0068069Y0219269D03*
X0067569Y0216829D03*
D207*
X0066889Y0220348D03*
X0074789Y0220348D03*
X0074789Y0212388D03*
X0066889Y0212388D03*
X0107529Y0213188D03*
D208*
X0107399Y0212788D03*
X0111139Y0212788D03*
X0115319Y0212788D03*
X0114839Y0217388D03*
X0111199Y0217388D03*
X0103259Y0217288D03*
X0103099Y0212948D03*
X0103159Y0212888D03*
X0092699Y0215848D03*
X0090599Y0217488D03*
X0086419Y0214848D03*
X0086359Y0212748D03*
X0090079Y0212548D03*
X0090979Y0213348D03*
X0084559Y0216548D03*
X0084639Y0219588D03*
X0074019Y0213088D03*
X0070839Y0212388D03*
X0067659Y0213088D03*
X0067659Y0219648D03*
X0070839Y0220288D03*
X0070839Y0220348D03*
D209*
X0073629Y0219288D03*
X0068049Y0219288D03*
X0068049Y0213448D03*
X0073629Y0213448D03*
X0086809Y0212388D03*
X0103809Y0212388D03*
D210*
X0092809Y0216288D03*
X0090869Y0213048D03*
X0089809Y0212388D03*
D211*
X0097789Y0212388D03*
X0107089Y0212548D03*
D212*
X0106829Y0212388D03*
X0111669Y0212388D03*
X0111709Y0217748D03*
X0103809Y0217688D03*
X0094289Y0217588D03*
X0090209Y0217788D03*
D213*
X0106879Y0217648D03*
X0114339Y0217748D03*
X0114739Y0212388D03*
X0070839Y0213148D03*
X0070839Y0213188D03*
X0070839Y0219548D03*
X0070839Y0219588D03*
D214*
X0084419Y0219809D03*
X0084319Y0216329D03*
X0086619Y0215029D03*
X0090919Y0213169D03*
X0092759Y0216109D03*
X0097759Y0212409D03*
X0103519Y0217509D03*
X0107119Y0212569D03*
D215*
X0103779Y0212409D03*
X0103839Y0217709D03*
X0095579Y0218269D03*
X0086839Y0215169D03*
X0073639Y0213429D03*
X0070839Y0213629D03*
X0070839Y0213169D03*
X0070839Y0213129D03*
X0068039Y0213429D03*
X0070839Y0219109D03*
X0070839Y0219569D03*
X0070839Y0219609D03*
D216*
X0070839Y0219669D03*
X0070839Y0219709D03*
X0070839Y0213069D03*
X0070839Y0213029D03*
X0086739Y0212429D03*
X0090239Y0217769D03*
X0092839Y0216369D03*
X0094259Y0217569D03*
X0105319Y0218409D03*
X0106959Y0217609D03*
X0114379Y0217729D03*
X0114819Y0212429D03*
X0114779Y0212409D03*
D217*
X0107529Y0213169D03*
X0107449Y0216929D03*
X0074749Y0220309D03*
X0066929Y0220309D03*
X0074749Y0212429D03*
D218*
X0086589Y0212529D03*
X0089889Y0212429D03*
X0090389Y0217669D03*
D219*
X0090459Y0217609D03*
X0092739Y0216029D03*
X0092739Y0216009D03*
X0093899Y0217329D03*
X0090939Y0213229D03*
X0090939Y0213209D03*
X0089959Y0212469D03*
X0086499Y0212609D03*
X0086479Y0212629D03*
X0086539Y0214969D03*
X0084419Y0216409D03*
X0073939Y0219569D03*
X0070839Y0220109D03*
X0070839Y0220129D03*
X0070839Y0220169D03*
X0070839Y0219029D03*
X0067739Y0219569D03*
X0070839Y0212629D03*
X0070839Y0212609D03*
X0070839Y0212569D03*
X0073939Y0213169D03*
X0097739Y0212429D03*
X0103319Y0212729D03*
X0103339Y0212709D03*
X0107179Y0212609D03*
X0107199Y0212629D03*
X0107399Y0217269D03*
X0103459Y0217469D03*
X0111359Y0217529D03*
X0114679Y0217529D03*
X0115179Y0212669D03*
D220*
X0115399Y0213088D03*
X0074719Y0212448D03*
X0066959Y0212448D03*
D221*
X0070849Y0212448D03*
X0074029Y0219648D03*
X0086449Y0214888D03*
X0093729Y0217188D03*
X0095729Y0218348D03*
X0107349Y0212748D03*
D222*
X0103419Y0212648D03*
X0111359Y0212588D03*
X0092759Y0216088D03*
X0090419Y0217648D03*
X0089919Y0212448D03*
D223*
X0089989Y0212488D03*
X0090949Y0213248D03*
X0092729Y0215988D03*
X0093849Y0217288D03*
X0090489Y0217588D03*
X0097709Y0212448D03*
X0107229Y0212648D03*
X0111289Y0212648D03*
X0115209Y0212688D03*
X0114729Y0217488D03*
X0111309Y0217488D03*
X0074009Y0215848D03*
X0073949Y0213148D03*
X0070849Y0212548D03*
X0067729Y0213148D03*
X0067729Y0219588D03*
X0070849Y0220188D03*
X0073969Y0219588D03*
D224*
X0074949Y0220488D03*
X0070849Y0222048D03*
X0066729Y0220488D03*
X0099869Y0212448D03*
X0107449Y0216848D03*
D225*
X0103699Y0212448D03*
X0094219Y0217548D03*
X0092839Y0216388D03*
X0090839Y0212988D03*
X0086799Y0215148D03*
X0084079Y0216148D03*
X0084179Y0219988D03*
X0073699Y0219348D03*
X0070839Y0219088D03*
X0070839Y0219648D03*
X0070839Y0219688D03*
X0067979Y0219348D03*
X0067599Y0215888D03*
X0067999Y0213388D03*
X0070839Y0213088D03*
X0070839Y0213048D03*
X0073699Y0213388D03*
X0074079Y0215888D03*
D226*
X0073739Y0213348D03*
X0070839Y0213648D03*
X0070839Y0212988D03*
X0070839Y0212948D03*
X0070839Y0219748D03*
X0070839Y0219788D03*
X0073739Y0219388D03*
X0067939Y0219388D03*
X0084139Y0216188D03*
X0103639Y0212488D03*
X0106939Y0212448D03*
X0107039Y0217548D03*
D227*
X0074699Y0212469D03*
X0073759Y0215729D03*
X0067919Y0215729D03*
X0066979Y0212469D03*
X0066979Y0220269D03*
D228*
X0070839Y0220269D03*
X0070839Y0220229D03*
X0070839Y0220209D03*
X0070839Y0212529D03*
X0070839Y0212509D03*
X0070839Y0212469D03*
X0086439Y0212669D03*
X0103239Y0212809D03*
X0103339Y0217369D03*
X0115239Y0212709D03*
D229*
X0111559Y0217669D03*
X0107099Y0217509D03*
X0103659Y0217609D03*
X0103579Y0212529D03*
X0106979Y0212469D03*
X0090879Y0213069D03*
X0086679Y0212469D03*
X0086739Y0215109D03*
X0084199Y0216229D03*
X0090299Y0217729D03*
X0084299Y0219909D03*
X0073779Y0219429D03*
X0070839Y0219069D03*
X0070839Y0219829D03*
X0070839Y0219869D03*
X0067899Y0219429D03*
X0067899Y0213309D03*
X0070839Y0213669D03*
X0070839Y0212909D03*
X0070839Y0212869D03*
X0073779Y0213309D03*
D230*
X0070849Y0219009D03*
X0090549Y0217529D03*
X0093749Y0217209D03*
X0090049Y0212529D03*
X0097689Y0212469D03*
X0103289Y0217329D03*
X0107329Y0212729D03*
X0111149Y0212769D03*
X0111249Y0217429D03*
X0111289Y0217469D03*
D231*
X0103689Y0217629D03*
X0111529Y0212469D03*
X0114889Y0212469D03*
X0094149Y0217509D03*
X0070849Y0219809D03*
X0067929Y0213329D03*
D232*
X0070839Y0212488D03*
X0070839Y0220248D03*
X0084539Y0219688D03*
X0090539Y0217548D03*
X0111239Y0212688D03*
D233*
X0107009Y0212488D03*
X0103549Y0212548D03*
X0103629Y0217588D03*
X0107129Y0217488D03*
X0111529Y0217648D03*
X0090889Y0213088D03*
X0086649Y0212488D03*
X0086709Y0215088D03*
X0084229Y0216248D03*
X0084329Y0219888D03*
X0073809Y0219448D03*
X0067869Y0219448D03*
D234*
X0092709Y0215888D03*
X0097669Y0212488D03*
X0111169Y0212748D03*
X0111269Y0217448D03*
X0114769Y0217448D03*
D235*
X0114919Y0212488D03*
X0111499Y0212488D03*
X0094119Y0217488D03*
X0092799Y0216248D03*
X0086899Y0217788D03*
X0073799Y0213288D03*
X0070839Y0212888D03*
X0070839Y0212848D03*
X0067879Y0213288D03*
X0070839Y0219848D03*
X0070839Y0219888D03*
D236*
X0067049Y0220209D03*
X0074649Y0220209D03*
X0074629Y0212529D03*
X0067049Y0212529D03*
X0067029Y0212509D03*
X0107449Y0216969D03*
X0107529Y0213129D03*
D237*
X0107059Y0212529D03*
X0107039Y0212509D03*
X0103519Y0212569D03*
X0111439Y0212529D03*
X0114979Y0212529D03*
X0111499Y0217629D03*
X0107199Y0217429D03*
X0103599Y0217569D03*
X0092779Y0216169D03*
X0090899Y0213109D03*
X0086619Y0212509D03*
X0086679Y0215069D03*
X0084259Y0216269D03*
X0084359Y0219869D03*
X0070839Y0219929D03*
X0070839Y0219969D03*
X0070839Y0212809D03*
X0070839Y0212769D03*
X0067859Y0213269D03*
D238*
X0067699Y0213129D03*
X0067679Y0213109D03*
X0073979Y0213129D03*
X0073999Y0213109D03*
X0073979Y0219609D03*
X0067699Y0219609D03*
X0067679Y0219629D03*
X0084559Y0219669D03*
X0084519Y0216509D03*
X0084479Y0216469D03*
X0086499Y0214929D03*
X0090019Y0212509D03*
X0090959Y0213269D03*
X0090959Y0215109D03*
X0092719Y0215929D03*
X0093779Y0217229D03*
X0093819Y0217269D03*
X0103219Y0212829D03*
X0103279Y0212769D03*
X0107299Y0212709D03*
X0111199Y0212729D03*
X0111219Y0212709D03*
X0115259Y0212729D03*
X0114759Y0217469D03*
X0107419Y0217229D03*
X0105319Y0218429D03*
D239*
X0103229Y0217269D03*
X0103189Y0217229D03*
X0103169Y0217209D03*
X0103049Y0213009D03*
X0103089Y0212969D03*
X0097649Y0212509D03*
X0097629Y0212529D03*
X0092689Y0215769D03*
X0092689Y0215809D03*
X0093649Y0217109D03*
X0093669Y0217129D03*
X0093709Y0217169D03*
X0090609Y0217469D03*
X0086389Y0214829D03*
X0086349Y0212769D03*
X0090109Y0212569D03*
X0090989Y0213369D03*
X0084629Y0216629D03*
X0084609Y0216609D03*
X0084649Y0219569D03*
X0074049Y0219669D03*
X0070849Y0220369D03*
X0067629Y0219669D03*
X0107489Y0212869D03*
X0111049Y0212869D03*
X0111089Y0212829D03*
X0115369Y0212829D03*
X0114889Y0217329D03*
X0113029Y0218429D03*
D240*
X0107069Y0217529D03*
X0103609Y0212509D03*
X0092809Y0216269D03*
X0084169Y0216209D03*
X0084269Y0219929D03*
X0073769Y0219409D03*
D241*
X0073809Y0215748D03*
X0067869Y0215748D03*
X0067069Y0212548D03*
X0107449Y0216988D03*
D242*
X0074619Y0220188D03*
X0067059Y0220188D03*
X0074619Y0212548D03*
D243*
X0073849Y0219488D03*
X0070849Y0219048D03*
X0067829Y0219488D03*
X0084369Y0219848D03*
X0086649Y0215048D03*
X0086569Y0212548D03*
X0090909Y0213148D03*
X0092769Y0216148D03*
X0103569Y0217548D03*
X0107249Y0217388D03*
X0111409Y0212548D03*
X0115009Y0212548D03*
D244*
X0074589Y0212569D03*
X0067089Y0212569D03*
X0067089Y0220169D03*
X0074589Y0220169D03*
D245*
X0073899Y0219529D03*
X0070839Y0220009D03*
X0070839Y0220029D03*
X0070839Y0220069D03*
X0070839Y0212709D03*
X0070839Y0212669D03*
X0073879Y0213209D03*
X0067799Y0213209D03*
X0084399Y0219829D03*
X0086539Y0212569D03*
X0103439Y0212629D03*
X0111379Y0212569D03*
X0115039Y0212569D03*
X0114579Y0217609D03*
X0107279Y0217369D03*
X0103539Y0217529D03*
D246*
X0103089Y0217109D03*
X0097589Y0212569D03*
X0090689Y0217369D03*
X0086789Y0217709D03*
X0084689Y0216709D03*
X0084789Y0219369D03*
X0074089Y0219709D03*
X0067589Y0219709D03*
X0114989Y0217229D03*
D247*
X0107529Y0213088D03*
X0074569Y0212588D03*
D248*
X0073839Y0213248D03*
X0070839Y0212788D03*
X0070839Y0212748D03*
X0067839Y0213248D03*
X0070839Y0219948D03*
X0070839Y0219988D03*
X0084279Y0216288D03*
X0090359Y0217688D03*
X0092779Y0216188D03*
X0094059Y0217448D03*
X0103499Y0212588D03*
X0107179Y0217448D03*
X0114519Y0217648D03*
D249*
X0115059Y0217129D03*
X0110959Y0217129D03*
X0110859Y0213109D03*
X0110919Y0213029D03*
X0102859Y0213269D03*
X0097559Y0212609D03*
X0092659Y0215609D03*
X0092659Y0215629D03*
X0093519Y0216969D03*
X0090719Y0217329D03*
X0084759Y0216809D03*
X0084819Y0219329D03*
X0091019Y0213469D03*
X0103019Y0217029D03*
D250*
X0107229Y0217409D03*
X0111469Y0217609D03*
X0114549Y0217629D03*
X0103469Y0212609D03*
X0094029Y0217429D03*
X0094009Y0217409D03*
X0092769Y0216129D03*
X0090909Y0215129D03*
X0090909Y0213129D03*
X0084309Y0216309D03*
X0086869Y0217769D03*
X0074029Y0216869D03*
X0073869Y0219509D03*
X0067809Y0219509D03*
X0067649Y0216869D03*
X0067809Y0213229D03*
X0070849Y0212729D03*
X0073869Y0213229D03*
D251*
X0067749Y0213169D03*
X0067789Y0219529D03*
X0084469Y0219769D03*
X0084369Y0216369D03*
X0086589Y0215009D03*
X0090449Y0217629D03*
X0092749Y0216069D03*
X0093949Y0217369D03*
X0095689Y0218329D03*
X0103389Y0212669D03*
X0111309Y0212629D03*
X0111329Y0212609D03*
X0115109Y0212609D03*
X0115129Y0212629D03*
X0114629Y0217569D03*
X0111409Y0217569D03*
X0107349Y0217309D03*
X0107329Y0217329D03*
D252*
X0107299Y0217348D03*
X0111439Y0217588D03*
X0114599Y0217588D03*
X0093979Y0217388D03*
X0070839Y0220048D03*
X0070839Y0213688D03*
X0070839Y0212688D03*
X0070839Y0212648D03*
D253*
X0074509Y0212648D03*
X0074509Y0220088D03*
X0067169Y0220088D03*
D254*
X0067679Y0216888D03*
X0073999Y0216888D03*
X0084459Y0216448D03*
X0084499Y0216488D03*
X0086519Y0214948D03*
X0086419Y0212688D03*
X0086459Y0212648D03*
X0090959Y0213288D03*
X0092719Y0215948D03*
X0093799Y0217248D03*
X0088619Y0218548D03*
X0084579Y0219648D03*
X0103319Y0217348D03*
X0103359Y0217388D03*
X0103199Y0212848D03*
X0103259Y0212788D03*
X0107279Y0212688D03*
X0115279Y0212748D03*
D255*
X0115019Y0217188D03*
X0102859Y0213248D03*
X0092659Y0215588D03*
X0091019Y0213488D03*
X0090219Y0212648D03*
X0086259Y0212888D03*
X0086219Y0212948D03*
X0086259Y0214648D03*
X0067559Y0212988D03*
D256*
X0067509Y0212948D03*
X0084809Y0216888D03*
X0084889Y0219188D03*
X0084849Y0219248D03*
X0090749Y0217288D03*
X0092649Y0215548D03*
X0097509Y0212688D03*
X0097529Y0212648D03*
X0102809Y0213348D03*
X0102909Y0216888D03*
X0102949Y0216948D03*
X0110929Y0217088D03*
X0115089Y0217088D03*
X0115409Y0212888D03*
X0110869Y0213088D03*
X0110829Y0213148D03*
X0086169Y0213048D03*
D257*
X0084449Y0216429D03*
X0084529Y0219709D03*
X0084509Y0219729D03*
X0090509Y0217569D03*
X0092729Y0215969D03*
X0093869Y0217309D03*
X0103389Y0217409D03*
X0103409Y0217429D03*
X0111329Y0217509D03*
X0114709Y0217509D03*
X0111269Y0212669D03*
X0107249Y0212669D03*
X0070849Y0213709D03*
D258*
X0074459Y0212688D03*
X0067219Y0212688D03*
X0067219Y0220048D03*
X0074459Y0220048D03*
D259*
X0070849Y0220648D03*
X0084929Y0219088D03*
X0084949Y0219048D03*
X0084969Y0218988D03*
X0084989Y0218948D03*
X0084949Y0217188D03*
X0084929Y0217148D03*
X0084909Y0217088D03*
X0084889Y0217048D03*
X0086769Y0217688D03*
X0086169Y0214488D03*
X0086149Y0214448D03*
X0086089Y0213248D03*
X0086109Y0213188D03*
X0086129Y0213148D03*
X0090269Y0212688D03*
X0091049Y0213588D03*
X0092629Y0215388D03*
X0093369Y0216788D03*
X0090889Y0217048D03*
X0090869Y0217088D03*
X0097469Y0212748D03*
X0102549Y0213848D03*
X0102569Y0213788D03*
X0102589Y0213748D03*
X0102609Y0213688D03*
X0102629Y0213648D03*
X0102669Y0213588D03*
X0102689Y0213548D03*
X0102749Y0216648D03*
X0102769Y0216688D03*
X0102809Y0216748D03*
X0110729Y0216788D03*
X0110769Y0216848D03*
X0110789Y0216888D03*
X0115249Y0216848D03*
X0115269Y0216788D03*
X0110649Y0213448D03*
X0110709Y0213348D03*
D260*
X0110709Y0213329D03*
X0110729Y0213309D03*
X0110749Y0213269D03*
X0110689Y0213369D03*
X0110669Y0213409D03*
X0110689Y0216729D03*
X0110709Y0216769D03*
X0110749Y0216829D03*
X0110769Y0216869D03*
X0115209Y0216909D03*
X0115229Y0216869D03*
X0115249Y0216829D03*
X0115269Y0216809D03*
X0115289Y0216769D03*
X0115309Y0216729D03*
X0102789Y0216709D03*
X0102769Y0216669D03*
X0102729Y0216609D03*
X0102709Y0216569D03*
X0102569Y0213809D03*
X0102609Y0213709D03*
X0102629Y0213669D03*
X0102649Y0213629D03*
X0097489Y0212729D03*
X0097469Y0212769D03*
X0092629Y0215369D03*
X0092629Y0215409D03*
X0092629Y0215429D03*
X0093389Y0216809D03*
X0093409Y0216829D03*
X0093429Y0216869D03*
X0090849Y0217129D03*
X0090829Y0217169D03*
X0086189Y0214529D03*
X0086089Y0213229D03*
X0086109Y0213169D03*
X0086129Y0213129D03*
X0090289Y0212709D03*
X0091049Y0213609D03*
X0091049Y0213629D03*
X0084869Y0217009D03*
X0084909Y0217109D03*
X0084929Y0217129D03*
X0084949Y0217169D03*
X0084969Y0219009D03*
X0084949Y0219029D03*
X0084949Y0219069D03*
X0084929Y0219109D03*
X0074209Y0219809D03*
X0073929Y0215809D03*
X0067749Y0215809D03*
X0067489Y0212929D03*
D261*
X0067459Y0212909D03*
X0074219Y0212909D03*
X0074219Y0219829D03*
X0067459Y0219829D03*
X0084979Y0218969D03*
X0084999Y0218929D03*
X0084999Y0218909D03*
X0085019Y0218869D03*
X0085019Y0218829D03*
X0084999Y0217329D03*
X0084999Y0217309D03*
X0084979Y0217269D03*
X0084959Y0217229D03*
X0084959Y0217209D03*
X0086159Y0214469D03*
X0086119Y0214369D03*
X0086099Y0214329D03*
X0086099Y0214309D03*
X0086059Y0213329D03*
X0086079Y0213269D03*
X0086099Y0213209D03*
X0090319Y0212729D03*
X0090359Y0212769D03*
X0091059Y0213669D03*
X0092619Y0215269D03*
X0092619Y0215309D03*
X0092619Y0215329D03*
X0093359Y0216769D03*
X0090899Y0217029D03*
X0090879Y0217069D03*
X0090859Y0217109D03*
X0097419Y0212869D03*
X0102459Y0214109D03*
X0102479Y0214029D03*
X0102499Y0213969D03*
X0102519Y0213929D03*
X0102519Y0213909D03*
X0102559Y0213829D03*
X0102579Y0213769D03*
X0102599Y0213729D03*
X0102579Y0216309D03*
X0102619Y0216409D03*
X0102659Y0216469D03*
X0102679Y0216509D03*
X0102679Y0216529D03*
X0110579Y0216509D03*
X0110659Y0216669D03*
X0110679Y0216709D03*
X0110559Y0213629D03*
X0110579Y0213569D03*
X0110599Y0213529D03*
X0110619Y0213509D03*
X0110659Y0213429D03*
X0115399Y0212909D03*
X0115399Y0216529D03*
X0115379Y0216569D03*
X0115359Y0216609D03*
X0115359Y0216629D03*
X0115319Y0216709D03*
D262*
X0074409Y0219988D03*
X0067289Y0219988D03*
X0067289Y0212748D03*
X0074389Y0212748D03*
D263*
X0074009Y0219629D03*
X0086469Y0214909D03*
X0090569Y0217509D03*
X0092709Y0215909D03*
X0092709Y0215869D03*
X0090969Y0213309D03*
X0103169Y0212869D03*
X0107369Y0212769D03*
X0115309Y0212769D03*
D264*
X0115379Y0216588D03*
X0115319Y0216688D03*
X0115299Y0216748D03*
X0110699Y0216748D03*
X0110619Y0216588D03*
X0110599Y0216548D03*
X0110579Y0213588D03*
X0110599Y0213548D03*
X0110619Y0213488D03*
X0110679Y0213388D03*
X0102519Y0213948D03*
X0102499Y0213988D03*
X0102479Y0214048D03*
X0102599Y0216348D03*
X0102619Y0216388D03*
X0102659Y0216488D03*
X0102699Y0216548D03*
X0102719Y0216588D03*
X0097459Y0212788D03*
X0092619Y0215288D03*
X0092619Y0215348D03*
X0091059Y0213648D03*
X0090919Y0216988D03*
X0086119Y0214388D03*
X0086059Y0213348D03*
X0086079Y0213288D03*
X0084979Y0217248D03*
X0085019Y0217388D03*
X0085059Y0218688D03*
X0085019Y0218848D03*
X0084999Y0218888D03*
D265*
X0085109Y0217869D03*
X0091009Y0216729D03*
X0091029Y0216669D03*
X0091029Y0216629D03*
X0091049Y0216609D03*
X0091049Y0216569D03*
X0091069Y0216469D03*
X0092589Y0215029D03*
X0092589Y0215009D03*
X0092589Y0214969D03*
X0092589Y0214929D03*
X0092589Y0214909D03*
X0092589Y0214869D03*
X0091089Y0213869D03*
X0091089Y0213829D03*
X0097309Y0213829D03*
X0097309Y0213809D03*
X0097309Y0213769D03*
X0097309Y0213729D03*
X0097309Y0213709D03*
X0097309Y0213669D03*
X0097309Y0213629D03*
X0097309Y0213609D03*
X0097309Y0213569D03*
X0097309Y0213529D03*
X0097309Y0213509D03*
X0097309Y0213469D03*
X0097309Y0213429D03*
X0097329Y0213269D03*
X0097329Y0213229D03*
X0097329Y0213209D03*
X0097349Y0213129D03*
X0097349Y0213109D03*
X0097369Y0213029D03*
X0097309Y0213869D03*
X0097309Y0213909D03*
X0097309Y0213929D03*
X0097309Y0213969D03*
X0097309Y0214009D03*
X0097309Y0214029D03*
X0097309Y0214069D03*
X0097309Y0214109D03*
X0097309Y0214129D03*
X0097309Y0214169D03*
X0097309Y0214209D03*
X0097309Y0214229D03*
X0097309Y0214269D03*
X0097309Y0214309D03*
X0097309Y0214329D03*
X0097309Y0214369D03*
X0097309Y0214409D03*
X0097309Y0214429D03*
X0097309Y0214469D03*
X0097309Y0214509D03*
X0097309Y0214529D03*
X0097309Y0214569D03*
X0097309Y0214609D03*
X0097309Y0214629D03*
X0097309Y0214669D03*
X0097309Y0214709D03*
X0097309Y0214729D03*
X0097309Y0214769D03*
X0097309Y0214809D03*
X0097309Y0214829D03*
X0097309Y0214869D03*
X0097309Y0214909D03*
X0097309Y0214929D03*
X0097309Y0214969D03*
X0097309Y0215009D03*
X0097309Y0215029D03*
X0097309Y0215069D03*
X0097309Y0215109D03*
X0097309Y0215129D03*
X0097309Y0215169D03*
X0097309Y0215209D03*
X0097309Y0215229D03*
X0097309Y0215269D03*
X0097309Y0215309D03*
X0097309Y0215329D03*
X0097309Y0215369D03*
X0097309Y0215409D03*
X0097309Y0215429D03*
X0097309Y0215469D03*
X0097309Y0215509D03*
X0097309Y0215529D03*
X0097309Y0215569D03*
X0097309Y0215609D03*
X0097309Y0215629D03*
X0097309Y0215669D03*
X0097309Y0215709D03*
X0097309Y0215729D03*
X0097309Y0215769D03*
X0097309Y0215809D03*
X0097309Y0215829D03*
X0097309Y0215869D03*
X0097309Y0215909D03*
X0097309Y0215929D03*
X0097309Y0215969D03*
X0097309Y0216009D03*
X0097309Y0216029D03*
X0097309Y0216069D03*
X0097309Y0216109D03*
X0097309Y0216129D03*
X0097309Y0216169D03*
X0097309Y0216209D03*
X0097309Y0216229D03*
X0097309Y0216269D03*
X0097309Y0216309D03*
X0097309Y0216329D03*
X0097309Y0216369D03*
X0097309Y0216409D03*
X0097309Y0216429D03*
X0097309Y0216469D03*
X0097309Y0216509D03*
X0097309Y0216529D03*
X0097309Y0216569D03*
X0097309Y0216609D03*
X0097309Y0216629D03*
X0097309Y0216669D03*
X0097309Y0216709D03*
X0097309Y0216729D03*
X0097309Y0216769D03*
X0097309Y0216809D03*
X0097309Y0216829D03*
X0097309Y0216869D03*
X0097309Y0216909D03*
X0097309Y0216929D03*
X0097309Y0216969D03*
X0097309Y0217009D03*
X0097309Y0217029D03*
X0097309Y0217069D03*
X0097309Y0217109D03*
X0097309Y0217129D03*
X0097309Y0217169D03*
X0097309Y0217209D03*
X0097309Y0217229D03*
X0097309Y0217269D03*
X0097309Y0217309D03*
X0097309Y0217329D03*
X0097309Y0217369D03*
X0097309Y0217409D03*
X0097309Y0217429D03*
X0097309Y0217469D03*
X0097309Y0217509D03*
X0097309Y0217529D03*
X0097309Y0217569D03*
X0097309Y0217609D03*
X0097309Y0217629D03*
X0097309Y0217669D03*
X0097309Y0217709D03*
X0097309Y0217729D03*
X0097309Y0217769D03*
X0097309Y0217809D03*
X0097309Y0217829D03*
X0097309Y0218469D03*
X0097309Y0218509D03*
X0097309Y0218529D03*
X0097309Y0218569D03*
X0097309Y0218609D03*
X0097309Y0218629D03*
X0097309Y0218669D03*
X0097309Y0218709D03*
X0097309Y0218729D03*
X0097309Y0218769D03*
X0097309Y0218809D03*
X0097309Y0218829D03*
X0097309Y0218869D03*
X0097309Y0218909D03*
X0097309Y0218929D03*
X0097309Y0218969D03*
X0097309Y0219009D03*
X0097309Y0219029D03*
X0097309Y0219069D03*
X0097309Y0219109D03*
X0097309Y0219129D03*
X0097309Y0219169D03*
X0097309Y0219209D03*
X0097309Y0219229D03*
X0097309Y0219269D03*
X0097309Y0219309D03*
X0097309Y0219329D03*
X0097309Y0219369D03*
X0097309Y0219409D03*
X0097309Y0219429D03*
X0097309Y0219469D03*
X0097309Y0219509D03*
X0097309Y0219529D03*
X0097309Y0219569D03*
X0097309Y0219609D03*
X0097309Y0219629D03*
X0097309Y0219669D03*
X0097309Y0219709D03*
X0097309Y0219729D03*
X0097309Y0219769D03*
X0097309Y0219809D03*
X0097309Y0219829D03*
X0097309Y0219869D03*
X0097309Y0219909D03*
X0097309Y0219929D03*
X0097309Y0219969D03*
X0097309Y0220009D03*
X0097309Y0220029D03*
X0097309Y0220069D03*
X0097309Y0220109D03*
X0097309Y0220129D03*
X0097309Y0220169D03*
X0097309Y0220209D03*
X0097309Y0220229D03*
X0097309Y0220269D03*
X0097309Y0220309D03*
X0097309Y0220329D03*
X0097309Y0220369D03*
X0097309Y0220409D03*
X0097309Y0220429D03*
X0097309Y0220469D03*
X0097309Y0220509D03*
X0097309Y0220529D03*
X0097309Y0220569D03*
X0102349Y0215429D03*
X0102329Y0215229D03*
X0102329Y0215209D03*
X0102329Y0215169D03*
X0102329Y0215129D03*
X0102329Y0215109D03*
X0102329Y0214929D03*
X0102329Y0214909D03*
X0102329Y0214869D03*
X0110289Y0214769D03*
X0110289Y0214729D03*
X0110289Y0214709D03*
X0110289Y0214669D03*
X0110289Y0214629D03*
X0110289Y0214609D03*
X0110309Y0214569D03*
X0110309Y0214529D03*
X0110309Y0214509D03*
X0110309Y0214469D03*
X0110329Y0214429D03*
X0110329Y0214409D03*
X0110329Y0214369D03*
X0110349Y0214309D03*
X0110349Y0214269D03*
X0110389Y0214109D03*
X0110289Y0215369D03*
X0110289Y0215409D03*
X0110289Y0215429D03*
X0110289Y0215469D03*
X0110309Y0215529D03*
X0110309Y0215569D03*
X0110309Y0215609D03*
X0110309Y0215629D03*
X0110329Y0215669D03*
X0110329Y0215709D03*
X0110329Y0215729D03*
X0110349Y0215769D03*
X0110349Y0215809D03*
X0110349Y0215829D03*
X0110369Y0215869D03*
X0110369Y0215909D03*
X0110389Y0215969D03*
X0110429Y0216109D03*
X0115589Y0215909D03*
X0115609Y0215809D03*
X0115629Y0215709D03*
X0115629Y0215669D03*
X0115649Y0215569D03*
X0115649Y0215529D03*
X0115649Y0215509D03*
X0115669Y0215409D03*
X0115669Y0215369D03*
X0074309Y0212829D03*
X0067369Y0212829D03*
X0067369Y0219909D03*
X0074309Y0219909D03*
D266*
X0086289Y0212848D03*
X0093589Y0217048D03*
X0110989Y0212948D03*
D267*
X0090759Y0212848D03*
X0090759Y0215188D03*
X0090079Y0217848D03*
X0073479Y0219148D03*
D268*
X0073539Y0219209D03*
X0070839Y0219129D03*
X0070839Y0219369D03*
X0070839Y0219409D03*
X0070839Y0219429D03*
X0068139Y0219209D03*
X0067559Y0215909D03*
X0068139Y0213529D03*
X0068119Y0213509D03*
X0070839Y0213369D03*
X0070839Y0213329D03*
X0070839Y0213309D03*
X0073539Y0213529D03*
X0073559Y0213509D03*
X0086939Y0215209D03*
X0088619Y0218529D03*
X0090779Y0212869D03*
X0106779Y0217709D03*
D269*
X0110509Y0216348D03*
X0110569Y0216488D03*
X0110669Y0216688D03*
X0110469Y0213848D03*
X0110509Y0213748D03*
X0115469Y0216348D03*
X0115409Y0216488D03*
X0102569Y0216288D03*
X0102469Y0215988D03*
X0102369Y0214488D03*
X0102409Y0214288D03*
X0102469Y0214088D03*
X0097409Y0212888D03*
X0092609Y0215188D03*
X0092609Y0215248D03*
X0091069Y0213688D03*
X0090969Y0216848D03*
X0086109Y0214348D03*
X0086069Y0214248D03*
X0085009Y0217348D03*
X0085069Y0217588D03*
X0085109Y0218348D03*
X0085069Y0218648D03*
D270*
X0085069Y0218629D03*
X0085069Y0218609D03*
X0085069Y0218669D03*
X0085109Y0218369D03*
X0085109Y0218329D03*
X0085069Y0217609D03*
X0085069Y0217569D03*
X0085009Y0217369D03*
X0086069Y0214229D03*
X0086069Y0214209D03*
X0086069Y0213309D03*
X0091069Y0213709D03*
X0091069Y0213729D03*
X0092609Y0215169D03*
X0092609Y0215209D03*
X0092609Y0215229D03*
X0093309Y0216709D03*
X0090909Y0217009D03*
X0097409Y0212909D03*
X0102409Y0214269D03*
X0102409Y0214309D03*
X0102409Y0214329D03*
X0102369Y0214509D03*
X0102469Y0214069D03*
X0102469Y0216009D03*
X0102509Y0216109D03*
X0102509Y0216129D03*
X0102569Y0216269D03*
X0102609Y0216369D03*
X0110569Y0216469D03*
X0110609Y0216569D03*
X0110509Y0213729D03*
X0110569Y0213609D03*
X0115509Y0216209D03*
X0115509Y0216229D03*
X0115469Y0216329D03*
X0115469Y0216369D03*
X0115409Y0216509D03*
X0074269Y0219869D03*
X0073909Y0216929D03*
X0067769Y0216929D03*
D271*
X0070839Y0219769D03*
X0070839Y0212969D03*
X0070839Y0212929D03*
X0111639Y0217709D03*
X0113039Y0218409D03*
D272*
X0110629Y0216609D03*
X0110589Y0216529D03*
X0110549Y0216429D03*
X0110529Y0216409D03*
X0110429Y0213969D03*
X0110449Y0213909D03*
X0110489Y0213809D03*
X0110529Y0213709D03*
X0115489Y0216269D03*
X0115449Y0216409D03*
X0115429Y0216429D03*
X0115429Y0216469D03*
X0102589Y0216329D03*
X0102549Y0216229D03*
X0102549Y0216209D03*
X0102529Y0216169D03*
X0102489Y0216069D03*
X0102449Y0215929D03*
X0102429Y0215869D03*
X0102349Y0214629D03*
X0102389Y0214409D03*
X0102389Y0214369D03*
X0102429Y0214229D03*
X0102429Y0214209D03*
X0102449Y0214169D03*
X0102449Y0214129D03*
X0102489Y0214009D03*
X0097389Y0212969D03*
X0093329Y0216729D03*
X0090949Y0216909D03*
X0090949Y0216929D03*
X0090929Y0216969D03*
X0086089Y0214269D03*
X0086049Y0214169D03*
X0086049Y0214129D03*
X0086029Y0214029D03*
X0086029Y0213529D03*
X0086029Y0213509D03*
X0086029Y0213469D03*
X0086049Y0213409D03*
X0086049Y0213369D03*
X0085029Y0217409D03*
X0085029Y0217429D03*
X0085049Y0217469D03*
X0085049Y0217509D03*
X0085089Y0217709D03*
X0085089Y0218509D03*
X0085089Y0218529D03*
X0085089Y0218569D03*
X0085049Y0218709D03*
X0085049Y0218729D03*
X0085029Y0218809D03*
D273*
X0084709Y0216748D03*
X0084669Y0216688D03*
X0086329Y0214748D03*
X0090709Y0217348D03*
X0092669Y0215688D03*
X0092669Y0215648D03*
X0091009Y0213448D03*
X0102909Y0213188D03*
X0102949Y0213148D03*
X0103029Y0217048D03*
X0103069Y0217088D03*
X0111009Y0217188D03*
X0114969Y0217248D03*
X0110949Y0212988D03*
X0070849Y0213748D03*
D274*
X0073759Y0213329D03*
X0073719Y0219369D03*
X0067919Y0219409D03*
X0084219Y0219969D03*
X0092819Y0216329D03*
X0092819Y0216309D03*
X0094179Y0217529D03*
X0090859Y0213029D03*
X0107019Y0217569D03*
X0114419Y0217709D03*
D275*
X0107449Y0217029D03*
X0107529Y0213069D03*
X0074489Y0220069D03*
X0073829Y0216969D03*
X0070849Y0221209D03*
X0067189Y0220069D03*
X0067849Y0216969D03*
D276*
X0096119Y0218448D03*
X0107519Y0213248D03*
X0115399Y0213188D03*
D277*
X0115389Y0213229D03*
D278*
X0092879Y0216488D03*
X0083979Y0216088D03*
X0073579Y0213488D03*
X0070839Y0213248D03*
X0068099Y0213488D03*
X0068099Y0219248D03*
X0070839Y0219488D03*
D279*
X0107519Y0213309D03*
D280*
X0106989Y0217588D03*
X0103729Y0217648D03*
X0092829Y0216348D03*
X0074069Y0216848D03*
X0067609Y0216848D03*
X0067949Y0213348D03*
D281*
X0070839Y0213409D03*
X0070839Y0213429D03*
X0070839Y0219269D03*
X0070839Y0219309D03*
X0070839Y0219329D03*
D282*
X0070839Y0219288D03*
X0070839Y0219148D03*
X0070839Y0213588D03*
X0070839Y0213448D03*
X0113039Y0218388D03*
D283*
X0106679Y0217748D03*
X0086999Y0217848D03*
X0070839Y0219188D03*
X0070839Y0219248D03*
X0070839Y0213548D03*
X0070839Y0213488D03*
D284*
X0073509Y0213548D03*
X0068169Y0213548D03*
X0068169Y0219188D03*
X0092909Y0216588D03*
D285*
X0094489Y0217688D03*
X0073469Y0213588D03*
X0068209Y0213588D03*
X0068209Y0219148D03*
D286*
X0068279Y0213648D03*
X0073399Y0213648D03*
X0083779Y0215988D03*
X0083899Y0220148D03*
D287*
X0094589Y0217729D03*
X0073389Y0219069D03*
X0068289Y0219069D03*
X0073389Y0213669D03*
D288*
X0073339Y0213709D03*
X0068339Y0213709D03*
X0068339Y0219029D03*
X0073339Y0219029D03*
X0083739Y0215969D03*
D289*
X0083679Y0215948D03*
X0094639Y0217748D03*
X0074199Y0215948D03*
X0073299Y0213748D03*
X0068379Y0213748D03*
X0067479Y0215948D03*
X0068379Y0218988D03*
X0073299Y0218988D03*
D290*
X0068409Y0218969D03*
X0068409Y0213769D03*
X0073269Y0213769D03*
D291*
X0073259Y0213788D03*
X0073259Y0218948D03*
X0068419Y0218948D03*
X0088699Y0215888D03*
X0095419Y0218148D03*
D292*
X0104179Y0217829D03*
X0105319Y0218369D03*
X0083739Y0220209D03*
X0074239Y0216769D03*
X0073219Y0218909D03*
X0068479Y0213829D03*
D293*
X0068489Y0213848D03*
X0073189Y0213848D03*
X0073189Y0218888D03*
X0068489Y0218888D03*
X0087089Y0217888D03*
D294*
X0083679Y0220229D03*
X0073099Y0218809D03*
X0068579Y0218809D03*
X0068579Y0213929D03*
X0068559Y0213909D03*
X0073099Y0213929D03*
X0073119Y0213909D03*
D295*
X0074269Y0216748D03*
X0073089Y0218788D03*
X0068589Y0218788D03*
X0067409Y0216748D03*
X0068609Y0213948D03*
X0095349Y0218088D03*
D296*
X0087259Y0215309D03*
X0073059Y0213969D03*
X0068619Y0213969D03*
X0068619Y0218769D03*
X0073059Y0218769D03*
D297*
X0074929Y0220469D03*
X0070849Y0213969D03*
X0086549Y0217469D03*
D298*
X0083489Y0215888D03*
X0074289Y0215988D03*
X0073029Y0213988D03*
X0068649Y0213988D03*
X0068649Y0218748D03*
D299*
X0068719Y0214048D03*
X0095299Y0218048D03*
X0104299Y0217848D03*
D300*
X0088609Y0218488D03*
X0083609Y0220248D03*
X0072969Y0218688D03*
X0068709Y0218688D03*
X0072969Y0214048D03*
D301*
X0072919Y0214088D03*
X0068759Y0214088D03*
D302*
X0068819Y0214148D03*
X0072859Y0214148D03*
X0072859Y0218588D03*
X0068819Y0218588D03*
X0106299Y0217848D03*
D303*
X0105329Y0218329D03*
X0072849Y0218569D03*
X0068849Y0218569D03*
X0067329Y0216709D03*
X0068849Y0214169D03*
X0072829Y0214169D03*
D304*
X0091119Y0214188D03*
X0091119Y0214248D03*
X0091119Y0214288D03*
X0091119Y0214348D03*
X0091119Y0214388D03*
X0091119Y0214448D03*
X0091119Y0214488D03*
X0091119Y0214548D03*
X0091119Y0214588D03*
X0091119Y0214648D03*
X0091119Y0214688D03*
X0091119Y0214748D03*
X0091119Y0214788D03*
X0091119Y0214848D03*
X0091119Y0214888D03*
X0091119Y0214948D03*
X0091119Y0214988D03*
D305*
X0072789Y0214209D03*
X0068889Y0214209D03*
X0068889Y0218529D03*
D306*
X0068899Y0218509D03*
X0072779Y0218509D03*
X0068919Y0214229D03*
X0088599Y0218469D03*
X0095219Y0217969D03*
D307*
X0094969Y0217829D03*
X0074369Y0216029D03*
X0072769Y0214229D03*
X0067309Y0216029D03*
D308*
X0068959Y0214269D03*
D309*
X0072729Y0214269D03*
X0072729Y0218469D03*
X0068949Y0218469D03*
X0087409Y0215329D03*
D310*
X0083319Y0215848D03*
X0068979Y0214288D03*
D311*
X0067289Y0216688D03*
X0068969Y0218448D03*
X0072709Y0218448D03*
X0074389Y0216688D03*
X0072709Y0214288D03*
X0089629Y0217948D03*
D312*
X0072679Y0214309D03*
X0068999Y0214309D03*
D313*
X0069049Y0214348D03*
X0069029Y0218388D03*
X0072649Y0218388D03*
X0074409Y0216048D03*
X0090409Y0215288D03*
D314*
X0072639Y0214348D03*
D315*
X0072619Y0214369D03*
X0069059Y0214369D03*
X0069059Y0218369D03*
X0072619Y0218369D03*
D316*
X0072609Y0218348D03*
X0069089Y0218348D03*
X0069089Y0214388D03*
X0072589Y0214388D03*
X0095149Y0217888D03*
D317*
X0095139Y0217869D03*
X0074439Y0216669D03*
X0072579Y0218329D03*
X0072559Y0218309D03*
X0069099Y0218329D03*
X0067239Y0216669D03*
X0069099Y0214409D03*
X0072579Y0214409D03*
D318*
X0072549Y0214429D03*
X0069129Y0214429D03*
X0069129Y0218309D03*
D319*
X0069159Y0214448D03*
X0095119Y0217848D03*
D320*
X0069199Y0214488D03*
D321*
X0069219Y0214509D03*
X0072459Y0214509D03*
X0069219Y0218229D03*
D322*
X0069239Y0214529D03*
X0072439Y0214529D03*
D323*
X0072419Y0214548D03*
X0069259Y0214548D03*
X0069259Y0218188D03*
X0072419Y0218188D03*
D324*
X0069289Y0214569D03*
D325*
X0069299Y0214588D03*
X0072379Y0214588D03*
X0072379Y0218148D03*
X0069299Y0218148D03*
D326*
X0069329Y0218129D03*
X0069349Y0214629D03*
X0069329Y0214609D03*
X0072349Y0214609D03*
X0088589Y0218429D03*
D327*
X0072339Y0218109D03*
X0069339Y0218109D03*
X0072339Y0214629D03*
D328*
X0072309Y0214648D03*
X0069369Y0214648D03*
X0069369Y0218088D03*
D329*
X0069419Y0214688D03*
D330*
X0069529Y0214788D03*
X0072149Y0214788D03*
X0072169Y0217948D03*
D331*
X0112979Y0215348D03*
X0112979Y0215288D03*
X0112979Y0215248D03*
X0112979Y0214848D03*
X0112979Y0214788D03*
D332*
X0112979Y0214809D03*
X0112979Y0214829D03*
X0112979Y0214869D03*
X0112979Y0215209D03*
X0112979Y0215229D03*
X0112979Y0215269D03*
X0112979Y0215309D03*
X0112979Y0215329D03*
D333*
X0072109Y0214829D03*
X0069569Y0214829D03*
X0069569Y0217909D03*
D334*
X0070839Y0214848D03*
X0088939Y0215348D03*
D335*
X0070839Y0214869D03*
X0070839Y0217869D03*
D336*
X0070839Y0217848D03*
X0070839Y0214888D03*
D337*
X0112969Y0214888D03*
X0112969Y0215188D03*
D338*
X0070849Y0214909D03*
D339*
X0112979Y0214929D03*
X0112979Y0214909D03*
X0112979Y0214969D03*
X0112979Y0215009D03*
X0112979Y0215029D03*
X0112979Y0215069D03*
X0112979Y0215109D03*
X0112979Y0215129D03*
D340*
X0088979Y0215409D03*
X0081699Y0220469D03*
X0070839Y0217809D03*
X0070839Y0214929D03*
D341*
X0070839Y0214948D03*
X0070839Y0217788D03*
X0081679Y0220488D03*
D342*
X0112979Y0215148D03*
X0112979Y0215088D03*
X0112979Y0215048D03*
X0112979Y0214988D03*
X0112979Y0214948D03*
D343*
X0070849Y0214969D03*
D344*
X0070839Y0214988D03*
X0070839Y0217748D03*
D345*
X0070839Y0217729D03*
X0070839Y0217709D03*
X0070839Y0215009D03*
D346*
X0070849Y0215029D03*
X0081629Y0215669D03*
D347*
X0070839Y0215048D03*
X0070839Y0217688D03*
D348*
X0070839Y0215069D03*
X0089079Y0215529D03*
D349*
X0070839Y0215088D03*
X0070839Y0217648D03*
D350*
X0070839Y0217629D03*
X0070839Y0215109D03*
D351*
X0070839Y0215129D03*
D352*
X0070839Y0215148D03*
X0070839Y0217588D03*
D353*
X0070839Y0217569D03*
X0070839Y0215169D03*
X0081539Y0220629D03*
D354*
X0112969Y0215169D03*
D355*
X0070839Y0215188D03*
D356*
X0080699Y0215188D03*
X0113039Y0218088D03*
D357*
X0086889Y0215188D03*
X0084089Y0220048D03*
D358*
X0070839Y0217529D03*
X0070839Y0215209D03*
D359*
X0090709Y0215209D03*
X0114129Y0217829D03*
D360*
X0070839Y0217509D03*
X0070839Y0215229D03*
D361*
X0070849Y0215248D03*
D362*
X0080989Y0215248D03*
D363*
X0081479Y0215529D03*
X0070839Y0215269D03*
X0070839Y0217469D03*
D364*
X0070849Y0215929D03*
X0081049Y0215269D03*
X0105329Y0217929D03*
D365*
X0070839Y0217448D03*
X0070839Y0215288D03*
D366*
X0070839Y0215848D03*
X0070839Y0216888D03*
X0081099Y0215288D03*
D367*
X0070849Y0215309D03*
D368*
X0081139Y0215309D03*
X0081139Y0220869D03*
X0105319Y0217869D03*
D369*
X0081439Y0220709D03*
X0070839Y0217409D03*
X0070839Y0215329D03*
D370*
X0070839Y0215729D03*
X0070839Y0217009D03*
X0081179Y0215329D03*
D371*
X0074629Y0216569D03*
X0067049Y0216569D03*
X0090109Y0215329D03*
D372*
X0070839Y0215348D03*
X0070839Y0217388D03*
D373*
X0081219Y0215348D03*
D374*
X0070849Y0215369D03*
D375*
X0081259Y0215369D03*
D376*
X0088959Y0215369D03*
D377*
X0070839Y0215388D03*
X0070839Y0217348D03*
D378*
X0081289Y0215388D03*
D379*
X0088969Y0215388D03*
D380*
X0070839Y0215409D03*
X0070839Y0215429D03*
X0070839Y0217309D03*
D381*
X0081319Y0215409D03*
D382*
X0081349Y0215429D03*
X0088429Y0218029D03*
X0070849Y0217269D03*
D383*
X0070839Y0217769D03*
X0081679Y0215729D03*
X0088999Y0215429D03*
D384*
X0070839Y0215448D03*
X0070839Y0217288D03*
D385*
X0081379Y0215448D03*
X0081379Y0220748D03*
D386*
X0089019Y0215448D03*
D387*
X0081339Y0220769D03*
X0070839Y0215469D03*
D388*
X0081409Y0215469D03*
X0081409Y0220729D03*
D389*
X0081649Y0220529D03*
X0089029Y0215469D03*
D390*
X0070839Y0215488D03*
X0070839Y0217248D03*
D391*
X0081429Y0215488D03*
D392*
X0081629Y0220548D03*
X0089049Y0215488D03*
D393*
X0070839Y0215509D03*
X0070839Y0217229D03*
D394*
X0081459Y0215509D03*
D395*
X0081609Y0220569D03*
X0089069Y0215509D03*
D396*
X0070839Y0215529D03*
D397*
X0070839Y0215548D03*
X0070839Y0217188D03*
D398*
X0081509Y0215548D03*
D399*
X0081579Y0220588D03*
X0089099Y0215548D03*
D400*
X0088459Y0218069D03*
X0070839Y0217169D03*
X0070839Y0215569D03*
D401*
X0081529Y0215569D03*
D402*
X0081559Y0220609D03*
X0089119Y0215569D03*
D403*
X0070849Y0215588D03*
D404*
X0081549Y0215588D03*
D405*
X0089139Y0215588D03*
D406*
X0070839Y0215609D03*
X0070839Y0217129D03*
D407*
X0070849Y0217609D03*
X0081569Y0215609D03*
D408*
X0089169Y0215609D03*
D409*
X0070839Y0215629D03*
X0070839Y0217109D03*
D410*
X0081589Y0215629D03*
D411*
X0081489Y0220669D03*
X0089189Y0215629D03*
D412*
X0070849Y0215648D03*
D413*
X0081609Y0215648D03*
D414*
X0070839Y0215669D03*
X0070839Y0217069D03*
D415*
X0070839Y0217048D03*
X0070839Y0215688D03*
D416*
X0081649Y0215688D03*
D417*
X0088849Y0215688D03*
X0070849Y0215988D03*
D418*
X0070849Y0215709D03*
D419*
X0081659Y0215709D03*
X0081659Y0220509D03*
D420*
X0074919Y0216429D03*
X0070839Y0216629D03*
X0070839Y0216109D03*
X0066759Y0216429D03*
X0088839Y0215709D03*
D421*
X0088829Y0215729D03*
X0070849Y0216529D03*
D422*
X0070839Y0215748D03*
D423*
X0081699Y0215748D03*
D424*
X0088819Y0215748D03*
D425*
X0081709Y0215769D03*
D426*
X0088809Y0215769D03*
D427*
X0073889Y0215788D03*
D428*
X0081729Y0215788D03*
D429*
X0074689Y0216188D03*
X0088789Y0215788D03*
D430*
X0070839Y0215809D03*
X0070839Y0215829D03*
X0070839Y0216909D03*
D431*
X0081749Y0215809D03*
X0081749Y0220409D03*
D432*
X0081759Y0215829D03*
D433*
X0075019Y0216369D03*
X0070839Y0215869D03*
X0066659Y0216369D03*
X0088499Y0218169D03*
X0105319Y0217909D03*
D434*
X0083419Y0215869D03*
X0074319Y0216009D03*
X0067359Y0216009D03*
D435*
X0070839Y0215909D03*
X0070839Y0216809D03*
X0070839Y0216829D03*
D436*
X0073129Y0218829D03*
X0068549Y0218829D03*
X0083569Y0215909D03*
X0095369Y0218109D03*
X0106449Y0217829D03*
D437*
X0088499Y0218188D03*
X0074999Y0216388D03*
X0070839Y0216788D03*
X0070839Y0215948D03*
D438*
X0074249Y0215969D03*
X0073169Y0218869D03*
X0068509Y0218869D03*
X0067429Y0215969D03*
X0095389Y0218129D03*
D439*
X0070839Y0216769D03*
X0070839Y0215969D03*
D440*
X0070839Y0216009D03*
X0070839Y0216729D03*
X0088519Y0218209D03*
D441*
X0070839Y0216709D03*
X0070839Y0216029D03*
D442*
X0067279Y0216048D03*
X0113039Y0218288D03*
D443*
X0113039Y0218269D03*
X0074439Y0216069D03*
X0067239Y0216069D03*
D444*
X0070839Y0216069D03*
X0070839Y0216669D03*
D445*
X0074489Y0216088D03*
X0067189Y0216088D03*
D446*
X0070839Y0216088D03*
D447*
X0072249Y0218029D03*
X0069429Y0218029D03*
X0074529Y0216109D03*
D448*
X0070839Y0216129D03*
X0070839Y0216609D03*
D449*
X0074609Y0216148D03*
X0067069Y0216148D03*
X0088569Y0218388D03*
D450*
X0074879Y0216288D03*
X0070839Y0216148D03*
X0066799Y0216288D03*
D451*
X0067039Y0216169D03*
D452*
X0070839Y0216169D03*
X0070839Y0216569D03*
D453*
X0074649Y0216169D03*
X0088569Y0218369D03*
D454*
X0066999Y0216188D03*
D455*
X0070839Y0216188D03*
X0070839Y0216548D03*
X0074879Y0216448D03*
D456*
X0070839Y0216509D03*
X0070839Y0216229D03*
X0070839Y0216209D03*
X0088539Y0218269D03*
D457*
X0105319Y0218109D03*
X0066919Y0216229D03*
D458*
X0070839Y0216248D03*
X0070839Y0216488D03*
D459*
X0074849Y0216269D03*
X0066829Y0216269D03*
D460*
X0070839Y0216288D03*
X0070839Y0216448D03*
X0088539Y0218288D03*
D461*
X0070839Y0216429D03*
X0070839Y0216409D03*
X0070839Y0216309D03*
X0113039Y0218029D03*
D462*
X0070849Y0216329D03*
D463*
X0074999Y0216348D03*
X0066679Y0216348D03*
D464*
X0070839Y0216369D03*
X0088539Y0218309D03*
X0098479Y0218309D03*
X0098479Y0218329D03*
X0098479Y0218369D03*
X0098479Y0218409D03*
X0098479Y0218429D03*
X0098479Y0218269D03*
X0098479Y0218229D03*
X0098479Y0218209D03*
X0098479Y0218169D03*
X0098479Y0218129D03*
X0098479Y0218109D03*
X0098479Y0218069D03*
X0098479Y0218029D03*
X0098479Y0218009D03*
X0098479Y0217969D03*
X0098479Y0217929D03*
X0098479Y0217909D03*
X0098479Y0217869D03*
D465*
X0113029Y0218069D03*
X0074749Y0216509D03*
X0066929Y0216509D03*
D466*
X0066999Y0216548D03*
X0074679Y0216548D03*
D467*
X0070849Y0216588D03*
X0088529Y0218248D03*
D468*
X0074599Y0216588D03*
D469*
X0074559Y0216609D03*
X0067119Y0216609D03*
D470*
X0067169Y0216629D03*
X0074509Y0216629D03*
D471*
X0074359Y0216709D03*
X0072799Y0218529D03*
X0087239Y0217929D03*
X0113039Y0218309D03*
D472*
X0070839Y0216748D03*
D473*
X0067489Y0216788D03*
X0106589Y0217788D03*
D474*
X0107449Y0216788D03*
D475*
X0073789Y0216988D03*
X0070849Y0221488D03*
X0067889Y0216988D03*
D476*
X0070849Y0216988D03*
D477*
X0070839Y0217029D03*
D478*
X0105309Y0218448D03*
X0107449Y0217048D03*
D479*
X0088459Y0218088D03*
X0070839Y0217088D03*
D480*
X0070839Y0217148D03*
D481*
X0070849Y0217209D03*
D482*
X0070849Y0217329D03*
X0088429Y0218009D03*
D483*
X0088439Y0217969D03*
X0070839Y0217369D03*
D484*
X0070839Y0217429D03*
D485*
X0070839Y0217488D03*
D486*
X0070849Y0217548D03*
D487*
X0070849Y0217669D03*
D488*
X0084249Y0219948D03*
X0111589Y0217688D03*
X0114449Y0217688D03*
D489*
X0094849Y0217809D03*
D490*
X0070839Y0217829D03*
D491*
X0111919Y0217829D03*
D492*
X0111989Y0217848D03*
X0083789Y0220188D03*
D493*
X0072099Y0217888D03*
X0113039Y0218188D03*
D494*
X0113039Y0218048D03*
X0098479Y0218048D03*
X0098479Y0218088D03*
X0098479Y0218148D03*
X0098479Y0218188D03*
X0098479Y0218248D03*
X0098479Y0218288D03*
X0098479Y0218348D03*
X0098479Y0218388D03*
X0098479Y0218448D03*
X0098479Y0217988D03*
X0098479Y0217948D03*
X0098479Y0217888D03*
D495*
X0105329Y0217888D03*
D496*
X0113039Y0217888D03*
D497*
X0113029Y0217909D03*
D498*
X0089829Y0217929D03*
D499*
X0095189Y0217929D03*
X0105329Y0218309D03*
X0072689Y0218429D03*
X0068989Y0218429D03*
D500*
X0069519Y0217948D03*
D501*
X0072319Y0218088D03*
X0087419Y0217948D03*
D502*
X0105319Y0217948D03*
D503*
X0113039Y0217948D03*
D504*
X0113029Y0217969D03*
X0105329Y0218029D03*
D505*
X0072209Y0217988D03*
X0069469Y0217988D03*
D506*
X0088429Y0217988D03*
D507*
X0105319Y0217988D03*
D508*
X0113039Y0217988D03*
D509*
X0088449Y0218048D03*
D510*
X0105329Y0218048D03*
D511*
X0088469Y0218109D03*
D512*
X0113039Y0218109D03*
D513*
X0105319Y0218129D03*
D514*
X0113039Y0218129D03*
D515*
X0088489Y0218148D03*
D516*
X0105319Y0218148D03*
D517*
X0105329Y0218269D03*
X0072409Y0218169D03*
X0069269Y0218169D03*
D518*
X0105329Y0218188D03*
D519*
X0088519Y0218229D03*
D520*
X0113039Y0218229D03*
D521*
X0072539Y0218288D03*
D522*
X0088549Y0218329D03*
D523*
X0088569Y0218348D03*
D524*
X0105319Y0218348D03*
D525*
X0113029Y0218448D03*
D526*
X0072889Y0218609D03*
X0068789Y0218609D03*
D527*
X0072909Y0218629D03*
X0083529Y0220269D03*
D528*
X0072929Y0218648D03*
X0068749Y0218648D03*
D529*
X0070849Y0218829D03*
X0074709Y0220269D03*
D530*
X0073289Y0218969D03*
D531*
X0083419Y0220288D03*
D532*
X0081829Y0220309D03*
D533*
X0081809Y0220329D03*
D534*
X0081799Y0220348D03*
D535*
X0081779Y0220369D03*
D536*
X0081769Y0220388D03*
D537*
X0081729Y0220429D03*
D538*
X0081719Y0220448D03*
D539*
X0074969Y0220509D03*
X0066709Y0220509D03*
D540*
X0081519Y0220648D03*
D541*
X0081459Y0220688D03*
D542*
X0081309Y0220788D03*
D543*
X0081269Y0220809D03*
D544*
X0081229Y0220829D03*
D545*
X0081189Y0220848D03*
D546*
X0120500Y0165017D02*
X0120500Y0161314D01*
X0119266Y0161314D02*
X0121735Y0161314D01*
X0119266Y0163783D02*
X0120500Y0165017D01*
D547*
X0122299Y0155164D03*
X0112299Y0155164D03*
D548*
X0142984Y0200219D02*
X0142984Y0208093D01*
X0146921Y0208093D01*
X0035898Y0212424D02*
X0035898Y0214491D01*
X0030713Y0214491D01*
X0020543Y0214491D02*
X0017197Y0214491D01*
X0013654Y0215967D01*
X0013654Y0184471D01*
X0017197Y0185947D01*
X0017197Y0214491D01*
X0013654Y0227778D02*
X0013654Y0259274D01*
X0017197Y0257798D01*
X0020543Y0257798D01*
X0017197Y0257798D02*
X0017197Y0229254D01*
X0013654Y0227778D01*
X0017197Y0229254D02*
X0020937Y0229254D01*
X0030815Y0229203D02*
X0035898Y0229254D01*
X0035898Y0231321D01*
X0035898Y0255731D02*
X0035898Y0257798D01*
X0030713Y0257798D01*
X0035898Y0188014D02*
X0035898Y0185947D01*
X0030815Y0185896D01*
X0020937Y0185947D02*
X0017197Y0185947D01*
X0142984Y0042739D02*
X0142984Y0038802D01*
X0284717Y0038802D01*
X0284717Y0042739D01*
X0331803Y0094274D02*
X0333299Y0094274D01*
X0331764Y0094313D02*
X0331764Y0108487D01*
X0331843Y0108487D02*
X0332984Y0108487D01*
X0336803Y0108408D02*
X0338969Y0108408D01*
X0342748Y0108526D02*
X0343969Y0108526D01*
X0343969Y0108487D02*
X0343969Y0094313D01*
X0343969Y0094235D02*
X0342827Y0094235D01*
X0338811Y0094235D02*
X0336724Y0094235D01*
X0335137Y0101400D02*
X0335139Y0101504D01*
X0335145Y0101608D01*
X0335155Y0101711D01*
X0335169Y0101814D01*
X0335186Y0101916D01*
X0335208Y0102018D01*
X0335233Y0102119D01*
X0335263Y0102219D01*
X0335296Y0102317D01*
X0335332Y0102414D01*
X0335373Y0102510D01*
X0335417Y0102604D01*
X0335465Y0102696D01*
X0335516Y0102787D01*
X0335570Y0102875D01*
X0335628Y0102962D01*
X0335689Y0103046D01*
X0335753Y0103127D01*
X0335821Y0103207D01*
X0335891Y0103283D01*
X0335964Y0103357D01*
X0336040Y0103428D01*
X0336118Y0103496D01*
X0336200Y0103561D01*
X0336283Y0103623D01*
X0336369Y0103682D01*
X0336457Y0103737D01*
X0336547Y0103789D01*
X0336639Y0103837D01*
X0336732Y0103882D01*
X0336828Y0103924D01*
X0336924Y0103961D01*
X0337023Y0103995D01*
X0337122Y0104026D01*
X0337223Y0104052D01*
X0337324Y0104075D01*
X0337426Y0104093D01*
X0337529Y0104108D01*
X0337632Y0104119D01*
X0337736Y0104126D01*
X0337840Y0104129D01*
X0337944Y0104128D01*
X0338048Y0104123D01*
X0338151Y0104114D01*
X0338254Y0104101D01*
X0338357Y0104084D01*
X0338459Y0104064D01*
X0338560Y0104039D01*
X0338660Y0104011D01*
X0338759Y0103979D01*
X0338856Y0103943D01*
X0338952Y0103904D01*
X0339047Y0103860D01*
X0339140Y0103814D01*
X0339230Y0103763D01*
X0339319Y0103710D01*
X0339406Y0103653D01*
X0339491Y0103592D01*
X0339573Y0103529D01*
X0339653Y0103462D01*
X0339730Y0103393D01*
X0339805Y0103320D01*
X0339877Y0103245D01*
X0339945Y0103167D01*
X0340011Y0103087D01*
X0340074Y0103004D01*
X0340133Y0102919D01*
X0340189Y0102831D01*
X0340242Y0102742D01*
X0340292Y0102651D01*
X0340337Y0102557D01*
X0340380Y0102462D01*
X0340418Y0102366D01*
X0340453Y0102268D01*
X0340484Y0102169D01*
X0340512Y0102069D01*
X0340535Y0101967D01*
X0340555Y0101865D01*
X0340571Y0101763D01*
X0340583Y0101659D01*
X0340591Y0101556D01*
X0340595Y0101452D01*
X0340595Y0101348D01*
X0340591Y0101244D01*
X0340583Y0101141D01*
X0340571Y0101037D01*
X0340555Y0100935D01*
X0340535Y0100833D01*
X0340512Y0100731D01*
X0340484Y0100631D01*
X0340453Y0100532D01*
X0340418Y0100434D01*
X0340380Y0100338D01*
X0340337Y0100243D01*
X0340292Y0100149D01*
X0340242Y0100058D01*
X0340189Y0099969D01*
X0340133Y0099881D01*
X0340074Y0099796D01*
X0340011Y0099713D01*
X0339945Y0099633D01*
X0339877Y0099555D01*
X0339805Y0099480D01*
X0339730Y0099407D01*
X0339653Y0099338D01*
X0339573Y0099271D01*
X0339491Y0099208D01*
X0339406Y0099147D01*
X0339319Y0099090D01*
X0339231Y0099037D01*
X0339140Y0098986D01*
X0339047Y0098940D01*
X0338952Y0098896D01*
X0338856Y0098857D01*
X0338759Y0098821D01*
X0338660Y0098789D01*
X0338560Y0098761D01*
X0338459Y0098736D01*
X0338357Y0098716D01*
X0338254Y0098699D01*
X0338151Y0098686D01*
X0338048Y0098677D01*
X0337944Y0098672D01*
X0337840Y0098671D01*
X0337736Y0098674D01*
X0337632Y0098681D01*
X0337529Y0098692D01*
X0337426Y0098707D01*
X0337324Y0098725D01*
X0337223Y0098748D01*
X0337122Y0098774D01*
X0337023Y0098805D01*
X0336924Y0098839D01*
X0336828Y0098876D01*
X0336732Y0098918D01*
X0336639Y0098963D01*
X0336547Y0099011D01*
X0336457Y0099063D01*
X0336369Y0099118D01*
X0336283Y0099177D01*
X0336200Y0099239D01*
X0336118Y0099304D01*
X0336040Y0099372D01*
X0335964Y0099443D01*
X0335891Y0099517D01*
X0335821Y0099593D01*
X0335753Y0099673D01*
X0335689Y0099754D01*
X0335628Y0099838D01*
X0335570Y0099925D01*
X0335516Y0100013D01*
X0335465Y0100104D01*
X0335417Y0100196D01*
X0335373Y0100290D01*
X0335332Y0100386D01*
X0335296Y0100483D01*
X0335263Y0100581D01*
X0335233Y0100681D01*
X0335208Y0100782D01*
X0335186Y0100884D01*
X0335169Y0100986D01*
X0335155Y0101089D01*
X0335145Y0101192D01*
X0335139Y0101296D01*
X0335137Y0101400D01*
X0332214Y0146913D02*
X0332214Y0154313D01*
X0342014Y0152913D02*
X0342014Y0146913D01*
X0349874Y0168408D02*
X0354126Y0168408D01*
X0354126Y0173920D01*
X0356803Y0173920D01*
X0357748Y0173132D01*
X0354913Y0173132D01*
X0354913Y0169195D01*
X0357787Y0169195D01*
X0356646Y0168841D01*
X0356882Y0168408D02*
X0357354Y0168802D01*
X0354598Y0168802D01*
X0354598Y0173526D01*
X0356882Y0173526D01*
X0357079Y0173290D02*
X0357748Y0173132D01*
X0354126Y0173920D02*
X0349874Y0173920D01*
X0349874Y0172739D01*
X0349874Y0169589D02*
X0349874Y0168408D01*
X0354126Y0168408D02*
X0356882Y0168408D01*
X0357354Y0168802D02*
X0357787Y0169195D01*
X0343969Y0192266D02*
X0342827Y0192266D01*
X0343969Y0192345D02*
X0343969Y0206518D01*
X0343969Y0206557D02*
X0342748Y0206557D01*
X0338969Y0206439D02*
X0336803Y0206439D01*
X0332984Y0206518D02*
X0331843Y0206518D01*
X0331764Y0206518D02*
X0331764Y0192345D01*
X0331803Y0192306D02*
X0333299Y0192306D01*
X0336724Y0192266D02*
X0338811Y0192266D01*
X0335137Y0199431D02*
X0335139Y0199535D01*
X0335145Y0199639D01*
X0335155Y0199742D01*
X0335169Y0199845D01*
X0335186Y0199947D01*
X0335208Y0200049D01*
X0335233Y0200150D01*
X0335263Y0200250D01*
X0335296Y0200348D01*
X0335332Y0200445D01*
X0335373Y0200541D01*
X0335417Y0200635D01*
X0335465Y0200727D01*
X0335516Y0200818D01*
X0335570Y0200906D01*
X0335628Y0200993D01*
X0335689Y0201077D01*
X0335753Y0201158D01*
X0335821Y0201238D01*
X0335891Y0201314D01*
X0335964Y0201388D01*
X0336040Y0201459D01*
X0336118Y0201527D01*
X0336200Y0201592D01*
X0336283Y0201654D01*
X0336369Y0201713D01*
X0336457Y0201768D01*
X0336547Y0201820D01*
X0336639Y0201868D01*
X0336732Y0201913D01*
X0336828Y0201955D01*
X0336924Y0201992D01*
X0337023Y0202026D01*
X0337122Y0202057D01*
X0337223Y0202083D01*
X0337324Y0202106D01*
X0337426Y0202124D01*
X0337529Y0202139D01*
X0337632Y0202150D01*
X0337736Y0202157D01*
X0337840Y0202160D01*
X0337944Y0202159D01*
X0338048Y0202154D01*
X0338151Y0202145D01*
X0338254Y0202132D01*
X0338357Y0202115D01*
X0338459Y0202095D01*
X0338560Y0202070D01*
X0338660Y0202042D01*
X0338759Y0202010D01*
X0338856Y0201974D01*
X0338952Y0201935D01*
X0339047Y0201891D01*
X0339140Y0201845D01*
X0339230Y0201794D01*
X0339319Y0201741D01*
X0339406Y0201684D01*
X0339491Y0201623D01*
X0339573Y0201560D01*
X0339653Y0201493D01*
X0339730Y0201424D01*
X0339805Y0201351D01*
X0339877Y0201276D01*
X0339945Y0201198D01*
X0340011Y0201118D01*
X0340074Y0201035D01*
X0340133Y0200950D01*
X0340189Y0200862D01*
X0340242Y0200773D01*
X0340292Y0200682D01*
X0340337Y0200588D01*
X0340380Y0200493D01*
X0340418Y0200397D01*
X0340453Y0200299D01*
X0340484Y0200200D01*
X0340512Y0200100D01*
X0340535Y0199998D01*
X0340555Y0199896D01*
X0340571Y0199794D01*
X0340583Y0199690D01*
X0340591Y0199587D01*
X0340595Y0199483D01*
X0340595Y0199379D01*
X0340591Y0199275D01*
X0340583Y0199172D01*
X0340571Y0199068D01*
X0340555Y0198966D01*
X0340535Y0198864D01*
X0340512Y0198762D01*
X0340484Y0198662D01*
X0340453Y0198563D01*
X0340418Y0198465D01*
X0340380Y0198369D01*
X0340337Y0198274D01*
X0340292Y0198180D01*
X0340242Y0198089D01*
X0340189Y0198000D01*
X0340133Y0197912D01*
X0340074Y0197827D01*
X0340011Y0197744D01*
X0339945Y0197664D01*
X0339877Y0197586D01*
X0339805Y0197511D01*
X0339730Y0197438D01*
X0339653Y0197369D01*
X0339573Y0197302D01*
X0339491Y0197239D01*
X0339406Y0197178D01*
X0339319Y0197121D01*
X0339231Y0197068D01*
X0339140Y0197017D01*
X0339047Y0196971D01*
X0338952Y0196927D01*
X0338856Y0196888D01*
X0338759Y0196852D01*
X0338660Y0196820D01*
X0338560Y0196792D01*
X0338459Y0196767D01*
X0338357Y0196747D01*
X0338254Y0196730D01*
X0338151Y0196717D01*
X0338048Y0196708D01*
X0337944Y0196703D01*
X0337840Y0196702D01*
X0337736Y0196705D01*
X0337632Y0196712D01*
X0337529Y0196723D01*
X0337426Y0196738D01*
X0337324Y0196756D01*
X0337223Y0196779D01*
X0337122Y0196805D01*
X0337023Y0196836D01*
X0336924Y0196870D01*
X0336828Y0196907D01*
X0336732Y0196949D01*
X0336639Y0196994D01*
X0336547Y0197042D01*
X0336457Y0197094D01*
X0336369Y0197149D01*
X0336283Y0197208D01*
X0336200Y0197270D01*
X0336118Y0197335D01*
X0336040Y0197403D01*
X0335964Y0197474D01*
X0335891Y0197548D01*
X0335821Y0197624D01*
X0335753Y0197704D01*
X0335689Y0197785D01*
X0335628Y0197869D01*
X0335570Y0197956D01*
X0335516Y0198044D01*
X0335465Y0198135D01*
X0335417Y0198227D01*
X0335373Y0198321D01*
X0335332Y0198417D01*
X0335296Y0198514D01*
X0335263Y0198612D01*
X0335233Y0198712D01*
X0335208Y0198813D01*
X0335186Y0198915D01*
X0335169Y0199017D01*
X0335155Y0199120D01*
X0335145Y0199223D01*
X0335139Y0199327D01*
X0335137Y0199431D01*
X0284717Y0200219D02*
X0284717Y0208093D01*
X0280780Y0208093D01*
X0406764Y0221872D02*
X0406764Y0229746D01*
X0406764Y0247463D02*
X0406764Y0255337D01*
D549*
X0052630Y0063014D02*
X0052630Y0044117D01*
X0061685Y0044117D01*
X0069165Y0044117D02*
X0078220Y0044117D01*
X0078220Y0063014D01*
X0071528Y0069707D01*
X0069165Y0069707D01*
X0061685Y0069707D02*
X0059323Y0069707D01*
X0052630Y0063014D01*
X0069165Y0068527D02*
X0069448Y0068432D01*
X0069729Y0068330D01*
X0070006Y0068221D01*
X0070282Y0068106D01*
X0070554Y0067984D01*
X0070823Y0067855D01*
X0071089Y0067720D01*
X0071351Y0067578D01*
X0071610Y0067430D01*
X0071866Y0067276D01*
X0072117Y0067115D01*
X0072365Y0066948D01*
X0072608Y0066776D01*
X0072847Y0066597D01*
X0073082Y0066413D01*
X0073312Y0066223D01*
X0073537Y0066027D01*
X0073757Y0065826D01*
X0073973Y0065620D01*
X0074183Y0065408D01*
X0074388Y0065192D01*
X0074588Y0064970D01*
X0074782Y0064743D01*
X0074971Y0064512D01*
X0075154Y0064277D01*
X0075331Y0064037D01*
X0075502Y0063792D01*
X0075667Y0063544D01*
X0075826Y0063291D01*
X0075979Y0063035D01*
X0076126Y0062775D01*
X0076266Y0062512D01*
X0076400Y0062245D01*
X0076527Y0061975D01*
X0076647Y0061702D01*
X0076761Y0061427D01*
X0076868Y0061148D01*
X0076968Y0060867D01*
X0077061Y0060584D01*
X0077148Y0060298D01*
X0077227Y0060010D01*
X0077299Y0059721D01*
X0077364Y0059430D01*
X0077422Y0059137D01*
X0077473Y0058843D01*
X0077517Y0058548D01*
X0077553Y0058252D01*
X0077582Y0057955D01*
X0077604Y0057657D01*
X0077619Y0057359D01*
X0077626Y0057061D01*
X0077626Y0056763D01*
X0077619Y0056465D01*
X0077604Y0056167D01*
X0077582Y0055869D01*
X0077553Y0055572D01*
X0077517Y0055276D01*
X0077473Y0054981D01*
X0077422Y0054687D01*
X0077364Y0054394D01*
X0077299Y0054103D01*
X0077227Y0053814D01*
X0077148Y0053526D01*
X0077061Y0053240D01*
X0076968Y0052957D01*
X0076868Y0052676D01*
X0076761Y0052397D01*
X0076647Y0052122D01*
X0076527Y0051849D01*
X0076400Y0051579D01*
X0076266Y0051312D01*
X0076126Y0051049D01*
X0075979Y0050789D01*
X0075826Y0050533D01*
X0075667Y0050280D01*
X0075502Y0050032D01*
X0075331Y0049787D01*
X0075154Y0049547D01*
X0074971Y0049312D01*
X0074782Y0049081D01*
X0074588Y0048854D01*
X0074388Y0048632D01*
X0074183Y0048416D01*
X0073973Y0048204D01*
X0073757Y0047998D01*
X0073537Y0047797D01*
X0073312Y0047601D01*
X0073082Y0047411D01*
X0072847Y0047227D01*
X0072608Y0047048D01*
X0072365Y0046876D01*
X0072117Y0046709D01*
X0071866Y0046548D01*
X0071610Y0046394D01*
X0071351Y0046246D01*
X0071089Y0046104D01*
X0070823Y0045969D01*
X0070554Y0045840D01*
X0070282Y0045718D01*
X0070006Y0045603D01*
X0069729Y0045494D01*
X0069448Y0045392D01*
X0069165Y0045297D01*
X0079402Y0044117D02*
X0079402Y0063014D01*
X0086094Y0069707D01*
X0088457Y0069707D01*
X0095937Y0069707D02*
X0098299Y0069707D01*
X0104992Y0063014D01*
X0104992Y0044117D01*
X0095937Y0044117D01*
X0088457Y0044117D02*
X0079402Y0044117D01*
X0095937Y0045297D02*
X0096220Y0045392D01*
X0096501Y0045494D01*
X0096778Y0045603D01*
X0097054Y0045718D01*
X0097326Y0045840D01*
X0097595Y0045969D01*
X0097861Y0046104D01*
X0098123Y0046246D01*
X0098382Y0046394D01*
X0098638Y0046548D01*
X0098889Y0046709D01*
X0099137Y0046876D01*
X0099380Y0047048D01*
X0099619Y0047227D01*
X0099854Y0047411D01*
X0100084Y0047601D01*
X0100309Y0047797D01*
X0100529Y0047998D01*
X0100745Y0048204D01*
X0100955Y0048416D01*
X0101160Y0048632D01*
X0101360Y0048854D01*
X0101554Y0049081D01*
X0101743Y0049312D01*
X0101926Y0049547D01*
X0102103Y0049787D01*
X0102274Y0050032D01*
X0102439Y0050280D01*
X0102598Y0050533D01*
X0102751Y0050789D01*
X0102898Y0051049D01*
X0103038Y0051312D01*
X0103172Y0051579D01*
X0103299Y0051849D01*
X0103419Y0052122D01*
X0103533Y0052397D01*
X0103640Y0052676D01*
X0103740Y0052957D01*
X0103833Y0053240D01*
X0103920Y0053526D01*
X0103999Y0053814D01*
X0104071Y0054103D01*
X0104136Y0054394D01*
X0104194Y0054687D01*
X0104245Y0054981D01*
X0104289Y0055276D01*
X0104325Y0055572D01*
X0104354Y0055869D01*
X0104376Y0056167D01*
X0104391Y0056465D01*
X0104398Y0056763D01*
X0104398Y0057061D01*
X0104391Y0057359D01*
X0104376Y0057657D01*
X0104354Y0057955D01*
X0104325Y0058252D01*
X0104289Y0058548D01*
X0104245Y0058843D01*
X0104194Y0059137D01*
X0104136Y0059430D01*
X0104071Y0059721D01*
X0103999Y0060010D01*
X0103920Y0060298D01*
X0103833Y0060584D01*
X0103740Y0060867D01*
X0103640Y0061148D01*
X0103533Y0061427D01*
X0103419Y0061702D01*
X0103299Y0061975D01*
X0103172Y0062245D01*
X0103038Y0062512D01*
X0102898Y0062775D01*
X0102751Y0063035D01*
X0102598Y0063291D01*
X0102439Y0063544D01*
X0102274Y0063792D01*
X0102103Y0064037D01*
X0101926Y0064277D01*
X0101743Y0064512D01*
X0101554Y0064743D01*
X0101360Y0064970D01*
X0101160Y0065192D01*
X0100955Y0065408D01*
X0100745Y0065620D01*
X0100529Y0065826D01*
X0100309Y0066027D01*
X0100084Y0066223D01*
X0099854Y0066413D01*
X0099619Y0066597D01*
X0099380Y0066776D01*
X0099137Y0066948D01*
X0098889Y0067115D01*
X0098638Y0067276D01*
X0098382Y0067430D01*
X0098123Y0067578D01*
X0097861Y0067720D01*
X0097595Y0067855D01*
X0097326Y0067984D01*
X0097054Y0068106D01*
X0096778Y0068221D01*
X0096501Y0068330D01*
X0096220Y0068432D01*
X0095937Y0068527D01*
X0088457Y0068527D02*
X0088174Y0068432D01*
X0087893Y0068330D01*
X0087616Y0068221D01*
X0087340Y0068106D01*
X0087068Y0067984D01*
X0086799Y0067855D01*
X0086533Y0067720D01*
X0086271Y0067578D01*
X0086012Y0067430D01*
X0085756Y0067276D01*
X0085505Y0067115D01*
X0085257Y0066948D01*
X0085014Y0066776D01*
X0084775Y0066597D01*
X0084540Y0066413D01*
X0084310Y0066223D01*
X0084085Y0066027D01*
X0083865Y0065826D01*
X0083649Y0065620D01*
X0083439Y0065408D01*
X0083234Y0065192D01*
X0083034Y0064970D01*
X0082840Y0064743D01*
X0082651Y0064512D01*
X0082468Y0064277D01*
X0082291Y0064037D01*
X0082120Y0063792D01*
X0081955Y0063544D01*
X0081796Y0063291D01*
X0081643Y0063035D01*
X0081496Y0062775D01*
X0081356Y0062512D01*
X0081222Y0062245D01*
X0081095Y0061975D01*
X0080975Y0061702D01*
X0080861Y0061427D01*
X0080754Y0061148D01*
X0080654Y0060867D01*
X0080561Y0060584D01*
X0080474Y0060298D01*
X0080395Y0060010D01*
X0080323Y0059721D01*
X0080258Y0059430D01*
X0080200Y0059137D01*
X0080149Y0058843D01*
X0080105Y0058548D01*
X0080069Y0058252D01*
X0080040Y0057955D01*
X0080018Y0057657D01*
X0080003Y0057359D01*
X0079996Y0057061D01*
X0079996Y0056763D01*
X0080003Y0056465D01*
X0080018Y0056167D01*
X0080040Y0055869D01*
X0080069Y0055572D01*
X0080105Y0055276D01*
X0080149Y0054981D01*
X0080200Y0054687D01*
X0080258Y0054394D01*
X0080323Y0054103D01*
X0080395Y0053814D01*
X0080474Y0053526D01*
X0080561Y0053240D01*
X0080654Y0052957D01*
X0080754Y0052676D01*
X0080861Y0052397D01*
X0080975Y0052122D01*
X0081095Y0051849D01*
X0081222Y0051579D01*
X0081356Y0051312D01*
X0081496Y0051049D01*
X0081643Y0050789D01*
X0081796Y0050533D01*
X0081955Y0050280D01*
X0082120Y0050032D01*
X0082291Y0049787D01*
X0082468Y0049547D01*
X0082651Y0049312D01*
X0082840Y0049081D01*
X0083034Y0048854D01*
X0083234Y0048632D01*
X0083439Y0048416D01*
X0083649Y0048204D01*
X0083865Y0047998D01*
X0084085Y0047797D01*
X0084310Y0047601D01*
X0084540Y0047411D01*
X0084775Y0047227D01*
X0085014Y0047048D01*
X0085257Y0046876D01*
X0085505Y0046709D01*
X0085756Y0046548D01*
X0086012Y0046394D01*
X0086271Y0046246D01*
X0086533Y0046104D01*
X0086799Y0045969D01*
X0087068Y0045840D01*
X0087340Y0045718D01*
X0087616Y0045603D01*
X0087893Y0045494D01*
X0088174Y0045392D01*
X0088457Y0045297D01*
X0061685Y0045297D02*
X0061402Y0045392D01*
X0061121Y0045494D01*
X0060844Y0045603D01*
X0060568Y0045718D01*
X0060296Y0045840D01*
X0060027Y0045969D01*
X0059761Y0046104D01*
X0059499Y0046246D01*
X0059240Y0046394D01*
X0058984Y0046548D01*
X0058733Y0046709D01*
X0058485Y0046876D01*
X0058242Y0047048D01*
X0058003Y0047227D01*
X0057768Y0047411D01*
X0057538Y0047601D01*
X0057313Y0047797D01*
X0057093Y0047998D01*
X0056877Y0048204D01*
X0056667Y0048416D01*
X0056462Y0048632D01*
X0056262Y0048854D01*
X0056068Y0049081D01*
X0055879Y0049312D01*
X0055696Y0049547D01*
X0055519Y0049787D01*
X0055348Y0050032D01*
X0055183Y0050280D01*
X0055024Y0050533D01*
X0054871Y0050789D01*
X0054724Y0051049D01*
X0054584Y0051312D01*
X0054450Y0051579D01*
X0054323Y0051849D01*
X0054203Y0052122D01*
X0054089Y0052397D01*
X0053982Y0052676D01*
X0053882Y0052957D01*
X0053789Y0053240D01*
X0053702Y0053526D01*
X0053623Y0053814D01*
X0053551Y0054103D01*
X0053486Y0054394D01*
X0053428Y0054687D01*
X0053377Y0054981D01*
X0053333Y0055276D01*
X0053297Y0055572D01*
X0053268Y0055869D01*
X0053246Y0056167D01*
X0053231Y0056465D01*
X0053224Y0056763D01*
X0053224Y0057061D01*
X0053231Y0057359D01*
X0053246Y0057657D01*
X0053268Y0057955D01*
X0053297Y0058252D01*
X0053333Y0058548D01*
X0053377Y0058843D01*
X0053428Y0059137D01*
X0053486Y0059430D01*
X0053551Y0059721D01*
X0053623Y0060010D01*
X0053702Y0060298D01*
X0053789Y0060584D01*
X0053882Y0060867D01*
X0053982Y0061148D01*
X0054089Y0061427D01*
X0054203Y0061702D01*
X0054323Y0061975D01*
X0054450Y0062245D01*
X0054584Y0062512D01*
X0054724Y0062775D01*
X0054871Y0063035D01*
X0055024Y0063291D01*
X0055183Y0063544D01*
X0055348Y0063792D01*
X0055519Y0064037D01*
X0055696Y0064277D01*
X0055879Y0064512D01*
X0056068Y0064743D01*
X0056262Y0064970D01*
X0056462Y0065192D01*
X0056667Y0065408D01*
X0056877Y0065620D01*
X0057093Y0065826D01*
X0057313Y0066027D01*
X0057538Y0066223D01*
X0057768Y0066413D01*
X0058003Y0066597D01*
X0058242Y0066776D01*
X0058485Y0066948D01*
X0058733Y0067115D01*
X0058984Y0067276D01*
X0059240Y0067430D01*
X0059499Y0067578D01*
X0059761Y0067720D01*
X0060027Y0067855D01*
X0060296Y0067984D01*
X0060568Y0068106D01*
X0060844Y0068221D01*
X0061121Y0068330D01*
X0061402Y0068432D01*
X0061685Y0068527D01*
D550*
X0367394Y0217148D02*
X0406764Y0217148D01*
X0406764Y0234471D01*
X0406764Y0236833D01*
X0399677Y0236833D01*
X0399677Y0234471D01*
X0374480Y0234471D01*
X0374480Y0236833D01*
X0367394Y0236833D01*
X0367394Y0234471D01*
X0374480Y0234471D01*
X0367394Y0234471D02*
X0367394Y0217148D01*
X0367394Y0219904D02*
X0367394Y0231715D01*
X0367394Y0242739D02*
X0406764Y0242739D01*
X0406764Y0260061D01*
X0406764Y0262424D01*
X0399677Y0262424D01*
X0399677Y0260061D01*
X0374480Y0260061D01*
X0374480Y0262424D01*
X0367394Y0262424D01*
X0367394Y0260061D01*
X0374480Y0260061D01*
X0367394Y0260061D02*
X0367394Y0242739D01*
X0367394Y0245494D02*
X0367394Y0257306D01*
X0399677Y0260061D02*
X0406764Y0260061D01*
X0406764Y0234471D02*
X0399677Y0234471D01*
M02*
