G75*
%MOIN*%
%OFA0B0*%
%FSLAX25Y25*%
%IPPOS*%
%LPD*%
%AMOC8*
5,1,8,0,0,1.08239X$1,22.5*
%
%ADD10C,0.05937*%
%ADD11C,0.06000*%
%ADD12C,0.05000*%
%ADD13C,0.07500*%
%ADD14C,0.10500*%
%ADD15C,0.04362*%
%ADD16C,0.03969*%
%ADD17C,0.02781*%
%ADD18C,0.01575*%
%ADD19C,0.16598*%
%ADD20C,0.05610*%
D10*
X0047520Y0077748D03*
X0059331Y0097433D03*
X0034528Y0097433D03*
D11*
X0036154Y0120035D03*
X0026154Y0120035D03*
X0060638Y0141696D03*
X0060638Y0151696D03*
X0088850Y0254274D03*
X0098850Y0254274D03*
X0098850Y0264274D03*
X0088850Y0264274D03*
X0108850Y0264274D03*
X0118850Y0264274D03*
X0118850Y0254274D03*
X0108850Y0254274D03*
X0128850Y0254274D03*
X0138850Y0254274D03*
X0138850Y0264274D03*
X0128850Y0264274D03*
X0148850Y0264274D03*
X0158850Y0264274D03*
X0168850Y0264274D03*
X0168850Y0254274D03*
X0158850Y0254274D03*
X0148850Y0254274D03*
X0178850Y0254274D03*
X0188850Y0254274D03*
X0188850Y0264274D03*
X0178850Y0264274D03*
X0198850Y0264274D03*
X0208850Y0264274D03*
X0218850Y0264274D03*
X0218850Y0254274D03*
X0208850Y0254274D03*
X0198850Y0254274D03*
X0228850Y0254274D03*
X0238850Y0254274D03*
X0238850Y0264274D03*
X0228850Y0264274D03*
X0248850Y0264274D03*
X0258850Y0264274D03*
X0258850Y0254274D03*
X0248850Y0254274D03*
X0268850Y0254274D03*
X0278850Y0254274D03*
X0288850Y0254274D03*
X0288850Y0264274D03*
X0278850Y0264274D03*
X0268850Y0264274D03*
X0298850Y0264274D03*
X0308850Y0264274D03*
X0308850Y0254274D03*
X0298850Y0254274D03*
X0318850Y0254274D03*
X0328850Y0254274D03*
X0338850Y0254274D03*
X0338850Y0264274D03*
X0328850Y0264274D03*
X0318850Y0264274D03*
X0392984Y0184865D03*
X0402984Y0184865D03*
X0402984Y0174865D03*
X0392984Y0174865D03*
X0392984Y0164865D03*
X0402984Y0164865D03*
X0402984Y0154865D03*
X0392984Y0154865D03*
X0392984Y0144865D03*
X0402984Y0144865D03*
X0402984Y0134865D03*
X0392984Y0134865D03*
X0392984Y0124865D03*
X0402984Y0124865D03*
X0402984Y0114865D03*
X0392984Y0114865D03*
X0392984Y0104865D03*
X0402984Y0104865D03*
X0402984Y0094865D03*
X0392984Y0094865D03*
D12*
X0391016Y0225809D03*
X0398890Y0225809D03*
X0383142Y0225809D03*
X0375268Y0225809D03*
X0375268Y0251400D03*
X0383142Y0251400D03*
X0391016Y0251400D03*
X0398890Y0251400D03*
D13*
X0361094Y0063998D03*
D14*
X0351056Y0053959D03*
X0371133Y0053959D03*
X0371133Y0074037D03*
X0351056Y0074037D03*
D15*
X0036291Y0190672D03*
X0036291Y0209766D03*
X0036291Y0233979D03*
X0036291Y0253073D03*
D16*
X0025858Y0257798D03*
X0025858Y0229254D03*
X0025858Y0214491D03*
X0025858Y0185947D03*
D17*
X0028811Y0041164D03*
X0022512Y0044313D03*
X0019362Y0050613D03*
X0022512Y0056912D03*
X0028811Y0060061D03*
X0035110Y0056912D03*
X0038260Y0050613D03*
X0035110Y0044313D03*
X0044559Y0042739D03*
X0052433Y0042739D03*
X0061094Y0043132D03*
X0069756Y0043132D03*
X0069756Y0052187D03*
X0061094Y0052187D03*
X0079992Y0042739D03*
X0087866Y0043132D03*
X0096134Y0043132D03*
X0103614Y0042739D03*
X0096134Y0051794D03*
X0087866Y0051794D03*
X0083929Y0074235D03*
X0076055Y0074235D03*
X0076055Y0082109D03*
X0083929Y0082109D03*
X0076055Y0089983D03*
X0099677Y0109668D03*
X0091803Y0113605D03*
X0089441Y0119117D03*
X0092984Y0130534D03*
X0092984Y0133683D03*
X0092984Y0136833D03*
X0092984Y0139983D03*
X0092984Y0143132D03*
X0092984Y0146282D03*
X0085504Y0152975D03*
X0085504Y0156912D03*
X0073693Y0143526D03*
X0069756Y0139589D03*
X0068181Y0133290D03*
X0072906Y0133290D03*
X0068181Y0125416D03*
X0060307Y0118329D03*
X0062669Y0115967D03*
X0065031Y0113605D03*
X0073693Y0115180D03*
X0057945Y0120691D03*
X0055583Y0123054D03*
X0053220Y0125416D03*
X0044559Y0124628D03*
X0053220Y0115967D03*
X0020937Y0113605D03*
X0020937Y0105731D03*
X0020937Y0097857D03*
X0020937Y0089983D03*
X0020937Y0082109D03*
X0020937Y0074235D03*
X0020937Y0066361D03*
X0103614Y0101794D03*
X0111488Y0097857D03*
X0118575Y0093920D03*
X0123299Y0089983D03*
X0131173Y0089983D03*
X0135898Y0093920D03*
X0135898Y0086046D03*
X0136685Y0070298D03*
X0131173Y0070298D03*
X0127236Y0070298D03*
X0123299Y0070298D03*
X0119362Y0070298D03*
X0122118Y0056518D03*
X0117787Y0054156D03*
X0126843Y0054156D03*
X0131567Y0056518D03*
X0135898Y0054550D03*
X0154795Y0058487D03*
X0165031Y0058487D03*
X0174480Y0058487D03*
X0194165Y0058487D03*
X0194165Y0042739D03*
X0186291Y0042739D03*
X0178417Y0042739D03*
X0170543Y0042739D03*
X0162669Y0042739D03*
X0154795Y0042739D03*
X0202039Y0042739D03*
X0209913Y0042739D03*
X0217787Y0042739D03*
X0225661Y0042739D03*
X0233535Y0042739D03*
X0241409Y0042739D03*
X0249283Y0042739D03*
X0257157Y0042739D03*
X0265031Y0042739D03*
X0272906Y0042739D03*
X0292197Y0054550D03*
X0296528Y0042739D03*
X0304402Y0042739D03*
X0312276Y0042739D03*
X0320150Y0042739D03*
X0328024Y0042739D03*
X0335898Y0042739D03*
X0343772Y0042739D03*
X0351646Y0042739D03*
X0359520Y0042739D03*
X0367394Y0042739D03*
X0375268Y0042739D03*
X0383142Y0042739D03*
X0392591Y0044313D03*
X0398890Y0041164D03*
X0405189Y0044313D03*
X0408339Y0050613D03*
X0405189Y0056912D03*
X0398890Y0060061D03*
X0392591Y0056912D03*
X0389441Y0050613D03*
X0406764Y0066361D03*
X0406764Y0074235D03*
X0406764Y0082109D03*
X0406764Y0089983D03*
X0406764Y0097857D03*
X0406764Y0105731D03*
X0383811Y0112109D03*
X0383772Y0124156D03*
X0383811Y0134943D03*
X0381449Y0141991D03*
X0378142Y0146046D03*
X0387748Y0149156D03*
X0383890Y0160967D03*
X0362472Y0149865D03*
X0348496Y0149825D03*
X0348299Y0155613D03*
X0347669Y0164156D03*
X0354165Y0176794D03*
X0340780Y0186164D03*
X0334598Y0178841D03*
X0328181Y0163998D03*
X0326646Y0153880D03*
X0326488Y0142817D03*
X0326567Y0131164D03*
X0325661Y0118526D03*
X0325661Y0114628D03*
X0325543Y0110888D03*
X0326646Y0106597D03*
X0334874Y0101203D03*
X0326724Y0087581D03*
X0325386Y0080376D03*
X0318732Y0080337D03*
X0331961Y0078172D03*
X0312591Y0058920D03*
X0330976Y0058447D03*
X0292197Y0070298D03*
X0292197Y0078172D03*
X0292197Y0086046D03*
X0278417Y0093920D03*
X0272906Y0097857D03*
X0263457Y0097857D03*
X0253220Y0097857D03*
X0233535Y0097857D03*
X0213850Y0097857D03*
X0213850Y0107306D03*
X0213850Y0117542D03*
X0194165Y0117542D03*
X0174480Y0117542D03*
X0154795Y0117542D03*
X0154795Y0097857D03*
X0165031Y0097857D03*
X0174480Y0097857D03*
X0194165Y0097857D03*
X0194165Y0078172D03*
X0213850Y0058487D03*
X0233535Y0058487D03*
X0253220Y0058487D03*
X0264244Y0058487D03*
X0272906Y0058487D03*
X0233535Y0078172D03*
X0233535Y0117542D03*
X0253220Y0117542D03*
X0272906Y0117542D03*
X0272906Y0137227D03*
X0253220Y0137227D03*
X0233535Y0137227D03*
X0213850Y0137227D03*
X0194165Y0137227D03*
X0174480Y0137227D03*
X0154795Y0137227D03*
X0136685Y0133290D03*
X0134323Y0140376D03*
X0128811Y0140376D03*
X0134323Y0149825D03*
X0136685Y0156912D03*
X0131173Y0156912D03*
X0127236Y0160849D03*
X0123299Y0164786D03*
X0119362Y0168723D03*
X0127236Y0168723D03*
X0131173Y0164786D03*
X0136685Y0180534D03*
X0126449Y0189983D03*
X0119362Y0189983D03*
X0119362Y0193704D03*
X0119362Y0197285D03*
X0119362Y0201006D03*
X0122512Y0204156D03*
X0104441Y0179668D03*
X0072118Y0180534D03*
X0072236Y0185928D03*
X0072315Y0191164D03*
X0064126Y0191361D03*
X0064244Y0186282D03*
X0064244Y0180534D03*
X0068181Y0175809D03*
X0068181Y0168723D03*
X0104402Y0146676D03*
X0104402Y0143526D03*
X0104402Y0140376D03*
X0104402Y0137227D03*
X0104402Y0134077D03*
X0104402Y0130928D03*
X0112276Y0148250D03*
X0117787Y0148250D03*
X0154795Y0156912D03*
X0174480Y0156912D03*
X0194165Y0156912D03*
X0213850Y0156912D03*
X0229598Y0168723D03*
X0237472Y0176597D03*
X0253220Y0176597D03*
X0272906Y0176597D03*
X0253220Y0158093D03*
X0246921Y0158093D03*
X0243200Y0158093D03*
X0239619Y0158093D03*
X0235898Y0158093D03*
X0213850Y0176597D03*
X0209913Y0188408D03*
X0217787Y0196282D03*
X0233535Y0196282D03*
X0253220Y0196282D03*
X0272906Y0200219D03*
X0257945Y0216754D03*
X0253220Y0214392D03*
X0248496Y0216754D03*
X0204402Y0217542D03*
X0200465Y0217542D03*
X0198102Y0214392D03*
X0194165Y0200219D03*
X0194165Y0188408D03*
X0194165Y0176597D03*
X0174480Y0176597D03*
X0174480Y0188408D03*
X0174480Y0200219D03*
X0154795Y0200219D03*
X0154795Y0176597D03*
X0079992Y0227778D03*
X0076055Y0235652D03*
X0083929Y0235652D03*
X0091803Y0239589D03*
X0096528Y0238014D03*
X0063693Y0222778D03*
X0058732Y0215967D03*
X0055583Y0215967D03*
X0055583Y0212424D03*
X0058732Y0212424D03*
X0058732Y0208880D03*
X0055583Y0208880D03*
X0063890Y0207935D03*
X0072118Y0208093D03*
X0053181Y0235849D03*
X0061882Y0245101D03*
X0060307Y0267148D03*
X0044559Y0267148D03*
X0035110Y0272660D03*
X0028811Y0269510D03*
X0022512Y0272660D03*
X0019362Y0278959D03*
X0022512Y0285258D03*
X0028811Y0288408D03*
X0035110Y0285258D03*
X0038260Y0278959D03*
X0044559Y0286833D03*
X0052433Y0286833D03*
X0060307Y0286833D03*
X0068181Y0286833D03*
X0076055Y0286833D03*
X0083929Y0286833D03*
X0091803Y0286833D03*
X0099677Y0286833D03*
X0107551Y0286833D03*
X0115425Y0286833D03*
X0123299Y0286833D03*
X0131173Y0286833D03*
X0139047Y0286833D03*
X0146921Y0286833D03*
X0154795Y0286833D03*
X0162669Y0286833D03*
X0170543Y0286833D03*
X0178417Y0286833D03*
X0186291Y0286833D03*
X0194165Y0286833D03*
X0202039Y0286833D03*
X0209913Y0286833D03*
X0217787Y0286833D03*
X0225661Y0286833D03*
X0233535Y0286833D03*
X0241409Y0286833D03*
X0249283Y0286833D03*
X0257157Y0286833D03*
X0265031Y0286833D03*
X0272906Y0286833D03*
X0280780Y0286833D03*
X0288654Y0286833D03*
X0296528Y0286833D03*
X0304402Y0286833D03*
X0312276Y0286833D03*
X0320150Y0286833D03*
X0328024Y0286833D03*
X0335898Y0286833D03*
X0343772Y0286833D03*
X0351646Y0286833D03*
X0359520Y0286833D03*
X0367394Y0286833D03*
X0375268Y0286833D03*
X0383142Y0286833D03*
X0392591Y0285258D03*
X0398890Y0288408D03*
X0405189Y0285258D03*
X0408339Y0278959D03*
X0405189Y0272660D03*
X0398890Y0269510D03*
X0392591Y0272660D03*
X0389441Y0278959D03*
X0375268Y0275022D03*
X0351646Y0259274D03*
X0351646Y0251400D03*
X0357787Y0251400D03*
X0362591Y0236321D03*
X0359244Y0233841D03*
X0354087Y0230337D03*
X0354362Y0226400D03*
X0350386Y0221046D03*
X0339756Y0212424D03*
X0354008Y0191282D03*
X0375110Y0199235D03*
X0390622Y0194865D03*
X0405937Y0194235D03*
X0406764Y0215967D03*
X0406764Y0223841D03*
X0406764Y0231715D03*
X0406764Y0239589D03*
X0406764Y0247463D03*
X0406764Y0255337D03*
X0406764Y0263211D03*
X0367394Y0235652D03*
X0374717Y0217817D03*
X0390346Y0216203D03*
X0377236Y0178369D03*
X0348496Y0140376D03*
X0366370Y0133802D03*
X0366291Y0123880D03*
X0366528Y0112306D03*
X0354008Y0112227D03*
X0352157Y0101243D03*
X0366134Y0088959D03*
X0387709Y0075298D03*
X0314520Y0118723D03*
X0312787Y0115219D03*
X0309244Y0112109D03*
X0277630Y0156912D03*
X0272906Y0156912D03*
X0161882Y0241164D03*
X0164244Y0247463D03*
X0148496Y0247463D03*
X0148496Y0238802D03*
X0139441Y0239589D03*
X0192591Y0272660D03*
X0204402Y0271479D03*
X0076055Y0267148D03*
X0020937Y0149038D03*
X0020937Y0141164D03*
D18*
X0018584Y0141067D02*
X0056093Y0141067D01*
X0056050Y0141335D02*
X0056163Y0140622D01*
X0056386Y0139935D01*
X0056714Y0139292D01*
X0057139Y0138708D01*
X0057649Y0138197D01*
X0058233Y0137773D01*
X0058877Y0137445D01*
X0059564Y0137222D01*
X0060277Y0137109D01*
X0060425Y0137109D01*
X0060425Y0141483D01*
X0060850Y0141483D01*
X0060850Y0137109D01*
X0060999Y0137109D01*
X0061712Y0137222D01*
X0062399Y0137445D01*
X0063042Y0137773D01*
X0063626Y0138197D01*
X0064137Y0138708D01*
X0064561Y0139292D01*
X0064889Y0139935D01*
X0065112Y0140622D01*
X0065225Y0141335D01*
X0065225Y0141483D01*
X0060850Y0141483D01*
X0060850Y0141909D01*
X0065225Y0141909D01*
X0065225Y0142057D01*
X0065112Y0142770D01*
X0064889Y0143457D01*
X0064561Y0144100D01*
X0064137Y0144685D01*
X0063626Y0145195D01*
X0063042Y0145620D01*
X0062399Y0145947D01*
X0062109Y0146041D01*
X0063916Y0146790D01*
X0065544Y0148418D01*
X0066425Y0150545D01*
X0066425Y0152847D01*
X0065544Y0154974D01*
X0063916Y0156602D01*
X0061789Y0157483D01*
X0059487Y0157483D01*
X0057359Y0156602D01*
X0055731Y0154974D01*
X0054850Y0152847D01*
X0054850Y0150545D01*
X0055731Y0148418D01*
X0057359Y0146790D01*
X0059166Y0146041D01*
X0058877Y0145947D01*
X0058233Y0145620D01*
X0057649Y0145195D01*
X0057139Y0144685D01*
X0056714Y0144100D01*
X0056386Y0143457D01*
X0056163Y0142770D01*
X0056050Y0142057D01*
X0056050Y0141909D01*
X0060425Y0141909D01*
X0060425Y0141483D01*
X0056050Y0141483D01*
X0056050Y0141335D01*
X0056143Y0142640D02*
X0018584Y0142640D01*
X0018584Y0144214D02*
X0056797Y0144214D01*
X0058562Y0145787D02*
X0018584Y0145787D01*
X0018584Y0147360D02*
X0056789Y0147360D01*
X0055518Y0148934D02*
X0018584Y0148934D01*
X0018584Y0150507D02*
X0054866Y0150507D01*
X0054850Y0152080D02*
X0018584Y0152080D01*
X0018584Y0153654D02*
X0055184Y0153654D01*
X0055984Y0155227D02*
X0018584Y0155227D01*
X0018584Y0156800D02*
X0057837Y0156800D01*
X0063439Y0156800D02*
X0236931Y0156800D01*
X0237094Y0156406D02*
X0237932Y0155568D01*
X0239027Y0155115D01*
X0240211Y0155115D01*
X0241306Y0155568D01*
X0241409Y0155672D01*
X0241513Y0155568D01*
X0242608Y0155115D01*
X0243792Y0155115D01*
X0244887Y0155568D01*
X0245725Y0156406D01*
X0246178Y0157501D01*
X0246178Y0158685D01*
X0245725Y0159780D01*
X0244887Y0160617D01*
X0243792Y0161071D01*
X0242608Y0161071D01*
X0241513Y0160617D01*
X0241409Y0160514D01*
X0241306Y0160617D01*
X0240211Y0161071D01*
X0239027Y0161071D01*
X0237932Y0160617D01*
X0237094Y0159780D01*
X0236641Y0158685D01*
X0236641Y0157501D01*
X0237094Y0156406D01*
X0236641Y0158373D02*
X0018584Y0158373D01*
X0018584Y0159947D02*
X0237261Y0159947D01*
X0238756Y0155227D02*
X0065292Y0155227D01*
X0066091Y0153654D02*
X0388737Y0153654D01*
X0388597Y0153992D02*
X0389265Y0152379D01*
X0390499Y0151145D01*
X0392112Y0150477D01*
X0393857Y0150477D01*
X0395470Y0151145D01*
X0396704Y0152379D01*
X0397372Y0153992D01*
X0397372Y0155737D01*
X0396704Y0157350D01*
X0395470Y0158584D01*
X0393857Y0159252D01*
X0392112Y0159252D01*
X0390499Y0158584D01*
X0389265Y0157350D01*
X0388597Y0155737D01*
X0388597Y0153992D01*
X0388597Y0155227D02*
X0244062Y0155227D01*
X0242338Y0155227D02*
X0240481Y0155227D01*
X0245888Y0156800D02*
X0250749Y0156800D01*
X0250865Y0156519D02*
X0251647Y0155738D01*
X0252668Y0155315D01*
X0253773Y0155315D01*
X0254794Y0155738D01*
X0255575Y0156519D01*
X0255998Y0157540D01*
X0255998Y0158645D01*
X0255575Y0159666D01*
X0254794Y0160448D01*
X0253773Y0160871D01*
X0252668Y0160871D01*
X0251647Y0160448D01*
X0250865Y0159666D01*
X0250443Y0158645D01*
X0250443Y0157540D01*
X0250865Y0156519D01*
X0250443Y0158373D02*
X0246178Y0158373D01*
X0245558Y0159947D02*
X0251146Y0159947D01*
X0255295Y0159947D02*
X0409117Y0159947D01*
X0409117Y0161520D02*
X0406127Y0161520D01*
X0405973Y0161365D02*
X0406483Y0161876D01*
X0406908Y0162460D01*
X0407236Y0163104D01*
X0407459Y0163790D01*
X0407572Y0164504D01*
X0407572Y0164652D01*
X0403197Y0164652D01*
X0403197Y0165077D01*
X0407572Y0165077D01*
X0407572Y0165226D01*
X0407459Y0165939D01*
X0407236Y0166626D01*
X0406908Y0167269D01*
X0406483Y0167853D01*
X0405973Y0168364D01*
X0405389Y0168788D01*
X0404745Y0169116D01*
X0404058Y0169339D01*
X0403345Y0169452D01*
X0403197Y0169452D01*
X0403197Y0165077D01*
X0402772Y0165077D01*
X0402772Y0169452D01*
X0402623Y0169452D01*
X0401910Y0169339D01*
X0401223Y0169116D01*
X0400580Y0168788D01*
X0399996Y0168364D01*
X0399485Y0167853D01*
X0399061Y0167269D01*
X0398733Y0166626D01*
X0398510Y0165939D01*
X0398397Y0165226D01*
X0398397Y0165077D01*
X0402772Y0165077D01*
X0402772Y0164652D01*
X0403197Y0164652D01*
X0403197Y0160277D01*
X0403345Y0160277D01*
X0404058Y0160390D01*
X0404745Y0160613D01*
X0405389Y0160941D01*
X0405973Y0161365D01*
X0407230Y0163093D02*
X0409117Y0163093D01*
X0409117Y0164667D02*
X0403197Y0164667D01*
X0402772Y0164667D02*
X0397372Y0164667D01*
X0397372Y0163992D02*
X0397372Y0165737D01*
X0396704Y0167350D01*
X0395470Y0168584D01*
X0393857Y0169252D01*
X0392112Y0169252D01*
X0390499Y0168584D01*
X0389265Y0167350D01*
X0388597Y0165737D01*
X0388597Y0163992D01*
X0389265Y0162379D01*
X0390499Y0161145D01*
X0392112Y0160477D01*
X0393857Y0160477D01*
X0395470Y0161145D01*
X0396704Y0162379D01*
X0397372Y0163992D01*
X0396999Y0163093D02*
X0398738Y0163093D01*
X0398733Y0163104D02*
X0399061Y0162460D01*
X0399485Y0161876D01*
X0399996Y0161365D01*
X0400580Y0160941D01*
X0401223Y0160613D01*
X0401910Y0160390D01*
X0402623Y0160277D01*
X0402772Y0160277D01*
X0402772Y0164652D01*
X0398397Y0164652D01*
X0398397Y0164504D01*
X0398510Y0163790D01*
X0398733Y0163104D01*
X0399841Y0161520D02*
X0395845Y0161520D01*
X0395680Y0158373D02*
X0400009Y0158373D01*
X0399996Y0158364D02*
X0399485Y0157853D01*
X0399061Y0157269D01*
X0398733Y0156626D01*
X0398510Y0155939D01*
X0398397Y0155226D01*
X0398397Y0155077D01*
X0402772Y0155077D01*
X0402772Y0159452D01*
X0402623Y0159452D01*
X0401910Y0159339D01*
X0401223Y0159116D01*
X0400580Y0158788D01*
X0399996Y0158364D01*
X0398822Y0156800D02*
X0396931Y0156800D01*
X0397372Y0155227D02*
X0398397Y0155227D01*
X0398397Y0154652D02*
X0398397Y0154504D01*
X0398510Y0153790D01*
X0398733Y0153104D01*
X0399061Y0152460D01*
X0399485Y0151876D01*
X0399996Y0151365D01*
X0400580Y0150941D01*
X0401223Y0150613D01*
X0401910Y0150390D01*
X0402623Y0150277D01*
X0402772Y0150277D01*
X0402772Y0154652D01*
X0403197Y0154652D01*
X0403197Y0155077D01*
X0407572Y0155077D01*
X0407572Y0155226D01*
X0407459Y0155939D01*
X0407236Y0156626D01*
X0406908Y0157269D01*
X0406483Y0157853D01*
X0405973Y0158364D01*
X0405389Y0158788D01*
X0404745Y0159116D01*
X0404058Y0159339D01*
X0403345Y0159452D01*
X0403197Y0159452D01*
X0403197Y0155077D01*
X0402772Y0155077D01*
X0402772Y0154652D01*
X0398397Y0154652D01*
X0398554Y0153654D02*
X0397231Y0153654D01*
X0396405Y0152080D02*
X0399337Y0152080D01*
X0401551Y0150507D02*
X0393929Y0150507D01*
X0393857Y0149252D02*
X0392112Y0149252D01*
X0390522Y0148594D01*
X0390526Y0148603D01*
X0390526Y0149708D01*
X0390103Y0150729D01*
X0389322Y0151511D01*
X0388301Y0151934D01*
X0387195Y0151934D01*
X0386174Y0151511D01*
X0385393Y0150729D01*
X0384970Y0149708D01*
X0384970Y0148603D01*
X0385393Y0147582D01*
X0386174Y0146801D01*
X0387195Y0146378D01*
X0388301Y0146378D01*
X0388979Y0146659D01*
X0388597Y0145737D01*
X0388597Y0143992D01*
X0389265Y0142379D01*
X0390499Y0141145D01*
X0392112Y0140477D01*
X0393857Y0140477D01*
X0395470Y0141145D01*
X0396704Y0142379D01*
X0397372Y0143992D01*
X0397372Y0145737D01*
X0396704Y0147350D01*
X0395470Y0148584D01*
X0393857Y0149252D01*
X0394626Y0148934D02*
X0400866Y0148934D01*
X0400580Y0148788D02*
X0399996Y0148364D01*
X0399485Y0147853D01*
X0399061Y0147269D01*
X0398733Y0146626D01*
X0398510Y0145939D01*
X0398397Y0145226D01*
X0398397Y0145077D01*
X0402772Y0145077D01*
X0402772Y0149452D01*
X0402623Y0149452D01*
X0401910Y0149339D01*
X0401223Y0149116D01*
X0400580Y0148788D01*
X0399127Y0147360D02*
X0396693Y0147360D01*
X0397351Y0145787D02*
X0398486Y0145787D01*
X0398397Y0144652D02*
X0398397Y0144504D01*
X0398510Y0143790D01*
X0398733Y0143104D01*
X0399061Y0142460D01*
X0399485Y0141876D01*
X0399996Y0141365D01*
X0400580Y0140941D01*
X0401223Y0140613D01*
X0401910Y0140390D01*
X0402623Y0140277D01*
X0402772Y0140277D01*
X0402772Y0144652D01*
X0403197Y0144652D01*
X0403197Y0145077D01*
X0407572Y0145077D01*
X0407572Y0145226D01*
X0407459Y0145939D01*
X0407236Y0146626D01*
X0406908Y0147269D01*
X0406483Y0147853D01*
X0405973Y0148364D01*
X0405389Y0148788D01*
X0404745Y0149116D01*
X0404058Y0149339D01*
X0403345Y0149452D01*
X0403197Y0149452D01*
X0403197Y0145077D01*
X0402772Y0145077D01*
X0402772Y0144652D01*
X0398397Y0144652D01*
X0398443Y0144214D02*
X0397372Y0144214D01*
X0396812Y0142640D02*
X0398969Y0142640D01*
X0400407Y0141067D02*
X0395281Y0141067D01*
X0393857Y0139252D02*
X0392112Y0139252D01*
X0390499Y0138584D01*
X0389265Y0137350D01*
X0388597Y0135737D01*
X0388597Y0133992D01*
X0389265Y0132379D01*
X0390499Y0131145D01*
X0392112Y0130477D01*
X0393857Y0130477D01*
X0395470Y0131145D01*
X0396704Y0132379D01*
X0397372Y0133992D01*
X0397372Y0135737D01*
X0396704Y0137350D01*
X0395470Y0138584D01*
X0393857Y0139252D01*
X0396133Y0137920D02*
X0399553Y0137920D01*
X0399485Y0137853D02*
X0399061Y0137269D01*
X0398733Y0136626D01*
X0398510Y0135939D01*
X0398397Y0135226D01*
X0398397Y0135077D01*
X0402772Y0135077D01*
X0402772Y0139452D01*
X0402623Y0139452D01*
X0401910Y0139339D01*
X0401223Y0139116D01*
X0400580Y0138788D01*
X0399996Y0138364D01*
X0399485Y0137853D01*
X0398642Y0136347D02*
X0397119Y0136347D01*
X0397372Y0134774D02*
X0402772Y0134774D01*
X0402772Y0134652D02*
X0398397Y0134652D01*
X0398397Y0134504D01*
X0398510Y0133790D01*
X0398733Y0133104D01*
X0399061Y0132460D01*
X0399485Y0131876D01*
X0399996Y0131365D01*
X0400580Y0130941D01*
X0401223Y0130613D01*
X0401910Y0130390D01*
X0402623Y0130277D01*
X0402772Y0130277D01*
X0402772Y0134652D01*
X0403197Y0134652D01*
X0403197Y0135077D01*
X0407572Y0135077D01*
X0407572Y0135226D01*
X0407459Y0135939D01*
X0407236Y0136626D01*
X0406908Y0137269D01*
X0406483Y0137853D01*
X0405973Y0138364D01*
X0405389Y0138788D01*
X0404745Y0139116D01*
X0404058Y0139339D01*
X0403345Y0139452D01*
X0403197Y0139452D01*
X0403197Y0135077D01*
X0402772Y0135077D01*
X0402772Y0134652D01*
X0403197Y0134652D02*
X0403197Y0130277D01*
X0403345Y0130277D01*
X0404058Y0130390D01*
X0404745Y0130613D01*
X0405389Y0130941D01*
X0405973Y0131365D01*
X0406483Y0131876D01*
X0406908Y0132460D01*
X0407236Y0133104D01*
X0407459Y0133790D01*
X0407572Y0134504D01*
X0407572Y0134652D01*
X0403197Y0134652D01*
X0403197Y0134774D02*
X0409117Y0134774D01*
X0409117Y0136347D02*
X0407326Y0136347D01*
X0406416Y0137920D02*
X0409117Y0137920D01*
X0409117Y0139494D02*
X0108558Y0139494D01*
X0108580Y0139545D02*
X0108580Y0141207D01*
X0108271Y0141951D01*
X0108580Y0142695D01*
X0108580Y0144357D01*
X0108271Y0145101D01*
X0108580Y0145845D01*
X0108580Y0147507D01*
X0107943Y0149042D01*
X0106768Y0150217D01*
X0105233Y0150854D01*
X0103571Y0150854D01*
X0102035Y0150217D01*
X0100860Y0149042D01*
X0100224Y0147507D01*
X0100224Y0145845D01*
X0100532Y0145101D01*
X0100224Y0144357D01*
X0100224Y0142695D01*
X0100532Y0141951D01*
X0100224Y0141207D01*
X0100224Y0139545D01*
X0100532Y0138802D01*
X0100224Y0138058D01*
X0100224Y0136396D01*
X0100532Y0135652D01*
X0100224Y0134908D01*
X0100224Y0133246D01*
X0100532Y0132502D01*
X0100224Y0131759D01*
X0100224Y0130097D01*
X0100860Y0128561D01*
X0102035Y0127386D01*
X0103571Y0126750D01*
X0105233Y0126750D01*
X0106768Y0127386D01*
X0107943Y0128561D01*
X0108580Y0130097D01*
X0108580Y0131759D01*
X0108271Y0132502D01*
X0108580Y0133246D01*
X0108580Y0134908D01*
X0108271Y0135652D01*
X0108580Y0136396D01*
X0108580Y0138058D01*
X0108271Y0138802D01*
X0108580Y0139545D01*
X0108580Y0141067D02*
X0390687Y0141067D01*
X0389157Y0142640D02*
X0108557Y0142640D01*
X0108580Y0144214D02*
X0376045Y0144214D01*
X0375787Y0144472D02*
X0376568Y0143691D01*
X0377589Y0143268D01*
X0378694Y0143268D01*
X0379715Y0143691D01*
X0380497Y0144472D01*
X0380920Y0145493D01*
X0380920Y0146598D01*
X0380497Y0147619D01*
X0379715Y0148401D01*
X0378694Y0148824D01*
X0377589Y0148824D01*
X0376568Y0148401D01*
X0375787Y0147619D01*
X0375364Y0146598D01*
X0375364Y0145493D01*
X0375787Y0144472D01*
X0375364Y0145787D02*
X0119099Y0145787D01*
X0119361Y0145895D02*
X0120142Y0146677D01*
X0120565Y0147698D01*
X0120565Y0148803D01*
X0120142Y0149824D01*
X0119361Y0150605D01*
X0118340Y0151028D01*
X0117235Y0151028D01*
X0116214Y0150605D01*
X0115432Y0149824D01*
X0115031Y0148856D01*
X0114631Y0149824D01*
X0113849Y0150605D01*
X0112828Y0151028D01*
X0111723Y0151028D01*
X0110702Y0150605D01*
X0109921Y0149824D01*
X0109498Y0148803D01*
X0109498Y0147698D01*
X0109921Y0146677D01*
X0110702Y0145895D01*
X0111723Y0145472D01*
X0112828Y0145472D01*
X0113849Y0145895D01*
X0114631Y0146677D01*
X0115031Y0147645D01*
X0115432Y0146677D01*
X0116214Y0145895D01*
X0117235Y0145472D01*
X0118340Y0145472D01*
X0119361Y0145895D01*
X0120426Y0147360D02*
X0375679Y0147360D01*
X0380238Y0144214D02*
X0388597Y0144214D01*
X0388617Y0145787D02*
X0380920Y0145787D01*
X0380604Y0147360D02*
X0385615Y0147360D01*
X0384970Y0148934D02*
X0120511Y0148934D01*
X0119459Y0150507D02*
X0385301Y0150507D01*
X0389564Y0152080D02*
X0066425Y0152080D01*
X0066409Y0150507D02*
X0102734Y0150507D01*
X0100815Y0148934D02*
X0096241Y0148934D01*
X0096526Y0148648D02*
X0095351Y0149824D01*
X0093815Y0150460D01*
X0092153Y0150460D01*
X0090618Y0149824D01*
X0089442Y0148648D01*
X0088806Y0147113D01*
X0088806Y0145451D01*
X0089114Y0144707D01*
X0088806Y0143963D01*
X0088806Y0142301D01*
X0089114Y0141557D01*
X0088806Y0140814D01*
X0088806Y0139152D01*
X0089114Y0138408D01*
X0088806Y0137664D01*
X0088806Y0136002D01*
X0089114Y0135258D01*
X0088806Y0134515D01*
X0088806Y0132852D01*
X0089114Y0132109D01*
X0088806Y0131365D01*
X0088806Y0129703D01*
X0089442Y0128167D01*
X0090618Y0126992D01*
X0092153Y0126356D01*
X0093815Y0126356D01*
X0095351Y0126992D01*
X0096526Y0128167D01*
X0097162Y0129703D01*
X0097162Y0131365D01*
X0096854Y0132109D01*
X0097162Y0132852D01*
X0097162Y0134515D01*
X0096854Y0135258D01*
X0097162Y0136002D01*
X0097162Y0137664D01*
X0096854Y0138408D01*
X0097162Y0139152D01*
X0097162Y0140814D01*
X0096854Y0141557D01*
X0097162Y0142301D01*
X0097162Y0143963D01*
X0096854Y0144707D01*
X0097162Y0145451D01*
X0097162Y0147113D01*
X0096526Y0148648D01*
X0097060Y0147360D02*
X0100224Y0147360D01*
X0100247Y0145787D02*
X0097162Y0145787D01*
X0097059Y0144214D02*
X0100224Y0144214D01*
X0100246Y0142640D02*
X0097162Y0142640D01*
X0097057Y0141067D02*
X0100224Y0141067D01*
X0100245Y0139494D02*
X0097162Y0139494D01*
X0097056Y0137920D02*
X0100224Y0137920D01*
X0100244Y0136347D02*
X0097162Y0136347D01*
X0097055Y0134774D02*
X0100224Y0134774D01*
X0100243Y0133200D02*
X0097162Y0133200D01*
X0097054Y0131627D02*
X0100224Y0131627D01*
X0100241Y0130054D02*
X0097162Y0130054D01*
X0096656Y0128480D02*
X0100940Y0128480D01*
X0103190Y0126907D02*
X0095146Y0126907D01*
X0090822Y0126907D02*
X0055610Y0126907D01*
X0055575Y0126989D02*
X0055998Y0125968D01*
X0055998Y0125831D01*
X0056135Y0125831D01*
X0057156Y0125409D01*
X0057938Y0124627D01*
X0058361Y0123606D01*
X0058361Y0123469D01*
X0058497Y0123469D01*
X0059518Y0123046D01*
X0060300Y0122265D01*
X0060723Y0121244D01*
X0060723Y0121107D01*
X0060860Y0121107D01*
X0061881Y0120684D01*
X0062662Y0119903D01*
X0063085Y0118882D01*
X0063085Y0118745D01*
X0063222Y0118745D01*
X0064243Y0118322D01*
X0065024Y0117541D01*
X0065447Y0116520D01*
X0065447Y0116383D01*
X0065584Y0116383D01*
X0066605Y0115960D01*
X0067387Y0115178D01*
X0067809Y0114157D01*
X0067809Y0113052D01*
X0067387Y0112031D01*
X0066605Y0111250D01*
X0065584Y0110827D01*
X0064479Y0110827D01*
X0063458Y0111250D01*
X0062676Y0112031D01*
X0062254Y0113052D01*
X0062254Y0113189D01*
X0062117Y0113189D01*
X0061096Y0113612D01*
X0060314Y0114393D01*
X0059891Y0115414D01*
X0059891Y0115551D01*
X0059755Y0115551D01*
X0058734Y0115974D01*
X0057952Y0116756D01*
X0057529Y0117777D01*
X0057529Y0117913D01*
X0057392Y0117913D01*
X0056371Y0118336D01*
X0055590Y0119118D01*
X0055167Y0120139D01*
X0055167Y0120276D01*
X0055030Y0120276D01*
X0054009Y0120699D01*
X0053228Y0121480D01*
X0052805Y0122501D01*
X0052805Y0122638D01*
X0052668Y0122638D01*
X0051647Y0123061D01*
X0050865Y0123842D01*
X0050443Y0124863D01*
X0050443Y0125968D01*
X0050865Y0126989D01*
X0051647Y0127771D01*
X0052668Y0128194D01*
X0053773Y0128194D01*
X0054794Y0127771D01*
X0055575Y0126989D01*
X0057231Y0125334D02*
X0388597Y0125334D01*
X0388597Y0125737D02*
X0388597Y0123992D01*
X0389265Y0122379D01*
X0390499Y0121145D01*
X0392112Y0120477D01*
X0393857Y0120477D01*
X0395470Y0121145D01*
X0396704Y0122379D01*
X0397372Y0123992D01*
X0397372Y0125737D01*
X0396704Y0127350D01*
X0395470Y0128584D01*
X0393857Y0129252D01*
X0392112Y0129252D01*
X0390499Y0128584D01*
X0389265Y0127350D01*
X0388597Y0125737D01*
X0389081Y0126907D02*
X0105613Y0126907D01*
X0107863Y0128480D02*
X0390395Y0128480D01*
X0390017Y0131627D02*
X0108580Y0131627D01*
X0108562Y0130054D02*
X0409117Y0130054D01*
X0409117Y0131627D02*
X0406234Y0131627D01*
X0407267Y0133200D02*
X0409117Y0133200D01*
X0403197Y0133200D02*
X0402772Y0133200D01*
X0402772Y0131627D02*
X0403197Y0131627D01*
X0403197Y0129452D02*
X0403197Y0125077D01*
X0407572Y0125077D01*
X0407572Y0125226D01*
X0407459Y0125939D01*
X0407236Y0126626D01*
X0406908Y0127269D01*
X0406483Y0127853D01*
X0405973Y0128364D01*
X0405389Y0128788D01*
X0404745Y0129116D01*
X0404058Y0129339D01*
X0403345Y0129452D01*
X0403197Y0129452D01*
X0402772Y0129452D02*
X0402623Y0129452D01*
X0401910Y0129339D01*
X0401223Y0129116D01*
X0400580Y0128788D01*
X0399996Y0128364D01*
X0399485Y0127853D01*
X0399061Y0127269D01*
X0398733Y0126626D01*
X0398510Y0125939D01*
X0398397Y0125226D01*
X0398397Y0125077D01*
X0402772Y0125077D01*
X0402772Y0129452D01*
X0402772Y0128480D02*
X0403197Y0128480D01*
X0403197Y0126907D02*
X0402772Y0126907D01*
X0402772Y0125334D02*
X0403197Y0125334D01*
X0403197Y0125077D02*
X0402772Y0125077D01*
X0402772Y0124652D01*
X0403197Y0124652D01*
X0403197Y0125077D01*
X0403197Y0124652D02*
X0407572Y0124652D01*
X0407572Y0124504D01*
X0407459Y0123790D01*
X0407236Y0123104D01*
X0406908Y0122460D01*
X0406483Y0121876D01*
X0405973Y0121365D01*
X0405389Y0120941D01*
X0404745Y0120613D01*
X0404058Y0120390D01*
X0403345Y0120277D01*
X0403197Y0120277D01*
X0403197Y0124652D01*
X0402772Y0124652D02*
X0402772Y0120277D01*
X0402623Y0120277D01*
X0401910Y0120390D01*
X0401223Y0120613D01*
X0400580Y0120941D01*
X0399996Y0121365D01*
X0399485Y0121876D01*
X0399061Y0122460D01*
X0398733Y0123104D01*
X0398510Y0123790D01*
X0398397Y0124504D01*
X0398397Y0124652D01*
X0402772Y0124652D01*
X0402772Y0123761D02*
X0403197Y0123761D01*
X0403197Y0122187D02*
X0402772Y0122187D01*
X0402772Y0120614D02*
X0403197Y0120614D01*
X0403197Y0119452D02*
X0403197Y0115077D01*
X0407572Y0115077D01*
X0407572Y0115226D01*
X0407459Y0115939D01*
X0407236Y0116626D01*
X0406908Y0117269D01*
X0406483Y0117853D01*
X0405973Y0118364D01*
X0405389Y0118788D01*
X0404745Y0119116D01*
X0404058Y0119339D01*
X0403345Y0119452D01*
X0403197Y0119452D01*
X0403197Y0119041D02*
X0402772Y0119041D01*
X0402772Y0119452D02*
X0402623Y0119452D01*
X0401910Y0119339D01*
X0401223Y0119116D01*
X0400580Y0118788D01*
X0399996Y0118364D01*
X0399485Y0117853D01*
X0399061Y0117269D01*
X0398733Y0116626D01*
X0398510Y0115939D01*
X0398397Y0115226D01*
X0398397Y0115077D01*
X0402772Y0115077D01*
X0402772Y0119452D01*
X0401076Y0119041D02*
X0394367Y0119041D01*
X0393857Y0119252D02*
X0392112Y0119252D01*
X0390499Y0118584D01*
X0389265Y0117350D01*
X0388597Y0115737D01*
X0388597Y0113992D01*
X0389265Y0112379D01*
X0390499Y0111145D01*
X0392112Y0110477D01*
X0393857Y0110477D01*
X0395470Y0111145D01*
X0396704Y0112379D01*
X0397372Y0113992D01*
X0397372Y0115737D01*
X0396704Y0117350D01*
X0395470Y0118584D01*
X0393857Y0119252D01*
X0394187Y0120614D02*
X0401222Y0120614D01*
X0399259Y0122187D02*
X0396512Y0122187D01*
X0397276Y0123761D02*
X0398519Y0123761D01*
X0398414Y0125334D02*
X0397372Y0125334D01*
X0396887Y0126907D02*
X0398876Y0126907D01*
X0400157Y0128480D02*
X0395573Y0128480D01*
X0395952Y0131627D02*
X0399734Y0131627D01*
X0398701Y0133200D02*
X0397044Y0133200D01*
X0402772Y0136347D02*
X0403197Y0136347D01*
X0403197Y0137920D02*
X0402772Y0137920D01*
X0403197Y0140277D02*
X0403345Y0140277D01*
X0404058Y0140390D01*
X0404745Y0140613D01*
X0405389Y0140941D01*
X0405973Y0141365D01*
X0406483Y0141876D01*
X0406908Y0142460D01*
X0407236Y0143104D01*
X0407459Y0143790D01*
X0407572Y0144504D01*
X0407572Y0144652D01*
X0403197Y0144652D01*
X0403197Y0140277D01*
X0403197Y0141067D02*
X0402772Y0141067D01*
X0402772Y0142640D02*
X0403197Y0142640D01*
X0403197Y0144214D02*
X0402772Y0144214D01*
X0402772Y0145787D02*
X0403197Y0145787D01*
X0403197Y0147360D02*
X0402772Y0147360D01*
X0402772Y0148934D02*
X0403197Y0148934D01*
X0403197Y0150277D02*
X0403345Y0150277D01*
X0404058Y0150390D01*
X0404745Y0150613D01*
X0405389Y0150941D01*
X0405973Y0151365D01*
X0406483Y0151876D01*
X0406908Y0152460D01*
X0407236Y0153104D01*
X0407459Y0153790D01*
X0407572Y0154504D01*
X0407572Y0154652D01*
X0403197Y0154652D01*
X0403197Y0150277D01*
X0403197Y0150507D02*
X0402772Y0150507D01*
X0402772Y0152080D02*
X0403197Y0152080D01*
X0403197Y0153654D02*
X0402772Y0153654D01*
X0402772Y0155227D02*
X0403197Y0155227D01*
X0403197Y0156800D02*
X0402772Y0156800D01*
X0402772Y0158373D02*
X0403197Y0158373D01*
X0405959Y0158373D02*
X0409117Y0158373D01*
X0409117Y0156800D02*
X0407147Y0156800D01*
X0407571Y0155227D02*
X0409117Y0155227D01*
X0409117Y0153654D02*
X0407414Y0153654D01*
X0406632Y0152080D02*
X0409117Y0152080D01*
X0409117Y0150507D02*
X0404418Y0150507D01*
X0405103Y0148934D02*
X0409117Y0148934D01*
X0409117Y0147360D02*
X0406841Y0147360D01*
X0407483Y0145787D02*
X0409117Y0145787D01*
X0409117Y0144214D02*
X0407526Y0144214D01*
X0406999Y0142640D02*
X0409117Y0142640D01*
X0409117Y0141067D02*
X0405562Y0141067D01*
X0405812Y0128480D02*
X0409117Y0128480D01*
X0409117Y0126907D02*
X0407092Y0126907D01*
X0407555Y0125334D02*
X0409117Y0125334D01*
X0409117Y0123761D02*
X0407449Y0123761D01*
X0406709Y0122187D02*
X0409117Y0122187D01*
X0409117Y0120614D02*
X0404747Y0120614D01*
X0404893Y0119041D02*
X0409117Y0119041D01*
X0409117Y0117467D02*
X0406764Y0117467D01*
X0407466Y0115894D02*
X0409117Y0115894D01*
X0409117Y0114321D02*
X0407543Y0114321D01*
X0407572Y0114504D02*
X0407572Y0114652D01*
X0403197Y0114652D01*
X0403197Y0115077D01*
X0402772Y0115077D01*
X0402772Y0114652D01*
X0403197Y0114652D01*
X0403197Y0110277D01*
X0403345Y0110277D01*
X0404058Y0110390D01*
X0404745Y0110613D01*
X0405389Y0110941D01*
X0405973Y0111365D01*
X0406483Y0111876D01*
X0406908Y0112460D01*
X0407236Y0113104D01*
X0407459Y0113790D01*
X0407572Y0114504D01*
X0407054Y0112747D02*
X0409117Y0112747D01*
X0409117Y0111174D02*
X0405709Y0111174D01*
X0404745Y0109116D02*
X0405389Y0108788D01*
X0405973Y0108364D01*
X0406483Y0107853D01*
X0406908Y0107269D01*
X0407236Y0106626D01*
X0407459Y0105939D01*
X0407572Y0105226D01*
X0407572Y0105077D01*
X0403197Y0105077D01*
X0403197Y0104652D01*
X0407572Y0104652D01*
X0407572Y0104504D01*
X0407459Y0103790D01*
X0407236Y0103104D01*
X0406908Y0102460D01*
X0406483Y0101876D01*
X0405973Y0101365D01*
X0405389Y0100941D01*
X0404745Y0100613D01*
X0404058Y0100390D01*
X0403345Y0100277D01*
X0403197Y0100277D01*
X0403197Y0104652D01*
X0402772Y0104652D01*
X0402772Y0100277D01*
X0402623Y0100277D01*
X0401910Y0100390D01*
X0401223Y0100613D01*
X0400580Y0100941D01*
X0399996Y0101365D01*
X0399485Y0101876D01*
X0399061Y0102460D01*
X0398733Y0103104D01*
X0398510Y0103790D01*
X0398397Y0104504D01*
X0398397Y0104652D01*
X0402772Y0104652D01*
X0402772Y0105077D01*
X0402772Y0109452D01*
X0402623Y0109452D01*
X0401910Y0109339D01*
X0401223Y0109116D01*
X0400580Y0108788D01*
X0399996Y0108364D01*
X0399485Y0107853D01*
X0399061Y0107269D01*
X0398733Y0106626D01*
X0398510Y0105939D01*
X0398397Y0105226D01*
X0398397Y0105077D01*
X0402772Y0105077D01*
X0403197Y0105077D01*
X0403197Y0109452D01*
X0403345Y0109452D01*
X0404058Y0109339D01*
X0404745Y0109116D01*
X0403197Y0108027D02*
X0402772Y0108027D01*
X0402772Y0106454D02*
X0403197Y0106454D01*
X0403197Y0104881D02*
X0409117Y0104881D01*
X0409117Y0106454D02*
X0407291Y0106454D01*
X0406309Y0108027D02*
X0409117Y0108027D01*
X0409117Y0109601D02*
X0328017Y0109601D01*
X0327898Y0109315D02*
X0328321Y0110336D01*
X0328321Y0111441D01*
X0327898Y0112462D01*
X0327661Y0112699D01*
X0328016Y0113055D01*
X0328439Y0114076D01*
X0328439Y0115181D01*
X0328016Y0116202D01*
X0327641Y0116577D01*
X0328016Y0116952D01*
X0328439Y0117973D01*
X0328439Y0119079D01*
X0328016Y0120100D01*
X0327235Y0120881D01*
X0326214Y0121304D01*
X0325109Y0121304D01*
X0324088Y0120881D01*
X0323306Y0120100D01*
X0322883Y0119079D01*
X0322883Y0117973D01*
X0323306Y0116952D01*
X0323682Y0116577D01*
X0323306Y0116202D01*
X0322883Y0115181D01*
X0322883Y0114076D01*
X0323306Y0113055D01*
X0323544Y0112817D01*
X0323188Y0112462D01*
X0322765Y0111441D01*
X0322765Y0110336D01*
X0323188Y0109315D01*
X0323970Y0108533D01*
X0324991Y0108110D01*
X0326096Y0108110D01*
X0327117Y0108533D01*
X0327898Y0109315D01*
X0328321Y0111174D02*
X0390470Y0111174D01*
X0389112Y0112747D02*
X0327709Y0112747D01*
X0328439Y0114321D02*
X0388597Y0114321D01*
X0388662Y0115894D02*
X0328144Y0115894D01*
X0328230Y0117467D02*
X0389382Y0117467D01*
X0391601Y0119041D02*
X0328439Y0119041D01*
X0327502Y0120614D02*
X0391781Y0120614D01*
X0389457Y0122187D02*
X0060332Y0122187D01*
X0061951Y0120614D02*
X0312482Y0120614D01*
X0312165Y0120296D02*
X0311742Y0119275D01*
X0311742Y0118170D01*
X0311875Y0117848D01*
X0311214Y0117574D01*
X0310432Y0116792D01*
X0310009Y0115771D01*
X0310009Y0114798D01*
X0309797Y0114887D01*
X0308692Y0114887D01*
X0307671Y0114464D01*
X0306889Y0113682D01*
X0306466Y0112661D01*
X0306466Y0111556D01*
X0306889Y0110535D01*
X0307671Y0109754D01*
X0308692Y0109331D01*
X0309797Y0109331D01*
X0310818Y0109754D01*
X0311599Y0110535D01*
X0312022Y0111556D01*
X0312022Y0112529D01*
X0312235Y0112441D01*
X0313340Y0112441D01*
X0314361Y0112864D01*
X0315142Y0113645D01*
X0315565Y0114666D01*
X0315565Y0115771D01*
X0315432Y0116094D01*
X0316093Y0116368D01*
X0316875Y0117149D01*
X0317298Y0118170D01*
X0317298Y0119275D01*
X0316875Y0120296D01*
X0316093Y0121078D01*
X0315072Y0121501D01*
X0313967Y0121501D01*
X0312946Y0121078D01*
X0312165Y0120296D01*
X0311742Y0119041D02*
X0063019Y0119041D01*
X0065055Y0117467D02*
X0311107Y0117467D01*
X0310060Y0115894D02*
X0066671Y0115894D01*
X0067742Y0114321D02*
X0307527Y0114321D01*
X0306502Y0112747D02*
X0067683Y0112747D01*
X0066422Y0111174D02*
X0306624Y0111174D01*
X0308040Y0109601D02*
X0018584Y0109601D01*
X0018584Y0111174D02*
X0063641Y0111174D01*
X0062380Y0112747D02*
X0018584Y0112747D01*
X0018584Y0114321D02*
X0034826Y0114321D01*
X0035003Y0114247D02*
X0037306Y0114247D01*
X0039433Y0115128D01*
X0041061Y0116756D01*
X0041942Y0118883D01*
X0041942Y0121186D01*
X0041061Y0123313D01*
X0039433Y0124941D01*
X0037306Y0125822D01*
X0035003Y0125822D01*
X0032876Y0124941D01*
X0031248Y0123313D01*
X0030500Y0121506D01*
X0030406Y0121796D01*
X0030078Y0122439D01*
X0029653Y0123023D01*
X0029143Y0123534D01*
X0028559Y0123958D01*
X0027915Y0124286D01*
X0027229Y0124509D01*
X0026515Y0124622D01*
X0026367Y0124622D01*
X0026367Y0120247D01*
X0025942Y0120247D01*
X0025942Y0119822D01*
X0026367Y0119822D01*
X0026367Y0115447D01*
X0026515Y0115447D01*
X0027229Y0115560D01*
X0027915Y0115783D01*
X0028559Y0116111D01*
X0029143Y0116536D01*
X0029653Y0117046D01*
X0030078Y0117630D01*
X0030406Y0118274D01*
X0030500Y0118563D01*
X0031248Y0116756D01*
X0032876Y0115128D01*
X0035003Y0114247D01*
X0037483Y0114321D02*
X0060387Y0114321D01*
X0058927Y0115894D02*
X0040198Y0115894D01*
X0041355Y0117467D02*
X0057657Y0117467D01*
X0055667Y0119041D02*
X0041942Y0119041D01*
X0041942Y0120614D02*
X0054213Y0120614D01*
X0052935Y0122187D02*
X0041527Y0122187D01*
X0040613Y0123761D02*
X0050947Y0123761D01*
X0050443Y0125334D02*
X0038484Y0125334D01*
X0033825Y0125334D02*
X0018584Y0125334D01*
X0018584Y0126907D02*
X0050831Y0126907D01*
X0057084Y0129340D02*
X0058263Y0128161D01*
X0059804Y0127522D01*
X0061472Y0127522D01*
X0063013Y0128161D01*
X0064192Y0129340D01*
X0064830Y0130881D01*
X0064830Y0132549D01*
X0064192Y0134090D01*
X0063013Y0135269D01*
X0061472Y0135907D01*
X0059804Y0135907D01*
X0058263Y0135269D01*
X0057084Y0134090D01*
X0056445Y0132549D01*
X0056445Y0130881D01*
X0057084Y0129340D01*
X0056788Y0130054D02*
X0018584Y0130054D01*
X0018584Y0131627D02*
X0056445Y0131627D01*
X0056715Y0133200D02*
X0018584Y0133200D01*
X0018584Y0134774D02*
X0057767Y0134774D01*
X0058030Y0137920D02*
X0018584Y0137920D01*
X0018584Y0136347D02*
X0088806Y0136347D01*
X0088914Y0134774D02*
X0063508Y0134774D01*
X0064560Y0133200D02*
X0088806Y0133200D01*
X0088915Y0131627D02*
X0064830Y0131627D01*
X0064488Y0130054D02*
X0088806Y0130054D01*
X0089313Y0128480D02*
X0063332Y0128480D01*
X0057943Y0128480D02*
X0018584Y0128480D01*
X0023166Y0123534D02*
X0023750Y0123958D01*
X0024393Y0124286D01*
X0025080Y0124509D01*
X0025793Y0124622D01*
X0025942Y0124622D01*
X0025942Y0120247D01*
X0021567Y0120247D01*
X0021567Y0120396D01*
X0021680Y0121109D01*
X0021903Y0121796D01*
X0022231Y0122439D01*
X0022655Y0123023D01*
X0023166Y0123534D01*
X0023478Y0123761D02*
X0018584Y0123761D01*
X0018584Y0122187D02*
X0022103Y0122187D01*
X0021602Y0120614D02*
X0018584Y0120614D01*
X0018584Y0119041D02*
X0021667Y0119041D01*
X0021680Y0118960D02*
X0021903Y0118274D01*
X0022231Y0117630D01*
X0022655Y0117046D01*
X0023166Y0116536D01*
X0023750Y0116111D01*
X0024393Y0115783D01*
X0025080Y0115560D01*
X0025793Y0115447D01*
X0025942Y0115447D01*
X0025942Y0119822D01*
X0021567Y0119822D01*
X0021567Y0119674D01*
X0021680Y0118960D01*
X0022349Y0117467D02*
X0018584Y0117467D01*
X0018584Y0115894D02*
X0024176Y0115894D01*
X0025942Y0115894D02*
X0026367Y0115894D01*
X0026367Y0117467D02*
X0025942Y0117467D01*
X0025942Y0119041D02*
X0026367Y0119041D01*
X0026367Y0120614D02*
X0025942Y0120614D01*
X0025942Y0122187D02*
X0026367Y0122187D01*
X0026367Y0123761D02*
X0025942Y0123761D01*
X0028831Y0123761D02*
X0031696Y0123761D01*
X0030782Y0122187D02*
X0030206Y0122187D01*
X0029959Y0117467D02*
X0030954Y0117467D01*
X0032110Y0115894D02*
X0028132Y0115894D01*
X0018584Y0108027D02*
X0389942Y0108027D01*
X0390499Y0108584D02*
X0389265Y0107350D01*
X0388597Y0105737D01*
X0388597Y0103992D01*
X0389265Y0102379D01*
X0390499Y0101145D01*
X0392112Y0100477D01*
X0393857Y0100477D01*
X0395470Y0101145D01*
X0396704Y0102379D01*
X0397372Y0103992D01*
X0397372Y0105737D01*
X0396704Y0107350D01*
X0395470Y0108584D01*
X0393857Y0109252D01*
X0392112Y0109252D01*
X0390499Y0108584D01*
X0388894Y0106454D02*
X0018584Y0106454D01*
X0018584Y0104881D02*
X0297623Y0104881D01*
X0298090Y0105348D02*
X0296910Y0104169D01*
X0296272Y0102628D01*
X0296272Y0100960D01*
X0296910Y0099419D01*
X0298090Y0098239D01*
X0299631Y0097601D01*
X0301299Y0097601D01*
X0302839Y0098239D01*
X0304019Y0099419D01*
X0304657Y0100960D01*
X0304657Y0102628D01*
X0304019Y0104169D01*
X0302839Y0105348D01*
X0301299Y0105986D01*
X0299631Y0105986D01*
X0298090Y0105348D01*
X0296554Y0103307D02*
X0018584Y0103307D01*
X0018584Y0101734D02*
X0033022Y0101734D01*
X0032779Y0101655D02*
X0032140Y0101330D01*
X0031560Y0100908D01*
X0031053Y0100401D01*
X0030631Y0099821D01*
X0030305Y0099182D01*
X0030084Y0098500D01*
X0029972Y0097792D01*
X0029972Y0097630D01*
X0034331Y0097630D01*
X0034331Y0101989D01*
X0034169Y0101989D01*
X0033461Y0101877D01*
X0032779Y0101655D01*
X0034331Y0101734D02*
X0034724Y0101734D01*
X0034724Y0101989D02*
X0034724Y0097630D01*
X0034331Y0097630D01*
X0034331Y0097236D01*
X0034724Y0097236D01*
X0034724Y0092877D01*
X0034886Y0092877D01*
X0035594Y0092989D01*
X0036276Y0093211D01*
X0036915Y0093537D01*
X0037496Y0093958D01*
X0038003Y0094465D01*
X0038424Y0095045D01*
X0038750Y0095684D01*
X0038971Y0096366D01*
X0039083Y0097075D01*
X0039083Y0097236D01*
X0034724Y0097236D01*
X0034724Y0097630D01*
X0039083Y0097630D01*
X0039083Y0097792D01*
X0038971Y0098500D01*
X0038750Y0099182D01*
X0038424Y0099821D01*
X0038003Y0100401D01*
X0037496Y0100908D01*
X0036915Y0101330D01*
X0036276Y0101655D01*
X0035594Y0101877D01*
X0034886Y0101989D01*
X0034724Y0101989D01*
X0036033Y0101734D02*
X0055492Y0101734D01*
X0056070Y0102313D02*
X0054451Y0100694D01*
X0053575Y0098578D01*
X0053575Y0096288D01*
X0054451Y0094173D01*
X0056070Y0092553D01*
X0058186Y0091677D01*
X0060476Y0091677D01*
X0062591Y0092553D01*
X0064210Y0094173D01*
X0065087Y0096288D01*
X0065087Y0098578D01*
X0064210Y0100694D01*
X0062591Y0102313D01*
X0060476Y0103189D01*
X0058186Y0103189D01*
X0056070Y0102313D01*
X0054230Y0100161D02*
X0038177Y0100161D01*
X0038943Y0098588D02*
X0053579Y0098588D01*
X0053575Y0097014D02*
X0039074Y0097014D01*
X0038626Y0095441D02*
X0053926Y0095441D01*
X0054756Y0093868D02*
X0037371Y0093868D01*
X0034724Y0093868D02*
X0034331Y0093868D01*
X0034331Y0092877D02*
X0034331Y0097236D01*
X0029972Y0097236D01*
X0029972Y0097075D01*
X0030084Y0096366D01*
X0030305Y0095684D01*
X0030631Y0095045D01*
X0031053Y0094465D01*
X0031560Y0093958D01*
X0032140Y0093537D01*
X0032779Y0093211D01*
X0033461Y0092989D01*
X0034169Y0092877D01*
X0034331Y0092877D01*
X0034331Y0095441D02*
X0034724Y0095441D01*
X0034724Y0097014D02*
X0034331Y0097014D01*
X0034331Y0098588D02*
X0034724Y0098588D01*
X0034724Y0100161D02*
X0034331Y0100161D01*
X0030878Y0100161D02*
X0018584Y0100161D01*
X0018584Y0098588D02*
X0030112Y0098588D01*
X0029981Y0097014D02*
X0018584Y0097014D01*
X0018584Y0095441D02*
X0030429Y0095441D01*
X0031684Y0093868D02*
X0018584Y0093868D01*
X0018584Y0092294D02*
X0056696Y0092294D01*
X0061965Y0092294D02*
X0389350Y0092294D01*
X0389265Y0092379D02*
X0390499Y0091145D01*
X0392112Y0090477D01*
X0393857Y0090477D01*
X0395470Y0091145D01*
X0396704Y0092379D01*
X0397372Y0093992D01*
X0397372Y0095737D01*
X0396704Y0097350D01*
X0395470Y0098584D01*
X0393857Y0099252D01*
X0392112Y0099252D01*
X0390499Y0098584D01*
X0389265Y0097350D01*
X0388597Y0095737D01*
X0388597Y0093992D01*
X0389265Y0092379D01*
X0388648Y0093868D02*
X0063905Y0093868D01*
X0064736Y0095441D02*
X0388597Y0095441D01*
X0389126Y0097014D02*
X0065087Y0097014D01*
X0065083Y0098588D02*
X0297742Y0098588D01*
X0296603Y0100161D02*
X0064431Y0100161D01*
X0063170Y0101734D02*
X0296272Y0101734D01*
X0303188Y0098588D02*
X0390507Y0098588D01*
X0389910Y0101734D02*
X0304657Y0101734D01*
X0304375Y0103307D02*
X0388880Y0103307D01*
X0388597Y0104881D02*
X0303307Y0104881D01*
X0304326Y0100161D02*
X0409117Y0100161D01*
X0409117Y0101734D02*
X0406341Y0101734D01*
X0407302Y0103307D02*
X0409117Y0103307D01*
X0405389Y0098788D02*
X0404745Y0099116D01*
X0404058Y0099339D01*
X0403345Y0099452D01*
X0403197Y0099452D01*
X0403197Y0095077D01*
X0407572Y0095077D01*
X0407572Y0095226D01*
X0407459Y0095939D01*
X0407236Y0096626D01*
X0406908Y0097269D01*
X0406483Y0097853D01*
X0405973Y0098364D01*
X0405389Y0098788D01*
X0405665Y0098588D02*
X0409117Y0098588D01*
X0409117Y0097014D02*
X0407038Y0097014D01*
X0407538Y0095441D02*
X0409117Y0095441D01*
X0409117Y0093868D02*
X0407471Y0093868D01*
X0407459Y0093790D02*
X0407572Y0094504D01*
X0407572Y0094652D01*
X0403197Y0094652D01*
X0403197Y0095077D01*
X0402772Y0095077D01*
X0402772Y0099452D01*
X0402623Y0099452D01*
X0401910Y0099339D01*
X0401223Y0099116D01*
X0400580Y0098788D01*
X0399996Y0098364D01*
X0399485Y0097853D01*
X0399061Y0097269D01*
X0398733Y0096626D01*
X0398510Y0095939D01*
X0398397Y0095226D01*
X0398397Y0095077D01*
X0402772Y0095077D01*
X0402772Y0094652D01*
X0403197Y0094652D01*
X0403197Y0090277D01*
X0403345Y0090277D01*
X0404058Y0090390D01*
X0404745Y0090613D01*
X0405389Y0090941D01*
X0405973Y0091365D01*
X0406483Y0091876D01*
X0406908Y0092460D01*
X0407236Y0093104D01*
X0407459Y0093790D01*
X0406787Y0092294D02*
X0409117Y0092294D01*
X0409117Y0090721D02*
X0404957Y0090721D01*
X0403197Y0090721D02*
X0402772Y0090721D01*
X0402772Y0090277D02*
X0402772Y0094652D01*
X0398397Y0094652D01*
X0398397Y0094504D01*
X0398510Y0093790D01*
X0398733Y0093104D01*
X0399061Y0092460D01*
X0399485Y0091876D01*
X0399996Y0091365D01*
X0400580Y0090941D01*
X0401223Y0090613D01*
X0401910Y0090390D01*
X0402623Y0090277D01*
X0402772Y0090277D01*
X0401012Y0090721D02*
X0394446Y0090721D01*
X0396619Y0092294D02*
X0399181Y0092294D01*
X0398498Y0093868D02*
X0397320Y0093868D01*
X0397372Y0095441D02*
X0398431Y0095441D01*
X0398931Y0097014D02*
X0396843Y0097014D01*
X0395461Y0098588D02*
X0400304Y0098588D01*
X0402772Y0098588D02*
X0403197Y0098588D01*
X0403197Y0097014D02*
X0402772Y0097014D01*
X0402772Y0095441D02*
X0403197Y0095441D01*
X0403197Y0093868D02*
X0402772Y0093868D01*
X0402772Y0092294D02*
X0403197Y0092294D01*
X0409117Y0089148D02*
X0018584Y0089148D01*
X0018584Y0090721D02*
X0391523Y0090721D01*
X0396059Y0101734D02*
X0399627Y0101734D01*
X0398667Y0103307D02*
X0397088Y0103307D01*
X0397372Y0104881D02*
X0402772Y0104881D01*
X0402772Y0103307D02*
X0403197Y0103307D01*
X0403197Y0101734D02*
X0402772Y0101734D01*
X0398677Y0106454D02*
X0397075Y0106454D01*
X0396026Y0108027D02*
X0399660Y0108027D01*
X0401223Y0110613D02*
X0400580Y0110941D01*
X0399996Y0111365D01*
X0399485Y0111876D01*
X0399061Y0112460D01*
X0398733Y0113104D01*
X0398510Y0113790D01*
X0398397Y0114504D01*
X0398397Y0114652D01*
X0402772Y0114652D01*
X0402772Y0110277D01*
X0402623Y0110277D01*
X0401910Y0110390D01*
X0401223Y0110613D01*
X0400259Y0111174D02*
X0395498Y0111174D01*
X0396856Y0112747D02*
X0398914Y0112747D01*
X0398426Y0114321D02*
X0397372Y0114321D01*
X0397307Y0115894D02*
X0398503Y0115894D01*
X0399205Y0117467D02*
X0396586Y0117467D01*
X0402772Y0117467D02*
X0403197Y0117467D01*
X0403197Y0115894D02*
X0402772Y0115894D01*
X0402772Y0114321D02*
X0403197Y0114321D01*
X0403197Y0112747D02*
X0402772Y0112747D01*
X0402772Y0111174D02*
X0403197Y0111174D01*
X0388693Y0123761D02*
X0058297Y0123761D01*
X0060425Y0137920D02*
X0060850Y0137920D01*
X0060850Y0139494D02*
X0060425Y0139494D01*
X0060425Y0141067D02*
X0060850Y0141067D01*
X0063246Y0137920D02*
X0088912Y0137920D01*
X0088806Y0139494D02*
X0064664Y0139494D01*
X0065183Y0141067D02*
X0088911Y0141067D01*
X0088806Y0142640D02*
X0065133Y0142640D01*
X0064479Y0144214D02*
X0088910Y0144214D01*
X0088806Y0145787D02*
X0062714Y0145787D01*
X0064487Y0147360D02*
X0088909Y0147360D01*
X0089727Y0148934D02*
X0065758Y0148934D01*
X0056611Y0139494D02*
X0018584Y0139494D01*
X0018584Y0161520D02*
X0390124Y0161520D01*
X0388969Y0163093D02*
X0018584Y0163093D01*
X0018584Y0164667D02*
X0388597Y0164667D01*
X0388805Y0166240D02*
X0018584Y0166240D01*
X0018584Y0167813D02*
X0389728Y0167813D01*
X0390946Y0170960D02*
X0018584Y0170960D01*
X0018584Y0172533D02*
X0389201Y0172533D01*
X0389265Y0172379D02*
X0390499Y0171145D01*
X0392112Y0170477D01*
X0393857Y0170477D01*
X0395470Y0171145D01*
X0396704Y0172379D01*
X0397372Y0173992D01*
X0397372Y0175737D01*
X0396704Y0177350D01*
X0395470Y0178584D01*
X0394207Y0179107D01*
X0396263Y0179958D01*
X0397891Y0181586D01*
X0397984Y0181812D01*
X0398078Y0181586D01*
X0399706Y0179958D01*
X0401513Y0179210D01*
X0401223Y0179116D01*
X0400580Y0178788D01*
X0399996Y0178364D01*
X0399485Y0177853D01*
X0399061Y0177269D01*
X0398733Y0176626D01*
X0398510Y0175939D01*
X0398397Y0175226D01*
X0398397Y0175077D01*
X0402772Y0175077D01*
X0402772Y0174652D01*
X0403197Y0174652D01*
X0403197Y0175077D01*
X0407572Y0175077D01*
X0407572Y0175226D01*
X0407459Y0175939D01*
X0407236Y0176626D01*
X0406908Y0177269D01*
X0406483Y0177853D01*
X0405973Y0178364D01*
X0405389Y0178788D01*
X0404745Y0179116D01*
X0404456Y0179210D01*
X0406263Y0179958D01*
X0407891Y0181586D01*
X0408772Y0183713D01*
X0408772Y0186016D01*
X0407891Y0188143D01*
X0406263Y0189771D01*
X0404135Y0190652D01*
X0401833Y0190652D01*
X0399706Y0189771D01*
X0398078Y0188143D01*
X0397984Y0187917D01*
X0397891Y0188143D01*
X0396263Y0189771D01*
X0394135Y0190652D01*
X0391833Y0190652D01*
X0389706Y0189771D01*
X0388078Y0188143D01*
X0387197Y0186016D01*
X0387197Y0183713D01*
X0388078Y0181586D01*
X0389706Y0179958D01*
X0391761Y0179107D01*
X0390499Y0178584D01*
X0389265Y0177350D01*
X0388597Y0175737D01*
X0388597Y0173992D01*
X0389265Y0172379D01*
X0388597Y0174107D02*
X0070407Y0174107D01*
X0070536Y0174236D02*
X0070959Y0175257D01*
X0070959Y0176362D01*
X0070536Y0177383D01*
X0069755Y0178164D01*
X0068734Y0178587D01*
X0067629Y0178587D01*
X0066608Y0178164D01*
X0065826Y0177383D01*
X0065403Y0176362D01*
X0065403Y0175257D01*
X0065826Y0174236D01*
X0066608Y0173454D01*
X0067629Y0173031D01*
X0068734Y0173031D01*
X0069755Y0173454D01*
X0070536Y0174236D01*
X0070959Y0175680D02*
X0103151Y0175680D01*
X0103610Y0175490D02*
X0102074Y0176126D01*
X0100899Y0177301D01*
X0100263Y0178837D01*
X0100263Y0180499D01*
X0100899Y0182034D01*
X0102074Y0183210D01*
X0103610Y0183846D01*
X0105272Y0183846D01*
X0106808Y0183210D01*
X0107983Y0182034D01*
X0108619Y0180499D01*
X0108619Y0178837D01*
X0107983Y0177301D01*
X0106808Y0176126D01*
X0105272Y0175490D01*
X0103610Y0175490D01*
X0105731Y0175680D02*
X0388597Y0175680D01*
X0389225Y0177253D02*
X0107935Y0177253D01*
X0108615Y0178827D02*
X0391085Y0178827D01*
X0389264Y0180400D02*
X0108619Y0180400D01*
X0108008Y0181973D02*
X0387918Y0181973D01*
X0387266Y0183547D02*
X0105994Y0183547D01*
X0102888Y0183547D02*
X0028509Y0183547D01*
X0028633Y0183670D02*
X0029023Y0184255D01*
X0029293Y0184905D01*
X0029430Y0185595D01*
X0029430Y0185947D01*
X0025858Y0185947D01*
X0022287Y0185947D01*
X0022287Y0185595D01*
X0022424Y0184905D01*
X0022693Y0184255D01*
X0023084Y0183670D01*
X0023581Y0183173D01*
X0024166Y0182782D01*
X0024816Y0182513D01*
X0025506Y0182376D01*
X0025858Y0182376D01*
X0025858Y0185947D01*
X0025858Y0185947D01*
X0025858Y0185947D01*
X0022287Y0185947D01*
X0022287Y0186299D01*
X0022424Y0186989D01*
X0022693Y0187639D01*
X0023084Y0188224D01*
X0023581Y0188722D01*
X0024166Y0189112D01*
X0024816Y0189382D01*
X0025506Y0189519D01*
X0025858Y0189519D01*
X0025858Y0185947D01*
X0025858Y0182376D01*
X0026210Y0182376D01*
X0026900Y0182513D01*
X0027550Y0182782D01*
X0028135Y0183173D01*
X0028633Y0183670D01*
X0029335Y0185120D02*
X0387197Y0185120D01*
X0387477Y0186693D02*
X0029352Y0186693D01*
X0029293Y0186989D02*
X0029023Y0187639D01*
X0028633Y0188224D01*
X0028135Y0188722D01*
X0027550Y0189112D01*
X0026900Y0189382D01*
X0026210Y0189519D01*
X0025858Y0189519D01*
X0025858Y0185947D01*
X0025858Y0185947D01*
X0025858Y0185947D01*
X0029430Y0185947D01*
X0029430Y0186299D01*
X0029293Y0186989D01*
X0028590Y0188266D02*
X0033367Y0188266D01*
X0033364Y0188269D02*
X0033889Y0187744D01*
X0034506Y0187332D01*
X0035192Y0187048D01*
X0035920Y0186903D01*
X0036291Y0186903D01*
X0036291Y0190672D01*
X0036291Y0194440D01*
X0035920Y0194440D01*
X0035192Y0194295D01*
X0034506Y0194011D01*
X0033889Y0193599D01*
X0033364Y0193074D01*
X0032952Y0192457D01*
X0032668Y0191771D01*
X0032523Y0191043D01*
X0032523Y0190672D01*
X0036291Y0190672D01*
X0036291Y0190672D01*
X0036291Y0190672D01*
X0036291Y0194440D01*
X0036663Y0194440D01*
X0037391Y0194295D01*
X0038076Y0194011D01*
X0038694Y0193599D01*
X0039219Y0193074D01*
X0039631Y0192457D01*
X0039915Y0191771D01*
X0040060Y0191043D01*
X0040060Y0190672D01*
X0036291Y0190672D01*
X0032523Y0190672D01*
X0032523Y0190300D01*
X0032668Y0189572D01*
X0032952Y0188887D01*
X0033364Y0188269D01*
X0032614Y0189840D02*
X0018584Y0189840D01*
X0018584Y0191413D02*
X0032596Y0191413D01*
X0033306Y0192986D02*
X0018584Y0192986D01*
X0018584Y0194560D02*
X0116493Y0194560D01*
X0116384Y0194296D02*
X0116384Y0193112D01*
X0116838Y0192017D01*
X0117675Y0191179D01*
X0118770Y0190726D01*
X0119955Y0190726D01*
X0121049Y0191179D01*
X0121887Y0192017D01*
X0122340Y0193112D01*
X0122340Y0194296D01*
X0121887Y0195391D01*
X0121783Y0195494D01*
X0121887Y0195598D01*
X0122340Y0196693D01*
X0122340Y0197877D01*
X0121887Y0198972D01*
X0121049Y0199810D01*
X0119955Y0200263D01*
X0118770Y0200263D01*
X0117675Y0199810D01*
X0116838Y0198972D01*
X0116384Y0197877D01*
X0116384Y0196693D01*
X0116838Y0195598D01*
X0116941Y0195494D01*
X0116838Y0195391D01*
X0116384Y0194296D01*
X0116436Y0192986D02*
X0039277Y0192986D01*
X0039986Y0191413D02*
X0117442Y0191413D01*
X0121283Y0191413D02*
X0409117Y0191413D01*
X0409117Y0189840D02*
X0406096Y0189840D01*
X0407767Y0188266D02*
X0409117Y0188266D01*
X0409117Y0186693D02*
X0408491Y0186693D01*
X0408772Y0185120D02*
X0409117Y0185120D01*
X0409117Y0183547D02*
X0408703Y0183547D01*
X0409117Y0181973D02*
X0408051Y0181973D01*
X0409117Y0180400D02*
X0406704Y0180400D01*
X0405313Y0178827D02*
X0409117Y0178827D01*
X0409117Y0177253D02*
X0406916Y0177253D01*
X0407500Y0175680D02*
X0409117Y0175680D01*
X0409117Y0174107D02*
X0407509Y0174107D01*
X0407459Y0173790D02*
X0407572Y0174504D01*
X0407572Y0174652D01*
X0403197Y0174652D01*
X0403197Y0170277D01*
X0403345Y0170277D01*
X0404058Y0170390D01*
X0404745Y0170613D01*
X0405389Y0170941D01*
X0405973Y0171365D01*
X0406483Y0171876D01*
X0406908Y0172460D01*
X0407236Y0173104D01*
X0407459Y0173790D01*
X0406945Y0172533D02*
X0409117Y0172533D01*
X0409117Y0170960D02*
X0405415Y0170960D01*
X0403197Y0170960D02*
X0402772Y0170960D01*
X0402772Y0170277D02*
X0402772Y0174652D01*
X0398397Y0174652D01*
X0398397Y0174504D01*
X0398510Y0173790D01*
X0398733Y0173104D01*
X0399061Y0172460D01*
X0399485Y0171876D01*
X0399996Y0171365D01*
X0400580Y0170941D01*
X0401223Y0170613D01*
X0401910Y0170390D01*
X0402623Y0170277D01*
X0402772Y0170277D01*
X0402772Y0169387D02*
X0403197Y0169387D01*
X0403757Y0169387D02*
X0409117Y0169387D01*
X0409117Y0167813D02*
X0406512Y0167813D01*
X0407361Y0166240D02*
X0409117Y0166240D01*
X0403197Y0166240D02*
X0402772Y0166240D01*
X0402772Y0167813D02*
X0403197Y0167813D01*
X0402211Y0169387D02*
X0018584Y0169387D01*
X0018584Y0174107D02*
X0065955Y0174107D01*
X0065403Y0175680D02*
X0018584Y0175680D01*
X0018584Y0177253D02*
X0065772Y0177253D01*
X0070590Y0177253D02*
X0100947Y0177253D01*
X0100267Y0178827D02*
X0018584Y0178827D01*
X0018584Y0180400D02*
X0100263Y0180400D01*
X0100874Y0181973D02*
X0018584Y0181973D01*
X0018584Y0183547D02*
X0023208Y0183547D01*
X0022381Y0185120D02*
X0018584Y0185120D01*
X0018584Y0186693D02*
X0022365Y0186693D01*
X0023126Y0188266D02*
X0018584Y0188266D01*
X0025858Y0188266D02*
X0025858Y0188266D01*
X0025858Y0186693D02*
X0025858Y0186693D01*
X0025858Y0185120D02*
X0025858Y0185120D01*
X0025858Y0183547D02*
X0025858Y0183547D01*
X0036291Y0186903D02*
X0036291Y0190672D01*
X0036291Y0190672D01*
X0036291Y0190672D01*
X0040060Y0190672D01*
X0040060Y0190300D01*
X0039915Y0189572D01*
X0039631Y0188887D01*
X0039219Y0188269D01*
X0038694Y0187744D01*
X0038076Y0187332D01*
X0037391Y0187048D01*
X0036663Y0186903D01*
X0036291Y0186903D01*
X0036291Y0188266D02*
X0036291Y0188266D01*
X0036291Y0189840D02*
X0036291Y0189840D01*
X0036291Y0191413D02*
X0036291Y0191413D01*
X0036291Y0192986D02*
X0036291Y0192986D01*
X0039968Y0189840D02*
X0389872Y0189840D01*
X0388202Y0188266D02*
X0039216Y0188266D01*
X0018584Y0196133D02*
X0116616Y0196133D01*
X0116384Y0197706D02*
X0018584Y0197706D01*
X0018584Y0199280D02*
X0117145Y0199280D01*
X0121579Y0199280D02*
X0409117Y0199280D01*
X0409117Y0200853D02*
X0018584Y0200853D01*
X0018584Y0202426D02*
X0120313Y0202426D01*
X0120157Y0202582D02*
X0120938Y0201801D01*
X0121959Y0201378D01*
X0123064Y0201378D01*
X0124085Y0201801D01*
X0124867Y0202582D01*
X0125290Y0203603D01*
X0125290Y0204708D01*
X0124867Y0205729D01*
X0124085Y0206511D01*
X0123064Y0206934D01*
X0121959Y0206934D01*
X0120938Y0206511D01*
X0120157Y0205729D01*
X0119734Y0204708D01*
X0119734Y0203603D01*
X0120157Y0202582D01*
X0119734Y0204000D02*
X0018584Y0204000D01*
X0018584Y0205573D02*
X0120092Y0205573D01*
X0124932Y0205573D02*
X0409117Y0205573D01*
X0409117Y0207146D02*
X0060927Y0207146D01*
X0061087Y0207307D02*
X0061510Y0208328D01*
X0061510Y0209433D01*
X0061087Y0210454D01*
X0060889Y0210652D01*
X0061087Y0210850D01*
X0061510Y0211871D01*
X0061510Y0212976D01*
X0061087Y0213997D01*
X0060889Y0214195D01*
X0061087Y0214393D01*
X0061510Y0215414D01*
X0061510Y0216520D01*
X0061087Y0217541D01*
X0060306Y0218322D01*
X0059285Y0218745D01*
X0058180Y0218745D01*
X0057159Y0218322D01*
X0057157Y0218321D01*
X0057156Y0218322D01*
X0056135Y0218745D01*
X0055030Y0218745D01*
X0054009Y0218322D01*
X0053228Y0217541D01*
X0052805Y0216520D01*
X0052805Y0215414D01*
X0053228Y0214393D01*
X0053426Y0214195D01*
X0053228Y0213997D01*
X0052805Y0212976D01*
X0052805Y0211871D01*
X0053228Y0210850D01*
X0053426Y0210652D01*
X0053228Y0210454D01*
X0052805Y0209433D01*
X0052805Y0208328D01*
X0053228Y0207307D01*
X0054009Y0206525D01*
X0055030Y0206102D01*
X0056135Y0206102D01*
X0057156Y0206525D01*
X0057157Y0206527D01*
X0057159Y0206525D01*
X0058180Y0206102D01*
X0059285Y0206102D01*
X0060306Y0206525D01*
X0061087Y0207307D01*
X0061510Y0208720D02*
X0409117Y0208720D01*
X0409117Y0210293D02*
X0061154Y0210293D01*
X0061508Y0211866D02*
X0409117Y0211866D01*
X0409117Y0213439D02*
X0061318Y0213439D01*
X0061344Y0215013D02*
X0409117Y0215013D01*
X0409117Y0216586D02*
X0061483Y0216586D01*
X0060468Y0218159D02*
X0409117Y0218159D01*
X0409117Y0219733D02*
X0352849Y0219733D01*
X0352741Y0219472D02*
X0353164Y0220493D01*
X0353164Y0221598D01*
X0352741Y0222619D01*
X0351959Y0223401D01*
X0350938Y0223824D01*
X0349833Y0223824D01*
X0348812Y0223401D01*
X0348031Y0222619D01*
X0347608Y0221598D01*
X0347608Y0220493D01*
X0348031Y0219472D01*
X0348812Y0218691D01*
X0349833Y0218268D01*
X0350938Y0218268D01*
X0351959Y0218691D01*
X0352741Y0219472D01*
X0353164Y0221306D02*
X0380197Y0221306D01*
X0380147Y0221327D02*
X0382090Y0220522D01*
X0384193Y0220522D01*
X0386137Y0221327D01*
X0387624Y0222814D01*
X0387885Y0223443D01*
X0388814Y0222514D01*
X0390242Y0221922D01*
X0391789Y0221922D01*
X0393218Y0222514D01*
X0394311Y0223607D01*
X0394903Y0225036D01*
X0394903Y0226583D01*
X0394311Y0228011D01*
X0393218Y0229105D01*
X0391789Y0229697D01*
X0390242Y0229697D01*
X0388814Y0229105D01*
X0387885Y0228176D01*
X0387624Y0228805D01*
X0386137Y0230292D01*
X0384193Y0231097D01*
X0382090Y0231097D01*
X0380147Y0230292D01*
X0378659Y0228805D01*
X0378472Y0228353D01*
X0378385Y0228472D01*
X0377930Y0228927D01*
X0377410Y0229305D01*
X0376837Y0229597D01*
X0376225Y0229796D01*
X0375589Y0229897D01*
X0375268Y0229897D01*
X0375268Y0225810D01*
X0375268Y0225810D01*
X0375268Y0229897D01*
X0374946Y0229897D01*
X0374311Y0229796D01*
X0373699Y0229597D01*
X0373125Y0229305D01*
X0372605Y0228927D01*
X0372150Y0228472D01*
X0371772Y0227952D01*
X0371480Y0227378D01*
X0371281Y0226767D01*
X0371180Y0226131D01*
X0371180Y0225809D01*
X0371180Y0225488D01*
X0371281Y0224852D01*
X0371480Y0224240D01*
X0371772Y0223667D01*
X0372150Y0223147D01*
X0372605Y0222692D01*
X0373125Y0222314D01*
X0373699Y0222022D01*
X0374311Y0221823D01*
X0374946Y0221722D01*
X0375268Y0221722D01*
X0375589Y0221722D01*
X0376225Y0221823D01*
X0376837Y0222022D01*
X0377410Y0222314D01*
X0377930Y0222692D01*
X0378385Y0223147D01*
X0378472Y0223266D01*
X0378659Y0222814D01*
X0380147Y0221327D01*
X0378632Y0222879D02*
X0378118Y0222879D01*
X0375268Y0222879D02*
X0375268Y0222879D01*
X0375268Y0221722D02*
X0375268Y0225809D01*
X0375268Y0225809D01*
X0375268Y0221722D01*
X0375268Y0224453D02*
X0375268Y0224453D01*
X0375268Y0225809D02*
X0371180Y0225809D01*
X0375268Y0225809D01*
X0375268Y0225809D01*
X0375268Y0226026D02*
X0375268Y0226026D01*
X0375268Y0227599D02*
X0375268Y0227599D01*
X0375268Y0229173D02*
X0375268Y0229173D01*
X0377593Y0229173D02*
X0379027Y0229173D01*
X0381243Y0230746D02*
X0356865Y0230746D01*
X0356865Y0230890D02*
X0356442Y0231911D01*
X0355660Y0232692D01*
X0354639Y0233115D01*
X0353534Y0233115D01*
X0352513Y0232692D01*
X0351732Y0231911D01*
X0351309Y0230890D01*
X0351309Y0229784D01*
X0351732Y0228763D01*
X0352264Y0228231D01*
X0352007Y0227974D01*
X0351584Y0226953D01*
X0351584Y0225847D01*
X0352007Y0224826D01*
X0352789Y0224045D01*
X0353810Y0223622D01*
X0354915Y0223622D01*
X0355936Y0224045D01*
X0356717Y0224826D01*
X0357140Y0225847D01*
X0357140Y0226953D01*
X0356717Y0227974D01*
X0356184Y0228506D01*
X0356442Y0228763D01*
X0356865Y0229784D01*
X0356865Y0230890D01*
X0357671Y0231486D02*
X0358692Y0231063D01*
X0359797Y0231063D01*
X0360818Y0231486D01*
X0361599Y0232267D01*
X0362022Y0233288D01*
X0362022Y0233550D01*
X0362038Y0233543D01*
X0363143Y0233543D01*
X0364164Y0233966D01*
X0364946Y0234748D01*
X0365368Y0235769D01*
X0365368Y0236874D01*
X0364946Y0237895D01*
X0364164Y0238676D01*
X0363143Y0239099D01*
X0362038Y0239099D01*
X0361017Y0238676D01*
X0360236Y0237895D01*
X0359813Y0236874D01*
X0359813Y0236612D01*
X0359797Y0236619D01*
X0358692Y0236619D01*
X0357671Y0236196D01*
X0356889Y0235415D01*
X0356466Y0234394D01*
X0356466Y0233288D01*
X0356889Y0232267D01*
X0357671Y0231486D01*
X0356868Y0232319D02*
X0356033Y0232319D01*
X0356466Y0233893D02*
X0040060Y0233893D01*
X0040060Y0233979D02*
X0036291Y0233979D01*
X0036291Y0233979D01*
X0032523Y0233979D01*
X0032523Y0234350D01*
X0032668Y0235078D01*
X0032952Y0235764D01*
X0033364Y0236381D01*
X0033889Y0236906D01*
X0034506Y0237318D01*
X0035192Y0237602D01*
X0035920Y0237747D01*
X0036291Y0237747D01*
X0036291Y0233979D01*
X0036291Y0233979D01*
X0032523Y0233979D01*
X0032523Y0233608D01*
X0032668Y0232880D01*
X0032952Y0232194D01*
X0033364Y0231576D01*
X0033889Y0231052D01*
X0034506Y0230639D01*
X0035192Y0230355D01*
X0035920Y0230210D01*
X0036291Y0230210D01*
X0036291Y0233979D01*
X0036291Y0237747D01*
X0036663Y0237747D01*
X0037391Y0237602D01*
X0038076Y0237318D01*
X0038694Y0236906D01*
X0039219Y0236381D01*
X0039631Y0235764D01*
X0039915Y0235078D01*
X0040060Y0234350D01*
X0040060Y0233979D01*
X0036291Y0233979D01*
X0036291Y0233979D01*
X0036291Y0233979D01*
X0036291Y0230210D01*
X0036663Y0230210D01*
X0037391Y0230355D01*
X0038076Y0230639D01*
X0038694Y0231052D01*
X0039219Y0231576D01*
X0039631Y0232194D01*
X0039915Y0232880D01*
X0040060Y0233608D01*
X0040060Y0233979D01*
X0039754Y0235466D02*
X0095421Y0235466D01*
X0094954Y0235659D02*
X0095975Y0235236D01*
X0097080Y0235236D01*
X0098101Y0235659D01*
X0098883Y0236441D01*
X0099305Y0237462D01*
X0099305Y0238567D01*
X0098883Y0239588D01*
X0098101Y0240369D01*
X0097080Y0240792D01*
X0095975Y0240792D01*
X0094954Y0240369D01*
X0094173Y0239588D01*
X0093750Y0238567D01*
X0093750Y0237462D01*
X0094173Y0236441D01*
X0094954Y0235659D01*
X0093925Y0237039D02*
X0038494Y0237039D01*
X0036291Y0237039D02*
X0036291Y0237039D01*
X0036291Y0235466D02*
X0036291Y0235466D01*
X0036291Y0233893D02*
X0036291Y0233893D01*
X0036291Y0232319D02*
X0036291Y0232319D01*
X0036291Y0230746D02*
X0036291Y0230746D01*
X0034346Y0230746D02*
X0029106Y0230746D01*
X0029023Y0230946D02*
X0028633Y0231531D01*
X0028135Y0232029D01*
X0027550Y0232419D01*
X0026900Y0232689D01*
X0026210Y0232826D01*
X0025858Y0232826D01*
X0025506Y0232826D01*
X0024816Y0232689D01*
X0024166Y0232419D01*
X0023581Y0232029D01*
X0023084Y0231531D01*
X0022693Y0230946D01*
X0022424Y0230296D01*
X0022287Y0229606D01*
X0022287Y0229254D01*
X0022287Y0228903D01*
X0022424Y0228213D01*
X0022693Y0227563D01*
X0023084Y0226978D01*
X0023581Y0226480D01*
X0024166Y0226089D01*
X0024816Y0225820D01*
X0025506Y0225683D01*
X0025858Y0225683D01*
X0025858Y0229254D01*
X0025858Y0229254D01*
X0022287Y0229254D01*
X0025858Y0229254D01*
X0025858Y0229254D01*
X0025858Y0225683D01*
X0026210Y0225683D01*
X0026900Y0225820D01*
X0027550Y0226089D01*
X0028135Y0226480D01*
X0028633Y0226978D01*
X0029023Y0227563D01*
X0029293Y0228213D01*
X0029430Y0228903D01*
X0029430Y0229254D01*
X0025858Y0229254D01*
X0025858Y0229254D01*
X0025858Y0232826D01*
X0025858Y0229254D01*
X0025858Y0229254D01*
X0029430Y0229254D01*
X0029430Y0229606D01*
X0029293Y0230296D01*
X0029023Y0230946D01*
X0029430Y0229173D02*
X0351562Y0229173D01*
X0351309Y0230746D02*
X0038236Y0230746D01*
X0039683Y0232319D02*
X0352140Y0232319D01*
X0356611Y0229173D02*
X0372943Y0229173D01*
X0371592Y0227599D02*
X0356872Y0227599D01*
X0357140Y0226026D02*
X0371180Y0226026D01*
X0371411Y0224453D02*
X0356343Y0224453D01*
X0352381Y0224453D02*
X0018584Y0224453D01*
X0018584Y0226026D02*
X0024319Y0226026D01*
X0025858Y0226026D02*
X0025858Y0226026D01*
X0027398Y0226026D02*
X0351584Y0226026D01*
X0351852Y0227599D02*
X0029039Y0227599D01*
X0025858Y0227599D02*
X0025858Y0227599D01*
X0025858Y0229173D02*
X0025858Y0229173D01*
X0025858Y0230746D02*
X0025858Y0230746D01*
X0025858Y0232319D02*
X0025858Y0232319D01*
X0024016Y0232319D02*
X0018584Y0232319D01*
X0018584Y0230746D02*
X0022610Y0230746D01*
X0022287Y0229173D02*
X0018584Y0229173D01*
X0018584Y0227599D02*
X0022678Y0227599D01*
X0018584Y0222879D02*
X0348291Y0222879D01*
X0347608Y0221306D02*
X0018584Y0221306D01*
X0018584Y0219733D02*
X0347923Y0219733D01*
X0352481Y0222879D02*
X0372417Y0222879D01*
X0386086Y0221306D02*
X0409117Y0221306D01*
X0409117Y0222879D02*
X0401457Y0222879D01*
X0401092Y0222514D02*
X0402185Y0223607D01*
X0402777Y0225036D01*
X0402777Y0226583D01*
X0402185Y0228011D01*
X0401092Y0229105D01*
X0399663Y0229697D01*
X0398116Y0229697D01*
X0396688Y0229105D01*
X0395594Y0228011D01*
X0395002Y0226583D01*
X0395002Y0225036D01*
X0395594Y0223607D01*
X0396688Y0222514D01*
X0398116Y0221922D01*
X0399663Y0221922D01*
X0401092Y0222514D01*
X0402535Y0224453D02*
X0409117Y0224453D01*
X0409117Y0226026D02*
X0402777Y0226026D01*
X0402356Y0227599D02*
X0409117Y0227599D01*
X0409117Y0229173D02*
X0400929Y0229173D01*
X0396851Y0229173D02*
X0393055Y0229173D01*
X0394482Y0227599D02*
X0395423Y0227599D01*
X0395002Y0226026D02*
X0394903Y0226026D01*
X0394661Y0224453D02*
X0395244Y0224453D01*
X0396322Y0222879D02*
X0393583Y0222879D01*
X0388448Y0222879D02*
X0387651Y0222879D01*
X0387256Y0229173D02*
X0388977Y0229173D01*
X0385041Y0230746D02*
X0409117Y0230746D01*
X0409117Y0232319D02*
X0361621Y0232319D01*
X0363986Y0233893D02*
X0409117Y0233893D01*
X0409117Y0235466D02*
X0365243Y0235466D01*
X0365300Y0237039D02*
X0409117Y0237039D01*
X0409117Y0238613D02*
X0364228Y0238613D01*
X0360953Y0238613D02*
X0142043Y0238613D01*
X0142219Y0239036D02*
X0141796Y0238015D01*
X0141015Y0237234D01*
X0139994Y0236811D01*
X0138888Y0236811D01*
X0137867Y0237234D01*
X0137086Y0238015D01*
X0136663Y0239036D01*
X0136663Y0240142D01*
X0137086Y0241163D01*
X0137867Y0241944D01*
X0138888Y0242367D01*
X0139994Y0242367D01*
X0141015Y0241944D01*
X0141796Y0241163D01*
X0142219Y0240142D01*
X0142219Y0239036D01*
X0142201Y0240186D02*
X0409117Y0240186D01*
X0409117Y0241759D02*
X0141199Y0241759D01*
X0137683Y0241759D02*
X0018584Y0241759D01*
X0018584Y0240186D02*
X0094771Y0240186D01*
X0093769Y0238613D02*
X0018584Y0238613D01*
X0018584Y0237039D02*
X0034089Y0237039D01*
X0032828Y0235466D02*
X0018584Y0235466D01*
X0018584Y0233893D02*
X0032523Y0233893D01*
X0032900Y0232319D02*
X0027700Y0232319D01*
X0018584Y0243332D02*
X0409117Y0243332D01*
X0409117Y0244906D02*
X0018584Y0244906D01*
X0018584Y0246479D02*
X0381205Y0246479D01*
X0382090Y0246113D02*
X0384193Y0246113D01*
X0386137Y0246918D01*
X0387624Y0248405D01*
X0387885Y0249034D01*
X0388814Y0248104D01*
X0390242Y0247513D01*
X0391789Y0247513D01*
X0393218Y0248104D01*
X0394311Y0249198D01*
X0394903Y0250627D01*
X0394903Y0252173D01*
X0394311Y0253602D01*
X0393218Y0254696D01*
X0391789Y0255287D01*
X0390242Y0255287D01*
X0388814Y0254696D01*
X0387885Y0253766D01*
X0387624Y0254395D01*
X0386137Y0255882D01*
X0384193Y0256687D01*
X0382090Y0256687D01*
X0380147Y0255882D01*
X0378659Y0254395D01*
X0378472Y0253943D01*
X0378385Y0254063D01*
X0377930Y0254518D01*
X0377410Y0254896D01*
X0376837Y0255188D01*
X0376225Y0255387D01*
X0375589Y0255487D01*
X0375268Y0255487D01*
X0375268Y0251400D01*
X0375268Y0251400D01*
X0375268Y0247313D01*
X0375589Y0247313D01*
X0376225Y0247413D01*
X0376837Y0247612D01*
X0377410Y0247904D01*
X0377930Y0248282D01*
X0378385Y0248737D01*
X0378472Y0248857D01*
X0378659Y0248405D01*
X0380147Y0246918D01*
X0382090Y0246113D01*
X0385078Y0246479D02*
X0409117Y0246479D01*
X0409117Y0248052D02*
X0400966Y0248052D01*
X0401092Y0248104D02*
X0399663Y0247513D01*
X0398116Y0247513D01*
X0396688Y0248104D01*
X0395594Y0249198D01*
X0395002Y0250627D01*
X0395002Y0252173D01*
X0395594Y0253602D01*
X0396688Y0254696D01*
X0398116Y0255287D01*
X0399663Y0255287D01*
X0401092Y0254696D01*
X0402185Y0253602D01*
X0402777Y0252173D01*
X0402777Y0250627D01*
X0402185Y0249198D01*
X0401092Y0248104D01*
X0402363Y0249626D02*
X0409117Y0249626D01*
X0409117Y0251199D02*
X0402777Y0251199D01*
X0402529Y0252772D02*
X0409117Y0252772D01*
X0409117Y0254346D02*
X0401442Y0254346D01*
X0409117Y0255919D02*
X0386049Y0255919D01*
X0387645Y0254346D02*
X0388464Y0254346D01*
X0393568Y0254346D02*
X0396338Y0254346D01*
X0395251Y0252772D02*
X0394655Y0252772D01*
X0394903Y0251199D02*
X0395002Y0251199D01*
X0395417Y0249626D02*
X0394488Y0249626D01*
X0393092Y0248052D02*
X0396813Y0248052D01*
X0388939Y0248052D02*
X0387272Y0248052D01*
X0379012Y0248052D02*
X0377614Y0248052D01*
X0375268Y0248052D02*
X0375268Y0248052D01*
X0375268Y0247313D02*
X0375268Y0251400D01*
X0375268Y0251400D01*
X0375268Y0255487D01*
X0374946Y0255487D01*
X0374311Y0255387D01*
X0373699Y0255188D01*
X0373125Y0254896D01*
X0372605Y0254518D01*
X0372150Y0254063D01*
X0371772Y0253542D01*
X0371480Y0252969D01*
X0371281Y0252357D01*
X0371180Y0251722D01*
X0371180Y0251400D01*
X0371180Y0251078D01*
X0371281Y0250443D01*
X0371480Y0249831D01*
X0371772Y0249258D01*
X0372150Y0248737D01*
X0372605Y0248282D01*
X0373125Y0247904D01*
X0373699Y0247612D01*
X0374311Y0247413D01*
X0374946Y0247313D01*
X0375268Y0247313D01*
X0375268Y0249626D02*
X0375268Y0249626D01*
X0375268Y0251199D02*
X0375268Y0251199D01*
X0375268Y0251400D02*
X0371180Y0251400D01*
X0375268Y0251400D01*
X0375268Y0251400D01*
X0375268Y0252772D02*
X0375268Y0252772D01*
X0375268Y0254346D02*
X0375268Y0254346D01*
X0378103Y0254346D02*
X0378639Y0254346D01*
X0380235Y0255919D02*
X0343139Y0255919D01*
X0343102Y0256035D02*
X0343325Y0255348D01*
X0343438Y0254635D01*
X0343438Y0254487D01*
X0339063Y0254487D01*
X0338638Y0254487D01*
X0338638Y0258861D01*
X0338489Y0258861D01*
X0337776Y0258748D01*
X0337089Y0258525D01*
X0336446Y0258198D01*
X0335862Y0257773D01*
X0335351Y0257262D01*
X0334927Y0256678D01*
X0334599Y0256035D01*
X0334376Y0255348D01*
X0334263Y0254635D01*
X0334263Y0254487D01*
X0338638Y0254487D01*
X0338638Y0254061D01*
X0339063Y0254061D01*
X0339063Y0249687D01*
X0339211Y0249687D01*
X0339925Y0249800D01*
X0340611Y0250023D01*
X0341255Y0250351D01*
X0341839Y0250775D01*
X0342349Y0251286D01*
X0342774Y0251870D01*
X0343102Y0252513D01*
X0343325Y0253200D01*
X0343438Y0253913D01*
X0343438Y0254061D01*
X0339063Y0254061D01*
X0339063Y0254487D01*
X0339063Y0258861D01*
X0339211Y0258861D01*
X0339925Y0258748D01*
X0340611Y0258525D01*
X0341255Y0258198D01*
X0341839Y0257773D01*
X0342349Y0257262D01*
X0342774Y0256678D01*
X0343102Y0256035D01*
X0342120Y0257492D02*
X0409117Y0257492D01*
X0409117Y0259066D02*
X0132243Y0259066D01*
X0132129Y0259180D02*
X0131903Y0259274D01*
X0132129Y0259368D01*
X0133757Y0260996D01*
X0134505Y0262802D01*
X0134599Y0262513D01*
X0134927Y0261870D01*
X0135351Y0261286D01*
X0135862Y0260775D01*
X0136446Y0260351D01*
X0137089Y0260023D01*
X0137776Y0259800D01*
X0138489Y0259687D01*
X0138638Y0259687D01*
X0138638Y0264061D01*
X0139063Y0264061D01*
X0139063Y0259687D01*
X0139211Y0259687D01*
X0139925Y0259800D01*
X0140611Y0260023D01*
X0141255Y0260351D01*
X0141839Y0260775D01*
X0142349Y0261286D01*
X0142774Y0261870D01*
X0143102Y0262513D01*
X0143325Y0263200D01*
X0143438Y0263913D01*
X0143438Y0264061D01*
X0139063Y0264061D01*
X0139063Y0264487D01*
X0138638Y0264487D01*
X0138638Y0268861D01*
X0138489Y0268861D01*
X0137776Y0268748D01*
X0137089Y0268525D01*
X0136446Y0268198D01*
X0135862Y0267773D01*
X0135351Y0267263D01*
X0134927Y0266678D01*
X0134599Y0266035D01*
X0134505Y0265746D01*
X0133757Y0267552D01*
X0132129Y0269180D01*
X0130002Y0270061D01*
X0127699Y0270061D01*
X0125572Y0269180D01*
X0123944Y0267552D01*
X0123196Y0265746D01*
X0123102Y0266035D01*
X0122774Y0266678D01*
X0122349Y0267263D01*
X0121839Y0267773D01*
X0121255Y0268198D01*
X0120611Y0268525D01*
X0119925Y0268748D01*
X0119211Y0268861D01*
X0119063Y0268861D01*
X0119063Y0264487D01*
X0118638Y0264487D01*
X0118638Y0268861D01*
X0118489Y0268861D01*
X0117776Y0268748D01*
X0117089Y0268525D01*
X0116446Y0268198D01*
X0115862Y0267773D01*
X0115351Y0267263D01*
X0114927Y0266678D01*
X0114599Y0266035D01*
X0114376Y0265348D01*
X0114263Y0264635D01*
X0114263Y0264487D01*
X0118638Y0264487D01*
X0118638Y0264061D01*
X0114263Y0264061D01*
X0114263Y0263913D01*
X0114376Y0263200D01*
X0114599Y0262513D01*
X0114927Y0261870D01*
X0115351Y0261286D01*
X0115862Y0260775D01*
X0116446Y0260351D01*
X0117089Y0260023D01*
X0117379Y0259929D01*
X0115572Y0259180D01*
X0113944Y0257552D01*
X0113850Y0257326D01*
X0113757Y0257552D01*
X0112129Y0259180D01*
X0110322Y0259929D01*
X0110611Y0260023D01*
X0111255Y0260351D01*
X0111839Y0260775D01*
X0112349Y0261286D01*
X0112774Y0261870D01*
X0113102Y0262513D01*
X0113325Y0263200D01*
X0113438Y0263913D01*
X0113438Y0264061D01*
X0109063Y0264061D01*
X0109063Y0264487D01*
X0108638Y0264487D01*
X0108638Y0268861D01*
X0108489Y0268861D01*
X0107776Y0268748D01*
X0107089Y0268525D01*
X0106446Y0268198D01*
X0105862Y0267773D01*
X0105351Y0267263D01*
X0104927Y0266678D01*
X0104599Y0266035D01*
X0104376Y0265348D01*
X0104263Y0264635D01*
X0104263Y0264487D01*
X0108638Y0264487D01*
X0108638Y0264061D01*
X0104263Y0264061D01*
X0104263Y0263913D01*
X0104376Y0263200D01*
X0104599Y0262513D01*
X0104927Y0261870D01*
X0105351Y0261286D01*
X0105862Y0260775D01*
X0106446Y0260351D01*
X0107089Y0260023D01*
X0107379Y0259929D01*
X0105572Y0259180D01*
X0103944Y0257552D01*
X0103093Y0255497D01*
X0102570Y0256759D01*
X0101336Y0257993D01*
X0099723Y0258661D01*
X0097978Y0258661D01*
X0096365Y0257993D01*
X0095131Y0256759D01*
X0094608Y0255497D01*
X0093757Y0257552D01*
X0092129Y0259180D01*
X0090322Y0259929D01*
X0090611Y0260023D01*
X0091255Y0260351D01*
X0091839Y0260775D01*
X0092349Y0261286D01*
X0092774Y0261870D01*
X0093102Y0262513D01*
X0093325Y0263200D01*
X0093438Y0263913D01*
X0093438Y0264061D01*
X0089063Y0264061D01*
X0089063Y0264487D01*
X0088638Y0264487D01*
X0088638Y0268861D01*
X0088489Y0268861D01*
X0087776Y0268748D01*
X0087089Y0268525D01*
X0086446Y0268198D01*
X0085862Y0267773D01*
X0085351Y0267263D01*
X0084927Y0266678D01*
X0084599Y0266035D01*
X0084376Y0265348D01*
X0084263Y0264635D01*
X0084263Y0264487D01*
X0088638Y0264487D01*
X0088638Y0264061D01*
X0084263Y0264061D01*
X0084263Y0263913D01*
X0084376Y0263200D01*
X0084599Y0262513D01*
X0084927Y0261870D01*
X0085351Y0261286D01*
X0085862Y0260775D01*
X0086446Y0260351D01*
X0087089Y0260023D01*
X0087379Y0259929D01*
X0085572Y0259180D01*
X0083944Y0257552D01*
X0083063Y0255425D01*
X0083063Y0253123D01*
X0083944Y0250996D01*
X0085572Y0249368D01*
X0087699Y0248487D01*
X0090002Y0248487D01*
X0092129Y0249368D01*
X0093757Y0250996D01*
X0094608Y0253051D01*
X0095131Y0251789D01*
X0096365Y0250555D01*
X0097978Y0249887D01*
X0099723Y0249887D01*
X0101336Y0250555D01*
X0102570Y0251789D01*
X0103093Y0253051D01*
X0103944Y0250996D01*
X0105572Y0249368D01*
X0107699Y0248487D01*
X0110002Y0248487D01*
X0112129Y0249368D01*
X0113757Y0250996D01*
X0113850Y0251222D01*
X0113944Y0250996D01*
X0115572Y0249368D01*
X0117699Y0248487D01*
X0120002Y0248487D01*
X0122129Y0249368D01*
X0123757Y0250996D01*
X0123850Y0251222D01*
X0123944Y0250996D01*
X0125572Y0249368D01*
X0127699Y0248487D01*
X0130002Y0248487D01*
X0132129Y0249368D01*
X0133757Y0250996D01*
X0134608Y0253051D01*
X0135131Y0251789D01*
X0136365Y0250555D01*
X0137978Y0249887D01*
X0139723Y0249887D01*
X0141336Y0250555D01*
X0142570Y0251789D01*
X0143238Y0253401D01*
X0143238Y0255147D01*
X0142570Y0256759D01*
X0141336Y0257993D01*
X0139723Y0258661D01*
X0137978Y0258661D01*
X0136365Y0257993D01*
X0135131Y0256759D01*
X0134608Y0255497D01*
X0133757Y0257552D01*
X0132129Y0259180D01*
X0133400Y0260639D02*
X0136049Y0260639D01*
X0134752Y0262212D02*
X0134261Y0262212D01*
X0138638Y0262212D02*
X0139063Y0262212D01*
X0139063Y0260639D02*
X0138638Y0260639D01*
X0141652Y0260639D02*
X0146049Y0260639D01*
X0145862Y0260775D02*
X0146446Y0260351D01*
X0147089Y0260023D01*
X0147776Y0259800D01*
X0148489Y0259687D01*
X0148638Y0259687D01*
X0148638Y0264061D01*
X0149063Y0264061D01*
X0149063Y0259687D01*
X0149211Y0259687D01*
X0149925Y0259800D01*
X0150611Y0260023D01*
X0151255Y0260351D01*
X0151839Y0260775D01*
X0152349Y0261286D01*
X0152774Y0261870D01*
X0153102Y0262513D01*
X0153325Y0263200D01*
X0153438Y0263913D01*
X0153438Y0264061D01*
X0149063Y0264061D01*
X0149063Y0264487D01*
X0148638Y0264487D01*
X0148638Y0268861D01*
X0148489Y0268861D01*
X0147776Y0268748D01*
X0147089Y0268525D01*
X0146446Y0268198D01*
X0145862Y0267773D01*
X0145351Y0267263D01*
X0144927Y0266678D01*
X0144599Y0266035D01*
X0144376Y0265348D01*
X0144263Y0264635D01*
X0144263Y0264487D01*
X0148638Y0264487D01*
X0148638Y0264061D01*
X0144263Y0264061D01*
X0144263Y0263913D01*
X0144376Y0263200D01*
X0144599Y0262513D01*
X0144927Y0261870D01*
X0145351Y0261286D01*
X0145862Y0260775D01*
X0144752Y0262212D02*
X0142948Y0262212D01*
X0143418Y0263786D02*
X0144283Y0263786D01*
X0143438Y0264487D02*
X0143438Y0264635D01*
X0143325Y0265348D01*
X0143102Y0266035D01*
X0142774Y0266678D01*
X0142349Y0267263D01*
X0141839Y0267773D01*
X0141255Y0268198D01*
X0140611Y0268525D01*
X0139925Y0268748D01*
X0139211Y0268861D01*
X0139063Y0268861D01*
X0139063Y0264487D01*
X0143438Y0264487D01*
X0143321Y0265359D02*
X0144379Y0265359D01*
X0145111Y0266932D02*
X0142589Y0266932D01*
X0140650Y0268505D02*
X0147051Y0268505D01*
X0148638Y0268505D02*
X0149063Y0268505D01*
X0149063Y0268861D02*
X0149211Y0268861D01*
X0149925Y0268748D01*
X0150611Y0268525D01*
X0151255Y0268198D01*
X0151839Y0267773D01*
X0152349Y0267263D01*
X0152774Y0266678D01*
X0153102Y0266035D01*
X0153325Y0265348D01*
X0153438Y0264635D01*
X0153438Y0264487D01*
X0149063Y0264487D01*
X0149063Y0268861D01*
X0150650Y0268505D02*
X0157601Y0268505D01*
X0157978Y0268661D02*
X0156365Y0267993D01*
X0155131Y0266759D01*
X0154463Y0265147D01*
X0154463Y0263401D01*
X0155131Y0261789D01*
X0156365Y0260555D01*
X0157978Y0259887D01*
X0159723Y0259887D01*
X0161336Y0260555D01*
X0162570Y0261789D01*
X0163238Y0263401D01*
X0163238Y0265147D01*
X0162570Y0266759D01*
X0161336Y0267993D01*
X0159723Y0268661D01*
X0157978Y0268661D01*
X0160100Y0268505D02*
X0167601Y0268505D01*
X0167978Y0268661D02*
X0166365Y0267993D01*
X0165131Y0266759D01*
X0164463Y0265147D01*
X0164463Y0263401D01*
X0165131Y0261789D01*
X0166365Y0260555D01*
X0167978Y0259887D01*
X0169723Y0259887D01*
X0171336Y0260555D01*
X0172570Y0261789D01*
X0173238Y0263401D01*
X0173238Y0265147D01*
X0172570Y0266759D01*
X0171336Y0267993D01*
X0169723Y0268661D01*
X0167978Y0268661D01*
X0170100Y0268505D02*
X0177601Y0268505D01*
X0177978Y0268661D02*
X0176365Y0267993D01*
X0175131Y0266759D01*
X0174463Y0265147D01*
X0174463Y0263401D01*
X0175131Y0261789D01*
X0176365Y0260555D01*
X0177978Y0259887D01*
X0179723Y0259887D01*
X0181336Y0260555D01*
X0182570Y0261789D01*
X0183238Y0263401D01*
X0183238Y0265147D01*
X0182570Y0266759D01*
X0181336Y0267993D01*
X0179723Y0268661D01*
X0177978Y0268661D01*
X0180100Y0268505D02*
X0187601Y0268505D01*
X0187978Y0268661D02*
X0186365Y0267993D01*
X0185131Y0266759D01*
X0184463Y0265147D01*
X0184463Y0263401D01*
X0185131Y0261789D01*
X0186365Y0260555D01*
X0187978Y0259887D01*
X0189723Y0259887D01*
X0191336Y0260555D01*
X0192570Y0261789D01*
X0193238Y0263401D01*
X0193238Y0265147D01*
X0192570Y0266759D01*
X0191336Y0267993D01*
X0189723Y0268661D01*
X0187978Y0268661D01*
X0190100Y0268505D02*
X0197601Y0268505D01*
X0197978Y0268661D02*
X0196365Y0267993D01*
X0195131Y0266759D01*
X0194463Y0265147D01*
X0194463Y0263401D01*
X0195131Y0261789D01*
X0196365Y0260555D01*
X0197978Y0259887D01*
X0199723Y0259887D01*
X0201336Y0260555D01*
X0202570Y0261789D01*
X0203238Y0263401D01*
X0203238Y0265147D01*
X0202570Y0266759D01*
X0201336Y0267993D01*
X0199723Y0268661D01*
X0197978Y0268661D01*
X0200100Y0268505D02*
X0207601Y0268505D01*
X0207978Y0268661D02*
X0206365Y0267993D01*
X0205131Y0266759D01*
X0204463Y0265147D01*
X0204463Y0263401D01*
X0205131Y0261789D01*
X0206365Y0260555D01*
X0207978Y0259887D01*
X0209723Y0259887D01*
X0211336Y0260555D01*
X0212570Y0261789D01*
X0213238Y0263401D01*
X0213238Y0265147D01*
X0212570Y0266759D01*
X0211336Y0267993D01*
X0209723Y0268661D01*
X0207978Y0268661D01*
X0206757Y0269905D02*
X0207180Y0270926D01*
X0207180Y0272031D01*
X0206757Y0273052D01*
X0205975Y0273834D01*
X0204954Y0274257D01*
X0203849Y0274257D01*
X0202828Y0273834D01*
X0202047Y0273052D01*
X0201624Y0272031D01*
X0201624Y0270926D01*
X0202047Y0269905D01*
X0202828Y0269124D01*
X0203849Y0268701D01*
X0204954Y0268701D01*
X0205975Y0269124D01*
X0206757Y0269905D01*
X0206829Y0270079D02*
X0391563Y0270079D01*
X0392038Y0269882D02*
X0393143Y0269882D01*
X0394164Y0270305D01*
X0394254Y0270395D01*
X0396112Y0269625D01*
X0396112Y0268958D01*
X0396535Y0267937D01*
X0397316Y0267155D01*
X0398337Y0266732D01*
X0399442Y0266732D01*
X0400463Y0267155D01*
X0401245Y0267937D01*
X0401668Y0268958D01*
X0401668Y0269625D01*
X0403526Y0270395D01*
X0403615Y0270305D01*
X0404636Y0269882D01*
X0405742Y0269882D01*
X0406763Y0270305D01*
X0407544Y0271086D01*
X0407967Y0272107D01*
X0407967Y0273212D01*
X0407544Y0274233D01*
X0407454Y0274323D01*
X0408224Y0276181D01*
X0408891Y0276181D01*
X0409117Y0276274D01*
X0409117Y0053297D01*
X0408891Y0053391D01*
X0408224Y0053391D01*
X0407454Y0055248D01*
X0407544Y0055338D01*
X0407967Y0056359D01*
X0407967Y0057464D01*
X0407544Y0058485D01*
X0406763Y0059267D01*
X0405742Y0059690D01*
X0404636Y0059690D01*
X0403615Y0059267D01*
X0403526Y0059177D01*
X0401668Y0059947D01*
X0401668Y0060614D01*
X0401245Y0061635D01*
X0400463Y0062416D01*
X0399442Y0062839D01*
X0398337Y0062839D01*
X0397316Y0062416D01*
X0396535Y0061635D01*
X0396112Y0060614D01*
X0396112Y0059947D01*
X0394254Y0059177D01*
X0394164Y0059267D01*
X0393143Y0059690D01*
X0392038Y0059690D01*
X0391017Y0059267D01*
X0390236Y0058485D01*
X0389813Y0057464D01*
X0389813Y0056359D01*
X0390236Y0055338D01*
X0390325Y0055248D01*
X0389556Y0053391D01*
X0388888Y0053391D01*
X0387867Y0052968D01*
X0387086Y0052186D01*
X0386663Y0051165D01*
X0386663Y0050060D01*
X0387086Y0049039D01*
X0387867Y0048258D01*
X0388888Y0047835D01*
X0389556Y0047835D01*
X0390325Y0045977D01*
X0390236Y0045887D01*
X0389813Y0044866D01*
X0389813Y0043761D01*
X0390236Y0042740D01*
X0391017Y0041958D01*
X0392038Y0041535D01*
X0393143Y0041535D01*
X0394164Y0041958D01*
X0394254Y0042048D01*
X0396112Y0041279D01*
X0396112Y0040611D01*
X0396205Y0040386D01*
X0031496Y0040386D01*
X0031589Y0040611D01*
X0031589Y0041279D01*
X0033447Y0042048D01*
X0033537Y0041958D01*
X0034558Y0041535D01*
X0035663Y0041535D01*
X0036684Y0041958D01*
X0037465Y0042740D01*
X0037888Y0043761D01*
X0037888Y0044866D01*
X0037465Y0045887D01*
X0037375Y0045977D01*
X0038145Y0047835D01*
X0038812Y0047835D01*
X0039833Y0048258D01*
X0040615Y0049039D01*
X0041038Y0050060D01*
X0041038Y0051165D01*
X0040615Y0052186D01*
X0039833Y0052968D01*
X0038812Y0053391D01*
X0038145Y0053391D01*
X0037375Y0055248D01*
X0037465Y0055338D01*
X0037888Y0056359D01*
X0037888Y0057464D01*
X0037465Y0058485D01*
X0036684Y0059267D01*
X0035663Y0059690D01*
X0034558Y0059690D01*
X0033537Y0059267D01*
X0033447Y0059177D01*
X0031589Y0059947D01*
X0031589Y0060614D01*
X0031166Y0061635D01*
X0030385Y0062416D01*
X0029364Y0062839D01*
X0028258Y0062839D01*
X0027237Y0062416D01*
X0026456Y0061635D01*
X0026033Y0060614D01*
X0026033Y0059947D01*
X0024175Y0059177D01*
X0024085Y0059267D01*
X0023064Y0059690D01*
X0021959Y0059690D01*
X0020938Y0059267D01*
X0020157Y0058485D01*
X0019734Y0057464D01*
X0019734Y0056359D01*
X0020157Y0055338D01*
X0020247Y0055248D01*
X0019477Y0053391D01*
X0018810Y0053391D01*
X0018584Y0053297D01*
X0018584Y0276274D01*
X0018810Y0276181D01*
X0019477Y0276181D01*
X0020247Y0274323D01*
X0020157Y0274233D01*
X0019734Y0273212D01*
X0019734Y0272107D01*
X0020157Y0271086D01*
X0020938Y0270305D01*
X0021959Y0269882D01*
X0023064Y0269882D01*
X0024085Y0270305D01*
X0024175Y0270395D01*
X0026033Y0269625D01*
X0026033Y0268958D01*
X0026456Y0267937D01*
X0027237Y0267155D01*
X0028258Y0266732D01*
X0029364Y0266732D01*
X0030385Y0267155D01*
X0031166Y0267937D01*
X0031589Y0268958D01*
X0031589Y0269625D01*
X0033447Y0270395D01*
X0033537Y0270305D01*
X0034558Y0269882D01*
X0035663Y0269882D01*
X0036684Y0270305D01*
X0037465Y0271086D01*
X0037888Y0272107D01*
X0037888Y0273212D01*
X0037465Y0274233D01*
X0037375Y0274323D01*
X0038145Y0276181D01*
X0038812Y0276181D01*
X0039833Y0276604D01*
X0040615Y0277385D01*
X0041038Y0278406D01*
X0041038Y0279512D01*
X0040615Y0280533D01*
X0039833Y0281314D01*
X0038812Y0281737D01*
X0038145Y0281737D01*
X0037375Y0283595D01*
X0037465Y0283685D01*
X0037888Y0284706D01*
X0037888Y0285811D01*
X0037465Y0286832D01*
X0036684Y0287613D01*
X0035663Y0288036D01*
X0034558Y0288036D01*
X0033537Y0287613D01*
X0033447Y0287524D01*
X0031589Y0288293D01*
X0031589Y0288960D01*
X0031496Y0289186D01*
X0396205Y0289186D01*
X0396112Y0288960D01*
X0396112Y0288293D01*
X0394254Y0287524D01*
X0394164Y0287613D01*
X0393143Y0288036D01*
X0392038Y0288036D01*
X0391017Y0287613D01*
X0390236Y0286832D01*
X0389813Y0285811D01*
X0389813Y0284706D01*
X0390236Y0283685D01*
X0390325Y0283595D01*
X0389556Y0281737D01*
X0388888Y0281737D01*
X0387867Y0281314D01*
X0387086Y0280533D01*
X0386663Y0279512D01*
X0386663Y0278406D01*
X0387086Y0277385D01*
X0387867Y0276604D01*
X0388888Y0276181D01*
X0389556Y0276181D01*
X0390325Y0274323D01*
X0390236Y0274233D01*
X0389813Y0273212D01*
X0389813Y0272107D01*
X0390236Y0271086D01*
X0391017Y0270305D01*
X0392038Y0269882D01*
X0393618Y0270079D02*
X0395016Y0270079D01*
X0396299Y0268505D02*
X0340650Y0268505D01*
X0340611Y0268525D02*
X0339925Y0268748D01*
X0339211Y0268861D01*
X0339063Y0268861D01*
X0339063Y0264487D01*
X0338638Y0264487D01*
X0338638Y0268861D01*
X0338489Y0268861D01*
X0337776Y0268748D01*
X0337089Y0268525D01*
X0336446Y0268198D01*
X0335862Y0267773D01*
X0335351Y0267263D01*
X0334927Y0266678D01*
X0334599Y0266035D01*
X0334376Y0265348D01*
X0334263Y0264635D01*
X0334263Y0264487D01*
X0338638Y0264487D01*
X0338638Y0264061D01*
X0339063Y0264061D01*
X0339063Y0259687D01*
X0339211Y0259687D01*
X0339925Y0259800D01*
X0340611Y0260023D01*
X0341255Y0260351D01*
X0341839Y0260775D01*
X0342349Y0261286D01*
X0342774Y0261870D01*
X0343102Y0262513D01*
X0343325Y0263200D01*
X0343438Y0263913D01*
X0343438Y0264061D01*
X0339063Y0264061D01*
X0339063Y0264487D01*
X0343438Y0264487D01*
X0343438Y0264635D01*
X0343325Y0265348D01*
X0343102Y0266035D01*
X0342774Y0266678D01*
X0342349Y0267263D01*
X0341839Y0267773D01*
X0341255Y0268198D01*
X0340611Y0268525D01*
X0339063Y0268505D02*
X0338638Y0268505D01*
X0338638Y0266932D02*
X0339063Y0266932D01*
X0339063Y0265359D02*
X0338638Y0265359D01*
X0338638Y0264061D02*
X0334263Y0264061D01*
X0334263Y0263913D01*
X0334376Y0263200D01*
X0334599Y0262513D01*
X0334927Y0261870D01*
X0335351Y0261286D01*
X0335862Y0260775D01*
X0336446Y0260351D01*
X0337089Y0260023D01*
X0337776Y0259800D01*
X0338489Y0259687D01*
X0338638Y0259687D01*
X0338638Y0264061D01*
X0338638Y0263786D02*
X0339063Y0263786D01*
X0339063Y0262212D02*
X0338638Y0262212D01*
X0338638Y0260639D02*
X0339063Y0260639D01*
X0341652Y0260639D02*
X0409117Y0260639D01*
X0409117Y0262212D02*
X0342948Y0262212D01*
X0343418Y0263786D02*
X0409117Y0263786D01*
X0409117Y0265359D02*
X0343321Y0265359D01*
X0342589Y0266932D02*
X0397855Y0266932D01*
X0399925Y0266932D02*
X0409117Y0266932D01*
X0409117Y0268505D02*
X0401480Y0268505D01*
X0402763Y0270079D02*
X0404161Y0270079D01*
X0406217Y0270079D02*
X0409117Y0270079D01*
X0409117Y0271652D02*
X0407778Y0271652D01*
X0407962Y0273225D02*
X0409117Y0273225D01*
X0409117Y0274799D02*
X0407651Y0274799D01*
X0390128Y0274799D02*
X0194380Y0274799D01*
X0194164Y0275015D02*
X0194946Y0274233D01*
X0195368Y0273212D01*
X0195368Y0272107D01*
X0194946Y0271086D01*
X0194164Y0270305D01*
X0193143Y0269882D01*
X0192038Y0269882D01*
X0191017Y0270305D01*
X0190236Y0271086D01*
X0189813Y0272107D01*
X0189813Y0273212D01*
X0190236Y0274233D01*
X0191017Y0275015D01*
X0192038Y0275438D01*
X0193143Y0275438D01*
X0194164Y0275015D01*
X0195363Y0273225D02*
X0202220Y0273225D01*
X0201624Y0271652D02*
X0195180Y0271652D01*
X0193618Y0270079D02*
X0201975Y0270079D01*
X0202397Y0266932D02*
X0205304Y0266932D01*
X0204551Y0265359D02*
X0203150Y0265359D01*
X0203238Y0263786D02*
X0204463Y0263786D01*
X0204956Y0262212D02*
X0202745Y0262212D01*
X0201420Y0260639D02*
X0206281Y0260639D01*
X0207978Y0258661D02*
X0206365Y0257993D01*
X0205131Y0256759D01*
X0204463Y0255147D01*
X0204463Y0253401D01*
X0205131Y0251789D01*
X0206365Y0250555D01*
X0207978Y0249887D01*
X0209723Y0249887D01*
X0211336Y0250555D01*
X0212570Y0251789D01*
X0213238Y0253401D01*
X0213238Y0255147D01*
X0212570Y0256759D01*
X0211336Y0257993D01*
X0209723Y0258661D01*
X0207978Y0258661D01*
X0205864Y0257492D02*
X0201837Y0257492D01*
X0201336Y0257993D02*
X0199723Y0258661D01*
X0197978Y0258661D01*
X0196365Y0257993D01*
X0195131Y0256759D01*
X0194463Y0255147D01*
X0194463Y0253401D01*
X0195131Y0251789D01*
X0196365Y0250555D01*
X0197978Y0249887D01*
X0199723Y0249887D01*
X0201336Y0250555D01*
X0202570Y0251789D01*
X0203238Y0253401D01*
X0203238Y0255147D01*
X0202570Y0256759D01*
X0201336Y0257993D01*
X0202918Y0255919D02*
X0204783Y0255919D01*
X0204463Y0254346D02*
X0203238Y0254346D01*
X0202977Y0252772D02*
X0204723Y0252772D01*
X0205721Y0251199D02*
X0201980Y0251199D01*
X0195721Y0251199D02*
X0191980Y0251199D01*
X0192570Y0251789D02*
X0193238Y0253401D01*
X0193238Y0255147D01*
X0192570Y0256759D01*
X0191336Y0257993D01*
X0189723Y0258661D01*
X0187978Y0258661D01*
X0186365Y0257993D01*
X0185131Y0256759D01*
X0184463Y0255147D01*
X0184463Y0253401D01*
X0185131Y0251789D01*
X0186365Y0250555D01*
X0187978Y0249887D01*
X0189723Y0249887D01*
X0191336Y0250555D01*
X0192570Y0251789D01*
X0192977Y0252772D02*
X0194723Y0252772D01*
X0194463Y0254346D02*
X0193238Y0254346D01*
X0192918Y0255919D02*
X0194783Y0255919D01*
X0195864Y0257492D02*
X0191837Y0257492D01*
X0191420Y0260639D02*
X0196281Y0260639D01*
X0194956Y0262212D02*
X0192745Y0262212D01*
X0193238Y0263786D02*
X0194463Y0263786D01*
X0194551Y0265359D02*
X0193150Y0265359D01*
X0192397Y0266932D02*
X0195304Y0266932D01*
X0191563Y0270079D02*
X0036138Y0270079D01*
X0034082Y0270079D02*
X0032685Y0270079D01*
X0031402Y0268505D02*
X0087051Y0268505D01*
X0088638Y0268505D02*
X0089063Y0268505D01*
X0089063Y0268861D02*
X0089063Y0264487D01*
X0093438Y0264487D01*
X0093438Y0264635D01*
X0093325Y0265348D01*
X0093102Y0266035D01*
X0092774Y0266678D01*
X0092349Y0267263D01*
X0091839Y0267773D01*
X0091255Y0268198D01*
X0090611Y0268525D01*
X0089925Y0268748D01*
X0089211Y0268861D01*
X0089063Y0268861D01*
X0090650Y0268505D02*
X0097051Y0268505D01*
X0097089Y0268525D02*
X0096446Y0268198D01*
X0095862Y0267773D01*
X0095351Y0267263D01*
X0094927Y0266678D01*
X0094599Y0266035D01*
X0094376Y0265348D01*
X0094263Y0264635D01*
X0094263Y0264487D01*
X0098638Y0264487D01*
X0098638Y0268861D01*
X0098489Y0268861D01*
X0097776Y0268748D01*
X0097089Y0268525D01*
X0098638Y0268505D02*
X0099063Y0268505D01*
X0099063Y0268861D02*
X0099211Y0268861D01*
X0099925Y0268748D01*
X0100611Y0268525D01*
X0101255Y0268198D01*
X0101839Y0267773D01*
X0102349Y0267263D01*
X0102774Y0266678D01*
X0103102Y0266035D01*
X0103325Y0265348D01*
X0103438Y0264635D01*
X0103438Y0264487D01*
X0099063Y0264487D01*
X0098638Y0264487D01*
X0098638Y0264061D01*
X0099063Y0264061D01*
X0099063Y0259687D01*
X0099211Y0259687D01*
X0099925Y0259800D01*
X0100611Y0260023D01*
X0101255Y0260351D01*
X0101839Y0260775D01*
X0102349Y0261286D01*
X0102774Y0261870D01*
X0103102Y0262513D01*
X0103325Y0263200D01*
X0103438Y0263913D01*
X0103438Y0264061D01*
X0099063Y0264061D01*
X0099063Y0264487D01*
X0099063Y0268861D01*
X0100650Y0268505D02*
X0107051Y0268505D01*
X0108638Y0268505D02*
X0109063Y0268505D01*
X0109063Y0268861D02*
X0109063Y0264487D01*
X0113438Y0264487D01*
X0113438Y0264635D01*
X0113325Y0265348D01*
X0113102Y0266035D01*
X0112774Y0266678D01*
X0112349Y0267263D01*
X0111839Y0267773D01*
X0111255Y0268198D01*
X0110611Y0268525D01*
X0109925Y0268748D01*
X0109211Y0268861D01*
X0109063Y0268861D01*
X0110650Y0268505D02*
X0117051Y0268505D01*
X0118638Y0268505D02*
X0119063Y0268505D01*
X0119063Y0266932D02*
X0118638Y0266932D01*
X0118638Y0265359D02*
X0119063Y0265359D01*
X0120650Y0268505D02*
X0124897Y0268505D01*
X0123687Y0266932D02*
X0122589Y0266932D01*
X0115111Y0266932D02*
X0112589Y0266932D01*
X0113321Y0265359D02*
X0114379Y0265359D01*
X0114283Y0263786D02*
X0113418Y0263786D01*
X0112948Y0262212D02*
X0114752Y0262212D01*
X0116049Y0260639D02*
X0111652Y0260639D01*
X0112243Y0259066D02*
X0115457Y0259066D01*
X0113919Y0257492D02*
X0113782Y0257492D01*
X0113841Y0251199D02*
X0113860Y0251199D01*
X0115314Y0249626D02*
X0112387Y0249626D01*
X0105314Y0249626D02*
X0092387Y0249626D01*
X0093841Y0251199D02*
X0095721Y0251199D01*
X0094724Y0252772D02*
X0094493Y0252772D01*
X0094433Y0255919D02*
X0094783Y0255919D01*
X0093782Y0257492D02*
X0095864Y0257492D01*
X0097089Y0260023D02*
X0097776Y0259800D01*
X0098489Y0259687D01*
X0098638Y0259687D01*
X0098638Y0264061D01*
X0094263Y0264061D01*
X0094263Y0263913D01*
X0094376Y0263200D01*
X0094599Y0262513D01*
X0094927Y0261870D01*
X0095351Y0261286D01*
X0095862Y0260775D01*
X0096446Y0260351D01*
X0097089Y0260023D01*
X0096049Y0260639D02*
X0091652Y0260639D01*
X0092243Y0259066D02*
X0105457Y0259066D01*
X0106049Y0260639D02*
X0101652Y0260639D01*
X0102948Y0262212D02*
X0104752Y0262212D01*
X0104283Y0263786D02*
X0103418Y0263786D01*
X0103321Y0265359D02*
X0104379Y0265359D01*
X0105111Y0266932D02*
X0102589Y0266932D01*
X0099063Y0266932D02*
X0098638Y0266932D01*
X0098638Y0265359D02*
X0099063Y0265359D01*
X0099063Y0263786D02*
X0098638Y0263786D01*
X0098638Y0262212D02*
X0099063Y0262212D01*
X0099063Y0260639D02*
X0098638Y0260639D01*
X0094752Y0262212D02*
X0092948Y0262212D01*
X0093418Y0263786D02*
X0094283Y0263786D01*
X0094379Y0265359D02*
X0093321Y0265359D01*
X0092589Y0266932D02*
X0095111Y0266932D01*
X0089063Y0266932D02*
X0088638Y0266932D01*
X0088638Y0265359D02*
X0089063Y0265359D01*
X0085111Y0266932D02*
X0029846Y0266932D01*
X0027776Y0266932D02*
X0018584Y0266932D01*
X0018584Y0265359D02*
X0084379Y0265359D01*
X0084283Y0263786D02*
X0018584Y0263786D01*
X0018584Y0262212D02*
X0084752Y0262212D01*
X0086049Y0260639D02*
X0028035Y0260639D01*
X0028135Y0260572D02*
X0027550Y0260963D01*
X0026900Y0261232D01*
X0026210Y0261369D01*
X0025858Y0261369D01*
X0025506Y0261369D01*
X0024816Y0261232D01*
X0024166Y0260963D01*
X0023581Y0260572D01*
X0023084Y0260074D01*
X0022693Y0259489D01*
X0022424Y0258839D01*
X0022287Y0258149D01*
X0022287Y0257798D01*
X0025858Y0257798D01*
X0025858Y0261369D01*
X0025858Y0257798D01*
X0025858Y0257798D01*
X0025858Y0257798D01*
X0022287Y0257798D01*
X0022287Y0257446D01*
X0022424Y0256756D01*
X0022693Y0256106D01*
X0023084Y0255521D01*
X0023581Y0255023D01*
X0024166Y0254632D01*
X0024816Y0254363D01*
X0025506Y0254226D01*
X0025858Y0254226D01*
X0025858Y0257798D01*
X0029430Y0257798D01*
X0029430Y0258149D01*
X0029293Y0258839D01*
X0029023Y0259489D01*
X0028633Y0260074D01*
X0028135Y0260572D01*
X0029199Y0259066D02*
X0085457Y0259066D01*
X0083919Y0257492D02*
X0029430Y0257492D01*
X0029430Y0257446D02*
X0029430Y0257798D01*
X0025858Y0257798D01*
X0025858Y0257798D01*
X0025858Y0257798D01*
X0025858Y0254226D01*
X0026210Y0254226D01*
X0026900Y0254363D01*
X0027550Y0254632D01*
X0028135Y0255023D01*
X0028633Y0255521D01*
X0029023Y0256106D01*
X0029293Y0256756D01*
X0029430Y0257446D01*
X0028899Y0255919D02*
X0033808Y0255919D01*
X0033889Y0256000D02*
X0033364Y0255476D01*
X0032952Y0254858D01*
X0032668Y0254172D01*
X0032523Y0253444D01*
X0032523Y0253073D01*
X0032523Y0252702D01*
X0032668Y0251974D01*
X0032952Y0251288D01*
X0033364Y0250671D01*
X0033889Y0250146D01*
X0034506Y0249734D01*
X0035192Y0249450D01*
X0035920Y0249305D01*
X0036291Y0249305D01*
X0036291Y0253073D01*
X0032523Y0253073D01*
X0036291Y0253073D01*
X0036291Y0253073D01*
X0036291Y0253073D01*
X0036291Y0249305D01*
X0036663Y0249305D01*
X0037391Y0249450D01*
X0038076Y0249734D01*
X0038694Y0250146D01*
X0039219Y0250671D01*
X0039631Y0251288D01*
X0039915Y0251974D01*
X0040060Y0252702D01*
X0040060Y0253073D01*
X0036291Y0253073D01*
X0036291Y0256842D01*
X0035920Y0256842D01*
X0035192Y0256697D01*
X0034506Y0256413D01*
X0033889Y0256000D01*
X0032739Y0254346D02*
X0026812Y0254346D01*
X0025858Y0254346D02*
X0025858Y0254346D01*
X0024905Y0254346D02*
X0018584Y0254346D01*
X0018584Y0255919D02*
X0022818Y0255919D01*
X0022287Y0257492D02*
X0018584Y0257492D01*
X0018584Y0259066D02*
X0022518Y0259066D01*
X0023682Y0260639D02*
X0018584Y0260639D01*
X0025858Y0260639D02*
X0025858Y0260639D01*
X0025858Y0259066D02*
X0025858Y0259066D01*
X0025858Y0257492D02*
X0025858Y0257492D01*
X0025858Y0255919D02*
X0025858Y0255919D01*
X0032523Y0252772D02*
X0018584Y0252772D01*
X0018584Y0251199D02*
X0033011Y0251199D01*
X0034767Y0249626D02*
X0018584Y0249626D01*
X0018584Y0248052D02*
X0372921Y0248052D01*
X0371584Y0249626D02*
X0132387Y0249626D01*
X0133841Y0251199D02*
X0135721Y0251199D01*
X0134724Y0252772D02*
X0134493Y0252772D01*
X0134433Y0255919D02*
X0134783Y0255919D01*
X0133782Y0257492D02*
X0135864Y0257492D01*
X0141837Y0257492D02*
X0145864Y0257492D01*
X0146365Y0257993D02*
X0145131Y0256759D01*
X0144463Y0255147D01*
X0144463Y0253401D01*
X0145131Y0251789D01*
X0146365Y0250555D01*
X0147978Y0249887D01*
X0149723Y0249887D01*
X0151336Y0250555D01*
X0152570Y0251789D01*
X0153238Y0253401D01*
X0153238Y0255147D01*
X0152570Y0256759D01*
X0151336Y0257993D01*
X0149723Y0258661D01*
X0147978Y0258661D01*
X0146365Y0257993D01*
X0144783Y0255919D02*
X0142918Y0255919D01*
X0143238Y0254346D02*
X0144463Y0254346D01*
X0144723Y0252772D02*
X0142977Y0252772D01*
X0141980Y0251199D02*
X0145721Y0251199D01*
X0151980Y0251199D02*
X0155721Y0251199D01*
X0155131Y0251789D02*
X0156365Y0250555D01*
X0157978Y0249887D01*
X0159723Y0249887D01*
X0161336Y0250555D01*
X0162570Y0251789D01*
X0163238Y0253401D01*
X0163238Y0255147D01*
X0162570Y0256759D01*
X0161336Y0257993D01*
X0159723Y0258661D01*
X0157978Y0258661D01*
X0156365Y0257993D01*
X0155131Y0256759D01*
X0154463Y0255147D01*
X0154463Y0253401D01*
X0155131Y0251789D01*
X0154723Y0252772D02*
X0152977Y0252772D01*
X0153238Y0254346D02*
X0154463Y0254346D01*
X0154783Y0255919D02*
X0152918Y0255919D01*
X0151837Y0257492D02*
X0155864Y0257492D01*
X0156281Y0260639D02*
X0151652Y0260639D01*
X0152948Y0262212D02*
X0154956Y0262212D01*
X0154463Y0263786D02*
X0153418Y0263786D01*
X0153321Y0265359D02*
X0154551Y0265359D01*
X0155304Y0266932D02*
X0152589Y0266932D01*
X0149063Y0266932D02*
X0148638Y0266932D01*
X0148638Y0265359D02*
X0149063Y0265359D01*
X0149063Y0263786D02*
X0148638Y0263786D01*
X0148638Y0262212D02*
X0149063Y0262212D01*
X0149063Y0260639D02*
X0148638Y0260639D01*
X0139063Y0263786D02*
X0138638Y0263786D01*
X0138638Y0265359D02*
X0139063Y0265359D01*
X0139063Y0266932D02*
X0138638Y0266932D01*
X0138638Y0268505D02*
X0139063Y0268505D01*
X0137051Y0268505D02*
X0132804Y0268505D01*
X0134014Y0266932D02*
X0135111Y0266932D01*
X0123860Y0251199D02*
X0123841Y0251199D01*
X0122387Y0249626D02*
X0125314Y0249626D01*
X0136681Y0240186D02*
X0098284Y0240186D01*
X0099287Y0238613D02*
X0136839Y0238613D01*
X0138338Y0237039D02*
X0099131Y0237039D01*
X0097635Y0235466D02*
X0356940Y0235466D01*
X0359881Y0237039D02*
X0140544Y0237039D01*
X0161980Y0251199D02*
X0165721Y0251199D01*
X0165131Y0251789D02*
X0166365Y0250555D01*
X0167978Y0249887D01*
X0169723Y0249887D01*
X0171336Y0250555D01*
X0172570Y0251789D01*
X0173238Y0253401D01*
X0173238Y0255147D01*
X0172570Y0256759D01*
X0171336Y0257993D01*
X0169723Y0258661D01*
X0167978Y0258661D01*
X0166365Y0257993D01*
X0165131Y0256759D01*
X0164463Y0255147D01*
X0164463Y0253401D01*
X0165131Y0251789D01*
X0164723Y0252772D02*
X0162977Y0252772D01*
X0163238Y0254346D02*
X0164463Y0254346D01*
X0164783Y0255919D02*
X0162918Y0255919D01*
X0161837Y0257492D02*
X0165864Y0257492D01*
X0166281Y0260639D02*
X0161420Y0260639D01*
X0162745Y0262212D02*
X0164956Y0262212D01*
X0164463Y0263786D02*
X0163238Y0263786D01*
X0163150Y0265359D02*
X0164551Y0265359D01*
X0165304Y0266932D02*
X0162397Y0266932D01*
X0172397Y0266932D02*
X0175304Y0266932D01*
X0174551Y0265359D02*
X0173150Y0265359D01*
X0173238Y0263786D02*
X0174463Y0263786D01*
X0174956Y0262212D02*
X0172745Y0262212D01*
X0171420Y0260639D02*
X0176281Y0260639D01*
X0177978Y0258661D02*
X0176365Y0257993D01*
X0175131Y0256759D01*
X0174463Y0255147D01*
X0174463Y0253401D01*
X0175131Y0251789D01*
X0176365Y0250555D01*
X0177978Y0249887D01*
X0179723Y0249887D01*
X0181336Y0250555D01*
X0182570Y0251789D01*
X0183238Y0253401D01*
X0183238Y0255147D01*
X0182570Y0256759D01*
X0181336Y0257993D01*
X0179723Y0258661D01*
X0177978Y0258661D01*
X0175864Y0257492D02*
X0171837Y0257492D01*
X0172918Y0255919D02*
X0174783Y0255919D01*
X0174463Y0254346D02*
X0173238Y0254346D01*
X0172977Y0252772D02*
X0174723Y0252772D01*
X0175721Y0251199D02*
X0171980Y0251199D01*
X0181837Y0257492D02*
X0185864Y0257492D01*
X0184783Y0255919D02*
X0182918Y0255919D01*
X0183238Y0254346D02*
X0184463Y0254346D01*
X0184723Y0252772D02*
X0182977Y0252772D01*
X0181980Y0251199D02*
X0185721Y0251199D01*
X0186281Y0260639D02*
X0181420Y0260639D01*
X0182745Y0262212D02*
X0184956Y0262212D01*
X0184463Y0263786D02*
X0183238Y0263786D01*
X0183150Y0265359D02*
X0184551Y0265359D01*
X0185304Y0266932D02*
X0182397Y0266932D01*
X0190001Y0271652D02*
X0037700Y0271652D01*
X0037883Y0273225D02*
X0189818Y0273225D01*
X0190801Y0274799D02*
X0037572Y0274799D01*
X0039273Y0276372D02*
X0388427Y0276372D01*
X0386854Y0277945D02*
X0040847Y0277945D01*
X0041035Y0279519D02*
X0386666Y0279519D01*
X0387645Y0281092D02*
X0040055Y0281092D01*
X0037761Y0282665D02*
X0389940Y0282665D01*
X0390006Y0284239D02*
X0037695Y0284239D01*
X0037888Y0285812D02*
X0389813Y0285812D01*
X0390789Y0287385D02*
X0036912Y0287385D01*
X0031589Y0288959D02*
X0396112Y0288959D01*
X0389818Y0273225D02*
X0206583Y0273225D01*
X0207180Y0271652D02*
X0390001Y0271652D01*
X0372433Y0254346D02*
X0339063Y0254346D01*
X0338638Y0254346D02*
X0333238Y0254346D01*
X0333238Y0255147D02*
X0332570Y0256759D01*
X0331336Y0257993D01*
X0329723Y0258661D01*
X0327978Y0258661D01*
X0326365Y0257993D01*
X0325131Y0256759D01*
X0324463Y0255147D01*
X0324463Y0253401D01*
X0325131Y0251789D01*
X0326365Y0250555D01*
X0327978Y0249887D01*
X0329723Y0249887D01*
X0331336Y0250555D01*
X0332570Y0251789D01*
X0333238Y0253401D01*
X0333238Y0255147D01*
X0332918Y0255919D02*
X0334561Y0255919D01*
X0335581Y0257492D02*
X0331837Y0257492D01*
X0331336Y0260555D02*
X0332570Y0261789D01*
X0333238Y0263401D01*
X0333238Y0265147D01*
X0332570Y0266759D01*
X0331336Y0267993D01*
X0329723Y0268661D01*
X0327978Y0268661D01*
X0326365Y0267993D01*
X0325131Y0266759D01*
X0324463Y0265147D01*
X0324463Y0263401D01*
X0325131Y0261789D01*
X0326365Y0260555D01*
X0327978Y0259887D01*
X0329723Y0259887D01*
X0331336Y0260555D01*
X0331420Y0260639D02*
X0336049Y0260639D01*
X0334752Y0262212D02*
X0332745Y0262212D01*
X0333238Y0263786D02*
X0334283Y0263786D01*
X0334379Y0265359D02*
X0333150Y0265359D01*
X0332397Y0266932D02*
X0335111Y0266932D01*
X0337051Y0268505D02*
X0330100Y0268505D01*
X0327601Y0268505D02*
X0320100Y0268505D01*
X0319723Y0268661D02*
X0317978Y0268661D01*
X0316365Y0267993D01*
X0315131Y0266759D01*
X0314463Y0265147D01*
X0314463Y0263401D01*
X0315131Y0261789D01*
X0316365Y0260555D01*
X0317978Y0259887D01*
X0319723Y0259887D01*
X0321336Y0260555D01*
X0322570Y0261789D01*
X0323238Y0263401D01*
X0323238Y0265147D01*
X0322570Y0266759D01*
X0321336Y0267993D01*
X0319723Y0268661D01*
X0317601Y0268505D02*
X0310100Y0268505D01*
X0309723Y0268661D02*
X0311336Y0267993D01*
X0312570Y0266759D01*
X0313238Y0265147D01*
X0313238Y0263401D01*
X0312570Y0261789D01*
X0311336Y0260555D01*
X0309723Y0259887D01*
X0307978Y0259887D01*
X0306365Y0260555D01*
X0305131Y0261789D01*
X0304463Y0263401D01*
X0304463Y0265147D01*
X0305131Y0266759D01*
X0306365Y0267993D01*
X0307978Y0268661D01*
X0309723Y0268661D01*
X0307601Y0268505D02*
X0300100Y0268505D01*
X0299723Y0268661D02*
X0297978Y0268661D01*
X0296365Y0267993D01*
X0295131Y0266759D01*
X0294463Y0265147D01*
X0294463Y0263401D01*
X0295131Y0261789D01*
X0296365Y0260555D01*
X0297978Y0259887D01*
X0299723Y0259887D01*
X0301336Y0260555D01*
X0302570Y0261789D01*
X0303238Y0263401D01*
X0303238Y0265147D01*
X0302570Y0266759D01*
X0301336Y0267993D01*
X0299723Y0268661D01*
X0297601Y0268505D02*
X0290100Y0268505D01*
X0289723Y0268661D02*
X0287978Y0268661D01*
X0286365Y0267993D01*
X0285131Y0266759D01*
X0284463Y0265147D01*
X0284463Y0263401D01*
X0285131Y0261789D01*
X0286365Y0260555D01*
X0287978Y0259887D01*
X0289723Y0259887D01*
X0291336Y0260555D01*
X0292570Y0261789D01*
X0293238Y0263401D01*
X0293238Y0265147D01*
X0292570Y0266759D01*
X0291336Y0267993D01*
X0289723Y0268661D01*
X0287601Y0268505D02*
X0280100Y0268505D01*
X0279723Y0268661D02*
X0277978Y0268661D01*
X0276365Y0267993D01*
X0275131Y0266759D01*
X0274463Y0265147D01*
X0274463Y0263401D01*
X0275131Y0261789D01*
X0276365Y0260555D01*
X0277978Y0259887D01*
X0279723Y0259887D01*
X0281336Y0260555D01*
X0282570Y0261789D01*
X0283238Y0263401D01*
X0283238Y0265147D01*
X0282570Y0266759D01*
X0281336Y0267993D01*
X0279723Y0268661D01*
X0277601Y0268505D02*
X0270100Y0268505D01*
X0269723Y0268661D02*
X0267978Y0268661D01*
X0266365Y0267993D01*
X0265131Y0266759D01*
X0264463Y0265147D01*
X0264463Y0263401D01*
X0265131Y0261789D01*
X0266365Y0260555D01*
X0267978Y0259887D01*
X0269723Y0259887D01*
X0271336Y0260555D01*
X0272570Y0261789D01*
X0273238Y0263401D01*
X0273238Y0265147D01*
X0272570Y0266759D01*
X0271336Y0267993D01*
X0269723Y0268661D01*
X0267601Y0268505D02*
X0260100Y0268505D01*
X0259723Y0268661D02*
X0257978Y0268661D01*
X0256365Y0267993D01*
X0255131Y0266759D01*
X0254463Y0265147D01*
X0254463Y0263401D01*
X0255131Y0261789D01*
X0256365Y0260555D01*
X0257978Y0259887D01*
X0259723Y0259887D01*
X0261336Y0260555D01*
X0262570Y0261789D01*
X0263238Y0263401D01*
X0263238Y0265147D01*
X0262570Y0266759D01*
X0261336Y0267993D01*
X0259723Y0268661D01*
X0257601Y0268505D02*
X0250100Y0268505D01*
X0249723Y0268661D02*
X0247978Y0268661D01*
X0246365Y0267993D01*
X0245131Y0266759D01*
X0244463Y0265147D01*
X0244463Y0263401D01*
X0245131Y0261789D01*
X0246365Y0260555D01*
X0247978Y0259887D01*
X0249723Y0259887D01*
X0251336Y0260555D01*
X0252570Y0261789D01*
X0253238Y0263401D01*
X0253238Y0265147D01*
X0252570Y0266759D01*
X0251336Y0267993D01*
X0249723Y0268661D01*
X0247601Y0268505D02*
X0240100Y0268505D01*
X0239723Y0268661D02*
X0241336Y0267993D01*
X0242570Y0266759D01*
X0243238Y0265147D01*
X0243238Y0263401D01*
X0242570Y0261789D01*
X0241336Y0260555D01*
X0239723Y0259887D01*
X0237978Y0259887D01*
X0236365Y0260555D01*
X0235131Y0261789D01*
X0234463Y0263401D01*
X0234463Y0265147D01*
X0235131Y0266759D01*
X0236365Y0267993D01*
X0237978Y0268661D01*
X0239723Y0268661D01*
X0237601Y0268505D02*
X0230100Y0268505D01*
X0229723Y0268661D02*
X0227978Y0268661D01*
X0226365Y0267993D01*
X0225131Y0266759D01*
X0224463Y0265147D01*
X0224463Y0263401D01*
X0225131Y0261789D01*
X0226365Y0260555D01*
X0227978Y0259887D01*
X0229723Y0259887D01*
X0231336Y0260555D01*
X0232570Y0261789D01*
X0233238Y0263401D01*
X0233238Y0265147D01*
X0232570Y0266759D01*
X0231336Y0267993D01*
X0229723Y0268661D01*
X0227601Y0268505D02*
X0220100Y0268505D01*
X0219723Y0268661D02*
X0217978Y0268661D01*
X0216365Y0267993D01*
X0215131Y0266759D01*
X0214463Y0265147D01*
X0214463Y0263401D01*
X0215131Y0261789D01*
X0216365Y0260555D01*
X0217978Y0259887D01*
X0219723Y0259887D01*
X0221336Y0260555D01*
X0222570Y0261789D01*
X0223238Y0263401D01*
X0223238Y0265147D01*
X0222570Y0266759D01*
X0221336Y0267993D01*
X0219723Y0268661D01*
X0217601Y0268505D02*
X0210100Y0268505D01*
X0212397Y0266932D02*
X0215304Y0266932D01*
X0214551Y0265359D02*
X0213150Y0265359D01*
X0213238Y0263786D02*
X0214463Y0263786D01*
X0214956Y0262212D02*
X0212745Y0262212D01*
X0211420Y0260639D02*
X0216281Y0260639D01*
X0217978Y0258661D02*
X0216365Y0257993D01*
X0215131Y0256759D01*
X0214463Y0255147D01*
X0214463Y0253401D01*
X0215131Y0251789D01*
X0216365Y0250555D01*
X0217978Y0249887D01*
X0219723Y0249887D01*
X0221336Y0250555D01*
X0222570Y0251789D01*
X0223238Y0253401D01*
X0223238Y0255147D01*
X0222570Y0256759D01*
X0221336Y0257993D01*
X0219723Y0258661D01*
X0217978Y0258661D01*
X0215864Y0257492D02*
X0211837Y0257492D01*
X0212918Y0255919D02*
X0214783Y0255919D01*
X0214463Y0254346D02*
X0213238Y0254346D01*
X0212977Y0252772D02*
X0214723Y0252772D01*
X0215721Y0251199D02*
X0211980Y0251199D01*
X0221980Y0251199D02*
X0225721Y0251199D01*
X0225131Y0251789D02*
X0226365Y0250555D01*
X0227978Y0249887D01*
X0229723Y0249887D01*
X0231336Y0250555D01*
X0232570Y0251789D01*
X0233238Y0253401D01*
X0233238Y0255147D01*
X0232570Y0256759D01*
X0231336Y0257993D01*
X0229723Y0258661D01*
X0227978Y0258661D01*
X0226365Y0257993D01*
X0225131Y0256759D01*
X0224463Y0255147D01*
X0224463Y0253401D01*
X0225131Y0251789D01*
X0224723Y0252772D02*
X0222977Y0252772D01*
X0223238Y0254346D02*
X0224463Y0254346D01*
X0224783Y0255919D02*
X0222918Y0255919D01*
X0221837Y0257492D02*
X0225864Y0257492D01*
X0226281Y0260639D02*
X0221420Y0260639D01*
X0222745Y0262212D02*
X0224956Y0262212D01*
X0224463Y0263786D02*
X0223238Y0263786D01*
X0223150Y0265359D02*
X0224551Y0265359D01*
X0225304Y0266932D02*
X0222397Y0266932D01*
X0231420Y0260639D02*
X0236281Y0260639D01*
X0234956Y0262212D02*
X0232745Y0262212D01*
X0233238Y0263786D02*
X0234463Y0263786D01*
X0234551Y0265359D02*
X0233150Y0265359D01*
X0232397Y0266932D02*
X0235304Y0266932D01*
X0242397Y0266932D02*
X0245304Y0266932D01*
X0244551Y0265359D02*
X0243150Y0265359D01*
X0243238Y0263786D02*
X0244463Y0263786D01*
X0244956Y0262212D02*
X0242745Y0262212D01*
X0241420Y0260639D02*
X0246281Y0260639D01*
X0247978Y0258661D02*
X0246365Y0257993D01*
X0245131Y0256759D01*
X0244463Y0255147D01*
X0244463Y0253401D01*
X0245131Y0251789D01*
X0246365Y0250555D01*
X0247978Y0249887D01*
X0249723Y0249887D01*
X0251336Y0250555D01*
X0252570Y0251789D01*
X0253238Y0253401D01*
X0253238Y0255147D01*
X0252570Y0256759D01*
X0251336Y0257993D01*
X0249723Y0258661D01*
X0247978Y0258661D01*
X0245864Y0257492D02*
X0241837Y0257492D01*
X0241336Y0257993D02*
X0239723Y0258661D01*
X0237978Y0258661D01*
X0236365Y0257993D01*
X0235131Y0256759D01*
X0234463Y0255147D01*
X0234463Y0253401D01*
X0235131Y0251789D01*
X0236365Y0250555D01*
X0237978Y0249887D01*
X0239723Y0249887D01*
X0241336Y0250555D01*
X0242570Y0251789D01*
X0243238Y0253401D01*
X0243238Y0255147D01*
X0242570Y0256759D01*
X0241336Y0257993D01*
X0242918Y0255919D02*
X0244783Y0255919D01*
X0244463Y0254346D02*
X0243238Y0254346D01*
X0242977Y0252772D02*
X0244723Y0252772D01*
X0245721Y0251199D02*
X0241980Y0251199D01*
X0235721Y0251199D02*
X0231980Y0251199D01*
X0232977Y0252772D02*
X0234723Y0252772D01*
X0234463Y0254346D02*
X0233238Y0254346D01*
X0232918Y0255919D02*
X0234783Y0255919D01*
X0235864Y0257492D02*
X0231837Y0257492D01*
X0251420Y0260639D02*
X0256281Y0260639D01*
X0254956Y0262212D02*
X0252745Y0262212D01*
X0253238Y0263786D02*
X0254463Y0263786D01*
X0254551Y0265359D02*
X0253150Y0265359D01*
X0252397Y0266932D02*
X0255304Y0266932D01*
X0262397Y0266932D02*
X0265304Y0266932D01*
X0264551Y0265359D02*
X0263150Y0265359D01*
X0263238Y0263786D02*
X0264463Y0263786D01*
X0264956Y0262212D02*
X0262745Y0262212D01*
X0261420Y0260639D02*
X0266281Y0260639D01*
X0267978Y0258661D02*
X0266365Y0257993D01*
X0265131Y0256759D01*
X0264463Y0255147D01*
X0264463Y0253401D01*
X0265131Y0251789D01*
X0266365Y0250555D01*
X0267978Y0249887D01*
X0269723Y0249887D01*
X0271336Y0250555D01*
X0272570Y0251789D01*
X0273238Y0253401D01*
X0273238Y0255147D01*
X0272570Y0256759D01*
X0271336Y0257993D01*
X0269723Y0258661D01*
X0267978Y0258661D01*
X0265864Y0257492D02*
X0261837Y0257492D01*
X0261336Y0257993D02*
X0259723Y0258661D01*
X0257978Y0258661D01*
X0256365Y0257993D01*
X0255131Y0256759D01*
X0254463Y0255147D01*
X0254463Y0253401D01*
X0255131Y0251789D01*
X0256365Y0250555D01*
X0257978Y0249887D01*
X0259723Y0249887D01*
X0261336Y0250555D01*
X0262570Y0251789D01*
X0263238Y0253401D01*
X0263238Y0255147D01*
X0262570Y0256759D01*
X0261336Y0257993D01*
X0262918Y0255919D02*
X0264783Y0255919D01*
X0264463Y0254346D02*
X0263238Y0254346D01*
X0262977Y0252772D02*
X0264723Y0252772D01*
X0265721Y0251199D02*
X0261980Y0251199D01*
X0255721Y0251199D02*
X0251980Y0251199D01*
X0252977Y0252772D02*
X0254723Y0252772D01*
X0254463Y0254346D02*
X0253238Y0254346D01*
X0252918Y0255919D02*
X0254783Y0255919D01*
X0255864Y0257492D02*
X0251837Y0257492D01*
X0271420Y0260639D02*
X0276281Y0260639D01*
X0274956Y0262212D02*
X0272745Y0262212D01*
X0273238Y0263786D02*
X0274463Y0263786D01*
X0274551Y0265359D02*
X0273150Y0265359D01*
X0272397Y0266932D02*
X0275304Y0266932D01*
X0282397Y0266932D02*
X0285304Y0266932D01*
X0284551Y0265359D02*
X0283150Y0265359D01*
X0283238Y0263786D02*
X0284463Y0263786D01*
X0284956Y0262212D02*
X0282745Y0262212D01*
X0281420Y0260639D02*
X0286281Y0260639D01*
X0287978Y0258661D02*
X0286365Y0257993D01*
X0285131Y0256759D01*
X0284463Y0255147D01*
X0284463Y0253401D01*
X0285131Y0251789D01*
X0286365Y0250555D01*
X0287978Y0249887D01*
X0289723Y0249887D01*
X0291336Y0250555D01*
X0292570Y0251789D01*
X0293238Y0253401D01*
X0293238Y0255147D01*
X0292570Y0256759D01*
X0291336Y0257993D01*
X0289723Y0258661D01*
X0287978Y0258661D01*
X0285864Y0257492D02*
X0281837Y0257492D01*
X0281336Y0257993D02*
X0279723Y0258661D01*
X0277978Y0258661D01*
X0276365Y0257993D01*
X0275131Y0256759D01*
X0274463Y0255147D01*
X0274463Y0253401D01*
X0275131Y0251789D01*
X0276365Y0250555D01*
X0277978Y0249887D01*
X0279723Y0249887D01*
X0281336Y0250555D01*
X0282570Y0251789D01*
X0283238Y0253401D01*
X0283238Y0255147D01*
X0282570Y0256759D01*
X0281336Y0257993D01*
X0282918Y0255919D02*
X0284783Y0255919D01*
X0284463Y0254346D02*
X0283238Y0254346D01*
X0282977Y0252772D02*
X0284723Y0252772D01*
X0285721Y0251199D02*
X0281980Y0251199D01*
X0275721Y0251199D02*
X0271980Y0251199D01*
X0272977Y0252772D02*
X0274723Y0252772D01*
X0274463Y0254346D02*
X0273238Y0254346D01*
X0272918Y0255919D02*
X0274783Y0255919D01*
X0275864Y0257492D02*
X0271837Y0257492D01*
X0291420Y0260639D02*
X0296281Y0260639D01*
X0294956Y0262212D02*
X0292745Y0262212D01*
X0293238Y0263786D02*
X0294463Y0263786D01*
X0294551Y0265359D02*
X0293150Y0265359D01*
X0292397Y0266932D02*
X0295304Y0266932D01*
X0302397Y0266932D02*
X0305304Y0266932D01*
X0304551Y0265359D02*
X0303150Y0265359D01*
X0303238Y0263786D02*
X0304463Y0263786D01*
X0304956Y0262212D02*
X0302745Y0262212D01*
X0301420Y0260639D02*
X0306281Y0260639D01*
X0307978Y0258661D02*
X0306365Y0257993D01*
X0305131Y0256759D01*
X0304463Y0255147D01*
X0304463Y0253401D01*
X0305131Y0251789D01*
X0306365Y0250555D01*
X0307978Y0249887D01*
X0309723Y0249887D01*
X0311336Y0250555D01*
X0312570Y0251789D01*
X0313238Y0253401D01*
X0313238Y0255147D01*
X0312570Y0256759D01*
X0311336Y0257993D01*
X0309723Y0258661D01*
X0307978Y0258661D01*
X0305864Y0257492D02*
X0301837Y0257492D01*
X0301336Y0257993D02*
X0302570Y0256759D01*
X0303238Y0255147D01*
X0303238Y0253401D01*
X0302570Y0251789D01*
X0301336Y0250555D01*
X0299723Y0249887D01*
X0297978Y0249887D01*
X0296365Y0250555D01*
X0295131Y0251789D01*
X0294463Y0253401D01*
X0294463Y0255147D01*
X0295131Y0256759D01*
X0296365Y0257993D01*
X0297978Y0258661D01*
X0299723Y0258661D01*
X0301336Y0257993D01*
X0302918Y0255919D02*
X0304783Y0255919D01*
X0304463Y0254346D02*
X0303238Y0254346D01*
X0302977Y0252772D02*
X0304723Y0252772D01*
X0305721Y0251199D02*
X0301980Y0251199D01*
X0295721Y0251199D02*
X0291980Y0251199D01*
X0292977Y0252772D02*
X0294723Y0252772D01*
X0294463Y0254346D02*
X0293238Y0254346D01*
X0292918Y0255919D02*
X0294783Y0255919D01*
X0295864Y0257492D02*
X0291837Y0257492D01*
X0311420Y0260639D02*
X0316281Y0260639D01*
X0314956Y0262212D02*
X0312745Y0262212D01*
X0313238Y0263786D02*
X0314463Y0263786D01*
X0314551Y0265359D02*
X0313150Y0265359D01*
X0312397Y0266932D02*
X0315304Y0266932D01*
X0322397Y0266932D02*
X0325304Y0266932D01*
X0324551Y0265359D02*
X0323150Y0265359D01*
X0323238Y0263786D02*
X0324463Y0263786D01*
X0324956Y0262212D02*
X0322745Y0262212D01*
X0321420Y0260639D02*
X0326281Y0260639D01*
X0325864Y0257492D02*
X0321837Y0257492D01*
X0321336Y0257993D02*
X0319723Y0258661D01*
X0317978Y0258661D01*
X0316365Y0257993D01*
X0315131Y0256759D01*
X0314463Y0255147D01*
X0314463Y0253401D01*
X0315131Y0251789D01*
X0316365Y0250555D01*
X0317978Y0249887D01*
X0319723Y0249887D01*
X0321336Y0250555D01*
X0322570Y0251789D01*
X0323238Y0253401D01*
X0323238Y0255147D01*
X0322570Y0256759D01*
X0321336Y0257993D01*
X0322918Y0255919D02*
X0324783Y0255919D01*
X0324463Y0254346D02*
X0323238Y0254346D01*
X0322977Y0252772D02*
X0324723Y0252772D01*
X0325721Y0251199D02*
X0321980Y0251199D01*
X0315721Y0251199D02*
X0311980Y0251199D01*
X0312977Y0252772D02*
X0314723Y0252772D01*
X0314463Y0254346D02*
X0313238Y0254346D01*
X0312918Y0255919D02*
X0314783Y0255919D01*
X0315864Y0257492D02*
X0311837Y0257492D01*
X0331980Y0251199D02*
X0335438Y0251199D01*
X0335351Y0251286D02*
X0335862Y0250775D01*
X0336446Y0250351D01*
X0337089Y0250023D01*
X0337776Y0249800D01*
X0338489Y0249687D01*
X0338638Y0249687D01*
X0338638Y0254061D01*
X0334263Y0254061D01*
X0334263Y0253913D01*
X0334376Y0253200D01*
X0334599Y0252513D01*
X0334927Y0251870D01*
X0335351Y0251286D01*
X0334515Y0252772D02*
X0332977Y0252772D01*
X0338638Y0252772D02*
X0339063Y0252772D01*
X0339063Y0251199D02*
X0338638Y0251199D01*
X0342263Y0251199D02*
X0371180Y0251199D01*
X0371416Y0252772D02*
X0343186Y0252772D01*
X0339063Y0255919D02*
X0338638Y0255919D01*
X0338638Y0257492D02*
X0339063Y0257492D01*
X0409117Y0204000D02*
X0125290Y0204000D01*
X0124711Y0202426D02*
X0409117Y0202426D01*
X0409117Y0197706D02*
X0122340Y0197706D01*
X0122108Y0196133D02*
X0409117Y0196133D01*
X0409117Y0194560D02*
X0122231Y0194560D01*
X0122288Y0192986D02*
X0409117Y0192986D01*
X0399872Y0189840D02*
X0396096Y0189840D01*
X0397767Y0188266D02*
X0398202Y0188266D01*
X0399264Y0180400D02*
X0396704Y0180400D01*
X0394884Y0178827D02*
X0400655Y0178827D01*
X0399053Y0177253D02*
X0396744Y0177253D01*
X0397372Y0175680D02*
X0398469Y0175680D01*
X0398460Y0174107D02*
X0397372Y0174107D01*
X0396767Y0172533D02*
X0399024Y0172533D01*
X0400554Y0170960D02*
X0395023Y0170960D01*
X0396240Y0167813D02*
X0399456Y0167813D01*
X0398608Y0166240D02*
X0397163Y0166240D01*
X0402772Y0163093D02*
X0403197Y0163093D01*
X0403197Y0161520D02*
X0402772Y0161520D01*
X0402772Y0172533D02*
X0403197Y0172533D01*
X0403197Y0174107D02*
X0402772Y0174107D01*
X0390288Y0158373D02*
X0255998Y0158373D01*
X0255692Y0156800D02*
X0389037Y0156800D01*
X0390195Y0150507D02*
X0392040Y0150507D01*
X0391343Y0148934D02*
X0390526Y0148934D01*
X0389835Y0137920D02*
X0108580Y0137920D01*
X0108559Y0136347D02*
X0381386Y0136347D01*
X0381456Y0136517D02*
X0381033Y0135496D01*
X0381033Y0134391D01*
X0381456Y0133370D01*
X0382237Y0132588D01*
X0383258Y0132165D01*
X0384364Y0132165D01*
X0385385Y0132588D01*
X0386166Y0133370D01*
X0386589Y0134391D01*
X0386589Y0135496D01*
X0386166Y0136517D01*
X0385385Y0137298D01*
X0384364Y0137721D01*
X0383258Y0137721D01*
X0382237Y0137298D01*
X0381456Y0136517D01*
X0381033Y0134774D02*
X0108580Y0134774D01*
X0108561Y0133200D02*
X0381625Y0133200D01*
X0385997Y0133200D02*
X0388925Y0133200D01*
X0388597Y0134774D02*
X0386589Y0134774D01*
X0386236Y0136347D02*
X0388849Y0136347D01*
X0409117Y0087574D02*
X0294570Y0087574D01*
X0294552Y0087619D02*
X0293770Y0088401D01*
X0292749Y0088824D01*
X0291644Y0088824D01*
X0290623Y0088401D01*
X0289842Y0087619D01*
X0289419Y0086598D01*
X0289419Y0085493D01*
X0289842Y0084472D01*
X0290623Y0083691D01*
X0291644Y0083268D01*
X0292749Y0083268D01*
X0293770Y0083691D01*
X0294552Y0084472D01*
X0294975Y0085493D01*
X0294975Y0086598D01*
X0294552Y0087619D01*
X0294975Y0086001D02*
X0409117Y0086001D01*
X0409117Y0084428D02*
X0294507Y0084428D01*
X0292749Y0080950D02*
X0291644Y0080950D01*
X0290623Y0080527D01*
X0289842Y0079745D01*
X0289419Y0078724D01*
X0289419Y0077619D01*
X0289842Y0076598D01*
X0290623Y0075817D01*
X0291644Y0075394D01*
X0292749Y0075394D01*
X0293770Y0075817D01*
X0294552Y0076598D01*
X0294975Y0077619D01*
X0294975Y0078724D01*
X0294552Y0079745D01*
X0293770Y0080527D01*
X0292749Y0080950D01*
X0294567Y0079708D02*
X0315986Y0079708D01*
X0315954Y0079784D02*
X0316377Y0078763D01*
X0317159Y0077982D01*
X0318180Y0077559D01*
X0319285Y0077559D01*
X0320306Y0077982D01*
X0321087Y0078763D01*
X0321510Y0079784D01*
X0321510Y0080890D01*
X0321087Y0081911D01*
X0320306Y0082692D01*
X0319285Y0083115D01*
X0318180Y0083115D01*
X0317159Y0082692D01*
X0316377Y0081911D01*
X0315954Y0080890D01*
X0315954Y0079784D01*
X0316116Y0081281D02*
X0050408Y0081281D01*
X0050488Y0081223D02*
X0049907Y0081645D01*
X0049269Y0081970D01*
X0048587Y0082192D01*
X0047878Y0082304D01*
X0047717Y0082304D01*
X0047717Y0077945D01*
X0052076Y0077945D01*
X0052076Y0078107D01*
X0051963Y0078815D01*
X0051742Y0079497D01*
X0051416Y0080136D01*
X0050995Y0080716D01*
X0050488Y0081223D01*
X0051634Y0079708D02*
X0289826Y0079708D01*
X0289419Y0078134D02*
X0052071Y0078134D01*
X0052076Y0077551D02*
X0047717Y0077551D01*
X0047717Y0077945D01*
X0047323Y0077945D01*
X0047323Y0082304D01*
X0047161Y0082304D01*
X0046453Y0082192D01*
X0045771Y0081970D01*
X0045132Y0081645D01*
X0044552Y0081223D01*
X0044045Y0080716D01*
X0043623Y0080136D01*
X0043298Y0079497D01*
X0043076Y0078815D01*
X0042964Y0078107D01*
X0042964Y0077945D01*
X0047323Y0077945D01*
X0047323Y0077551D01*
X0047717Y0077551D01*
X0047717Y0073192D01*
X0047878Y0073192D01*
X0048587Y0073304D01*
X0049269Y0073526D01*
X0049907Y0073851D01*
X0050488Y0074273D01*
X0050995Y0074780D01*
X0051416Y0075360D01*
X0051742Y0075999D01*
X0051963Y0076681D01*
X0052076Y0077389D01*
X0052076Y0077551D01*
X0051924Y0076561D02*
X0289879Y0076561D01*
X0291644Y0073076D02*
X0290623Y0072653D01*
X0289842Y0071871D01*
X0289419Y0070850D01*
X0289419Y0069745D01*
X0289842Y0068724D01*
X0290623Y0067943D01*
X0291644Y0067520D01*
X0292749Y0067520D01*
X0293770Y0067943D01*
X0294552Y0068724D01*
X0294975Y0069745D01*
X0294975Y0070850D01*
X0294552Y0071871D01*
X0293770Y0072653D01*
X0292749Y0073076D01*
X0291644Y0073076D01*
X0289829Y0071841D02*
X0018584Y0071841D01*
X0018584Y0070268D02*
X0289419Y0070268D01*
X0289871Y0068695D02*
X0018584Y0068695D01*
X0018584Y0067121D02*
X0356952Y0067121D01*
X0356739Y0066909D02*
X0355957Y0065020D01*
X0355957Y0062977D01*
X0356739Y0061088D01*
X0358184Y0059643D01*
X0360073Y0058861D01*
X0362116Y0058861D01*
X0364005Y0059643D01*
X0365450Y0061088D01*
X0366232Y0062977D01*
X0366232Y0065020D01*
X0365450Y0066909D01*
X0364005Y0068354D01*
X0362116Y0069136D01*
X0360073Y0069136D01*
X0358184Y0068354D01*
X0356739Y0066909D01*
X0356176Y0065548D02*
X0018584Y0065548D01*
X0018584Y0063975D02*
X0355957Y0063975D01*
X0356195Y0062401D02*
X0030400Y0062401D01*
X0031500Y0060828D02*
X0357000Y0060828D01*
X0355573Y0059111D02*
X0354862Y0059657D01*
X0354086Y0060105D01*
X0353258Y0060448D01*
X0352392Y0060680D01*
X0351843Y0060752D01*
X0351843Y0054747D01*
X0350268Y0054747D01*
X0350268Y0060752D01*
X0349719Y0060680D01*
X0348853Y0060448D01*
X0348025Y0060105D01*
X0347249Y0059657D01*
X0346538Y0059111D01*
X0345904Y0058477D01*
X0345358Y0057766D01*
X0344910Y0056990D01*
X0344567Y0056162D01*
X0344335Y0055296D01*
X0344263Y0054747D01*
X0350268Y0054747D01*
X0350268Y0053172D01*
X0344263Y0053172D01*
X0344335Y0052623D01*
X0344567Y0051757D01*
X0344910Y0050929D01*
X0345358Y0050153D01*
X0345904Y0049442D01*
X0346538Y0048808D01*
X0347249Y0048262D01*
X0348025Y0047814D01*
X0348853Y0047471D01*
X0349719Y0047239D01*
X0350268Y0047167D01*
X0350268Y0053172D01*
X0351843Y0053172D01*
X0351843Y0054747D01*
X0357848Y0054747D01*
X0357776Y0055296D01*
X0357544Y0056162D01*
X0357201Y0056990D01*
X0356753Y0057766D01*
X0356207Y0058477D01*
X0355573Y0059111D01*
X0355386Y0059255D02*
X0359122Y0059255D01*
X0356802Y0057681D02*
X0365387Y0057681D01*
X0365436Y0057766D02*
X0364988Y0056990D01*
X0364645Y0056162D01*
X0364413Y0055296D01*
X0364341Y0054747D01*
X0370346Y0054747D01*
X0370346Y0060752D01*
X0369797Y0060680D01*
X0368931Y0060448D01*
X0368103Y0060105D01*
X0367327Y0059657D01*
X0366616Y0059111D01*
X0365982Y0058477D01*
X0365436Y0057766D01*
X0364631Y0056108D02*
X0357558Y0056108D01*
X0357848Y0053172D02*
X0351843Y0053172D01*
X0351843Y0047167D01*
X0352392Y0047239D01*
X0353258Y0047471D01*
X0354086Y0047814D01*
X0354862Y0048262D01*
X0355573Y0048808D01*
X0356207Y0049442D01*
X0356753Y0050153D01*
X0357201Y0050929D01*
X0357544Y0051757D01*
X0357776Y0052623D01*
X0357848Y0053172D01*
X0357820Y0052961D02*
X0364368Y0052961D01*
X0364341Y0053172D02*
X0364413Y0052623D01*
X0364645Y0051757D01*
X0364988Y0050929D01*
X0365436Y0050153D01*
X0365982Y0049442D01*
X0366616Y0048808D01*
X0367327Y0048262D01*
X0368103Y0047814D01*
X0368931Y0047471D01*
X0369797Y0047239D01*
X0370346Y0047167D01*
X0370346Y0053172D01*
X0364341Y0053172D01*
X0364798Y0051388D02*
X0357391Y0051388D01*
X0356494Y0049815D02*
X0365695Y0049815D01*
X0367362Y0048241D02*
X0354826Y0048241D01*
X0351843Y0048241D02*
X0350268Y0048241D01*
X0350268Y0049815D02*
X0351843Y0049815D01*
X0351843Y0051388D02*
X0350268Y0051388D01*
X0350268Y0052961D02*
X0351843Y0052961D01*
X0351843Y0054535D02*
X0370346Y0054535D01*
X0370346Y0054747D02*
X0370346Y0053172D01*
X0371921Y0053172D01*
X0371921Y0054747D01*
X0370346Y0054747D01*
X0370346Y0056108D02*
X0371921Y0056108D01*
X0371921Y0054747D02*
X0371921Y0060752D01*
X0372470Y0060680D01*
X0373336Y0060448D01*
X0374164Y0060105D01*
X0374940Y0059657D01*
X0375651Y0059111D01*
X0376285Y0058477D01*
X0376831Y0057766D01*
X0377279Y0056990D01*
X0377622Y0056162D01*
X0377854Y0055296D01*
X0377926Y0054747D01*
X0371921Y0054747D01*
X0371921Y0054535D02*
X0390030Y0054535D01*
X0389917Y0056108D02*
X0377636Y0056108D01*
X0376880Y0057681D02*
X0389902Y0057681D01*
X0391005Y0059255D02*
X0375464Y0059255D01*
X0371921Y0059255D02*
X0370346Y0059255D01*
X0370346Y0057681D02*
X0371921Y0057681D01*
X0371921Y0053172D02*
X0377926Y0053172D01*
X0377854Y0052623D01*
X0377622Y0051757D01*
X0377279Y0050929D01*
X0376831Y0050153D01*
X0376285Y0049442D01*
X0375651Y0048808D01*
X0374940Y0048262D01*
X0374164Y0047814D01*
X0373336Y0047471D01*
X0372470Y0047239D01*
X0371921Y0047167D01*
X0371921Y0053172D01*
X0371921Y0052961D02*
X0370346Y0052961D01*
X0370346Y0051388D02*
X0371921Y0051388D01*
X0371921Y0049815D02*
X0370346Y0049815D01*
X0370346Y0048241D02*
X0371921Y0048241D01*
X0374904Y0048241D02*
X0387906Y0048241D01*
X0386765Y0049815D02*
X0376571Y0049815D01*
X0377469Y0051388D02*
X0386755Y0051388D01*
X0387861Y0052961D02*
X0377898Y0052961D01*
X0366803Y0059255D02*
X0363067Y0059255D01*
X0365189Y0060828D02*
X0396200Y0060828D01*
X0397301Y0062401D02*
X0365994Y0062401D01*
X0366232Y0063975D02*
X0409117Y0063975D01*
X0409117Y0065548D02*
X0366013Y0065548D01*
X0365237Y0067121D02*
X0409117Y0067121D01*
X0409117Y0068695D02*
X0375402Y0068695D01*
X0375651Y0068886D02*
X0376285Y0069520D01*
X0376831Y0070231D01*
X0377279Y0071007D01*
X0377622Y0071835D01*
X0377854Y0072701D01*
X0377926Y0073250D01*
X0371921Y0073250D01*
X0371921Y0074825D01*
X0370346Y0074825D01*
X0370346Y0080830D01*
X0369797Y0080758D01*
X0368931Y0080526D01*
X0368103Y0080183D01*
X0367327Y0079735D01*
X0366616Y0079189D01*
X0365982Y0078555D01*
X0365436Y0077844D01*
X0364988Y0077068D01*
X0364645Y0076240D01*
X0364413Y0075374D01*
X0364341Y0074825D01*
X0370346Y0074825D01*
X0370346Y0073250D01*
X0364341Y0073250D01*
X0364413Y0072701D01*
X0364645Y0071835D01*
X0364988Y0071007D01*
X0365436Y0070231D01*
X0365982Y0069520D01*
X0366616Y0068886D01*
X0367327Y0068340D01*
X0368103Y0067892D01*
X0368931Y0067549D01*
X0369797Y0067317D01*
X0370346Y0067245D01*
X0370346Y0073250D01*
X0371921Y0073250D01*
X0371921Y0067245D01*
X0372470Y0067317D01*
X0373336Y0067549D01*
X0374164Y0067892D01*
X0374940Y0068340D01*
X0375651Y0068886D01*
X0376852Y0070268D02*
X0409117Y0070268D01*
X0409117Y0071841D02*
X0377624Y0071841D01*
X0377926Y0074825D02*
X0377854Y0075374D01*
X0377622Y0076240D01*
X0377279Y0077068D01*
X0376831Y0077844D01*
X0376285Y0078555D01*
X0375651Y0079189D01*
X0374940Y0079735D01*
X0374164Y0080183D01*
X0373336Y0080526D01*
X0372470Y0080758D01*
X0371921Y0080830D01*
X0371921Y0074825D01*
X0377926Y0074825D01*
X0377905Y0074988D02*
X0409117Y0074988D01*
X0409117Y0076561D02*
X0377489Y0076561D01*
X0376608Y0078134D02*
X0409117Y0078134D01*
X0409117Y0079708D02*
X0374975Y0079708D01*
X0371921Y0079708D02*
X0370346Y0079708D01*
X0370346Y0078134D02*
X0371921Y0078134D01*
X0371921Y0076561D02*
X0370346Y0076561D01*
X0370346Y0074988D02*
X0371921Y0074988D01*
X0371921Y0073414D02*
X0409117Y0073414D01*
X0409117Y0081281D02*
X0328018Y0081281D01*
X0328164Y0080929D02*
X0327741Y0081950D01*
X0326959Y0082731D01*
X0325938Y0083154D01*
X0324833Y0083154D01*
X0323812Y0082731D01*
X0323031Y0081950D01*
X0322608Y0080929D01*
X0322608Y0079824D01*
X0323031Y0078803D01*
X0323812Y0078021D01*
X0324833Y0077598D01*
X0325938Y0077598D01*
X0326959Y0078021D01*
X0327741Y0078803D01*
X0328164Y0079824D01*
X0328164Y0080929D01*
X0328116Y0079708D02*
X0347214Y0079708D01*
X0347249Y0079735D02*
X0346538Y0079189D01*
X0345904Y0078555D01*
X0345358Y0077844D01*
X0344910Y0077068D01*
X0344567Y0076240D01*
X0344335Y0075374D01*
X0344263Y0074825D01*
X0350268Y0074825D01*
X0350268Y0080830D01*
X0349719Y0080758D01*
X0348853Y0080526D01*
X0348025Y0080183D01*
X0347249Y0079735D01*
X0345581Y0078134D02*
X0327072Y0078134D01*
X0323699Y0078134D02*
X0320458Y0078134D01*
X0321478Y0079708D02*
X0322656Y0079708D01*
X0322754Y0081281D02*
X0321348Y0081281D01*
X0319914Y0082854D02*
X0324109Y0082854D01*
X0326663Y0082854D02*
X0409117Y0082854D01*
X0409117Y0062401D02*
X0400478Y0062401D01*
X0401579Y0060828D02*
X0409117Y0060828D01*
X0409117Y0059255D02*
X0406775Y0059255D01*
X0407877Y0057681D02*
X0409117Y0057681D01*
X0409117Y0056108D02*
X0407863Y0056108D01*
X0407750Y0054535D02*
X0409117Y0054535D01*
X0403603Y0059255D02*
X0403338Y0059255D01*
X0394441Y0059255D02*
X0394176Y0059255D01*
X0390039Y0046668D02*
X0037662Y0046668D01*
X0037793Y0045095D02*
X0389907Y0045095D01*
X0389912Y0043522D02*
X0037789Y0043522D01*
X0036659Y0041948D02*
X0391041Y0041948D01*
X0394140Y0041948D02*
X0394495Y0041948D01*
X0371921Y0068695D02*
X0370346Y0068695D01*
X0370346Y0070268D02*
X0371921Y0070268D01*
X0371921Y0071841D02*
X0370346Y0071841D01*
X0370346Y0073414D02*
X0351843Y0073414D01*
X0351843Y0073250D02*
X0351843Y0074825D01*
X0350268Y0074825D01*
X0350268Y0073250D01*
X0344263Y0073250D01*
X0344335Y0072701D01*
X0344567Y0071835D01*
X0344910Y0071007D01*
X0345358Y0070231D01*
X0345904Y0069520D01*
X0346538Y0068886D01*
X0347249Y0068340D01*
X0348025Y0067892D01*
X0348853Y0067549D01*
X0349719Y0067317D01*
X0350268Y0067245D01*
X0350268Y0073250D01*
X0351843Y0073250D01*
X0357848Y0073250D01*
X0357776Y0072701D01*
X0357544Y0071835D01*
X0357201Y0071007D01*
X0356753Y0070231D01*
X0356207Y0069520D01*
X0355573Y0068886D01*
X0354862Y0068340D01*
X0354086Y0067892D01*
X0353258Y0067549D01*
X0352392Y0067317D01*
X0351843Y0067245D01*
X0351843Y0073250D01*
X0351843Y0071841D02*
X0350268Y0071841D01*
X0350268Y0070268D02*
X0351843Y0070268D01*
X0351843Y0068695D02*
X0350268Y0068695D01*
X0346787Y0068695D02*
X0294522Y0068695D01*
X0294975Y0070268D02*
X0345337Y0070268D01*
X0344565Y0071841D02*
X0294564Y0071841D01*
X0294515Y0076561D02*
X0344700Y0076561D01*
X0344284Y0074988D02*
X0051146Y0074988D01*
X0048926Y0073414D02*
X0350268Y0073414D01*
X0350268Y0074988D02*
X0351843Y0074988D01*
X0351843Y0074825D02*
X0351843Y0080830D01*
X0352392Y0080758D01*
X0353258Y0080526D01*
X0354086Y0080183D01*
X0354862Y0079735D01*
X0355573Y0079189D01*
X0356207Y0078555D01*
X0356753Y0077844D01*
X0357201Y0077068D01*
X0357544Y0076240D01*
X0357776Y0075374D01*
X0357848Y0074825D01*
X0351843Y0074825D01*
X0351843Y0076561D02*
X0350268Y0076561D01*
X0350268Y0078134D02*
X0351843Y0078134D01*
X0351843Y0079708D02*
X0350268Y0079708D01*
X0354897Y0079708D02*
X0367292Y0079708D01*
X0365659Y0078134D02*
X0356530Y0078134D01*
X0357411Y0076561D02*
X0364778Y0076561D01*
X0364362Y0074988D02*
X0357827Y0074988D01*
X0357546Y0071841D02*
X0364643Y0071841D01*
X0365415Y0070268D02*
X0356774Y0070268D01*
X0355324Y0068695D02*
X0359007Y0068695D01*
X0363182Y0068695D02*
X0366865Y0068695D01*
X0351843Y0059255D02*
X0350268Y0059255D01*
X0350268Y0057681D02*
X0351843Y0057681D01*
X0351843Y0056108D02*
X0350268Y0056108D01*
X0350268Y0054535D02*
X0294975Y0054535D01*
X0294975Y0053997D02*
X0294552Y0052976D01*
X0293770Y0052195D01*
X0292749Y0051772D01*
X0291644Y0051772D01*
X0290623Y0052195D01*
X0289842Y0052976D01*
X0289419Y0053997D01*
X0289419Y0055102D01*
X0289842Y0056123D01*
X0290623Y0056905D01*
X0291644Y0057328D01*
X0292749Y0057328D01*
X0293770Y0056905D01*
X0294552Y0056123D01*
X0294975Y0055102D01*
X0294975Y0053997D01*
X0294537Y0052961D02*
X0344291Y0052961D01*
X0344720Y0051388D02*
X0040945Y0051388D01*
X0040936Y0049815D02*
X0345617Y0049815D01*
X0347285Y0048241D02*
X0039795Y0048241D01*
X0039840Y0052961D02*
X0289856Y0052961D01*
X0289419Y0054535D02*
X0037671Y0054535D01*
X0037784Y0056108D02*
X0289836Y0056108D01*
X0294558Y0056108D02*
X0344553Y0056108D01*
X0345309Y0057681D02*
X0037798Y0057681D01*
X0036696Y0059255D02*
X0346725Y0059255D01*
X0317006Y0078134D02*
X0294975Y0078134D01*
X0289886Y0084428D02*
X0138208Y0084428D01*
X0138253Y0084472D02*
X0138676Y0085493D01*
X0138676Y0086598D01*
X0138253Y0087619D01*
X0137471Y0088401D01*
X0136450Y0088824D01*
X0135345Y0088824D01*
X0134324Y0088401D01*
X0133543Y0087619D01*
X0133120Y0086598D01*
X0133120Y0085493D01*
X0133543Y0084472D01*
X0134324Y0083691D01*
X0135345Y0083268D01*
X0136450Y0083268D01*
X0137471Y0083691D01*
X0138253Y0084472D01*
X0138676Y0086001D02*
X0289419Y0086001D01*
X0289823Y0087574D02*
X0138271Y0087574D01*
X0133524Y0087574D02*
X0018584Y0087574D01*
X0018584Y0086001D02*
X0133120Y0086001D01*
X0133587Y0084428D02*
X0018584Y0084428D01*
X0018584Y0082854D02*
X0317551Y0082854D01*
X0323070Y0109601D02*
X0310449Y0109601D01*
X0311864Y0111174D02*
X0322765Y0111174D01*
X0323474Y0112747D02*
X0314080Y0112747D01*
X0315422Y0114321D02*
X0322883Y0114321D01*
X0323179Y0115894D02*
X0315515Y0115894D01*
X0317006Y0117467D02*
X0323093Y0117467D01*
X0322883Y0119041D02*
X0317298Y0119041D01*
X0316557Y0120614D02*
X0323821Y0120614D01*
X0116476Y0145787D02*
X0113587Y0145787D01*
X0114914Y0147360D02*
X0115149Y0147360D01*
X0115064Y0148934D02*
X0114999Y0148934D01*
X0113948Y0150507D02*
X0116115Y0150507D01*
X0110603Y0150507D02*
X0106069Y0150507D01*
X0107988Y0148934D02*
X0109552Y0148934D01*
X0109637Y0147360D02*
X0108580Y0147360D01*
X0108556Y0145787D02*
X0110964Y0145787D01*
X0053388Y0207146D02*
X0039001Y0207146D01*
X0039219Y0207364D02*
X0039631Y0207981D01*
X0039915Y0208667D01*
X0040060Y0209395D01*
X0040060Y0209766D01*
X0036291Y0209766D01*
X0032523Y0209766D01*
X0032523Y0209395D01*
X0032668Y0208667D01*
X0032952Y0207981D01*
X0033364Y0207364D01*
X0033889Y0206839D01*
X0034506Y0206427D01*
X0035192Y0206142D01*
X0035920Y0205998D01*
X0036291Y0205998D01*
X0036291Y0209766D01*
X0036291Y0209766D01*
X0036291Y0209766D01*
X0032523Y0209766D01*
X0032523Y0210137D01*
X0032668Y0210865D01*
X0032952Y0211551D01*
X0033364Y0212168D01*
X0033889Y0212693D01*
X0034506Y0213106D01*
X0035192Y0213390D01*
X0035920Y0213535D01*
X0036291Y0213535D01*
X0036291Y0209766D01*
X0036291Y0209766D01*
X0036291Y0205998D01*
X0036663Y0205998D01*
X0037391Y0206142D01*
X0038076Y0206427D01*
X0038694Y0206839D01*
X0039219Y0207364D01*
X0039925Y0208720D02*
X0052805Y0208720D01*
X0053161Y0210293D02*
X0040029Y0210293D01*
X0040060Y0210137D02*
X0039915Y0210865D01*
X0039631Y0211551D01*
X0039219Y0212168D01*
X0038694Y0212693D01*
X0038076Y0213106D01*
X0037391Y0213390D01*
X0036663Y0213535D01*
X0036291Y0213535D01*
X0036291Y0209766D01*
X0036291Y0209766D01*
X0040060Y0209766D01*
X0040060Y0210137D01*
X0039420Y0211866D02*
X0052807Y0211866D01*
X0052997Y0213439D02*
X0037141Y0213439D01*
X0036291Y0213439D02*
X0036291Y0213439D01*
X0035442Y0213439D02*
X0029289Y0213439D01*
X0029293Y0213449D02*
X0029430Y0214139D01*
X0029430Y0214490D01*
X0025858Y0214490D01*
X0025858Y0214490D01*
X0025858Y0210919D01*
X0025506Y0210919D01*
X0024816Y0211056D01*
X0024166Y0211325D01*
X0023581Y0211716D01*
X0023084Y0212214D01*
X0022693Y0212799D01*
X0022424Y0213449D01*
X0022287Y0214139D01*
X0022287Y0214490D01*
X0025858Y0214490D01*
X0025858Y0214491D01*
X0025858Y0218062D01*
X0025506Y0218062D01*
X0024816Y0217925D01*
X0024166Y0217656D01*
X0023581Y0217265D01*
X0023084Y0216767D01*
X0022693Y0216182D01*
X0022424Y0215532D01*
X0022287Y0214842D01*
X0022287Y0214491D01*
X0025858Y0214491D01*
X0025858Y0214491D01*
X0025858Y0218062D01*
X0026210Y0218062D01*
X0026900Y0217925D01*
X0027550Y0217656D01*
X0028135Y0217265D01*
X0028633Y0216767D01*
X0029023Y0216182D01*
X0029293Y0215532D01*
X0029430Y0214842D01*
X0029430Y0214491D01*
X0025858Y0214491D01*
X0025858Y0214490D01*
X0025858Y0210919D01*
X0026210Y0210919D01*
X0026900Y0211056D01*
X0027550Y0211325D01*
X0028135Y0211716D01*
X0028633Y0212214D01*
X0029023Y0212799D01*
X0029293Y0213449D01*
X0029396Y0215013D02*
X0052971Y0215013D01*
X0052832Y0216586D02*
X0028754Y0216586D01*
X0025858Y0216586D02*
X0025858Y0216586D01*
X0025858Y0215013D02*
X0025858Y0215013D01*
X0025858Y0213439D02*
X0025858Y0213439D01*
X0025858Y0211866D02*
X0025858Y0211866D01*
X0023432Y0211866D02*
X0018584Y0211866D01*
X0018584Y0210293D02*
X0032554Y0210293D01*
X0032657Y0208720D02*
X0018584Y0208720D01*
X0018584Y0207146D02*
X0033582Y0207146D01*
X0036291Y0207146D02*
X0036291Y0207146D01*
X0036291Y0208720D02*
X0036291Y0208720D01*
X0036291Y0210293D02*
X0036291Y0210293D01*
X0036291Y0211866D02*
X0036291Y0211866D01*
X0033162Y0211866D02*
X0028285Y0211866D01*
X0022428Y0213439D02*
X0018584Y0213439D01*
X0018584Y0215013D02*
X0022321Y0215013D01*
X0022963Y0216586D02*
X0018584Y0216586D01*
X0018584Y0218159D02*
X0053847Y0218159D01*
X0037816Y0249626D02*
X0085314Y0249626D01*
X0083860Y0251199D02*
X0039571Y0251199D01*
X0040060Y0252772D02*
X0083208Y0252772D01*
X0083063Y0254346D02*
X0039843Y0254346D01*
X0039915Y0254172D02*
X0039631Y0254858D01*
X0039219Y0255476D01*
X0038694Y0256000D01*
X0038076Y0256413D01*
X0037391Y0256697D01*
X0036663Y0256842D01*
X0036291Y0256842D01*
X0036291Y0253073D01*
X0036291Y0253073D01*
X0036291Y0253073D01*
X0040060Y0253073D01*
X0040060Y0253444D01*
X0039915Y0254172D01*
X0038775Y0255919D02*
X0083268Y0255919D01*
X0101837Y0257492D02*
X0103919Y0257492D01*
X0103268Y0255919D02*
X0102918Y0255919D01*
X0102977Y0252772D02*
X0103208Y0252772D01*
X0103860Y0251199D02*
X0101980Y0251199D01*
X0108638Y0265359D02*
X0109063Y0265359D01*
X0109063Y0266932D02*
X0108638Y0266932D01*
X0036291Y0255919D02*
X0036291Y0255919D01*
X0036291Y0254346D02*
X0036291Y0254346D01*
X0036291Y0252772D02*
X0036291Y0252772D01*
X0036291Y0251199D02*
X0036291Y0251199D01*
X0036291Y0249626D02*
X0036291Y0249626D01*
X0026220Y0268505D02*
X0018584Y0268505D01*
X0018584Y0270079D02*
X0021484Y0270079D01*
X0023540Y0270079D02*
X0024937Y0270079D01*
X0019922Y0271652D02*
X0018584Y0271652D01*
X0018584Y0273225D02*
X0019739Y0273225D01*
X0020050Y0274799D02*
X0018584Y0274799D01*
X0018584Y0081281D02*
X0044632Y0081281D01*
X0043405Y0079708D02*
X0018584Y0079708D01*
X0018584Y0078134D02*
X0042968Y0078134D01*
X0042964Y0077551D02*
X0042964Y0077389D01*
X0043076Y0076681D01*
X0043298Y0075999D01*
X0043623Y0075360D01*
X0044045Y0074780D01*
X0044552Y0074273D01*
X0045132Y0073851D01*
X0045771Y0073526D01*
X0046453Y0073304D01*
X0047161Y0073192D01*
X0047323Y0073192D01*
X0047323Y0077551D01*
X0042964Y0077551D01*
X0043115Y0076561D02*
X0018584Y0076561D01*
X0018584Y0074988D02*
X0043894Y0074988D01*
X0046114Y0073414D02*
X0018584Y0073414D01*
X0018584Y0062401D02*
X0027222Y0062401D01*
X0026122Y0060828D02*
X0018584Y0060828D01*
X0018584Y0059255D02*
X0020926Y0059255D01*
X0019824Y0057681D02*
X0018584Y0057681D01*
X0018584Y0056108D02*
X0019838Y0056108D01*
X0019951Y0054535D02*
X0018584Y0054535D01*
X0024098Y0059255D02*
X0024363Y0059255D01*
X0033260Y0059255D02*
X0033524Y0059255D01*
X0047323Y0073414D02*
X0047717Y0073414D01*
X0047717Y0074988D02*
X0047323Y0074988D01*
X0047323Y0076561D02*
X0047717Y0076561D01*
X0047717Y0078134D02*
X0047323Y0078134D01*
X0047323Y0079708D02*
X0047717Y0079708D01*
X0047717Y0081281D02*
X0047323Y0081281D01*
X0033561Y0041948D02*
X0033206Y0041948D01*
D19*
X0028811Y0050613D03*
X0028811Y0278959D03*
X0398890Y0278959D03*
X0398890Y0050613D03*
D20*
X0300465Y0101794D03*
X0060638Y0131715D03*
M02*
