G75*
%MOIN*%
%OFA0B0*%
%FSLAX25Y25*%
%IPPOS*%
%LPD*%
%AMOC8*
5,1,8,0,0,1.08239X$1,22.5*
%
%ADD10C,0.00394*%
%ADD11C,0.00000*%
%ADD12C,0.00039*%
D10*
X0028811Y0038802D02*
X0398890Y0038802D01*
X0399175Y0038805D01*
X0399461Y0038816D01*
X0399746Y0038833D01*
X0400030Y0038857D01*
X0400314Y0038888D01*
X0400597Y0038926D01*
X0400878Y0038971D01*
X0401159Y0039022D01*
X0401439Y0039080D01*
X0401717Y0039145D01*
X0401993Y0039217D01*
X0402267Y0039295D01*
X0402540Y0039380D01*
X0402810Y0039472D01*
X0403078Y0039570D01*
X0403344Y0039674D01*
X0403607Y0039785D01*
X0403867Y0039902D01*
X0404125Y0040025D01*
X0404379Y0040155D01*
X0404630Y0040291D01*
X0404878Y0040432D01*
X0405122Y0040580D01*
X0405363Y0040733D01*
X0405599Y0040893D01*
X0405832Y0041058D01*
X0406061Y0041228D01*
X0406286Y0041404D01*
X0406506Y0041586D01*
X0406722Y0041772D01*
X0406933Y0041964D01*
X0407140Y0042161D01*
X0407342Y0042363D01*
X0407539Y0042570D01*
X0407731Y0042781D01*
X0407917Y0042997D01*
X0408099Y0043217D01*
X0408275Y0043442D01*
X0408445Y0043671D01*
X0408610Y0043904D01*
X0408770Y0044140D01*
X0408923Y0044381D01*
X0409071Y0044625D01*
X0409212Y0044873D01*
X0409348Y0045124D01*
X0409478Y0045378D01*
X0409601Y0045636D01*
X0409718Y0045896D01*
X0409829Y0046159D01*
X0409933Y0046425D01*
X0410031Y0046693D01*
X0410123Y0046963D01*
X0410208Y0047236D01*
X0410286Y0047510D01*
X0410358Y0047786D01*
X0410423Y0048064D01*
X0410481Y0048344D01*
X0410532Y0048625D01*
X0410577Y0048906D01*
X0410615Y0049189D01*
X0410646Y0049473D01*
X0410670Y0049757D01*
X0410687Y0050042D01*
X0410698Y0050328D01*
X0410701Y0050613D01*
X0410701Y0278959D01*
X0410698Y0279244D01*
X0410687Y0279530D01*
X0410670Y0279815D01*
X0410646Y0280099D01*
X0410615Y0280383D01*
X0410577Y0280666D01*
X0410532Y0280947D01*
X0410481Y0281228D01*
X0410423Y0281508D01*
X0410358Y0281786D01*
X0410286Y0282062D01*
X0410208Y0282336D01*
X0410123Y0282609D01*
X0410031Y0282879D01*
X0409933Y0283147D01*
X0409829Y0283413D01*
X0409718Y0283676D01*
X0409601Y0283936D01*
X0409478Y0284194D01*
X0409348Y0284448D01*
X0409212Y0284699D01*
X0409071Y0284947D01*
X0408923Y0285191D01*
X0408770Y0285432D01*
X0408610Y0285668D01*
X0408445Y0285901D01*
X0408275Y0286130D01*
X0408099Y0286355D01*
X0407917Y0286575D01*
X0407731Y0286791D01*
X0407539Y0287002D01*
X0407342Y0287209D01*
X0407140Y0287411D01*
X0406933Y0287608D01*
X0406722Y0287800D01*
X0406506Y0287986D01*
X0406286Y0288168D01*
X0406061Y0288344D01*
X0405832Y0288514D01*
X0405599Y0288679D01*
X0405363Y0288839D01*
X0405122Y0288992D01*
X0404878Y0289140D01*
X0404630Y0289281D01*
X0404379Y0289417D01*
X0404125Y0289547D01*
X0403867Y0289670D01*
X0403607Y0289787D01*
X0403344Y0289898D01*
X0403078Y0290002D01*
X0402810Y0290100D01*
X0402540Y0290192D01*
X0402267Y0290277D01*
X0401993Y0290355D01*
X0401717Y0290427D01*
X0401439Y0290492D01*
X0401159Y0290550D01*
X0400878Y0290601D01*
X0400597Y0290646D01*
X0400314Y0290684D01*
X0400030Y0290715D01*
X0399746Y0290739D01*
X0399461Y0290756D01*
X0399175Y0290767D01*
X0398890Y0290770D01*
X0028811Y0290770D01*
X0028526Y0290767D01*
X0028240Y0290756D01*
X0027955Y0290739D01*
X0027671Y0290715D01*
X0027387Y0290684D01*
X0027104Y0290646D01*
X0026823Y0290601D01*
X0026542Y0290550D01*
X0026262Y0290492D01*
X0025984Y0290427D01*
X0025708Y0290355D01*
X0025434Y0290277D01*
X0025161Y0290192D01*
X0024891Y0290100D01*
X0024623Y0290002D01*
X0024357Y0289898D01*
X0024094Y0289787D01*
X0023834Y0289670D01*
X0023576Y0289547D01*
X0023322Y0289417D01*
X0023071Y0289281D01*
X0022823Y0289140D01*
X0022579Y0288992D01*
X0022338Y0288839D01*
X0022102Y0288679D01*
X0021869Y0288514D01*
X0021640Y0288344D01*
X0021415Y0288168D01*
X0021195Y0287986D01*
X0020979Y0287800D01*
X0020768Y0287608D01*
X0020561Y0287411D01*
X0020359Y0287209D01*
X0020162Y0287002D01*
X0019970Y0286791D01*
X0019784Y0286575D01*
X0019602Y0286355D01*
X0019426Y0286130D01*
X0019256Y0285901D01*
X0019091Y0285668D01*
X0018931Y0285432D01*
X0018778Y0285191D01*
X0018630Y0284947D01*
X0018489Y0284699D01*
X0018353Y0284448D01*
X0018223Y0284194D01*
X0018100Y0283936D01*
X0017983Y0283676D01*
X0017872Y0283413D01*
X0017768Y0283147D01*
X0017670Y0282879D01*
X0017578Y0282609D01*
X0017493Y0282336D01*
X0017415Y0282062D01*
X0017343Y0281786D01*
X0017278Y0281508D01*
X0017220Y0281228D01*
X0017169Y0280947D01*
X0017124Y0280666D01*
X0017086Y0280383D01*
X0017055Y0280099D01*
X0017031Y0279815D01*
X0017014Y0279530D01*
X0017003Y0279244D01*
X0017000Y0278959D01*
X0017000Y0050613D01*
X0017003Y0050328D01*
X0017014Y0050042D01*
X0017031Y0049757D01*
X0017055Y0049473D01*
X0017086Y0049189D01*
X0017124Y0048906D01*
X0017169Y0048625D01*
X0017220Y0048344D01*
X0017278Y0048064D01*
X0017343Y0047786D01*
X0017415Y0047510D01*
X0017493Y0047236D01*
X0017578Y0046963D01*
X0017670Y0046693D01*
X0017768Y0046425D01*
X0017872Y0046159D01*
X0017983Y0045896D01*
X0018100Y0045636D01*
X0018223Y0045378D01*
X0018353Y0045124D01*
X0018489Y0044873D01*
X0018630Y0044625D01*
X0018778Y0044381D01*
X0018931Y0044140D01*
X0019091Y0043904D01*
X0019256Y0043671D01*
X0019426Y0043442D01*
X0019602Y0043217D01*
X0019784Y0042997D01*
X0019970Y0042781D01*
X0020162Y0042570D01*
X0020359Y0042363D01*
X0020561Y0042161D01*
X0020768Y0041964D01*
X0020979Y0041772D01*
X0021195Y0041586D01*
X0021415Y0041404D01*
X0021640Y0041228D01*
X0021869Y0041058D01*
X0022102Y0040893D01*
X0022338Y0040733D01*
X0022579Y0040580D01*
X0022823Y0040432D01*
X0023071Y0040291D01*
X0023322Y0040155D01*
X0023576Y0040025D01*
X0023834Y0039902D01*
X0024094Y0039785D01*
X0024357Y0039674D01*
X0024623Y0039570D01*
X0024891Y0039472D01*
X0025161Y0039380D01*
X0025434Y0039295D01*
X0025708Y0039217D01*
X0025984Y0039145D01*
X0026262Y0039080D01*
X0026542Y0039022D01*
X0026823Y0038971D01*
X0027104Y0038926D01*
X0027387Y0038888D01*
X0027671Y0038857D01*
X0027955Y0038833D01*
X0028240Y0038816D01*
X0028526Y0038805D01*
X0028811Y0038802D01*
D11*
X0043189Y0075780D02*
X0051850Y0075780D01*
X0053819Y0077748D02*
X0053817Y0077834D01*
X0053812Y0077920D01*
X0053802Y0078005D01*
X0053789Y0078090D01*
X0053772Y0078174D01*
X0053752Y0078258D01*
X0053728Y0078340D01*
X0053700Y0078421D01*
X0053669Y0078502D01*
X0053635Y0078580D01*
X0053597Y0078657D01*
X0053555Y0078733D01*
X0053511Y0078806D01*
X0053463Y0078877D01*
X0053412Y0078947D01*
X0053358Y0079014D01*
X0053302Y0079078D01*
X0053242Y0079140D01*
X0053180Y0079200D01*
X0053116Y0079256D01*
X0053049Y0079310D01*
X0052979Y0079361D01*
X0052908Y0079409D01*
X0052835Y0079453D01*
X0052759Y0079495D01*
X0052682Y0079533D01*
X0052604Y0079567D01*
X0052523Y0079598D01*
X0052442Y0079626D01*
X0052360Y0079650D01*
X0052276Y0079670D01*
X0052192Y0079687D01*
X0052107Y0079700D01*
X0052022Y0079710D01*
X0051936Y0079715D01*
X0051850Y0079717D01*
X0043189Y0079717D01*
X0043103Y0079715D01*
X0043017Y0079710D01*
X0042932Y0079700D01*
X0042847Y0079687D01*
X0042763Y0079670D01*
X0042679Y0079650D01*
X0042597Y0079626D01*
X0042516Y0079598D01*
X0042435Y0079567D01*
X0042357Y0079533D01*
X0042280Y0079495D01*
X0042205Y0079453D01*
X0042131Y0079409D01*
X0042060Y0079361D01*
X0041990Y0079310D01*
X0041923Y0079256D01*
X0041859Y0079200D01*
X0041797Y0079140D01*
X0041737Y0079078D01*
X0041681Y0079014D01*
X0041627Y0078947D01*
X0041576Y0078877D01*
X0041528Y0078806D01*
X0041484Y0078733D01*
X0041442Y0078657D01*
X0041404Y0078580D01*
X0041370Y0078502D01*
X0041339Y0078421D01*
X0041311Y0078340D01*
X0041287Y0078258D01*
X0041267Y0078174D01*
X0041250Y0078090D01*
X0041237Y0078005D01*
X0041227Y0077920D01*
X0041222Y0077834D01*
X0041220Y0077748D01*
X0041222Y0077662D01*
X0041227Y0077576D01*
X0041237Y0077491D01*
X0041250Y0077406D01*
X0041267Y0077322D01*
X0041287Y0077238D01*
X0041311Y0077156D01*
X0041339Y0077075D01*
X0041370Y0076994D01*
X0041404Y0076916D01*
X0041442Y0076839D01*
X0041484Y0076764D01*
X0041528Y0076690D01*
X0041576Y0076619D01*
X0041627Y0076549D01*
X0041681Y0076482D01*
X0041737Y0076418D01*
X0041797Y0076356D01*
X0041859Y0076296D01*
X0041923Y0076240D01*
X0041990Y0076186D01*
X0042060Y0076135D01*
X0042131Y0076087D01*
X0042205Y0076043D01*
X0042280Y0076001D01*
X0042357Y0075963D01*
X0042435Y0075929D01*
X0042516Y0075898D01*
X0042597Y0075870D01*
X0042679Y0075846D01*
X0042763Y0075826D01*
X0042847Y0075809D01*
X0042932Y0075796D01*
X0043017Y0075786D01*
X0043103Y0075781D01*
X0043189Y0075779D01*
X0051850Y0075779D02*
X0051936Y0075781D01*
X0052022Y0075786D01*
X0052107Y0075796D01*
X0052192Y0075809D01*
X0052276Y0075826D01*
X0052360Y0075846D01*
X0052442Y0075870D01*
X0052523Y0075898D01*
X0052604Y0075929D01*
X0052682Y0075963D01*
X0052759Y0076001D01*
X0052835Y0076043D01*
X0052908Y0076087D01*
X0052979Y0076135D01*
X0053049Y0076186D01*
X0053116Y0076240D01*
X0053180Y0076296D01*
X0053242Y0076356D01*
X0053302Y0076418D01*
X0053358Y0076482D01*
X0053412Y0076549D01*
X0053463Y0076619D01*
X0053511Y0076690D01*
X0053555Y0076764D01*
X0053597Y0076839D01*
X0053635Y0076916D01*
X0053669Y0076994D01*
X0053700Y0077075D01*
X0053728Y0077156D01*
X0053752Y0077238D01*
X0053772Y0077322D01*
X0053789Y0077406D01*
X0053802Y0077491D01*
X0053812Y0077576D01*
X0053817Y0077662D01*
X0053819Y0077748D01*
X0059331Y0091134D02*
X0059331Y0103732D01*
X0059331Y0103733D02*
X0059245Y0103731D01*
X0059159Y0103726D01*
X0059074Y0103716D01*
X0058989Y0103703D01*
X0058905Y0103686D01*
X0058821Y0103666D01*
X0058739Y0103642D01*
X0058658Y0103614D01*
X0058577Y0103583D01*
X0058499Y0103549D01*
X0058422Y0103511D01*
X0058347Y0103469D01*
X0058273Y0103425D01*
X0058202Y0103377D01*
X0058132Y0103326D01*
X0058065Y0103272D01*
X0058001Y0103216D01*
X0057939Y0103156D01*
X0057879Y0103094D01*
X0057823Y0103030D01*
X0057769Y0102963D01*
X0057718Y0102893D01*
X0057670Y0102822D01*
X0057626Y0102749D01*
X0057584Y0102673D01*
X0057546Y0102596D01*
X0057512Y0102518D01*
X0057481Y0102437D01*
X0057453Y0102356D01*
X0057429Y0102274D01*
X0057409Y0102190D01*
X0057392Y0102106D01*
X0057379Y0102021D01*
X0057369Y0101936D01*
X0057364Y0101850D01*
X0057362Y0101764D01*
X0057362Y0093102D01*
X0057364Y0093016D01*
X0057369Y0092930D01*
X0057379Y0092845D01*
X0057392Y0092760D01*
X0057409Y0092676D01*
X0057429Y0092592D01*
X0057453Y0092510D01*
X0057481Y0092429D01*
X0057512Y0092348D01*
X0057546Y0092270D01*
X0057584Y0092193D01*
X0057626Y0092118D01*
X0057670Y0092044D01*
X0057718Y0091973D01*
X0057769Y0091903D01*
X0057823Y0091836D01*
X0057879Y0091772D01*
X0057939Y0091710D01*
X0058001Y0091650D01*
X0058065Y0091594D01*
X0058132Y0091540D01*
X0058202Y0091489D01*
X0058273Y0091441D01*
X0058347Y0091397D01*
X0058422Y0091355D01*
X0058499Y0091317D01*
X0058577Y0091283D01*
X0058658Y0091252D01*
X0058739Y0091224D01*
X0058821Y0091200D01*
X0058905Y0091180D01*
X0058989Y0091163D01*
X0059074Y0091150D01*
X0059159Y0091140D01*
X0059245Y0091135D01*
X0059331Y0091133D01*
X0059417Y0091135D01*
X0059503Y0091140D01*
X0059588Y0091150D01*
X0059673Y0091163D01*
X0059757Y0091180D01*
X0059841Y0091200D01*
X0059923Y0091224D01*
X0060004Y0091252D01*
X0060085Y0091283D01*
X0060163Y0091317D01*
X0060240Y0091355D01*
X0060316Y0091397D01*
X0060389Y0091441D01*
X0060460Y0091489D01*
X0060530Y0091540D01*
X0060597Y0091594D01*
X0060661Y0091650D01*
X0060723Y0091710D01*
X0060783Y0091772D01*
X0060839Y0091836D01*
X0060893Y0091903D01*
X0060944Y0091973D01*
X0060992Y0092044D01*
X0061036Y0092118D01*
X0061078Y0092193D01*
X0061116Y0092270D01*
X0061150Y0092348D01*
X0061181Y0092429D01*
X0061209Y0092510D01*
X0061233Y0092592D01*
X0061253Y0092676D01*
X0061270Y0092760D01*
X0061283Y0092845D01*
X0061293Y0092930D01*
X0061298Y0093016D01*
X0061300Y0093102D01*
X0061299Y0093102D02*
X0061299Y0101764D01*
X0061300Y0101764D02*
X0061298Y0101850D01*
X0061293Y0101936D01*
X0061283Y0102021D01*
X0061270Y0102106D01*
X0061253Y0102190D01*
X0061233Y0102274D01*
X0061209Y0102356D01*
X0061181Y0102437D01*
X0061150Y0102518D01*
X0061116Y0102596D01*
X0061078Y0102673D01*
X0061036Y0102749D01*
X0060992Y0102822D01*
X0060944Y0102893D01*
X0060893Y0102963D01*
X0060839Y0103030D01*
X0060783Y0103094D01*
X0060723Y0103156D01*
X0060661Y0103216D01*
X0060597Y0103272D01*
X0060530Y0103326D01*
X0060460Y0103377D01*
X0060389Y0103425D01*
X0060316Y0103469D01*
X0060240Y0103511D01*
X0060163Y0103549D01*
X0060085Y0103583D01*
X0060004Y0103614D01*
X0059923Y0103642D01*
X0059841Y0103666D01*
X0059757Y0103686D01*
X0059673Y0103703D01*
X0059588Y0103716D01*
X0059503Y0103726D01*
X0059417Y0103731D01*
X0059331Y0103733D01*
X0036496Y0101764D02*
X0036496Y0093102D01*
X0034528Y0091133D02*
X0034442Y0091135D01*
X0034356Y0091140D01*
X0034271Y0091150D01*
X0034186Y0091163D01*
X0034102Y0091180D01*
X0034018Y0091200D01*
X0033936Y0091224D01*
X0033855Y0091252D01*
X0033774Y0091283D01*
X0033696Y0091317D01*
X0033619Y0091355D01*
X0033544Y0091397D01*
X0033470Y0091441D01*
X0033399Y0091489D01*
X0033329Y0091540D01*
X0033262Y0091594D01*
X0033198Y0091650D01*
X0033136Y0091710D01*
X0033076Y0091772D01*
X0033020Y0091836D01*
X0032966Y0091903D01*
X0032915Y0091973D01*
X0032867Y0092044D01*
X0032823Y0092118D01*
X0032781Y0092193D01*
X0032743Y0092270D01*
X0032709Y0092348D01*
X0032678Y0092429D01*
X0032650Y0092510D01*
X0032626Y0092592D01*
X0032606Y0092676D01*
X0032589Y0092760D01*
X0032576Y0092845D01*
X0032566Y0092930D01*
X0032561Y0093016D01*
X0032559Y0093102D01*
X0032559Y0101764D01*
X0032561Y0101850D01*
X0032566Y0101936D01*
X0032576Y0102021D01*
X0032589Y0102106D01*
X0032606Y0102190D01*
X0032626Y0102274D01*
X0032650Y0102356D01*
X0032678Y0102437D01*
X0032709Y0102518D01*
X0032743Y0102596D01*
X0032781Y0102673D01*
X0032823Y0102749D01*
X0032867Y0102822D01*
X0032915Y0102893D01*
X0032966Y0102963D01*
X0033020Y0103030D01*
X0033076Y0103094D01*
X0033136Y0103156D01*
X0033198Y0103216D01*
X0033262Y0103272D01*
X0033329Y0103326D01*
X0033399Y0103377D01*
X0033470Y0103425D01*
X0033544Y0103469D01*
X0033619Y0103511D01*
X0033696Y0103549D01*
X0033774Y0103583D01*
X0033855Y0103614D01*
X0033936Y0103642D01*
X0034018Y0103666D01*
X0034102Y0103686D01*
X0034186Y0103703D01*
X0034271Y0103716D01*
X0034356Y0103726D01*
X0034442Y0103731D01*
X0034528Y0103733D01*
X0034614Y0103731D01*
X0034700Y0103726D01*
X0034785Y0103716D01*
X0034870Y0103703D01*
X0034954Y0103686D01*
X0035038Y0103666D01*
X0035120Y0103642D01*
X0035201Y0103614D01*
X0035282Y0103583D01*
X0035360Y0103549D01*
X0035437Y0103511D01*
X0035513Y0103469D01*
X0035586Y0103425D01*
X0035657Y0103377D01*
X0035727Y0103326D01*
X0035794Y0103272D01*
X0035858Y0103216D01*
X0035920Y0103156D01*
X0035980Y0103094D01*
X0036036Y0103030D01*
X0036090Y0102963D01*
X0036141Y0102893D01*
X0036189Y0102822D01*
X0036233Y0102749D01*
X0036275Y0102673D01*
X0036313Y0102596D01*
X0036347Y0102518D01*
X0036378Y0102437D01*
X0036406Y0102356D01*
X0036430Y0102274D01*
X0036450Y0102190D01*
X0036467Y0102106D01*
X0036480Y0102021D01*
X0036490Y0101936D01*
X0036495Y0101850D01*
X0036497Y0101764D01*
X0036497Y0093102D02*
X0036495Y0093016D01*
X0036490Y0092930D01*
X0036480Y0092845D01*
X0036467Y0092760D01*
X0036450Y0092676D01*
X0036430Y0092592D01*
X0036406Y0092510D01*
X0036378Y0092429D01*
X0036347Y0092348D01*
X0036313Y0092270D01*
X0036275Y0092193D01*
X0036233Y0092118D01*
X0036189Y0092044D01*
X0036141Y0091973D01*
X0036090Y0091903D01*
X0036036Y0091836D01*
X0035980Y0091772D01*
X0035920Y0091710D01*
X0035858Y0091650D01*
X0035794Y0091594D01*
X0035727Y0091540D01*
X0035657Y0091489D01*
X0035586Y0091441D01*
X0035513Y0091397D01*
X0035437Y0091355D01*
X0035360Y0091317D01*
X0035282Y0091283D01*
X0035201Y0091252D01*
X0035120Y0091224D01*
X0035038Y0091200D01*
X0034954Y0091180D01*
X0034870Y0091163D01*
X0034785Y0091150D01*
X0034700Y0091140D01*
X0034614Y0091135D01*
X0034528Y0091133D01*
D12*
X0027079Y0184943D02*
X0024677Y0184943D01*
X0024677Y0184944D02*
X0024615Y0184946D01*
X0024554Y0184952D01*
X0024493Y0184961D01*
X0024432Y0184975D01*
X0024373Y0184992D01*
X0024315Y0185013D01*
X0024258Y0185038D01*
X0024203Y0185066D01*
X0024150Y0185097D01*
X0024099Y0185132D01*
X0024050Y0185170D01*
X0024003Y0185211D01*
X0023960Y0185254D01*
X0023919Y0185301D01*
X0023881Y0185350D01*
X0023846Y0185401D01*
X0023815Y0185454D01*
X0023787Y0185509D01*
X0023762Y0185566D01*
X0023741Y0185624D01*
X0023724Y0185683D01*
X0023710Y0185744D01*
X0023701Y0185805D01*
X0023695Y0185866D01*
X0023693Y0185928D01*
X0023693Y0186006D01*
X0023692Y0186007D02*
X0023695Y0186067D01*
X0023702Y0186127D01*
X0023713Y0186187D01*
X0023727Y0186246D01*
X0023746Y0186304D01*
X0023767Y0186360D01*
X0023792Y0186416D01*
X0023821Y0186469D01*
X0023853Y0186521D01*
X0023888Y0186570D01*
X0023926Y0186617D01*
X0023967Y0186662D01*
X0024011Y0186704D01*
X0024057Y0186743D01*
X0024106Y0186779D01*
X0024157Y0186812D01*
X0024209Y0186842D01*
X0024264Y0186868D01*
X0024320Y0186891D01*
X0024378Y0186911D01*
X0024436Y0186926D01*
X0024496Y0186938D01*
X0024556Y0186947D01*
X0024616Y0186951D01*
X0024677Y0186952D01*
X0024677Y0186951D02*
X0027157Y0186951D01*
X0027158Y0186951D02*
X0027216Y0186948D01*
X0027273Y0186941D01*
X0027330Y0186930D01*
X0027386Y0186916D01*
X0027441Y0186897D01*
X0027495Y0186876D01*
X0027547Y0186851D01*
X0027598Y0186822D01*
X0027646Y0186791D01*
X0027693Y0186756D01*
X0027737Y0186718D01*
X0027778Y0186677D01*
X0027817Y0186634D01*
X0027853Y0186589D01*
X0027885Y0186541D01*
X0027915Y0186491D01*
X0027941Y0186439D01*
X0027964Y0186386D01*
X0027983Y0186331D01*
X0027999Y0186275D01*
X0028011Y0186219D01*
X0028019Y0186161D01*
X0028023Y0186103D01*
X0028024Y0186045D01*
X0028024Y0186046D02*
X0028024Y0185888D01*
X0028022Y0185829D01*
X0028017Y0185770D01*
X0028007Y0185711D01*
X0027994Y0185653D01*
X0027978Y0185596D01*
X0027958Y0185540D01*
X0027934Y0185486D01*
X0027907Y0185433D01*
X0027877Y0185382D01*
X0027844Y0185333D01*
X0027807Y0185286D01*
X0027768Y0185241D01*
X0027726Y0185199D01*
X0027681Y0185160D01*
X0027634Y0185123D01*
X0027585Y0185090D01*
X0027534Y0185060D01*
X0027481Y0185033D01*
X0027427Y0185009D01*
X0027371Y0184989D01*
X0027314Y0184973D01*
X0027256Y0184960D01*
X0027197Y0184950D01*
X0027138Y0184945D01*
X0027079Y0184943D01*
X0027157Y0213487D02*
X0024677Y0213487D01*
X0024677Y0213486D02*
X0024616Y0213487D01*
X0024556Y0213491D01*
X0024496Y0213500D01*
X0024436Y0213512D01*
X0024378Y0213527D01*
X0024320Y0213547D01*
X0024264Y0213570D01*
X0024209Y0213596D01*
X0024157Y0213626D01*
X0024106Y0213659D01*
X0024057Y0213695D01*
X0024011Y0213734D01*
X0023967Y0213776D01*
X0023926Y0213821D01*
X0023888Y0213868D01*
X0023853Y0213917D01*
X0023821Y0213969D01*
X0023792Y0214022D01*
X0023767Y0214078D01*
X0023746Y0214134D01*
X0023727Y0214192D01*
X0023713Y0214251D01*
X0023702Y0214311D01*
X0023695Y0214371D01*
X0023692Y0214431D01*
X0023693Y0214431D02*
X0023693Y0214550D01*
X0023693Y0214549D02*
X0023694Y0214607D01*
X0023698Y0214665D01*
X0023706Y0214723D01*
X0023717Y0214780D01*
X0023732Y0214836D01*
X0023751Y0214891D01*
X0023773Y0214945D01*
X0023798Y0214997D01*
X0023827Y0215048D01*
X0023858Y0215097D01*
X0023893Y0215143D01*
X0023930Y0215188D01*
X0023971Y0215230D01*
X0024013Y0215269D01*
X0024059Y0215306D01*
X0024106Y0215339D01*
X0024155Y0215370D01*
X0024206Y0215397D01*
X0024259Y0215422D01*
X0024314Y0215442D01*
X0024369Y0215460D01*
X0024425Y0215474D01*
X0024483Y0215484D01*
X0024540Y0215491D01*
X0024598Y0215494D01*
X0027197Y0215494D01*
X0027197Y0215495D02*
X0027255Y0215489D01*
X0027312Y0215480D01*
X0027369Y0215466D01*
X0027424Y0215450D01*
X0027479Y0215429D01*
X0027532Y0215405D01*
X0027583Y0215378D01*
X0027632Y0215347D01*
X0027679Y0215313D01*
X0027724Y0215276D01*
X0027767Y0215236D01*
X0027806Y0215194D01*
X0027843Y0215149D01*
X0027877Y0215102D01*
X0027908Y0215052D01*
X0027935Y0215001D01*
X0027959Y0214948D01*
X0027979Y0214893D01*
X0027996Y0214838D01*
X0028009Y0214781D01*
X0028019Y0214724D01*
X0028024Y0214666D01*
X0028026Y0214608D01*
X0028024Y0214550D01*
X0028024Y0214431D01*
X0028023Y0214431D02*
X0028024Y0214372D01*
X0028021Y0214313D01*
X0028013Y0214254D01*
X0028002Y0214196D01*
X0027988Y0214138D01*
X0027969Y0214082D01*
X0027947Y0214027D01*
X0027922Y0213974D01*
X0027892Y0213922D01*
X0027860Y0213872D01*
X0027824Y0213825D01*
X0027786Y0213780D01*
X0027744Y0213737D01*
X0027700Y0213698D01*
X0027654Y0213661D01*
X0027605Y0213628D01*
X0027554Y0213598D01*
X0027501Y0213571D01*
X0027446Y0213548D01*
X0027390Y0213528D01*
X0027333Y0213512D01*
X0027275Y0213500D01*
X0027216Y0213491D01*
X0027157Y0213487D01*
X0027079Y0228250D02*
X0024677Y0228250D01*
X0024677Y0228251D02*
X0024615Y0228253D01*
X0024554Y0228259D01*
X0024493Y0228268D01*
X0024432Y0228282D01*
X0024373Y0228299D01*
X0024315Y0228320D01*
X0024258Y0228345D01*
X0024203Y0228373D01*
X0024150Y0228404D01*
X0024099Y0228439D01*
X0024050Y0228477D01*
X0024003Y0228518D01*
X0023960Y0228561D01*
X0023919Y0228608D01*
X0023881Y0228657D01*
X0023846Y0228708D01*
X0023815Y0228761D01*
X0023787Y0228816D01*
X0023762Y0228873D01*
X0023741Y0228931D01*
X0023724Y0228990D01*
X0023710Y0229051D01*
X0023701Y0229112D01*
X0023695Y0229173D01*
X0023693Y0229235D01*
X0023693Y0229313D01*
X0023692Y0229314D02*
X0023695Y0229374D01*
X0023702Y0229434D01*
X0023713Y0229494D01*
X0023727Y0229553D01*
X0023746Y0229611D01*
X0023767Y0229667D01*
X0023792Y0229723D01*
X0023821Y0229776D01*
X0023853Y0229828D01*
X0023888Y0229877D01*
X0023926Y0229924D01*
X0023967Y0229969D01*
X0024011Y0230011D01*
X0024057Y0230050D01*
X0024106Y0230086D01*
X0024157Y0230119D01*
X0024209Y0230149D01*
X0024264Y0230175D01*
X0024320Y0230198D01*
X0024378Y0230218D01*
X0024436Y0230233D01*
X0024496Y0230245D01*
X0024556Y0230254D01*
X0024616Y0230258D01*
X0024677Y0230259D01*
X0024677Y0230258D02*
X0027157Y0230258D01*
X0027158Y0230258D02*
X0027216Y0230255D01*
X0027273Y0230248D01*
X0027330Y0230237D01*
X0027386Y0230223D01*
X0027441Y0230204D01*
X0027495Y0230183D01*
X0027547Y0230158D01*
X0027598Y0230129D01*
X0027646Y0230098D01*
X0027693Y0230063D01*
X0027737Y0230025D01*
X0027778Y0229984D01*
X0027817Y0229941D01*
X0027853Y0229896D01*
X0027885Y0229848D01*
X0027915Y0229798D01*
X0027941Y0229746D01*
X0027964Y0229693D01*
X0027983Y0229638D01*
X0027999Y0229582D01*
X0028011Y0229526D01*
X0028019Y0229468D01*
X0028023Y0229410D01*
X0028024Y0229352D01*
X0028024Y0229353D02*
X0028024Y0229195D01*
X0028022Y0229136D01*
X0028017Y0229077D01*
X0028007Y0229018D01*
X0027994Y0228960D01*
X0027978Y0228903D01*
X0027958Y0228847D01*
X0027934Y0228793D01*
X0027907Y0228740D01*
X0027877Y0228689D01*
X0027844Y0228640D01*
X0027807Y0228593D01*
X0027768Y0228548D01*
X0027726Y0228506D01*
X0027681Y0228467D01*
X0027634Y0228430D01*
X0027585Y0228397D01*
X0027534Y0228367D01*
X0027481Y0228340D01*
X0027427Y0228316D01*
X0027371Y0228296D01*
X0027314Y0228280D01*
X0027256Y0228267D01*
X0027197Y0228257D01*
X0027138Y0228252D01*
X0027079Y0228250D01*
X0027157Y0256794D02*
X0024677Y0256794D01*
X0024677Y0256793D02*
X0024616Y0256794D01*
X0024556Y0256798D01*
X0024496Y0256807D01*
X0024436Y0256819D01*
X0024378Y0256834D01*
X0024320Y0256854D01*
X0024264Y0256877D01*
X0024209Y0256903D01*
X0024157Y0256933D01*
X0024106Y0256966D01*
X0024057Y0257002D01*
X0024011Y0257041D01*
X0023967Y0257083D01*
X0023926Y0257128D01*
X0023888Y0257175D01*
X0023853Y0257224D01*
X0023821Y0257276D01*
X0023792Y0257329D01*
X0023767Y0257385D01*
X0023746Y0257441D01*
X0023727Y0257499D01*
X0023713Y0257558D01*
X0023702Y0257618D01*
X0023695Y0257678D01*
X0023692Y0257738D01*
X0023693Y0257739D02*
X0023693Y0257857D01*
X0023693Y0257856D02*
X0023694Y0257914D01*
X0023698Y0257972D01*
X0023706Y0258030D01*
X0023717Y0258087D01*
X0023732Y0258143D01*
X0023751Y0258198D01*
X0023773Y0258252D01*
X0023798Y0258304D01*
X0023827Y0258355D01*
X0023858Y0258404D01*
X0023893Y0258450D01*
X0023930Y0258495D01*
X0023971Y0258537D01*
X0024013Y0258576D01*
X0024059Y0258613D01*
X0024106Y0258646D01*
X0024155Y0258677D01*
X0024206Y0258704D01*
X0024259Y0258729D01*
X0024314Y0258749D01*
X0024369Y0258767D01*
X0024425Y0258781D01*
X0024483Y0258791D01*
X0024540Y0258798D01*
X0024598Y0258801D01*
X0024598Y0258802D02*
X0027197Y0258802D01*
X0027255Y0258796D01*
X0027312Y0258787D01*
X0027369Y0258773D01*
X0027424Y0258757D01*
X0027479Y0258736D01*
X0027532Y0258712D01*
X0027583Y0258685D01*
X0027632Y0258654D01*
X0027679Y0258620D01*
X0027724Y0258583D01*
X0027767Y0258543D01*
X0027806Y0258501D01*
X0027843Y0258456D01*
X0027877Y0258409D01*
X0027908Y0258359D01*
X0027935Y0258308D01*
X0027959Y0258255D01*
X0027979Y0258200D01*
X0027996Y0258145D01*
X0028009Y0258088D01*
X0028019Y0258031D01*
X0028024Y0257973D01*
X0028026Y0257915D01*
X0028024Y0257857D01*
X0028024Y0257739D01*
X0028023Y0257738D02*
X0028024Y0257679D01*
X0028021Y0257620D01*
X0028013Y0257561D01*
X0028002Y0257503D01*
X0027988Y0257445D01*
X0027969Y0257389D01*
X0027947Y0257334D01*
X0027922Y0257281D01*
X0027892Y0257229D01*
X0027860Y0257179D01*
X0027824Y0257132D01*
X0027786Y0257087D01*
X0027744Y0257044D01*
X0027700Y0257005D01*
X0027654Y0256968D01*
X0027605Y0256935D01*
X0027554Y0256905D01*
X0027501Y0256878D01*
X0027446Y0256855D01*
X0027390Y0256835D01*
X0027333Y0256819D01*
X0027275Y0256807D01*
X0027216Y0256798D01*
X0027157Y0256794D01*
M02*
