G75*
%MOIN*%
%OFA0B0*%
%FSLAX25Y25*%
%IPPOS*%
%LPD*%
%AMOC8*
5,1,8,0,0,1.08239X$1,22.5*
%
%ADD10C,0.08674*%
%ADD11R,0.18910X0.04737*%
%ADD12R,0.14186X0.07099*%
%ADD13R,0.03950X0.03950*%
%ADD14R,0.05131X0.04737*%
%ADD15R,0.04737X0.05131*%
%ADD16R,0.05100X0.08700*%
%ADD17R,0.03950X0.04737*%
%ADD18C,0.01641*%
%ADD19C,0.01995*%
%ADD20R,0.04737X0.04737*%
%ADD21OC8,0.08200*%
%ADD22C,0.08200*%
%ADD23R,0.06706X0.05918*%
%ADD24R,0.03300X0.05800*%
%ADD25C,0.00500*%
%ADD26R,0.05800X0.03300*%
%ADD27R,0.06312X0.12611*%
%ADD28R,0.06800X0.06800*%
%ADD29C,0.06800*%
%ADD30C,0.08300*%
%ADD31C,0.11300*%
%ADD32R,0.06312X0.02375*%
%ADD33C,0.05562*%
%ADD34C,0.05169*%
%ADD35R,0.09068X0.03556*%
%ADD36R,0.04343X0.02769*%
%ADD37C,0.24422*%
%ADD38C,0.07887*%
D10*
X0043583Y0077748D02*
X0051457Y0077748D01*
X0059331Y0093496D02*
X0059331Y0101370D01*
X0034528Y0101370D02*
X0034528Y0093496D01*
D11*
X0047315Y0141164D03*
X0047315Y0149038D03*
D12*
X0026843Y0158487D03*
X0026843Y0131715D03*
D13*
X0028461Y0173427D03*
X0022556Y0173427D03*
D14*
X0335189Y0133605D03*
X0342984Y0133605D03*
X0350858Y0133605D03*
X0350858Y0126912D03*
X0342984Y0126912D03*
X0335189Y0126912D03*
D15*
X0366219Y0128959D03*
X0372912Y0128959D03*
X0372912Y0101006D03*
X0372912Y0094313D03*
X0366219Y0094313D03*
X0366219Y0101006D03*
X0342354Y0171321D03*
X0335661Y0171321D03*
X0041849Y0173427D03*
X0035156Y0173427D03*
D16*
X0112299Y0177864D03*
X0122299Y0177864D03*
X0122299Y0142464D03*
X0112299Y0142464D03*
D17*
X0334948Y0147660D03*
X0339279Y0147660D03*
X0339279Y0153565D03*
X0334948Y0153565D03*
D18*
X0289249Y0159248D02*
X0280247Y0159248D01*
X0289249Y0159248D02*
X0289249Y0154576D01*
X0280247Y0154576D01*
X0280247Y0159248D01*
X0280247Y0156135D02*
X0289249Y0156135D01*
X0289249Y0157694D02*
X0280247Y0157694D01*
X0280247Y0151374D02*
X0289249Y0151374D01*
X0289249Y0146702D01*
X0280247Y0146702D01*
X0280247Y0151374D01*
X0280247Y0148261D02*
X0289249Y0148261D01*
X0289249Y0149820D02*
X0280247Y0149820D01*
X0280247Y0143500D02*
X0289249Y0143500D01*
X0289249Y0138828D01*
X0280247Y0138828D01*
X0280247Y0143500D01*
X0280247Y0140387D02*
X0289249Y0140387D01*
X0289249Y0141946D02*
X0280247Y0141946D01*
X0280247Y0135626D02*
X0289249Y0135626D01*
X0289249Y0130954D01*
X0280247Y0130954D01*
X0280247Y0135626D01*
X0280247Y0132513D02*
X0289249Y0132513D01*
X0289249Y0134072D02*
X0280247Y0134072D01*
X0280247Y0127752D02*
X0289249Y0127752D01*
X0289249Y0123080D01*
X0280247Y0123080D01*
X0280247Y0127752D01*
X0280247Y0124639D02*
X0289249Y0124639D01*
X0289249Y0126198D02*
X0280247Y0126198D01*
X0280247Y0119878D02*
X0289249Y0119878D01*
X0289249Y0115206D01*
X0280247Y0115206D01*
X0280247Y0119878D01*
X0280247Y0116765D02*
X0289249Y0116765D01*
X0289249Y0118324D02*
X0280247Y0118324D01*
X0280247Y0112004D02*
X0289249Y0112004D01*
X0289249Y0107332D01*
X0280247Y0107332D01*
X0280247Y0112004D01*
X0280247Y0108891D02*
X0289249Y0108891D01*
X0289249Y0110450D02*
X0280247Y0110450D01*
X0280247Y0104130D02*
X0289249Y0104130D01*
X0289249Y0099458D01*
X0280247Y0099458D01*
X0280247Y0104130D01*
X0280247Y0101017D02*
X0289249Y0101017D01*
X0289249Y0102576D02*
X0280247Y0102576D01*
X0280247Y0096256D02*
X0289249Y0096256D01*
X0289249Y0091584D01*
X0280247Y0091584D01*
X0280247Y0096256D01*
X0280247Y0093143D02*
X0289249Y0093143D01*
X0289249Y0094702D02*
X0280247Y0094702D01*
X0280247Y0088382D02*
X0289249Y0088382D01*
X0289249Y0083710D01*
X0280247Y0083710D01*
X0280247Y0088382D01*
X0280247Y0085269D02*
X0289249Y0085269D01*
X0289249Y0086828D02*
X0280247Y0086828D01*
X0280247Y0080508D02*
X0289249Y0080508D01*
X0289249Y0075836D01*
X0280247Y0075836D01*
X0280247Y0080508D01*
X0280247Y0077395D02*
X0289249Y0077395D01*
X0289249Y0078954D02*
X0280247Y0078954D01*
X0280247Y0072634D02*
X0289249Y0072634D01*
X0289249Y0067962D01*
X0280247Y0067962D01*
X0280247Y0072634D01*
X0280247Y0069521D02*
X0289249Y0069521D01*
X0289249Y0071080D02*
X0280247Y0071080D01*
X0280247Y0064760D02*
X0289249Y0064760D01*
X0289249Y0060088D01*
X0280247Y0060088D01*
X0280247Y0064760D01*
X0280247Y0061647D02*
X0289249Y0061647D01*
X0289249Y0063206D02*
X0280247Y0063206D01*
X0280247Y0056886D02*
X0289249Y0056886D01*
X0289249Y0052214D01*
X0280247Y0052214D01*
X0280247Y0056886D01*
X0280247Y0053773D02*
X0289249Y0053773D01*
X0289249Y0055332D02*
X0280247Y0055332D01*
X0280247Y0049012D02*
X0289249Y0049012D01*
X0289249Y0044340D01*
X0280247Y0044340D01*
X0280247Y0049012D01*
X0280247Y0045899D02*
X0289249Y0045899D01*
X0289249Y0047458D02*
X0280247Y0047458D01*
X0147454Y0044340D02*
X0138452Y0044340D01*
X0138452Y0049012D01*
X0147454Y0049012D01*
X0147454Y0044340D01*
X0147454Y0045899D02*
X0138452Y0045899D01*
X0138452Y0047458D02*
X0147454Y0047458D01*
X0147454Y0052214D02*
X0138452Y0052214D01*
X0138452Y0056886D01*
X0147454Y0056886D01*
X0147454Y0052214D01*
X0147454Y0053773D02*
X0138452Y0053773D01*
X0138452Y0055332D02*
X0147454Y0055332D01*
X0147454Y0060088D02*
X0138452Y0060088D01*
X0138452Y0064760D01*
X0147454Y0064760D01*
X0147454Y0060088D01*
X0147454Y0061647D02*
X0138452Y0061647D01*
X0138452Y0063206D02*
X0147454Y0063206D01*
X0147454Y0067962D02*
X0138452Y0067962D01*
X0138452Y0072634D01*
X0147454Y0072634D01*
X0147454Y0067962D01*
X0147454Y0069521D02*
X0138452Y0069521D01*
X0138452Y0071080D02*
X0147454Y0071080D01*
X0147454Y0075836D02*
X0138452Y0075836D01*
X0138452Y0080508D01*
X0147454Y0080508D01*
X0147454Y0075836D01*
X0147454Y0077395D02*
X0138452Y0077395D01*
X0138452Y0078954D02*
X0147454Y0078954D01*
X0147454Y0083710D02*
X0138452Y0083710D01*
X0138452Y0088382D01*
X0147454Y0088382D01*
X0147454Y0083710D01*
X0147454Y0085269D02*
X0138452Y0085269D01*
X0138452Y0086828D02*
X0147454Y0086828D01*
X0147454Y0091584D02*
X0138452Y0091584D01*
X0138452Y0096256D01*
X0147454Y0096256D01*
X0147454Y0091584D01*
X0147454Y0093143D02*
X0138452Y0093143D01*
X0138452Y0094702D02*
X0147454Y0094702D01*
X0147454Y0099458D02*
X0138452Y0099458D01*
X0138452Y0104130D01*
X0147454Y0104130D01*
X0147454Y0099458D01*
X0147454Y0101017D02*
X0138452Y0101017D01*
X0138452Y0102576D02*
X0147454Y0102576D01*
X0147454Y0107332D02*
X0138452Y0107332D01*
X0138452Y0112004D01*
X0147454Y0112004D01*
X0147454Y0107332D01*
X0147454Y0108891D02*
X0138452Y0108891D01*
X0138452Y0110450D02*
X0147454Y0110450D01*
X0147454Y0115206D02*
X0138452Y0115206D01*
X0138452Y0119878D01*
X0147454Y0119878D01*
X0147454Y0115206D01*
X0147454Y0116765D02*
X0138452Y0116765D01*
X0138452Y0118324D02*
X0147454Y0118324D01*
X0147454Y0123080D02*
X0138452Y0123080D01*
X0138452Y0127752D01*
X0147454Y0127752D01*
X0147454Y0123080D01*
X0147454Y0124639D02*
X0138452Y0124639D01*
X0138452Y0126198D02*
X0147454Y0126198D01*
X0147454Y0130954D02*
X0138452Y0130954D01*
X0138452Y0135626D01*
X0147454Y0135626D01*
X0147454Y0130954D01*
X0147454Y0132513D02*
X0138452Y0132513D01*
X0138452Y0134072D02*
X0147454Y0134072D01*
X0147454Y0138828D02*
X0138452Y0138828D01*
X0138452Y0143500D01*
X0147454Y0143500D01*
X0147454Y0138828D01*
X0147454Y0140387D02*
X0138452Y0140387D01*
X0138452Y0141946D02*
X0147454Y0141946D01*
X0147454Y0146702D02*
X0138452Y0146702D01*
X0138452Y0151374D01*
X0147454Y0151374D01*
X0147454Y0146702D01*
X0147454Y0148261D02*
X0138452Y0148261D01*
X0138452Y0149820D02*
X0147454Y0149820D01*
X0147454Y0154576D02*
X0138452Y0154576D01*
X0138452Y0159248D01*
X0147454Y0159248D01*
X0147454Y0154576D01*
X0147454Y0156135D02*
X0138452Y0156135D01*
X0138452Y0157694D02*
X0147454Y0157694D01*
X0147454Y0162450D02*
X0138452Y0162450D01*
X0138452Y0167122D01*
X0147454Y0167122D01*
X0147454Y0162450D01*
X0147454Y0164009D02*
X0138452Y0164009D01*
X0138452Y0165568D02*
X0147454Y0165568D01*
X0147454Y0170324D02*
X0138452Y0170324D01*
X0138452Y0174996D01*
X0147454Y0174996D01*
X0147454Y0170324D01*
X0147454Y0171883D02*
X0138452Y0171883D01*
X0138452Y0173442D02*
X0147454Y0173442D01*
X0147454Y0178198D02*
X0138452Y0178198D01*
X0138452Y0182870D01*
X0147454Y0182870D01*
X0147454Y0178198D01*
X0147454Y0179757D02*
X0138452Y0179757D01*
X0138452Y0181316D02*
X0147454Y0181316D01*
X0147454Y0186072D02*
X0138452Y0186072D01*
X0138452Y0190744D01*
X0147454Y0190744D01*
X0147454Y0186072D01*
X0147454Y0187631D02*
X0138452Y0187631D01*
X0138452Y0189190D02*
X0147454Y0189190D01*
X0147454Y0193946D02*
X0138452Y0193946D01*
X0138452Y0198618D01*
X0147454Y0198618D01*
X0147454Y0193946D01*
X0147454Y0195505D02*
X0138452Y0195505D01*
X0138452Y0197064D02*
X0147454Y0197064D01*
X0148522Y0203623D02*
X0148522Y0212625D01*
X0153194Y0212625D01*
X0153194Y0203623D01*
X0148522Y0203623D01*
X0148522Y0205182D02*
X0153194Y0205182D01*
X0153194Y0206741D02*
X0148522Y0206741D01*
X0148522Y0208300D02*
X0153194Y0208300D01*
X0153194Y0209859D02*
X0148522Y0209859D01*
X0148522Y0211418D02*
X0153194Y0211418D01*
X0156396Y0212625D02*
X0156396Y0203623D01*
X0156396Y0212625D02*
X0161068Y0212625D01*
X0161068Y0203623D01*
X0156396Y0203623D01*
X0156396Y0205182D02*
X0161068Y0205182D01*
X0161068Y0206741D02*
X0156396Y0206741D01*
X0156396Y0208300D02*
X0161068Y0208300D01*
X0161068Y0209859D02*
X0156396Y0209859D01*
X0156396Y0211418D02*
X0161068Y0211418D01*
X0164270Y0212625D02*
X0164270Y0203623D01*
X0164270Y0212625D02*
X0168942Y0212625D01*
X0168942Y0203623D01*
X0164270Y0203623D01*
X0164270Y0205182D02*
X0168942Y0205182D01*
X0168942Y0206741D02*
X0164270Y0206741D01*
X0164270Y0208300D02*
X0168942Y0208300D01*
X0168942Y0209859D02*
X0164270Y0209859D01*
X0164270Y0211418D02*
X0168942Y0211418D01*
X0172144Y0212625D02*
X0172144Y0203623D01*
X0172144Y0212625D02*
X0176816Y0212625D01*
X0176816Y0203623D01*
X0172144Y0203623D01*
X0172144Y0205182D02*
X0176816Y0205182D01*
X0176816Y0206741D02*
X0172144Y0206741D01*
X0172144Y0208300D02*
X0176816Y0208300D01*
X0176816Y0209859D02*
X0172144Y0209859D01*
X0172144Y0211418D02*
X0176816Y0211418D01*
X0180018Y0212625D02*
X0180018Y0203623D01*
X0180018Y0212625D02*
X0184690Y0212625D01*
X0184690Y0203623D01*
X0180018Y0203623D01*
X0180018Y0205182D02*
X0184690Y0205182D01*
X0184690Y0206741D02*
X0180018Y0206741D01*
X0180018Y0208300D02*
X0184690Y0208300D01*
X0184690Y0209859D02*
X0180018Y0209859D01*
X0180018Y0211418D02*
X0184690Y0211418D01*
X0187892Y0212625D02*
X0187892Y0203623D01*
X0187892Y0212625D02*
X0192564Y0212625D01*
X0192564Y0203623D01*
X0187892Y0203623D01*
X0187892Y0205182D02*
X0192564Y0205182D01*
X0192564Y0206741D02*
X0187892Y0206741D01*
X0187892Y0208300D02*
X0192564Y0208300D01*
X0192564Y0209859D02*
X0187892Y0209859D01*
X0187892Y0211418D02*
X0192564Y0211418D01*
X0195766Y0212625D02*
X0195766Y0203623D01*
X0195766Y0212625D02*
X0200438Y0212625D01*
X0200438Y0203623D01*
X0195766Y0203623D01*
X0195766Y0205182D02*
X0200438Y0205182D01*
X0200438Y0206741D02*
X0195766Y0206741D01*
X0195766Y0208300D02*
X0200438Y0208300D01*
X0200438Y0209859D02*
X0195766Y0209859D01*
X0195766Y0211418D02*
X0200438Y0211418D01*
X0203640Y0212625D02*
X0203640Y0203623D01*
X0203640Y0212625D02*
X0208312Y0212625D01*
X0208312Y0203623D01*
X0203640Y0203623D01*
X0203640Y0205182D02*
X0208312Y0205182D01*
X0208312Y0206741D02*
X0203640Y0206741D01*
X0203640Y0208300D02*
X0208312Y0208300D01*
X0208312Y0209859D02*
X0203640Y0209859D01*
X0203640Y0211418D02*
X0208312Y0211418D01*
X0211514Y0212625D02*
X0211514Y0203623D01*
X0211514Y0212625D02*
X0216186Y0212625D01*
X0216186Y0203623D01*
X0211514Y0203623D01*
X0211514Y0205182D02*
X0216186Y0205182D01*
X0216186Y0206741D02*
X0211514Y0206741D01*
X0211514Y0208300D02*
X0216186Y0208300D01*
X0216186Y0209859D02*
X0211514Y0209859D01*
X0211514Y0211418D02*
X0216186Y0211418D01*
X0219388Y0212625D02*
X0219388Y0203623D01*
X0219388Y0212625D02*
X0224060Y0212625D01*
X0224060Y0203623D01*
X0219388Y0203623D01*
X0219388Y0205182D02*
X0224060Y0205182D01*
X0224060Y0206741D02*
X0219388Y0206741D01*
X0219388Y0208300D02*
X0224060Y0208300D01*
X0224060Y0209859D02*
X0219388Y0209859D01*
X0219388Y0211418D02*
X0224060Y0211418D01*
X0227262Y0212625D02*
X0227262Y0203623D01*
X0227262Y0212625D02*
X0231934Y0212625D01*
X0231934Y0203623D01*
X0227262Y0203623D01*
X0227262Y0205182D02*
X0231934Y0205182D01*
X0231934Y0206741D02*
X0227262Y0206741D01*
X0227262Y0208300D02*
X0231934Y0208300D01*
X0231934Y0209859D02*
X0227262Y0209859D01*
X0227262Y0211418D02*
X0231934Y0211418D01*
X0235136Y0212625D02*
X0235136Y0203623D01*
X0235136Y0212625D02*
X0239808Y0212625D01*
X0239808Y0203623D01*
X0235136Y0203623D01*
X0235136Y0205182D02*
X0239808Y0205182D01*
X0239808Y0206741D02*
X0235136Y0206741D01*
X0235136Y0208300D02*
X0239808Y0208300D01*
X0239808Y0209859D02*
X0235136Y0209859D01*
X0235136Y0211418D02*
X0239808Y0211418D01*
X0243010Y0212625D02*
X0243010Y0203623D01*
X0243010Y0212625D02*
X0247682Y0212625D01*
X0247682Y0203623D01*
X0243010Y0203623D01*
X0243010Y0205182D02*
X0247682Y0205182D01*
X0247682Y0206741D02*
X0243010Y0206741D01*
X0243010Y0208300D02*
X0247682Y0208300D01*
X0247682Y0209859D02*
X0243010Y0209859D01*
X0243010Y0211418D02*
X0247682Y0211418D01*
X0250884Y0212625D02*
X0250884Y0203623D01*
X0250884Y0212625D02*
X0255556Y0212625D01*
X0255556Y0203623D01*
X0250884Y0203623D01*
X0250884Y0205182D02*
X0255556Y0205182D01*
X0255556Y0206741D02*
X0250884Y0206741D01*
X0250884Y0208300D02*
X0255556Y0208300D01*
X0255556Y0209859D02*
X0250884Y0209859D01*
X0250884Y0211418D02*
X0255556Y0211418D01*
X0258758Y0212625D02*
X0258758Y0203623D01*
X0258758Y0212625D02*
X0263430Y0212625D01*
X0263430Y0203623D01*
X0258758Y0203623D01*
X0258758Y0205182D02*
X0263430Y0205182D01*
X0263430Y0206741D02*
X0258758Y0206741D01*
X0258758Y0208300D02*
X0263430Y0208300D01*
X0263430Y0209859D02*
X0258758Y0209859D01*
X0258758Y0211418D02*
X0263430Y0211418D01*
X0266633Y0212625D02*
X0266633Y0203623D01*
X0266633Y0212625D02*
X0271305Y0212625D01*
X0271305Y0203623D01*
X0266633Y0203623D01*
X0266633Y0205182D02*
X0271305Y0205182D01*
X0271305Y0206741D02*
X0266633Y0206741D01*
X0266633Y0208300D02*
X0271305Y0208300D01*
X0271305Y0209859D02*
X0266633Y0209859D01*
X0266633Y0211418D02*
X0271305Y0211418D01*
X0274507Y0212625D02*
X0274507Y0203623D01*
X0274507Y0212625D02*
X0279179Y0212625D01*
X0279179Y0203623D01*
X0274507Y0203623D01*
X0274507Y0205182D02*
X0279179Y0205182D01*
X0279179Y0206741D02*
X0274507Y0206741D01*
X0274507Y0208300D02*
X0279179Y0208300D01*
X0279179Y0209859D02*
X0274507Y0209859D01*
X0274507Y0211418D02*
X0279179Y0211418D01*
X0280247Y0198618D02*
X0289249Y0198618D01*
X0289249Y0193946D01*
X0280247Y0193946D01*
X0280247Y0198618D01*
X0280247Y0195505D02*
X0289249Y0195505D01*
X0289249Y0197064D02*
X0280247Y0197064D01*
X0280247Y0190744D02*
X0289249Y0190744D01*
X0289249Y0186072D01*
X0280247Y0186072D01*
X0280247Y0190744D01*
X0280247Y0187631D02*
X0289249Y0187631D01*
X0289249Y0189190D02*
X0280247Y0189190D01*
X0280247Y0182870D02*
X0289249Y0182870D01*
X0289249Y0178198D01*
X0280247Y0178198D01*
X0280247Y0182870D01*
X0280247Y0179757D02*
X0289249Y0179757D01*
X0289249Y0181316D02*
X0280247Y0181316D01*
X0280247Y0174996D02*
X0289249Y0174996D01*
X0289249Y0170324D01*
X0280247Y0170324D01*
X0280247Y0174996D01*
X0280247Y0171883D02*
X0289249Y0171883D01*
X0289249Y0173442D02*
X0280247Y0173442D01*
X0280247Y0167122D02*
X0289249Y0167122D01*
X0289249Y0162450D01*
X0280247Y0162450D01*
X0280247Y0167122D01*
X0280247Y0164009D02*
X0289249Y0164009D01*
X0289249Y0165568D02*
X0280247Y0165568D01*
D19*
X0272309Y0189005D02*
X0265629Y0189005D01*
X0265629Y0195685D01*
X0272309Y0195685D01*
X0272309Y0189005D01*
X0272309Y0190900D02*
X0265629Y0190900D01*
X0265629Y0192795D02*
X0272309Y0192795D01*
X0272309Y0194690D02*
X0265629Y0194690D01*
X0162072Y0189005D02*
X0155392Y0189005D01*
X0155392Y0195685D01*
X0162072Y0195685D01*
X0162072Y0189005D01*
X0162072Y0190900D02*
X0155392Y0190900D01*
X0155392Y0192795D02*
X0162072Y0192795D01*
X0162072Y0194690D02*
X0155392Y0194690D01*
X0265629Y0047273D02*
X0272309Y0047273D01*
X0265629Y0047273D02*
X0265629Y0053953D01*
X0272309Y0053953D01*
X0272309Y0047273D01*
X0272309Y0049168D02*
X0265629Y0049168D01*
X0265629Y0051063D02*
X0272309Y0051063D01*
X0272309Y0052958D02*
X0265629Y0052958D01*
D20*
X0253220Y0152975D03*
X0245346Y0152975D03*
X0237472Y0152975D03*
D21*
X0238850Y0254274D03*
X0228850Y0254274D03*
X0218850Y0254274D03*
X0208850Y0254274D03*
X0198850Y0254274D03*
X0188850Y0254274D03*
X0178850Y0254274D03*
X0168850Y0254274D03*
X0158850Y0254274D03*
X0148850Y0254274D03*
X0138850Y0254274D03*
X0128850Y0254274D03*
X0118850Y0254274D03*
X0108850Y0254274D03*
X0098850Y0254274D03*
X0088850Y0254274D03*
X0088850Y0264274D03*
X0098850Y0264274D03*
X0108850Y0264274D03*
X0118850Y0264274D03*
X0128850Y0264274D03*
X0138850Y0264274D03*
X0148850Y0264274D03*
X0158850Y0264274D03*
X0168850Y0264274D03*
X0178850Y0264274D03*
X0188850Y0264274D03*
X0198850Y0264274D03*
X0208850Y0264274D03*
X0218850Y0264274D03*
X0228850Y0264274D03*
X0238850Y0264274D03*
X0248850Y0264274D03*
X0258850Y0264274D03*
X0258850Y0254274D03*
X0248850Y0254274D03*
X0268850Y0254274D03*
X0278850Y0254274D03*
X0288850Y0254274D03*
X0288850Y0264274D03*
X0278850Y0264274D03*
X0268850Y0264274D03*
X0298850Y0264274D03*
X0308850Y0264274D03*
X0308850Y0254274D03*
X0298850Y0254274D03*
X0318850Y0254274D03*
X0328850Y0254274D03*
X0338850Y0254274D03*
X0338850Y0264274D03*
X0328850Y0264274D03*
X0318850Y0264274D03*
D22*
X0392984Y0184865D03*
X0402984Y0184865D03*
X0402984Y0174865D03*
X0392984Y0174865D03*
X0392984Y0164865D03*
X0402984Y0164865D03*
X0402984Y0154865D03*
X0392984Y0154865D03*
X0392984Y0144865D03*
X0402984Y0144865D03*
X0402984Y0134865D03*
X0392984Y0134865D03*
X0392984Y0124865D03*
X0402984Y0124865D03*
X0402984Y0114865D03*
X0392984Y0114865D03*
X0392984Y0104865D03*
X0402984Y0104865D03*
X0402984Y0094865D03*
X0392984Y0094865D03*
X0060638Y0141696D03*
X0060638Y0151696D03*
X0036154Y0120035D03*
X0026154Y0120035D03*
D23*
X0069362Y0143329D03*
X0069362Y0150809D03*
X0123299Y0101597D03*
X0123299Y0094117D03*
X0131173Y0094117D03*
X0131173Y0101597D03*
X0131567Y0052778D03*
X0122118Y0052778D03*
X0122118Y0045298D03*
X0131567Y0045298D03*
D24*
X0053194Y0173268D03*
X0049194Y0173268D03*
X0334904Y0192542D03*
X0340829Y0192542D03*
X0340829Y0206321D03*
X0334904Y0206321D03*
X0334904Y0108290D03*
X0340829Y0108290D03*
X0340829Y0094510D03*
X0334904Y0094510D03*
D25*
X0334689Y0118485D02*
X0334689Y0119985D01*
X0335689Y0119985D01*
X0335689Y0118485D01*
X0334689Y0118485D01*
X0334689Y0118563D02*
X0335689Y0118563D01*
X0335689Y0119062D02*
X0334689Y0119062D01*
X0334689Y0119560D02*
X0335689Y0119560D01*
X0342484Y0119560D02*
X0343484Y0119560D01*
X0343484Y0119985D02*
X0343484Y0118485D01*
X0342484Y0118485D01*
X0342484Y0119985D01*
X0343484Y0119985D01*
X0343484Y0119062D02*
X0342484Y0119062D01*
X0342484Y0118563D02*
X0343484Y0118563D01*
X0350358Y0118563D02*
X0351358Y0118563D01*
X0351358Y0118485D02*
X0350358Y0118485D01*
X0350358Y0119985D01*
X0351358Y0119985D01*
X0351358Y0118485D01*
X0351358Y0119062D02*
X0350358Y0119062D01*
X0350358Y0119560D02*
X0351358Y0119560D01*
X0051944Y0172768D02*
X0051944Y0173768D01*
X0050444Y0173768D01*
X0050444Y0172768D01*
X0051944Y0172768D01*
X0051944Y0172901D02*
X0050444Y0172901D01*
X0050444Y0173400D02*
X0051944Y0173400D01*
D26*
X0335189Y0121235D03*
X0342984Y0121235D03*
X0342984Y0117235D03*
X0335189Y0117235D03*
X0350858Y0117235D03*
X0350858Y0121235D03*
D27*
X0065425Y0047463D03*
X0065425Y0066361D03*
X0092197Y0066361D03*
X0092197Y0047463D03*
D28*
X0398890Y0225809D03*
X0398890Y0251400D03*
D29*
X0391016Y0251400D03*
X0383142Y0251400D03*
X0375268Y0251400D03*
X0375268Y0225809D03*
X0383142Y0225809D03*
X0391016Y0225809D03*
D30*
X0361094Y0063998D03*
D31*
X0351056Y0053959D03*
X0371133Y0053959D03*
X0371133Y0074037D03*
X0351056Y0074037D03*
D32*
X0036291Y0195101D03*
X0036291Y0197660D03*
X0036291Y0200219D03*
X0036291Y0202778D03*
X0036291Y0205337D03*
X0036291Y0238408D03*
X0036291Y0240967D03*
X0036291Y0243526D03*
X0036291Y0246085D03*
X0036291Y0248644D03*
D33*
X0038672Y0253073D02*
X0033910Y0253073D01*
X0033910Y0233979D02*
X0038672Y0233979D01*
X0038672Y0209766D02*
X0033910Y0209766D01*
X0033910Y0190672D02*
X0038672Y0190672D01*
D34*
X0028043Y0185947D02*
X0023674Y0185947D01*
X0023674Y0214491D02*
X0028043Y0214491D01*
X0028043Y0229254D02*
X0023674Y0229254D01*
X0023674Y0257798D02*
X0028043Y0257798D01*
D35*
X0355583Y0160613D03*
X0355583Y0155613D03*
X0355583Y0150613D03*
X0355583Y0145613D03*
X0355583Y0140613D03*
X0371331Y0140613D03*
X0371331Y0145613D03*
X0371331Y0150613D03*
X0371331Y0155613D03*
X0371331Y0160613D03*
D36*
X0357551Y0171164D03*
X0350071Y0171164D03*
D37*
X0398890Y0278959D03*
X0398890Y0050613D03*
X0028811Y0050613D03*
X0028811Y0278959D03*
D38*
X0060638Y0131715D03*
X0300465Y0101794D03*
M02*
