%
M48
M72
T01C0.01181
T02C0.01969
T03C0.02362
T04C0.03000
T05C0.03740
T06C0.03937
T07C0.04000
T08C0.05000
T09C0.07000
T10C0.12598
%
T01
X28811Y41164
X22512Y44313
X19362Y50613
X22512Y56912
X28811Y60061
X35110Y56912
X38260Y50613
X35110Y44313
X44559Y42739
X52433Y42739
X61094Y43132
X69756Y43132
X69756Y52187
X61094Y52187
X79992Y42739
X87866Y43132
X96134Y43132
X103614Y42739
X96134Y51794
X87866Y51794
X83929Y74235
X76055Y74235
X76055Y82109
X83929Y82109
X76055Y89983
X99677Y109668
X91803Y113605
X89441Y119117
X92984Y130534
X92984Y133683
X92984Y136833
X92984Y139983
X92984Y143132
X92984Y146282
X85504Y152975
X85504Y156912
X73693Y143526
X69756Y139589
X68181Y133290
X72906Y133290
X68181Y125416
X60307Y118329
X62669Y115967
X65031Y113605
X73693Y115180
X57945Y120691
X55583Y123054
X53220Y125416
X44559Y124628
X53220Y115967
X20937Y113605
X20937Y105731
X20937Y97857
X20937Y89983
X20937Y82109
X20937Y74235
X20937Y66361
X103614Y101794
X111488Y97857
X118575Y93920
X123299Y89983
X131173Y89983
X135898Y93920
X135898Y86046
X136685Y70298
X131173Y70298
X127236Y70298
X123299Y70298
X119362Y70298
X122118Y56518
X117787Y54156
X126843Y54156
X131567Y56518
X135898Y54550
X154795Y58487
X165031Y58487
X174480Y58487
X194165Y58487
X194165Y42739
X186291Y42739
X178417Y42739
X170543Y42739
X162669Y42739
X154795Y42739
X202039Y42739
X209913Y42739
X217787Y42739
X225661Y42739
X233535Y42739
X241409Y42739
X249283Y42739
X257157Y42739
X265031Y42739
X272906Y42739
X292197Y54550
X296528Y42739
X304402Y42739
X312276Y42739
X320150Y42739
X328024Y42739
X335898Y42739
X343772Y42739
X351646Y42739
X359520Y42739
X367394Y42739
X375268Y42739
X383142Y42739
X392591Y44313
X398890Y41164
X405189Y44313
X408339Y50613
X405189Y56912
X398890Y60061
X392591Y56912
X389441Y50613
X406764Y66361
X406764Y74235
X406764Y82109
X406764Y89983
X406764Y97857
X406764Y105731
X383811Y112109
X383772Y124156
X383811Y134943
X381449Y141991
X378142Y146046
X387748Y149156
X383890Y160967
X362472Y149865
X348496Y149825
X348299Y155613
X347669Y164156
X354165Y176794
X340780Y186164
X334598Y178841
X328181Y163998
X326646Y153880
X326488Y142817
X326567Y131164
X325661Y118526
X325661Y114628
X325543Y110888
X326646Y106597
X334874Y101203
X326724Y87581
X325386Y80376
X318732Y80337
X331961Y78172
X312591Y58920
X330976Y58447
X292197Y70298
X292197Y78172
X292197Y86046
X278417Y93920
X272906Y97857
X263457Y97857
X253220Y97857
X233535Y97857
X213850Y97857
X213850Y107306
X213850Y117542
X194165Y117542
X174480Y117542
X154795Y117542
X154795Y97857
X165031Y97857
X174480Y97857
X194165Y97857
X194165Y78172
X213850Y58487
X233535Y58487
X253220Y58487
X264244Y58487
X272906Y58487
X233535Y78172
X233535Y117542
X253220Y117542
X272906Y117542
X272906Y137227
X253220Y137227
X233535Y137227
X213850Y137227
X194165Y137227
X174480Y137227
X154795Y137227
X136685Y133290
X134323Y140376
X128811Y140376
X134323Y149825
X136685Y156912
X131173Y156912
X127236Y160849
X123299Y164786
X119362Y168723
X127236Y168723
X131173Y164786
X136685Y180534
X126449Y189983
X119362Y189983
X119362Y193704
X119362Y197285
X119362Y201006
X122512Y204156
X104441Y179668
X72118Y180534
X72236Y185928
X72315Y191164
X64126Y191361
X64244Y186282
X64244Y180534
X68181Y175809
X68181Y168723
X104402Y146676
X104402Y143526
X104402Y140376
X104402Y137227
X104402Y134077
X104402Y130928
X112276Y148250
X117787Y148250
X154795Y156912
X174480Y156912
X194165Y156912
X213850Y156912
X229598Y168723
X237472Y176597
X253220Y176597
X272906Y176597
X253220Y158093
X246921Y158093
X243200Y158093
X239619Y158093
X235898Y158093
X213850Y176597
X209913Y188408
X217787Y196282
X233535Y196282
X253220Y196282
X272906Y200219
X257945Y216754
X253220Y214392
X248496Y216754
X204402Y217542
X200465Y217542
X198102Y214392
X194165Y200219
X194165Y188408
X194165Y176597
X174480Y176597
X174480Y188408
X174480Y200219
X154795Y200219
X154795Y176597
X79992Y227778
X76055Y235652
X83929Y235652
X91803Y239589
X96528Y238014
X63693Y222778
X58732Y215967
X55583Y215967
X55583Y212424
X58732Y212424
X58732Y208880
X55583Y208880
X63890Y207935
X72118Y208093
X53181Y235849
X61882Y245101
X60307Y267148
X44559Y267148
X35110Y272660
X28811Y269510
X22512Y272660
X19362Y278959
X22512Y285258
X28811Y288408
X35110Y285258
X38260Y278959
X44559Y286833
X52433Y286833
X60307Y286833
X68181Y286833
X76055Y286833
X83929Y286833
X91803Y286833
X99677Y286833
X107551Y286833
X115425Y286833
X123299Y286833
X131173Y286833
X139047Y286833
X146921Y286833
X154795Y286833
X162669Y286833
X170543Y286833
X178417Y286833
X186291Y286833
X194165Y286833
X202039Y286833
X209913Y286833
X217787Y286833
X225661Y286833
X233535Y286833
X241409Y286833
X249283Y286833
X257157Y286833
X265031Y286833
X272906Y286833
X280780Y286833
X288654Y286833
X296528Y286833
X304402Y286833
X312276Y286833
X320150Y286833
X328024Y286833
X335898Y286833
X343772Y286833
X351646Y286833
X359520Y286833
X367394Y286833
X375268Y286833
X383142Y286833
X392591Y285258
X398890Y288408
X405189Y285258
X408339Y278959
X405189Y272660
X398890Y269510
X392591Y272660
X389441Y278959
X375268Y275022
X351646Y259274
X351646Y251400
X357787Y251400
X362591Y236321
X359244Y233841
X354087Y230337
X354362Y226400
X350386Y221046
X339756Y212424
X354008Y191282
X375110Y199235
X390622Y194865
X405937Y194235
X406764Y215967
X406764Y223841
X406764Y231715
X406764Y239589
X406764Y247463
X406764Y255337
X406764Y263211
X367394Y235652
X374717Y217817
X390346Y216203
X377236Y178369
X348496Y140376
X366370Y133802
X366291Y123880
X366528Y112306
X354008Y112227
X352157Y101243
X366134Y88959
X387709Y75298
X314520Y118723
X312787Y115219
X309244Y112109
X277630Y156912
X272906Y156912
X161882Y241164
X164244Y247463
X148496Y247463
X148496Y238802
X139441Y239589
X192591Y272660
X204402Y271479
X76055Y267148
X20937Y149038
X20937Y141164
T02
X25858Y185947
X25858Y214491
X25858Y229254
X25858Y257798
T03
X36291Y253073
X36291Y233979
X36291Y209766
X36291Y190672
T04
X375268Y225809
X383142Y225809
X391016Y225809
X398890Y225809
X398890Y251400
X391016Y251400
X383142Y251400
X375268Y251400
T05
X300465Y101794
X60638Y131715
T06
X59331Y97433
X47520Y77748
X34528Y97433
T07
X36154Y120035
X26154Y120035
X60638Y141696
X60638Y151696
X88850Y254274
X98850Y254274
X98850Y264274
X88850Y264274
X108850Y264274
X118850Y264274
X118850Y254274
X108850Y254274
X128850Y254274
X138850Y254274
X138850Y264274
X128850Y264274
X148850Y264274
X158850Y264274
X168850Y264274
X168850Y254274
X158850Y254274
X148850Y254274
X178850Y254274
X188850Y254274
X188850Y264274
X178850Y264274
X198850Y264274
X208850Y264274
X218850Y264274
X218850Y254274
X208850Y254274
X198850Y254274
X228850Y254274
X238850Y254274
X238850Y264274
X228850Y264274
X248850Y264274
X258850Y264274
X258850Y254274
X248850Y254274
X268850Y254274
X278850Y254274
X288850Y254274
X288850Y264274
X278850Y264274
X268850Y264274
X298850Y264274
X308850Y264274
X308850Y254274
X298850Y254274
X318850Y254274
X328850Y254274
X338850Y254274
X338850Y264274
X328850Y264274
X318850Y264274
X392984Y184865
X402984Y184865
X402984Y174865
X392984Y174865
X392984Y164865
X402984Y164865
X402984Y154865
X392984Y154865
X392984Y144865
X402984Y144865
X402984Y134865
X392984Y134865
X392984Y124865
X402984Y124865
X402984Y114865
X392984Y114865
X392984Y104865
X402984Y104865
X402984Y94865
X392984Y94865
T08
X361094Y63998
T09
X351056Y53959
X371133Y53959
X371133Y74037
X351056Y74037
T10
X398890Y50613
X398890Y278959
X28811Y278959
X28811Y50613
M30
