G75*
%MOIN*%
%OFA0B0*%
%FSLAX25Y25*%
%IPPOS*%
%LPD*%
%AMOC8*
5,1,8,0,0,1.08239X$1,22.5*
%
%ADD10C,0.07874*%
%ADD11C,0.04921*%
%ADD12C,0.04959*%
%ADD13C,0.05156*%
%ADD14OC8,0.07400*%
%ADD15C,0.07400*%
%ADD16R,0.06000X0.06000*%
%ADD17C,0.06000*%
%ADD18C,0.07500*%
%ADD19C,0.10500*%
%ADD20R,0.23898X0.23898*%
%ADD21C,0.02781*%
%ADD22C,0.01575*%
%ADD23C,0.06299*%
%ADD24C,0.02400*%
%ADD25C,0.01181*%
%ADD26C,0.00787*%
%ADD27C,0.01200*%
%ADD28C,0.00800*%
%ADD29C,0.23622*%
D10*
X0043583Y0043946D02*
X0051457Y0043946D01*
X0059331Y0059694D02*
X0059331Y0067569D01*
X0034528Y0067569D02*
X0034528Y0059694D01*
D11*
X0035898Y0156870D02*
X0037453Y0156870D01*
X0037453Y0175965D02*
X0035898Y0175965D01*
X0035898Y0200177D02*
X0037453Y0200177D01*
X0037453Y0219272D02*
X0035898Y0219272D01*
D12*
X0036685Y0219272D03*
X0036685Y0200177D03*
X0036685Y0175965D03*
X0036685Y0156870D03*
D13*
X0028830Y0152244D02*
X0023674Y0152244D01*
X0023674Y0180591D02*
X0028830Y0180591D01*
X0028830Y0195551D02*
X0023674Y0195551D01*
X0023674Y0223898D02*
X0028830Y0223898D01*
D14*
X0088850Y0220472D03*
X0098850Y0220472D03*
X0108850Y0220472D03*
X0118850Y0220472D03*
X0128850Y0220472D03*
X0138850Y0220472D03*
X0148850Y0220472D03*
X0158850Y0220472D03*
X0168850Y0220472D03*
X0178850Y0220472D03*
X0188850Y0220472D03*
X0198850Y0220472D03*
X0208850Y0220472D03*
X0218850Y0220472D03*
X0228850Y0220472D03*
X0238850Y0220472D03*
X0248850Y0220472D03*
X0258850Y0220472D03*
X0268850Y0220472D03*
X0278850Y0220472D03*
X0288850Y0220472D03*
X0298850Y0220472D03*
X0308850Y0220472D03*
X0318850Y0220472D03*
X0328850Y0220472D03*
X0338850Y0220472D03*
X0338850Y0230472D03*
X0328850Y0230472D03*
X0318850Y0230472D03*
X0308850Y0230472D03*
X0298850Y0230472D03*
X0288850Y0230472D03*
X0278850Y0230472D03*
X0268850Y0230472D03*
X0258850Y0230472D03*
X0248850Y0230472D03*
X0238850Y0230472D03*
X0228850Y0230472D03*
X0218850Y0230472D03*
X0208850Y0230472D03*
X0198850Y0230472D03*
X0188850Y0230472D03*
X0178850Y0230472D03*
X0168850Y0230472D03*
X0158850Y0230472D03*
X0148850Y0230472D03*
X0138850Y0230472D03*
X0128850Y0230472D03*
X0118850Y0230472D03*
X0108850Y0230472D03*
X0098850Y0230472D03*
X0088850Y0230472D03*
D15*
X0060638Y0117894D03*
X0060638Y0107894D03*
X0036154Y0086233D03*
X0026154Y0086233D03*
X0392984Y0084291D03*
X0402984Y0084291D03*
X0402984Y0094291D03*
X0392984Y0094291D03*
X0392984Y0104291D03*
X0402984Y0104291D03*
X0402984Y0114291D03*
X0392984Y0114291D03*
X0392984Y0124291D03*
X0402984Y0124291D03*
X0402984Y0134291D03*
X0392984Y0134291D03*
X0392984Y0144291D03*
X0402984Y0144291D03*
X0402984Y0154291D03*
X0392984Y0154291D03*
X0392984Y0164291D03*
X0402984Y0164291D03*
X0402984Y0174291D03*
X0392984Y0174291D03*
D16*
X0398890Y0192008D03*
X0398890Y0217598D03*
D17*
X0391016Y0217598D03*
X0383142Y0217598D03*
X0375268Y0217598D03*
X0375268Y0192008D03*
X0383142Y0192008D03*
X0391016Y0192008D03*
D18*
X0387079Y0056181D03*
D19*
X0397118Y0046142D03*
X0377040Y0046142D03*
X0377040Y0066220D03*
X0397118Y0066220D03*
D20*
X0263063Y0042008D03*
X0213850Y0042008D03*
X0164638Y0042008D03*
D21*
X0022512Y0010512D03*
X0019362Y0016811D03*
X0022512Y0023110D03*
X0028811Y0026260D03*
X0035110Y0023110D03*
X0038260Y0016811D03*
X0035110Y0010512D03*
X0028811Y0007362D03*
X0044559Y0008937D03*
X0052433Y0008937D03*
X0061094Y0009331D03*
X0069756Y0009331D03*
X0079992Y0008937D03*
X0087866Y0009331D03*
X0096134Y0009331D03*
X0103614Y0008937D03*
X0096134Y0017992D03*
X0087866Y0017992D03*
X0069756Y0018386D03*
X0061094Y0018386D03*
X0076055Y0040433D03*
X0083929Y0040433D03*
X0083929Y0048307D03*
X0076055Y0048307D03*
X0076055Y0056181D03*
X0103614Y0067992D03*
X0111488Y0064055D03*
X0118575Y0060118D03*
X0123299Y0056181D03*
X0119362Y0052244D03*
X0131173Y0056181D03*
X0135898Y0060118D03*
X0154795Y0064055D03*
X0165031Y0064055D03*
X0174480Y0064055D03*
X0194165Y0064055D03*
X0213850Y0064055D03*
X0213850Y0073504D03*
X0213850Y0083740D03*
X0194165Y0083740D03*
X0174480Y0083740D03*
X0154795Y0083740D03*
X0136685Y0099488D03*
X0134323Y0106575D03*
X0128811Y0106575D03*
X0117787Y0114449D03*
X0112276Y0114449D03*
X0104402Y0112874D03*
X0104402Y0109724D03*
X0104402Y0106575D03*
X0104402Y0103425D03*
X0104402Y0100276D03*
X0104402Y0097126D03*
X0092984Y0096732D03*
X0092984Y0099882D03*
X0092984Y0103031D03*
X0092984Y0106181D03*
X0092984Y0109331D03*
X0092984Y0112480D03*
X0085504Y0119173D03*
X0085504Y0123110D03*
X0073693Y0109724D03*
X0069756Y0105787D03*
X0068181Y0099488D03*
X0060307Y0099488D03*
X0053220Y0091614D03*
X0055583Y0089252D03*
X0057945Y0086890D03*
X0060307Y0084528D03*
X0062669Y0082165D03*
X0065031Y0079803D03*
X0073693Y0081378D03*
X0068181Y0091614D03*
X0053220Y0082165D03*
X0044559Y0090827D03*
X0020937Y0079803D03*
X0020937Y0071929D03*
X0020937Y0064055D03*
X0020937Y0056181D03*
X0020937Y0048307D03*
X0020937Y0040433D03*
X0020937Y0032559D03*
X0091803Y0079803D03*
X0099677Y0075866D03*
X0154795Y0103425D03*
X0174480Y0103425D03*
X0194165Y0103425D03*
X0213850Y0103425D03*
X0233535Y0103425D03*
X0253220Y0103425D03*
X0272906Y0103425D03*
X0272906Y0123110D03*
X0291016Y0123110D03*
X0295740Y0124685D03*
X0300465Y0129409D03*
X0295740Y0132559D03*
X0300465Y0137283D03*
X0272906Y0142795D03*
X0253220Y0142795D03*
X0237472Y0142795D03*
X0229598Y0134921D03*
X0213850Y0142795D03*
X0209913Y0154606D03*
X0217787Y0162480D03*
X0233535Y0162480D03*
X0253220Y0162480D03*
X0272906Y0166417D03*
X0253220Y0180591D03*
X0248496Y0182953D03*
X0257945Y0182953D03*
X0205976Y0190827D03*
X0204402Y0183740D03*
X0198102Y0180591D03*
X0194165Y0166417D03*
X0194165Y0154606D03*
X0194165Y0142795D03*
X0174480Y0142795D03*
X0174480Y0154606D03*
X0154795Y0142795D03*
X0136685Y0146732D03*
X0126449Y0156181D03*
X0119362Y0156181D03*
X0119362Y0159902D03*
X0119362Y0163483D03*
X0119362Y0167205D03*
X0122512Y0170354D03*
X0104402Y0151457D03*
X0119362Y0134921D03*
X0123299Y0130984D03*
X0127236Y0127047D03*
X0131173Y0130984D03*
X0127236Y0134921D03*
X0131173Y0123110D03*
X0136685Y0123110D03*
X0134323Y0116024D03*
X0154795Y0123110D03*
X0174480Y0123110D03*
X0194165Y0123110D03*
X0213850Y0123110D03*
X0235898Y0124291D03*
X0239619Y0124291D03*
X0243200Y0124291D03*
X0246921Y0124291D03*
X0253220Y0124291D03*
X0253220Y0083740D03*
X0272906Y0083740D03*
X0272906Y0064055D03*
X0263457Y0064055D03*
X0253220Y0064055D03*
X0233535Y0064055D03*
X0233535Y0083740D03*
X0291016Y0060118D03*
X0292197Y0052244D03*
X0292197Y0044370D03*
X0292197Y0036496D03*
X0272906Y0024685D03*
X0264244Y0024685D03*
X0253220Y0024685D03*
X0233535Y0024685D03*
X0213850Y0024685D03*
X0194165Y0024685D03*
X0174480Y0024685D03*
X0165031Y0024685D03*
X0154795Y0024685D03*
X0135898Y0020748D03*
X0131567Y0022717D03*
X0126843Y0020354D03*
X0122118Y0022717D03*
X0117787Y0020354D03*
X0119362Y0036496D03*
X0123299Y0036496D03*
X0127236Y0036496D03*
X0131173Y0036496D03*
X0136685Y0036496D03*
X0154795Y0008937D03*
X0162669Y0008937D03*
X0170543Y0008937D03*
X0178417Y0008937D03*
X0186291Y0008937D03*
X0194165Y0008937D03*
X0202039Y0008937D03*
X0209913Y0008937D03*
X0217787Y0008937D03*
X0225661Y0008937D03*
X0233535Y0008937D03*
X0241409Y0008937D03*
X0249283Y0008937D03*
X0257157Y0008937D03*
X0265031Y0008937D03*
X0272906Y0008937D03*
X0292197Y0020748D03*
X0296528Y0008937D03*
X0304402Y0008937D03*
X0312276Y0008937D03*
X0320150Y0008937D03*
X0328024Y0008937D03*
X0335898Y0008937D03*
X0343772Y0008937D03*
X0351646Y0008937D03*
X0359520Y0008937D03*
X0367394Y0008937D03*
X0375268Y0008937D03*
X0383142Y0008937D03*
X0392591Y0010512D03*
X0398890Y0007362D03*
X0405189Y0010512D03*
X0408339Y0016811D03*
X0405189Y0023110D03*
X0398890Y0026260D03*
X0392591Y0023110D03*
X0389441Y0016811D03*
X0371331Y0024685D03*
X0351646Y0024685D03*
X0331961Y0024685D03*
X0331961Y0044370D03*
X0351646Y0044370D03*
X0351646Y0064055D03*
X0343772Y0083740D03*
X0343772Y0091614D03*
X0349677Y0092008D03*
X0343772Y0099488D03*
X0343772Y0107362D03*
X0343772Y0115236D03*
X0335110Y0123110D03*
X0335110Y0130984D03*
X0335110Y0138858D03*
X0335898Y0146732D03*
X0343772Y0146732D03*
X0351646Y0146732D03*
X0359520Y0146732D03*
X0362669Y0129409D03*
X0377630Y0129409D03*
X0347709Y0162480D03*
X0339835Y0162480D03*
X0339835Y0170354D03*
X0367394Y0201850D03*
X0367394Y0217598D03*
X0359520Y0217598D03*
X0351646Y0217598D03*
X0351646Y0225472D03*
X0375268Y0241220D03*
X0389441Y0245157D03*
X0392591Y0238858D03*
X0398890Y0235709D03*
X0405189Y0238858D03*
X0408339Y0245157D03*
X0405189Y0251457D03*
X0398890Y0254606D03*
X0392591Y0251457D03*
X0383142Y0253031D03*
X0375268Y0253031D03*
X0367394Y0253031D03*
X0359520Y0253031D03*
X0351646Y0253031D03*
X0343772Y0253031D03*
X0335898Y0253031D03*
X0328024Y0253031D03*
X0320150Y0253031D03*
X0312276Y0253031D03*
X0304402Y0253031D03*
X0296528Y0253031D03*
X0288654Y0253031D03*
X0280780Y0253031D03*
X0272906Y0253031D03*
X0265031Y0253031D03*
X0257157Y0253031D03*
X0249283Y0253031D03*
X0241409Y0253031D03*
X0233535Y0253031D03*
X0225661Y0253031D03*
X0217787Y0253031D03*
X0209913Y0253031D03*
X0202039Y0253031D03*
X0194165Y0253031D03*
X0186291Y0253031D03*
X0178417Y0253031D03*
X0170543Y0253031D03*
X0162669Y0253031D03*
X0154795Y0253031D03*
X0146921Y0253031D03*
X0139047Y0253031D03*
X0131173Y0253031D03*
X0123299Y0253031D03*
X0115425Y0253031D03*
X0107551Y0253031D03*
X0099677Y0253031D03*
X0091803Y0253031D03*
X0083929Y0253031D03*
X0076055Y0253031D03*
X0068181Y0253031D03*
X0060307Y0253031D03*
X0052433Y0253031D03*
X0044559Y0253031D03*
X0035110Y0251457D03*
X0028811Y0254606D03*
X0022512Y0251457D03*
X0019362Y0245157D03*
X0022512Y0238858D03*
X0028811Y0235709D03*
X0035110Y0238858D03*
X0038260Y0245157D03*
X0044559Y0233346D03*
X0060307Y0233346D03*
X0076055Y0233346D03*
X0061882Y0211299D03*
X0054795Y0204213D03*
X0076055Y0201850D03*
X0083929Y0201850D03*
X0091803Y0205787D03*
X0096528Y0204213D03*
X0079992Y0193976D03*
X0068181Y0186102D03*
X0064244Y0190039D03*
X0058732Y0182165D03*
X0055583Y0182165D03*
X0055583Y0178622D03*
X0058732Y0178622D03*
X0058732Y0175079D03*
X0055583Y0175079D03*
X0072118Y0174291D03*
X0072118Y0162480D03*
X0064244Y0162480D03*
X0064244Y0154606D03*
X0072118Y0154606D03*
X0072118Y0146732D03*
X0068181Y0142008D03*
X0064244Y0146732D03*
X0068181Y0134921D03*
X0020937Y0115236D03*
X0020937Y0107362D03*
X0154795Y0166417D03*
X0174480Y0166417D03*
X0148496Y0205000D03*
X0139441Y0205787D03*
X0148496Y0213661D03*
X0161882Y0207362D03*
X0164244Y0213661D03*
X0204402Y0237677D03*
X0192591Y0238858D03*
X0406764Y0229409D03*
X0406764Y0221535D03*
X0406764Y0213661D03*
X0406764Y0205787D03*
X0406764Y0197913D03*
X0406764Y0190039D03*
X0406764Y0182165D03*
X0406764Y0071929D03*
X0406764Y0064055D03*
X0406764Y0056181D03*
X0406764Y0048307D03*
X0406764Y0040433D03*
X0406764Y0032559D03*
X0233535Y0044370D03*
X0194165Y0044370D03*
D22*
X0200314Y0044333D02*
X0177974Y0044333D01*
X0177974Y0045906D02*
X0200314Y0045906D01*
X0200314Y0047479D02*
X0177974Y0047479D01*
X0177974Y0049053D02*
X0200314Y0049053D01*
X0200314Y0050626D02*
X0177974Y0050626D01*
X0177974Y0052199D02*
X0200314Y0052199D01*
X0200314Y0053773D02*
X0177974Y0053773D01*
X0177974Y0054531D02*
X0177161Y0055344D01*
X0152114Y0055344D01*
X0151302Y0054531D01*
X0151302Y0052514D01*
X0145159Y0058657D01*
X0145159Y0084641D01*
X0119962Y0109838D01*
X0119962Y0112695D01*
X0120142Y0112875D01*
X0120565Y0113896D01*
X0120565Y0115001D01*
X0120142Y0116022D01*
X0119361Y0116804D01*
X0118340Y0117227D01*
X0118085Y0117227D01*
X0117238Y0118074D01*
X0117238Y0157815D01*
X0117675Y0157378D01*
X0118770Y0156924D01*
X0119955Y0156924D01*
X0121049Y0157378D01*
X0121887Y0158215D01*
X0122173Y0158906D01*
X0209152Y0158906D01*
X0238622Y0129436D01*
X0238622Y0127102D01*
X0237932Y0126816D01*
X0237094Y0125978D01*
X0236641Y0124884D01*
X0236641Y0123699D01*
X0237094Y0122604D01*
X0237932Y0121767D01*
X0239027Y0121313D01*
X0240211Y0121313D01*
X0241306Y0121767D01*
X0241409Y0121870D01*
X0241513Y0121767D01*
X0242608Y0121313D01*
X0243792Y0121313D01*
X0244887Y0121767D01*
X0245725Y0122604D01*
X0246178Y0123699D01*
X0246178Y0124884D01*
X0245725Y0125978D01*
X0244887Y0126816D01*
X0244197Y0127102D01*
X0244197Y0131745D01*
X0243033Y0132909D01*
X0211462Y0164480D01*
X0209815Y0164480D01*
X0122173Y0164480D01*
X0121887Y0165170D01*
X0121049Y0166008D01*
X0119955Y0166461D01*
X0118770Y0166461D01*
X0117675Y0166008D01*
X0117238Y0165570D01*
X0117238Y0171055D01*
X0140342Y0194159D01*
X0141616Y0195433D01*
X0141616Y0204034D01*
X0141796Y0204214D01*
X0142219Y0205235D01*
X0142219Y0206340D01*
X0141796Y0207361D01*
X0141015Y0208142D01*
X0139994Y0208565D01*
X0139185Y0208565D01*
X0146374Y0215754D01*
X0146743Y0215385D01*
X0150958Y0215385D01*
X0153850Y0218278D01*
X0156743Y0215385D01*
X0160958Y0215385D01*
X0163850Y0218278D01*
X0166743Y0215385D01*
X0170958Y0215385D01*
X0173850Y0218278D01*
X0176743Y0215385D01*
X0180958Y0215385D01*
X0183850Y0218278D01*
X0186743Y0215385D01*
X0190958Y0215385D01*
X0193850Y0218278D01*
X0196743Y0215385D01*
X0200958Y0215385D01*
X0203850Y0218278D01*
X0206743Y0215385D01*
X0210958Y0215385D01*
X0213850Y0218278D01*
X0216743Y0215385D01*
X0220958Y0215385D01*
X0221715Y0216142D01*
X0221715Y0215598D01*
X0250061Y0187252D01*
X0251220Y0186093D01*
X0329097Y0186093D01*
X0380732Y0134458D01*
X0380732Y0132216D01*
X0379997Y0132951D01*
X0378461Y0133587D01*
X0376799Y0133587D01*
X0376339Y0133397D01*
X0363960Y0133397D01*
X0363500Y0133587D01*
X0361838Y0133587D01*
X0360303Y0132951D01*
X0359127Y0131776D01*
X0358491Y0130240D01*
X0358491Y0128578D01*
X0359127Y0127043D01*
X0360303Y0125868D01*
X0361838Y0125231D01*
X0363500Y0125231D01*
X0363960Y0125422D01*
X0376339Y0125422D01*
X0376799Y0125231D01*
X0378461Y0125231D01*
X0379997Y0125868D01*
X0380732Y0126603D01*
X0380732Y0123746D01*
X0388271Y0116207D01*
X0387897Y0115303D01*
X0387897Y0113279D01*
X0388671Y0111410D01*
X0390102Y0109978D01*
X0391761Y0109291D01*
X0390102Y0108604D01*
X0388671Y0107173D01*
X0387897Y0105303D01*
X0387897Y0103279D01*
X0388671Y0101410D01*
X0390102Y0099978D01*
X0391761Y0099291D01*
X0390102Y0098604D01*
X0388671Y0097173D01*
X0387897Y0095303D01*
X0387897Y0093279D01*
X0388671Y0091410D01*
X0390102Y0089978D01*
X0391761Y0089291D01*
X0390102Y0088604D01*
X0388671Y0087173D01*
X0387897Y0085303D01*
X0387897Y0083279D01*
X0388671Y0081410D01*
X0390102Y0079978D01*
X0391972Y0079204D01*
X0393996Y0079204D01*
X0395866Y0079978D01*
X0397297Y0081410D01*
X0397893Y0082849D01*
X0398084Y0082262D01*
X0398462Y0081520D01*
X0398951Y0080847D01*
X0399540Y0080258D01*
X0400213Y0079769D01*
X0400955Y0079391D01*
X0401746Y0079134D01*
X0402568Y0079004D01*
X0402772Y0079004D01*
X0402772Y0084079D01*
X0403197Y0084079D01*
X0403197Y0084504D01*
X0408272Y0084504D01*
X0408272Y0084707D01*
X0408141Y0085529D01*
X0407884Y0086321D01*
X0407506Y0087063D01*
X0407017Y0087736D01*
X0406429Y0088324D01*
X0405755Y0088814D01*
X0405014Y0089191D01*
X0404706Y0089291D01*
X0405014Y0089391D01*
X0405755Y0089769D01*
X0406429Y0090258D01*
X0407017Y0090847D01*
X0407506Y0091520D01*
X0407884Y0092262D01*
X0408141Y0093053D01*
X0408272Y0093875D01*
X0408272Y0094079D01*
X0403197Y0094079D01*
X0403197Y0094504D01*
X0408272Y0094504D01*
X0408272Y0094707D01*
X0408141Y0095529D01*
X0407884Y0096321D01*
X0407506Y0097063D01*
X0407017Y0097736D01*
X0406429Y0098324D01*
X0405755Y0098814D01*
X0405014Y0099191D01*
X0404706Y0099291D01*
X0405014Y0099391D01*
X0405755Y0099769D01*
X0406429Y0100258D01*
X0407017Y0100847D01*
X0407506Y0101520D01*
X0407884Y0102262D01*
X0408141Y0103053D01*
X0408272Y0103875D01*
X0408272Y0104079D01*
X0403197Y0104079D01*
X0403197Y0104504D01*
X0408272Y0104504D01*
X0408272Y0104707D01*
X0408141Y0105529D01*
X0407884Y0106321D01*
X0407506Y0107063D01*
X0407017Y0107736D01*
X0406429Y0108324D01*
X0405755Y0108814D01*
X0405014Y0109191D01*
X0404706Y0109291D01*
X0405014Y0109391D01*
X0405755Y0109769D01*
X0406429Y0110258D01*
X0407017Y0110847D01*
X0407506Y0111520D01*
X0407884Y0112262D01*
X0408141Y0113053D01*
X0408272Y0113875D01*
X0408272Y0114079D01*
X0403197Y0114079D01*
X0403197Y0114504D01*
X0408272Y0114504D01*
X0408272Y0114707D01*
X0408141Y0115529D01*
X0407884Y0116321D01*
X0407506Y0117063D01*
X0407017Y0117736D01*
X0406429Y0118324D01*
X0405755Y0118814D01*
X0405014Y0119191D01*
X0404706Y0119291D01*
X0405014Y0119391D01*
X0405755Y0119769D01*
X0406429Y0120258D01*
X0407017Y0120847D01*
X0407506Y0121520D01*
X0407884Y0122262D01*
X0408141Y0123053D01*
X0408272Y0123875D01*
X0408272Y0124079D01*
X0403197Y0124079D01*
X0403197Y0124504D01*
X0408272Y0124504D01*
X0408272Y0124707D01*
X0408141Y0125529D01*
X0407884Y0126321D01*
X0407506Y0127063D01*
X0407017Y0127736D01*
X0406429Y0128324D01*
X0405755Y0128814D01*
X0405014Y0129191D01*
X0404706Y0129291D01*
X0405014Y0129391D01*
X0405755Y0129769D01*
X0406429Y0130258D01*
X0407017Y0130847D01*
X0407506Y0131520D01*
X0407884Y0132262D01*
X0408141Y0133053D01*
X0408272Y0133875D01*
X0408272Y0134079D01*
X0403197Y0134079D01*
X0403197Y0134504D01*
X0408272Y0134504D01*
X0408272Y0134707D01*
X0408141Y0135529D01*
X0407884Y0136321D01*
X0407506Y0137063D01*
X0407017Y0137736D01*
X0406429Y0138324D01*
X0405755Y0138814D01*
X0405014Y0139191D01*
X0404706Y0139291D01*
X0405014Y0139391D01*
X0405755Y0139769D01*
X0406429Y0140258D01*
X0407017Y0140847D01*
X0407506Y0141520D01*
X0407884Y0142262D01*
X0408141Y0143053D01*
X0408272Y0143875D01*
X0408272Y0144079D01*
X0403197Y0144079D01*
X0403197Y0144504D01*
X0408272Y0144504D01*
X0408272Y0144707D01*
X0408141Y0145529D01*
X0407884Y0146321D01*
X0407506Y0147063D01*
X0407017Y0147736D01*
X0406429Y0148324D01*
X0405755Y0148814D01*
X0405014Y0149191D01*
X0404706Y0149291D01*
X0405014Y0149391D01*
X0405755Y0149769D01*
X0406429Y0150258D01*
X0407017Y0150847D01*
X0407506Y0151520D01*
X0407884Y0152262D01*
X0408141Y0153053D01*
X0408272Y0153875D01*
X0408272Y0154079D01*
X0403197Y0154079D01*
X0403197Y0154504D01*
X0408272Y0154504D01*
X0408272Y0154707D01*
X0408141Y0155529D01*
X0407884Y0156321D01*
X0407506Y0157063D01*
X0407017Y0157736D01*
X0406429Y0158324D01*
X0405755Y0158814D01*
X0405014Y0159191D01*
X0404706Y0159291D01*
X0405014Y0159391D01*
X0405755Y0159769D01*
X0406429Y0160258D01*
X0407017Y0160847D01*
X0407506Y0161520D01*
X0407884Y0162262D01*
X0408141Y0163053D01*
X0408272Y0163875D01*
X0408272Y0164079D01*
X0403197Y0164079D01*
X0403197Y0164504D01*
X0408272Y0164504D01*
X0408272Y0164707D01*
X0408141Y0165529D01*
X0407884Y0166321D01*
X0407506Y0167063D01*
X0407017Y0167736D01*
X0406429Y0168324D01*
X0406103Y0168561D01*
X0406659Y0168792D01*
X0408484Y0170617D01*
X0409117Y0172144D01*
X0409117Y0025250D01*
X0406994Y0027372D01*
X0403984Y0029110D01*
X0400627Y0030009D01*
X0397152Y0030009D01*
X0393795Y0029110D01*
X0390786Y0027372D01*
X0388328Y0024915D01*
X0386591Y0021905D01*
X0385691Y0018549D01*
X0385691Y0015073D01*
X0386591Y0011717D01*
X0388328Y0008707D01*
X0390451Y0006584D01*
X0037250Y0006584D01*
X0039372Y0008707D01*
X0041110Y0011717D01*
X0042009Y0015073D01*
X0042009Y0018549D01*
X0041110Y0021905D01*
X0039372Y0024915D01*
X0036915Y0027372D01*
X0033905Y0029110D01*
X0030549Y0030009D01*
X0027073Y0030009D01*
X0023717Y0029110D01*
X0020707Y0027372D01*
X0018584Y0025250D01*
X0018584Y0236719D01*
X0020707Y0234596D01*
X0023717Y0232859D01*
X0027073Y0231959D01*
X0030549Y0231959D01*
X0033905Y0232859D01*
X0036915Y0234596D01*
X0039372Y0237053D01*
X0041110Y0240063D01*
X0042009Y0243420D01*
X0042009Y0246895D01*
X0041110Y0250252D01*
X0039372Y0253261D01*
X0037250Y0255384D01*
X0390451Y0255384D01*
X0388328Y0253261D01*
X0386591Y0250252D01*
X0385691Y0246895D01*
X0385691Y0243420D01*
X0386591Y0240063D01*
X0388328Y0237053D01*
X0390786Y0234596D01*
X0393795Y0232859D01*
X0397152Y0231959D01*
X0400627Y0231959D01*
X0403984Y0232859D01*
X0406994Y0234596D01*
X0409117Y0236719D01*
X0409117Y0176439D01*
X0408484Y0177966D01*
X0406659Y0179791D01*
X0404275Y0180779D01*
X0401694Y0180779D01*
X0399309Y0179791D01*
X0397984Y0178466D01*
X0396659Y0179791D01*
X0394275Y0180779D01*
X0391694Y0180779D01*
X0389309Y0179791D01*
X0387484Y0177966D01*
X0386497Y0175582D01*
X0386497Y0173576D01*
X0354647Y0205426D01*
X0353901Y0206172D01*
X0376023Y0206172D01*
X0384475Y0197720D01*
X0384293Y0197795D01*
X0381991Y0197795D01*
X0379863Y0196914D01*
X0378356Y0195407D01*
X0378256Y0195507D01*
X0377672Y0195931D01*
X0377029Y0196259D01*
X0376342Y0196482D01*
X0375629Y0196595D01*
X0375268Y0196595D01*
X0375268Y0192008D01*
X0375268Y0192008D01*
X0375268Y0187420D01*
X0375629Y0187420D01*
X0376342Y0187533D01*
X0377029Y0187757D01*
X0377672Y0188084D01*
X0378256Y0188509D01*
X0378356Y0188609D01*
X0379863Y0187102D01*
X0381991Y0186220D01*
X0384293Y0186220D01*
X0386420Y0187102D01*
X0388048Y0188730D01*
X0388060Y0188759D01*
X0388530Y0188288D01*
X0390143Y0187620D01*
X0391888Y0187620D01*
X0393501Y0188288D01*
X0394502Y0189290D01*
X0394502Y0188433D01*
X0395315Y0187620D01*
X0402464Y0187620D01*
X0403277Y0188433D01*
X0403277Y0195583D01*
X0402464Y0196395D01*
X0400056Y0196395D01*
X0384538Y0211913D01*
X0386420Y0212692D01*
X0388048Y0214320D01*
X0388060Y0214349D01*
X0388530Y0213879D01*
X0390143Y0213211D01*
X0391888Y0213211D01*
X0393501Y0213879D01*
X0394502Y0214880D01*
X0394502Y0214024D01*
X0395315Y0213211D01*
X0402464Y0213211D01*
X0403277Y0214024D01*
X0403277Y0221173D01*
X0402464Y0221986D01*
X0395315Y0221986D01*
X0394502Y0221173D01*
X0394502Y0220317D01*
X0393501Y0221318D01*
X0391888Y0221986D01*
X0390143Y0221986D01*
X0389079Y0221545D01*
X0389079Y0222431D01*
X0388175Y0224613D01*
X0361810Y0250978D01*
X0359627Y0251882D01*
X0140627Y0251882D01*
X0138445Y0250978D01*
X0136774Y0249308D01*
X0124968Y0237501D01*
X0124064Y0235319D01*
X0124064Y0234860D01*
X0123002Y0233798D01*
X0121041Y0235760D01*
X0119063Y0235760D01*
X0119063Y0230685D01*
X0118638Y0230685D01*
X0118638Y0235760D01*
X0116660Y0235760D01*
X0113850Y0232950D01*
X0111041Y0235760D01*
X0109063Y0235760D01*
X0109063Y0230685D01*
X0118638Y0230685D01*
X0118638Y0230260D01*
X0114138Y0230260D01*
X0109063Y0230260D01*
X0109063Y0230685D01*
X0108638Y0230685D01*
X0108638Y0235760D01*
X0106660Y0235760D01*
X0103850Y0232950D01*
X0101041Y0235760D01*
X0099063Y0235760D01*
X0099063Y0230685D01*
X0108638Y0230685D01*
X0108638Y0230260D01*
X0103563Y0230260D01*
X0099063Y0230260D01*
X0099063Y0230685D01*
X0098638Y0230685D01*
X0098638Y0235760D01*
X0096660Y0235760D01*
X0093850Y0232950D01*
X0091041Y0235760D01*
X0089063Y0235760D01*
X0089063Y0230685D01*
X0098638Y0230685D01*
X0098638Y0230260D01*
X0093563Y0230260D01*
X0089063Y0230260D01*
X0089063Y0230685D01*
X0088638Y0230685D01*
X0088638Y0235760D01*
X0086660Y0235760D01*
X0083563Y0232663D01*
X0083563Y0230685D01*
X0088638Y0230685D01*
X0088638Y0230260D01*
X0083563Y0230260D01*
X0083563Y0228282D01*
X0085524Y0226321D01*
X0085101Y0225898D01*
X0059126Y0225898D01*
X0056944Y0224994D01*
X0055274Y0223324D01*
X0041101Y0209150D01*
X0040197Y0206968D01*
X0040197Y0202875D01*
X0039632Y0203439D01*
X0038218Y0204025D01*
X0035132Y0204025D01*
X0033718Y0203439D01*
X0032635Y0202357D01*
X0032050Y0200943D01*
X0032050Y0199412D01*
X0032635Y0197997D01*
X0033718Y0196915D01*
X0035132Y0196329D01*
X0038218Y0196329D01*
X0039632Y0196915D01*
X0040197Y0197479D01*
X0040197Y0178662D01*
X0039632Y0179227D01*
X0038218Y0179813D01*
X0035132Y0179813D01*
X0033718Y0179227D01*
X0032635Y0178144D01*
X0032050Y0176730D01*
X0032050Y0175199D01*
X0032635Y0173785D01*
X0033718Y0172702D01*
X0035132Y0172117D01*
X0038218Y0172117D01*
X0039632Y0172702D01*
X0040197Y0173267D01*
X0040197Y0159568D01*
X0039632Y0160132D01*
X0038218Y0160718D01*
X0035132Y0160718D01*
X0033718Y0160132D01*
X0032635Y0159050D01*
X0032050Y0157635D01*
X0032050Y0156105D01*
X0032635Y0154690D01*
X0033718Y0153608D01*
X0035132Y0153022D01*
X0038218Y0153022D01*
X0038726Y0153232D01*
X0032791Y0147298D01*
X0031121Y0145628D01*
X0030217Y0143446D01*
X0030217Y0089636D01*
X0030187Y0089678D01*
X0029599Y0090266D01*
X0028926Y0090755D01*
X0028184Y0091133D01*
X0027392Y0091390D01*
X0026570Y0091520D01*
X0026367Y0091520D01*
X0026367Y0086446D01*
X0025942Y0086446D01*
X0025942Y0091520D01*
X0025738Y0091520D01*
X0024916Y0091390D01*
X0024125Y0091133D01*
X0023383Y0090755D01*
X0022710Y0090266D01*
X0022121Y0089678D01*
X0021632Y0089004D01*
X0021254Y0088263D01*
X0020997Y0087471D01*
X0020867Y0086649D01*
X0020867Y0086446D01*
X0025942Y0086446D01*
X0025942Y0086020D01*
X0026367Y0086020D01*
X0026367Y0080946D01*
X0026570Y0080946D01*
X0027392Y0081076D01*
X0028184Y0081333D01*
X0028926Y0081711D01*
X0029599Y0082200D01*
X0030187Y0082789D01*
X0030424Y0083115D01*
X0030655Y0082558D01*
X0032480Y0080733D01*
X0033808Y0080183D01*
X0052606Y0061385D01*
X0052606Y0058357D01*
X0053630Y0055885D01*
X0055522Y0053994D01*
X0057993Y0052970D01*
X0060668Y0052970D01*
X0063140Y0053994D01*
X0065031Y0055885D01*
X0066055Y0058357D01*
X0066055Y0068906D01*
X0065031Y0071378D01*
X0063140Y0073269D01*
X0060668Y0074293D01*
X0057993Y0074293D01*
X0056931Y0073853D01*
X0042204Y0088579D01*
X0042091Y0088852D01*
X0042091Y0139805D01*
X0049497Y0147211D01*
X0051167Y0148881D01*
X0052071Y0151063D01*
X0052071Y0203328D01*
X0062766Y0214024D01*
X0067639Y0214024D01*
X0054587Y0200972D01*
X0053311Y0199696D01*
X0052620Y0198028D01*
X0052620Y0138375D01*
X0045043Y0130798D01*
X0044353Y0129131D01*
X0044353Y0095042D01*
X0045043Y0093375D01*
X0046320Y0092099D01*
X0049374Y0089044D01*
X0062461Y0075957D01*
X0064129Y0075266D01*
X0065934Y0075266D01*
X0067602Y0075957D01*
X0068878Y0077233D01*
X0069568Y0078901D01*
X0069568Y0080706D01*
X0068878Y0082373D01*
X0055790Y0095460D01*
X0053427Y0097824D01*
X0053427Y0126349D01*
X0059727Y0132650D01*
X0061004Y0133926D01*
X0061694Y0135594D01*
X0061694Y0195247D01*
X0073534Y0207086D01*
X0093419Y0207086D01*
X0093588Y0207156D01*
X0095855Y0207156D01*
X0097523Y0207847D01*
X0101420Y0211744D01*
X0102697Y0213021D01*
X0102795Y0213259D01*
X0102795Y0207459D01*
X0099305Y0203969D01*
X0099305Y0204765D01*
X0098883Y0205786D01*
X0098101Y0206568D01*
X0097080Y0206991D01*
X0095975Y0206991D01*
X0094954Y0206568D01*
X0094173Y0205786D01*
X0093750Y0204765D01*
X0093750Y0203953D01*
X0067443Y0177647D01*
X0066400Y0176604D01*
X0066400Y0144155D01*
X0065826Y0143581D01*
X0065403Y0142560D01*
X0065403Y0141455D01*
X0065826Y0140434D01*
X0066608Y0139653D01*
X0067629Y0139230D01*
X0068734Y0139230D01*
X0069755Y0139653D01*
X0070536Y0140434D01*
X0070959Y0141455D01*
X0070959Y0142560D01*
X0070536Y0143581D01*
X0069962Y0144155D01*
X0069962Y0175128D01*
X0096268Y0201435D01*
X0096771Y0201435D01*
X0076534Y0181198D01*
X0075630Y0179016D01*
X0075630Y0133443D01*
X0066018Y0123831D01*
X0063257Y0123831D01*
X0061928Y0124382D01*
X0059347Y0124382D01*
X0056963Y0123394D01*
X0055138Y0121569D01*
X0054150Y0119185D01*
X0054150Y0116604D01*
X0055138Y0114220D01*
X0056963Y0112395D01*
X0057519Y0112164D01*
X0057193Y0111927D01*
X0056605Y0111339D01*
X0056116Y0110666D01*
X0055738Y0109924D01*
X0055481Y0109133D01*
X0055350Y0108311D01*
X0055350Y0108107D01*
X0060425Y0108107D01*
X0060425Y0107682D01*
X0055350Y0107682D01*
X0055350Y0107478D01*
X0055481Y0106656D01*
X0055738Y0105865D01*
X0056116Y0105123D01*
X0056605Y0104450D01*
X0057193Y0103861D01*
X0057867Y0103372D01*
X0058608Y0102994D01*
X0059400Y0102737D01*
X0060222Y0102607D01*
X0060425Y0102607D01*
X0060425Y0107682D01*
X0060850Y0107682D01*
X0060850Y0102607D01*
X0061054Y0102607D01*
X0061876Y0102737D01*
X0062667Y0102994D01*
X0063409Y0103372D01*
X0064082Y0103861D01*
X0064671Y0104450D01*
X0065160Y0105123D01*
X0065538Y0105865D01*
X0065795Y0106656D01*
X0065925Y0107478D01*
X0065925Y0107682D01*
X0060850Y0107682D01*
X0060850Y0108107D01*
X0065925Y0108107D01*
X0065925Y0108311D01*
X0065795Y0109133D01*
X0065538Y0109924D01*
X0065160Y0110666D01*
X0064671Y0111339D01*
X0064082Y0111927D01*
X0064041Y0111957D01*
X0069658Y0111957D01*
X0071840Y0112861D01*
X0084930Y0125951D01*
X0086600Y0127621D01*
X0087047Y0128701D01*
X0087047Y0095551D01*
X0087951Y0093369D01*
X0089621Y0091699D01*
X0091803Y0090795D01*
X0094165Y0090795D01*
X0096347Y0091699D01*
X0098017Y0093369D01*
X0098774Y0095197D01*
X0099368Y0093763D01*
X0101039Y0092093D01*
X0103221Y0091189D01*
X0105583Y0091189D01*
X0107765Y0092093D01*
X0109435Y0093763D01*
X0110339Y0095945D01*
X0110339Y0112457D01*
X0110702Y0112094D01*
X0111723Y0111671D01*
X0112828Y0111671D01*
X0113849Y0112094D01*
X0114631Y0112875D01*
X0115031Y0113843D01*
X0115432Y0112875D01*
X0115613Y0112695D01*
X0115613Y0108036D01*
X0116887Y0106762D01*
X0140809Y0082839D01*
X0140809Y0056855D01*
X0142083Y0055581D01*
X0151302Y0046363D01*
X0151302Y0029484D01*
X0152114Y0028672D01*
X0177161Y0028672D01*
X0177974Y0029484D01*
X0177974Y0054531D01*
X0177974Y0042760D02*
X0213063Y0042760D01*
X0213063Y0042795D02*
X0213063Y0041220D01*
X0214638Y0041220D01*
X0214638Y0028472D01*
X0226008Y0028472D01*
X0226412Y0028580D01*
X0226774Y0028789D01*
X0227069Y0029084D01*
X0227278Y0029446D01*
X0227387Y0029850D01*
X0227387Y0041220D01*
X0214638Y0041220D01*
X0214638Y0042795D01*
X0227387Y0042795D01*
X0227387Y0054166D01*
X0227278Y0054569D01*
X0227069Y0054931D01*
X0226774Y0055227D01*
X0226412Y0055436D01*
X0226008Y0055544D01*
X0214638Y0055544D01*
X0214638Y0042795D01*
X0213063Y0042795D01*
X0200314Y0042795D01*
X0200314Y0054166D01*
X0200422Y0054569D01*
X0200631Y0054931D01*
X0200927Y0055227D01*
X0201289Y0055436D01*
X0201693Y0055544D01*
X0213063Y0055544D01*
X0213063Y0042795D01*
X0213063Y0044333D02*
X0214638Y0044333D01*
X0214638Y0045906D02*
X0213063Y0045906D01*
X0213063Y0047479D02*
X0214638Y0047479D01*
X0214638Y0049053D02*
X0213063Y0049053D01*
X0213063Y0050626D02*
X0214638Y0050626D01*
X0214638Y0052199D02*
X0213063Y0052199D01*
X0213063Y0053773D02*
X0214638Y0053773D01*
X0214638Y0055346D02*
X0213063Y0055346D01*
X0201133Y0055346D02*
X0148470Y0055346D01*
X0150043Y0053773D02*
X0151302Y0053773D01*
X0147038Y0050626D02*
X0018584Y0050626D01*
X0018584Y0049053D02*
X0041436Y0049053D01*
X0041462Y0049066D02*
X0040687Y0048671D01*
X0039984Y0048160D01*
X0039369Y0047545D01*
X0038858Y0046842D01*
X0038463Y0046067D01*
X0038194Y0045240D01*
X0038058Y0044381D01*
X0038058Y0044143D01*
X0047323Y0044143D01*
X0047323Y0043750D01*
X0038058Y0043750D01*
X0038058Y0043512D01*
X0038194Y0042653D01*
X0038463Y0041826D01*
X0038858Y0041051D01*
X0039369Y0040348D01*
X0039984Y0039733D01*
X0040687Y0039222D01*
X0041462Y0038827D01*
X0042289Y0038558D01*
X0043148Y0038422D01*
X0047323Y0038422D01*
X0047323Y0043750D01*
X0047717Y0043750D01*
X0047717Y0044143D01*
X0056981Y0044143D01*
X0056981Y0044381D01*
X0056845Y0045240D01*
X0056576Y0046067D01*
X0056182Y0046842D01*
X0055670Y0047545D01*
X0055056Y0048160D01*
X0054352Y0048671D01*
X0053577Y0049066D01*
X0052750Y0049335D01*
X0051891Y0049471D01*
X0047717Y0049471D01*
X0047717Y0044143D01*
X0047323Y0044143D01*
X0047323Y0049471D01*
X0043148Y0049471D01*
X0042289Y0049335D01*
X0041462Y0049066D01*
X0039321Y0047479D02*
X0018584Y0047479D01*
X0018584Y0045906D02*
X0038411Y0045906D01*
X0038058Y0044333D02*
X0018584Y0044333D01*
X0018584Y0042760D02*
X0038177Y0042760D01*
X0038789Y0041186D02*
X0018584Y0041186D01*
X0018584Y0039613D02*
X0040149Y0039613D01*
X0047323Y0039613D02*
X0047717Y0039613D01*
X0047717Y0038422D02*
X0051891Y0038422D01*
X0052750Y0038558D01*
X0053577Y0038827D01*
X0054352Y0039222D01*
X0055056Y0039733D01*
X0055670Y0040348D01*
X0056182Y0041051D01*
X0056576Y0041826D01*
X0056845Y0042653D01*
X0056981Y0043512D01*
X0056981Y0043750D01*
X0047717Y0043750D01*
X0047717Y0038422D01*
X0047717Y0041186D02*
X0047323Y0041186D01*
X0047323Y0042760D02*
X0047717Y0042760D01*
X0047717Y0044333D02*
X0047323Y0044333D01*
X0047323Y0045906D02*
X0047717Y0045906D01*
X0047717Y0047479D02*
X0047323Y0047479D01*
X0047323Y0049053D02*
X0047717Y0049053D01*
X0053603Y0049053D02*
X0148612Y0049053D01*
X0150185Y0047479D02*
X0055718Y0047479D01*
X0056629Y0045906D02*
X0151302Y0045906D01*
X0151302Y0044333D02*
X0056981Y0044333D01*
X0056862Y0042760D02*
X0151302Y0042760D01*
X0151302Y0041186D02*
X0056250Y0041186D01*
X0054891Y0039613D02*
X0151302Y0039613D01*
X0151302Y0038040D02*
X0018584Y0038040D01*
X0018584Y0036466D02*
X0151302Y0036466D01*
X0151302Y0034893D02*
X0018584Y0034893D01*
X0018584Y0033320D02*
X0151302Y0033320D01*
X0151302Y0031746D02*
X0018584Y0031746D01*
X0018584Y0030173D02*
X0151302Y0030173D01*
X0158732Y0042008D02*
X0142984Y0057756D01*
X0142984Y0083740D01*
X0117787Y0108937D01*
X0117787Y0114449D01*
X0115063Y0117173D01*
X0115063Y0171956D01*
X0139441Y0196334D01*
X0139441Y0205787D01*
X0142043Y0204811D02*
X0232502Y0204811D01*
X0230929Y0206384D02*
X0142201Y0206384D01*
X0141199Y0207958D02*
X0229355Y0207958D01*
X0227782Y0209531D02*
X0140151Y0209531D01*
X0141724Y0211104D02*
X0226209Y0211104D01*
X0224635Y0212678D02*
X0143297Y0212678D01*
X0144871Y0214251D02*
X0223062Y0214251D01*
X0221715Y0215824D02*
X0221397Y0215824D01*
X0216304Y0215824D02*
X0211397Y0215824D01*
X0212970Y0217397D02*
X0214731Y0217397D01*
X0206304Y0215824D02*
X0201397Y0215824D01*
X0202970Y0217397D02*
X0204731Y0217397D01*
X0196304Y0215824D02*
X0191397Y0215824D01*
X0192970Y0217397D02*
X0194731Y0217397D01*
X0186304Y0215824D02*
X0181397Y0215824D01*
X0182970Y0217397D02*
X0184731Y0217397D01*
X0176304Y0215824D02*
X0171397Y0215824D01*
X0172970Y0217397D02*
X0174731Y0217397D01*
X0166304Y0215824D02*
X0161397Y0215824D01*
X0162970Y0217397D02*
X0164731Y0217397D01*
X0156304Y0215824D02*
X0151397Y0215824D01*
X0152970Y0217397D02*
X0154731Y0217397D01*
X0148638Y0230260D02*
X0143563Y0230260D01*
X0139063Y0230260D01*
X0139063Y0230685D01*
X0148638Y0230685D01*
X0148638Y0235760D01*
X0146660Y0235760D01*
X0143850Y0232950D01*
X0141041Y0235760D01*
X0140019Y0235760D01*
X0144267Y0240008D01*
X0152236Y0240008D01*
X0152236Y0234564D01*
X0151041Y0235760D01*
X0149063Y0235760D01*
X0149063Y0230685D01*
X0148638Y0230685D01*
X0148638Y0230260D01*
X0148638Y0231557D02*
X0149063Y0231557D01*
X0149063Y0233131D02*
X0148638Y0233131D01*
X0148638Y0234704D02*
X0149063Y0234704D01*
X0152096Y0234704D02*
X0152236Y0234704D01*
X0152236Y0236277D02*
X0140536Y0236277D01*
X0142096Y0234704D02*
X0145604Y0234704D01*
X0144031Y0233131D02*
X0143670Y0233131D01*
X0142109Y0237851D02*
X0152236Y0237851D01*
X0152236Y0239424D02*
X0143683Y0239424D01*
X0133184Y0245717D02*
X0042009Y0245717D01*
X0042009Y0244144D02*
X0131610Y0244144D01*
X0130037Y0242570D02*
X0041782Y0242570D01*
X0041360Y0240997D02*
X0128464Y0240997D01*
X0126890Y0239424D02*
X0040741Y0239424D01*
X0039833Y0237851D02*
X0125317Y0237851D01*
X0124461Y0236277D02*
X0038596Y0236277D01*
X0037023Y0234704D02*
X0085604Y0234704D01*
X0084031Y0233131D02*
X0034377Y0233131D01*
X0023245Y0233131D02*
X0018584Y0233131D01*
X0018584Y0234704D02*
X0020599Y0234704D01*
X0019026Y0236277D02*
X0018584Y0236277D01*
X0018584Y0231557D02*
X0083563Y0231557D01*
X0083563Y0229984D02*
X0018584Y0229984D01*
X0018584Y0228411D02*
X0083563Y0228411D01*
X0085008Y0226837D02*
X0018584Y0226837D01*
X0018584Y0225264D02*
X0057596Y0225264D01*
X0055641Y0223691D02*
X0018584Y0223691D01*
X0018584Y0222117D02*
X0033301Y0222117D01*
X0033718Y0222534D02*
X0032635Y0221451D01*
X0032050Y0220037D01*
X0032050Y0218506D01*
X0032635Y0217092D01*
X0033718Y0216009D01*
X0035132Y0215424D01*
X0038218Y0215424D01*
X0039632Y0216009D01*
X0040715Y0217092D01*
X0041301Y0218506D01*
X0041301Y0220037D01*
X0040715Y0221451D01*
X0039632Y0222534D01*
X0038218Y0223120D01*
X0035132Y0223120D01*
X0033718Y0222534D01*
X0032260Y0220544D02*
X0018584Y0220544D01*
X0018584Y0218971D02*
X0032050Y0218971D01*
X0032509Y0217397D02*
X0018584Y0217397D01*
X0018584Y0215824D02*
X0034165Y0215824D01*
X0039185Y0215824D02*
X0047774Y0215824D01*
X0046201Y0214251D02*
X0018584Y0214251D01*
X0018584Y0212678D02*
X0044628Y0212678D01*
X0043054Y0211104D02*
X0018584Y0211104D01*
X0018584Y0209531D02*
X0041481Y0209531D01*
X0040607Y0207958D02*
X0018584Y0207958D01*
X0018584Y0206384D02*
X0040197Y0206384D01*
X0040197Y0204811D02*
X0018584Y0204811D01*
X0018584Y0203238D02*
X0033516Y0203238D01*
X0032349Y0201664D02*
X0018584Y0201664D01*
X0018584Y0200091D02*
X0032050Y0200091D01*
X0032420Y0198518D02*
X0018584Y0198518D01*
X0018584Y0196944D02*
X0033688Y0196944D01*
X0039662Y0196944D02*
X0040197Y0196944D01*
X0040197Y0195371D02*
X0018584Y0195371D01*
X0018584Y0193798D02*
X0040197Y0193798D01*
X0040197Y0192224D02*
X0018584Y0192224D01*
X0018584Y0190651D02*
X0040197Y0190651D01*
X0040197Y0189078D02*
X0018584Y0189078D01*
X0018584Y0187504D02*
X0040197Y0187504D01*
X0040197Y0185931D02*
X0018584Y0185931D01*
X0018584Y0184358D02*
X0040197Y0184358D01*
X0040197Y0182785D02*
X0018584Y0182785D01*
X0018584Y0181211D02*
X0040197Y0181211D01*
X0040197Y0179638D02*
X0038640Y0179638D01*
X0034711Y0179638D02*
X0018584Y0179638D01*
X0018584Y0178065D02*
X0032602Y0178065D01*
X0032050Y0176491D02*
X0018584Y0176491D01*
X0018584Y0174918D02*
X0032166Y0174918D01*
X0033076Y0173345D02*
X0018584Y0173345D01*
X0018584Y0171771D02*
X0040197Y0171771D01*
X0040197Y0170198D02*
X0018584Y0170198D01*
X0018584Y0168625D02*
X0040197Y0168625D01*
X0040197Y0167051D02*
X0018584Y0167051D01*
X0018584Y0165478D02*
X0040197Y0165478D01*
X0040197Y0163905D02*
X0018584Y0163905D01*
X0018584Y0162331D02*
X0040197Y0162331D01*
X0040197Y0160758D02*
X0018584Y0160758D01*
X0018584Y0159185D02*
X0032770Y0159185D01*
X0032050Y0157612D02*
X0018584Y0157612D01*
X0018584Y0156038D02*
X0032077Y0156038D01*
X0032861Y0154465D02*
X0018584Y0154465D01*
X0018584Y0152892D02*
X0038385Y0152892D01*
X0036812Y0151318D02*
X0018584Y0151318D01*
X0018584Y0149745D02*
X0035239Y0149745D01*
X0033665Y0148172D02*
X0018584Y0148172D01*
X0018584Y0146598D02*
X0032092Y0146598D01*
X0032791Y0147298D02*
X0032791Y0147298D01*
X0030872Y0145025D02*
X0018584Y0145025D01*
X0018584Y0143452D02*
X0030220Y0143452D01*
X0030217Y0141878D02*
X0018584Y0141878D01*
X0018584Y0140305D02*
X0030217Y0140305D01*
X0030217Y0138732D02*
X0018584Y0138732D01*
X0018584Y0137158D02*
X0030217Y0137158D01*
X0030217Y0135585D02*
X0018584Y0135585D01*
X0018584Y0134012D02*
X0030217Y0134012D01*
X0030217Y0132438D02*
X0018584Y0132438D01*
X0018584Y0130865D02*
X0030217Y0130865D01*
X0030217Y0129292D02*
X0018584Y0129292D01*
X0018584Y0127719D02*
X0030217Y0127719D01*
X0030217Y0126145D02*
X0018584Y0126145D01*
X0018584Y0124572D02*
X0030217Y0124572D01*
X0030217Y0122999D02*
X0018584Y0122999D01*
X0018584Y0121425D02*
X0030217Y0121425D01*
X0030217Y0119852D02*
X0018584Y0119852D01*
X0018584Y0118279D02*
X0030217Y0118279D01*
X0030217Y0116705D02*
X0018584Y0116705D01*
X0018584Y0115132D02*
X0030217Y0115132D01*
X0030217Y0113559D02*
X0018584Y0113559D01*
X0018584Y0111985D02*
X0030217Y0111985D01*
X0030217Y0110412D02*
X0018584Y0110412D01*
X0018584Y0108839D02*
X0030217Y0108839D01*
X0030217Y0107265D02*
X0018584Y0107265D01*
X0018584Y0105692D02*
X0030217Y0105692D01*
X0030217Y0104119D02*
X0018584Y0104119D01*
X0018584Y0102545D02*
X0030217Y0102545D01*
X0030217Y0100972D02*
X0018584Y0100972D01*
X0018584Y0099399D02*
X0030217Y0099399D01*
X0030217Y0097826D02*
X0018584Y0097826D01*
X0018584Y0096252D02*
X0030217Y0096252D01*
X0030217Y0094679D02*
X0018584Y0094679D01*
X0018584Y0093106D02*
X0030217Y0093106D01*
X0030217Y0091532D02*
X0018584Y0091532D01*
X0018584Y0089959D02*
X0022403Y0089959D01*
X0021317Y0088386D02*
X0018584Y0088386D01*
X0018584Y0086812D02*
X0020893Y0086812D01*
X0020867Y0086020D02*
X0020867Y0085817D01*
X0020997Y0084995D01*
X0021254Y0084203D01*
X0021632Y0083462D01*
X0022121Y0082789D01*
X0022710Y0082200D01*
X0023383Y0081711D01*
X0024125Y0081333D01*
X0024916Y0081076D01*
X0025738Y0080946D01*
X0025942Y0080946D01*
X0025942Y0086020D01*
X0020867Y0086020D01*
X0020958Y0085239D02*
X0018584Y0085239D01*
X0018584Y0083666D02*
X0021528Y0083666D01*
X0022858Y0082092D02*
X0018584Y0082092D01*
X0018584Y0080519D02*
X0032997Y0080519D01*
X0031120Y0082092D02*
X0029451Y0082092D01*
X0026367Y0082092D02*
X0025942Y0082092D01*
X0025942Y0083666D02*
X0026367Y0083666D01*
X0026367Y0085239D02*
X0025942Y0085239D01*
X0025942Y0086812D02*
X0026367Y0086812D01*
X0026367Y0088386D02*
X0025942Y0088386D01*
X0025942Y0089959D02*
X0026367Y0089959D01*
X0029906Y0089959D02*
X0030217Y0089959D01*
X0042091Y0089959D02*
X0048459Y0089959D01*
X0049374Y0089044D02*
X0049374Y0089044D01*
X0050033Y0088386D02*
X0042398Y0088386D01*
X0043971Y0086812D02*
X0051606Y0086812D01*
X0053179Y0085239D02*
X0045545Y0085239D01*
X0047118Y0083666D02*
X0054753Y0083666D01*
X0056326Y0082092D02*
X0048691Y0082092D01*
X0050264Y0080519D02*
X0057899Y0080519D01*
X0059473Y0078946D02*
X0051838Y0078946D01*
X0053411Y0077372D02*
X0061046Y0077372D01*
X0062842Y0075799D02*
X0054984Y0075799D01*
X0056558Y0074226D02*
X0057831Y0074226D01*
X0060830Y0074226D02*
X0140809Y0074226D01*
X0140809Y0075799D02*
X0067221Y0075799D01*
X0068935Y0077372D02*
X0140809Y0077372D01*
X0140809Y0078946D02*
X0069568Y0078946D01*
X0069568Y0080519D02*
X0140809Y0080519D01*
X0140809Y0082092D02*
X0068994Y0082092D01*
X0067585Y0083666D02*
X0139983Y0083666D01*
X0138410Y0085239D02*
X0066012Y0085239D01*
X0064439Y0086812D02*
X0136836Y0086812D01*
X0135263Y0088386D02*
X0062865Y0088386D01*
X0061292Y0089959D02*
X0133690Y0089959D01*
X0132116Y0091532D02*
X0106411Y0091532D01*
X0108777Y0093106D02*
X0130543Y0093106D01*
X0128970Y0094679D02*
X0109814Y0094679D01*
X0110339Y0096252D02*
X0127397Y0096252D01*
X0125823Y0097826D02*
X0110339Y0097826D01*
X0110339Y0099399D02*
X0124250Y0099399D01*
X0122677Y0100972D02*
X0110339Y0100972D01*
X0110339Y0102545D02*
X0121103Y0102545D01*
X0119530Y0104119D02*
X0110339Y0104119D01*
X0110339Y0105692D02*
X0117957Y0105692D01*
X0116383Y0107265D02*
X0110339Y0107265D01*
X0110339Y0108839D02*
X0115613Y0108839D01*
X0115613Y0110412D02*
X0110339Y0110412D01*
X0110339Y0111985D02*
X0110964Y0111985D01*
X0113587Y0111985D02*
X0115613Y0111985D01*
X0115149Y0113559D02*
X0114914Y0113559D01*
X0119962Y0111985D02*
X0325652Y0111985D01*
X0325652Y0110412D02*
X0119962Y0110412D01*
X0120961Y0108839D02*
X0325652Y0108839D01*
X0325652Y0107265D02*
X0122535Y0107265D01*
X0124108Y0105692D02*
X0325652Y0105692D01*
X0325652Y0104119D02*
X0125681Y0104119D01*
X0127255Y0102545D02*
X0325652Y0102545D01*
X0325652Y0100972D02*
X0128828Y0100972D01*
X0130401Y0099399D02*
X0325652Y0099399D01*
X0325652Y0097826D02*
X0131974Y0097826D01*
X0133548Y0096252D02*
X0325652Y0096252D01*
X0325652Y0094679D02*
X0135121Y0094679D01*
X0136694Y0093106D02*
X0325652Y0093106D01*
X0325652Y0091532D02*
X0138268Y0091532D01*
X0139841Y0089959D02*
X0325652Y0089959D01*
X0325652Y0088386D02*
X0141414Y0088386D01*
X0142988Y0086812D02*
X0325652Y0086812D01*
X0325652Y0085239D02*
X0144561Y0085239D01*
X0145159Y0083666D02*
X0325652Y0083666D01*
X0325652Y0082092D02*
X0145159Y0082092D01*
X0145159Y0080519D02*
X0325549Y0080519D01*
X0325652Y0080622D02*
X0292178Y0047148D01*
X0291644Y0047148D01*
X0290623Y0046725D01*
X0289842Y0045944D01*
X0289450Y0044999D01*
X0289450Y0046700D01*
X0292216Y0049466D01*
X0292749Y0049466D01*
X0293770Y0049889D01*
X0294552Y0050671D01*
X0294975Y0051692D01*
X0294975Y0052797D01*
X0294552Y0053818D01*
X0293770Y0054599D01*
X0292749Y0055022D01*
X0291644Y0055022D01*
X0290623Y0054599D01*
X0289842Y0053818D01*
X0289419Y0052797D01*
X0289419Y0052263D01*
X0285494Y0048339D01*
X0285494Y0041189D01*
X0286653Y0040030D01*
X0286653Y0040030D01*
X0286960Y0039723D01*
X0288119Y0038564D01*
X0290336Y0038564D01*
X0289842Y0038070D01*
X0289419Y0037049D01*
X0289419Y0035943D01*
X0289842Y0034922D01*
X0290623Y0034141D01*
X0291644Y0033718D01*
X0292749Y0033718D01*
X0293770Y0034141D01*
X0294541Y0034912D01*
X0296559Y0034912D01*
X0297718Y0036070D01*
X0335930Y0074282D01*
X0337088Y0075441D01*
X0337088Y0121160D01*
X0337465Y0121537D01*
X0337888Y0122558D01*
X0337888Y0123663D01*
X0337465Y0124684D01*
X0336684Y0125465D01*
X0335663Y0125888D01*
X0334558Y0125888D01*
X0333545Y0125469D01*
X0333545Y0126622D01*
X0335130Y0128206D01*
X0335663Y0128206D01*
X0336684Y0128629D01*
X0337465Y0129411D01*
X0337888Y0130432D01*
X0337888Y0131537D01*
X0337465Y0132558D01*
X0336684Y0133339D01*
X0335663Y0133762D01*
X0334558Y0133762D01*
X0333537Y0133339D01*
X0332755Y0132558D01*
X0332332Y0131537D01*
X0332332Y0131004D01*
X0330748Y0129419D01*
X0329608Y0128279D01*
X0329608Y0130559D01*
X0335130Y0136080D01*
X0335663Y0136080D01*
X0336684Y0136503D01*
X0337465Y0137285D01*
X0337888Y0138306D01*
X0337888Y0139411D01*
X0337465Y0140432D01*
X0336684Y0141213D01*
X0335663Y0141636D01*
X0334558Y0141636D01*
X0333537Y0141213D01*
X0332755Y0140432D01*
X0332332Y0139411D01*
X0332332Y0138878D01*
X0326811Y0133356D01*
X0325652Y0132197D01*
X0325652Y0080622D01*
X0323975Y0078946D02*
X0145159Y0078946D01*
X0145159Y0077372D02*
X0322402Y0077372D01*
X0320829Y0075799D02*
X0145159Y0075799D01*
X0145159Y0074226D02*
X0319255Y0074226D01*
X0317682Y0072653D02*
X0145159Y0072653D01*
X0145159Y0071079D02*
X0316109Y0071079D01*
X0314535Y0069506D02*
X0145159Y0069506D01*
X0145159Y0067933D02*
X0312962Y0067933D01*
X0311389Y0066359D02*
X0145159Y0066359D01*
X0145159Y0064786D02*
X0309815Y0064786D01*
X0308242Y0063213D02*
X0145159Y0063213D01*
X0145159Y0061639D02*
X0306669Y0061639D01*
X0305096Y0060066D02*
X0145159Y0060066D01*
X0145323Y0058493D02*
X0303522Y0058493D01*
X0301949Y0056919D02*
X0146896Y0056919D01*
X0143892Y0053773D02*
X0062606Y0053773D01*
X0064492Y0055346D02*
X0142318Y0055346D01*
X0140809Y0056919D02*
X0065460Y0056919D01*
X0066055Y0058493D02*
X0140809Y0058493D01*
X0140809Y0060066D02*
X0066055Y0060066D01*
X0066055Y0061639D02*
X0140809Y0061639D01*
X0140809Y0063213D02*
X0066055Y0063213D01*
X0066055Y0064786D02*
X0140809Y0064786D01*
X0140809Y0066359D02*
X0066055Y0066359D01*
X0066055Y0067933D02*
X0140809Y0067933D01*
X0140809Y0069506D02*
X0065807Y0069506D01*
X0065155Y0071079D02*
X0140809Y0071079D01*
X0140809Y0072653D02*
X0063756Y0072653D01*
X0050779Y0063213D02*
X0040052Y0063213D01*
X0040052Y0063435D02*
X0034724Y0063435D01*
X0034724Y0054170D01*
X0034962Y0054170D01*
X0035821Y0054306D01*
X0036648Y0054575D01*
X0037423Y0054970D01*
X0038126Y0055481D01*
X0038741Y0056096D01*
X0039252Y0056799D01*
X0039647Y0057574D01*
X0039916Y0058401D01*
X0040052Y0059260D01*
X0040052Y0063435D01*
X0040052Y0063828D02*
X0040052Y0068003D01*
X0039916Y0068862D01*
X0039647Y0069689D01*
X0039252Y0070464D01*
X0038741Y0071167D01*
X0038126Y0071782D01*
X0037423Y0072293D01*
X0036648Y0072688D01*
X0035821Y0072957D01*
X0034962Y0073093D01*
X0034724Y0073093D01*
X0034724Y0063828D01*
X0034331Y0063828D01*
X0034331Y0063435D01*
X0029003Y0063435D01*
X0029003Y0059260D01*
X0029139Y0058401D01*
X0029408Y0057574D01*
X0029803Y0056799D01*
X0030314Y0056096D01*
X0030929Y0055481D01*
X0031632Y0054970D01*
X0032407Y0054575D01*
X0033234Y0054306D01*
X0034093Y0054170D01*
X0034331Y0054170D01*
X0034331Y0063435D01*
X0034724Y0063435D01*
X0034724Y0063828D01*
X0040052Y0063828D01*
X0040052Y0064786D02*
X0049205Y0064786D01*
X0047632Y0066359D02*
X0040052Y0066359D01*
X0040052Y0067933D02*
X0046059Y0067933D01*
X0044485Y0069506D02*
X0039707Y0069506D01*
X0038805Y0071079D02*
X0042912Y0071079D01*
X0041339Y0072653D02*
X0036718Y0072653D01*
X0034724Y0072653D02*
X0034331Y0072653D01*
X0034331Y0073093D02*
X0034093Y0073093D01*
X0033234Y0072957D01*
X0032407Y0072688D01*
X0031632Y0072293D01*
X0030929Y0071782D01*
X0030314Y0071167D01*
X0029803Y0070464D01*
X0029408Y0069689D01*
X0029139Y0068862D01*
X0029003Y0068003D01*
X0029003Y0063828D01*
X0034331Y0063828D01*
X0034331Y0073093D01*
X0034331Y0071079D02*
X0034724Y0071079D01*
X0034724Y0069506D02*
X0034331Y0069506D01*
X0034331Y0067933D02*
X0034724Y0067933D01*
X0034724Y0066359D02*
X0034331Y0066359D01*
X0034331Y0064786D02*
X0034724Y0064786D01*
X0034724Y0063213D02*
X0034331Y0063213D01*
X0034331Y0061639D02*
X0034724Y0061639D01*
X0034724Y0060066D02*
X0034331Y0060066D01*
X0034331Y0058493D02*
X0034724Y0058493D01*
X0034724Y0056919D02*
X0034331Y0056919D01*
X0034331Y0055346D02*
X0034724Y0055346D01*
X0037941Y0055346D02*
X0054169Y0055346D01*
X0053202Y0056919D02*
X0039314Y0056919D01*
X0039930Y0058493D02*
X0052606Y0058493D01*
X0052606Y0060066D02*
X0040052Y0060066D01*
X0040052Y0061639D02*
X0052352Y0061639D01*
X0056055Y0053773D02*
X0018584Y0053773D01*
X0018584Y0055346D02*
X0031114Y0055346D01*
X0029741Y0056919D02*
X0018584Y0056919D01*
X0018584Y0058493D02*
X0029125Y0058493D01*
X0029003Y0060066D02*
X0018584Y0060066D01*
X0018584Y0061639D02*
X0029003Y0061639D01*
X0029003Y0063213D02*
X0018584Y0063213D01*
X0018584Y0064786D02*
X0029003Y0064786D01*
X0029003Y0066359D02*
X0018584Y0066359D01*
X0018584Y0067933D02*
X0029003Y0067933D01*
X0029348Y0069506D02*
X0018584Y0069506D01*
X0018584Y0071079D02*
X0030250Y0071079D01*
X0032337Y0072653D02*
X0018584Y0072653D01*
X0018584Y0074226D02*
X0039765Y0074226D01*
X0038192Y0075799D02*
X0018584Y0075799D01*
X0018584Y0077372D02*
X0036619Y0077372D01*
X0035045Y0078946D02*
X0018584Y0078946D01*
X0042091Y0091532D02*
X0046886Y0091532D01*
X0046320Y0092099D02*
X0046320Y0092099D01*
X0045313Y0093106D02*
X0042091Y0093106D01*
X0042091Y0094679D02*
X0044503Y0094679D01*
X0044353Y0096252D02*
X0042091Y0096252D01*
X0042091Y0097826D02*
X0044353Y0097826D01*
X0044353Y0099399D02*
X0042091Y0099399D01*
X0042091Y0100972D02*
X0044353Y0100972D01*
X0044353Y0102545D02*
X0042091Y0102545D01*
X0042091Y0104119D02*
X0044353Y0104119D01*
X0044353Y0105692D02*
X0042091Y0105692D01*
X0042091Y0107265D02*
X0044353Y0107265D01*
X0044353Y0108839D02*
X0042091Y0108839D01*
X0042091Y0110412D02*
X0044353Y0110412D01*
X0044353Y0111985D02*
X0042091Y0111985D01*
X0042091Y0113559D02*
X0044353Y0113559D01*
X0044353Y0115132D02*
X0042091Y0115132D01*
X0042091Y0116705D02*
X0044353Y0116705D01*
X0044353Y0118279D02*
X0042091Y0118279D01*
X0042091Y0119852D02*
X0044353Y0119852D01*
X0044353Y0121425D02*
X0042091Y0121425D01*
X0042091Y0122999D02*
X0044353Y0122999D01*
X0044353Y0124572D02*
X0042091Y0124572D01*
X0042091Y0126145D02*
X0044353Y0126145D01*
X0044353Y0127719D02*
X0042091Y0127719D01*
X0042091Y0129292D02*
X0044419Y0129292D01*
X0045110Y0130865D02*
X0042091Y0130865D01*
X0042091Y0132438D02*
X0046684Y0132438D01*
X0048257Y0134012D02*
X0042091Y0134012D01*
X0042091Y0135585D02*
X0049830Y0135585D01*
X0051404Y0137158D02*
X0042091Y0137158D01*
X0042091Y0138732D02*
X0052620Y0138732D01*
X0052620Y0140305D02*
X0042591Y0140305D01*
X0044164Y0141878D02*
X0052620Y0141878D01*
X0052620Y0143452D02*
X0045738Y0143452D01*
X0047311Y0145025D02*
X0052620Y0145025D01*
X0052620Y0146598D02*
X0048884Y0146598D01*
X0049497Y0147211D02*
X0049497Y0147211D01*
X0050458Y0148172D02*
X0052620Y0148172D01*
X0052620Y0149745D02*
X0051525Y0149745D01*
X0052071Y0151318D02*
X0052620Y0151318D01*
X0052620Y0152892D02*
X0052071Y0152892D01*
X0052071Y0154465D02*
X0052620Y0154465D01*
X0052620Y0156038D02*
X0052071Y0156038D01*
X0052071Y0157612D02*
X0052620Y0157612D01*
X0052620Y0159185D02*
X0052071Y0159185D01*
X0052071Y0160758D02*
X0052620Y0160758D01*
X0052620Y0162331D02*
X0052071Y0162331D01*
X0052071Y0163905D02*
X0052620Y0163905D01*
X0052620Y0165478D02*
X0052071Y0165478D01*
X0052071Y0167051D02*
X0052620Y0167051D01*
X0052620Y0168625D02*
X0052071Y0168625D01*
X0052071Y0170198D02*
X0052620Y0170198D01*
X0052620Y0171771D02*
X0052071Y0171771D01*
X0052071Y0173345D02*
X0052620Y0173345D01*
X0052620Y0174918D02*
X0052071Y0174918D01*
X0052071Y0176491D02*
X0052620Y0176491D01*
X0052620Y0178065D02*
X0052071Y0178065D01*
X0052071Y0179638D02*
X0052620Y0179638D01*
X0052620Y0181211D02*
X0052071Y0181211D01*
X0052071Y0182785D02*
X0052620Y0182785D01*
X0052620Y0184358D02*
X0052071Y0184358D01*
X0052071Y0185931D02*
X0052620Y0185931D01*
X0052620Y0187504D02*
X0052071Y0187504D01*
X0052071Y0189078D02*
X0052620Y0189078D01*
X0052620Y0190651D02*
X0052071Y0190651D01*
X0052071Y0192224D02*
X0052620Y0192224D01*
X0052620Y0193798D02*
X0052071Y0193798D01*
X0052071Y0195371D02*
X0052620Y0195371D01*
X0052620Y0196944D02*
X0052071Y0196944D01*
X0052071Y0198518D02*
X0052823Y0198518D01*
X0052071Y0200091D02*
X0053706Y0200091D01*
X0054587Y0200972D02*
X0054587Y0200972D01*
X0055280Y0201664D02*
X0052071Y0201664D01*
X0052071Y0203238D02*
X0056853Y0203238D01*
X0058426Y0204811D02*
X0053554Y0204811D01*
X0055127Y0206384D02*
X0059999Y0206384D01*
X0061573Y0207958D02*
X0056700Y0207958D01*
X0058274Y0209531D02*
X0063146Y0209531D01*
X0064719Y0211104D02*
X0059847Y0211104D01*
X0061420Y0212678D02*
X0066293Y0212678D01*
X0072832Y0206384D02*
X0094771Y0206384D01*
X0093769Y0204811D02*
X0071259Y0204811D01*
X0069685Y0203238D02*
X0093034Y0203238D01*
X0091460Y0201664D02*
X0068112Y0201664D01*
X0066539Y0200091D02*
X0089887Y0200091D01*
X0088314Y0198518D02*
X0064965Y0198518D01*
X0063392Y0196944D02*
X0086740Y0196944D01*
X0085167Y0195371D02*
X0061819Y0195371D01*
X0061694Y0193798D02*
X0083594Y0193798D01*
X0082021Y0192224D02*
X0061694Y0192224D01*
X0061694Y0190651D02*
X0080447Y0190651D01*
X0078874Y0189078D02*
X0061694Y0189078D01*
X0061694Y0187504D02*
X0077301Y0187504D01*
X0075727Y0185931D02*
X0061694Y0185931D01*
X0061694Y0184358D02*
X0074154Y0184358D01*
X0072581Y0182785D02*
X0061694Y0182785D01*
X0061694Y0181211D02*
X0071007Y0181211D01*
X0069434Y0179638D02*
X0061694Y0179638D01*
X0061694Y0178065D02*
X0067861Y0178065D01*
X0066400Y0176491D02*
X0061694Y0176491D01*
X0061694Y0174918D02*
X0066400Y0174918D01*
X0066400Y0173345D02*
X0061694Y0173345D01*
X0061694Y0171771D02*
X0066400Y0171771D01*
X0066400Y0170198D02*
X0061694Y0170198D01*
X0061694Y0168625D02*
X0066400Y0168625D01*
X0066400Y0167051D02*
X0061694Y0167051D01*
X0061694Y0165478D02*
X0066400Y0165478D01*
X0066400Y0163905D02*
X0061694Y0163905D01*
X0061694Y0162331D02*
X0066400Y0162331D01*
X0066400Y0160758D02*
X0061694Y0160758D01*
X0061694Y0159185D02*
X0066400Y0159185D01*
X0066400Y0157612D02*
X0061694Y0157612D01*
X0061694Y0156038D02*
X0066400Y0156038D01*
X0066400Y0154465D02*
X0061694Y0154465D01*
X0061694Y0152892D02*
X0066400Y0152892D01*
X0066400Y0151318D02*
X0061694Y0151318D01*
X0061694Y0149745D02*
X0066400Y0149745D01*
X0066400Y0148172D02*
X0061694Y0148172D01*
X0061694Y0146598D02*
X0066400Y0146598D01*
X0066400Y0145025D02*
X0061694Y0145025D01*
X0061694Y0143452D02*
X0065772Y0143452D01*
X0065403Y0141878D02*
X0061694Y0141878D01*
X0061694Y0140305D02*
X0065955Y0140305D01*
X0070407Y0140305D02*
X0075630Y0140305D01*
X0075630Y0138732D02*
X0061694Y0138732D01*
X0061694Y0137158D02*
X0075630Y0137158D01*
X0075630Y0135585D02*
X0061691Y0135585D01*
X0061039Y0134012D02*
X0075630Y0134012D01*
X0074625Y0132438D02*
X0059516Y0132438D01*
X0057943Y0130865D02*
X0073052Y0130865D01*
X0071478Y0129292D02*
X0056370Y0129292D01*
X0054796Y0127719D02*
X0069905Y0127719D01*
X0068332Y0126145D02*
X0053427Y0126145D01*
X0053427Y0124572D02*
X0066758Y0124572D01*
X0056567Y0122999D02*
X0053427Y0122999D01*
X0053427Y0121425D02*
X0055078Y0121425D01*
X0054427Y0119852D02*
X0053427Y0119852D01*
X0053427Y0118279D02*
X0054150Y0118279D01*
X0054150Y0116705D02*
X0053427Y0116705D01*
X0053427Y0115132D02*
X0054760Y0115132D01*
X0055799Y0113559D02*
X0053427Y0113559D01*
X0053427Y0111985D02*
X0057273Y0111985D01*
X0055986Y0110412D02*
X0053427Y0110412D01*
X0053427Y0108839D02*
X0055434Y0108839D01*
X0055384Y0107265D02*
X0053427Y0107265D01*
X0053427Y0105692D02*
X0055826Y0105692D01*
X0056936Y0104119D02*
X0053427Y0104119D01*
X0053427Y0102545D02*
X0087047Y0102545D01*
X0087047Y0100972D02*
X0053427Y0100972D01*
X0053427Y0099399D02*
X0087047Y0099399D01*
X0087047Y0097826D02*
X0053427Y0097826D01*
X0054999Y0096252D02*
X0087047Y0096252D01*
X0087409Y0094679D02*
X0056572Y0094679D01*
X0055790Y0095460D02*
X0055790Y0095460D01*
X0058145Y0093106D02*
X0088215Y0093106D01*
X0090024Y0091532D02*
X0059719Y0091532D01*
X0060425Y0104119D02*
X0060850Y0104119D01*
X0060850Y0105692D02*
X0060425Y0105692D01*
X0060425Y0107265D02*
X0060850Y0107265D01*
X0064340Y0104119D02*
X0087047Y0104119D01*
X0087047Y0105692D02*
X0065450Y0105692D01*
X0065891Y0107265D02*
X0087047Y0107265D01*
X0087047Y0108839D02*
X0065842Y0108839D01*
X0065289Y0110412D02*
X0087047Y0110412D01*
X0087047Y0111985D02*
X0069725Y0111985D01*
X0072538Y0113559D02*
X0087047Y0113559D01*
X0087047Y0115132D02*
X0074111Y0115132D01*
X0075684Y0116705D02*
X0087047Y0116705D01*
X0087047Y0118279D02*
X0077258Y0118279D01*
X0078831Y0119852D02*
X0087047Y0119852D01*
X0087047Y0121425D02*
X0080404Y0121425D01*
X0081977Y0122999D02*
X0087047Y0122999D01*
X0087047Y0124572D02*
X0083551Y0124572D01*
X0085124Y0126145D02*
X0087047Y0126145D01*
X0087047Y0127719D02*
X0086640Y0127719D01*
X0075630Y0141878D02*
X0070959Y0141878D01*
X0070590Y0143452D02*
X0075630Y0143452D01*
X0075630Y0145025D02*
X0069962Y0145025D01*
X0069962Y0146598D02*
X0075630Y0146598D01*
X0075630Y0148172D02*
X0069962Y0148172D01*
X0069962Y0149745D02*
X0075630Y0149745D01*
X0075630Y0151318D02*
X0069962Y0151318D01*
X0069962Y0152892D02*
X0075630Y0152892D01*
X0075630Y0154465D02*
X0069962Y0154465D01*
X0069962Y0156038D02*
X0075630Y0156038D01*
X0075630Y0157612D02*
X0069962Y0157612D01*
X0069962Y0159185D02*
X0075630Y0159185D01*
X0075630Y0160758D02*
X0069962Y0160758D01*
X0069962Y0162331D02*
X0075630Y0162331D01*
X0075630Y0163905D02*
X0069962Y0163905D01*
X0069962Y0165478D02*
X0075630Y0165478D01*
X0075630Y0167051D02*
X0069962Y0167051D01*
X0069962Y0168625D02*
X0075630Y0168625D01*
X0075630Y0170198D02*
X0069962Y0170198D01*
X0069962Y0171771D02*
X0075630Y0171771D01*
X0075630Y0173345D02*
X0069962Y0173345D01*
X0069962Y0174918D02*
X0075630Y0174918D01*
X0075630Y0176491D02*
X0071325Y0176491D01*
X0072898Y0178065D02*
X0075630Y0178065D01*
X0075888Y0179638D02*
X0074472Y0179638D01*
X0076045Y0181211D02*
X0076547Y0181211D01*
X0077618Y0182785D02*
X0078121Y0182785D01*
X0079192Y0184358D02*
X0079694Y0184358D01*
X0080765Y0185931D02*
X0081267Y0185931D01*
X0082338Y0187504D02*
X0082841Y0187504D01*
X0083912Y0189078D02*
X0084414Y0189078D01*
X0085485Y0190651D02*
X0085987Y0190651D01*
X0087058Y0192224D02*
X0087561Y0192224D01*
X0088632Y0193798D02*
X0089134Y0193798D01*
X0090205Y0195371D02*
X0090707Y0195371D01*
X0091778Y0196944D02*
X0092280Y0196944D01*
X0093351Y0198518D02*
X0093854Y0198518D01*
X0094925Y0200091D02*
X0095427Y0200091D01*
X0099287Y0204811D02*
X0100147Y0204811D01*
X0101720Y0206384D02*
X0098284Y0206384D01*
X0097634Y0207958D02*
X0102795Y0207958D01*
X0102795Y0209531D02*
X0099207Y0209531D01*
X0100780Y0211104D02*
X0102795Y0211104D01*
X0102795Y0212678D02*
X0102354Y0212678D01*
X0099063Y0231557D02*
X0098638Y0231557D01*
X0098638Y0233131D02*
X0099063Y0233131D01*
X0099063Y0234704D02*
X0098638Y0234704D01*
X0095604Y0234704D02*
X0092096Y0234704D01*
X0093670Y0233131D02*
X0094031Y0233131D01*
X0089063Y0233131D02*
X0088638Y0233131D01*
X0088638Y0234704D02*
X0089063Y0234704D01*
X0089063Y0231557D02*
X0088638Y0231557D01*
X0102096Y0234704D02*
X0105604Y0234704D01*
X0104031Y0233131D02*
X0103670Y0233131D01*
X0108638Y0233131D02*
X0109063Y0233131D01*
X0109063Y0234704D02*
X0108638Y0234704D01*
X0108638Y0231557D02*
X0109063Y0231557D01*
X0112096Y0234704D02*
X0115604Y0234704D01*
X0114031Y0233131D02*
X0113670Y0233131D01*
X0118638Y0233131D02*
X0119063Y0233131D01*
X0119063Y0234704D02*
X0118638Y0234704D01*
X0118638Y0231557D02*
X0119063Y0231557D01*
X0122096Y0234704D02*
X0123907Y0234704D01*
X0134757Y0247290D02*
X0041904Y0247290D01*
X0041482Y0248864D02*
X0136330Y0248864D01*
X0137904Y0250437D02*
X0041003Y0250437D01*
X0040095Y0252010D02*
X0387606Y0252010D01*
X0386698Y0250437D02*
X0362351Y0250437D01*
X0363924Y0248864D02*
X0386219Y0248864D01*
X0385797Y0247290D02*
X0365497Y0247290D01*
X0367071Y0245717D02*
X0385691Y0245717D01*
X0385691Y0244144D02*
X0368644Y0244144D01*
X0370217Y0242570D02*
X0385919Y0242570D01*
X0386340Y0240997D02*
X0371790Y0240997D01*
X0373364Y0239424D02*
X0386960Y0239424D01*
X0387868Y0237851D02*
X0374937Y0237851D01*
X0376510Y0236277D02*
X0389105Y0236277D01*
X0390678Y0234704D02*
X0378084Y0234704D01*
X0379657Y0233131D02*
X0393324Y0233131D01*
X0385950Y0226837D02*
X0409117Y0226837D01*
X0409117Y0225264D02*
X0387524Y0225264D01*
X0388557Y0223691D02*
X0409117Y0223691D01*
X0409117Y0222117D02*
X0389079Y0222117D01*
X0394275Y0220544D02*
X0394502Y0220544D01*
X0403277Y0220544D02*
X0409117Y0220544D01*
X0409117Y0218971D02*
X0403277Y0218971D01*
X0403277Y0217397D02*
X0409117Y0217397D01*
X0409117Y0215824D02*
X0403277Y0215824D01*
X0403277Y0214251D02*
X0409117Y0214251D01*
X0409117Y0212678D02*
X0386385Y0212678D01*
X0385347Y0211104D02*
X0409117Y0211104D01*
X0409117Y0209531D02*
X0386920Y0209531D01*
X0388493Y0207958D02*
X0409117Y0207958D01*
X0409117Y0206384D02*
X0390067Y0206384D01*
X0391640Y0204811D02*
X0409117Y0204811D01*
X0409117Y0203238D02*
X0393213Y0203238D01*
X0394786Y0201664D02*
X0409117Y0201664D01*
X0409117Y0200091D02*
X0396360Y0200091D01*
X0397933Y0198518D02*
X0409117Y0198518D01*
X0409117Y0196944D02*
X0399506Y0196944D01*
X0403277Y0195371D02*
X0409117Y0195371D01*
X0409117Y0193798D02*
X0403277Y0193798D01*
X0403277Y0192224D02*
X0409117Y0192224D01*
X0409117Y0190651D02*
X0403277Y0190651D01*
X0403277Y0189078D02*
X0409117Y0189078D01*
X0409117Y0187504D02*
X0386823Y0187504D01*
X0379460Y0187504D02*
X0376159Y0187504D01*
X0375268Y0187504D02*
X0375268Y0187504D01*
X0375268Y0187420D02*
X0375268Y0192008D01*
X0375268Y0192008D01*
X0375268Y0196595D01*
X0374907Y0196595D01*
X0374193Y0196482D01*
X0373507Y0196259D01*
X0372863Y0195931D01*
X0372279Y0195507D01*
X0371769Y0194996D01*
X0371344Y0194412D01*
X0371016Y0193769D01*
X0370793Y0193082D01*
X0370680Y0192369D01*
X0370680Y0192008D01*
X0375268Y0192008D01*
X0375268Y0192008D01*
X0370680Y0192008D01*
X0370680Y0191647D01*
X0370793Y0190934D01*
X0371016Y0190247D01*
X0371344Y0189604D01*
X0371769Y0189019D01*
X0372279Y0188509D01*
X0372863Y0188084D01*
X0373507Y0187757D01*
X0374193Y0187533D01*
X0374907Y0187420D01*
X0375268Y0187420D01*
X0374376Y0187504D02*
X0372568Y0187504D01*
X0371726Y0189078D02*
X0370995Y0189078D01*
X0370885Y0190651D02*
X0369422Y0190651D01*
X0370680Y0192224D02*
X0367848Y0192224D01*
X0366275Y0193798D02*
X0371031Y0193798D01*
X0372143Y0195371D02*
X0364702Y0195371D01*
X0363128Y0196944D02*
X0379936Y0196944D01*
X0382104Y0200091D02*
X0359982Y0200091D01*
X0361555Y0198518D02*
X0383677Y0198518D01*
X0380531Y0201664D02*
X0358409Y0201664D01*
X0356835Y0203238D02*
X0378957Y0203238D01*
X0377384Y0204811D02*
X0355262Y0204811D01*
X0343253Y0217397D02*
X0370680Y0217397D01*
X0370680Y0217237D02*
X0370793Y0216524D01*
X0371016Y0215837D01*
X0371344Y0215194D01*
X0371769Y0214610D01*
X0372279Y0214099D01*
X0372863Y0213675D01*
X0372871Y0213671D01*
X0335307Y0213671D01*
X0335307Y0216538D01*
X0336660Y0215185D01*
X0338638Y0215185D01*
X0338638Y0220260D01*
X0339063Y0220260D01*
X0339063Y0220685D01*
X0344138Y0220685D01*
X0344138Y0222663D01*
X0341328Y0225472D01*
X0344138Y0228282D01*
X0344138Y0230260D01*
X0339063Y0230260D01*
X0339063Y0230685D01*
X0344138Y0230685D01*
X0344138Y0232663D01*
X0341041Y0235760D01*
X0339063Y0235760D01*
X0339063Y0230685D01*
X0338638Y0230685D01*
X0338638Y0235760D01*
X0336660Y0235760D01*
X0333709Y0232809D01*
X0330958Y0235560D01*
X0326743Y0235560D01*
X0326512Y0235329D01*
X0321834Y0240008D01*
X0355987Y0240008D01*
X0373989Y0222006D01*
X0373507Y0221850D01*
X0372863Y0221522D01*
X0372279Y0221097D01*
X0371769Y0220587D01*
X0371344Y0220003D01*
X0371016Y0219359D01*
X0370793Y0218673D01*
X0370680Y0217959D01*
X0370680Y0217598D01*
X0370680Y0217237D01*
X0370680Y0217598D02*
X0375268Y0217598D01*
X0375268Y0217598D01*
X0370680Y0217598D01*
X0370890Y0218971D02*
X0344138Y0218971D01*
X0344138Y0218282D02*
X0344138Y0220260D01*
X0339063Y0220260D01*
X0339063Y0215185D01*
X0341041Y0215185D01*
X0344138Y0218282D01*
X0341680Y0215824D02*
X0371023Y0215824D01*
X0372128Y0214251D02*
X0335307Y0214251D01*
X0335307Y0215824D02*
X0336021Y0215824D01*
X0338638Y0215824D02*
X0339063Y0215824D01*
X0339063Y0217397D02*
X0338638Y0217397D01*
X0338638Y0218971D02*
X0339063Y0218971D01*
X0339063Y0220544D02*
X0371738Y0220544D01*
X0373878Y0222117D02*
X0344138Y0222117D01*
X0343110Y0223691D02*
X0372305Y0223691D01*
X0370731Y0225264D02*
X0341536Y0225264D01*
X0342693Y0226837D02*
X0369158Y0226837D01*
X0367585Y0228411D02*
X0344138Y0228411D01*
X0344138Y0229984D02*
X0366011Y0229984D01*
X0364438Y0231557D02*
X0344138Y0231557D01*
X0343670Y0233131D02*
X0362865Y0233131D01*
X0361291Y0234704D02*
X0342096Y0234704D01*
X0339063Y0234704D02*
X0338638Y0234704D01*
X0338638Y0233131D02*
X0339063Y0233131D01*
X0339063Y0231557D02*
X0338638Y0231557D01*
X0338638Y0230260D02*
X0339063Y0230260D01*
X0339063Y0225185D01*
X0339063Y0220685D01*
X0338638Y0220685D01*
X0338638Y0230260D01*
X0338638Y0229984D02*
X0339063Y0229984D01*
X0339063Y0228411D02*
X0338638Y0228411D01*
X0338638Y0226837D02*
X0339063Y0226837D01*
X0339063Y0225264D02*
X0338638Y0225264D01*
X0338638Y0223691D02*
X0339063Y0223691D01*
X0339063Y0222117D02*
X0338638Y0222117D01*
X0334031Y0233131D02*
X0333387Y0233131D01*
X0331814Y0234704D02*
X0335604Y0234704D01*
X0325564Y0236277D02*
X0359718Y0236277D01*
X0358145Y0237851D02*
X0323991Y0237851D01*
X0322418Y0239424D02*
X0356571Y0239424D01*
X0381230Y0231557D02*
X0409117Y0231557D01*
X0409117Y0229984D02*
X0382804Y0229984D01*
X0384377Y0228411D02*
X0409117Y0228411D01*
X0409117Y0233131D02*
X0404455Y0233131D01*
X0407102Y0234704D02*
X0409117Y0234704D01*
X0409117Y0236277D02*
X0408675Y0236277D01*
X0388651Y0253584D02*
X0039050Y0253584D01*
X0037477Y0255157D02*
X0390224Y0255157D01*
X0388159Y0214251D02*
X0387979Y0214251D01*
X0393873Y0214251D02*
X0394502Y0214251D01*
X0375268Y0195371D02*
X0375268Y0195371D01*
X0375268Y0193798D02*
X0375268Y0193798D01*
X0375268Y0192224D02*
X0375268Y0192224D01*
X0375268Y0190651D02*
X0375268Y0190651D01*
X0375268Y0189078D02*
X0375268Y0189078D01*
X0374142Y0185931D02*
X0409117Y0185931D01*
X0409117Y0184358D02*
X0375715Y0184358D01*
X0377288Y0182785D02*
X0409117Y0182785D01*
X0409117Y0181211D02*
X0378862Y0181211D01*
X0380435Y0179638D02*
X0389156Y0179638D01*
X0387583Y0178065D02*
X0382008Y0178065D01*
X0383582Y0176491D02*
X0386874Y0176491D01*
X0386497Y0174918D02*
X0385155Y0174918D01*
X0396812Y0179638D02*
X0399156Y0179638D01*
X0406812Y0179638D02*
X0409117Y0179638D01*
X0409117Y0178065D02*
X0408386Y0178065D01*
X0409095Y0176491D02*
X0409117Y0176491D01*
X0409117Y0171771D02*
X0408962Y0171771D01*
X0409117Y0170198D02*
X0408066Y0170198D01*
X0409117Y0168625D02*
X0406256Y0168625D01*
X0407512Y0167051D02*
X0409117Y0167051D01*
X0409117Y0165478D02*
X0408150Y0165478D01*
X0408272Y0163905D02*
X0409117Y0163905D01*
X0409117Y0162331D02*
X0407907Y0162331D01*
X0406929Y0160758D02*
X0409117Y0160758D01*
X0409117Y0159185D02*
X0405027Y0159185D01*
X0403197Y0159185D02*
X0402772Y0159185D01*
X0402772Y0159579D02*
X0402772Y0154504D01*
X0403197Y0154504D01*
X0403197Y0164079D01*
X0402772Y0164079D01*
X0402772Y0159579D01*
X0402772Y0160758D02*
X0403197Y0160758D01*
X0403197Y0162331D02*
X0402772Y0162331D01*
X0402772Y0163905D02*
X0403197Y0163905D01*
X0403197Y0157612D02*
X0402772Y0157612D01*
X0402772Y0156038D02*
X0403197Y0156038D01*
X0403197Y0154465D02*
X0409117Y0154465D01*
X0409117Y0156038D02*
X0407976Y0156038D01*
X0407108Y0157612D02*
X0409117Y0157612D01*
X0409117Y0152892D02*
X0408089Y0152892D01*
X0407360Y0151318D02*
X0409117Y0151318D01*
X0409117Y0149745D02*
X0405708Y0149745D01*
X0406581Y0148172D02*
X0409117Y0148172D01*
X0409117Y0146598D02*
X0407743Y0146598D01*
X0408221Y0145025D02*
X0409117Y0145025D01*
X0409117Y0143452D02*
X0408205Y0143452D01*
X0407689Y0141878D02*
X0409117Y0141878D01*
X0409117Y0140305D02*
X0406475Y0140305D01*
X0405868Y0138732D02*
X0409117Y0138732D01*
X0409117Y0137158D02*
X0407437Y0137158D01*
X0408123Y0135585D02*
X0409117Y0135585D01*
X0409117Y0134012D02*
X0408272Y0134012D01*
X0407942Y0132438D02*
X0409117Y0132438D01*
X0409117Y0130865D02*
X0407031Y0130865D01*
X0409117Y0129292D02*
X0404708Y0129292D01*
X0403197Y0129292D02*
X0402772Y0129292D01*
X0402772Y0129579D02*
X0402772Y0124504D01*
X0403197Y0124504D01*
X0403197Y0134079D01*
X0402772Y0134079D01*
X0402772Y0129579D01*
X0402772Y0130865D02*
X0403197Y0130865D01*
X0403197Y0132438D02*
X0402772Y0132438D01*
X0402772Y0134012D02*
X0403197Y0134012D01*
X0403197Y0134504D02*
X0402772Y0134504D01*
X0402772Y0139579D01*
X0402772Y0144079D01*
X0403197Y0144079D01*
X0403197Y0134504D01*
X0403197Y0135585D02*
X0402772Y0135585D01*
X0402772Y0137158D02*
X0403197Y0137158D01*
X0403197Y0138732D02*
X0402772Y0138732D01*
X0402772Y0140305D02*
X0403197Y0140305D01*
X0403197Y0141878D02*
X0402772Y0141878D01*
X0402772Y0143452D02*
X0403197Y0143452D01*
X0403197Y0144504D02*
X0402772Y0144504D01*
X0402772Y0149579D01*
X0402772Y0154079D01*
X0403197Y0154079D01*
X0403197Y0144504D01*
X0403197Y0145025D02*
X0402772Y0145025D01*
X0402772Y0146598D02*
X0403197Y0146598D01*
X0403197Y0148172D02*
X0402772Y0148172D01*
X0402772Y0149745D02*
X0403197Y0149745D01*
X0403197Y0151318D02*
X0402772Y0151318D01*
X0402772Y0152892D02*
X0403197Y0152892D01*
X0378032Y0137158D02*
X0337339Y0137158D01*
X0337888Y0138732D02*
X0376458Y0138732D01*
X0374885Y0140305D02*
X0337518Y0140305D01*
X0332703Y0140305D02*
X0250786Y0140305D01*
X0252359Y0138732D02*
X0332186Y0138732D01*
X0330613Y0137158D02*
X0253933Y0137158D01*
X0254030Y0137061D02*
X0218759Y0172332D01*
X0214683Y0172332D01*
X0214674Y0172342D01*
X0206728Y0172342D01*
X0206719Y0172332D01*
X0124462Y0172332D01*
X0124085Y0172709D01*
X0123064Y0173132D01*
X0121959Y0173132D01*
X0120938Y0172709D01*
X0120157Y0171928D01*
X0119734Y0170907D01*
X0119734Y0169802D01*
X0120157Y0168781D01*
X0120938Y0167999D01*
X0121959Y0167576D01*
X0123064Y0167576D01*
X0124085Y0167999D01*
X0124462Y0168376D01*
X0206719Y0168376D01*
X0206728Y0168367D01*
X0214674Y0168367D01*
X0214683Y0168376D01*
X0217120Y0168376D01*
X0251233Y0134264D01*
X0251233Y0126233D01*
X0250865Y0125865D01*
X0250443Y0124844D01*
X0250443Y0123739D01*
X0250865Y0122718D01*
X0251647Y0121936D01*
X0252668Y0121513D01*
X0253773Y0121513D01*
X0254794Y0121936D01*
X0255575Y0122718D01*
X0255998Y0123739D01*
X0255998Y0124844D01*
X0255575Y0125865D01*
X0255208Y0126233D01*
X0255208Y0135897D01*
X0254044Y0137061D01*
X0254030Y0137061D01*
X0255208Y0135585D02*
X0329040Y0135585D01*
X0327467Y0134012D02*
X0255208Y0134012D01*
X0255208Y0132438D02*
X0325893Y0132438D01*
X0325652Y0130865D02*
X0255208Y0130865D01*
X0255208Y0129292D02*
X0325652Y0129292D01*
X0325652Y0127719D02*
X0255208Y0127719D01*
X0255295Y0126145D02*
X0325652Y0126145D01*
X0325652Y0124572D02*
X0255998Y0124572D01*
X0255692Y0122999D02*
X0325652Y0122999D01*
X0325652Y0121425D02*
X0244062Y0121425D01*
X0242338Y0121425D02*
X0240481Y0121425D01*
X0238756Y0121425D02*
X0117238Y0121425D01*
X0117238Y0119852D02*
X0325652Y0119852D01*
X0325652Y0118279D02*
X0117238Y0118279D01*
X0119459Y0116705D02*
X0325652Y0116705D01*
X0325652Y0115132D02*
X0120511Y0115132D01*
X0120426Y0113559D02*
X0325652Y0113559D01*
X0337088Y0113559D02*
X0387897Y0113559D01*
X0387897Y0115132D02*
X0337088Y0115132D01*
X0337088Y0116705D02*
X0387773Y0116705D01*
X0386200Y0118279D02*
X0337088Y0118279D01*
X0337088Y0119852D02*
X0384626Y0119852D01*
X0383053Y0121425D02*
X0337354Y0121425D01*
X0337888Y0122999D02*
X0381480Y0122999D01*
X0380732Y0124572D02*
X0337512Y0124572D01*
X0334642Y0127719D02*
X0358848Y0127719D01*
X0358491Y0129292D02*
X0337346Y0129292D01*
X0337888Y0130865D02*
X0358750Y0130865D01*
X0359790Y0132438D02*
X0337515Y0132438D01*
X0334634Y0135585D02*
X0379605Y0135585D01*
X0380732Y0134012D02*
X0333061Y0134012D01*
X0332706Y0132438D02*
X0331488Y0132438D01*
X0332194Y0130865D02*
X0329914Y0130865D01*
X0329608Y0129292D02*
X0330621Y0129292D01*
X0333545Y0126145D02*
X0360025Y0126145D01*
X0380274Y0126145D02*
X0380732Y0126145D01*
X0380732Y0132438D02*
X0380509Y0132438D01*
X0373312Y0141878D02*
X0249213Y0141878D01*
X0247639Y0143452D02*
X0371738Y0143452D01*
X0370165Y0145025D02*
X0246066Y0145025D01*
X0244493Y0146598D02*
X0368592Y0146598D01*
X0367019Y0148172D02*
X0242919Y0148172D01*
X0241346Y0149745D02*
X0365445Y0149745D01*
X0363872Y0151318D02*
X0239773Y0151318D01*
X0238200Y0152892D02*
X0362299Y0152892D01*
X0360725Y0154465D02*
X0236626Y0154465D01*
X0235053Y0156038D02*
X0359152Y0156038D01*
X0357579Y0157612D02*
X0233480Y0157612D01*
X0231906Y0159185D02*
X0356005Y0159185D01*
X0354432Y0160758D02*
X0230333Y0160758D01*
X0228760Y0162331D02*
X0352859Y0162331D01*
X0351285Y0163905D02*
X0227186Y0163905D01*
X0225613Y0165478D02*
X0349712Y0165478D01*
X0348139Y0167051D02*
X0224040Y0167051D01*
X0222466Y0168625D02*
X0346565Y0168625D01*
X0344992Y0170198D02*
X0220893Y0170198D01*
X0219320Y0171771D02*
X0343419Y0171771D01*
X0341845Y0173345D02*
X0119528Y0173345D01*
X0120092Y0171771D02*
X0117954Y0171771D01*
X0117238Y0170198D02*
X0119734Y0170198D01*
X0120313Y0168625D02*
X0117238Y0168625D01*
X0117238Y0167051D02*
X0218445Y0167051D01*
X0220019Y0165478D02*
X0121579Y0165478D01*
X0121283Y0157612D02*
X0210447Y0157612D01*
X0212020Y0156038D02*
X0117238Y0156038D01*
X0117238Y0154465D02*
X0213593Y0154465D01*
X0215166Y0152892D02*
X0117238Y0152892D01*
X0117238Y0151318D02*
X0216740Y0151318D01*
X0218313Y0149745D02*
X0117238Y0149745D01*
X0117238Y0148172D02*
X0219886Y0148172D01*
X0221460Y0146598D02*
X0117238Y0146598D01*
X0117238Y0145025D02*
X0223033Y0145025D01*
X0224606Y0143452D02*
X0117238Y0143452D01*
X0117238Y0141878D02*
X0226180Y0141878D01*
X0227753Y0140305D02*
X0117238Y0140305D01*
X0117238Y0138732D02*
X0229326Y0138732D01*
X0230900Y0137158D02*
X0117238Y0137158D01*
X0117238Y0135585D02*
X0232473Y0135585D01*
X0234046Y0134012D02*
X0117238Y0134012D01*
X0117238Y0132438D02*
X0235620Y0132438D01*
X0237193Y0130865D02*
X0117238Y0130865D01*
X0117238Y0129292D02*
X0238622Y0129292D01*
X0238622Y0127719D02*
X0117238Y0127719D01*
X0117238Y0126145D02*
X0237261Y0126145D01*
X0236641Y0124572D02*
X0117238Y0124572D01*
X0117238Y0122999D02*
X0236931Y0122999D01*
X0244197Y0127719D02*
X0251233Y0127719D01*
X0251233Y0129292D02*
X0244197Y0129292D01*
X0244197Y0130865D02*
X0251233Y0130865D01*
X0251233Y0132438D02*
X0243503Y0132438D01*
X0241930Y0134012D02*
X0251233Y0134012D01*
X0249911Y0135585D02*
X0240357Y0135585D01*
X0238784Y0137158D02*
X0248338Y0137158D01*
X0246765Y0138732D02*
X0237210Y0138732D01*
X0235637Y0140305D02*
X0245192Y0140305D01*
X0243618Y0141878D02*
X0234064Y0141878D01*
X0232490Y0143452D02*
X0242045Y0143452D01*
X0240472Y0145025D02*
X0230917Y0145025D01*
X0229344Y0146598D02*
X0238898Y0146598D01*
X0237325Y0148172D02*
X0227770Y0148172D01*
X0226197Y0149745D02*
X0235752Y0149745D01*
X0234178Y0151318D02*
X0224624Y0151318D01*
X0223050Y0152892D02*
X0232605Y0152892D01*
X0231032Y0154465D02*
X0221477Y0154465D01*
X0219904Y0156038D02*
X0229458Y0156038D01*
X0227885Y0157612D02*
X0218330Y0157612D01*
X0216757Y0159185D02*
X0226312Y0159185D01*
X0224738Y0160758D02*
X0215184Y0160758D01*
X0213611Y0162331D02*
X0223165Y0162331D01*
X0221592Y0163905D02*
X0212037Y0163905D01*
X0249809Y0187504D02*
X0133687Y0187504D01*
X0132114Y0185931D02*
X0329259Y0185931D01*
X0330832Y0184358D02*
X0130541Y0184358D01*
X0128968Y0182785D02*
X0332406Y0182785D01*
X0333979Y0181211D02*
X0127394Y0181211D01*
X0125821Y0179638D02*
X0335552Y0179638D01*
X0337126Y0178065D02*
X0124248Y0178065D01*
X0122674Y0176491D02*
X0338699Y0176491D01*
X0340272Y0174918D02*
X0121101Y0174918D01*
X0117442Y0157612D02*
X0117238Y0157612D01*
X0135261Y0189078D02*
X0248235Y0189078D01*
X0246662Y0190651D02*
X0136834Y0190651D01*
X0138407Y0192224D02*
X0245089Y0192224D01*
X0243515Y0193798D02*
X0139981Y0193798D01*
X0141554Y0195371D02*
X0241942Y0195371D01*
X0240369Y0196944D02*
X0141616Y0196944D01*
X0141616Y0198518D02*
X0238795Y0198518D01*
X0237222Y0200091D02*
X0141616Y0200091D01*
X0141616Y0201664D02*
X0235649Y0201664D01*
X0234075Y0203238D02*
X0141616Y0203238D01*
X0054068Y0222117D02*
X0040049Y0222117D01*
X0041091Y0220544D02*
X0052494Y0220544D01*
X0050921Y0218971D02*
X0041301Y0218971D01*
X0040841Y0217397D02*
X0049348Y0217397D01*
X0040197Y0203238D02*
X0039834Y0203238D01*
X0098560Y0094679D02*
X0098989Y0094679D01*
X0100026Y0093106D02*
X0097754Y0093106D01*
X0095945Y0091532D02*
X0102392Y0091532D01*
X0145465Y0052199D02*
X0018584Y0052199D01*
X0018584Y0028600D02*
X0022833Y0028600D01*
X0020361Y0027026D02*
X0018584Y0027026D01*
X0018584Y0025453D02*
X0018788Y0025453D01*
X0034789Y0028600D02*
X0201254Y0028600D01*
X0201289Y0028580D02*
X0201693Y0028472D01*
X0213063Y0028472D01*
X0213063Y0041220D01*
X0200314Y0041220D01*
X0200314Y0029850D01*
X0200422Y0029446D01*
X0200631Y0029084D01*
X0200927Y0028789D01*
X0201289Y0028580D01*
X0200314Y0030173D02*
X0177974Y0030173D01*
X0177974Y0031746D02*
X0200314Y0031746D01*
X0200314Y0033320D02*
X0177974Y0033320D01*
X0177974Y0034893D02*
X0200314Y0034893D01*
X0200314Y0036466D02*
X0177974Y0036466D01*
X0177974Y0038040D02*
X0200314Y0038040D01*
X0200314Y0039613D02*
X0177974Y0039613D01*
X0177974Y0041186D02*
X0200314Y0041186D01*
X0213063Y0041186D02*
X0214638Y0041186D01*
X0214638Y0039613D02*
X0213063Y0039613D01*
X0213063Y0038040D02*
X0214638Y0038040D01*
X0214638Y0036466D02*
X0213063Y0036466D01*
X0213063Y0034893D02*
X0214638Y0034893D01*
X0214638Y0033320D02*
X0213063Y0033320D01*
X0213063Y0031746D02*
X0214638Y0031746D01*
X0214638Y0030173D02*
X0213063Y0030173D01*
X0213063Y0028600D02*
X0214638Y0028600D01*
X0226446Y0028600D02*
X0297238Y0028600D01*
X0298811Y0030173D02*
X0276399Y0030173D01*
X0276399Y0029484D02*
X0275586Y0028672D01*
X0250539Y0028672D01*
X0249727Y0029484D01*
X0249727Y0054531D01*
X0250539Y0055344D01*
X0275586Y0055344D01*
X0276399Y0054531D01*
X0276399Y0029484D01*
X0276399Y0031746D02*
X0300385Y0031746D01*
X0301958Y0033320D02*
X0276399Y0033320D01*
X0276399Y0034893D02*
X0289871Y0034893D01*
X0289419Y0036466D02*
X0276399Y0036466D01*
X0276399Y0038040D02*
X0289829Y0038040D01*
X0287070Y0039613D02*
X0276399Y0039613D01*
X0276399Y0041186D02*
X0285497Y0041186D01*
X0285494Y0042760D02*
X0276399Y0042760D01*
X0276399Y0044333D02*
X0285494Y0044333D01*
X0285494Y0045906D02*
X0276399Y0045906D01*
X0276399Y0047479D02*
X0285494Y0047479D01*
X0286208Y0049053D02*
X0276399Y0049053D01*
X0276399Y0050626D02*
X0287782Y0050626D01*
X0289355Y0052199D02*
X0276399Y0052199D01*
X0276399Y0053773D02*
X0289823Y0053773D01*
X0294570Y0053773D02*
X0298802Y0053773D01*
X0297229Y0052199D02*
X0294975Y0052199D01*
X0294507Y0050626D02*
X0295656Y0050626D01*
X0294082Y0049053D02*
X0291803Y0049053D01*
X0292509Y0047479D02*
X0290229Y0047479D01*
X0289826Y0045906D02*
X0289450Y0045906D01*
X0286960Y0039723D02*
X0286960Y0039723D01*
X0294522Y0034893D02*
X0303531Y0034893D01*
X0305105Y0036466D02*
X0298114Y0036466D01*
X0299687Y0038040D02*
X0306678Y0038040D01*
X0308251Y0039613D02*
X0301261Y0039613D01*
X0302834Y0041186D02*
X0309824Y0041186D01*
X0311398Y0042760D02*
X0304407Y0042760D01*
X0305980Y0044333D02*
X0312971Y0044333D01*
X0314544Y0045906D02*
X0307554Y0045906D01*
X0309127Y0047479D02*
X0316118Y0047479D01*
X0317691Y0049053D02*
X0310700Y0049053D01*
X0312274Y0050626D02*
X0319264Y0050626D01*
X0320838Y0052199D02*
X0313847Y0052199D01*
X0315420Y0053773D02*
X0322411Y0053773D01*
X0323984Y0055346D02*
X0316994Y0055346D01*
X0318567Y0056919D02*
X0325558Y0056919D01*
X0327131Y0058493D02*
X0320140Y0058493D01*
X0321714Y0060066D02*
X0328704Y0060066D01*
X0330278Y0061639D02*
X0323287Y0061639D01*
X0324860Y0063213D02*
X0331851Y0063213D01*
X0333424Y0064786D02*
X0326434Y0064786D01*
X0328007Y0066359D02*
X0334997Y0066359D01*
X0336571Y0067933D02*
X0329580Y0067933D01*
X0331154Y0069506D02*
X0338144Y0069506D01*
X0339717Y0071079D02*
X0332727Y0071079D01*
X0334300Y0072653D02*
X0341291Y0072653D01*
X0342864Y0074226D02*
X0335873Y0074226D01*
X0337088Y0075799D02*
X0344437Y0075799D01*
X0346011Y0077372D02*
X0337088Y0077372D01*
X0337088Y0078946D02*
X0347584Y0078946D01*
X0347690Y0079052D02*
X0292164Y0023526D01*
X0291644Y0023526D01*
X0290623Y0023103D01*
X0289842Y0022322D01*
X0289419Y0021301D01*
X0289419Y0020195D01*
X0289842Y0019174D01*
X0290623Y0018393D01*
X0291644Y0017970D01*
X0292749Y0017970D01*
X0293770Y0018393D01*
X0294552Y0019174D01*
X0294975Y0020195D01*
X0294975Y0020715D01*
X0350500Y0076241D01*
X0351665Y0077405D01*
X0351665Y0090067D01*
X0352032Y0090434D01*
X0352455Y0091455D01*
X0352455Y0092560D01*
X0352032Y0093581D01*
X0351251Y0094363D01*
X0350230Y0094786D01*
X0349125Y0094786D01*
X0348104Y0094363D01*
X0347322Y0093581D01*
X0346899Y0092560D01*
X0346899Y0091455D01*
X0347322Y0090434D01*
X0347690Y0090067D01*
X0347690Y0079052D01*
X0347690Y0080519D02*
X0337088Y0080519D01*
X0337088Y0082092D02*
X0347690Y0082092D01*
X0347690Y0083666D02*
X0337088Y0083666D01*
X0337088Y0085239D02*
X0347690Y0085239D01*
X0347690Y0086812D02*
X0337088Y0086812D01*
X0337088Y0088386D02*
X0347690Y0088386D01*
X0347690Y0089959D02*
X0337088Y0089959D01*
X0337088Y0091532D02*
X0346899Y0091532D01*
X0347125Y0093106D02*
X0337088Y0093106D01*
X0337088Y0094679D02*
X0348867Y0094679D01*
X0350488Y0094679D02*
X0387897Y0094679D01*
X0387969Y0093106D02*
X0352229Y0093106D01*
X0352455Y0091532D02*
X0388621Y0091532D01*
X0390149Y0089959D02*
X0351665Y0089959D01*
X0351665Y0088386D02*
X0389884Y0088386D01*
X0388522Y0086812D02*
X0351665Y0086812D01*
X0351665Y0085239D02*
X0387897Y0085239D01*
X0387897Y0083666D02*
X0351665Y0083666D01*
X0351665Y0082092D02*
X0388388Y0082092D01*
X0389562Y0080519D02*
X0351665Y0080519D01*
X0351665Y0078946D02*
X0409117Y0078946D01*
X0409117Y0080519D02*
X0406690Y0080519D01*
X0406429Y0080258D02*
X0407017Y0080847D01*
X0407506Y0081520D01*
X0407884Y0082262D01*
X0408141Y0083053D01*
X0408272Y0083875D01*
X0408272Y0084079D01*
X0403197Y0084079D01*
X0403197Y0079004D01*
X0403400Y0079004D01*
X0404222Y0079134D01*
X0405014Y0079391D01*
X0405755Y0079769D01*
X0406429Y0080258D01*
X0407798Y0082092D02*
X0409117Y0082092D01*
X0409117Y0083666D02*
X0408238Y0083666D01*
X0408187Y0085239D02*
X0409117Y0085239D01*
X0409117Y0086812D02*
X0407634Y0086812D01*
X0406344Y0088386D02*
X0409117Y0088386D01*
X0409117Y0089959D02*
X0406017Y0089959D01*
X0407513Y0091532D02*
X0409117Y0091532D01*
X0409117Y0093106D02*
X0408150Y0093106D01*
X0408272Y0094679D02*
X0409117Y0094679D01*
X0409117Y0096252D02*
X0407907Y0096252D01*
X0406928Y0097826D02*
X0409117Y0097826D01*
X0409117Y0099399D02*
X0405029Y0099399D01*
X0403197Y0099399D02*
X0402772Y0099399D01*
X0402772Y0099579D02*
X0402772Y0094504D01*
X0403197Y0094504D01*
X0403197Y0104079D01*
X0402772Y0104079D01*
X0402772Y0099579D01*
X0402772Y0100972D02*
X0403197Y0100972D01*
X0403197Y0102545D02*
X0402772Y0102545D01*
X0403197Y0104119D02*
X0409117Y0104119D01*
X0409117Y0105692D02*
X0408089Y0105692D01*
X0407359Y0107265D02*
X0409117Y0107265D01*
X0409117Y0108839D02*
X0405706Y0108839D01*
X0406582Y0110412D02*
X0409117Y0110412D01*
X0409117Y0111985D02*
X0407743Y0111985D01*
X0408222Y0113559D02*
X0409117Y0113559D01*
X0409117Y0115132D02*
X0408204Y0115132D01*
X0407688Y0116705D02*
X0409117Y0116705D01*
X0409117Y0118279D02*
X0406474Y0118279D01*
X0405869Y0119852D02*
X0409117Y0119852D01*
X0409117Y0121425D02*
X0407438Y0121425D01*
X0408124Y0122999D02*
X0409117Y0122999D01*
X0409117Y0124572D02*
X0408272Y0124572D01*
X0407941Y0126145D02*
X0409117Y0126145D01*
X0409117Y0127719D02*
X0407030Y0127719D01*
X0403197Y0127719D02*
X0402772Y0127719D01*
X0402772Y0126145D02*
X0403197Y0126145D01*
X0403197Y0124572D02*
X0402772Y0124572D01*
X0402772Y0124079D02*
X0403197Y0124079D01*
X0403197Y0114504D01*
X0402772Y0114504D01*
X0402772Y0119579D01*
X0402772Y0124079D01*
X0402772Y0122999D02*
X0403197Y0122999D01*
X0403197Y0121425D02*
X0402772Y0121425D01*
X0402772Y0119852D02*
X0403197Y0119852D01*
X0403197Y0118279D02*
X0402772Y0118279D01*
X0402772Y0116705D02*
X0403197Y0116705D01*
X0403197Y0115132D02*
X0402772Y0115132D01*
X0402772Y0114079D02*
X0403197Y0114079D01*
X0403197Y0104504D01*
X0402772Y0104504D01*
X0402772Y0109579D01*
X0402772Y0114079D01*
X0402772Y0113559D02*
X0403197Y0113559D01*
X0403197Y0111985D02*
X0402772Y0111985D01*
X0402772Y0110412D02*
X0403197Y0110412D01*
X0403197Y0108839D02*
X0402772Y0108839D01*
X0402772Y0107265D02*
X0403197Y0107265D01*
X0403197Y0105692D02*
X0402772Y0105692D01*
X0407976Y0102545D02*
X0409117Y0102545D01*
X0409117Y0100972D02*
X0407108Y0100972D01*
X0403197Y0097826D02*
X0402772Y0097826D01*
X0402772Y0096252D02*
X0403197Y0096252D01*
X0403197Y0094679D02*
X0402772Y0094679D01*
X0402772Y0094079D02*
X0403197Y0094079D01*
X0403197Y0084504D01*
X0402772Y0084504D01*
X0402772Y0089579D01*
X0402772Y0094079D01*
X0402772Y0093106D02*
X0403197Y0093106D01*
X0403197Y0091532D02*
X0402772Y0091532D01*
X0402772Y0089959D02*
X0403197Y0089959D01*
X0403197Y0088386D02*
X0402772Y0088386D01*
X0402772Y0086812D02*
X0403197Y0086812D01*
X0403197Y0085239D02*
X0402772Y0085239D01*
X0402772Y0083666D02*
X0403197Y0083666D01*
X0403197Y0082092D02*
X0402772Y0082092D01*
X0402772Y0080519D02*
X0403197Y0080519D01*
X0399279Y0080519D02*
X0396407Y0080519D01*
X0397580Y0082092D02*
X0398170Y0082092D01*
X0409117Y0077372D02*
X0351632Y0077372D01*
X0350059Y0075799D02*
X0409117Y0075799D01*
X0409117Y0074226D02*
X0348485Y0074226D01*
X0346912Y0072653D02*
X0374702Y0072653D01*
X0374837Y0072709D02*
X0374009Y0072366D01*
X0373233Y0071917D01*
X0372522Y0071372D01*
X0371888Y0070738D01*
X0371342Y0070027D01*
X0370894Y0069251D01*
X0370551Y0068423D01*
X0370319Y0067557D01*
X0370247Y0067007D01*
X0376252Y0067007D01*
X0376252Y0065433D01*
X0370247Y0065433D01*
X0370319Y0064883D01*
X0370551Y0064018D01*
X0370894Y0063189D01*
X0371342Y0062413D01*
X0371888Y0061702D01*
X0372522Y0061068D01*
X0373233Y0060523D01*
X0374009Y0060075D01*
X0374837Y0059732D01*
X0375703Y0059500D01*
X0376252Y0059427D01*
X0376252Y0065433D01*
X0377827Y0065433D01*
X0377827Y0067007D01*
X0383832Y0067007D01*
X0383760Y0067557D01*
X0383528Y0068423D01*
X0383185Y0069251D01*
X0382737Y0070027D01*
X0382191Y0070738D01*
X0381558Y0071372D01*
X0380847Y0071917D01*
X0380070Y0072366D01*
X0379242Y0072709D01*
X0378377Y0072940D01*
X0377827Y0073013D01*
X0377827Y0067008D01*
X0376252Y0067008D01*
X0376252Y0073013D01*
X0375703Y0072940D01*
X0374837Y0072709D01*
X0376252Y0072653D02*
X0377827Y0072653D01*
X0379377Y0072653D02*
X0394780Y0072653D01*
X0394915Y0072709D02*
X0394087Y0072366D01*
X0393311Y0071917D01*
X0392600Y0071372D01*
X0391966Y0070738D01*
X0391420Y0070027D01*
X0390972Y0069251D01*
X0390629Y0068423D01*
X0390397Y0067557D01*
X0390325Y0067007D01*
X0396330Y0067007D01*
X0396330Y0065433D01*
X0390325Y0065433D01*
X0390397Y0064883D01*
X0390629Y0064018D01*
X0390972Y0063189D01*
X0391420Y0062413D01*
X0391966Y0061702D01*
X0392600Y0061068D01*
X0393311Y0060523D01*
X0394087Y0060075D01*
X0394915Y0059732D01*
X0395781Y0059500D01*
X0396330Y0059427D01*
X0396330Y0065433D01*
X0397905Y0065433D01*
X0397905Y0067007D01*
X0403910Y0067007D01*
X0403838Y0067557D01*
X0403606Y0068423D01*
X0403263Y0069251D01*
X0402815Y0070027D01*
X0402269Y0070738D01*
X0401636Y0071372D01*
X0400925Y0071917D01*
X0400148Y0072366D01*
X0399320Y0072709D01*
X0398454Y0072940D01*
X0397905Y0073013D01*
X0397905Y0067008D01*
X0396330Y0067008D01*
X0396330Y0073013D01*
X0395781Y0072940D01*
X0394915Y0072709D01*
X0396330Y0072653D02*
X0397905Y0072653D01*
X0399455Y0072653D02*
X0409117Y0072653D01*
X0409117Y0071079D02*
X0401928Y0071079D01*
X0403116Y0069506D02*
X0409117Y0069506D01*
X0409117Y0067933D02*
X0403737Y0067933D01*
X0403910Y0065433D02*
X0397905Y0065433D01*
X0397905Y0059427D01*
X0398454Y0059500D01*
X0399320Y0059732D01*
X0400148Y0060075D01*
X0400925Y0060523D01*
X0401636Y0061068D01*
X0402269Y0061702D01*
X0402815Y0062413D01*
X0403263Y0063189D01*
X0403606Y0064018D01*
X0403838Y0064883D01*
X0403910Y0065433D01*
X0403812Y0064786D02*
X0409117Y0064786D01*
X0409117Y0066359D02*
X0397905Y0066359D01*
X0397905Y0064786D02*
X0396330Y0064786D01*
X0396330Y0066359D02*
X0377827Y0066359D01*
X0377827Y0065433D02*
X0383832Y0065433D01*
X0383760Y0064883D01*
X0383528Y0064018D01*
X0383185Y0063189D01*
X0382737Y0062413D01*
X0382191Y0061702D01*
X0381558Y0061068D01*
X0380847Y0060523D01*
X0380070Y0060075D01*
X0379242Y0059732D01*
X0378377Y0059500D01*
X0377827Y0059427D01*
X0377827Y0065433D01*
X0377827Y0064786D02*
X0376252Y0064786D01*
X0376252Y0066359D02*
X0340619Y0066359D01*
X0342192Y0067933D02*
X0370420Y0067933D01*
X0371042Y0069506D02*
X0343765Y0069506D01*
X0345339Y0071079D02*
X0372229Y0071079D01*
X0376252Y0071079D02*
X0377827Y0071079D01*
X0377827Y0069506D02*
X0376252Y0069506D01*
X0376252Y0067933D02*
X0377827Y0067933D01*
X0377827Y0063213D02*
X0376252Y0063213D01*
X0376252Y0061639D02*
X0377827Y0061639D01*
X0377827Y0060066D02*
X0376252Y0060066D01*
X0374030Y0060066D02*
X0334325Y0060066D01*
X0332752Y0058493D02*
X0382476Y0058493D01*
X0382723Y0059091D02*
X0381941Y0057203D01*
X0381941Y0055159D01*
X0382723Y0053271D01*
X0384169Y0051826D01*
X0386057Y0051044D01*
X0388101Y0051044D01*
X0389989Y0051826D01*
X0391434Y0053271D01*
X0392216Y0055159D01*
X0392216Y0057203D01*
X0391434Y0059091D01*
X0389989Y0060536D01*
X0388101Y0061318D01*
X0386057Y0061318D01*
X0384169Y0060536D01*
X0382723Y0059091D01*
X0383698Y0060066D02*
X0380049Y0060066D01*
X0382129Y0061639D02*
X0392029Y0061639D01*
X0390963Y0063213D02*
X0383195Y0063213D01*
X0383734Y0064786D02*
X0390423Y0064786D01*
X0390498Y0067933D02*
X0383659Y0067933D01*
X0383038Y0069506D02*
X0391120Y0069506D01*
X0392307Y0071079D02*
X0381850Y0071079D01*
X0370345Y0064786D02*
X0339045Y0064786D01*
X0337472Y0063213D02*
X0370885Y0063213D01*
X0371951Y0061639D02*
X0335899Y0061639D01*
X0331179Y0056919D02*
X0381941Y0056919D01*
X0381941Y0055346D02*
X0329605Y0055346D01*
X0328032Y0053773D02*
X0382516Y0053773D01*
X0383795Y0052199D02*
X0380223Y0052199D01*
X0380070Y0052288D02*
X0379242Y0052631D01*
X0378377Y0052863D01*
X0377827Y0052935D01*
X0377827Y0046930D01*
X0376252Y0046930D01*
X0376252Y0052935D01*
X0375703Y0052863D01*
X0374837Y0052631D01*
X0374009Y0052288D01*
X0373233Y0051839D01*
X0372522Y0051294D01*
X0371888Y0050660D01*
X0371342Y0049949D01*
X0370894Y0049173D01*
X0370551Y0048345D01*
X0370319Y0047479D01*
X0370247Y0046930D01*
X0376252Y0046930D01*
X0376252Y0045355D01*
X0370247Y0045355D01*
X0370319Y0044805D01*
X0370551Y0043940D01*
X0370894Y0043112D01*
X0371342Y0042335D01*
X0371888Y0041624D01*
X0372522Y0040990D01*
X0373233Y0040445D01*
X0374009Y0039997D01*
X0374837Y0039654D01*
X0375703Y0039422D01*
X0376252Y0039349D01*
X0376252Y0045355D01*
X0377827Y0045355D01*
X0377827Y0046930D01*
X0383832Y0046930D01*
X0383760Y0047479D01*
X0383528Y0048345D01*
X0383185Y0049173D01*
X0382737Y0049949D01*
X0382191Y0050660D01*
X0381558Y0051294D01*
X0380847Y0051839D01*
X0380070Y0052288D01*
X0377827Y0052199D02*
X0376252Y0052199D01*
X0376252Y0050626D02*
X0377827Y0050626D01*
X0377827Y0049053D02*
X0376252Y0049053D01*
X0376252Y0047479D02*
X0377827Y0047479D01*
X0377827Y0045906D02*
X0396330Y0045906D01*
X0396330Y0045355D02*
X0390325Y0045355D01*
X0390397Y0044805D01*
X0390629Y0043940D01*
X0390972Y0043112D01*
X0391420Y0042335D01*
X0391966Y0041624D01*
X0392600Y0040990D01*
X0393311Y0040445D01*
X0394087Y0039997D01*
X0394915Y0039654D01*
X0395781Y0039422D01*
X0396330Y0039349D01*
X0396330Y0045355D01*
X0396330Y0046930D01*
X0396330Y0052935D01*
X0395781Y0052863D01*
X0394915Y0052631D01*
X0394087Y0052288D01*
X0393311Y0051839D01*
X0392600Y0051294D01*
X0391966Y0050660D01*
X0391420Y0049949D01*
X0390972Y0049173D01*
X0390629Y0048345D01*
X0390397Y0047479D01*
X0390325Y0046930D01*
X0396330Y0046930D01*
X0397905Y0046930D01*
X0397905Y0052935D01*
X0398454Y0052863D01*
X0399320Y0052631D01*
X0400148Y0052288D01*
X0400925Y0051839D01*
X0401636Y0051294D01*
X0402269Y0050660D01*
X0402815Y0049949D01*
X0403263Y0049173D01*
X0403606Y0048345D01*
X0403838Y0047479D01*
X0403910Y0046930D01*
X0397905Y0046930D01*
X0397905Y0045355D01*
X0403910Y0045355D01*
X0403838Y0044805D01*
X0403606Y0043940D01*
X0403263Y0043112D01*
X0402815Y0042335D01*
X0402269Y0041624D01*
X0401636Y0040990D01*
X0400925Y0040445D01*
X0400148Y0039997D01*
X0399320Y0039654D01*
X0398454Y0039422D01*
X0397905Y0039349D01*
X0397905Y0045355D01*
X0396330Y0045355D01*
X0396330Y0044333D02*
X0397905Y0044333D01*
X0397905Y0045906D02*
X0409117Y0045906D01*
X0409117Y0044333D02*
X0403712Y0044333D01*
X0403060Y0042760D02*
X0409117Y0042760D01*
X0409117Y0041186D02*
X0401831Y0041186D01*
X0399168Y0039613D02*
X0409117Y0039613D01*
X0409117Y0038040D02*
X0312299Y0038040D01*
X0313872Y0039613D02*
X0374989Y0039613D01*
X0376252Y0039613D02*
X0377827Y0039613D01*
X0377827Y0039349D02*
X0378377Y0039422D01*
X0379242Y0039654D01*
X0380070Y0039997D01*
X0380847Y0040445D01*
X0381558Y0040990D01*
X0382191Y0041624D01*
X0382737Y0042335D01*
X0383185Y0043112D01*
X0383528Y0043940D01*
X0383760Y0044805D01*
X0383832Y0045355D01*
X0377827Y0045355D01*
X0377827Y0039349D01*
X0379090Y0039613D02*
X0395067Y0039613D01*
X0396330Y0039613D02*
X0397905Y0039613D01*
X0397905Y0041186D02*
X0396330Y0041186D01*
X0396330Y0042760D02*
X0397905Y0042760D01*
X0397905Y0047479D02*
X0396330Y0047479D01*
X0396330Y0049053D02*
X0397905Y0049053D01*
X0397905Y0050626D02*
X0396330Y0050626D01*
X0396330Y0052199D02*
X0397905Y0052199D01*
X0400301Y0052199D02*
X0409117Y0052199D01*
X0409117Y0050626D02*
X0402295Y0050626D01*
X0403313Y0049053D02*
X0409117Y0049053D01*
X0409117Y0047479D02*
X0403838Y0047479D01*
X0409117Y0053773D02*
X0391642Y0053773D01*
X0392216Y0055346D02*
X0409117Y0055346D01*
X0409117Y0056919D02*
X0392216Y0056919D01*
X0391682Y0058493D02*
X0409117Y0058493D01*
X0409117Y0060066D02*
X0400127Y0060066D01*
X0397905Y0060066D02*
X0396330Y0060066D01*
X0396330Y0061639D02*
X0397905Y0061639D01*
X0397905Y0063213D02*
X0396330Y0063213D01*
X0396330Y0067933D02*
X0397905Y0067933D01*
X0397905Y0069506D02*
X0396330Y0069506D01*
X0396330Y0071079D02*
X0397905Y0071079D01*
X0403273Y0063213D02*
X0409117Y0063213D01*
X0409117Y0061639D02*
X0402206Y0061639D01*
X0394108Y0060066D02*
X0390459Y0060066D01*
X0390362Y0052199D02*
X0393934Y0052199D01*
X0391940Y0050626D02*
X0382217Y0050626D01*
X0383235Y0049053D02*
X0390923Y0049053D01*
X0390397Y0047479D02*
X0383760Y0047479D01*
X0383634Y0044333D02*
X0390524Y0044333D01*
X0391175Y0042760D02*
X0382982Y0042760D01*
X0381753Y0041186D02*
X0392404Y0041186D01*
X0377827Y0041186D02*
X0376252Y0041186D01*
X0376252Y0042760D02*
X0377827Y0042760D01*
X0377827Y0044333D02*
X0376252Y0044333D01*
X0376252Y0045906D02*
X0320166Y0045906D01*
X0321739Y0047479D02*
X0370320Y0047479D01*
X0370845Y0049053D02*
X0323312Y0049053D01*
X0324886Y0050626D02*
X0371862Y0050626D01*
X0373857Y0052199D02*
X0326459Y0052199D01*
X0318592Y0044333D02*
X0370446Y0044333D01*
X0371098Y0042760D02*
X0317019Y0042760D01*
X0315446Y0041186D02*
X0372326Y0041186D01*
X0390440Y0027026D02*
X0301286Y0027026D01*
X0299713Y0025453D02*
X0388866Y0025453D01*
X0387731Y0023880D02*
X0298139Y0023880D01*
X0296566Y0022306D02*
X0386822Y0022306D01*
X0386277Y0020733D02*
X0294993Y0020733D01*
X0294537Y0019160D02*
X0385855Y0019160D01*
X0385691Y0017587D02*
X0042009Y0017587D01*
X0042009Y0016013D02*
X0385691Y0016013D01*
X0385861Y0014440D02*
X0041840Y0014440D01*
X0041418Y0012867D02*
X0386283Y0012867D01*
X0386835Y0011293D02*
X0040866Y0011293D01*
X0039957Y0009720D02*
X0387744Y0009720D01*
X0388889Y0008147D02*
X0038812Y0008147D01*
X0041846Y0019160D02*
X0289856Y0019160D01*
X0289419Y0020733D02*
X0041424Y0020733D01*
X0040878Y0022306D02*
X0289836Y0022306D01*
X0292518Y0023880D02*
X0039970Y0023880D01*
X0038834Y0025453D02*
X0294091Y0025453D01*
X0295665Y0027026D02*
X0037261Y0027026D01*
X0158732Y0042008D02*
X0164638Y0042008D01*
X0214638Y0042760D02*
X0249727Y0042760D01*
X0249727Y0044333D02*
X0227387Y0044333D01*
X0227387Y0045906D02*
X0249727Y0045906D01*
X0249727Y0047479D02*
X0227387Y0047479D01*
X0227387Y0049053D02*
X0249727Y0049053D01*
X0249727Y0050626D02*
X0227387Y0050626D01*
X0227387Y0052199D02*
X0249727Y0052199D01*
X0249727Y0053773D02*
X0227387Y0053773D01*
X0226568Y0055346D02*
X0300376Y0055346D01*
X0310726Y0036466D02*
X0409117Y0036466D01*
X0409117Y0034893D02*
X0309152Y0034893D01*
X0307579Y0033320D02*
X0409117Y0033320D01*
X0409117Y0031746D02*
X0306006Y0031746D01*
X0304432Y0030173D02*
X0409117Y0030173D01*
X0409117Y0028600D02*
X0404868Y0028600D01*
X0407340Y0027026D02*
X0409117Y0027026D01*
X0409117Y0025453D02*
X0408913Y0025453D01*
X0392912Y0028600D02*
X0302859Y0028600D01*
X0249727Y0030173D02*
X0227387Y0030173D01*
X0227387Y0031746D02*
X0249727Y0031746D01*
X0249727Y0033320D02*
X0227387Y0033320D01*
X0227387Y0034893D02*
X0249727Y0034893D01*
X0249727Y0036466D02*
X0227387Y0036466D01*
X0227387Y0038040D02*
X0249727Y0038040D01*
X0249727Y0039613D02*
X0227387Y0039613D01*
X0227387Y0041186D02*
X0249727Y0041186D01*
X0337088Y0096252D02*
X0388290Y0096252D01*
X0389324Y0097826D02*
X0337088Y0097826D01*
X0337088Y0099399D02*
X0391502Y0099399D01*
X0389109Y0100972D02*
X0337088Y0100972D01*
X0337088Y0102545D02*
X0388201Y0102545D01*
X0387897Y0104119D02*
X0337088Y0104119D01*
X0337088Y0105692D02*
X0388058Y0105692D01*
X0388764Y0107265D02*
X0337088Y0107265D01*
X0337088Y0108839D02*
X0390669Y0108839D01*
X0389669Y0110412D02*
X0337088Y0110412D01*
X0337088Y0111985D02*
X0388433Y0111985D01*
X0394290Y0189078D02*
X0394502Y0189078D01*
X0251146Y0126145D02*
X0245558Y0126145D01*
X0246178Y0124572D02*
X0250443Y0124572D01*
X0250749Y0122999D02*
X0245888Y0122999D01*
D23*
X0128811Y0198701D02*
X0128811Y0220433D01*
X0128850Y0220472D01*
X0128850Y0230472D01*
X0130001Y0231623D01*
X0130001Y0234138D01*
X0141808Y0245945D01*
X0358447Y0245945D01*
X0383142Y0221250D01*
X0128811Y0198701D02*
X0104402Y0174291D01*
X0104402Y0151457D01*
X0104402Y0109724D01*
X0104402Y0097126D01*
X0092984Y0096732D02*
X0092984Y0109331D01*
X0092984Y0176260D01*
X0118575Y0201850D01*
X0118575Y0220197D01*
X0118850Y0220472D01*
X0108850Y0220472D02*
X0108732Y0220354D01*
X0108732Y0205000D01*
X0081567Y0177835D01*
X0081567Y0130984D01*
X0068477Y0117894D01*
X0060638Y0117894D01*
X0048890Y0128228D02*
X0048890Y0095945D01*
X0053220Y0091614D01*
X0065031Y0079803D01*
X0059331Y0063631D02*
X0058756Y0063631D01*
X0036154Y0086233D01*
X0036154Y0142265D01*
X0046134Y0152244D01*
X0046134Y0205787D01*
X0060307Y0219961D01*
X0088339Y0219961D01*
X0088850Y0220472D01*
X0098850Y0220472D02*
X0098850Y0215591D01*
X0094953Y0211693D01*
X0092586Y0211693D01*
X0092516Y0211623D01*
X0071654Y0211623D01*
X0057157Y0197126D01*
X0057157Y0185713D01*
X0057157Y0136496D01*
X0048890Y0128228D01*
D24*
X0112276Y0114449D02*
X0112276Y0173186D01*
X0135161Y0196071D01*
X0135161Y0208200D01*
X0147433Y0220472D01*
X0148850Y0220472D01*
X0362669Y0129409D02*
X0377630Y0129409D01*
X0383142Y0217598D02*
X0383142Y0221250D01*
D25*
X0381961Y0211693D02*
X0398890Y0194764D01*
X0398890Y0192008D01*
X0391016Y0192008D02*
X0391016Y0193976D01*
X0376843Y0208150D01*
X0270150Y0208150D01*
X0263850Y0214449D01*
X0263850Y0225472D01*
X0268850Y0230472D01*
X0268850Y0220472D02*
X0268850Y0214785D01*
X0271942Y0211693D01*
X0381961Y0211693D01*
X0352669Y0204606D02*
X0268181Y0204606D01*
X0258850Y0213937D01*
X0258850Y0220472D01*
X0258732Y0220354D01*
X0258732Y0216811D01*
X0248850Y0219213D02*
X0248850Y0220472D01*
X0248850Y0219213D02*
X0267000Y0201063D01*
X0346134Y0201063D01*
X0354351Y0192846D01*
X0354027Y0193170D01*
X0354351Y0192846D02*
X0360307Y0186890D01*
X0360386Y0186890D01*
X0392984Y0154291D01*
X0392984Y0144291D02*
X0340543Y0196732D01*
X0263063Y0196732D01*
X0239323Y0220472D01*
X0238850Y0220472D01*
X0233960Y0223867D02*
X0233960Y0215993D01*
X0257157Y0192795D01*
X0333929Y0192795D01*
X0338422Y0188302D01*
X0338317Y0188408D01*
X0338422Y0188302D02*
X0392433Y0134291D01*
X0392984Y0134291D01*
X0382710Y0135277D02*
X0382710Y0124565D01*
X0392984Y0114291D01*
X0382710Y0135277D02*
X0329917Y0188071D01*
X0252039Y0188071D01*
X0223693Y0216417D01*
X0223693Y0218399D01*
X0223741Y0218447D01*
X0223741Y0233394D01*
X0226843Y0236496D01*
X0242591Y0236496D01*
X0248614Y0230472D01*
X0248850Y0230472D01*
X0238850Y0230472D02*
X0233929Y0225551D01*
X0233929Y0223898D01*
X0233960Y0223867D01*
X0203741Y0225363D02*
X0203741Y0237017D01*
X0204402Y0237677D01*
X0203741Y0225363D02*
X0198850Y0220472D01*
X0207551Y0170354D02*
X0122512Y0170354D01*
X0057157Y0183740D02*
X0055583Y0182165D01*
X0057157Y0183740D02*
X0057157Y0185713D01*
X0213850Y0170354D02*
X0217940Y0170354D01*
X0253220Y0135073D01*
X0327630Y0131378D02*
X0327630Y0079803D01*
X0292197Y0044370D01*
X0293881Y0040542D02*
X0288938Y0040542D01*
X0287472Y0042008D01*
X0287472Y0047520D01*
X0292197Y0052244D01*
X0293881Y0040542D02*
X0331567Y0078228D01*
X0331567Y0127441D01*
X0335110Y0130984D01*
X0327630Y0131378D02*
X0335110Y0138858D01*
X0335110Y0123110D02*
X0335110Y0076260D01*
X0295740Y0036890D01*
X0292591Y0036890D01*
X0292197Y0036496D01*
X0392984Y0164291D02*
X0352669Y0204606D01*
X0392984Y0174291D02*
X0402984Y0174291D01*
D26*
X0328850Y0230472D02*
X0318921Y0240402D01*
X0195740Y0240402D01*
X0194197Y0238858D01*
X0192591Y0238858D01*
X0096528Y0204213D02*
X0068181Y0175866D01*
X0068181Y0142008D01*
D27*
X0207551Y0170354D02*
X0213850Y0170354D01*
X0253220Y0135073D02*
X0253220Y0124291D01*
X0349677Y0092008D02*
X0349677Y0078228D01*
X0292197Y0020748D01*
D28*
X0243200Y0124291D02*
X0242209Y0125282D01*
X0242209Y0130922D01*
X0210638Y0162493D01*
X0121331Y0162493D01*
X0120340Y0163483D01*
X0119362Y0163483D01*
X0121331Y0160893D02*
X0120340Y0159902D01*
X0119362Y0159902D01*
X0121331Y0160893D02*
X0209976Y0160893D01*
X0240609Y0130259D01*
X0240609Y0125282D01*
X0239619Y0124291D01*
D29*
X0398890Y0016811D03*
X0028811Y0016811D03*
X0028811Y0245157D03*
X0398890Y0245157D03*
M02*
