G75*
%MOIN*%
%OFA0B0*%
%FSLAX25Y25*%
%IPPOS*%
%LPD*%
%AMOC8*
5,1,8,0,0,1.08239X$1,22.5*
%
%ADD10C,0.01000*%
%ADD11C,0.00800*%
D10*
X0202259Y0175754D02*
X0202259Y0181359D01*
X0205061Y0178556D01*
X0201325Y0178556D01*
X0207166Y0176688D02*
X0207166Y0175754D01*
X0208100Y0175754D01*
X0208100Y0176688D01*
X0207166Y0176688D01*
X0210441Y0176688D02*
X0210441Y0180425D01*
X0214177Y0176688D01*
X0213243Y0175754D01*
X0211375Y0175754D01*
X0210441Y0176688D01*
X0214177Y0176688D02*
X0214177Y0180425D01*
X0213243Y0181359D01*
X0211375Y0181359D01*
X0210441Y0180425D01*
X0216282Y0176688D02*
X0216282Y0175754D01*
X0217216Y0175754D01*
X0217216Y0176688D01*
X0216282Y0176688D01*
X0219556Y0176688D02*
X0219556Y0180425D01*
X0223293Y0176688D01*
X0222359Y0175754D01*
X0220491Y0175754D01*
X0219556Y0176688D01*
X0219556Y0180425D02*
X0220491Y0181359D01*
X0222359Y0181359D01*
X0223293Y0180425D01*
X0223293Y0176688D01*
X0225634Y0179490D02*
X0227502Y0175754D01*
X0229370Y0179490D01*
X0229370Y0185654D02*
X0226568Y0185654D01*
X0225634Y0186588D01*
X0225634Y0190325D01*
X0226568Y0191259D01*
X0229370Y0191259D01*
X0229370Y0185654D01*
X0223293Y0185654D02*
X0219556Y0185654D01*
X0217216Y0187522D02*
X0215348Y0185654D01*
X0213479Y0187522D01*
X0213479Y0191259D01*
X0211139Y0191259D02*
X0208336Y0191259D01*
X0207402Y0190325D01*
X0207402Y0189390D01*
X0208336Y0188456D01*
X0211139Y0188456D01*
X0211139Y0185654D02*
X0208336Y0185654D01*
X0207402Y0186588D01*
X0207402Y0187522D01*
X0208336Y0188456D01*
X0205061Y0186588D02*
X0204127Y0185654D01*
X0202259Y0185654D01*
X0201325Y0186588D01*
X0201325Y0190325D01*
X0202259Y0191259D01*
X0204127Y0191259D01*
X0205061Y0190325D01*
X0205061Y0186588D01*
X0198984Y0185654D02*
X0198984Y0189390D01*
X0197116Y0191259D01*
X0195248Y0189390D01*
X0195248Y0185654D01*
X0192907Y0185654D02*
X0192907Y0191259D01*
X0190105Y0191259D01*
X0189170Y0190325D01*
X0189170Y0188456D01*
X0190105Y0187522D01*
X0192907Y0187522D01*
X0191039Y0187522D02*
X0189170Y0185654D01*
X0186830Y0185654D02*
X0184027Y0185654D01*
X0183093Y0186588D01*
X0183093Y0190325D01*
X0184027Y0191259D01*
X0186830Y0191259D01*
X0186830Y0185654D01*
X0195248Y0188456D02*
X0198984Y0188456D01*
X0211139Y0185654D02*
X0211139Y0191259D01*
X0217216Y0191259D02*
X0217216Y0187522D01*
X0221425Y0188456D02*
X0223293Y0188456D01*
X0223293Y0185654D02*
X0223293Y0191259D01*
X0219556Y0191259D01*
X0237788Y0190325D02*
X0237788Y0186588D01*
X0238722Y0185654D01*
X0240590Y0185654D01*
X0241525Y0186588D01*
X0237788Y0190325D01*
X0238722Y0191259D01*
X0240590Y0191259D01*
X0241525Y0190325D01*
X0241525Y0186588D01*
X0243865Y0185654D02*
X0247602Y0185654D01*
X0247602Y0191259D01*
X0243865Y0191259D01*
X0245733Y0188456D02*
X0247602Y0188456D01*
D11*
X0043425Y0087505D02*
X0043425Y0084703D01*
X0044826Y0086104D02*
X0042024Y0086104D01*
X0062322Y0123286D02*
X0062322Y0126088D01*
X0060921Y0124687D02*
X0063724Y0124687D01*
X0172512Y0059724D02*
X0172512Y0055394D01*
X0172512Y0059724D02*
X0199283Y0083622D01*
X0228417Y0083622D01*
X0255189Y0059724D01*
X0255189Y0055394D01*
X0255189Y0028622D02*
X0255189Y0017205D01*
X0255183Y0016917D01*
X0255170Y0016630D01*
X0255150Y0016343D01*
X0255123Y0016057D01*
X0255089Y0015771D01*
X0255049Y0015486D01*
X0255001Y0015203D01*
X0254946Y0014920D01*
X0254885Y0014640D01*
X0254817Y0014360D01*
X0254741Y0014083D01*
X0254660Y0013807D01*
X0254571Y0013533D01*
X0254476Y0013262D01*
X0254374Y0012993D01*
X0254266Y0012727D01*
X0254151Y0012463D01*
X0254030Y0012202D01*
X0253902Y0011944D01*
X0253768Y0011690D01*
X0253628Y0011439D01*
X0253482Y0011191D01*
X0253330Y0010947D01*
X0253172Y0010706D01*
X0253009Y0010470D01*
X0252839Y0010238D01*
X0252664Y0010010D01*
X0252483Y0009786D01*
X0252297Y0009566D01*
X0252106Y0009352D01*
X0251909Y0009142D01*
X0251708Y0008937D01*
X0251501Y0008737D01*
X0251290Y0008541D01*
X0251074Y0008352D01*
X0250853Y0008167D01*
X0250628Y0007988D01*
X0250399Y0007815D01*
X0250166Y0007647D01*
X0249928Y0007485D01*
X0249687Y0007328D01*
X0249442Y0007178D01*
X0249193Y0007034D01*
X0248941Y0006895D01*
X0248685Y0006763D01*
X0248426Y0006638D01*
X0248165Y0006518D01*
X0247900Y0006405D01*
X0247633Y0006299D01*
X0247364Y0006199D01*
X0247092Y0006105D01*
X0246817Y0006019D01*
X0246541Y0005939D01*
X0246263Y0005866D01*
X0245983Y0005799D01*
X0245702Y0005740D01*
X0245419Y0005687D01*
X0245135Y0005641D01*
X0244850Y0005602D01*
X0244565Y0005570D01*
X0244278Y0005546D01*
X0243991Y0005528D01*
X0243704Y0005517D01*
X0243416Y0005513D01*
X0243128Y0005516D01*
X0242841Y0005526D01*
X0242554Y0005544D01*
X0242267Y0005568D01*
X0241982Y0005599D01*
X0241697Y0005637D01*
X0241413Y0005682D01*
X0241130Y0005734D01*
X0240848Y0005793D01*
X0240568Y0005859D01*
X0240290Y0005931D01*
X0240013Y0006011D01*
X0239739Y0006097D01*
X0239467Y0006189D01*
X0239197Y0006289D01*
X0238930Y0006394D01*
X0238665Y0006507D01*
X0238403Y0006626D01*
X0238144Y0006751D01*
X0237888Y0006882D01*
X0237636Y0007020D01*
X0237387Y0007164D01*
X0237141Y0007313D01*
X0236899Y0007469D01*
X0236661Y0007631D01*
X0236428Y0007798D01*
X0236198Y0007971D01*
X0235972Y0008149D01*
X0235751Y0008333D01*
X0235535Y0008523D01*
X0235323Y0008717D01*
X0235116Y0008917D01*
X0234914Y0009122D01*
X0234717Y0009331D01*
X0234716Y0009331D02*
X0233982Y0009832D01*
X0233235Y0010315D01*
X0232478Y0010779D01*
X0231709Y0011225D01*
X0230929Y0011652D01*
X0230139Y0012059D01*
X0229339Y0012448D01*
X0228531Y0012816D01*
X0227713Y0013165D01*
X0226887Y0013494D01*
X0226053Y0013802D01*
X0225212Y0014090D01*
X0224365Y0014357D01*
X0223511Y0014604D01*
X0222651Y0014829D01*
X0221786Y0015034D01*
X0220916Y0015217D01*
X0220042Y0015379D01*
X0219164Y0015520D01*
X0218283Y0015639D01*
X0217400Y0015736D01*
X0216514Y0015812D01*
X0215627Y0015867D01*
X0214739Y0015899D01*
X0213850Y0015910D01*
X0212961Y0015899D01*
X0212073Y0015867D01*
X0211186Y0015812D01*
X0210300Y0015736D01*
X0209417Y0015639D01*
X0208536Y0015520D01*
X0207658Y0015379D01*
X0206784Y0015217D01*
X0205914Y0015034D01*
X0205049Y0014829D01*
X0204189Y0014604D01*
X0203335Y0014357D01*
X0202488Y0014090D01*
X0201647Y0013802D01*
X0200813Y0013494D01*
X0199987Y0013165D01*
X0199169Y0012816D01*
X0198361Y0012448D01*
X0197561Y0012059D01*
X0196771Y0011652D01*
X0195991Y0011225D01*
X0195222Y0010779D01*
X0194465Y0010315D01*
X0193718Y0009832D01*
X0192984Y0009331D01*
X0192984Y0009330D02*
X0192794Y0009118D01*
X0192599Y0008911D01*
X0192398Y0008709D01*
X0192193Y0008511D01*
X0191983Y0008319D01*
X0191769Y0008132D01*
X0191550Y0007950D01*
X0191326Y0007773D01*
X0191098Y0007602D01*
X0190867Y0007437D01*
X0190631Y0007277D01*
X0190391Y0007123D01*
X0190148Y0006975D01*
X0189901Y0006833D01*
X0189651Y0006697D01*
X0189398Y0006567D01*
X0189141Y0006443D01*
X0188882Y0006326D01*
X0188619Y0006215D01*
X0188355Y0006110D01*
X0188087Y0006012D01*
X0187818Y0005921D01*
X0187546Y0005836D01*
X0187272Y0005757D01*
X0186996Y0005686D01*
X0186719Y0005621D01*
X0186440Y0005563D01*
X0186160Y0005511D01*
X0185879Y0005467D01*
X0185597Y0005429D01*
X0185314Y0005399D01*
X0185030Y0005375D01*
X0184746Y0005358D01*
X0184461Y0005348D01*
X0184176Y0005345D01*
X0183891Y0005349D01*
X0183607Y0005360D01*
X0183323Y0005378D01*
X0183039Y0005402D01*
X0182756Y0005434D01*
X0182474Y0005472D01*
X0182193Y0005518D01*
X0181913Y0005570D01*
X0181634Y0005629D01*
X0181357Y0005695D01*
X0181082Y0005767D01*
X0180808Y0005847D01*
X0180537Y0005932D01*
X0180267Y0006025D01*
X0180000Y0006124D01*
X0179736Y0006229D01*
X0179474Y0006341D01*
X0179215Y0006459D01*
X0178959Y0006584D01*
X0178706Y0006715D01*
X0178456Y0006851D01*
X0178210Y0006994D01*
X0177967Y0007143D01*
X0177728Y0007298D01*
X0177493Y0007458D01*
X0177261Y0007625D01*
X0177034Y0007796D01*
X0176811Y0007974D01*
X0176593Y0008156D01*
X0176379Y0008344D01*
X0176169Y0008537D01*
X0175965Y0008735D01*
X0175765Y0008938D01*
X0175571Y0009146D01*
X0175381Y0009359D01*
X0175197Y0009576D01*
X0175018Y0009797D01*
X0174844Y0010023D01*
X0174676Y0010253D01*
X0174514Y0010487D01*
X0174357Y0010725D01*
X0174207Y0010966D01*
X0174062Y0011211D01*
X0173923Y0011460D01*
X0173790Y0011712D01*
X0173664Y0011967D01*
X0173544Y0012225D01*
X0173430Y0012486D01*
X0173322Y0012750D01*
X0173221Y0013016D01*
X0173126Y0013285D01*
X0173038Y0013556D01*
X0172957Y0013829D01*
X0172882Y0014103D01*
X0172814Y0014380D01*
X0172753Y0014658D01*
X0172699Y0014938D01*
X0172651Y0015218D01*
X0172611Y0015500D01*
X0172577Y0015783D01*
X0172550Y0016066D01*
X0172530Y0016350D01*
X0172517Y0016635D01*
X0172511Y0016920D01*
X0172511Y0017204D01*
X0172512Y0017205D02*
X0172512Y0028622D01*
X0370543Y0188465D02*
X0370543Y0220748D01*
X0379205Y0220748D02*
X0379205Y0188465D01*
X0387079Y0188465D02*
X0387079Y0205000D01*
X0387079Y0220748D01*
X0388916Y0213714D02*
X0388916Y0210912D01*
X0388916Y0212313D02*
X0393119Y0212313D01*
X0391718Y0210912D01*
X0391718Y0209110D02*
X0388916Y0209110D01*
X0391018Y0209110D02*
X0391018Y0206308D01*
X0391718Y0206308D02*
X0393119Y0207709D01*
X0391718Y0209110D01*
X0391718Y0206308D02*
X0388916Y0206308D01*
X0387079Y0205000D02*
X0403614Y0205000D01*
X0403614Y0188465D01*
X0400993Y0196072D02*
X0396790Y0196072D01*
X0396790Y0198173D01*
X0397490Y0198874D01*
X0400293Y0198874D01*
X0400993Y0198173D01*
X0400993Y0196072D01*
X0393119Y0196072D02*
X0393119Y0198173D01*
X0392419Y0198874D01*
X0389616Y0198874D01*
X0388916Y0198173D01*
X0388916Y0196072D01*
X0393119Y0196072D01*
X0392419Y0200676D02*
X0393119Y0201376D01*
X0393119Y0202777D01*
X0392419Y0203478D01*
X0389616Y0200676D01*
X0388916Y0201376D01*
X0388916Y0202777D01*
X0389616Y0203478D01*
X0392419Y0203478D01*
X0392419Y0200676D02*
X0389616Y0200676D01*
X0385245Y0201497D02*
X0385245Y0202898D01*
X0384545Y0203598D01*
X0383844Y0203598D01*
X0383144Y0202898D01*
X0382443Y0203598D01*
X0381742Y0203598D01*
X0381042Y0202898D01*
X0381042Y0201497D01*
X0381742Y0200796D01*
X0383144Y0202197D02*
X0383144Y0202898D01*
X0385245Y0201497D02*
X0384545Y0200796D01*
X0383144Y0198995D02*
X0383144Y0196192D01*
X0384545Y0197593D02*
X0381742Y0197593D01*
X0377371Y0199195D02*
X0377371Y0200596D01*
X0376671Y0201296D01*
X0375270Y0201296D02*
X0375270Y0199895D01*
X0375270Y0201296D02*
X0373868Y0201296D01*
X0373168Y0200596D01*
X0373168Y0199195D01*
X0373868Y0198494D01*
X0376671Y0198494D01*
X0377371Y0199195D01*
X0377371Y0203098D02*
X0373168Y0203098D01*
X0373168Y0205900D02*
X0377371Y0205900D01*
X0377371Y0207702D02*
X0373168Y0207702D01*
X0373168Y0209804D01*
X0373868Y0210504D01*
X0376671Y0210504D01*
X0377371Y0209804D01*
X0377371Y0207702D01*
X0381042Y0206801D02*
X0382443Y0208202D01*
X0385245Y0208202D01*
X0384545Y0210004D02*
X0385245Y0210704D01*
X0385245Y0212106D01*
X0384545Y0212806D01*
X0383844Y0212806D01*
X0383144Y0212106D01*
X0382443Y0212806D01*
X0381742Y0212806D01*
X0381042Y0212106D01*
X0381042Y0210704D01*
X0381742Y0210004D01*
X0383144Y0211405D02*
X0383144Y0212106D01*
X0381042Y0206801D02*
X0382443Y0205400D01*
X0385245Y0205400D01*
X0377371Y0203098D02*
X0373168Y0205900D01*
X0396790Y0206308D02*
X0399592Y0206308D01*
X0400993Y0207709D01*
X0399592Y0209110D01*
X0396790Y0209110D01*
X0397490Y0210912D02*
X0396790Y0211612D01*
X0396790Y0213014D01*
X0397490Y0213714D01*
X0400293Y0213714D01*
X0397490Y0210912D01*
X0400293Y0210912D01*
X0400993Y0211612D01*
X0400993Y0213014D01*
X0400293Y0213714D01*
X0398892Y0209110D02*
X0398892Y0206308D01*
X0396790Y0203478D02*
X0396790Y0200676D01*
X0396790Y0202077D02*
X0400993Y0202077D01*
X0399592Y0200676D01*
X0403614Y0205000D02*
X0403614Y0220748D01*
M02*
