%
M48
M72
T01C0.01181
T02C0.02559
T03C0.02756
T04C0.03000
T05C0.03937
T06C0.04000
T07C0.05000
T08C0.07000
T09C0.12598
%
T01
X22512Y10512
X19362Y16811
X22512Y23110
X28811Y26260
X35110Y23110
X38260Y16811
X35110Y10512
X28811Y7362
X44559Y8937
X52433Y8937
X61094Y9331
X69756Y9331
X79992Y8937
X87866Y9331
X96134Y9331
X103614Y8937
X96134Y17992
X87866Y17992
X69756Y18386
X61094Y18386
X76055Y40433
X83929Y40433
X83929Y48307
X76055Y48307
X76055Y56181
X103614Y67992
X111488Y64055
X118575Y60118
X123299Y56181
X119362Y52244
X131173Y56181
X135898Y60118
X154795Y64055
X165031Y64055
X174480Y64055
X194165Y64055
X213850Y64055
X213850Y73504
X213850Y83740
X194165Y83740
X174480Y83740
X154795Y83740
X136685Y99488
X134323Y106575
X128811Y106575
X117787Y114449
X112276Y114449
X104402Y112874
X104402Y109724
X104402Y106575
X104402Y103425
X104402Y100276
X104402Y97126
X92984Y96732
X92984Y99882
X92984Y103031
X92984Y106181
X92984Y109331
X92984Y112480
X85504Y119173
X85504Y123110
X73693Y109724
X69756Y105787
X68181Y99488
X60307Y99488
X53220Y91614
X55583Y89252
X57945Y86890
X60307Y84528
X62669Y82165
X65031Y79803
X73693Y81378
X68181Y91614
X53220Y82165
X44559Y90827
X20937Y79803
X20937Y71929
X20937Y64055
X20937Y56181
X20937Y48307
X20937Y40433
X20937Y32559
X91803Y79803
X99677Y75866
X154795Y103425
X174480Y103425
X194165Y103425
X213850Y103425
X233535Y103425
X253220Y103425
X272906Y103425
X272906Y123110
X291016Y123110
X295740Y124685
X300465Y129409
X295740Y132559
X300465Y137283
X272906Y142795
X253220Y142795
X237472Y142795
X229598Y134921
X213850Y142795
X209913Y154606
X217787Y162480
X233535Y162480
X253220Y162480
X272906Y166417
X253220Y180591
X248496Y182953
X257945Y182953
X205976Y190827
X204402Y183740
X198102Y180591
X194165Y166417
X194165Y154606
X194165Y142795
X174480Y142795
X174480Y154606
X154795Y142795
X136685Y146732
X126449Y156181
X119362Y156181
X119362Y159902
X119362Y163483
X119362Y167205
X122512Y170354
X104402Y151457
X119362Y134921
X123299Y130984
X127236Y127047
X131173Y130984
X127236Y134921
X131173Y123110
X136685Y123110
X134323Y116024
X154795Y123110
X174480Y123110
X194165Y123110
X213850Y123110
X235898Y124291
X239619Y124291
X243200Y124291
X246921Y124291
X253220Y124291
X253220Y83740
X272906Y83740
X272906Y64055
X263457Y64055
X253220Y64055
X233535Y64055
X233535Y83740
X291016Y60118
X292197Y52244
X292197Y44370
X292197Y36496
X272906Y24685
X264244Y24685
X253220Y24685
X233535Y24685
X213850Y24685
X194165Y24685
X174480Y24685
X165031Y24685
X154795Y24685
X135898Y20748
X131567Y22717
X126843Y20354
X122118Y22717
X117787Y20354
X119362Y36496
X123299Y36496
X127236Y36496
X131173Y36496
X136685Y36496
X154795Y8937
X162669Y8937
X170543Y8937
X178417Y8937
X186291Y8937
X194165Y8937
X202039Y8937
X209913Y8937
X217787Y8937
X225661Y8937
X233535Y8937
X241409Y8937
X249283Y8937
X257157Y8937
X265031Y8937
X272906Y8937
X292197Y20748
X296528Y8937
X304402Y8937
X312276Y8937
X320150Y8937
X328024Y8937
X335898Y8937
X343772Y8937
X351646Y8937
X359520Y8937
X367394Y8937
X375268Y8937
X383142Y8937
X392591Y10512
X398890Y7362
X405189Y10512
X408339Y16811
X405189Y23110
X398890Y26260
X392591Y23110
X389441Y16811
X371331Y24685
X351646Y24685
X331961Y24685
X331961Y44370
X351646Y44370
X351646Y64055
X343772Y83740
X343772Y91614
X349677Y92008
X343772Y99488
X343772Y107362
X343772Y115236
X335110Y123110
X335110Y130984
X335110Y138858
X335898Y146732
X343772Y146732
X351646Y146732
X359520Y146732
X362669Y129409
X377630Y129409
X347709Y162480
X339835Y162480
X339835Y170354
X367394Y201850
X367394Y217598
X359520Y217598
X351646Y217598
X351646Y225472
X375268Y241220
X389441Y245157
X392591Y238858
X398890Y235709
X405189Y238858
X408339Y245157
X405189Y251457
X398890Y254606
X392591Y251457
X383142Y253031
X375268Y253031
X367394Y253031
X359520Y253031
X351646Y253031
X343772Y253031
X335898Y253031
X328024Y253031
X320150Y253031
X312276Y253031
X304402Y253031
X296528Y253031
X288654Y253031
X280780Y253031
X272906Y253031
X265031Y253031
X257157Y253031
X249283Y253031
X241409Y253031
X233535Y253031
X225661Y253031
X217787Y253031
X209913Y253031
X202039Y253031
X194165Y253031
X186291Y253031
X178417Y253031
X170543Y253031
X162669Y253031
X154795Y253031
X146921Y253031
X139047Y253031
X131173Y253031
X123299Y253031
X115425Y253031
X107551Y253031
X99677Y253031
X91803Y253031
X83929Y253031
X76055Y253031
X68181Y253031
X60307Y253031
X52433Y253031
X44559Y253031
X35110Y251457
X28811Y254606
X22512Y251457
X19362Y245157
X22512Y238858
X28811Y235709
X35110Y238858
X38260Y245157
X44559Y233346
X60307Y233346
X76055Y233346
X61882Y211299
X54795Y204213
X76055Y201850
X83929Y201850
X91803Y205787
X96528Y204213
X79992Y193976
X68181Y186102
X64244Y190039
X58732Y182165
X55583Y182165
X55583Y178622
X58732Y178622
X58732Y175079
X55583Y175079
X72118Y174291
X72118Y162480
X64244Y162480
X64244Y154606
X72118Y154606
X72118Y146732
X68181Y142008
X64244Y146732
X68181Y134921
X20937Y115236
X20937Y107362
X154795Y166417
X174480Y166417
X148496Y205000
X139441Y205787
X148496Y213661
X161882Y207362
X164244Y213661
X204402Y237677
X192591Y238858
X406764Y229409
X406764Y221535
X406764Y213661
X406764Y205787
X406764Y197913
X406764Y190039
X406764Y182165
X406764Y71929
X406764Y64055
X406764Y56181
X406764Y48307
X406764Y40433
X406764Y32559
X233535Y44370
X194165Y44370
T02
X36685Y156870
X36685Y175965
X36685Y200177
X36685Y219272
T03
X26252Y223898
X26252Y195551
X26252Y180591
X26252Y152244
T04
X375268Y192008
X383142Y192008
X391016Y192008
X398890Y192008
X398890Y217598
X391016Y217598
X383142Y217598
X375268Y217598
T05
X59331Y63631
X34528Y63631
X47520Y43946
T06
X36154Y86233
X26154Y86233
X60638Y107894
X60638Y117894
X88850Y220472
X98850Y220472
X108850Y220472
X118850Y220472
X128850Y220472
X138850Y220472
X148850Y220472
X158850Y220472
X168850Y220472
X178850Y220472
X188850Y220472
X198850Y220472
X208850Y220472
X218850Y220472
X228850Y220472
X238850Y220472
X248850Y220472
X258850Y220472
X268850Y220472
X278850Y220472
X288850Y220472
X298850Y220472
X308850Y220472
X318850Y220472
X328850Y220472
X338850Y220472
X338850Y230472
X328850Y230472
X318850Y230472
X308850Y230472
X298850Y230472
X288850Y230472
X278850Y230472
X268850Y230472
X258850Y230472
X248850Y230472
X238850Y230472
X228850Y230472
X218850Y230472
X208850Y230472
X198850Y230472
X188850Y230472
X178850Y230472
X168850Y230472
X158850Y230472
X148850Y230472
X138850Y230472
X128850Y230472
X118850Y230472
X108850Y230472
X98850Y230472
X88850Y230472
X392984Y174291
X402984Y174291
X402984Y164291
X392984Y164291
X392984Y154291
X402984Y154291
X402984Y144291
X392984Y144291
X392984Y134291
X402984Y134291
X402984Y124291
X392984Y124291
X392984Y114291
X402984Y114291
X402984Y104291
X392984Y104291
X392984Y94291
X402984Y94291
X402984Y84291
X392984Y84291
T07
X387079Y56181
T08
X397118Y46142
X377040Y46142
X377040Y66220
X397118Y66220
T09
X398890Y16811
X28811Y16811
X28811Y245157
X398890Y245157
M30
