G75*
%MOIN*%
%OFA0B0*%
%FSLAX25Y25*%
%IPPOS*%
%LPD*%
%AMOC8*
5,1,8,0,0,1.08239X$1,22.5*
%
%ADD10C,0.00800*%
%ADD11C,0.00600*%
%ADD12C,0.01200*%
%ADD13C,0.00300*%
%ADD14R,0.06000X0.06000*%
%ADD15C,0.00500*%
%ADD16C,0.00400*%
%ADD17C,0.01000*%
D10*
X0017205Y0040994D02*
X0017205Y0041112D01*
X0039646Y0041112D01*
X0055787Y0041112D02*
X0058937Y0041112D01*
X0058937Y0054891D01*
X0058937Y0073395D02*
X0058937Y0078513D01*
X0017205Y0078513D01*
X0017205Y0041112D01*
X0036685Y0095551D02*
X0050465Y0095551D01*
X0050465Y0098701D01*
X0040622Y0098701D01*
X0040622Y0103425D01*
X0020937Y0103425D02*
X0020937Y0119173D01*
X0021125Y0130459D02*
X0022527Y0130459D01*
X0023227Y0131160D01*
X0025029Y0130459D02*
X0025029Y0134663D01*
X0023227Y0133962D02*
X0022527Y0134663D01*
X0021125Y0134663D01*
X0020425Y0133962D01*
X0020425Y0131160D01*
X0021125Y0130459D01*
X0025029Y0132561D02*
X0027831Y0132561D01*
X0029633Y0131860D02*
X0031734Y0131860D01*
X0032435Y0132561D01*
X0032435Y0133962D01*
X0031734Y0134663D01*
X0029633Y0134663D01*
X0029633Y0130459D01*
X0027831Y0130459D02*
X0027831Y0134663D01*
X0031034Y0131860D02*
X0032435Y0130459D01*
X0034237Y0131160D02*
X0034937Y0130459D01*
X0036338Y0130459D01*
X0037039Y0131160D01*
X0037039Y0132561D01*
X0035638Y0132561D01*
X0037039Y0133962D02*
X0036338Y0134663D01*
X0034937Y0134663D01*
X0034237Y0133962D01*
X0034237Y0131160D01*
X0036685Y0127047D02*
X0050465Y0127047D01*
X0050465Y0123898D01*
X0040622Y0123898D01*
X0040622Y0119173D01*
X0044145Y0130459D02*
X0043444Y0131160D01*
X0044145Y0130459D02*
X0045546Y0130459D01*
X0046247Y0131160D01*
X0046247Y0131860D01*
X0045546Y0132561D01*
X0044145Y0132561D01*
X0043444Y0133261D01*
X0043444Y0133962D01*
X0044145Y0134663D01*
X0045546Y0134663D01*
X0046247Y0133962D01*
X0048048Y0134663D02*
X0050851Y0134663D01*
X0049450Y0134663D02*
X0049450Y0130459D01*
X0052652Y0130459D02*
X0052652Y0133261D01*
X0054053Y0134663D01*
X0055455Y0133261D01*
X0055455Y0130459D01*
X0055455Y0132561D02*
X0052652Y0132561D01*
X0057256Y0134663D02*
X0060059Y0134663D01*
X0058657Y0134663D02*
X0058657Y0130459D01*
X0061860Y0131160D02*
X0062561Y0130459D01*
X0063962Y0130459D01*
X0064663Y0131160D01*
X0064663Y0134663D01*
X0066464Y0133962D02*
X0066464Y0133261D01*
X0067165Y0132561D01*
X0068566Y0132561D01*
X0069266Y0131860D01*
X0069266Y0131160D01*
X0068566Y0130459D01*
X0067165Y0130459D01*
X0066464Y0131160D01*
X0066464Y0133962D02*
X0067165Y0134663D01*
X0068566Y0134663D01*
X0069266Y0133962D01*
X0061860Y0134663D02*
X0061860Y0131160D01*
X0060654Y0126088D02*
X0060654Y0123286D01*
X0059253Y0124687D02*
X0062055Y0124687D01*
X0026060Y0138765D02*
X0024900Y0139525D01*
X0024839Y0139625D02*
X0026060Y0140546D01*
X0024839Y0141436D02*
X0024839Y0139625D01*
X0024839Y0137814D01*
X0042642Y0162213D02*
X0046846Y0162213D01*
X0046846Y0165016D01*
X0046145Y0166817D02*
X0043343Y0166817D01*
X0042642Y0167518D01*
X0042642Y0168919D01*
X0043343Y0169620D01*
X0046145Y0166817D01*
X0046846Y0167518D01*
X0046846Y0168919D01*
X0046145Y0169620D01*
X0043343Y0169620D01*
X0042642Y0165016D02*
X0042642Y0162213D01*
X0044744Y0162213D02*
X0044744Y0163615D01*
X0050142Y0162714D02*
X0053645Y0162714D01*
X0054346Y0162013D01*
X0054346Y0160612D01*
X0053645Y0159911D01*
X0050142Y0159911D01*
X0050843Y0164515D02*
X0051544Y0164515D01*
X0052244Y0165216D01*
X0052244Y0166617D01*
X0052945Y0167318D01*
X0053645Y0167318D01*
X0054346Y0166617D01*
X0054346Y0165216D01*
X0053645Y0164515D01*
X0050843Y0164515D02*
X0050142Y0165216D01*
X0050142Y0166617D01*
X0050843Y0167318D01*
X0050142Y0169119D02*
X0050142Y0171221D01*
X0050843Y0171922D01*
X0051544Y0171922D01*
X0052244Y0171221D01*
X0052244Y0169119D01*
X0054346Y0169119D02*
X0050142Y0169119D01*
X0052244Y0171221D02*
X0052945Y0171922D01*
X0053645Y0171922D01*
X0054346Y0171221D01*
X0054346Y0169119D01*
X0096656Y0194787D02*
X0099458Y0194787D01*
X0100860Y0196189D01*
X0099458Y0197590D01*
X0096656Y0197590D01*
X0096656Y0199391D02*
X0100159Y0199391D01*
X0100860Y0200092D01*
X0100860Y0201493D01*
X0100159Y0202194D01*
X0096656Y0202194D01*
X0097357Y0203995D02*
X0098057Y0203995D01*
X0098758Y0204696D01*
X0098758Y0206097D01*
X0099458Y0206798D01*
X0100159Y0206798D01*
X0100860Y0206097D01*
X0100860Y0204696D01*
X0100159Y0203995D01*
X0097357Y0203995D02*
X0096656Y0204696D01*
X0096656Y0206097D01*
X0097357Y0206798D01*
X0096656Y0208599D02*
X0096656Y0210701D01*
X0097357Y0211402D01*
X0098057Y0211402D01*
X0098758Y0210701D01*
X0098758Y0208599D01*
X0100860Y0208599D02*
X0096656Y0208599D01*
X0098758Y0210701D02*
X0099458Y0211402D01*
X0100159Y0211402D01*
X0100860Y0210701D01*
X0100860Y0208599D01*
X0106665Y0209300D02*
X0106665Y0210701D01*
X0107365Y0211402D01*
X0110168Y0211402D01*
X0110868Y0210701D01*
X0110868Y0209300D01*
X0110168Y0208599D01*
X0107365Y0208599D01*
X0106665Y0209300D01*
X0107365Y0206798D02*
X0108766Y0206798D01*
X0109467Y0206097D01*
X0109467Y0203995D01*
X0110868Y0203995D02*
X0106665Y0203995D01*
X0106665Y0206097D01*
X0107365Y0206798D01*
X0106665Y0202327D02*
X0106665Y0200926D01*
X0106665Y0201627D02*
X0110868Y0201627D01*
X0110868Y0202327D02*
X0110868Y0200926D01*
X0110868Y0199124D02*
X0110868Y0196322D01*
X0106665Y0196322D01*
X0116673Y0196322D02*
X0116673Y0198424D01*
X0117374Y0199124D01*
X0118775Y0199124D01*
X0119475Y0198424D01*
X0119475Y0196322D01*
X0120877Y0196322D02*
X0116673Y0196322D01*
X0116673Y0200926D02*
X0118074Y0202327D01*
X0116673Y0203728D01*
X0120877Y0203728D01*
X0120877Y0205530D02*
X0120877Y0206931D01*
X0120877Y0206230D02*
X0116673Y0206230D01*
X0116673Y0205530D02*
X0116673Y0206931D01*
X0116673Y0208599D02*
X0116673Y0210701D01*
X0117374Y0211402D01*
X0120176Y0211402D01*
X0120877Y0210701D01*
X0120877Y0208599D01*
X0116673Y0208599D01*
X0116673Y0200926D02*
X0120877Y0200926D01*
X0126682Y0201493D02*
X0127382Y0202194D01*
X0128083Y0202194D01*
X0128783Y0201493D01*
X0129484Y0202194D01*
X0130185Y0202194D01*
X0130885Y0201493D01*
X0130885Y0200092D01*
X0130185Y0199391D01*
X0128783Y0200793D02*
X0128783Y0201493D01*
X0126682Y0201493D02*
X0126682Y0200092D01*
X0127382Y0199391D01*
X0126682Y0203995D02*
X0129484Y0203995D01*
X0130885Y0205396D01*
X0129484Y0206798D01*
X0126682Y0206798D01*
X0127382Y0208599D02*
X0126682Y0209300D01*
X0126682Y0210701D01*
X0127382Y0211402D01*
X0128083Y0211402D01*
X0128783Y0210701D01*
X0129484Y0211402D01*
X0130185Y0211402D01*
X0130885Y0210701D01*
X0130885Y0209300D01*
X0130185Y0208599D01*
X0128783Y0210000D02*
X0128783Y0210701D01*
X0136690Y0211402D02*
X0136690Y0208599D01*
X0136690Y0210000D02*
X0140894Y0210000D01*
X0146699Y0210000D02*
X0148100Y0208599D01*
X0150902Y0208599D01*
X0150202Y0206798D02*
X0147399Y0206798D01*
X0146699Y0206097D01*
X0146699Y0203995D01*
X0150902Y0203995D01*
X0150902Y0206097D01*
X0150202Y0206798D01*
X0148800Y0208599D02*
X0148800Y0211402D01*
X0148100Y0211402D02*
X0150902Y0211402D01*
X0148100Y0211402D02*
X0146699Y0210000D01*
X0140894Y0206798D02*
X0138091Y0206798D01*
X0136690Y0205396D01*
X0138091Y0203995D01*
X0140894Y0203995D01*
X0140193Y0202194D02*
X0140894Y0201493D01*
X0140894Y0199391D01*
X0136690Y0199391D01*
X0136690Y0201493D01*
X0137391Y0202194D01*
X0138091Y0202194D01*
X0138792Y0201493D01*
X0138792Y0199391D01*
X0139492Y0197590D02*
X0136690Y0197590D01*
X0139492Y0197590D02*
X0140894Y0196189D01*
X0139492Y0194787D01*
X0136690Y0194787D01*
X0138792Y0201493D02*
X0139492Y0202194D01*
X0140193Y0202194D01*
X0138792Y0203995D02*
X0138792Y0206798D01*
X0146699Y0201493D02*
X0146699Y0199391D01*
X0150902Y0199391D01*
X0150902Y0201493D01*
X0150202Y0202194D01*
X0147399Y0202194D01*
X0146699Y0201493D01*
X0146699Y0197590D02*
X0149501Y0197590D01*
X0150902Y0196189D01*
X0149501Y0194787D01*
X0146699Y0194787D01*
X0156707Y0203995D02*
X0156707Y0206097D01*
X0157408Y0206798D01*
X0158809Y0206798D01*
X0159509Y0206097D01*
X0159509Y0203995D01*
X0159509Y0205396D02*
X0160911Y0206798D01*
X0160911Y0208599D02*
X0156707Y0211402D01*
X0156707Y0208599D02*
X0160911Y0211402D01*
X0166716Y0210701D02*
X0166716Y0208599D01*
X0170919Y0208599D01*
X0169518Y0208599D02*
X0169518Y0210701D01*
X0168817Y0211402D01*
X0167416Y0211402D01*
X0166716Y0210701D01*
X0166716Y0206798D02*
X0170919Y0203995D01*
X0170919Y0202194D02*
X0166716Y0202194D01*
X0166716Y0203995D02*
X0170919Y0206798D01*
X0170919Y0202194D02*
X0169518Y0200793D01*
X0170919Y0199391D01*
X0166716Y0199391D01*
X0160911Y0203995D02*
X0156707Y0203995D01*
X0176724Y0205396D02*
X0178125Y0203995D01*
X0180928Y0203995D01*
X0178826Y0203995D02*
X0178826Y0206798D01*
X0178125Y0206798D02*
X0180928Y0206798D01*
X0180227Y0208599D02*
X0180928Y0209300D01*
X0180928Y0210701D01*
X0180227Y0211402D01*
X0178826Y0211402D01*
X0178125Y0210701D01*
X0178125Y0210000D01*
X0178826Y0208599D01*
X0176724Y0208599D01*
X0176724Y0211402D01*
X0178125Y0206798D02*
X0176724Y0205396D01*
X0186733Y0205396D02*
X0188134Y0203995D01*
X0190936Y0203995D01*
X0188834Y0203995D02*
X0188834Y0206798D01*
X0188134Y0206798D02*
X0190936Y0206798D01*
X0190236Y0208599D02*
X0190936Y0209300D01*
X0190936Y0210701D01*
X0190236Y0211402D01*
X0189535Y0211402D01*
X0188834Y0210701D01*
X0188834Y0210000D01*
X0188834Y0210701D02*
X0188134Y0211402D01*
X0187433Y0211402D01*
X0186733Y0210701D01*
X0186733Y0209300D01*
X0187433Y0208599D01*
X0188134Y0206798D02*
X0186733Y0205396D01*
X0196774Y0205396D02*
X0198176Y0203995D01*
X0200978Y0203995D01*
X0198876Y0203995D02*
X0198876Y0206798D01*
X0198176Y0206798D02*
X0200978Y0206798D01*
X0200978Y0208599D02*
X0200978Y0211402D01*
X0200978Y0210000D02*
X0196774Y0210000D01*
X0198176Y0208599D01*
X0198176Y0206798D02*
X0196774Y0205396D01*
X0206783Y0206097D02*
X0206783Y0203995D01*
X0210987Y0203995D01*
X0210987Y0206097D01*
X0210286Y0206798D01*
X0209585Y0206798D01*
X0208885Y0206097D01*
X0208885Y0203995D01*
X0208885Y0206097D02*
X0208184Y0206798D01*
X0207484Y0206798D01*
X0206783Y0206097D01*
X0206783Y0208599D02*
X0208885Y0208599D01*
X0208184Y0210000D01*
X0208184Y0210701D01*
X0208885Y0211402D01*
X0210286Y0211402D01*
X0210987Y0210701D01*
X0210987Y0209300D01*
X0210286Y0208599D01*
X0206783Y0208599D02*
X0206783Y0211402D01*
X0216791Y0210701D02*
X0216791Y0209300D01*
X0217492Y0208599D01*
X0217492Y0206798D02*
X0218193Y0206798D01*
X0218893Y0206097D01*
X0218893Y0203995D01*
X0216791Y0203995D02*
X0216791Y0206097D01*
X0217492Y0206798D01*
X0218893Y0206097D02*
X0219594Y0206798D01*
X0220294Y0206798D01*
X0220995Y0206097D01*
X0220995Y0203995D01*
X0216791Y0203995D01*
X0220294Y0208599D02*
X0220995Y0209300D01*
X0220995Y0210701D01*
X0220294Y0211402D01*
X0219594Y0211402D01*
X0218893Y0210701D01*
X0218893Y0210000D01*
X0218893Y0210701D02*
X0218193Y0211402D01*
X0217492Y0211402D01*
X0216791Y0210701D01*
X0226800Y0210000D02*
X0228201Y0208599D01*
X0228201Y0206798D02*
X0228902Y0206097D01*
X0228902Y0203995D01*
X0231004Y0203995D02*
X0226800Y0203995D01*
X0226800Y0206097D01*
X0227501Y0206798D01*
X0228201Y0206798D01*
X0228902Y0206097D02*
X0229602Y0206798D01*
X0230303Y0206798D01*
X0231004Y0206097D01*
X0231004Y0203995D01*
X0236808Y0203995D02*
X0236808Y0206097D01*
X0237509Y0206798D01*
X0240311Y0206798D01*
X0241012Y0206097D01*
X0241012Y0203995D01*
X0236808Y0203995D01*
X0236808Y0208599D02*
X0236808Y0211402D01*
X0237509Y0211402D01*
X0240311Y0208599D01*
X0241012Y0208599D01*
X0246817Y0208599D02*
X0246817Y0211402D01*
X0248218Y0210701D02*
X0248919Y0211402D01*
X0250320Y0211402D01*
X0251021Y0210701D01*
X0251021Y0209300D01*
X0250320Y0208599D01*
X0248919Y0208599D02*
X0248218Y0210000D01*
X0248218Y0210701D01*
X0248919Y0208599D02*
X0246817Y0208599D01*
X0247518Y0206798D02*
X0246817Y0206097D01*
X0246817Y0203995D01*
X0251021Y0203995D01*
X0251021Y0206097D01*
X0250320Y0206798D01*
X0247518Y0206798D01*
X0256825Y0206097D02*
X0256825Y0203995D01*
X0261029Y0203995D01*
X0261029Y0206097D01*
X0260328Y0206798D01*
X0257526Y0206798D01*
X0256825Y0206097D01*
X0257526Y0208599D02*
X0256825Y0209300D01*
X0256825Y0210701D01*
X0257526Y0211402D01*
X0258227Y0211402D01*
X0258927Y0210701D01*
X0259628Y0211402D01*
X0260328Y0211402D01*
X0261029Y0210701D01*
X0261029Y0209300D01*
X0260328Y0208599D01*
X0258927Y0210000D02*
X0258927Y0210701D01*
X0266834Y0210000D02*
X0268235Y0208599D01*
X0267535Y0206798D02*
X0266834Y0206097D01*
X0266834Y0203995D01*
X0271038Y0203995D01*
X0271038Y0206097D01*
X0270337Y0206798D01*
X0267535Y0206798D01*
X0271038Y0208599D02*
X0271038Y0211402D01*
X0271038Y0210000D02*
X0266834Y0210000D01*
X0276842Y0208599D02*
X0278944Y0208599D01*
X0278244Y0210000D01*
X0278244Y0210701D01*
X0278944Y0211402D01*
X0280345Y0211402D01*
X0281046Y0210701D01*
X0281046Y0209300D01*
X0280345Y0208599D01*
X0280345Y0206798D02*
X0281046Y0206097D01*
X0281046Y0204696D01*
X0280345Y0203995D01*
X0277543Y0203995D01*
X0276842Y0204696D01*
X0276842Y0206097D01*
X0277543Y0206798D01*
X0276842Y0208599D02*
X0276842Y0211402D01*
X0286851Y0210701D02*
X0286851Y0209300D01*
X0287552Y0208599D01*
X0287552Y0206798D02*
X0286851Y0206097D01*
X0286851Y0204696D01*
X0287552Y0203995D01*
X0290354Y0203995D01*
X0291055Y0204696D01*
X0291055Y0206097D01*
X0290354Y0206798D01*
X0290354Y0208599D02*
X0291055Y0209300D01*
X0291055Y0210701D01*
X0290354Y0211402D01*
X0289653Y0211402D01*
X0288953Y0210701D01*
X0288953Y0210000D01*
X0288953Y0210701D02*
X0288252Y0211402D01*
X0287552Y0211402D01*
X0286851Y0210701D01*
X0296859Y0210000D02*
X0301063Y0210000D01*
X0301063Y0208599D02*
X0301063Y0211402D01*
X0298261Y0208599D02*
X0296859Y0210000D01*
X0297560Y0206798D02*
X0296859Y0206097D01*
X0296859Y0204696D01*
X0297560Y0203995D01*
X0300362Y0203995D01*
X0301063Y0204696D01*
X0301063Y0206097D01*
X0300362Y0206798D01*
X0306835Y0208599D02*
X0310338Y0208599D01*
X0311038Y0209300D01*
X0311038Y0210701D01*
X0310338Y0211402D01*
X0306835Y0211402D01*
X0311038Y0206798D02*
X0311038Y0203995D01*
X0306835Y0203995D01*
X0307535Y0202194D02*
X0308236Y0202194D01*
X0308936Y0201493D01*
X0308936Y0199391D01*
X0306835Y0199391D02*
X0306835Y0201493D01*
X0307535Y0202194D01*
X0308936Y0201493D02*
X0309637Y0202194D01*
X0310338Y0202194D01*
X0311038Y0201493D01*
X0311038Y0199391D01*
X0306835Y0199391D01*
X0316843Y0199391D02*
X0316843Y0201493D01*
X0317544Y0202194D01*
X0318945Y0202194D01*
X0319646Y0201493D01*
X0319646Y0199391D01*
X0321047Y0199391D02*
X0316843Y0199391D01*
X0319646Y0200793D02*
X0321047Y0202194D01*
X0321047Y0203995D02*
X0321047Y0206798D01*
X0321047Y0208599D02*
X0316843Y0208599D01*
X0316843Y0210701D01*
X0317544Y0211402D01*
X0320346Y0211402D01*
X0321047Y0210701D01*
X0321047Y0208599D01*
X0318945Y0205396D02*
X0318945Y0203995D01*
X0316843Y0203995D02*
X0321047Y0203995D01*
X0316843Y0203995D02*
X0316843Y0206798D01*
X0326852Y0206097D02*
X0326852Y0204696D01*
X0327552Y0203995D01*
X0328253Y0203995D01*
X0328953Y0204696D01*
X0328953Y0206097D01*
X0329654Y0206798D01*
X0330355Y0206798D01*
X0331055Y0206097D01*
X0331055Y0204696D01*
X0330355Y0203995D01*
X0331055Y0202194D02*
X0329654Y0200793D01*
X0329654Y0201493D02*
X0329654Y0199391D01*
X0331055Y0199391D02*
X0326852Y0199391D01*
X0326852Y0201493D01*
X0327552Y0202194D01*
X0328953Y0202194D01*
X0329654Y0201493D01*
X0325255Y0198991D02*
X0325255Y0212803D01*
X0326852Y0211402D02*
X0326852Y0208599D01*
X0326852Y0210000D02*
X0331055Y0210000D01*
X0336860Y0210701D02*
X0336860Y0208599D01*
X0341064Y0208599D01*
X0341064Y0210701D01*
X0340363Y0211402D01*
X0337561Y0211402D01*
X0336860Y0210701D01*
X0336860Y0206798D02*
X0341064Y0206798D01*
X0336860Y0203995D01*
X0341064Y0203995D01*
X0340363Y0202194D02*
X0338962Y0202194D01*
X0338962Y0200793D01*
X0340363Y0202194D02*
X0341064Y0201493D01*
X0341064Y0200092D01*
X0340363Y0199391D01*
X0337561Y0199391D01*
X0336860Y0200092D01*
X0336860Y0201493D01*
X0337561Y0202194D01*
X0327552Y0206798D02*
X0326852Y0206097D01*
X0327624Y0238597D02*
X0328324Y0238597D01*
X0329025Y0239297D01*
X0329025Y0240699D01*
X0329725Y0241399D01*
X0330426Y0241399D01*
X0331127Y0240699D01*
X0331127Y0239297D01*
X0330426Y0238597D01*
X0327624Y0238597D02*
X0326923Y0239297D01*
X0326923Y0240699D01*
X0327624Y0241399D01*
X0326923Y0243201D02*
X0326923Y0246003D01*
X0326923Y0244602D02*
X0331127Y0244602D01*
X0331127Y0247805D02*
X0328324Y0247805D01*
X0326923Y0249206D01*
X0328324Y0250607D01*
X0331127Y0250607D01*
X0329025Y0250607D02*
X0329025Y0247805D01*
X0321117Y0247805D02*
X0321117Y0249906D01*
X0320416Y0250607D01*
X0317614Y0250607D01*
X0316913Y0249906D01*
X0316913Y0247805D01*
X0321117Y0247805D01*
X0320416Y0246003D02*
X0317614Y0246003D01*
X0316913Y0245303D01*
X0316913Y0243901D01*
X0317614Y0243201D01*
X0320416Y0243201D01*
X0321117Y0243901D01*
X0321117Y0245303D01*
X0320416Y0246003D01*
X0321117Y0241399D02*
X0316913Y0241399D01*
X0318315Y0239998D01*
X0316913Y0238597D01*
X0321117Y0238597D01*
X0311107Y0239297D02*
X0311107Y0240699D01*
X0310407Y0241399D01*
X0309006Y0241399D01*
X0309006Y0239998D01*
X0310407Y0238597D02*
X0311107Y0239297D01*
X0310407Y0238597D02*
X0307604Y0238597D01*
X0306904Y0239297D01*
X0306904Y0240699D01*
X0307604Y0241399D01*
X0306904Y0243201D02*
X0306904Y0245303D01*
X0307604Y0246003D01*
X0309006Y0246003D01*
X0309706Y0245303D01*
X0309706Y0243201D01*
X0309706Y0244602D02*
X0311107Y0246003D01*
X0311107Y0247805D02*
X0306904Y0247805D01*
X0311107Y0250607D01*
X0306904Y0250607D01*
X0301065Y0245303D02*
X0301065Y0243901D01*
X0300364Y0243201D01*
X0297562Y0246003D01*
X0300364Y0246003D01*
X0301065Y0245303D01*
X0300364Y0243201D02*
X0297562Y0243201D01*
X0296861Y0243901D01*
X0296861Y0245303D01*
X0297562Y0246003D01*
X0297562Y0241399D02*
X0296861Y0240699D01*
X0296861Y0239297D01*
X0297562Y0238597D01*
X0300364Y0238597D01*
X0301065Y0239297D01*
X0301065Y0240699D01*
X0300364Y0241399D01*
X0306904Y0243201D02*
X0311107Y0243201D01*
X0316913Y0252409D02*
X0321117Y0252409D01*
X0321117Y0255211D01*
X0319015Y0253810D02*
X0319015Y0252409D01*
X0316913Y0252409D02*
X0316913Y0255211D01*
X0326923Y0255211D02*
X0326923Y0252409D01*
X0326923Y0253810D02*
X0331127Y0253810D01*
X0336933Y0249906D02*
X0336933Y0247805D01*
X0341136Y0247805D01*
X0341136Y0249906D01*
X0340436Y0250607D01*
X0337633Y0250607D01*
X0336933Y0249906D01*
X0336933Y0246003D02*
X0341136Y0246003D01*
X0336933Y0243201D01*
X0341136Y0243201D01*
X0340436Y0241399D02*
X0339034Y0241399D01*
X0339034Y0239998D01*
X0337633Y0238597D02*
X0340436Y0238597D01*
X0341136Y0239297D01*
X0341136Y0240699D01*
X0340436Y0241399D01*
X0337633Y0241399D02*
X0336933Y0240699D01*
X0336933Y0239297D01*
X0337633Y0238597D01*
X0291055Y0239297D02*
X0291055Y0240699D01*
X0290354Y0241399D01*
X0291055Y0243201D02*
X0288253Y0246003D01*
X0287552Y0246003D01*
X0286851Y0245303D01*
X0286851Y0243901D01*
X0287552Y0243201D01*
X0287552Y0241399D02*
X0286851Y0240699D01*
X0286851Y0239297D01*
X0287552Y0238597D01*
X0290354Y0238597D01*
X0291055Y0239297D01*
X0291055Y0243201D02*
X0291055Y0246003D01*
X0281045Y0245303D02*
X0276842Y0245303D01*
X0278944Y0243201D01*
X0278944Y0246003D01*
X0280345Y0241399D02*
X0281045Y0240699D01*
X0281045Y0239297D01*
X0280345Y0238597D01*
X0277542Y0238597D01*
X0276842Y0239297D01*
X0276842Y0240699D01*
X0277542Y0241399D01*
X0271036Y0240699D02*
X0270335Y0241399D01*
X0267533Y0241399D01*
X0266832Y0240699D01*
X0266832Y0238597D01*
X0271036Y0238597D01*
X0271036Y0240699D01*
X0270335Y0243201D02*
X0267533Y0246003D01*
X0270335Y0246003D01*
X0271036Y0245303D01*
X0271036Y0243901D01*
X0270335Y0243201D01*
X0267533Y0243201D01*
X0266832Y0243901D01*
X0266832Y0245303D01*
X0267533Y0246003D01*
X0261026Y0246003D02*
X0261026Y0243201D01*
X0258224Y0246003D01*
X0257523Y0246003D01*
X0256823Y0245303D01*
X0256823Y0243901D01*
X0257523Y0243201D01*
X0257523Y0241399D02*
X0256823Y0240699D01*
X0256823Y0238597D01*
X0261026Y0238597D01*
X0261026Y0240699D01*
X0260326Y0241399D01*
X0257523Y0241399D01*
X0251017Y0240699D02*
X0250316Y0241399D01*
X0247514Y0241399D01*
X0246813Y0240699D01*
X0246813Y0238597D01*
X0251017Y0238597D01*
X0251017Y0240699D01*
X0248915Y0243201D02*
X0248915Y0246003D01*
X0251017Y0245303D02*
X0246813Y0245303D01*
X0248915Y0243201D01*
X0241007Y0243901D02*
X0240307Y0243201D01*
X0238905Y0243201D01*
X0238905Y0245303D01*
X0239606Y0246003D01*
X0240307Y0246003D01*
X0241007Y0245303D01*
X0241007Y0243901D01*
X0238905Y0243201D02*
X0237504Y0244602D01*
X0236804Y0246003D01*
X0237504Y0241399D02*
X0236804Y0240699D01*
X0236804Y0238597D01*
X0241007Y0238597D01*
X0241007Y0240699D01*
X0240307Y0241399D01*
X0237504Y0241399D01*
X0230998Y0240699D02*
X0230998Y0238597D01*
X0226794Y0238597D01*
X0226794Y0240699D01*
X0227495Y0241399D01*
X0228195Y0241399D01*
X0228896Y0240699D01*
X0228896Y0238597D01*
X0228896Y0240699D02*
X0229596Y0241399D01*
X0230297Y0241399D01*
X0230998Y0240699D01*
X0230297Y0243201D02*
X0227495Y0243201D01*
X0226794Y0243901D01*
X0226794Y0245303D01*
X0227495Y0246003D01*
X0230297Y0243201D01*
X0230998Y0243901D01*
X0230998Y0245303D01*
X0230297Y0246003D01*
X0227495Y0246003D01*
X0220988Y0246003D02*
X0220988Y0243201D01*
X0218186Y0246003D01*
X0217485Y0246003D01*
X0216784Y0245303D01*
X0216784Y0243901D01*
X0217485Y0243201D01*
X0217485Y0241399D02*
X0218186Y0241399D01*
X0218886Y0240699D01*
X0218886Y0238597D01*
X0216784Y0238597D02*
X0216784Y0240699D01*
X0217485Y0241399D01*
X0218886Y0240699D02*
X0219587Y0241399D01*
X0220287Y0241399D01*
X0220988Y0240699D01*
X0220988Y0238597D01*
X0216784Y0238597D01*
X0210978Y0238597D02*
X0210978Y0240699D01*
X0210278Y0241399D01*
X0209577Y0241399D01*
X0208877Y0240699D01*
X0208877Y0238597D01*
X0210978Y0238597D02*
X0206775Y0238597D01*
X0206775Y0240699D01*
X0207476Y0241399D01*
X0208176Y0241399D01*
X0208877Y0240699D01*
X0208877Y0243201D02*
X0208877Y0246003D01*
X0210978Y0245303D02*
X0206775Y0245303D01*
X0208877Y0243201D01*
X0200969Y0243901D02*
X0200268Y0243201D01*
X0197466Y0246003D01*
X0200268Y0246003D01*
X0200969Y0245303D01*
X0200969Y0243901D01*
X0200268Y0243201D02*
X0197466Y0243201D01*
X0196765Y0243901D01*
X0196765Y0245303D01*
X0197466Y0246003D01*
X0198167Y0241399D02*
X0200969Y0241399D01*
X0198867Y0241399D02*
X0198867Y0238597D01*
X0198167Y0238597D02*
X0200969Y0238597D01*
X0198167Y0238597D02*
X0196765Y0239998D01*
X0198167Y0241399D01*
X0190993Y0241399D02*
X0188190Y0241399D01*
X0186789Y0239998D01*
X0188190Y0238597D01*
X0190993Y0238597D01*
X0188891Y0238597D02*
X0188891Y0241399D01*
X0187490Y0243201D02*
X0186789Y0243901D01*
X0186789Y0245303D01*
X0187490Y0246003D01*
X0188190Y0246003D01*
X0190993Y0243201D01*
X0190993Y0246003D01*
X0180983Y0245303D02*
X0176780Y0245303D01*
X0178881Y0243201D01*
X0178881Y0246003D01*
X0178881Y0241399D02*
X0178881Y0238597D01*
X0178181Y0238597D02*
X0176780Y0239998D01*
X0178181Y0241399D01*
X0180983Y0241399D01*
X0180983Y0238597D02*
X0178181Y0238597D01*
X0170974Y0238597D02*
X0170974Y0240699D01*
X0170273Y0241399D01*
X0167471Y0241399D01*
X0166770Y0240699D01*
X0166770Y0238597D01*
X0170974Y0238597D01*
X0170974Y0243201D02*
X0168171Y0243201D01*
X0166770Y0244602D01*
X0168171Y0246003D01*
X0170974Y0246003D01*
X0170273Y0247805D02*
X0170974Y0248505D01*
X0170974Y0249906D01*
X0170273Y0250607D01*
X0170273Y0247805D02*
X0167471Y0247805D01*
X0166770Y0248505D01*
X0166770Y0249906D01*
X0167471Y0250607D01*
X0168872Y0246003D02*
X0168872Y0243201D01*
X0160964Y0243201D02*
X0156760Y0246003D01*
X0156760Y0243201D02*
X0160964Y0246003D01*
X0156760Y0241399D02*
X0156760Y0238597D01*
X0156760Y0239998D02*
X0160964Y0239998D01*
X0150954Y0240699D02*
X0150254Y0241399D01*
X0148853Y0241399D01*
X0148853Y0239998D01*
X0150254Y0238597D02*
X0147451Y0238597D01*
X0146751Y0239297D01*
X0146751Y0240699D01*
X0147451Y0241399D01*
X0146751Y0243201D02*
X0150954Y0246003D01*
X0146751Y0246003D01*
X0146751Y0247805D02*
X0146751Y0249906D01*
X0147451Y0250607D01*
X0150254Y0250607D01*
X0150954Y0249906D01*
X0150954Y0247805D01*
X0146751Y0247805D01*
X0140945Y0247805D02*
X0140945Y0249906D01*
X0140244Y0250607D01*
X0137442Y0250607D01*
X0136741Y0249906D01*
X0136741Y0247805D01*
X0140945Y0247805D01*
X0140945Y0246003D02*
X0136741Y0246003D01*
X0136741Y0243201D02*
X0140945Y0246003D01*
X0140945Y0243201D02*
X0136741Y0243201D01*
X0137442Y0241399D02*
X0136741Y0240699D01*
X0136741Y0239297D01*
X0137442Y0238597D01*
X0140244Y0238597D01*
X0140945Y0239297D01*
X0140945Y0240699D01*
X0140244Y0241399D01*
X0138843Y0241399D01*
X0138843Y0239998D01*
X0130935Y0239297D02*
X0130235Y0238597D01*
X0130935Y0239297D02*
X0130935Y0240699D01*
X0130235Y0241399D01*
X0129534Y0241399D01*
X0128834Y0240699D01*
X0128834Y0239998D01*
X0128834Y0240699D02*
X0128133Y0241399D01*
X0127432Y0241399D01*
X0126732Y0240699D01*
X0126732Y0239297D01*
X0127432Y0238597D01*
X0126732Y0243201D02*
X0129534Y0243201D01*
X0130935Y0244602D01*
X0129534Y0246003D01*
X0126732Y0246003D01*
X0127432Y0247805D02*
X0126732Y0248505D01*
X0126732Y0249906D01*
X0127432Y0250607D01*
X0128133Y0250607D01*
X0128834Y0249906D01*
X0129534Y0250607D01*
X0130235Y0250607D01*
X0130935Y0249906D01*
X0130935Y0248505D01*
X0130235Y0247805D01*
X0128834Y0249206D02*
X0128834Y0249906D01*
X0120892Y0249906D02*
X0120892Y0247805D01*
X0116689Y0247805D01*
X0116689Y0249906D01*
X0117389Y0250607D01*
X0120192Y0250607D01*
X0120892Y0249906D01*
X0120892Y0246003D02*
X0116689Y0246003D01*
X0116689Y0243201D02*
X0120892Y0246003D01*
X0120892Y0243201D02*
X0116689Y0243201D01*
X0117389Y0241399D02*
X0116689Y0240699D01*
X0116689Y0239297D01*
X0117389Y0238597D01*
X0120192Y0238597D01*
X0120892Y0239297D01*
X0120892Y0240699D01*
X0120192Y0241399D01*
X0118791Y0241399D01*
X0118791Y0239998D01*
X0110883Y0240699D02*
X0110182Y0241399D01*
X0108781Y0241399D01*
X0108781Y0239998D01*
X0107380Y0238597D02*
X0110182Y0238597D01*
X0110883Y0239297D01*
X0110883Y0240699D01*
X0110883Y0243201D02*
X0106679Y0243201D01*
X0110883Y0246003D01*
X0106679Y0246003D01*
X0106679Y0247805D02*
X0106679Y0249906D01*
X0107380Y0250607D01*
X0110182Y0250607D01*
X0110883Y0249906D01*
X0110883Y0247805D01*
X0106679Y0247805D01*
X0100873Y0247805D02*
X0100873Y0249906D01*
X0100173Y0250607D01*
X0097370Y0250607D01*
X0096670Y0249906D01*
X0096670Y0247805D01*
X0100873Y0247805D01*
X0100873Y0246003D02*
X0096670Y0246003D01*
X0096670Y0243201D02*
X0100873Y0246003D01*
X0100873Y0243201D02*
X0096670Y0243201D01*
X0097370Y0241399D02*
X0096670Y0240699D01*
X0096670Y0239297D01*
X0097370Y0238597D01*
X0100173Y0238597D01*
X0100873Y0239297D01*
X0100873Y0240699D01*
X0100173Y0241399D01*
X0098772Y0241399D01*
X0098772Y0239998D01*
X0090864Y0240699D02*
X0090163Y0241399D01*
X0088762Y0241399D01*
X0088762Y0239998D01*
X0090163Y0238597D02*
X0090864Y0239297D01*
X0090864Y0240699D01*
X0090163Y0238597D02*
X0087361Y0238597D01*
X0086660Y0239297D01*
X0086660Y0240699D01*
X0087361Y0241399D01*
X0086660Y0243201D02*
X0090864Y0246003D01*
X0086660Y0246003D01*
X0086660Y0247805D02*
X0086660Y0249906D01*
X0087361Y0250607D01*
X0090163Y0250607D01*
X0090864Y0249906D01*
X0090864Y0247805D01*
X0086660Y0247805D01*
X0086660Y0243201D02*
X0090864Y0243201D01*
X0106679Y0240699D02*
X0106679Y0239297D01*
X0107380Y0238597D01*
X0106679Y0240699D02*
X0107380Y0241399D01*
X0146751Y0243201D02*
X0150954Y0243201D01*
X0150954Y0240699D02*
X0150954Y0239297D01*
X0150254Y0238597D01*
X0090851Y0211402D02*
X0086648Y0211402D01*
X0086648Y0208599D02*
X0090851Y0211402D01*
X0090851Y0208599D02*
X0086648Y0208599D01*
X0086648Y0206931D02*
X0086648Y0205530D01*
X0086648Y0206231D02*
X0090851Y0206231D01*
X0090851Y0206931D02*
X0090851Y0205530D01*
X0089450Y0203728D02*
X0086648Y0203728D01*
X0089450Y0203728D02*
X0090851Y0202327D01*
X0089450Y0200926D01*
X0086648Y0200926D01*
X0054346Y0203919D02*
X0054346Y0205320D01*
X0053645Y0206021D01*
X0050142Y0206021D01*
X0050843Y0207822D02*
X0051544Y0207822D01*
X0052244Y0208523D01*
X0052244Y0209924D01*
X0052945Y0210625D01*
X0053645Y0210625D01*
X0054346Y0209924D01*
X0054346Y0208523D01*
X0053645Y0207822D01*
X0050843Y0207822D02*
X0050142Y0208523D01*
X0050142Y0209924D01*
X0050843Y0210625D01*
X0050142Y0212426D02*
X0050142Y0214528D01*
X0050843Y0215229D01*
X0051544Y0215229D01*
X0052244Y0214528D01*
X0052244Y0212426D01*
X0054346Y0212426D02*
X0050142Y0212426D01*
X0052244Y0214528D02*
X0052945Y0215229D01*
X0053645Y0215229D01*
X0054346Y0214528D01*
X0054346Y0212426D01*
X0046846Y0213127D02*
X0046846Y0214528D01*
X0046145Y0215229D01*
X0043343Y0215229D01*
X0042642Y0214528D01*
X0042642Y0213127D01*
X0043343Y0212426D01*
X0046145Y0212426D01*
X0046846Y0213127D01*
X0046846Y0210625D02*
X0046846Y0207822D01*
X0042642Y0207822D01*
X0043343Y0206021D02*
X0044044Y0206021D01*
X0044744Y0205320D01*
X0044744Y0203219D01*
X0044744Y0205320D02*
X0045445Y0206021D01*
X0046145Y0206021D01*
X0046846Y0205320D01*
X0046846Y0203219D01*
X0042642Y0203219D01*
X0042642Y0205320D01*
X0043343Y0206021D01*
X0042642Y0201417D02*
X0046145Y0201417D01*
X0046846Y0200716D01*
X0046846Y0199315D01*
X0046145Y0198615D01*
X0042642Y0198615D01*
X0050142Y0203219D02*
X0053645Y0203219D01*
X0054346Y0203919D01*
X0046846Y0217030D02*
X0042642Y0219833D01*
X0042642Y0217030D02*
X0046846Y0219833D01*
X0110172Y0166195D02*
X0110873Y0166896D01*
X0111573Y0166896D01*
X0112274Y0166195D01*
X0112974Y0166896D01*
X0113675Y0166896D01*
X0114376Y0166195D01*
X0114376Y0164794D01*
X0113675Y0164094D01*
X0112974Y0162292D02*
X0110172Y0162292D01*
X0110873Y0164094D02*
X0110172Y0164794D01*
X0110172Y0166195D01*
X0112274Y0166195D02*
X0112274Y0165495D01*
X0112974Y0162292D02*
X0114376Y0160891D01*
X0112974Y0159490D01*
X0110172Y0159490D01*
X0110873Y0157688D02*
X0111573Y0157688D01*
X0112274Y0156988D01*
X0112974Y0157688D01*
X0113675Y0157688D01*
X0114376Y0156988D01*
X0114376Y0155586D01*
X0113675Y0154886D01*
X0112274Y0156287D02*
X0112274Y0156988D01*
X0110873Y0157688D02*
X0110172Y0156988D01*
X0110172Y0155586D01*
X0110873Y0154886D01*
X0112274Y0153084D02*
X0112274Y0150282D01*
X0110873Y0151683D02*
X0113675Y0151683D01*
X0121109Y0151683D02*
X0123911Y0151683D01*
X0122510Y0150282D02*
X0122510Y0153084D01*
X0121109Y0154886D02*
X0120408Y0155586D01*
X0120408Y0156988D01*
X0121109Y0157688D01*
X0121809Y0157688D01*
X0122510Y0156988D01*
X0123211Y0157688D01*
X0123911Y0157688D01*
X0124612Y0156988D01*
X0124612Y0155586D01*
X0123911Y0154886D01*
X0122510Y0156287D02*
X0122510Y0156988D01*
X0123211Y0159490D02*
X0120408Y0159490D01*
X0120408Y0162292D02*
X0123211Y0162292D01*
X0124612Y0160891D01*
X0123211Y0159490D01*
X0123911Y0164094D02*
X0124612Y0164794D01*
X0124612Y0166195D01*
X0123911Y0166896D01*
X0123211Y0166896D01*
X0122510Y0166195D01*
X0122510Y0165495D01*
X0122510Y0166195D02*
X0121809Y0166896D01*
X0121109Y0166896D01*
X0120408Y0166195D01*
X0120408Y0164794D01*
X0121109Y0164094D01*
X0120408Y0102024D02*
X0120408Y0099221D01*
X0120408Y0100622D02*
X0124612Y0100622D01*
X0124612Y0097420D02*
X0121809Y0097420D01*
X0120408Y0096019D01*
X0121809Y0094617D01*
X0124612Y0094617D01*
X0123911Y0092816D02*
X0124612Y0092115D01*
X0124612Y0090013D01*
X0120408Y0090013D01*
X0120408Y0092115D01*
X0121109Y0092816D01*
X0121809Y0092816D01*
X0122510Y0092115D01*
X0122510Y0090013D01*
X0123211Y0088212D02*
X0120408Y0088212D01*
X0120408Y0085409D02*
X0123211Y0085409D01*
X0124612Y0086811D01*
X0123211Y0088212D01*
X0122510Y0092115D02*
X0123211Y0092816D01*
X0123911Y0092816D01*
X0122510Y0094617D02*
X0122510Y0097420D01*
X0114376Y0096719D02*
X0113675Y0097420D01*
X0110873Y0097420D01*
X0110172Y0096719D01*
X0110172Y0094617D01*
X0114376Y0094617D01*
X0114376Y0096719D01*
X0114376Y0099221D02*
X0111573Y0099221D01*
X0110172Y0100622D01*
X0111573Y0102024D01*
X0114376Y0102024D01*
X0112274Y0102024D02*
X0112274Y0099221D01*
X0113675Y0092816D02*
X0110873Y0092816D01*
X0110172Y0092115D01*
X0110172Y0090013D01*
X0114376Y0090013D01*
X0114376Y0092115D01*
X0113675Y0092816D01*
X0112974Y0088212D02*
X0110172Y0088212D01*
X0112974Y0088212D02*
X0114376Y0086811D01*
X0112974Y0085409D01*
X0110172Y0085409D01*
X0231004Y0208599D02*
X0231004Y0211402D01*
X0231004Y0210000D02*
X0226800Y0210000D01*
X0345421Y0171019D02*
X0345421Y0168217D01*
X0349624Y0168217D01*
X0349624Y0171019D01*
X0347523Y0169618D02*
X0347523Y0168217D01*
X0348924Y0166415D02*
X0346121Y0166415D01*
X0345421Y0165714D01*
X0345421Y0163613D01*
X0349624Y0163613D01*
X0349624Y0165714D01*
X0348924Y0166415D01*
X0348924Y0161811D02*
X0346121Y0161811D01*
X0345421Y0161110D01*
X0345421Y0159709D01*
X0346121Y0159009D01*
X0348924Y0159009D01*
X0349624Y0159709D01*
X0349624Y0161110D01*
X0348924Y0161811D01*
X0349624Y0157207D02*
X0345421Y0157207D01*
X0346822Y0155806D01*
X0345421Y0154405D01*
X0349624Y0154405D01*
X0357394Y0157598D02*
X0357394Y0167480D01*
X0361331Y0172480D02*
X0373457Y0172480D01*
X0377394Y0167362D02*
X0377394Y0157598D01*
X0373457Y0152480D02*
X0361331Y0152480D01*
X0362394Y0162480D02*
X0362396Y0162621D01*
X0362402Y0162762D01*
X0362412Y0162902D01*
X0362426Y0163042D01*
X0362444Y0163182D01*
X0362465Y0163321D01*
X0362491Y0163460D01*
X0362520Y0163598D01*
X0362554Y0163734D01*
X0362591Y0163870D01*
X0362632Y0164005D01*
X0362677Y0164139D01*
X0362726Y0164271D01*
X0362778Y0164402D01*
X0362834Y0164531D01*
X0362894Y0164658D01*
X0362957Y0164784D01*
X0363023Y0164908D01*
X0363094Y0165031D01*
X0363167Y0165151D01*
X0363244Y0165269D01*
X0363324Y0165385D01*
X0363408Y0165498D01*
X0363494Y0165609D01*
X0363584Y0165718D01*
X0363677Y0165824D01*
X0363772Y0165927D01*
X0363871Y0166028D01*
X0363972Y0166126D01*
X0364076Y0166221D01*
X0364183Y0166313D01*
X0364292Y0166402D01*
X0364404Y0166487D01*
X0364518Y0166570D01*
X0364634Y0166650D01*
X0364753Y0166726D01*
X0364874Y0166798D01*
X0364996Y0166868D01*
X0365121Y0166933D01*
X0365247Y0166996D01*
X0365375Y0167054D01*
X0365505Y0167109D01*
X0365636Y0167161D01*
X0365769Y0167208D01*
X0365903Y0167252D01*
X0366038Y0167293D01*
X0366174Y0167329D01*
X0366311Y0167361D01*
X0366449Y0167390D01*
X0366587Y0167415D01*
X0366727Y0167435D01*
X0366867Y0167452D01*
X0367007Y0167465D01*
X0367148Y0167474D01*
X0367288Y0167479D01*
X0367429Y0167480D01*
X0367570Y0167477D01*
X0367711Y0167470D01*
X0367851Y0167459D01*
X0367991Y0167444D01*
X0368131Y0167425D01*
X0368270Y0167403D01*
X0368408Y0167376D01*
X0368546Y0167346D01*
X0368682Y0167311D01*
X0368818Y0167273D01*
X0368952Y0167231D01*
X0369086Y0167185D01*
X0369218Y0167136D01*
X0369348Y0167082D01*
X0369477Y0167025D01*
X0369604Y0166965D01*
X0369730Y0166901D01*
X0369853Y0166833D01*
X0369975Y0166762D01*
X0370095Y0166688D01*
X0370212Y0166610D01*
X0370327Y0166529D01*
X0370440Y0166445D01*
X0370551Y0166358D01*
X0370659Y0166267D01*
X0370764Y0166174D01*
X0370867Y0166077D01*
X0370967Y0165978D01*
X0371064Y0165876D01*
X0371158Y0165771D01*
X0371249Y0165664D01*
X0371337Y0165554D01*
X0371422Y0165442D01*
X0371504Y0165327D01*
X0371583Y0165210D01*
X0371658Y0165091D01*
X0371730Y0164970D01*
X0371798Y0164847D01*
X0371863Y0164722D01*
X0371925Y0164595D01*
X0371982Y0164466D01*
X0372037Y0164336D01*
X0372087Y0164205D01*
X0372134Y0164072D01*
X0372177Y0163938D01*
X0372216Y0163802D01*
X0372251Y0163666D01*
X0372283Y0163529D01*
X0372310Y0163391D01*
X0372334Y0163252D01*
X0372354Y0163112D01*
X0372370Y0162972D01*
X0372382Y0162832D01*
X0372390Y0162691D01*
X0372394Y0162550D01*
X0372394Y0162410D01*
X0372390Y0162269D01*
X0372382Y0162128D01*
X0372370Y0161988D01*
X0372354Y0161848D01*
X0372334Y0161708D01*
X0372310Y0161569D01*
X0372283Y0161431D01*
X0372251Y0161294D01*
X0372216Y0161158D01*
X0372177Y0161022D01*
X0372134Y0160888D01*
X0372087Y0160755D01*
X0372037Y0160624D01*
X0371982Y0160494D01*
X0371925Y0160365D01*
X0371863Y0160238D01*
X0371798Y0160113D01*
X0371730Y0159990D01*
X0371658Y0159869D01*
X0371583Y0159750D01*
X0371504Y0159633D01*
X0371422Y0159518D01*
X0371337Y0159406D01*
X0371249Y0159296D01*
X0371158Y0159189D01*
X0371064Y0159084D01*
X0370967Y0158982D01*
X0370867Y0158883D01*
X0370764Y0158786D01*
X0370659Y0158693D01*
X0370551Y0158602D01*
X0370440Y0158515D01*
X0370327Y0158431D01*
X0370212Y0158350D01*
X0370095Y0158272D01*
X0369975Y0158198D01*
X0369853Y0158127D01*
X0369730Y0158059D01*
X0369604Y0157995D01*
X0369477Y0157935D01*
X0369348Y0157878D01*
X0369218Y0157824D01*
X0369086Y0157775D01*
X0368952Y0157729D01*
X0368818Y0157687D01*
X0368682Y0157649D01*
X0368546Y0157614D01*
X0368408Y0157584D01*
X0368270Y0157557D01*
X0368131Y0157535D01*
X0367991Y0157516D01*
X0367851Y0157501D01*
X0367711Y0157490D01*
X0367570Y0157483D01*
X0367429Y0157480D01*
X0367288Y0157481D01*
X0367148Y0157486D01*
X0367007Y0157495D01*
X0366867Y0157508D01*
X0366727Y0157525D01*
X0366587Y0157545D01*
X0366449Y0157570D01*
X0366311Y0157599D01*
X0366174Y0157631D01*
X0366038Y0157667D01*
X0365903Y0157708D01*
X0365769Y0157752D01*
X0365636Y0157799D01*
X0365505Y0157851D01*
X0365375Y0157906D01*
X0365247Y0157964D01*
X0365121Y0158027D01*
X0364996Y0158092D01*
X0364874Y0158162D01*
X0364753Y0158234D01*
X0364634Y0158310D01*
X0364518Y0158390D01*
X0364404Y0158473D01*
X0364292Y0158558D01*
X0364183Y0158647D01*
X0364076Y0158739D01*
X0363972Y0158834D01*
X0363871Y0158932D01*
X0363772Y0159033D01*
X0363677Y0159136D01*
X0363584Y0159242D01*
X0363494Y0159351D01*
X0363408Y0159462D01*
X0363324Y0159575D01*
X0363244Y0159691D01*
X0363167Y0159809D01*
X0363094Y0159929D01*
X0363023Y0160052D01*
X0362957Y0160176D01*
X0362894Y0160302D01*
X0362834Y0160429D01*
X0362778Y0160558D01*
X0362726Y0160689D01*
X0362677Y0160821D01*
X0362632Y0160955D01*
X0362591Y0161090D01*
X0362554Y0161226D01*
X0362520Y0161362D01*
X0362491Y0161500D01*
X0362465Y0161639D01*
X0362444Y0161778D01*
X0362426Y0161918D01*
X0362412Y0162058D01*
X0362402Y0162198D01*
X0362396Y0162339D01*
X0362394Y0162480D01*
X0332348Y0139058D02*
X0331647Y0139759D01*
X0330246Y0139759D01*
X0330246Y0138358D01*
X0328845Y0139759D02*
X0328144Y0139058D01*
X0328144Y0137657D01*
X0328845Y0136956D01*
X0331647Y0136956D01*
X0332348Y0137657D01*
X0332348Y0139058D01*
X0331647Y0131885D02*
X0332348Y0131184D01*
X0332348Y0129082D01*
X0328144Y0129082D01*
X0328144Y0131184D01*
X0328845Y0131885D01*
X0329546Y0131885D01*
X0330246Y0131184D01*
X0330246Y0129082D01*
X0330246Y0131184D02*
X0330947Y0131885D01*
X0331647Y0131885D01*
X0332348Y0124011D02*
X0330947Y0122609D01*
X0330947Y0123310D02*
X0330947Y0121208D01*
X0332348Y0121208D02*
X0328144Y0121208D01*
X0328144Y0123310D01*
X0328845Y0124011D01*
X0330246Y0124011D01*
X0330947Y0123310D01*
X0345821Y0109733D02*
X0345821Y0106931D01*
X0345821Y0108332D02*
X0350024Y0108332D01*
X0350024Y0105130D02*
X0350024Y0102327D01*
X0345821Y0102327D01*
X0345821Y0105130D01*
X0347923Y0103728D02*
X0347923Y0102327D01*
X0348623Y0100526D02*
X0349324Y0100526D01*
X0350024Y0099825D01*
X0350024Y0098424D01*
X0349324Y0097723D01*
X0347923Y0098424D02*
X0347923Y0099825D01*
X0348623Y0100526D01*
X0346521Y0100526D02*
X0345821Y0099825D01*
X0345821Y0098424D01*
X0346521Y0097723D01*
X0347222Y0097723D01*
X0347923Y0098424D01*
X0350024Y0095922D02*
X0350024Y0093119D01*
X0345821Y0093119D01*
X0345821Y0095922D01*
X0347923Y0094520D02*
X0347923Y0093119D01*
X0347923Y0091318D02*
X0346521Y0091318D01*
X0345821Y0090617D01*
X0345821Y0088515D01*
X0350024Y0088515D01*
X0348623Y0088515D02*
X0348623Y0090617D01*
X0347923Y0091318D01*
X0348623Y0089917D02*
X0350024Y0091318D01*
X0357394Y0094606D02*
X0357394Y0104488D01*
X0361331Y0109488D02*
X0373457Y0109488D01*
X0377394Y0104370D02*
X0377394Y0094606D01*
X0373457Y0089488D02*
X0361331Y0089488D01*
X0362394Y0099488D02*
X0362396Y0099629D01*
X0362402Y0099770D01*
X0362412Y0099910D01*
X0362426Y0100050D01*
X0362444Y0100190D01*
X0362465Y0100329D01*
X0362491Y0100468D01*
X0362520Y0100606D01*
X0362554Y0100742D01*
X0362591Y0100878D01*
X0362632Y0101013D01*
X0362677Y0101147D01*
X0362726Y0101279D01*
X0362778Y0101410D01*
X0362834Y0101539D01*
X0362894Y0101666D01*
X0362957Y0101792D01*
X0363023Y0101916D01*
X0363094Y0102039D01*
X0363167Y0102159D01*
X0363244Y0102277D01*
X0363324Y0102393D01*
X0363408Y0102506D01*
X0363494Y0102617D01*
X0363584Y0102726D01*
X0363677Y0102832D01*
X0363772Y0102935D01*
X0363871Y0103036D01*
X0363972Y0103134D01*
X0364076Y0103229D01*
X0364183Y0103321D01*
X0364292Y0103410D01*
X0364404Y0103495D01*
X0364518Y0103578D01*
X0364634Y0103658D01*
X0364753Y0103734D01*
X0364874Y0103806D01*
X0364996Y0103876D01*
X0365121Y0103941D01*
X0365247Y0104004D01*
X0365375Y0104062D01*
X0365505Y0104117D01*
X0365636Y0104169D01*
X0365769Y0104216D01*
X0365903Y0104260D01*
X0366038Y0104301D01*
X0366174Y0104337D01*
X0366311Y0104369D01*
X0366449Y0104398D01*
X0366587Y0104423D01*
X0366727Y0104443D01*
X0366867Y0104460D01*
X0367007Y0104473D01*
X0367148Y0104482D01*
X0367288Y0104487D01*
X0367429Y0104488D01*
X0367570Y0104485D01*
X0367711Y0104478D01*
X0367851Y0104467D01*
X0367991Y0104452D01*
X0368131Y0104433D01*
X0368270Y0104411D01*
X0368408Y0104384D01*
X0368546Y0104354D01*
X0368682Y0104319D01*
X0368818Y0104281D01*
X0368952Y0104239D01*
X0369086Y0104193D01*
X0369218Y0104144D01*
X0369348Y0104090D01*
X0369477Y0104033D01*
X0369604Y0103973D01*
X0369730Y0103909D01*
X0369853Y0103841D01*
X0369975Y0103770D01*
X0370095Y0103696D01*
X0370212Y0103618D01*
X0370327Y0103537D01*
X0370440Y0103453D01*
X0370551Y0103366D01*
X0370659Y0103275D01*
X0370764Y0103182D01*
X0370867Y0103085D01*
X0370967Y0102986D01*
X0371064Y0102884D01*
X0371158Y0102779D01*
X0371249Y0102672D01*
X0371337Y0102562D01*
X0371422Y0102450D01*
X0371504Y0102335D01*
X0371583Y0102218D01*
X0371658Y0102099D01*
X0371730Y0101978D01*
X0371798Y0101855D01*
X0371863Y0101730D01*
X0371925Y0101603D01*
X0371982Y0101474D01*
X0372037Y0101344D01*
X0372087Y0101213D01*
X0372134Y0101080D01*
X0372177Y0100946D01*
X0372216Y0100810D01*
X0372251Y0100674D01*
X0372283Y0100537D01*
X0372310Y0100399D01*
X0372334Y0100260D01*
X0372354Y0100120D01*
X0372370Y0099980D01*
X0372382Y0099840D01*
X0372390Y0099699D01*
X0372394Y0099558D01*
X0372394Y0099418D01*
X0372390Y0099277D01*
X0372382Y0099136D01*
X0372370Y0098996D01*
X0372354Y0098856D01*
X0372334Y0098716D01*
X0372310Y0098577D01*
X0372283Y0098439D01*
X0372251Y0098302D01*
X0372216Y0098166D01*
X0372177Y0098030D01*
X0372134Y0097896D01*
X0372087Y0097763D01*
X0372037Y0097632D01*
X0371982Y0097502D01*
X0371925Y0097373D01*
X0371863Y0097246D01*
X0371798Y0097121D01*
X0371730Y0096998D01*
X0371658Y0096877D01*
X0371583Y0096758D01*
X0371504Y0096641D01*
X0371422Y0096526D01*
X0371337Y0096414D01*
X0371249Y0096304D01*
X0371158Y0096197D01*
X0371064Y0096092D01*
X0370967Y0095990D01*
X0370867Y0095891D01*
X0370764Y0095794D01*
X0370659Y0095701D01*
X0370551Y0095610D01*
X0370440Y0095523D01*
X0370327Y0095439D01*
X0370212Y0095358D01*
X0370095Y0095280D01*
X0369975Y0095206D01*
X0369853Y0095135D01*
X0369730Y0095067D01*
X0369604Y0095003D01*
X0369477Y0094943D01*
X0369348Y0094886D01*
X0369218Y0094832D01*
X0369086Y0094783D01*
X0368952Y0094737D01*
X0368818Y0094695D01*
X0368682Y0094657D01*
X0368546Y0094622D01*
X0368408Y0094592D01*
X0368270Y0094565D01*
X0368131Y0094543D01*
X0367991Y0094524D01*
X0367851Y0094509D01*
X0367711Y0094498D01*
X0367570Y0094491D01*
X0367429Y0094488D01*
X0367288Y0094489D01*
X0367148Y0094494D01*
X0367007Y0094503D01*
X0366867Y0094516D01*
X0366727Y0094533D01*
X0366587Y0094553D01*
X0366449Y0094578D01*
X0366311Y0094607D01*
X0366174Y0094639D01*
X0366038Y0094675D01*
X0365903Y0094716D01*
X0365769Y0094760D01*
X0365636Y0094807D01*
X0365505Y0094859D01*
X0365375Y0094914D01*
X0365247Y0094972D01*
X0365121Y0095035D01*
X0364996Y0095100D01*
X0364874Y0095170D01*
X0364753Y0095242D01*
X0364634Y0095318D01*
X0364518Y0095398D01*
X0364404Y0095481D01*
X0364292Y0095566D01*
X0364183Y0095655D01*
X0364076Y0095747D01*
X0363972Y0095842D01*
X0363871Y0095940D01*
X0363772Y0096041D01*
X0363677Y0096144D01*
X0363584Y0096250D01*
X0363494Y0096359D01*
X0363408Y0096470D01*
X0363324Y0096583D01*
X0363244Y0096699D01*
X0363167Y0096817D01*
X0363094Y0096937D01*
X0363023Y0097060D01*
X0362957Y0097184D01*
X0362894Y0097310D01*
X0362834Y0097437D01*
X0362778Y0097566D01*
X0362726Y0097697D01*
X0362677Y0097829D01*
X0362632Y0097963D01*
X0362591Y0098098D01*
X0362554Y0098234D01*
X0362520Y0098370D01*
X0362491Y0098508D01*
X0362465Y0098647D01*
X0362444Y0098786D01*
X0362426Y0098926D01*
X0362412Y0099066D01*
X0362402Y0099206D01*
X0362396Y0099347D01*
X0362394Y0099488D01*
X0400465Y0071535D02*
X0408339Y0071535D01*
X0408339Y0069173D01*
X0408339Y0043189D01*
X0408339Y0040827D01*
X0400465Y0040827D01*
X0408339Y0043189D02*
X0411882Y0043189D01*
X0411882Y0044764D01*
X0411882Y0067598D01*
X0415031Y0067598D01*
X0415031Y0044764D01*
X0415031Y0043189D01*
X0418575Y0043189D01*
X0418575Y0038858D01*
X0422118Y0038858D01*
X0422118Y0042795D01*
X0422118Y0047520D01*
X0422118Y0064843D01*
X0422118Y0069567D01*
X0422118Y0073504D01*
X0418575Y0073504D01*
X0418575Y0069173D01*
X0418575Y0064843D01*
X0422118Y0064843D01*
X0418575Y0064843D02*
X0418575Y0047520D01*
X0418575Y0043189D01*
X0422118Y0042795D02*
X0446134Y0042795D01*
X0447315Y0044764D01*
X0447315Y0067598D01*
X0449677Y0067598D01*
X0449677Y0044764D01*
X0447315Y0044764D01*
X0422118Y0047520D02*
X0418575Y0047520D01*
X0415031Y0044764D02*
X0411882Y0044764D01*
X0400465Y0051850D02*
X0400465Y0060512D01*
X0408339Y0069173D02*
X0411882Y0069173D01*
X0411882Y0067598D01*
X0415031Y0067598D02*
X0415031Y0069173D01*
X0418575Y0069173D01*
X0422118Y0069567D02*
X0446134Y0069567D01*
X0447315Y0067598D01*
X0391409Y0069567D02*
X0382748Y0069567D01*
X0373693Y0060512D02*
X0373693Y0051850D01*
X0382748Y0042795D02*
X0391409Y0042795D01*
X0363776Y0128518D02*
X0363778Y0128538D01*
X0363784Y0128556D01*
X0363793Y0128574D01*
X0363805Y0128589D01*
X0363820Y0128601D01*
X0363838Y0128610D01*
X0363856Y0128616D01*
X0363876Y0128618D01*
X0363896Y0128616D01*
X0363914Y0128610D01*
X0363932Y0128601D01*
X0363947Y0128589D01*
X0363959Y0128574D01*
X0363968Y0128556D01*
X0363974Y0128538D01*
X0363976Y0128518D01*
X0363974Y0128498D01*
X0363968Y0128480D01*
X0363959Y0128462D01*
X0363947Y0128447D01*
X0363932Y0128435D01*
X0363914Y0128426D01*
X0363896Y0128420D01*
X0363876Y0128418D01*
X0363856Y0128420D01*
X0363838Y0128426D01*
X0363820Y0128435D01*
X0363805Y0128447D01*
X0363793Y0128462D01*
X0363784Y0128480D01*
X0363778Y0128498D01*
X0363776Y0128518D01*
D11*
X0341350Y0215472D02*
X0336350Y0215472D01*
X0333850Y0217972D01*
X0333850Y0232972D01*
X0336350Y0235472D01*
X0341350Y0235472D01*
X0343850Y0232972D01*
X0343850Y0217972D01*
X0341350Y0215472D01*
X0333850Y0217972D02*
X0331350Y0215472D01*
X0326350Y0215472D01*
X0323850Y0217972D01*
X0323850Y0232972D01*
X0326350Y0235472D01*
X0331350Y0235472D01*
X0333850Y0232972D01*
X0323850Y0232972D02*
X0321350Y0235472D01*
X0316350Y0235472D01*
X0313850Y0232972D01*
X0313850Y0217972D01*
X0311350Y0215472D01*
X0306350Y0215472D01*
X0303850Y0217972D01*
X0303850Y0232972D01*
X0306350Y0235472D01*
X0311350Y0235472D01*
X0313850Y0232972D01*
X0303850Y0232972D02*
X0301350Y0235472D01*
X0296350Y0235472D01*
X0293850Y0232972D01*
X0293850Y0217972D01*
X0296350Y0215472D01*
X0301350Y0215472D01*
X0303850Y0217972D01*
X0293850Y0217972D02*
X0291350Y0215472D01*
X0286350Y0215472D01*
X0283850Y0217972D01*
X0283850Y0232972D01*
X0286350Y0235472D01*
X0291350Y0235472D01*
X0293850Y0232972D01*
X0283850Y0232972D02*
X0281350Y0235472D01*
X0276350Y0235472D01*
X0273850Y0232972D01*
X0273850Y0217972D01*
X0276350Y0215472D01*
X0281350Y0215472D01*
X0283850Y0217972D01*
X0273850Y0217972D02*
X0271350Y0215472D01*
X0266350Y0215472D01*
X0263850Y0217972D01*
X0263850Y0232972D01*
X0266350Y0235472D01*
X0271350Y0235472D01*
X0273850Y0232972D01*
X0263850Y0232972D02*
X0261350Y0235472D01*
X0256350Y0235472D01*
X0253850Y0232972D01*
X0253850Y0217972D01*
X0251350Y0215472D01*
X0246350Y0215472D01*
X0243850Y0217972D01*
X0243850Y0232972D01*
X0246350Y0235472D01*
X0251350Y0235472D01*
X0253850Y0232972D01*
X0243850Y0232972D02*
X0241350Y0235472D01*
X0236350Y0235472D01*
X0233850Y0232972D01*
X0233850Y0217972D01*
X0236350Y0215472D01*
X0241350Y0215472D01*
X0243850Y0217972D01*
X0253850Y0217972D02*
X0256350Y0215472D01*
X0261350Y0215472D01*
X0263850Y0217972D01*
X0233850Y0217972D02*
X0231350Y0215472D01*
X0226350Y0215472D01*
X0223850Y0217972D01*
X0223850Y0232972D01*
X0226350Y0235472D01*
X0231350Y0235472D01*
X0233850Y0232972D01*
X0223850Y0232972D02*
X0221350Y0235472D01*
X0216350Y0235472D01*
X0213850Y0232972D01*
X0213850Y0217972D01*
X0216350Y0215472D01*
X0221350Y0215472D01*
X0223850Y0217972D01*
X0213850Y0217972D02*
X0211350Y0215472D01*
X0206350Y0215472D01*
X0203850Y0217972D01*
X0203850Y0232972D01*
X0206350Y0235472D01*
X0211350Y0235472D01*
X0213850Y0232972D01*
X0203850Y0232972D02*
X0201350Y0235472D01*
X0196350Y0235472D01*
X0193850Y0232972D01*
X0193850Y0217972D01*
X0196350Y0215472D01*
X0201350Y0215472D01*
X0203850Y0217972D01*
X0193850Y0217972D02*
X0191350Y0215472D01*
X0186350Y0215472D01*
X0183850Y0217972D01*
X0183850Y0232972D01*
X0186350Y0235472D01*
X0191350Y0235472D01*
X0193850Y0232972D01*
X0183850Y0232972D02*
X0181350Y0235472D01*
X0176350Y0235472D01*
X0173850Y0232972D01*
X0173850Y0217972D01*
X0176350Y0215472D01*
X0181350Y0215472D01*
X0183850Y0217972D01*
X0173850Y0217972D02*
X0171350Y0215472D01*
X0166350Y0215472D01*
X0163850Y0217972D01*
X0163850Y0232972D01*
X0166350Y0235472D01*
X0171350Y0235472D01*
X0173850Y0232972D01*
X0163850Y0232972D02*
X0161350Y0235472D01*
X0156350Y0235472D01*
X0153850Y0232972D01*
X0153850Y0217972D01*
X0151350Y0215472D01*
X0146350Y0215472D01*
X0143850Y0217972D01*
X0143850Y0232972D01*
X0146350Y0235472D01*
X0151350Y0235472D01*
X0153850Y0232972D01*
X0143850Y0232972D02*
X0141350Y0235472D01*
X0136350Y0235472D01*
X0133850Y0232972D01*
X0133850Y0217972D01*
X0136350Y0215472D01*
X0141350Y0215472D01*
X0143850Y0217972D01*
X0133850Y0217972D02*
X0131350Y0215472D01*
X0126350Y0215472D01*
X0123850Y0217972D01*
X0123850Y0232972D01*
X0126350Y0235472D01*
X0131350Y0235472D01*
X0133850Y0232972D01*
X0123850Y0232972D02*
X0121350Y0235472D01*
X0116350Y0235472D01*
X0113850Y0232972D01*
X0113850Y0217972D01*
X0116350Y0215472D01*
X0121350Y0215472D01*
X0123850Y0217972D01*
X0113850Y0217972D02*
X0111350Y0215472D01*
X0106350Y0215472D01*
X0103850Y0217972D01*
X0103850Y0232972D01*
X0106350Y0235472D01*
X0111350Y0235472D01*
X0113850Y0232972D01*
X0103850Y0232972D02*
X0101350Y0235472D01*
X0096350Y0235472D01*
X0093850Y0232972D01*
X0093850Y0217972D01*
X0096350Y0215472D01*
X0101350Y0215472D01*
X0103850Y0217972D01*
X0093850Y0217972D02*
X0091350Y0215472D01*
X0086350Y0215472D01*
X0083850Y0217972D01*
X0083850Y0232972D01*
X0086350Y0235472D01*
X0091350Y0235472D01*
X0093850Y0232972D01*
X0153850Y0217972D02*
X0156350Y0215472D01*
X0161350Y0215472D01*
X0163850Y0217972D01*
X0129799Y0138962D02*
X0104799Y0138962D01*
X0104799Y0113762D01*
X0129799Y0113762D01*
X0129799Y0138962D01*
X0125299Y0134362D02*
X0119299Y0134362D01*
X0119299Y0118362D01*
X0125299Y0118362D01*
X0125299Y0134362D01*
X0115299Y0134362D02*
X0115299Y0118362D01*
X0109299Y0118362D01*
X0109299Y0134362D01*
X0115299Y0134362D01*
X0068545Y0072924D02*
X0069113Y0072357D01*
X0069113Y0071223D01*
X0068545Y0070656D01*
X0066277Y0070656D01*
X0065710Y0071223D01*
X0065710Y0072357D01*
X0066277Y0072924D01*
X0066277Y0069241D02*
X0065710Y0068674D01*
X0065710Y0066973D01*
X0069113Y0066973D01*
X0069113Y0068674D01*
X0068545Y0069241D01*
X0066277Y0069241D01*
X0065710Y0065558D02*
X0067978Y0065558D01*
X0069113Y0064424D01*
X0067978Y0063290D01*
X0065710Y0063290D01*
X0066277Y0061875D02*
X0065710Y0061308D01*
X0065710Y0060174D01*
X0066277Y0059606D01*
X0066277Y0061875D02*
X0066844Y0061875D01*
X0069113Y0059606D01*
X0069113Y0061875D01*
X0071710Y0060741D02*
X0072844Y0061875D01*
X0075113Y0061875D01*
X0075113Y0063290D02*
X0071710Y0065558D01*
X0071710Y0063290D02*
X0075113Y0065558D01*
X0079989Y0068197D02*
X0082257Y0068197D01*
X0081123Y0069331D02*
X0081123Y0067062D01*
X0073411Y0061875D02*
X0073411Y0059606D01*
X0072844Y0059606D02*
X0071710Y0060741D01*
X0072844Y0059606D02*
X0075113Y0059606D01*
X0075113Y0058192D02*
X0071710Y0058192D01*
X0072844Y0057058D01*
X0071710Y0055923D01*
X0075113Y0055923D01*
X0069113Y0055923D02*
X0069113Y0058192D01*
X0069113Y0057058D02*
X0065710Y0057058D01*
X0066844Y0055923D01*
X0067411Y0054509D02*
X0067411Y0052240D01*
X0067978Y0050826D02*
X0065710Y0050826D01*
X0067978Y0050826D02*
X0069113Y0049691D01*
X0067978Y0048557D01*
X0065710Y0048557D01*
X0065710Y0047142D02*
X0065710Y0044874D01*
X0067411Y0044874D01*
X0066844Y0046008D01*
X0066844Y0046575D01*
X0067411Y0047142D01*
X0068545Y0047142D01*
X0069113Y0046575D01*
X0069113Y0045441D01*
X0068545Y0044874D01*
X0313850Y0217972D02*
X0316350Y0215472D01*
X0321350Y0215472D01*
X0323850Y0217972D01*
D12*
X0081124Y0065362D02*
X0081124Y0059562D01*
X0084124Y0061762D02*
X0084185Y0061659D01*
X0084242Y0061554D01*
X0084296Y0061448D01*
X0084346Y0061339D01*
X0084393Y0061229D01*
X0084436Y0061118D01*
X0084476Y0061005D01*
X0084511Y0060891D01*
X0084543Y0060775D01*
X0084572Y0060659D01*
X0084596Y0060542D01*
X0084616Y0060424D01*
X0084633Y0060306D01*
X0084645Y0060187D01*
X0084654Y0060068D01*
X0084659Y0059949D01*
X0084660Y0059829D01*
X0084657Y0059709D01*
X0084650Y0059590D01*
X0084639Y0059471D01*
X0084624Y0059352D01*
X0084605Y0059234D01*
X0084583Y0059117D01*
X0084556Y0059000D01*
X0084526Y0058885D01*
X0084492Y0058770D01*
X0084454Y0058657D01*
X0084413Y0058545D01*
X0084368Y0058434D01*
X0084319Y0058325D01*
X0084267Y0058217D01*
X0084211Y0058112D01*
X0084152Y0058008D01*
X0084089Y0057906D01*
X0084023Y0057806D01*
X0083954Y0057709D01*
X0083882Y0057614D01*
X0083806Y0057521D01*
X0083728Y0057431D01*
X0083646Y0057343D01*
X0083562Y0057258D01*
X0083475Y0057176D01*
X0083385Y0057097D01*
X0083293Y0057021D01*
X0083199Y0056948D01*
X0083102Y0056878D01*
X0083003Y0056811D01*
X0082901Y0056748D01*
X0082798Y0056688D01*
X0082692Y0056631D01*
X0082585Y0056578D01*
X0082477Y0056529D01*
X0082366Y0056483D01*
X0082254Y0056441D01*
X0082141Y0056402D01*
X0082027Y0056367D01*
X0081912Y0056336D01*
X0081795Y0056309D01*
X0081678Y0056285D01*
X0081560Y0056266D01*
X0081441Y0056250D01*
X0081323Y0056238D01*
X0081203Y0056230D01*
X0081084Y0056226D01*
X0080964Y0056226D01*
X0080845Y0056230D01*
X0080725Y0056238D01*
X0080607Y0056250D01*
X0080488Y0056266D01*
X0080370Y0056285D01*
X0080253Y0056309D01*
X0080136Y0056336D01*
X0080021Y0056367D01*
X0079907Y0056402D01*
X0079794Y0056441D01*
X0079682Y0056483D01*
X0079571Y0056529D01*
X0079463Y0056578D01*
X0079356Y0056631D01*
X0079250Y0056688D01*
X0079147Y0056748D01*
X0079045Y0056811D01*
X0078946Y0056878D01*
X0078849Y0056948D01*
X0078755Y0057021D01*
X0078663Y0057097D01*
X0078573Y0057176D01*
X0078486Y0057258D01*
X0078402Y0057343D01*
X0078320Y0057431D01*
X0078242Y0057521D01*
X0078166Y0057614D01*
X0078094Y0057709D01*
X0078025Y0057806D01*
X0077959Y0057906D01*
X0077896Y0058008D01*
X0077837Y0058112D01*
X0077781Y0058217D01*
X0077729Y0058325D01*
X0077680Y0058434D01*
X0077635Y0058545D01*
X0077594Y0058657D01*
X0077556Y0058770D01*
X0077522Y0058885D01*
X0077492Y0059000D01*
X0077465Y0059117D01*
X0077443Y0059234D01*
X0077424Y0059352D01*
X0077409Y0059471D01*
X0077398Y0059590D01*
X0077391Y0059709D01*
X0077388Y0059829D01*
X0077389Y0059949D01*
X0077394Y0060068D01*
X0077403Y0060187D01*
X0077415Y0060306D01*
X0077432Y0060424D01*
X0077452Y0060542D01*
X0077476Y0060659D01*
X0077505Y0060775D01*
X0077537Y0060891D01*
X0077572Y0061005D01*
X0077612Y0061118D01*
X0077655Y0061229D01*
X0077702Y0061339D01*
X0077752Y0061448D01*
X0077806Y0061554D01*
X0077863Y0061659D01*
X0077924Y0061762D01*
X0080299Y0059962D02*
X0080301Y0060019D01*
X0080307Y0060076D01*
X0080317Y0060132D01*
X0080330Y0060187D01*
X0080348Y0060241D01*
X0080369Y0060294D01*
X0080393Y0060345D01*
X0080422Y0060395D01*
X0080453Y0060442D01*
X0080488Y0060487D01*
X0080526Y0060530D01*
X0080566Y0060570D01*
X0080610Y0060607D01*
X0080655Y0060641D01*
X0080703Y0060672D01*
X0080753Y0060699D01*
X0080805Y0060723D01*
X0080858Y0060743D01*
X0080913Y0060759D01*
X0080968Y0060772D01*
X0081025Y0060781D01*
X0081081Y0060786D01*
X0081138Y0060787D01*
X0081195Y0060784D01*
X0081252Y0060777D01*
X0081308Y0060766D01*
X0081363Y0060752D01*
X0081417Y0060733D01*
X0081469Y0060711D01*
X0081520Y0060686D01*
X0081569Y0060657D01*
X0081616Y0060624D01*
X0081660Y0060589D01*
X0081702Y0060550D01*
X0081742Y0060509D01*
X0081778Y0060465D01*
X0081811Y0060419D01*
X0081841Y0060370D01*
X0081867Y0060320D01*
X0081890Y0060268D01*
X0081909Y0060214D01*
X0081925Y0060159D01*
X0081937Y0060104D01*
X0081945Y0060047D01*
X0081949Y0059990D01*
X0081949Y0059934D01*
X0081945Y0059877D01*
X0081937Y0059820D01*
X0081925Y0059765D01*
X0081909Y0059710D01*
X0081890Y0059656D01*
X0081867Y0059604D01*
X0081841Y0059554D01*
X0081811Y0059505D01*
X0081778Y0059459D01*
X0081742Y0059415D01*
X0081702Y0059374D01*
X0081660Y0059335D01*
X0081616Y0059300D01*
X0081569Y0059267D01*
X0081520Y0059238D01*
X0081469Y0059213D01*
X0081417Y0059191D01*
X0081363Y0059172D01*
X0081308Y0059158D01*
X0081252Y0059147D01*
X0081195Y0059140D01*
X0081138Y0059137D01*
X0081081Y0059138D01*
X0081025Y0059143D01*
X0080968Y0059152D01*
X0080913Y0059165D01*
X0080858Y0059181D01*
X0080805Y0059201D01*
X0080753Y0059225D01*
X0080703Y0059252D01*
X0080655Y0059283D01*
X0080610Y0059317D01*
X0080566Y0059354D01*
X0080526Y0059394D01*
X0080488Y0059437D01*
X0080453Y0059482D01*
X0080422Y0059529D01*
X0080393Y0059579D01*
X0080369Y0059630D01*
X0080348Y0059683D01*
X0080330Y0059737D01*
X0080317Y0059792D01*
X0080307Y0059848D01*
X0080301Y0059905D01*
X0080299Y0059962D01*
X0081124Y0056162D02*
X0081124Y0052162D01*
D13*
X0049706Y0058978D02*
X0048305Y0058978D01*
X0049005Y0058978D02*
X0049005Y0061080D01*
X0048305Y0060380D01*
X0047496Y0061080D02*
X0046795Y0061080D01*
X0047146Y0061080D02*
X0047146Y0059329D01*
X0046795Y0058978D01*
X0046445Y0058978D01*
X0046095Y0059329D01*
X0020318Y0084895D02*
X0020668Y0085245D01*
X0020668Y0085595D01*
X0020318Y0085946D01*
X0018566Y0085946D01*
X0018566Y0086296D02*
X0018566Y0085595D01*
X0019617Y0087105D02*
X0019617Y0088506D01*
X0018566Y0088156D02*
X0019617Y0087105D01*
X0020668Y0088156D02*
X0018566Y0088156D01*
X0025496Y0107150D02*
X0025496Y0107850D01*
X0025496Y0107500D02*
X0027248Y0107500D01*
X0027598Y0107150D01*
X0027598Y0106800D01*
X0027248Y0106449D01*
X0027598Y0108659D02*
X0025496Y0108659D01*
X0025496Y0109710D01*
X0025847Y0110060D01*
X0026547Y0110060D01*
X0026897Y0109710D01*
X0026897Y0108659D01*
X0026197Y0110869D02*
X0025496Y0111570D01*
X0027598Y0111570D01*
X0027598Y0112270D02*
X0027598Y0110869D01*
X0054993Y0101081D02*
X0055344Y0100730D01*
X0055694Y0100730D01*
X0056044Y0101081D01*
X0056044Y0102832D01*
X0055694Y0102832D02*
X0056394Y0102832D01*
X0057203Y0102482D02*
X0057553Y0102832D01*
X0058254Y0102832D01*
X0058604Y0102482D01*
X0058604Y0102132D01*
X0057203Y0100730D01*
X0058604Y0100730D01*
X0073723Y0111199D02*
X0074073Y0110848D01*
X0075475Y0110848D01*
X0075825Y0111199D01*
X0075825Y0111899D01*
X0075475Y0112250D01*
X0075475Y0113058D02*
X0075825Y0113409D01*
X0075825Y0114109D01*
X0075475Y0114459D01*
X0075124Y0114459D01*
X0074774Y0114109D01*
X0074774Y0113759D01*
X0074774Y0114109D02*
X0074424Y0114459D01*
X0074073Y0114459D01*
X0073723Y0114109D01*
X0073723Y0113409D01*
X0074073Y0113058D01*
X0074073Y0112250D02*
X0073723Y0111899D01*
X0073723Y0111199D01*
X0119266Y0127512D02*
X0121735Y0127512D01*
X0120500Y0127512D02*
X0120500Y0131215D01*
X0119266Y0129981D01*
X0106386Y0140122D02*
X0106386Y0142223D01*
X0105335Y0141173D01*
X0106737Y0141173D01*
X0104527Y0140822D02*
X0104527Y0140472D01*
X0104176Y0140122D01*
X0103476Y0140122D01*
X0103126Y0140472D01*
X0103476Y0141173D02*
X0104176Y0141173D01*
X0104527Y0140822D01*
X0104527Y0141873D02*
X0104176Y0142223D01*
X0103476Y0142223D01*
X0103126Y0141873D01*
X0103126Y0141523D01*
X0103476Y0141173D01*
X0053966Y0143688D02*
X0052565Y0143688D01*
X0053966Y0145089D01*
X0053966Y0145439D01*
X0053616Y0145790D01*
X0052915Y0145790D01*
X0052565Y0145439D01*
X0051756Y0145439D02*
X0051756Y0144739D01*
X0051406Y0144388D01*
X0050355Y0144388D01*
X0050355Y0143688D02*
X0050355Y0145790D01*
X0051406Y0145790D01*
X0051756Y0145439D01*
X0049547Y0145790D02*
X0048846Y0145790D01*
X0049196Y0145790D02*
X0049196Y0144038D01*
X0048846Y0143688D01*
X0048496Y0143688D01*
X0048145Y0144038D01*
X0041363Y0144403D02*
X0039962Y0144403D01*
X0041013Y0145454D01*
X0041013Y0143352D01*
X0039154Y0143352D02*
X0038453Y0144053D01*
X0038803Y0144053D02*
X0037752Y0144053D01*
X0037752Y0143352D02*
X0037752Y0145454D01*
X0038803Y0145454D01*
X0039154Y0145104D01*
X0039154Y0144403D01*
X0038803Y0144053D01*
X0030112Y0143330D02*
X0028711Y0143330D01*
X0029412Y0143330D02*
X0029412Y0145432D01*
X0028711Y0144731D01*
X0027902Y0145081D02*
X0027552Y0145432D01*
X0026501Y0145432D01*
X0026501Y0143330D01*
X0027552Y0143330D01*
X0027902Y0143680D01*
X0027902Y0145081D01*
X0025693Y0145432D02*
X0024291Y0145432D01*
X0024291Y0143330D01*
X0025693Y0143330D01*
X0024992Y0144381D02*
X0024291Y0144381D01*
X0023483Y0143330D02*
X0022081Y0143330D01*
X0022081Y0145432D01*
X0123398Y0076202D02*
X0123398Y0074801D01*
X0122347Y0075852D01*
X0124448Y0075852D01*
X0124098Y0073992D02*
X0124448Y0073642D01*
X0124448Y0072941D01*
X0124098Y0072591D01*
X0122697Y0072591D01*
X0122347Y0072941D01*
X0122347Y0073642D01*
X0122697Y0073992D01*
X0130221Y0073642D02*
X0130221Y0072941D01*
X0130571Y0072591D01*
X0131972Y0072591D01*
X0132322Y0072941D01*
X0132322Y0073642D01*
X0131972Y0073992D01*
X0131972Y0074801D02*
X0132322Y0075151D01*
X0132322Y0075852D01*
X0131972Y0076202D01*
X0131272Y0076202D01*
X0130921Y0075852D01*
X0130921Y0075501D01*
X0131272Y0074801D01*
X0130221Y0074801D01*
X0130221Y0076202D01*
X0130571Y0073992D02*
X0130221Y0073642D01*
X0130965Y0028958D02*
X0130614Y0028608D01*
X0130614Y0027907D01*
X0130965Y0027557D01*
X0130965Y0026748D02*
X0130614Y0026398D01*
X0130614Y0025697D01*
X0130965Y0025347D01*
X0132366Y0025347D01*
X0132716Y0025697D01*
X0132716Y0026398D01*
X0132366Y0026748D01*
X0132716Y0027557D02*
X0131315Y0028958D01*
X0130965Y0028958D01*
X0132716Y0028958D02*
X0132716Y0027557D01*
X0123267Y0027557D02*
X0123267Y0028958D01*
X0123267Y0028257D02*
X0121166Y0028257D01*
X0121866Y0027557D01*
X0121516Y0026748D02*
X0121166Y0026398D01*
X0121166Y0025697D01*
X0121516Y0025347D01*
X0122917Y0025347D01*
X0123267Y0025697D01*
X0123267Y0026398D01*
X0122917Y0026748D01*
X0101228Y0008281D02*
X0100528Y0007931D01*
X0099827Y0007230D01*
X0100878Y0007230D01*
X0101228Y0006880D01*
X0101228Y0006529D01*
X0100878Y0006179D01*
X0100177Y0006179D01*
X0099827Y0006529D01*
X0099827Y0007230D01*
X0099018Y0006529D02*
X0098668Y0006179D01*
X0097968Y0006179D01*
X0097617Y0006529D01*
X0097617Y0007931D01*
X0097968Y0008281D01*
X0098668Y0008281D01*
X0099018Y0007931D01*
X0074457Y0007931D02*
X0073055Y0006529D01*
X0073055Y0006179D01*
X0072247Y0006529D02*
X0071897Y0006179D01*
X0071196Y0006179D01*
X0070846Y0006529D01*
X0070846Y0007931D01*
X0071196Y0008281D01*
X0071897Y0008281D01*
X0072247Y0007931D01*
X0073055Y0008281D02*
X0074457Y0008281D01*
X0074457Y0007931D01*
X0336670Y0117498D02*
X0337020Y0117148D01*
X0337370Y0117148D01*
X0337721Y0117498D01*
X0337721Y0119249D01*
X0338071Y0119249D02*
X0337370Y0119249D01*
X0338880Y0119249D02*
X0338880Y0117148D01*
X0338880Y0117848D02*
X0339931Y0117848D01*
X0340281Y0118199D01*
X0340281Y0118899D01*
X0339931Y0119249D01*
X0338880Y0119249D01*
X0341090Y0118899D02*
X0341440Y0119249D01*
X0342140Y0119249D01*
X0342491Y0118899D01*
X0342491Y0118549D01*
X0342140Y0118199D01*
X0342491Y0117848D01*
X0342491Y0117498D01*
X0342140Y0117148D01*
X0341440Y0117148D01*
X0341090Y0117498D01*
X0341790Y0118199D02*
X0342140Y0118199D01*
X0345447Y0127819D02*
X0345797Y0128170D01*
X0345797Y0128520D01*
X0345447Y0128870D01*
X0343695Y0128870D01*
X0343695Y0128520D02*
X0343695Y0129221D01*
X0343695Y0130029D02*
X0343695Y0131080D01*
X0344046Y0131430D01*
X0344746Y0131430D01*
X0345097Y0131080D01*
X0345097Y0130029D01*
X0345797Y0130029D02*
X0343695Y0130029D01*
X0343695Y0132239D02*
X0344746Y0132239D01*
X0344396Y0132940D01*
X0344396Y0133290D01*
X0344746Y0133640D01*
X0345447Y0133640D01*
X0345797Y0133290D01*
X0345797Y0132589D01*
X0345447Y0132239D01*
X0343695Y0132239D02*
X0343695Y0133640D01*
X0358532Y0131849D02*
X0358532Y0129748D01*
X0358532Y0130448D02*
X0359583Y0130448D01*
X0359933Y0130799D01*
X0359933Y0131499D01*
X0359583Y0131849D01*
X0358532Y0131849D01*
X0359232Y0130448D02*
X0359933Y0129748D01*
X0360742Y0130098D02*
X0361092Y0129748D01*
X0361793Y0129748D01*
X0362143Y0130098D01*
X0362143Y0130448D01*
X0361793Y0130799D01*
X0361442Y0130799D01*
X0361793Y0130799D02*
X0362143Y0131149D01*
X0362143Y0131499D01*
X0361793Y0131849D01*
X0361092Y0131849D01*
X0360742Y0131499D01*
X0360942Y0138409D02*
X0362343Y0139810D01*
X0362343Y0140161D01*
X0361993Y0140511D01*
X0361292Y0140511D01*
X0360942Y0140161D01*
X0360133Y0140161D02*
X0360133Y0139460D01*
X0359783Y0139110D01*
X0358732Y0139110D01*
X0359432Y0139110D02*
X0360133Y0138409D01*
X0360942Y0138409D02*
X0362343Y0138409D01*
X0360133Y0140161D02*
X0359783Y0140511D01*
X0358732Y0140511D01*
X0358732Y0138409D01*
X0342491Y0143772D02*
X0341090Y0143772D01*
X0342140Y0144823D01*
X0342140Y0142721D01*
X0340281Y0143772D02*
X0339931Y0143421D01*
X0338880Y0143421D01*
X0338880Y0142721D02*
X0338880Y0144823D01*
X0339931Y0144823D01*
X0340281Y0144472D01*
X0340281Y0143772D01*
X0338071Y0144823D02*
X0337370Y0144823D01*
X0337721Y0144823D02*
X0337721Y0143071D01*
X0337370Y0142721D01*
X0337020Y0142721D01*
X0336670Y0143071D01*
X0358357Y0124163D02*
X0359408Y0124163D01*
X0359758Y0123813D01*
X0359758Y0123112D01*
X0359408Y0122762D01*
X0358357Y0122762D01*
X0359058Y0122762D02*
X0359758Y0122061D01*
X0360567Y0122061D02*
X0361968Y0122061D01*
X0361268Y0122061D02*
X0361268Y0124163D01*
X0360567Y0123462D01*
X0358357Y0124163D02*
X0358357Y0122061D01*
X0374760Y0116963D02*
X0374760Y0114861D01*
X0374760Y0115562D02*
X0375811Y0115562D01*
X0376161Y0115912D01*
X0376161Y0116613D01*
X0375811Y0116963D01*
X0374760Y0116963D01*
X0375461Y0115562D02*
X0376161Y0114861D01*
X0376970Y0115211D02*
X0377320Y0114861D01*
X0378021Y0114861D01*
X0378371Y0115211D01*
X0378371Y0115912D01*
X0378021Y0116262D01*
X0377671Y0116262D01*
X0376970Y0115912D01*
X0376970Y0116963D01*
X0378371Y0116963D01*
X0368595Y0101216D02*
X0367894Y0101216D01*
X0367544Y0100866D01*
X0366735Y0100866D02*
X0366385Y0101216D01*
X0365684Y0101216D01*
X0365334Y0100866D01*
X0365334Y0100516D01*
X0365684Y0100165D01*
X0366385Y0100165D01*
X0366735Y0099815D01*
X0366735Y0099465D01*
X0366385Y0099115D01*
X0365684Y0099115D01*
X0365334Y0099465D01*
X0367544Y0099115D02*
X0368945Y0100516D01*
X0368945Y0100866D01*
X0368595Y0101216D01*
X0368945Y0099115D02*
X0367544Y0099115D01*
X0357376Y0081326D02*
X0357026Y0081326D01*
X0356675Y0080975D01*
X0356675Y0079924D01*
X0357376Y0079924D01*
X0357726Y0080275D01*
X0357726Y0080975D01*
X0357376Y0081326D01*
X0355975Y0080625D02*
X0356675Y0079924D01*
X0356675Y0079116D02*
X0357026Y0078765D01*
X0357026Y0077715D01*
X0357026Y0078415D02*
X0357726Y0079116D01*
X0356675Y0079116D02*
X0355975Y0079116D01*
X0355625Y0078765D01*
X0355625Y0077715D01*
X0357726Y0077715D01*
X0355975Y0080625D02*
X0355625Y0081326D01*
X0373147Y0081132D02*
X0373498Y0081132D01*
X0374899Y0079731D01*
X0375249Y0079731D01*
X0375249Y0078922D02*
X0374549Y0078221D01*
X0374549Y0078572D02*
X0374549Y0077521D01*
X0375249Y0077521D02*
X0373147Y0077521D01*
X0373147Y0078572D01*
X0373498Y0078922D01*
X0374198Y0078922D01*
X0374549Y0078572D01*
X0373147Y0079731D02*
X0373147Y0081132D01*
X0376441Y0057035D02*
X0377843Y0054933D01*
X0378651Y0055284D02*
X0379002Y0054933D01*
X0379702Y0054933D01*
X0380052Y0055284D01*
X0380052Y0055634D01*
X0379702Y0055984D01*
X0379352Y0055984D01*
X0379702Y0055984D02*
X0380052Y0056335D01*
X0380052Y0056685D01*
X0379702Y0057035D01*
X0379002Y0057035D01*
X0378651Y0056685D01*
X0377843Y0057035D02*
X0376441Y0054933D01*
X0369732Y0161319D02*
X0368331Y0161319D01*
X0369032Y0161319D02*
X0369032Y0163421D01*
X0368331Y0162720D01*
X0367522Y0163071D02*
X0367172Y0163421D01*
X0366472Y0163421D01*
X0366121Y0163071D01*
X0366121Y0162720D01*
X0366472Y0162370D01*
X0367172Y0162370D01*
X0367522Y0162020D01*
X0367522Y0161670D01*
X0367172Y0161319D01*
X0366472Y0161319D01*
X0366121Y0161670D01*
X0395615Y0179374D02*
X0395965Y0179024D01*
X0396315Y0179024D01*
X0396665Y0179374D01*
X0396665Y0181126D01*
X0396315Y0181126D02*
X0397016Y0181126D01*
X0397824Y0181126D02*
X0397824Y0180075D01*
X0398525Y0180425D01*
X0398875Y0180425D01*
X0399226Y0180075D01*
X0399226Y0179374D01*
X0398875Y0179024D01*
X0398175Y0179024D01*
X0397824Y0179374D01*
X0397824Y0181126D02*
X0399226Y0181126D01*
X0365864Y0186892D02*
X0365864Y0187592D01*
X0365514Y0187943D01*
X0365514Y0188751D02*
X0364113Y0188751D01*
X0363762Y0189102D01*
X0363762Y0189802D01*
X0364113Y0190153D01*
X0365514Y0190153D01*
X0365864Y0189802D01*
X0365864Y0189102D01*
X0365514Y0188751D01*
X0364113Y0187943D02*
X0363762Y0187592D01*
X0363762Y0186892D01*
X0364113Y0186542D01*
X0365514Y0186542D01*
X0365864Y0186892D01*
X0365864Y0190961D02*
X0363762Y0190961D01*
X0365864Y0192362D01*
X0363762Y0192362D01*
X0363762Y0193171D02*
X0365864Y0194572D01*
X0363762Y0194572D01*
X0364113Y0195381D02*
X0363762Y0195731D01*
X0363762Y0196432D01*
X0364113Y0196782D01*
X0364463Y0196782D01*
X0365864Y0195381D01*
X0365864Y0196782D01*
X0365864Y0193171D02*
X0363762Y0193171D01*
X0363719Y0212526D02*
X0365120Y0212526D01*
X0365470Y0212876D01*
X0365470Y0213577D01*
X0365120Y0213927D01*
X0365120Y0214736D02*
X0365470Y0215086D01*
X0365470Y0215787D01*
X0365120Y0216137D01*
X0363719Y0216137D01*
X0363369Y0215787D01*
X0363369Y0215086D01*
X0363719Y0214736D01*
X0365120Y0214736D01*
X0363719Y0213927D02*
X0363369Y0213577D01*
X0363369Y0212876D01*
X0363719Y0212526D01*
X0363369Y0216946D02*
X0365470Y0218347D01*
X0363369Y0218347D01*
X0363369Y0219155D02*
X0365470Y0220557D01*
X0363369Y0220557D01*
X0364069Y0221365D02*
X0363369Y0222066D01*
X0365470Y0222066D01*
X0365470Y0222766D02*
X0365470Y0221365D01*
X0365470Y0219155D02*
X0363369Y0219155D01*
X0363369Y0216946D02*
X0365470Y0216946D01*
X0082303Y0224319D02*
X0082303Y0224669D01*
X0081952Y0225020D01*
X0080201Y0225020D01*
X0080201Y0225370D02*
X0080201Y0224669D01*
X0080551Y0226179D02*
X0080201Y0226529D01*
X0080201Y0227230D01*
X0080551Y0227580D01*
X0080902Y0227580D01*
X0081252Y0227230D01*
X0081602Y0227580D01*
X0081952Y0227580D01*
X0082303Y0227230D01*
X0082303Y0226529D01*
X0081952Y0226179D01*
X0081252Y0226879D02*
X0081252Y0227230D01*
X0082303Y0224319D02*
X0081952Y0223969D01*
D14*
X0112299Y0121362D03*
X0122299Y0121362D03*
D15*
X0142984Y0166417D02*
X0142984Y0174291D01*
X0146921Y0174291D01*
X0036685Y0178622D02*
X0036685Y0181181D01*
X0033339Y0181181D01*
X0019362Y0181181D02*
X0017984Y0181181D01*
X0017984Y0151654D01*
X0019362Y0151654D01*
X0033339Y0151654D02*
X0036685Y0151654D01*
X0036685Y0154213D01*
X0036685Y0194961D02*
X0033339Y0194961D01*
X0036685Y0194961D02*
X0036685Y0197520D01*
X0019362Y0194961D02*
X0017984Y0194961D01*
X0017984Y0224488D01*
X0019362Y0224488D01*
X0033339Y0224488D02*
X0036685Y0224488D01*
X0036685Y0221929D01*
X0280780Y0174291D02*
X0284717Y0174291D01*
X0284717Y0166417D01*
X0364076Y0135818D02*
X0364076Y0129818D01*
X0373876Y0128418D02*
X0373876Y0135818D01*
X0406764Y0188071D02*
X0406764Y0195945D01*
X0406764Y0213661D02*
X0406764Y0221535D01*
X0284717Y0008937D02*
X0284717Y0005000D01*
X0142984Y0005000D01*
X0142984Y0008937D01*
D16*
X0052630Y0010315D02*
X0052630Y0029213D01*
X0059323Y0035906D01*
X0061685Y0035906D01*
X0069165Y0035906D02*
X0071528Y0035906D01*
X0078220Y0029213D01*
X0078220Y0010315D01*
X0069165Y0010315D01*
X0061685Y0010315D02*
X0052630Y0010315D01*
X0069165Y0011495D02*
X0069448Y0011590D01*
X0069729Y0011692D01*
X0070006Y0011801D01*
X0070282Y0011916D01*
X0070554Y0012038D01*
X0070823Y0012167D01*
X0071089Y0012302D01*
X0071351Y0012444D01*
X0071610Y0012592D01*
X0071866Y0012746D01*
X0072117Y0012907D01*
X0072365Y0013074D01*
X0072608Y0013246D01*
X0072847Y0013425D01*
X0073082Y0013609D01*
X0073312Y0013799D01*
X0073537Y0013995D01*
X0073757Y0014196D01*
X0073973Y0014402D01*
X0074183Y0014614D01*
X0074388Y0014830D01*
X0074588Y0015052D01*
X0074782Y0015279D01*
X0074971Y0015510D01*
X0075154Y0015745D01*
X0075331Y0015985D01*
X0075502Y0016230D01*
X0075667Y0016478D01*
X0075826Y0016731D01*
X0075979Y0016987D01*
X0076126Y0017247D01*
X0076266Y0017510D01*
X0076400Y0017777D01*
X0076527Y0018047D01*
X0076647Y0018320D01*
X0076761Y0018595D01*
X0076868Y0018874D01*
X0076968Y0019155D01*
X0077061Y0019438D01*
X0077148Y0019724D01*
X0077227Y0020012D01*
X0077299Y0020301D01*
X0077364Y0020592D01*
X0077422Y0020885D01*
X0077473Y0021179D01*
X0077517Y0021474D01*
X0077553Y0021770D01*
X0077582Y0022067D01*
X0077604Y0022365D01*
X0077619Y0022663D01*
X0077626Y0022961D01*
X0077626Y0023259D01*
X0077619Y0023557D01*
X0077604Y0023855D01*
X0077582Y0024153D01*
X0077553Y0024450D01*
X0077517Y0024746D01*
X0077473Y0025041D01*
X0077422Y0025335D01*
X0077364Y0025628D01*
X0077299Y0025919D01*
X0077227Y0026208D01*
X0077148Y0026496D01*
X0077061Y0026782D01*
X0076968Y0027065D01*
X0076868Y0027346D01*
X0076761Y0027625D01*
X0076647Y0027900D01*
X0076527Y0028173D01*
X0076400Y0028443D01*
X0076266Y0028710D01*
X0076126Y0028973D01*
X0075979Y0029233D01*
X0075826Y0029489D01*
X0075667Y0029742D01*
X0075502Y0029990D01*
X0075331Y0030235D01*
X0075154Y0030475D01*
X0074971Y0030710D01*
X0074782Y0030941D01*
X0074588Y0031168D01*
X0074388Y0031390D01*
X0074183Y0031606D01*
X0073973Y0031818D01*
X0073757Y0032024D01*
X0073537Y0032225D01*
X0073312Y0032421D01*
X0073082Y0032611D01*
X0072847Y0032795D01*
X0072608Y0032974D01*
X0072365Y0033146D01*
X0072117Y0033313D01*
X0071866Y0033474D01*
X0071610Y0033628D01*
X0071351Y0033776D01*
X0071089Y0033918D01*
X0070823Y0034053D01*
X0070554Y0034182D01*
X0070282Y0034304D01*
X0070006Y0034419D01*
X0069729Y0034528D01*
X0069448Y0034630D01*
X0069165Y0034725D01*
X0079402Y0029213D02*
X0086094Y0035906D01*
X0088457Y0035906D01*
X0095937Y0035906D02*
X0098299Y0035906D01*
X0104992Y0029213D01*
X0104992Y0010315D01*
X0095937Y0010315D01*
X0088457Y0010315D02*
X0079402Y0010315D01*
X0079402Y0029213D01*
X0095937Y0034725D02*
X0096220Y0034630D01*
X0096501Y0034528D01*
X0096778Y0034419D01*
X0097054Y0034304D01*
X0097326Y0034182D01*
X0097595Y0034053D01*
X0097861Y0033918D01*
X0098123Y0033776D01*
X0098382Y0033628D01*
X0098638Y0033474D01*
X0098889Y0033313D01*
X0099137Y0033146D01*
X0099380Y0032974D01*
X0099619Y0032795D01*
X0099854Y0032611D01*
X0100084Y0032421D01*
X0100309Y0032225D01*
X0100529Y0032024D01*
X0100745Y0031818D01*
X0100955Y0031606D01*
X0101160Y0031390D01*
X0101360Y0031168D01*
X0101554Y0030941D01*
X0101743Y0030710D01*
X0101926Y0030475D01*
X0102103Y0030235D01*
X0102274Y0029990D01*
X0102439Y0029742D01*
X0102598Y0029489D01*
X0102751Y0029233D01*
X0102898Y0028973D01*
X0103038Y0028710D01*
X0103172Y0028443D01*
X0103299Y0028173D01*
X0103419Y0027900D01*
X0103533Y0027625D01*
X0103640Y0027346D01*
X0103740Y0027065D01*
X0103833Y0026782D01*
X0103920Y0026496D01*
X0103999Y0026208D01*
X0104071Y0025919D01*
X0104136Y0025628D01*
X0104194Y0025335D01*
X0104245Y0025041D01*
X0104289Y0024746D01*
X0104325Y0024450D01*
X0104354Y0024153D01*
X0104376Y0023855D01*
X0104391Y0023557D01*
X0104398Y0023259D01*
X0104398Y0022961D01*
X0104391Y0022663D01*
X0104376Y0022365D01*
X0104354Y0022067D01*
X0104325Y0021770D01*
X0104289Y0021474D01*
X0104245Y0021179D01*
X0104194Y0020885D01*
X0104136Y0020592D01*
X0104071Y0020301D01*
X0103999Y0020012D01*
X0103920Y0019724D01*
X0103833Y0019438D01*
X0103740Y0019155D01*
X0103640Y0018874D01*
X0103533Y0018595D01*
X0103419Y0018320D01*
X0103299Y0018047D01*
X0103172Y0017777D01*
X0103038Y0017510D01*
X0102898Y0017247D01*
X0102751Y0016987D01*
X0102598Y0016731D01*
X0102439Y0016478D01*
X0102274Y0016230D01*
X0102103Y0015985D01*
X0101926Y0015745D01*
X0101743Y0015510D01*
X0101554Y0015279D01*
X0101360Y0015052D01*
X0101160Y0014830D01*
X0100955Y0014614D01*
X0100745Y0014402D01*
X0100529Y0014196D01*
X0100309Y0013995D01*
X0100084Y0013799D01*
X0099854Y0013609D01*
X0099619Y0013425D01*
X0099380Y0013246D01*
X0099137Y0013074D01*
X0098889Y0012907D01*
X0098638Y0012746D01*
X0098382Y0012592D01*
X0098123Y0012444D01*
X0097861Y0012302D01*
X0097595Y0012167D01*
X0097326Y0012038D01*
X0097054Y0011916D01*
X0096778Y0011801D01*
X0096501Y0011692D01*
X0096220Y0011590D01*
X0095937Y0011495D01*
X0088457Y0011495D02*
X0088174Y0011590D01*
X0087893Y0011692D01*
X0087616Y0011801D01*
X0087340Y0011916D01*
X0087068Y0012038D01*
X0086799Y0012167D01*
X0086533Y0012302D01*
X0086271Y0012444D01*
X0086012Y0012592D01*
X0085756Y0012746D01*
X0085505Y0012907D01*
X0085257Y0013074D01*
X0085014Y0013246D01*
X0084775Y0013425D01*
X0084540Y0013609D01*
X0084310Y0013799D01*
X0084085Y0013995D01*
X0083865Y0014196D01*
X0083649Y0014402D01*
X0083439Y0014614D01*
X0083234Y0014830D01*
X0083034Y0015052D01*
X0082840Y0015279D01*
X0082651Y0015510D01*
X0082468Y0015745D01*
X0082291Y0015985D01*
X0082120Y0016230D01*
X0081955Y0016478D01*
X0081796Y0016731D01*
X0081643Y0016987D01*
X0081496Y0017247D01*
X0081356Y0017510D01*
X0081222Y0017777D01*
X0081095Y0018047D01*
X0080975Y0018320D01*
X0080861Y0018595D01*
X0080754Y0018874D01*
X0080654Y0019155D01*
X0080561Y0019438D01*
X0080474Y0019724D01*
X0080395Y0020012D01*
X0080323Y0020301D01*
X0080258Y0020592D01*
X0080200Y0020885D01*
X0080149Y0021179D01*
X0080105Y0021474D01*
X0080069Y0021770D01*
X0080040Y0022067D01*
X0080018Y0022365D01*
X0080003Y0022663D01*
X0079996Y0022961D01*
X0079996Y0023259D01*
X0080003Y0023557D01*
X0080018Y0023855D01*
X0080040Y0024153D01*
X0080069Y0024450D01*
X0080105Y0024746D01*
X0080149Y0025041D01*
X0080200Y0025335D01*
X0080258Y0025628D01*
X0080323Y0025919D01*
X0080395Y0026208D01*
X0080474Y0026496D01*
X0080561Y0026782D01*
X0080654Y0027065D01*
X0080754Y0027346D01*
X0080861Y0027625D01*
X0080975Y0027900D01*
X0081095Y0028173D01*
X0081222Y0028443D01*
X0081356Y0028710D01*
X0081496Y0028973D01*
X0081643Y0029233D01*
X0081796Y0029489D01*
X0081955Y0029742D01*
X0082120Y0029990D01*
X0082291Y0030235D01*
X0082468Y0030475D01*
X0082651Y0030710D01*
X0082840Y0030941D01*
X0083034Y0031168D01*
X0083234Y0031390D01*
X0083439Y0031606D01*
X0083649Y0031818D01*
X0083865Y0032024D01*
X0084085Y0032225D01*
X0084310Y0032421D01*
X0084540Y0032611D01*
X0084775Y0032795D01*
X0085014Y0032974D01*
X0085257Y0033146D01*
X0085505Y0033313D01*
X0085756Y0033474D01*
X0086012Y0033628D01*
X0086271Y0033776D01*
X0086533Y0033918D01*
X0086799Y0034053D01*
X0087068Y0034182D01*
X0087340Y0034304D01*
X0087616Y0034419D01*
X0087893Y0034528D01*
X0088174Y0034630D01*
X0088457Y0034725D01*
X0061685Y0034725D02*
X0061402Y0034630D01*
X0061121Y0034528D01*
X0060844Y0034419D01*
X0060568Y0034304D01*
X0060296Y0034182D01*
X0060027Y0034053D01*
X0059761Y0033918D01*
X0059499Y0033776D01*
X0059240Y0033628D01*
X0058984Y0033474D01*
X0058733Y0033313D01*
X0058485Y0033146D01*
X0058242Y0032974D01*
X0058003Y0032795D01*
X0057768Y0032611D01*
X0057538Y0032421D01*
X0057313Y0032225D01*
X0057093Y0032024D01*
X0056877Y0031818D01*
X0056667Y0031606D01*
X0056462Y0031390D01*
X0056262Y0031168D01*
X0056068Y0030941D01*
X0055879Y0030710D01*
X0055696Y0030475D01*
X0055519Y0030235D01*
X0055348Y0029990D01*
X0055183Y0029742D01*
X0055024Y0029489D01*
X0054871Y0029233D01*
X0054724Y0028973D01*
X0054584Y0028710D01*
X0054450Y0028443D01*
X0054323Y0028173D01*
X0054203Y0027900D01*
X0054089Y0027625D01*
X0053982Y0027346D01*
X0053882Y0027065D01*
X0053789Y0026782D01*
X0053702Y0026496D01*
X0053623Y0026208D01*
X0053551Y0025919D01*
X0053486Y0025628D01*
X0053428Y0025335D01*
X0053377Y0025041D01*
X0053333Y0024746D01*
X0053297Y0024450D01*
X0053268Y0024153D01*
X0053246Y0023855D01*
X0053231Y0023557D01*
X0053224Y0023259D01*
X0053224Y0022961D01*
X0053231Y0022663D01*
X0053246Y0022365D01*
X0053268Y0022067D01*
X0053297Y0021770D01*
X0053333Y0021474D01*
X0053377Y0021179D01*
X0053428Y0020885D01*
X0053486Y0020592D01*
X0053551Y0020301D01*
X0053623Y0020012D01*
X0053702Y0019724D01*
X0053789Y0019438D01*
X0053882Y0019155D01*
X0053982Y0018874D01*
X0054089Y0018595D01*
X0054203Y0018320D01*
X0054323Y0018047D01*
X0054450Y0017777D01*
X0054584Y0017510D01*
X0054724Y0017247D01*
X0054871Y0016987D01*
X0055024Y0016731D01*
X0055183Y0016478D01*
X0055348Y0016230D01*
X0055519Y0015985D01*
X0055696Y0015745D01*
X0055879Y0015510D01*
X0056068Y0015279D01*
X0056262Y0015052D01*
X0056462Y0014830D01*
X0056667Y0014614D01*
X0056877Y0014402D01*
X0057093Y0014196D01*
X0057313Y0013995D01*
X0057538Y0013799D01*
X0057768Y0013609D01*
X0058003Y0013425D01*
X0058242Y0013246D01*
X0058485Y0013074D01*
X0058733Y0012907D01*
X0058984Y0012746D01*
X0059240Y0012592D01*
X0059499Y0012444D01*
X0059761Y0012302D01*
X0060027Y0012167D01*
X0060296Y0012038D01*
X0060568Y0011916D01*
X0060844Y0011801D01*
X0061121Y0011692D01*
X0061402Y0011590D01*
X0061685Y0011495D01*
D17*
X0367394Y0183346D02*
X0406764Y0183346D01*
X0406764Y0200669D01*
X0406764Y0203031D01*
X0399677Y0203031D01*
X0399677Y0200669D01*
X0374480Y0200669D01*
X0374480Y0203031D01*
X0367394Y0203031D01*
X0367394Y0200669D01*
X0374480Y0200669D01*
X0367394Y0200669D02*
X0367394Y0183346D01*
X0367394Y0186102D02*
X0367394Y0197913D01*
X0367394Y0208937D02*
X0406764Y0208937D01*
X0406764Y0226260D01*
X0406764Y0228622D01*
X0399677Y0228622D01*
X0399677Y0226260D01*
X0374480Y0226260D01*
X0374480Y0228622D01*
X0367394Y0228622D01*
X0367394Y0226260D01*
X0374480Y0226260D01*
X0367394Y0226260D02*
X0367394Y0208937D01*
X0367394Y0211693D02*
X0367394Y0223504D01*
X0399677Y0226260D02*
X0406764Y0226260D01*
X0406764Y0200669D02*
X0399677Y0200669D01*
M02*
