G75*
%MOIN*%
%OFA0B0*%
%FSLAX25Y25*%
%IPPOS*%
%LPD*%
%AMOC8*
5,1,8,0,0,1.08239X$1,22.5*
%
%ADD10C,0.05937*%
%ADD11C,0.04559*%
%ADD12C,0.04756*%
%ADD13C,0.06000*%
%ADD14C,0.05000*%
%ADD15C,0.07500*%
%ADD16C,0.10500*%
%ADD17C,0.02781*%
%ADD18C,0.01575*%
%ADD19C,0.16598*%
%ADD20C,0.09449*%
D10*
X0047520Y0043946D03*
X0059331Y0063631D03*
X0034528Y0063631D03*
D11*
X0036685Y0156870D03*
X0036685Y0175965D03*
X0036685Y0200177D03*
X0036685Y0219272D03*
D12*
X0026252Y0223898D03*
X0026252Y0195551D03*
X0026252Y0180591D03*
X0026252Y0152244D03*
D13*
X0060638Y0117894D03*
X0060638Y0107894D03*
X0036154Y0086233D03*
X0026154Y0086233D03*
X0088850Y0220472D03*
X0098850Y0220472D03*
X0108850Y0220472D03*
X0118850Y0220472D03*
X0128850Y0220472D03*
X0138850Y0220472D03*
X0148850Y0220472D03*
X0158850Y0220472D03*
X0168850Y0220472D03*
X0178850Y0220472D03*
X0188850Y0220472D03*
X0198850Y0220472D03*
X0208850Y0220472D03*
X0218850Y0220472D03*
X0228850Y0220472D03*
X0238850Y0220472D03*
X0248850Y0220472D03*
X0258850Y0220472D03*
X0268850Y0220472D03*
X0278850Y0220472D03*
X0288850Y0220472D03*
X0298850Y0220472D03*
X0308850Y0220472D03*
X0318850Y0220472D03*
X0328850Y0220472D03*
X0338850Y0220472D03*
X0338850Y0230472D03*
X0328850Y0230472D03*
X0318850Y0230472D03*
X0308850Y0230472D03*
X0298850Y0230472D03*
X0288850Y0230472D03*
X0278850Y0230472D03*
X0268850Y0230472D03*
X0258850Y0230472D03*
X0248850Y0230472D03*
X0238850Y0230472D03*
X0228850Y0230472D03*
X0218850Y0230472D03*
X0208850Y0230472D03*
X0198850Y0230472D03*
X0188850Y0230472D03*
X0178850Y0230472D03*
X0168850Y0230472D03*
X0158850Y0230472D03*
X0148850Y0230472D03*
X0138850Y0230472D03*
X0128850Y0230472D03*
X0118850Y0230472D03*
X0108850Y0230472D03*
X0098850Y0230472D03*
X0088850Y0230472D03*
X0392984Y0174291D03*
X0402984Y0174291D03*
X0402984Y0164291D03*
X0392984Y0164291D03*
X0392984Y0154291D03*
X0402984Y0154291D03*
X0402984Y0144291D03*
X0392984Y0144291D03*
X0392984Y0134291D03*
X0402984Y0134291D03*
X0402984Y0124291D03*
X0392984Y0124291D03*
X0392984Y0114291D03*
X0402984Y0114291D03*
X0402984Y0104291D03*
X0392984Y0104291D03*
X0392984Y0094291D03*
X0402984Y0094291D03*
X0402984Y0084291D03*
X0392984Y0084291D03*
D14*
X0391016Y0192008D03*
X0398890Y0192008D03*
X0383142Y0192008D03*
X0375268Y0192008D03*
X0375268Y0217598D03*
X0383142Y0217598D03*
X0391016Y0217598D03*
X0398890Y0217598D03*
D15*
X0387079Y0056181D03*
D16*
X0397118Y0046142D03*
X0377040Y0046142D03*
X0377040Y0066220D03*
X0397118Y0066220D03*
D17*
X0022512Y0010512D03*
X0019362Y0016811D03*
X0022512Y0023110D03*
X0028811Y0026260D03*
X0035110Y0023110D03*
X0038260Y0016811D03*
X0035110Y0010512D03*
X0028811Y0007362D03*
X0044559Y0008937D03*
X0052433Y0008937D03*
X0061094Y0009331D03*
X0069756Y0009331D03*
X0079992Y0008937D03*
X0087866Y0009331D03*
X0096134Y0009331D03*
X0103614Y0008937D03*
X0096134Y0017992D03*
X0087866Y0017992D03*
X0069756Y0018386D03*
X0061094Y0018386D03*
X0076055Y0040433D03*
X0083929Y0040433D03*
X0083929Y0048307D03*
X0076055Y0048307D03*
X0076055Y0056181D03*
X0103614Y0067992D03*
X0111488Y0064055D03*
X0118575Y0060118D03*
X0123299Y0056181D03*
X0119362Y0052244D03*
X0131173Y0056181D03*
X0135898Y0060118D03*
X0154795Y0064055D03*
X0165031Y0064055D03*
X0174480Y0064055D03*
X0194165Y0064055D03*
X0213850Y0064055D03*
X0213850Y0073504D03*
X0213850Y0083740D03*
X0194165Y0083740D03*
X0174480Y0083740D03*
X0154795Y0083740D03*
X0136685Y0099488D03*
X0134323Y0106575D03*
X0128811Y0106575D03*
X0117787Y0114449D03*
X0112276Y0114449D03*
X0104402Y0112874D03*
X0104402Y0109724D03*
X0104402Y0106575D03*
X0104402Y0103425D03*
X0104402Y0100276D03*
X0104402Y0097126D03*
X0092984Y0096732D03*
X0092984Y0099882D03*
X0092984Y0103031D03*
X0092984Y0106181D03*
X0092984Y0109331D03*
X0092984Y0112480D03*
X0085504Y0119173D03*
X0085504Y0123110D03*
X0073693Y0109724D03*
X0069756Y0105787D03*
X0068181Y0099488D03*
X0060307Y0099488D03*
X0053220Y0091614D03*
X0055583Y0089252D03*
X0057945Y0086890D03*
X0060307Y0084528D03*
X0062669Y0082165D03*
X0065031Y0079803D03*
X0073693Y0081378D03*
X0068181Y0091614D03*
X0053220Y0082165D03*
X0044559Y0090827D03*
X0020937Y0079803D03*
X0020937Y0071929D03*
X0020937Y0064055D03*
X0020937Y0056181D03*
X0020937Y0048307D03*
X0020937Y0040433D03*
X0020937Y0032559D03*
X0091803Y0079803D03*
X0099677Y0075866D03*
X0154795Y0103425D03*
X0174480Y0103425D03*
X0194165Y0103425D03*
X0213850Y0103425D03*
X0233535Y0103425D03*
X0253220Y0103425D03*
X0272906Y0103425D03*
X0272906Y0123110D03*
X0291016Y0123110D03*
X0295740Y0124685D03*
X0300465Y0129409D03*
X0295740Y0132559D03*
X0300465Y0137283D03*
X0272906Y0142795D03*
X0253220Y0142795D03*
X0237472Y0142795D03*
X0229598Y0134921D03*
X0213850Y0142795D03*
X0209913Y0154606D03*
X0217787Y0162480D03*
X0233535Y0162480D03*
X0253220Y0162480D03*
X0272906Y0166417D03*
X0253220Y0180591D03*
X0248496Y0182953D03*
X0257945Y0182953D03*
X0205976Y0190827D03*
X0204402Y0183740D03*
X0198102Y0180591D03*
X0194165Y0166417D03*
X0194165Y0154606D03*
X0194165Y0142795D03*
X0174480Y0142795D03*
X0174480Y0154606D03*
X0154795Y0142795D03*
X0136685Y0146732D03*
X0126449Y0156181D03*
X0119362Y0156181D03*
X0119362Y0159902D03*
X0119362Y0163483D03*
X0119362Y0167205D03*
X0122512Y0170354D03*
X0104402Y0151457D03*
X0119362Y0134921D03*
X0123299Y0130984D03*
X0127236Y0127047D03*
X0131173Y0130984D03*
X0127236Y0134921D03*
X0131173Y0123110D03*
X0136685Y0123110D03*
X0134323Y0116024D03*
X0154795Y0123110D03*
X0174480Y0123110D03*
X0194165Y0123110D03*
X0213850Y0123110D03*
X0235898Y0124291D03*
X0239619Y0124291D03*
X0243200Y0124291D03*
X0246921Y0124291D03*
X0253220Y0124291D03*
X0253220Y0083740D03*
X0272906Y0083740D03*
X0272906Y0064055D03*
X0263457Y0064055D03*
X0253220Y0064055D03*
X0233535Y0064055D03*
X0233535Y0083740D03*
X0291016Y0060118D03*
X0292197Y0052244D03*
X0292197Y0044370D03*
X0292197Y0036496D03*
X0272906Y0024685D03*
X0264244Y0024685D03*
X0253220Y0024685D03*
X0233535Y0024685D03*
X0213850Y0024685D03*
X0194165Y0024685D03*
X0174480Y0024685D03*
X0165031Y0024685D03*
X0154795Y0024685D03*
X0135898Y0020748D03*
X0131567Y0022717D03*
X0126843Y0020354D03*
X0122118Y0022717D03*
X0117787Y0020354D03*
X0119362Y0036496D03*
X0123299Y0036496D03*
X0127236Y0036496D03*
X0131173Y0036496D03*
X0136685Y0036496D03*
X0154795Y0008937D03*
X0162669Y0008937D03*
X0170543Y0008937D03*
X0178417Y0008937D03*
X0186291Y0008937D03*
X0194165Y0008937D03*
X0202039Y0008937D03*
X0209913Y0008937D03*
X0217787Y0008937D03*
X0225661Y0008937D03*
X0233535Y0008937D03*
X0241409Y0008937D03*
X0249283Y0008937D03*
X0257157Y0008937D03*
X0265031Y0008937D03*
X0272906Y0008937D03*
X0292197Y0020748D03*
X0296528Y0008937D03*
X0304402Y0008937D03*
X0312276Y0008937D03*
X0320150Y0008937D03*
X0328024Y0008937D03*
X0335898Y0008937D03*
X0343772Y0008937D03*
X0351646Y0008937D03*
X0359520Y0008937D03*
X0367394Y0008937D03*
X0375268Y0008937D03*
X0383142Y0008937D03*
X0392591Y0010512D03*
X0398890Y0007362D03*
X0405189Y0010512D03*
X0408339Y0016811D03*
X0405189Y0023110D03*
X0398890Y0026260D03*
X0392591Y0023110D03*
X0389441Y0016811D03*
X0371331Y0024685D03*
X0351646Y0024685D03*
X0331961Y0024685D03*
X0331961Y0044370D03*
X0351646Y0044370D03*
X0351646Y0064055D03*
X0343772Y0083740D03*
X0343772Y0091614D03*
X0349677Y0092008D03*
X0343772Y0099488D03*
X0343772Y0107362D03*
X0343772Y0115236D03*
X0335110Y0123110D03*
X0335110Y0130984D03*
X0335110Y0138858D03*
X0335898Y0146732D03*
X0343772Y0146732D03*
X0351646Y0146732D03*
X0359520Y0146732D03*
X0362669Y0129409D03*
X0377630Y0129409D03*
X0347709Y0162480D03*
X0339835Y0162480D03*
X0339835Y0170354D03*
X0367394Y0201850D03*
X0367394Y0217598D03*
X0359520Y0217598D03*
X0351646Y0217598D03*
X0351646Y0225472D03*
X0375268Y0241220D03*
X0389441Y0245157D03*
X0392591Y0238858D03*
X0398890Y0235709D03*
X0405189Y0238858D03*
X0408339Y0245157D03*
X0405189Y0251457D03*
X0398890Y0254606D03*
X0392591Y0251457D03*
X0383142Y0253031D03*
X0375268Y0253031D03*
X0367394Y0253031D03*
X0359520Y0253031D03*
X0351646Y0253031D03*
X0343772Y0253031D03*
X0335898Y0253031D03*
X0328024Y0253031D03*
X0320150Y0253031D03*
X0312276Y0253031D03*
X0304402Y0253031D03*
X0296528Y0253031D03*
X0288654Y0253031D03*
X0280780Y0253031D03*
X0272906Y0253031D03*
X0265031Y0253031D03*
X0257157Y0253031D03*
X0249283Y0253031D03*
X0241409Y0253031D03*
X0233535Y0253031D03*
X0225661Y0253031D03*
X0217787Y0253031D03*
X0209913Y0253031D03*
X0202039Y0253031D03*
X0194165Y0253031D03*
X0186291Y0253031D03*
X0178417Y0253031D03*
X0170543Y0253031D03*
X0162669Y0253031D03*
X0154795Y0253031D03*
X0146921Y0253031D03*
X0139047Y0253031D03*
X0131173Y0253031D03*
X0123299Y0253031D03*
X0115425Y0253031D03*
X0107551Y0253031D03*
X0099677Y0253031D03*
X0091803Y0253031D03*
X0083929Y0253031D03*
X0076055Y0253031D03*
X0068181Y0253031D03*
X0060307Y0253031D03*
X0052433Y0253031D03*
X0044559Y0253031D03*
X0035110Y0251457D03*
X0028811Y0254606D03*
X0022512Y0251457D03*
X0019362Y0245157D03*
X0022512Y0238858D03*
X0028811Y0235709D03*
X0035110Y0238858D03*
X0038260Y0245157D03*
X0044559Y0233346D03*
X0060307Y0233346D03*
X0076055Y0233346D03*
X0061882Y0211299D03*
X0054795Y0204213D03*
X0076055Y0201850D03*
X0083929Y0201850D03*
X0091803Y0205787D03*
X0096528Y0204213D03*
X0079992Y0193976D03*
X0068181Y0186102D03*
X0064244Y0190039D03*
X0058732Y0182165D03*
X0055583Y0182165D03*
X0055583Y0178622D03*
X0058732Y0178622D03*
X0058732Y0175079D03*
X0055583Y0175079D03*
X0072118Y0174291D03*
X0072118Y0162480D03*
X0064244Y0162480D03*
X0064244Y0154606D03*
X0072118Y0154606D03*
X0072118Y0146732D03*
X0068181Y0142008D03*
X0064244Y0146732D03*
X0068181Y0134921D03*
X0020937Y0115236D03*
X0020937Y0107362D03*
X0154795Y0166417D03*
X0174480Y0166417D03*
X0148496Y0205000D03*
X0139441Y0205787D03*
X0148496Y0213661D03*
X0161882Y0207362D03*
X0164244Y0213661D03*
X0204402Y0237677D03*
X0192591Y0238858D03*
X0406764Y0229409D03*
X0406764Y0221535D03*
X0406764Y0213661D03*
X0406764Y0205787D03*
X0406764Y0197913D03*
X0406764Y0190039D03*
X0406764Y0182165D03*
X0406764Y0071929D03*
X0406764Y0064055D03*
X0406764Y0056181D03*
X0406764Y0048307D03*
X0406764Y0040433D03*
X0406764Y0032559D03*
X0233535Y0044370D03*
X0194165Y0044370D03*
D18*
X0107943Y0094759D02*
X0108580Y0096295D01*
X0108580Y0097957D01*
X0108271Y0098701D01*
X0108580Y0099445D01*
X0108580Y0101107D01*
X0108271Y0101850D01*
X0108580Y0102594D01*
X0108580Y0104256D01*
X0108271Y0105000D01*
X0108580Y0105744D01*
X0108580Y0107406D01*
X0108271Y0108150D01*
X0108580Y0108893D01*
X0108580Y0110555D01*
X0108271Y0111299D01*
X0108580Y0112043D01*
X0108580Y0113705D01*
X0107943Y0115241D01*
X0106768Y0116416D01*
X0105233Y0117052D01*
X0103571Y0117052D01*
X0102035Y0116416D01*
X0100860Y0115241D01*
X0100224Y0113705D01*
X0100224Y0112043D01*
X0100532Y0111299D01*
X0100224Y0110555D01*
X0100224Y0108893D01*
X0100532Y0108150D01*
X0100224Y0107406D01*
X0100224Y0105744D01*
X0100532Y0105000D01*
X0100224Y0104256D01*
X0100224Y0102594D01*
X0100532Y0101850D01*
X0100224Y0101107D01*
X0100224Y0099445D01*
X0100532Y0098701D01*
X0100224Y0097957D01*
X0100224Y0096295D01*
X0100860Y0094759D01*
X0102035Y0093584D01*
X0103571Y0092948D01*
X0105233Y0092948D01*
X0106768Y0093584D01*
X0107943Y0094759D01*
X0107863Y0094679D02*
X0348867Y0094679D01*
X0349125Y0094786D02*
X0348104Y0094363D01*
X0347322Y0093581D01*
X0346899Y0092560D01*
X0346899Y0091455D01*
X0347322Y0090434D01*
X0348104Y0089653D01*
X0349125Y0089230D01*
X0350230Y0089230D01*
X0351251Y0089653D01*
X0352032Y0090434D01*
X0352455Y0091455D01*
X0352455Y0092560D01*
X0352032Y0093581D01*
X0351251Y0094363D01*
X0350230Y0094786D01*
X0349125Y0094786D01*
X0350488Y0094679D02*
X0388597Y0094679D01*
X0388597Y0095164D02*
X0388597Y0093419D01*
X0389265Y0091806D01*
X0390499Y0090572D01*
X0392112Y0089904D01*
X0393857Y0089904D01*
X0395470Y0090572D01*
X0396704Y0091806D01*
X0397372Y0093419D01*
X0397372Y0095164D01*
X0396704Y0096777D01*
X0395470Y0098011D01*
X0393857Y0098679D01*
X0392112Y0098679D01*
X0390499Y0098011D01*
X0389265Y0096777D01*
X0388597Y0095164D01*
X0389048Y0096252D02*
X0108562Y0096252D01*
X0108580Y0097826D02*
X0390314Y0097826D01*
X0392112Y0099904D02*
X0393857Y0099904D01*
X0395470Y0100572D01*
X0396704Y0101806D01*
X0397372Y0103419D01*
X0397372Y0105164D01*
X0396704Y0106777D01*
X0395470Y0108011D01*
X0393857Y0108679D01*
X0392112Y0108679D01*
X0390499Y0108011D01*
X0389265Y0106777D01*
X0388597Y0105164D01*
X0388597Y0103419D01*
X0389265Y0101806D01*
X0390499Y0100572D01*
X0392112Y0099904D01*
X0390099Y0100972D02*
X0108580Y0100972D01*
X0108561Y0099399D02*
X0409117Y0099399D01*
X0409117Y0100972D02*
X0406153Y0100972D01*
X0405973Y0100792D02*
X0406483Y0101303D01*
X0406908Y0101887D01*
X0407236Y0102530D01*
X0407459Y0103217D01*
X0407572Y0103930D01*
X0407572Y0104079D01*
X0403197Y0104079D01*
X0403197Y0104504D01*
X0407572Y0104504D01*
X0407572Y0104652D01*
X0407459Y0105366D01*
X0407236Y0106052D01*
X0406908Y0106696D01*
X0406483Y0107280D01*
X0405973Y0107790D01*
X0405389Y0108215D01*
X0404745Y0108543D01*
X0404058Y0108766D01*
X0403345Y0108879D01*
X0403197Y0108879D01*
X0403197Y0104504D01*
X0402772Y0104504D01*
X0402772Y0108879D01*
X0402623Y0108879D01*
X0401910Y0108766D01*
X0401223Y0108543D01*
X0400580Y0108215D01*
X0399996Y0107790D01*
X0399485Y0107280D01*
X0399061Y0106696D01*
X0398733Y0106052D01*
X0398510Y0105366D01*
X0398397Y0104652D01*
X0398397Y0104504D01*
X0402772Y0104504D01*
X0402772Y0104079D01*
X0398397Y0104079D01*
X0398397Y0103930D01*
X0398510Y0103217D01*
X0398733Y0102530D01*
X0399061Y0101887D01*
X0399485Y0101303D01*
X0399996Y0100792D01*
X0400580Y0100368D01*
X0401223Y0100040D01*
X0401910Y0099817D01*
X0402623Y0099704D01*
X0402772Y0099704D01*
X0402772Y0104079D01*
X0403197Y0104079D01*
X0403197Y0099704D01*
X0403345Y0099704D01*
X0404058Y0099817D01*
X0404745Y0100040D01*
X0405389Y0100368D01*
X0405973Y0100792D01*
X0407240Y0102545D02*
X0409117Y0102545D01*
X0409117Y0104119D02*
X0403197Y0104119D01*
X0402772Y0104119D02*
X0397372Y0104119D01*
X0397153Y0105692D02*
X0398616Y0105692D01*
X0399475Y0107265D02*
X0396215Y0107265D01*
X0395470Y0110572D02*
X0393857Y0109904D01*
X0392112Y0109904D01*
X0390499Y0110572D01*
X0389265Y0111806D01*
X0388597Y0113419D01*
X0388597Y0115164D01*
X0389265Y0116777D01*
X0390499Y0118011D01*
X0392112Y0118679D01*
X0393857Y0118679D01*
X0395470Y0118011D01*
X0396704Y0116777D01*
X0397372Y0115164D01*
X0397372Y0113419D01*
X0396704Y0111806D01*
X0395470Y0110572D01*
X0395084Y0110412D02*
X0400519Y0110412D01*
X0400580Y0110368D02*
X0401223Y0110040D01*
X0401910Y0109817D01*
X0402623Y0109704D01*
X0402772Y0109704D01*
X0402772Y0114079D01*
X0398397Y0114079D01*
X0398397Y0113930D01*
X0398510Y0113217D01*
X0398733Y0112530D01*
X0399061Y0111887D01*
X0399485Y0111303D01*
X0399996Y0110792D01*
X0400580Y0110368D01*
X0402772Y0110412D02*
X0403197Y0110412D01*
X0403197Y0109704D02*
X0403345Y0109704D01*
X0404058Y0109817D01*
X0404745Y0110040D01*
X0405389Y0110368D01*
X0405973Y0110792D01*
X0406483Y0111303D01*
X0406908Y0111887D01*
X0407236Y0112530D01*
X0407459Y0113217D01*
X0407572Y0113930D01*
X0407572Y0114079D01*
X0403197Y0114079D01*
X0403197Y0114504D01*
X0407572Y0114504D01*
X0407572Y0114652D01*
X0407459Y0115366D01*
X0407236Y0116052D01*
X0406908Y0116696D01*
X0406483Y0117280D01*
X0405973Y0117790D01*
X0405389Y0118215D01*
X0404745Y0118543D01*
X0404058Y0118766D01*
X0403345Y0118879D01*
X0403197Y0118879D01*
X0403197Y0114504D01*
X0402772Y0114504D01*
X0402772Y0118879D01*
X0402623Y0118879D01*
X0401910Y0118766D01*
X0401223Y0118543D01*
X0400580Y0118215D01*
X0399996Y0117790D01*
X0399485Y0117280D01*
X0399061Y0116696D01*
X0398733Y0116052D01*
X0398510Y0115366D01*
X0398397Y0114652D01*
X0398397Y0114504D01*
X0402772Y0114504D01*
X0402772Y0114079D01*
X0403197Y0114079D01*
X0403197Y0109704D01*
X0403197Y0108839D02*
X0402772Y0108839D01*
X0402371Y0108839D02*
X0108557Y0108839D01*
X0108580Y0110412D02*
X0390885Y0110412D01*
X0389191Y0111985D02*
X0119099Y0111985D01*
X0119361Y0112094D02*
X0120142Y0112875D01*
X0120565Y0113896D01*
X0120565Y0115001D01*
X0120142Y0116022D01*
X0119361Y0116804D01*
X0118340Y0117227D01*
X0117235Y0117227D01*
X0116214Y0116804D01*
X0115432Y0116022D01*
X0115031Y0115055D01*
X0114631Y0116022D01*
X0113849Y0116804D01*
X0112828Y0117227D01*
X0111723Y0117227D01*
X0110702Y0116804D01*
X0109921Y0116022D01*
X0109498Y0115001D01*
X0109498Y0113896D01*
X0109921Y0112875D01*
X0110702Y0112094D01*
X0111723Y0111671D01*
X0112828Y0111671D01*
X0113849Y0112094D01*
X0114631Y0112875D01*
X0115031Y0113843D01*
X0115432Y0112875D01*
X0116214Y0112094D01*
X0117235Y0111671D01*
X0118340Y0111671D01*
X0119361Y0112094D01*
X0120426Y0113559D02*
X0388597Y0113559D01*
X0388597Y0115132D02*
X0120511Y0115132D01*
X0119459Y0116705D02*
X0389235Y0116705D01*
X0391146Y0118279D02*
X0066425Y0118279D01*
X0066425Y0119046D02*
X0065544Y0121173D01*
X0063916Y0122801D01*
X0061789Y0123682D01*
X0059487Y0123682D01*
X0057359Y0122801D01*
X0055731Y0121173D01*
X0054850Y0119046D01*
X0054850Y0116743D01*
X0055731Y0114616D01*
X0057359Y0112988D01*
X0059166Y0112240D01*
X0058877Y0112146D01*
X0058233Y0111818D01*
X0057649Y0111394D01*
X0057139Y0110883D01*
X0056714Y0110299D01*
X0056386Y0109655D01*
X0056163Y0108969D01*
X0056050Y0108256D01*
X0056050Y0108107D01*
X0060425Y0108107D01*
X0060425Y0107682D01*
X0056050Y0107682D01*
X0056050Y0107533D01*
X0056163Y0106820D01*
X0056386Y0106134D01*
X0056714Y0105490D01*
X0057139Y0104906D01*
X0057649Y0104395D01*
X0058233Y0103971D01*
X0058877Y0103643D01*
X0059564Y0103420D01*
X0060277Y0103307D01*
X0060425Y0103307D01*
X0060425Y0107682D01*
X0060850Y0107682D01*
X0060850Y0103307D01*
X0060999Y0103307D01*
X0061712Y0103420D01*
X0062399Y0103643D01*
X0063042Y0103971D01*
X0063626Y0104395D01*
X0064137Y0104906D01*
X0064561Y0105490D01*
X0064889Y0106134D01*
X0065112Y0106820D01*
X0065225Y0107533D01*
X0065225Y0107682D01*
X0060850Y0107682D01*
X0060850Y0108107D01*
X0065225Y0108107D01*
X0065225Y0108256D01*
X0065112Y0108969D01*
X0064889Y0109655D01*
X0064561Y0110299D01*
X0064137Y0110883D01*
X0063626Y0111394D01*
X0063042Y0111818D01*
X0062399Y0112146D01*
X0062109Y0112240D01*
X0063916Y0112988D01*
X0065544Y0114616D01*
X0066425Y0116743D01*
X0066425Y0119046D01*
X0066091Y0119852D02*
X0401802Y0119852D01*
X0401910Y0119817D02*
X0402623Y0119704D01*
X0402772Y0119704D01*
X0402772Y0124079D01*
X0398397Y0124079D01*
X0398397Y0123930D01*
X0398510Y0123217D01*
X0398733Y0122530D01*
X0399061Y0121887D01*
X0399485Y0121303D01*
X0399996Y0120792D01*
X0400580Y0120368D01*
X0401223Y0120040D01*
X0401910Y0119817D01*
X0402772Y0119852D02*
X0403197Y0119852D01*
X0403197Y0119704D02*
X0403345Y0119704D01*
X0404058Y0119817D01*
X0404745Y0120040D01*
X0405389Y0120368D01*
X0405973Y0120792D01*
X0406483Y0121303D01*
X0406908Y0121887D01*
X0407236Y0122530D01*
X0407459Y0123217D01*
X0407572Y0123930D01*
X0407572Y0124079D01*
X0403197Y0124079D01*
X0403197Y0124504D01*
X0407572Y0124504D01*
X0407572Y0124652D01*
X0407459Y0125366D01*
X0407236Y0126052D01*
X0406908Y0126696D01*
X0406483Y0127280D01*
X0405973Y0127790D01*
X0405389Y0128215D01*
X0404745Y0128543D01*
X0404058Y0128766D01*
X0403345Y0128879D01*
X0403197Y0128879D01*
X0403197Y0124504D01*
X0402772Y0124504D01*
X0402772Y0128879D01*
X0402623Y0128879D01*
X0401910Y0128766D01*
X0401223Y0128543D01*
X0400580Y0128215D01*
X0399996Y0127790D01*
X0399485Y0127280D01*
X0399061Y0126696D01*
X0398733Y0126052D01*
X0398510Y0125366D01*
X0398397Y0124652D01*
X0398397Y0124504D01*
X0402772Y0124504D01*
X0402772Y0124079D01*
X0403197Y0124079D01*
X0403197Y0119704D01*
X0404166Y0119852D02*
X0409117Y0119852D01*
X0409117Y0121425D02*
X0406572Y0121425D01*
X0407388Y0122999D02*
X0409117Y0122999D01*
X0409117Y0124572D02*
X0407572Y0124572D01*
X0407188Y0126145D02*
X0409117Y0126145D01*
X0409117Y0127719D02*
X0406045Y0127719D01*
X0404745Y0130040D02*
X0405389Y0130368D01*
X0405973Y0130792D01*
X0406483Y0131303D01*
X0406908Y0131887D01*
X0407236Y0132530D01*
X0407459Y0133217D01*
X0407572Y0133930D01*
X0407572Y0134079D01*
X0403197Y0134079D01*
X0403197Y0134504D01*
X0407572Y0134504D01*
X0407572Y0134652D01*
X0407459Y0135366D01*
X0407236Y0136052D01*
X0406908Y0136696D01*
X0406483Y0137280D01*
X0405973Y0137790D01*
X0405389Y0138215D01*
X0404745Y0138543D01*
X0404058Y0138766D01*
X0403345Y0138879D01*
X0403197Y0138879D01*
X0403197Y0134504D01*
X0402772Y0134504D01*
X0402772Y0138879D01*
X0402623Y0138879D01*
X0401910Y0138766D01*
X0401223Y0138543D01*
X0400580Y0138215D01*
X0399996Y0137790D01*
X0399485Y0137280D01*
X0399061Y0136696D01*
X0398733Y0136052D01*
X0398510Y0135366D01*
X0398397Y0134652D01*
X0398397Y0134504D01*
X0402772Y0134504D01*
X0402772Y0134079D01*
X0398397Y0134079D01*
X0398397Y0133930D01*
X0398510Y0133217D01*
X0398733Y0132530D01*
X0399061Y0131887D01*
X0399485Y0131303D01*
X0399996Y0130792D01*
X0400580Y0130368D01*
X0401223Y0130040D01*
X0401910Y0129817D01*
X0402623Y0129704D01*
X0402772Y0129704D01*
X0402772Y0134079D01*
X0403197Y0134079D01*
X0403197Y0129704D01*
X0403345Y0129704D01*
X0404058Y0129817D01*
X0404745Y0130040D01*
X0406046Y0130865D02*
X0409117Y0130865D01*
X0409117Y0129292D02*
X0381808Y0129292D01*
X0381808Y0128578D02*
X0381172Y0127043D01*
X0379997Y0125868D01*
X0378461Y0125231D01*
X0376799Y0125231D01*
X0375263Y0125868D01*
X0374088Y0127043D01*
X0373452Y0128578D01*
X0373452Y0130240D01*
X0374088Y0131776D01*
X0375263Y0132951D01*
X0376799Y0133587D01*
X0378461Y0133587D01*
X0379997Y0132951D01*
X0381172Y0131776D01*
X0381808Y0130240D01*
X0381808Y0128578D01*
X0381452Y0127719D02*
X0390207Y0127719D01*
X0390499Y0128011D02*
X0389265Y0126777D01*
X0388597Y0125164D01*
X0388597Y0123419D01*
X0389265Y0121806D01*
X0390499Y0120572D01*
X0392112Y0119904D01*
X0393857Y0119904D01*
X0395470Y0120572D01*
X0396704Y0121806D01*
X0397372Y0123419D01*
X0397372Y0125164D01*
X0396704Y0126777D01*
X0395470Y0128011D01*
X0393857Y0128679D01*
X0392112Y0128679D01*
X0390499Y0128011D01*
X0389003Y0126145D02*
X0380274Y0126145D01*
X0381549Y0130865D02*
X0390206Y0130865D01*
X0390499Y0130572D02*
X0392112Y0129904D01*
X0393857Y0129904D01*
X0395470Y0130572D01*
X0396704Y0131806D01*
X0397372Y0133419D01*
X0397372Y0135164D01*
X0396704Y0136777D01*
X0395470Y0138011D01*
X0393857Y0138679D01*
X0392112Y0138679D01*
X0390499Y0138011D01*
X0389265Y0136777D01*
X0388597Y0135164D01*
X0388597Y0133419D01*
X0389265Y0131806D01*
X0390499Y0130572D01*
X0389003Y0132438D02*
X0380509Y0132438D01*
X0374750Y0132438D02*
X0365549Y0132438D01*
X0365036Y0132951D02*
X0366211Y0131776D01*
X0366847Y0130240D01*
X0366847Y0128578D01*
X0366211Y0127043D01*
X0365036Y0125868D01*
X0363500Y0125231D01*
X0361838Y0125231D01*
X0360303Y0125868D01*
X0359127Y0127043D01*
X0358491Y0128578D01*
X0358491Y0130240D01*
X0359127Y0131776D01*
X0360303Y0132951D01*
X0361838Y0133587D01*
X0363500Y0133587D01*
X0365036Y0132951D01*
X0366588Y0130865D02*
X0373711Y0130865D01*
X0373452Y0129292D02*
X0366847Y0129292D01*
X0366491Y0127719D02*
X0373808Y0127719D01*
X0374986Y0126145D02*
X0365314Y0126145D01*
X0360025Y0126145D02*
X0255295Y0126145D01*
X0255575Y0125865D02*
X0254794Y0126646D01*
X0253773Y0127069D01*
X0252668Y0127069D01*
X0251647Y0126646D01*
X0250865Y0125865D01*
X0250443Y0124844D01*
X0250443Y0123739D01*
X0250865Y0122718D01*
X0251647Y0121936D01*
X0252668Y0121513D01*
X0253773Y0121513D01*
X0254794Y0121936D01*
X0255575Y0122718D01*
X0255998Y0123739D01*
X0255998Y0124844D01*
X0255575Y0125865D01*
X0255998Y0124572D02*
X0332709Y0124572D01*
X0332755Y0124684D02*
X0332332Y0123663D01*
X0332332Y0122558D01*
X0332755Y0121537D01*
X0333537Y0120755D01*
X0334558Y0120332D01*
X0335663Y0120332D01*
X0336684Y0120755D01*
X0337465Y0121537D01*
X0337888Y0122558D01*
X0337888Y0123663D01*
X0337465Y0124684D01*
X0336684Y0125465D01*
X0335663Y0125888D01*
X0334558Y0125888D01*
X0333537Y0125465D01*
X0332755Y0124684D01*
X0332332Y0122999D02*
X0255692Y0122999D01*
X0250749Y0122999D02*
X0245888Y0122999D01*
X0245725Y0122604D02*
X0246178Y0123699D01*
X0246178Y0124884D01*
X0245725Y0125978D01*
X0244887Y0126816D01*
X0243792Y0127269D01*
X0242608Y0127269D01*
X0241513Y0126816D01*
X0241409Y0126712D01*
X0241306Y0126816D01*
X0240211Y0127269D01*
X0239027Y0127269D01*
X0237932Y0126816D01*
X0237094Y0125978D01*
X0236641Y0124884D01*
X0236641Y0123699D01*
X0237094Y0122604D01*
X0237932Y0121767D01*
X0239027Y0121313D01*
X0240211Y0121313D01*
X0241306Y0121767D01*
X0241409Y0121870D01*
X0241513Y0121767D01*
X0242608Y0121313D01*
X0243792Y0121313D01*
X0244887Y0121767D01*
X0245725Y0122604D01*
X0246178Y0124572D02*
X0250443Y0124572D01*
X0251146Y0126145D02*
X0245558Y0126145D01*
X0244062Y0121425D02*
X0332867Y0121425D01*
X0337354Y0121425D02*
X0389646Y0121425D01*
X0388771Y0122999D02*
X0337888Y0122999D01*
X0337512Y0124572D02*
X0388597Y0124572D01*
X0395762Y0127719D02*
X0399924Y0127719D01*
X0398780Y0126145D02*
X0396965Y0126145D01*
X0397372Y0124572D02*
X0398397Y0124572D01*
X0398581Y0122999D02*
X0397198Y0122999D01*
X0396323Y0121425D02*
X0399396Y0121425D01*
X0402772Y0121425D02*
X0403197Y0121425D01*
X0403197Y0122999D02*
X0402772Y0122999D01*
X0402772Y0124572D02*
X0403197Y0124572D01*
X0403197Y0126145D02*
X0402772Y0126145D01*
X0402772Y0127719D02*
X0403197Y0127719D01*
X0403197Y0130865D02*
X0402772Y0130865D01*
X0402772Y0132438D02*
X0403197Y0132438D01*
X0403197Y0134012D02*
X0402772Y0134012D01*
X0402772Y0135585D02*
X0403197Y0135585D01*
X0403197Y0137158D02*
X0402772Y0137158D01*
X0402772Y0138732D02*
X0403197Y0138732D01*
X0404163Y0138732D02*
X0409117Y0138732D01*
X0409117Y0140305D02*
X0405265Y0140305D01*
X0405389Y0140368D02*
X0405973Y0140792D01*
X0406483Y0141303D01*
X0406908Y0141887D01*
X0407236Y0142530D01*
X0407459Y0143217D01*
X0407572Y0143930D01*
X0407572Y0144079D01*
X0403197Y0144079D01*
X0403197Y0144504D01*
X0407572Y0144504D01*
X0407572Y0144652D01*
X0407459Y0145366D01*
X0407236Y0146052D01*
X0406908Y0146696D01*
X0406483Y0147280D01*
X0405973Y0147790D01*
X0405389Y0148215D01*
X0404745Y0148543D01*
X0404058Y0148766D01*
X0403345Y0148879D01*
X0403197Y0148879D01*
X0403197Y0144504D01*
X0402772Y0144504D01*
X0402772Y0148879D01*
X0402623Y0148879D01*
X0401910Y0148766D01*
X0401223Y0148543D01*
X0400580Y0148215D01*
X0399996Y0147790D01*
X0399485Y0147280D01*
X0399061Y0146696D01*
X0398733Y0146052D01*
X0398510Y0145366D01*
X0398397Y0144652D01*
X0398397Y0144504D01*
X0402772Y0144504D01*
X0402772Y0144079D01*
X0398397Y0144079D01*
X0398397Y0143930D01*
X0398510Y0143217D01*
X0398733Y0142530D01*
X0399061Y0141887D01*
X0399485Y0141303D01*
X0399996Y0140792D01*
X0400580Y0140368D01*
X0401223Y0140040D01*
X0401910Y0139817D01*
X0402623Y0139704D01*
X0402772Y0139704D01*
X0402772Y0144079D01*
X0403197Y0144079D01*
X0403197Y0139704D01*
X0403345Y0139704D01*
X0404058Y0139817D01*
X0404745Y0140040D01*
X0405389Y0140368D01*
X0406901Y0141878D02*
X0409117Y0141878D01*
X0409117Y0143452D02*
X0407496Y0143452D01*
X0407513Y0145025D02*
X0409117Y0145025D01*
X0409117Y0146598D02*
X0406957Y0146598D01*
X0405448Y0148172D02*
X0409117Y0148172D01*
X0409117Y0149745D02*
X0403604Y0149745D01*
X0403345Y0149704D02*
X0404058Y0149817D01*
X0404745Y0150040D01*
X0405389Y0150368D01*
X0405973Y0150792D01*
X0406483Y0151303D01*
X0406908Y0151887D01*
X0407236Y0152530D01*
X0407459Y0153217D01*
X0407572Y0153930D01*
X0407572Y0154079D01*
X0403197Y0154079D01*
X0403197Y0154504D01*
X0407572Y0154504D01*
X0407572Y0154652D01*
X0407459Y0155366D01*
X0407236Y0156052D01*
X0406908Y0156696D01*
X0406483Y0157280D01*
X0405973Y0157790D01*
X0405389Y0158215D01*
X0404745Y0158543D01*
X0404058Y0158766D01*
X0403345Y0158879D01*
X0403197Y0158879D01*
X0403197Y0154504D01*
X0402772Y0154504D01*
X0402772Y0158879D01*
X0402623Y0158879D01*
X0401910Y0158766D01*
X0401223Y0158543D01*
X0400580Y0158215D01*
X0399996Y0157790D01*
X0399485Y0157280D01*
X0399061Y0156696D01*
X0398733Y0156052D01*
X0398510Y0155366D01*
X0398397Y0154652D01*
X0398397Y0154504D01*
X0402772Y0154504D01*
X0402772Y0154079D01*
X0398397Y0154079D01*
X0398397Y0153930D01*
X0398510Y0153217D01*
X0398733Y0152530D01*
X0399061Y0151887D01*
X0399485Y0151303D01*
X0399996Y0150792D01*
X0400580Y0150368D01*
X0401223Y0150040D01*
X0401910Y0149817D01*
X0402623Y0149704D01*
X0402772Y0149704D01*
X0402772Y0154079D01*
X0403197Y0154079D01*
X0403197Y0149704D01*
X0403345Y0149704D01*
X0403197Y0149745D02*
X0402772Y0149745D01*
X0402364Y0149745D02*
X0108215Y0149745D01*
X0107943Y0149090D02*
X0108580Y0150626D01*
X0108580Y0152288D01*
X0107943Y0153823D01*
X0106768Y0154999D01*
X0105233Y0155635D01*
X0103571Y0155635D01*
X0102035Y0154999D01*
X0100860Y0153823D01*
X0100224Y0152288D01*
X0100224Y0150626D01*
X0100860Y0149090D01*
X0102035Y0147915D01*
X0103571Y0147279D01*
X0105233Y0147279D01*
X0106768Y0147915D01*
X0107943Y0149090D01*
X0107025Y0148172D02*
X0390887Y0148172D01*
X0390499Y0148011D02*
X0389265Y0146777D01*
X0388597Y0145164D01*
X0388597Y0143419D01*
X0389265Y0141806D01*
X0390499Y0140572D01*
X0392112Y0139904D01*
X0393857Y0139904D01*
X0395470Y0140572D01*
X0396704Y0141806D01*
X0397372Y0143419D01*
X0397372Y0145164D01*
X0396704Y0146777D01*
X0395470Y0148011D01*
X0393857Y0148679D01*
X0392112Y0148679D01*
X0390499Y0148011D01*
X0389191Y0146598D02*
X0018584Y0146598D01*
X0018584Y0145025D02*
X0388597Y0145025D01*
X0388597Y0143452D02*
X0070590Y0143452D01*
X0070536Y0143581D02*
X0069755Y0144363D01*
X0068734Y0144786D01*
X0067629Y0144786D01*
X0066608Y0144363D01*
X0065826Y0143581D01*
X0065403Y0142560D01*
X0065403Y0141455D01*
X0065826Y0140434D01*
X0066608Y0139653D01*
X0067629Y0139230D01*
X0068734Y0139230D01*
X0069755Y0139653D01*
X0070536Y0140434D01*
X0070959Y0141455D01*
X0070959Y0142560D01*
X0070536Y0143581D01*
X0070959Y0141878D02*
X0389235Y0141878D01*
X0391143Y0140305D02*
X0337518Y0140305D01*
X0337465Y0140432D02*
X0336684Y0141213D01*
X0335663Y0141636D01*
X0334558Y0141636D01*
X0333537Y0141213D01*
X0332755Y0140432D01*
X0332332Y0139411D01*
X0332332Y0138306D01*
X0332755Y0137285D01*
X0333537Y0136503D01*
X0334558Y0136080D01*
X0335663Y0136080D01*
X0336684Y0136503D01*
X0337465Y0137285D01*
X0337888Y0138306D01*
X0337888Y0139411D01*
X0337465Y0140432D01*
X0337888Y0138732D02*
X0401805Y0138732D01*
X0402772Y0140305D02*
X0403197Y0140305D01*
X0403197Y0141878D02*
X0402772Y0141878D01*
X0402772Y0143452D02*
X0403197Y0143452D01*
X0403197Y0145025D02*
X0402772Y0145025D01*
X0402772Y0146598D02*
X0403197Y0146598D01*
X0403197Y0148172D02*
X0402772Y0148172D01*
X0400520Y0148172D02*
X0395081Y0148172D01*
X0393857Y0149904D02*
X0392112Y0149904D01*
X0390499Y0150572D01*
X0389265Y0151806D01*
X0388597Y0153419D01*
X0388597Y0155164D01*
X0389265Y0156777D01*
X0390499Y0158011D01*
X0392112Y0158679D01*
X0393857Y0158679D01*
X0395470Y0158011D01*
X0396704Y0156777D01*
X0397372Y0155164D01*
X0397372Y0153419D01*
X0396704Y0151806D01*
X0395470Y0150572D01*
X0393857Y0149904D01*
X0396216Y0151318D02*
X0399474Y0151318D01*
X0398616Y0152892D02*
X0397153Y0152892D01*
X0397372Y0154465D02*
X0402772Y0154465D01*
X0403197Y0154465D02*
X0409117Y0154465D01*
X0409117Y0156038D02*
X0407240Y0156038D01*
X0406152Y0157612D02*
X0409117Y0157612D01*
X0409117Y0159185D02*
X0122288Y0159185D01*
X0122340Y0159310D02*
X0121887Y0158215D01*
X0121049Y0157378D01*
X0119955Y0156924D01*
X0118770Y0156924D01*
X0117675Y0157378D01*
X0116838Y0158215D01*
X0116384Y0159310D01*
X0116384Y0160495D01*
X0116838Y0161589D01*
X0116941Y0161693D01*
X0116838Y0161797D01*
X0116384Y0162891D01*
X0116384Y0164076D01*
X0116838Y0165170D01*
X0117675Y0166008D01*
X0118770Y0166461D01*
X0119955Y0166461D01*
X0121049Y0166008D01*
X0121887Y0165170D01*
X0122340Y0164076D01*
X0122340Y0162891D01*
X0121887Y0161797D01*
X0121783Y0161693D01*
X0121887Y0161589D01*
X0122340Y0160495D01*
X0122340Y0159310D01*
X0122231Y0160758D02*
X0390313Y0160758D01*
X0390499Y0160572D02*
X0392112Y0159904D01*
X0393857Y0159904D01*
X0395470Y0160572D01*
X0396704Y0161806D01*
X0397372Y0163419D01*
X0397372Y0165164D01*
X0396704Y0166777D01*
X0395470Y0168011D01*
X0394207Y0168534D01*
X0396263Y0169385D01*
X0397891Y0171013D01*
X0397984Y0171239D01*
X0398078Y0171013D01*
X0399706Y0169385D01*
X0401513Y0168637D01*
X0401223Y0168543D01*
X0400580Y0168215D01*
X0399996Y0167790D01*
X0399485Y0167280D01*
X0399061Y0166696D01*
X0398733Y0166052D01*
X0398510Y0165366D01*
X0398397Y0164652D01*
X0398397Y0164504D01*
X0402772Y0164504D01*
X0402772Y0164079D01*
X0398397Y0164079D01*
X0398397Y0163930D01*
X0398510Y0163217D01*
X0398733Y0162530D01*
X0399061Y0161887D01*
X0399485Y0161303D01*
X0399996Y0160792D01*
X0400580Y0160368D01*
X0401223Y0160040D01*
X0401910Y0159817D01*
X0402623Y0159704D01*
X0402772Y0159704D01*
X0402772Y0164079D01*
X0403197Y0164079D01*
X0403197Y0164504D01*
X0407572Y0164504D01*
X0407572Y0164652D01*
X0407459Y0165366D01*
X0407236Y0166052D01*
X0406908Y0166696D01*
X0406483Y0167280D01*
X0405973Y0167790D01*
X0405389Y0168215D01*
X0404745Y0168543D01*
X0404456Y0168637D01*
X0406263Y0169385D01*
X0407891Y0171013D01*
X0408772Y0173140D01*
X0408772Y0175443D01*
X0407891Y0177570D01*
X0406263Y0179198D01*
X0404135Y0180079D01*
X0401833Y0180079D01*
X0399706Y0179198D01*
X0398078Y0177570D01*
X0397984Y0177343D01*
X0397891Y0177570D01*
X0396263Y0179198D01*
X0394135Y0180079D01*
X0391833Y0180079D01*
X0389706Y0179198D01*
X0388078Y0177570D01*
X0387197Y0175443D01*
X0387197Y0173140D01*
X0388078Y0171013D01*
X0389706Y0169385D01*
X0391761Y0168534D01*
X0390499Y0168011D01*
X0389265Y0166777D01*
X0388597Y0165164D01*
X0388597Y0163419D01*
X0389265Y0161806D01*
X0390499Y0160572D01*
X0389047Y0162331D02*
X0122108Y0162331D01*
X0122340Y0163905D02*
X0388597Y0163905D01*
X0388727Y0165478D02*
X0121579Y0165478D01*
X0121959Y0167576D02*
X0120938Y0167999D01*
X0120157Y0168781D01*
X0119734Y0169802D01*
X0119734Y0170907D01*
X0120157Y0171928D01*
X0120938Y0172709D01*
X0121959Y0173132D01*
X0123064Y0173132D01*
X0124085Y0172709D01*
X0124867Y0171928D01*
X0125290Y0170907D01*
X0125290Y0169802D01*
X0124867Y0168781D01*
X0124085Y0167999D01*
X0123064Y0167576D01*
X0121959Y0167576D01*
X0120313Y0168625D02*
X0018584Y0168625D01*
X0018584Y0170198D02*
X0119734Y0170198D01*
X0120092Y0171771D02*
X0018584Y0171771D01*
X0018584Y0173345D02*
X0053388Y0173345D01*
X0053228Y0173505D02*
X0054009Y0172724D01*
X0055030Y0172301D01*
X0056135Y0172301D01*
X0057156Y0172724D01*
X0057157Y0172725D01*
X0057159Y0172724D01*
X0058180Y0172301D01*
X0059285Y0172301D01*
X0060306Y0172724D01*
X0061087Y0173505D01*
X0061510Y0174526D01*
X0061510Y0175631D01*
X0061087Y0176652D01*
X0060889Y0176850D01*
X0061087Y0177048D01*
X0061510Y0178069D01*
X0061510Y0179175D01*
X0061087Y0180196D01*
X0060889Y0180394D01*
X0061087Y0180592D01*
X0061510Y0181613D01*
X0061510Y0182718D01*
X0061087Y0183739D01*
X0060306Y0184520D01*
X0059285Y0184943D01*
X0058180Y0184943D01*
X0057159Y0184520D01*
X0057157Y0184519D01*
X0057156Y0184520D01*
X0056135Y0184943D01*
X0055030Y0184943D01*
X0054009Y0184520D01*
X0053228Y0183739D01*
X0052805Y0182718D01*
X0052805Y0181613D01*
X0053228Y0180592D01*
X0053426Y0180394D01*
X0053228Y0180196D01*
X0052805Y0179175D01*
X0052805Y0178069D01*
X0053228Y0177048D01*
X0053426Y0176850D01*
X0053228Y0176652D01*
X0052805Y0175631D01*
X0052805Y0174526D01*
X0053228Y0173505D01*
X0052805Y0174918D02*
X0018584Y0174918D01*
X0018584Y0176491D02*
X0053161Y0176491D01*
X0052807Y0178065D02*
X0018584Y0178065D01*
X0018584Y0179638D02*
X0052997Y0179638D01*
X0052971Y0181211D02*
X0018584Y0181211D01*
X0018584Y0182785D02*
X0052832Y0182785D01*
X0053847Y0184358D02*
X0018584Y0184358D01*
X0018584Y0185931D02*
X0409117Y0185931D01*
X0409117Y0184358D02*
X0060468Y0184358D01*
X0061483Y0182785D02*
X0409117Y0182785D01*
X0409117Y0181211D02*
X0061344Y0181211D01*
X0061318Y0179638D02*
X0390769Y0179638D01*
X0388573Y0178065D02*
X0061508Y0178065D01*
X0061154Y0176491D02*
X0387631Y0176491D01*
X0387197Y0174918D02*
X0061510Y0174918D01*
X0060927Y0173345D02*
X0387197Y0173345D01*
X0387764Y0171771D02*
X0124932Y0171771D01*
X0125290Y0170198D02*
X0388893Y0170198D01*
X0391542Y0168625D02*
X0124711Y0168625D01*
X0117145Y0165478D02*
X0018584Y0165478D01*
X0018584Y0163905D02*
X0116384Y0163905D01*
X0116616Y0162331D02*
X0018584Y0162331D01*
X0018584Y0160758D02*
X0116493Y0160758D01*
X0116436Y0159185D02*
X0018584Y0159185D01*
X0018584Y0157612D02*
X0117442Y0157612D01*
X0121283Y0157612D02*
X0390100Y0157612D01*
X0388959Y0156038D02*
X0018584Y0156038D01*
X0018584Y0154465D02*
X0101501Y0154465D01*
X0100474Y0152892D02*
X0018584Y0152892D01*
X0018584Y0151318D02*
X0100224Y0151318D01*
X0100588Y0149745D02*
X0018584Y0149745D01*
X0018584Y0148172D02*
X0101778Y0148172D01*
X0108580Y0151318D02*
X0389753Y0151318D01*
X0388815Y0152892D02*
X0108329Y0152892D01*
X0107302Y0154465D02*
X0388597Y0154465D01*
X0395869Y0157612D02*
X0399817Y0157612D01*
X0398728Y0156038D02*
X0397010Y0156038D01*
X0402772Y0156038D02*
X0403197Y0156038D01*
X0403197Y0157612D02*
X0402772Y0157612D01*
X0403197Y0159704D02*
X0403345Y0159704D01*
X0404058Y0159817D01*
X0404745Y0160040D01*
X0405389Y0160368D01*
X0405973Y0160792D01*
X0406483Y0161303D01*
X0406908Y0161887D01*
X0407236Y0162530D01*
X0407459Y0163217D01*
X0407572Y0163930D01*
X0407572Y0164079D01*
X0403197Y0164079D01*
X0403197Y0159704D01*
X0403197Y0160758D02*
X0402772Y0160758D01*
X0402772Y0162331D02*
X0403197Y0162331D01*
X0403197Y0163905D02*
X0402772Y0163905D01*
X0400043Y0160758D02*
X0395656Y0160758D01*
X0396921Y0162331D02*
X0398834Y0162331D01*
X0398401Y0163905D02*
X0397372Y0163905D01*
X0397242Y0165478D02*
X0398546Y0165478D01*
X0399319Y0167051D02*
X0396429Y0167051D01*
X0394427Y0168625D02*
X0401476Y0168625D01*
X0404493Y0168625D02*
X0409117Y0168625D01*
X0409117Y0170198D02*
X0407076Y0170198D01*
X0408205Y0171771D02*
X0409117Y0171771D01*
X0409117Y0173345D02*
X0408772Y0173345D01*
X0408772Y0174918D02*
X0409117Y0174918D01*
X0409117Y0176491D02*
X0408337Y0176491D01*
X0409117Y0178065D02*
X0407396Y0178065D01*
X0409117Y0179638D02*
X0405200Y0179638D01*
X0400769Y0179638D02*
X0395200Y0179638D01*
X0397396Y0178065D02*
X0398573Y0178065D01*
X0398893Y0170198D02*
X0397076Y0170198D01*
X0389540Y0167051D02*
X0018584Y0167051D01*
X0018584Y0187504D02*
X0380197Y0187504D01*
X0380147Y0187525D02*
X0382090Y0186720D01*
X0384193Y0186720D01*
X0386137Y0187525D01*
X0387624Y0189013D01*
X0387885Y0189641D01*
X0388814Y0188712D01*
X0390242Y0188120D01*
X0391789Y0188120D01*
X0393218Y0188712D01*
X0394311Y0189806D01*
X0394903Y0191235D01*
X0394903Y0192781D01*
X0394311Y0194210D01*
X0393218Y0195303D01*
X0391789Y0195895D01*
X0390242Y0195895D01*
X0388814Y0195303D01*
X0387885Y0194374D01*
X0387624Y0195003D01*
X0386137Y0196490D01*
X0384193Y0197295D01*
X0382090Y0197295D01*
X0380147Y0196490D01*
X0378659Y0195003D01*
X0378472Y0194551D01*
X0378385Y0194671D01*
X0377930Y0195126D01*
X0377410Y0195504D01*
X0376837Y0195796D01*
X0376225Y0195995D01*
X0375589Y0196095D01*
X0375268Y0196095D01*
X0375268Y0192008D01*
X0375268Y0192008D01*
X0375268Y0187920D01*
X0375589Y0187920D01*
X0376225Y0188021D01*
X0376837Y0188220D01*
X0377410Y0188512D01*
X0377930Y0188890D01*
X0378385Y0189345D01*
X0378472Y0189465D01*
X0378659Y0189013D01*
X0380147Y0187525D01*
X0378632Y0189078D02*
X0378118Y0189078D01*
X0375268Y0189078D02*
X0375268Y0189078D01*
X0375268Y0187920D02*
X0375268Y0192008D01*
X0375268Y0192008D01*
X0375268Y0196095D01*
X0374946Y0196095D01*
X0374311Y0195995D01*
X0373699Y0195796D01*
X0373125Y0195504D01*
X0372605Y0195126D01*
X0372150Y0194671D01*
X0371772Y0194150D01*
X0371480Y0193577D01*
X0371281Y0192965D01*
X0371180Y0192330D01*
X0371180Y0192008D01*
X0375268Y0192008D01*
X0375268Y0192008D01*
X0371180Y0192008D01*
X0371180Y0191686D01*
X0371281Y0191051D01*
X0371480Y0190439D01*
X0371772Y0189866D01*
X0372150Y0189345D01*
X0372605Y0188890D01*
X0373125Y0188512D01*
X0373699Y0188220D01*
X0374311Y0188021D01*
X0374946Y0187920D01*
X0375268Y0187920D01*
X0375268Y0190651D02*
X0375268Y0190651D01*
X0375268Y0192224D02*
X0375268Y0192224D01*
X0375268Y0193798D02*
X0375268Y0193798D01*
X0375268Y0195371D02*
X0375268Y0195371D01*
X0377593Y0195371D02*
X0379027Y0195371D01*
X0381243Y0196944D02*
X0018584Y0196944D01*
X0018584Y0195371D02*
X0372943Y0195371D01*
X0371592Y0193798D02*
X0018584Y0193798D01*
X0018584Y0192224D02*
X0371180Y0192224D01*
X0371411Y0190651D02*
X0018584Y0190651D01*
X0018584Y0189078D02*
X0372417Y0189078D01*
X0386086Y0187504D02*
X0409117Y0187504D01*
X0409117Y0189078D02*
X0401457Y0189078D01*
X0401092Y0188712D02*
X0402185Y0189806D01*
X0402777Y0191235D01*
X0402777Y0192781D01*
X0402185Y0194210D01*
X0401092Y0195303D01*
X0399663Y0195895D01*
X0398116Y0195895D01*
X0396688Y0195303D01*
X0395594Y0194210D01*
X0395002Y0192781D01*
X0395002Y0191235D01*
X0395594Y0189806D01*
X0396688Y0188712D01*
X0398116Y0188120D01*
X0399663Y0188120D01*
X0401092Y0188712D01*
X0402535Y0190651D02*
X0409117Y0190651D01*
X0409117Y0192224D02*
X0402777Y0192224D01*
X0402356Y0193798D02*
X0409117Y0193798D01*
X0409117Y0195371D02*
X0400929Y0195371D01*
X0396851Y0195371D02*
X0393055Y0195371D01*
X0394482Y0193798D02*
X0395423Y0193798D01*
X0395002Y0192224D02*
X0394903Y0192224D01*
X0394661Y0190651D02*
X0395244Y0190651D01*
X0396322Y0189078D02*
X0393583Y0189078D01*
X0388448Y0189078D02*
X0387651Y0189078D01*
X0387256Y0195371D02*
X0388977Y0195371D01*
X0385041Y0196944D02*
X0409117Y0196944D01*
X0409117Y0198518D02*
X0018584Y0198518D01*
X0018584Y0200091D02*
X0409117Y0200091D01*
X0409117Y0201664D02*
X0097635Y0201664D01*
X0098101Y0201858D02*
X0097080Y0201435D01*
X0095975Y0201435D01*
X0094954Y0201858D01*
X0094173Y0202639D01*
X0093750Y0203660D01*
X0093750Y0204765D01*
X0094173Y0205786D01*
X0094954Y0206568D01*
X0095975Y0206991D01*
X0097080Y0206991D01*
X0098101Y0206568D01*
X0098883Y0205786D01*
X0099305Y0204765D01*
X0099305Y0203660D01*
X0098883Y0202639D01*
X0098101Y0201858D01*
X0099131Y0203238D02*
X0138338Y0203238D01*
X0137867Y0203432D02*
X0138888Y0203009D01*
X0139994Y0203009D01*
X0141015Y0203432D01*
X0141796Y0204214D01*
X0142219Y0205235D01*
X0142219Y0206340D01*
X0141796Y0207361D01*
X0141015Y0208142D01*
X0139994Y0208565D01*
X0138888Y0208565D01*
X0137867Y0208142D01*
X0137086Y0207361D01*
X0136663Y0206340D01*
X0136663Y0205235D01*
X0137086Y0204214D01*
X0137867Y0203432D01*
X0136839Y0204811D02*
X0099287Y0204811D01*
X0098284Y0206384D02*
X0136681Y0206384D01*
X0137683Y0207958D02*
X0018584Y0207958D01*
X0018584Y0209531D02*
X0409117Y0209531D01*
X0409117Y0211104D02*
X0018584Y0211104D01*
X0018584Y0212678D02*
X0381205Y0212678D01*
X0382090Y0212311D02*
X0384193Y0212311D01*
X0386137Y0213116D01*
X0387624Y0214603D01*
X0387885Y0215232D01*
X0388814Y0214303D01*
X0390242Y0213711D01*
X0391789Y0213711D01*
X0393218Y0214303D01*
X0394311Y0215396D01*
X0394903Y0216825D01*
X0394903Y0218372D01*
X0394311Y0219800D01*
X0393218Y0220894D01*
X0391789Y0221486D01*
X0390242Y0221486D01*
X0388814Y0220894D01*
X0387885Y0219965D01*
X0387624Y0220593D01*
X0386137Y0222081D01*
X0384193Y0222886D01*
X0382090Y0222886D01*
X0380147Y0222081D01*
X0378659Y0220593D01*
X0378472Y0220142D01*
X0378385Y0220261D01*
X0377930Y0220716D01*
X0377410Y0221094D01*
X0376837Y0221386D01*
X0376225Y0221585D01*
X0375589Y0221686D01*
X0375268Y0221686D01*
X0375268Y0217599D01*
X0375268Y0217599D01*
X0375268Y0221686D01*
X0374946Y0221686D01*
X0374311Y0221585D01*
X0373699Y0221386D01*
X0373125Y0221094D01*
X0372605Y0220716D01*
X0372150Y0220261D01*
X0371772Y0219741D01*
X0371480Y0219167D01*
X0371281Y0218556D01*
X0371180Y0217920D01*
X0371180Y0217598D01*
X0371180Y0217277D01*
X0371281Y0216641D01*
X0371480Y0216029D01*
X0371772Y0215456D01*
X0372150Y0214936D01*
X0372605Y0214481D01*
X0373125Y0214103D01*
X0373699Y0213810D01*
X0374311Y0213612D01*
X0374946Y0213511D01*
X0375268Y0213511D01*
X0375589Y0213511D01*
X0376225Y0213612D01*
X0376837Y0213810D01*
X0377410Y0214103D01*
X0377930Y0214481D01*
X0378385Y0214936D01*
X0378472Y0215055D01*
X0378659Y0214603D01*
X0380147Y0213116D01*
X0382090Y0212311D01*
X0385078Y0212678D02*
X0409117Y0212678D01*
X0409117Y0214251D02*
X0400966Y0214251D01*
X0401092Y0214303D02*
X0402185Y0215396D01*
X0402777Y0216825D01*
X0402777Y0218372D01*
X0402185Y0219800D01*
X0401092Y0220894D01*
X0399663Y0221486D01*
X0398116Y0221486D01*
X0396688Y0220894D01*
X0395594Y0219800D01*
X0395002Y0218372D01*
X0395002Y0216825D01*
X0395594Y0215396D01*
X0396688Y0214303D01*
X0398116Y0213711D01*
X0399663Y0213711D01*
X0401092Y0214303D01*
X0402363Y0215824D02*
X0409117Y0215824D01*
X0409117Y0217397D02*
X0402777Y0217397D01*
X0402529Y0218971D02*
X0409117Y0218971D01*
X0409117Y0220544D02*
X0401442Y0220544D01*
X0396338Y0220544D02*
X0393568Y0220544D01*
X0394655Y0218971D02*
X0395251Y0218971D01*
X0395002Y0217397D02*
X0394903Y0217397D01*
X0394488Y0215824D02*
X0395417Y0215824D01*
X0396813Y0214251D02*
X0393092Y0214251D01*
X0388939Y0214251D02*
X0387272Y0214251D01*
X0379012Y0214251D02*
X0377614Y0214251D01*
X0375268Y0214251D02*
X0375268Y0214251D01*
X0375268Y0213511D02*
X0375268Y0217598D01*
X0375268Y0217598D01*
X0375268Y0213511D01*
X0375268Y0215824D02*
X0375268Y0215824D01*
X0375268Y0217397D02*
X0375268Y0217397D01*
X0375268Y0217598D02*
X0371180Y0217598D01*
X0375268Y0217598D01*
X0375268Y0217598D01*
X0375268Y0218971D02*
X0375268Y0218971D01*
X0375268Y0220544D02*
X0375268Y0220544D01*
X0378103Y0220544D02*
X0378639Y0220544D01*
X0380235Y0222117D02*
X0343139Y0222117D01*
X0343102Y0222233D02*
X0342774Y0222877D01*
X0342349Y0223461D01*
X0341839Y0223972D01*
X0341255Y0224396D01*
X0340611Y0224724D01*
X0339925Y0224947D01*
X0339211Y0225060D01*
X0339063Y0225060D01*
X0339063Y0220685D01*
X0343438Y0220685D01*
X0343438Y0220833D01*
X0343325Y0221547D01*
X0343102Y0222233D01*
X0342120Y0223691D02*
X0409117Y0223691D01*
X0409117Y0225264D02*
X0132243Y0225264D01*
X0132129Y0225379D02*
X0131903Y0225472D01*
X0132129Y0225566D01*
X0133757Y0227194D01*
X0134505Y0229001D01*
X0134599Y0228711D01*
X0134927Y0228068D01*
X0135351Y0227484D01*
X0135862Y0226973D01*
X0136446Y0226549D01*
X0137089Y0226221D01*
X0137776Y0225998D01*
X0138489Y0225885D01*
X0138638Y0225885D01*
X0138638Y0230260D01*
X0139063Y0230260D01*
X0139063Y0230685D01*
X0143438Y0230685D01*
X0143438Y0230833D01*
X0143325Y0231547D01*
X0143102Y0232233D01*
X0142774Y0232877D01*
X0142349Y0233461D01*
X0141839Y0233972D01*
X0141255Y0234396D01*
X0140611Y0234724D01*
X0139925Y0234947D01*
X0139211Y0235060D01*
X0139063Y0235060D01*
X0139063Y0230685D01*
X0138638Y0230685D01*
X0138638Y0235060D01*
X0138489Y0235060D01*
X0137776Y0234947D01*
X0137089Y0234724D01*
X0136446Y0234396D01*
X0135862Y0233972D01*
X0135351Y0233461D01*
X0134927Y0232877D01*
X0134599Y0232233D01*
X0134505Y0231944D01*
X0133757Y0233751D01*
X0132129Y0235379D01*
X0130002Y0236260D01*
X0127699Y0236260D01*
X0125572Y0235379D01*
X0123944Y0233751D01*
X0123196Y0231944D01*
X0123102Y0232233D01*
X0122774Y0232877D01*
X0122349Y0233461D01*
X0121839Y0233972D01*
X0121255Y0234396D01*
X0120611Y0234724D01*
X0119925Y0234947D01*
X0119211Y0235060D01*
X0119063Y0235060D01*
X0119063Y0230685D01*
X0118638Y0230685D01*
X0118638Y0235060D01*
X0118489Y0235060D01*
X0117776Y0234947D01*
X0117089Y0234724D01*
X0116446Y0234396D01*
X0115862Y0233972D01*
X0115351Y0233461D01*
X0114927Y0232877D01*
X0114599Y0232233D01*
X0114376Y0231547D01*
X0114263Y0230833D01*
X0114263Y0230685D01*
X0118638Y0230685D01*
X0118638Y0230260D01*
X0114263Y0230260D01*
X0114263Y0230111D01*
X0114376Y0229398D01*
X0114599Y0228711D01*
X0114927Y0228068D01*
X0115351Y0227484D01*
X0115862Y0226973D01*
X0116446Y0226549D01*
X0117089Y0226221D01*
X0117379Y0226127D01*
X0115572Y0225379D01*
X0113944Y0223751D01*
X0113850Y0223525D01*
X0113757Y0223751D01*
X0112129Y0225379D01*
X0110322Y0226127D01*
X0110611Y0226221D01*
X0111255Y0226549D01*
X0111839Y0226973D01*
X0112349Y0227484D01*
X0112774Y0228068D01*
X0113102Y0228711D01*
X0113325Y0229398D01*
X0113438Y0230111D01*
X0113438Y0230260D01*
X0109063Y0230260D01*
X0109063Y0230685D01*
X0113438Y0230685D01*
X0113438Y0230833D01*
X0113325Y0231547D01*
X0113102Y0232233D01*
X0112774Y0232877D01*
X0112349Y0233461D01*
X0111839Y0233972D01*
X0111255Y0234396D01*
X0110611Y0234724D01*
X0109925Y0234947D01*
X0109211Y0235060D01*
X0109063Y0235060D01*
X0109063Y0230685D01*
X0108638Y0230685D01*
X0108638Y0235060D01*
X0108489Y0235060D01*
X0107776Y0234947D01*
X0107089Y0234724D01*
X0106446Y0234396D01*
X0105862Y0233972D01*
X0105351Y0233461D01*
X0104927Y0232877D01*
X0104599Y0232233D01*
X0104376Y0231547D01*
X0104263Y0230833D01*
X0104263Y0230685D01*
X0108638Y0230685D01*
X0108638Y0230260D01*
X0104263Y0230260D01*
X0104263Y0230111D01*
X0104376Y0229398D01*
X0104599Y0228711D01*
X0104927Y0228068D01*
X0105351Y0227484D01*
X0105862Y0226973D01*
X0106446Y0226549D01*
X0107089Y0226221D01*
X0107379Y0226127D01*
X0105572Y0225379D01*
X0103944Y0223751D01*
X0103093Y0221695D01*
X0102570Y0222958D01*
X0101336Y0224192D01*
X0099723Y0224860D01*
X0097978Y0224860D01*
X0096365Y0224192D01*
X0095131Y0222958D01*
X0094608Y0221695D01*
X0093757Y0223751D01*
X0092129Y0225379D01*
X0090322Y0226127D01*
X0090611Y0226221D01*
X0091255Y0226549D01*
X0091839Y0226973D01*
X0092349Y0227484D01*
X0092774Y0228068D01*
X0093102Y0228711D01*
X0093325Y0229398D01*
X0093438Y0230111D01*
X0093438Y0230260D01*
X0089063Y0230260D01*
X0089063Y0230685D01*
X0093438Y0230685D01*
X0093438Y0230833D01*
X0093325Y0231547D01*
X0093102Y0232233D01*
X0092774Y0232877D01*
X0092349Y0233461D01*
X0091839Y0233972D01*
X0091255Y0234396D01*
X0090611Y0234724D01*
X0089925Y0234947D01*
X0089211Y0235060D01*
X0089063Y0235060D01*
X0089063Y0230685D01*
X0088638Y0230685D01*
X0088638Y0235060D01*
X0088489Y0235060D01*
X0087776Y0234947D01*
X0087089Y0234724D01*
X0086446Y0234396D01*
X0085862Y0233972D01*
X0085351Y0233461D01*
X0084927Y0232877D01*
X0084599Y0232233D01*
X0084376Y0231547D01*
X0084263Y0230833D01*
X0084263Y0230685D01*
X0088638Y0230685D01*
X0088638Y0230260D01*
X0084263Y0230260D01*
X0084263Y0230111D01*
X0084376Y0229398D01*
X0084599Y0228711D01*
X0084927Y0228068D01*
X0085351Y0227484D01*
X0085862Y0226973D01*
X0086446Y0226549D01*
X0087089Y0226221D01*
X0087379Y0226127D01*
X0085572Y0225379D01*
X0083944Y0223751D01*
X0083063Y0221624D01*
X0083063Y0219321D01*
X0083944Y0217194D01*
X0085572Y0215566D01*
X0087699Y0214685D01*
X0090002Y0214685D01*
X0092129Y0215566D01*
X0093757Y0217194D01*
X0094608Y0219250D01*
X0095131Y0217987D01*
X0096365Y0216753D01*
X0097978Y0216085D01*
X0099723Y0216085D01*
X0101336Y0216753D01*
X0102570Y0217987D01*
X0103093Y0219250D01*
X0103944Y0217194D01*
X0105572Y0215566D01*
X0107699Y0214685D01*
X0110002Y0214685D01*
X0112129Y0215566D01*
X0113757Y0217194D01*
X0113850Y0217420D01*
X0113944Y0217194D01*
X0115572Y0215566D01*
X0117699Y0214685D01*
X0120002Y0214685D01*
X0122129Y0215566D01*
X0123757Y0217194D01*
X0123850Y0217420D01*
X0123944Y0217194D01*
X0125572Y0215566D01*
X0127699Y0214685D01*
X0130002Y0214685D01*
X0132129Y0215566D01*
X0133757Y0217194D01*
X0134608Y0219250D01*
X0135131Y0217987D01*
X0136365Y0216753D01*
X0137978Y0216085D01*
X0139723Y0216085D01*
X0141336Y0216753D01*
X0142570Y0217987D01*
X0143238Y0219600D01*
X0143238Y0221345D01*
X0142570Y0222958D01*
X0141336Y0224192D01*
X0139723Y0224860D01*
X0137978Y0224860D01*
X0136365Y0224192D01*
X0135131Y0222958D01*
X0134608Y0221695D01*
X0133757Y0223751D01*
X0132129Y0225379D01*
X0133400Y0226837D02*
X0136049Y0226837D01*
X0134752Y0228411D02*
X0134261Y0228411D01*
X0138638Y0228411D02*
X0139063Y0228411D01*
X0139063Y0229984D02*
X0138638Y0229984D01*
X0139063Y0230260D02*
X0139063Y0225885D01*
X0139211Y0225885D01*
X0139925Y0225998D01*
X0140611Y0226221D01*
X0141255Y0226549D01*
X0141839Y0226973D01*
X0142349Y0227484D01*
X0142774Y0228068D01*
X0143102Y0228711D01*
X0143325Y0229398D01*
X0143438Y0230111D01*
X0143438Y0230260D01*
X0139063Y0230260D01*
X0139063Y0231557D02*
X0138638Y0231557D01*
X0138638Y0233131D02*
X0139063Y0233131D01*
X0139063Y0234704D02*
X0138638Y0234704D01*
X0137051Y0234704D02*
X0132804Y0234704D01*
X0134014Y0233131D02*
X0135111Y0233131D01*
X0140650Y0234704D02*
X0147051Y0234704D01*
X0147089Y0234724D02*
X0146446Y0234396D01*
X0145862Y0233972D01*
X0145351Y0233461D01*
X0144927Y0232877D01*
X0144599Y0232233D01*
X0144376Y0231547D01*
X0144263Y0230833D01*
X0144263Y0230685D01*
X0148638Y0230685D01*
X0148638Y0235060D01*
X0148489Y0235060D01*
X0147776Y0234947D01*
X0147089Y0234724D01*
X0148638Y0234704D02*
X0149063Y0234704D01*
X0149063Y0235060D02*
X0149211Y0235060D01*
X0149925Y0234947D01*
X0150611Y0234724D01*
X0151255Y0234396D01*
X0151839Y0233972D01*
X0152349Y0233461D01*
X0152774Y0232877D01*
X0153102Y0232233D01*
X0153325Y0231547D01*
X0153438Y0230833D01*
X0153438Y0230685D01*
X0149063Y0230685D01*
X0149063Y0230260D01*
X0153438Y0230260D01*
X0153438Y0230111D01*
X0153325Y0229398D01*
X0153102Y0228711D01*
X0152774Y0228068D01*
X0152349Y0227484D01*
X0151839Y0226973D01*
X0151255Y0226549D01*
X0150611Y0226221D01*
X0149925Y0225998D01*
X0149211Y0225885D01*
X0149063Y0225885D01*
X0149063Y0230260D01*
X0148638Y0230260D01*
X0148638Y0225885D01*
X0148489Y0225885D01*
X0147776Y0225998D01*
X0147089Y0226221D01*
X0146446Y0226549D01*
X0145862Y0226973D01*
X0145351Y0227484D01*
X0144927Y0228068D01*
X0144599Y0228711D01*
X0144376Y0229398D01*
X0144263Y0230111D01*
X0144263Y0230260D01*
X0148638Y0230260D01*
X0148638Y0230685D01*
X0149063Y0230685D01*
X0149063Y0235060D01*
X0150650Y0234704D02*
X0157601Y0234704D01*
X0157978Y0234860D02*
X0156365Y0234192D01*
X0155131Y0232958D01*
X0154463Y0231345D01*
X0154463Y0229600D01*
X0155131Y0227987D01*
X0156365Y0226753D01*
X0157978Y0226085D01*
X0159723Y0226085D01*
X0161336Y0226753D01*
X0162570Y0227987D01*
X0163238Y0229600D01*
X0163238Y0231345D01*
X0162570Y0232958D01*
X0161336Y0234192D01*
X0159723Y0234860D01*
X0157978Y0234860D01*
X0160100Y0234704D02*
X0167601Y0234704D01*
X0167978Y0234860D02*
X0166365Y0234192D01*
X0165131Y0232958D01*
X0164463Y0231345D01*
X0164463Y0229600D01*
X0165131Y0227987D01*
X0166365Y0226753D01*
X0167978Y0226085D01*
X0169723Y0226085D01*
X0171336Y0226753D01*
X0172570Y0227987D01*
X0173238Y0229600D01*
X0173238Y0231345D01*
X0172570Y0232958D01*
X0171336Y0234192D01*
X0169723Y0234860D01*
X0167978Y0234860D01*
X0170100Y0234704D02*
X0177601Y0234704D01*
X0177978Y0234860D02*
X0176365Y0234192D01*
X0175131Y0232958D01*
X0174463Y0231345D01*
X0174463Y0229600D01*
X0175131Y0227987D01*
X0176365Y0226753D01*
X0177978Y0226085D01*
X0179723Y0226085D01*
X0181336Y0226753D01*
X0182570Y0227987D01*
X0183238Y0229600D01*
X0183238Y0231345D01*
X0182570Y0232958D01*
X0181336Y0234192D01*
X0179723Y0234860D01*
X0177978Y0234860D01*
X0180100Y0234704D02*
X0187601Y0234704D01*
X0187978Y0234860D02*
X0186365Y0234192D01*
X0185131Y0232958D01*
X0184463Y0231345D01*
X0184463Y0229600D01*
X0185131Y0227987D01*
X0186365Y0226753D01*
X0187978Y0226085D01*
X0189723Y0226085D01*
X0191336Y0226753D01*
X0192570Y0227987D01*
X0193238Y0229600D01*
X0193238Y0231345D01*
X0192570Y0232958D01*
X0191336Y0234192D01*
X0189723Y0234860D01*
X0187978Y0234860D01*
X0190100Y0234704D02*
X0197601Y0234704D01*
X0197978Y0234860D02*
X0196365Y0234192D01*
X0195131Y0232958D01*
X0194463Y0231345D01*
X0194463Y0229600D01*
X0195131Y0227987D01*
X0196365Y0226753D01*
X0197978Y0226085D01*
X0199723Y0226085D01*
X0201336Y0226753D01*
X0202570Y0227987D01*
X0203238Y0229600D01*
X0203238Y0231345D01*
X0202570Y0232958D01*
X0201336Y0234192D01*
X0199723Y0234860D01*
X0197978Y0234860D01*
X0200100Y0234704D02*
X0207601Y0234704D01*
X0207978Y0234860D02*
X0206365Y0234192D01*
X0205131Y0232958D01*
X0204463Y0231345D01*
X0204463Y0229600D01*
X0205131Y0227987D01*
X0206365Y0226753D01*
X0207978Y0226085D01*
X0209723Y0226085D01*
X0211336Y0226753D01*
X0212570Y0227987D01*
X0213238Y0229600D01*
X0213238Y0231345D01*
X0212570Y0232958D01*
X0211336Y0234192D01*
X0209723Y0234860D01*
X0207978Y0234860D01*
X0206757Y0236104D02*
X0207180Y0237125D01*
X0207180Y0238230D01*
X0206757Y0239251D01*
X0205975Y0240032D01*
X0204954Y0240455D01*
X0203849Y0240455D01*
X0202828Y0240032D01*
X0202047Y0239251D01*
X0201624Y0238230D01*
X0201624Y0237125D01*
X0202047Y0236104D01*
X0202828Y0235322D01*
X0203849Y0234899D01*
X0204954Y0234899D01*
X0205975Y0235322D01*
X0206757Y0236104D01*
X0206829Y0236277D02*
X0391563Y0236277D01*
X0392038Y0236080D02*
X0393143Y0236080D01*
X0394164Y0236503D01*
X0394254Y0236593D01*
X0396112Y0235823D01*
X0396112Y0235156D01*
X0396535Y0234135D01*
X0397316Y0233354D01*
X0398337Y0232931D01*
X0399442Y0232931D01*
X0400463Y0233354D01*
X0401245Y0234135D01*
X0401668Y0235156D01*
X0401668Y0235823D01*
X0403526Y0236593D01*
X0403615Y0236503D01*
X0404636Y0236080D01*
X0405742Y0236080D01*
X0406763Y0236503D01*
X0407544Y0237285D01*
X0407967Y0238306D01*
X0407967Y0239411D01*
X0407544Y0240432D01*
X0407454Y0240522D01*
X0408224Y0242380D01*
X0408891Y0242380D01*
X0409117Y0242473D01*
X0409117Y0019496D01*
X0408891Y0019589D01*
X0408224Y0019589D01*
X0407454Y0021447D01*
X0407544Y0021537D01*
X0407967Y0022558D01*
X0407967Y0023663D01*
X0407544Y0024684D01*
X0406763Y0025465D01*
X0405742Y0025888D01*
X0404636Y0025888D01*
X0403615Y0025465D01*
X0403526Y0025375D01*
X0401668Y0026145D01*
X0401668Y0026812D01*
X0401245Y0027833D01*
X0400463Y0028615D01*
X0399442Y0029038D01*
X0398337Y0029038D01*
X0397316Y0028615D01*
X0396535Y0027833D01*
X0396112Y0026812D01*
X0396112Y0026145D01*
X0394254Y0025375D01*
X0394164Y0025465D01*
X0393143Y0025888D01*
X0392038Y0025888D01*
X0391017Y0025465D01*
X0390236Y0024684D01*
X0389813Y0023663D01*
X0389813Y0022558D01*
X0390236Y0021537D01*
X0390325Y0021447D01*
X0389556Y0019589D01*
X0388888Y0019589D01*
X0387867Y0019166D01*
X0387086Y0018385D01*
X0386663Y0017364D01*
X0386663Y0016258D01*
X0387086Y0015237D01*
X0387867Y0014456D01*
X0388888Y0014033D01*
X0389556Y0014033D01*
X0390325Y0012175D01*
X0390236Y0012085D01*
X0389813Y0011064D01*
X0389813Y0009959D01*
X0390236Y0008938D01*
X0391017Y0008157D01*
X0392038Y0007734D01*
X0393143Y0007734D01*
X0394164Y0008157D01*
X0394254Y0008247D01*
X0396112Y0007477D01*
X0396112Y0006810D01*
X0396205Y0006584D01*
X0031496Y0006584D01*
X0031589Y0006810D01*
X0031589Y0007477D01*
X0033447Y0008247D01*
X0033537Y0008157D01*
X0034558Y0007734D01*
X0035663Y0007734D01*
X0036684Y0008157D01*
X0037465Y0008938D01*
X0037888Y0009959D01*
X0037888Y0011064D01*
X0037465Y0012085D01*
X0037375Y0012175D01*
X0038145Y0014033D01*
X0038812Y0014033D01*
X0039833Y0014456D01*
X0040615Y0015237D01*
X0041038Y0016258D01*
X0041038Y0017364D01*
X0040615Y0018385D01*
X0039833Y0019166D01*
X0038812Y0019589D01*
X0038145Y0019589D01*
X0037375Y0021447D01*
X0037465Y0021537D01*
X0037888Y0022558D01*
X0037888Y0023663D01*
X0037465Y0024684D01*
X0036684Y0025465D01*
X0035663Y0025888D01*
X0034558Y0025888D01*
X0033537Y0025465D01*
X0033447Y0025375D01*
X0031589Y0026145D01*
X0031589Y0026812D01*
X0031166Y0027833D01*
X0030385Y0028615D01*
X0029364Y0029038D01*
X0028258Y0029038D01*
X0027237Y0028615D01*
X0026456Y0027833D01*
X0026033Y0026812D01*
X0026033Y0026145D01*
X0024175Y0025375D01*
X0024085Y0025465D01*
X0023064Y0025888D01*
X0021959Y0025888D01*
X0020938Y0025465D01*
X0020157Y0024684D01*
X0019734Y0023663D01*
X0019734Y0022558D01*
X0020157Y0021537D01*
X0020247Y0021447D01*
X0019477Y0019589D01*
X0018810Y0019589D01*
X0018584Y0019496D01*
X0018584Y0242473D01*
X0018810Y0242380D01*
X0019477Y0242380D01*
X0020247Y0240522D01*
X0020157Y0240432D01*
X0019734Y0239411D01*
X0019734Y0238306D01*
X0020157Y0237285D01*
X0020938Y0236503D01*
X0021959Y0236080D01*
X0023064Y0236080D01*
X0024085Y0236503D01*
X0024175Y0236593D01*
X0026033Y0235823D01*
X0026033Y0235156D01*
X0026456Y0234135D01*
X0027237Y0233354D01*
X0028258Y0232931D01*
X0029364Y0232931D01*
X0030385Y0233354D01*
X0031166Y0234135D01*
X0031589Y0235156D01*
X0031589Y0235823D01*
X0033447Y0236593D01*
X0033537Y0236503D01*
X0034558Y0236080D01*
X0035663Y0236080D01*
X0036684Y0236503D01*
X0037465Y0237285D01*
X0037888Y0238306D01*
X0037888Y0239411D01*
X0037465Y0240432D01*
X0037375Y0240522D01*
X0038145Y0242380D01*
X0038812Y0242380D01*
X0039833Y0242802D01*
X0040615Y0243584D01*
X0041038Y0244605D01*
X0041038Y0245710D01*
X0040615Y0246731D01*
X0039833Y0247512D01*
X0038812Y0247935D01*
X0038145Y0247935D01*
X0037375Y0249793D01*
X0037465Y0249883D01*
X0037888Y0250904D01*
X0037888Y0252009D01*
X0037465Y0253030D01*
X0036684Y0253812D01*
X0035663Y0254235D01*
X0034558Y0254235D01*
X0033537Y0253812D01*
X0033447Y0253722D01*
X0031589Y0254492D01*
X0031589Y0255159D01*
X0031496Y0255384D01*
X0396205Y0255384D01*
X0396112Y0255159D01*
X0396112Y0254492D01*
X0394254Y0253722D01*
X0394164Y0253812D01*
X0393143Y0254235D01*
X0392038Y0254235D01*
X0391017Y0253812D01*
X0390236Y0253030D01*
X0389813Y0252009D01*
X0389813Y0250904D01*
X0390236Y0249883D01*
X0390325Y0249793D01*
X0389556Y0247935D01*
X0388888Y0247935D01*
X0387867Y0247512D01*
X0387086Y0246731D01*
X0386663Y0245710D01*
X0386663Y0244605D01*
X0387086Y0243584D01*
X0387867Y0242802D01*
X0388888Y0242380D01*
X0389556Y0242380D01*
X0390325Y0240522D01*
X0390236Y0240432D01*
X0389813Y0239411D01*
X0389813Y0238306D01*
X0390236Y0237285D01*
X0391017Y0236503D01*
X0392038Y0236080D01*
X0393618Y0236277D02*
X0395016Y0236277D01*
X0396299Y0234704D02*
X0340650Y0234704D01*
X0340611Y0234724D02*
X0339925Y0234947D01*
X0339211Y0235060D01*
X0339063Y0235060D01*
X0339063Y0230685D01*
X0343438Y0230685D01*
X0343438Y0230833D01*
X0343325Y0231547D01*
X0343102Y0232233D01*
X0342774Y0232877D01*
X0342349Y0233461D01*
X0341839Y0233972D01*
X0341255Y0234396D01*
X0340611Y0234724D01*
X0339063Y0234704D02*
X0338638Y0234704D01*
X0338638Y0235060D02*
X0338489Y0235060D01*
X0337776Y0234947D01*
X0337089Y0234724D01*
X0336446Y0234396D01*
X0335862Y0233972D01*
X0335351Y0233461D01*
X0334927Y0232877D01*
X0334599Y0232233D01*
X0334376Y0231547D01*
X0334263Y0230833D01*
X0334263Y0230685D01*
X0338638Y0230685D01*
X0338638Y0235060D01*
X0337051Y0234704D02*
X0330100Y0234704D01*
X0329723Y0234860D02*
X0327978Y0234860D01*
X0326365Y0234192D01*
X0325131Y0232958D01*
X0324463Y0231345D01*
X0324463Y0229600D01*
X0325131Y0227987D01*
X0326365Y0226753D01*
X0327978Y0226085D01*
X0329723Y0226085D01*
X0331336Y0226753D01*
X0332570Y0227987D01*
X0333238Y0229600D01*
X0333238Y0231345D01*
X0332570Y0232958D01*
X0331336Y0234192D01*
X0329723Y0234860D01*
X0327601Y0234704D02*
X0320100Y0234704D01*
X0319723Y0234860D02*
X0317978Y0234860D01*
X0316365Y0234192D01*
X0315131Y0232958D01*
X0314463Y0231345D01*
X0314463Y0229600D01*
X0315131Y0227987D01*
X0316365Y0226753D01*
X0317978Y0226085D01*
X0319723Y0226085D01*
X0321336Y0226753D01*
X0322570Y0227987D01*
X0323238Y0229600D01*
X0323238Y0231345D01*
X0322570Y0232958D01*
X0321336Y0234192D01*
X0319723Y0234860D01*
X0317601Y0234704D02*
X0310100Y0234704D01*
X0309723Y0234860D02*
X0307978Y0234860D01*
X0306365Y0234192D01*
X0305131Y0232958D01*
X0304463Y0231345D01*
X0304463Y0229600D01*
X0305131Y0227987D01*
X0306365Y0226753D01*
X0307978Y0226085D01*
X0309723Y0226085D01*
X0311336Y0226753D01*
X0312570Y0227987D01*
X0313238Y0229600D01*
X0313238Y0231345D01*
X0312570Y0232958D01*
X0311336Y0234192D01*
X0309723Y0234860D01*
X0307601Y0234704D02*
X0300100Y0234704D01*
X0299723Y0234860D02*
X0297978Y0234860D01*
X0296365Y0234192D01*
X0295131Y0232958D01*
X0294463Y0231345D01*
X0294463Y0229600D01*
X0295131Y0227987D01*
X0296365Y0226753D01*
X0297978Y0226085D01*
X0299723Y0226085D01*
X0301336Y0226753D01*
X0302570Y0227987D01*
X0303238Y0229600D01*
X0303238Y0231345D01*
X0302570Y0232958D01*
X0301336Y0234192D01*
X0299723Y0234860D01*
X0297601Y0234704D02*
X0290100Y0234704D01*
X0289723Y0234860D02*
X0287978Y0234860D01*
X0286365Y0234192D01*
X0285131Y0232958D01*
X0284463Y0231345D01*
X0284463Y0229600D01*
X0285131Y0227987D01*
X0286365Y0226753D01*
X0287978Y0226085D01*
X0289723Y0226085D01*
X0291336Y0226753D01*
X0292570Y0227987D01*
X0293238Y0229600D01*
X0293238Y0231345D01*
X0292570Y0232958D01*
X0291336Y0234192D01*
X0289723Y0234860D01*
X0287601Y0234704D02*
X0280100Y0234704D01*
X0279723Y0234860D02*
X0277978Y0234860D01*
X0276365Y0234192D01*
X0275131Y0232958D01*
X0274463Y0231345D01*
X0274463Y0229600D01*
X0275131Y0227987D01*
X0276365Y0226753D01*
X0277978Y0226085D01*
X0279723Y0226085D01*
X0281336Y0226753D01*
X0282570Y0227987D01*
X0283238Y0229600D01*
X0283238Y0231345D01*
X0282570Y0232958D01*
X0281336Y0234192D01*
X0279723Y0234860D01*
X0277601Y0234704D02*
X0270100Y0234704D01*
X0269723Y0234860D02*
X0267978Y0234860D01*
X0266365Y0234192D01*
X0265131Y0232958D01*
X0264463Y0231345D01*
X0264463Y0229600D01*
X0265131Y0227987D01*
X0266365Y0226753D01*
X0267978Y0226085D01*
X0269723Y0226085D01*
X0271336Y0226753D01*
X0272570Y0227987D01*
X0273238Y0229600D01*
X0273238Y0231345D01*
X0272570Y0232958D01*
X0271336Y0234192D01*
X0269723Y0234860D01*
X0267601Y0234704D02*
X0260100Y0234704D01*
X0259723Y0234860D02*
X0257978Y0234860D01*
X0256365Y0234192D01*
X0255131Y0232958D01*
X0254463Y0231345D01*
X0254463Y0229600D01*
X0255131Y0227987D01*
X0256365Y0226753D01*
X0257978Y0226085D01*
X0259723Y0226085D01*
X0261336Y0226753D01*
X0262570Y0227987D01*
X0263238Y0229600D01*
X0263238Y0231345D01*
X0262570Y0232958D01*
X0261336Y0234192D01*
X0259723Y0234860D01*
X0257601Y0234704D02*
X0250100Y0234704D01*
X0249723Y0234860D02*
X0247978Y0234860D01*
X0246365Y0234192D01*
X0245131Y0232958D01*
X0244463Y0231345D01*
X0244463Y0229600D01*
X0245131Y0227987D01*
X0246365Y0226753D01*
X0247978Y0226085D01*
X0249723Y0226085D01*
X0251336Y0226753D01*
X0252570Y0227987D01*
X0253238Y0229600D01*
X0253238Y0231345D01*
X0252570Y0232958D01*
X0251336Y0234192D01*
X0249723Y0234860D01*
X0247601Y0234704D02*
X0240100Y0234704D01*
X0239723Y0234860D02*
X0237978Y0234860D01*
X0236365Y0234192D01*
X0235131Y0232958D01*
X0234463Y0231345D01*
X0234463Y0229600D01*
X0235131Y0227987D01*
X0236365Y0226753D01*
X0237978Y0226085D01*
X0239723Y0226085D01*
X0241336Y0226753D01*
X0242570Y0227987D01*
X0243238Y0229600D01*
X0243238Y0231345D01*
X0242570Y0232958D01*
X0241336Y0234192D01*
X0239723Y0234860D01*
X0237601Y0234704D02*
X0230100Y0234704D01*
X0229723Y0234860D02*
X0231336Y0234192D01*
X0232570Y0232958D01*
X0233238Y0231345D01*
X0233238Y0229600D01*
X0232570Y0227987D01*
X0231336Y0226753D01*
X0229723Y0226085D01*
X0227978Y0226085D01*
X0226365Y0226753D01*
X0225131Y0227987D01*
X0224463Y0229600D01*
X0224463Y0231345D01*
X0225131Y0232958D01*
X0226365Y0234192D01*
X0227978Y0234860D01*
X0229723Y0234860D01*
X0227601Y0234704D02*
X0220100Y0234704D01*
X0219723Y0234860D02*
X0217978Y0234860D01*
X0216365Y0234192D01*
X0215131Y0232958D01*
X0214463Y0231345D01*
X0214463Y0229600D01*
X0215131Y0227987D01*
X0216365Y0226753D01*
X0217978Y0226085D01*
X0219723Y0226085D01*
X0221336Y0226753D01*
X0222570Y0227987D01*
X0223238Y0229600D01*
X0223238Y0231345D01*
X0222570Y0232958D01*
X0221336Y0234192D01*
X0219723Y0234860D01*
X0217601Y0234704D02*
X0210100Y0234704D01*
X0212397Y0233131D02*
X0215304Y0233131D01*
X0214551Y0231557D02*
X0213150Y0231557D01*
X0213238Y0229984D02*
X0214463Y0229984D01*
X0214956Y0228411D02*
X0212745Y0228411D01*
X0211420Y0226837D02*
X0216281Y0226837D01*
X0217978Y0224860D02*
X0216365Y0224192D01*
X0215131Y0222958D01*
X0214463Y0221345D01*
X0214463Y0219600D01*
X0215131Y0217987D01*
X0216365Y0216753D01*
X0217978Y0216085D01*
X0219723Y0216085D01*
X0221336Y0216753D01*
X0222570Y0217987D01*
X0223238Y0219600D01*
X0223238Y0221345D01*
X0222570Y0222958D01*
X0221336Y0224192D01*
X0219723Y0224860D01*
X0217978Y0224860D01*
X0215864Y0223691D02*
X0211837Y0223691D01*
X0211336Y0224192D02*
X0209723Y0224860D01*
X0207978Y0224860D01*
X0206365Y0224192D01*
X0205131Y0222958D01*
X0204463Y0221345D01*
X0204463Y0219600D01*
X0205131Y0217987D01*
X0206365Y0216753D01*
X0207978Y0216085D01*
X0209723Y0216085D01*
X0211336Y0216753D01*
X0212570Y0217987D01*
X0213238Y0219600D01*
X0213238Y0221345D01*
X0212570Y0222958D01*
X0211336Y0224192D01*
X0212918Y0222117D02*
X0214783Y0222117D01*
X0214463Y0220544D02*
X0213238Y0220544D01*
X0212977Y0218971D02*
X0214723Y0218971D01*
X0215721Y0217397D02*
X0211980Y0217397D01*
X0205721Y0217397D02*
X0201980Y0217397D01*
X0202570Y0217987D02*
X0201336Y0216753D01*
X0199723Y0216085D01*
X0197978Y0216085D01*
X0196365Y0216753D01*
X0195131Y0217987D01*
X0194463Y0219600D01*
X0194463Y0221345D01*
X0195131Y0222958D01*
X0196365Y0224192D01*
X0197978Y0224860D01*
X0199723Y0224860D01*
X0201336Y0224192D01*
X0202570Y0222958D01*
X0203238Y0221345D01*
X0203238Y0219600D01*
X0202570Y0217987D01*
X0202977Y0218971D02*
X0204723Y0218971D01*
X0204463Y0220544D02*
X0203238Y0220544D01*
X0202918Y0222117D02*
X0204783Y0222117D01*
X0205864Y0223691D02*
X0201837Y0223691D01*
X0201420Y0226837D02*
X0206281Y0226837D01*
X0204956Y0228411D02*
X0202745Y0228411D01*
X0203238Y0229984D02*
X0204463Y0229984D01*
X0204551Y0231557D02*
X0203150Y0231557D01*
X0202397Y0233131D02*
X0205304Y0233131D01*
X0201975Y0236277D02*
X0193618Y0236277D01*
X0193143Y0236080D02*
X0194164Y0236503D01*
X0194946Y0237285D01*
X0195368Y0238306D01*
X0195368Y0239411D01*
X0194946Y0240432D01*
X0194164Y0241213D01*
X0193143Y0241636D01*
X0192038Y0241636D01*
X0191017Y0241213D01*
X0190236Y0240432D01*
X0189813Y0239411D01*
X0189813Y0238306D01*
X0190236Y0237285D01*
X0191017Y0236503D01*
X0192038Y0236080D01*
X0193143Y0236080D01*
X0191563Y0236277D02*
X0036138Y0236277D01*
X0034082Y0236277D02*
X0032685Y0236277D01*
X0031402Y0234704D02*
X0087051Y0234704D01*
X0088638Y0234704D02*
X0089063Y0234704D01*
X0089063Y0233131D02*
X0088638Y0233131D01*
X0088638Y0231557D02*
X0089063Y0231557D01*
X0090650Y0234704D02*
X0097051Y0234704D01*
X0097089Y0234724D02*
X0096446Y0234396D01*
X0095862Y0233972D01*
X0095351Y0233461D01*
X0094927Y0232877D01*
X0094599Y0232233D01*
X0094376Y0231547D01*
X0094263Y0230833D01*
X0094263Y0230685D01*
X0098638Y0230685D01*
X0098638Y0235060D01*
X0098489Y0235060D01*
X0097776Y0234947D01*
X0097089Y0234724D01*
X0098638Y0234704D02*
X0099063Y0234704D01*
X0099063Y0235060D02*
X0099211Y0235060D01*
X0099925Y0234947D01*
X0100611Y0234724D01*
X0101255Y0234396D01*
X0101839Y0233972D01*
X0102349Y0233461D01*
X0102774Y0232877D01*
X0103102Y0232233D01*
X0103325Y0231547D01*
X0103438Y0230833D01*
X0103438Y0230685D01*
X0099063Y0230685D01*
X0099063Y0230260D01*
X0103438Y0230260D01*
X0103438Y0230111D01*
X0103325Y0229398D01*
X0103102Y0228711D01*
X0102774Y0228068D01*
X0102349Y0227484D01*
X0101839Y0226973D01*
X0101255Y0226549D01*
X0100611Y0226221D01*
X0099925Y0225998D01*
X0099211Y0225885D01*
X0099063Y0225885D01*
X0099063Y0230260D01*
X0098638Y0230260D01*
X0098638Y0225885D01*
X0098489Y0225885D01*
X0097776Y0225998D01*
X0097089Y0226221D01*
X0096446Y0226549D01*
X0095862Y0226973D01*
X0095351Y0227484D01*
X0094927Y0228068D01*
X0094599Y0228711D01*
X0094376Y0229398D01*
X0094263Y0230111D01*
X0094263Y0230260D01*
X0098638Y0230260D01*
X0098638Y0230685D01*
X0099063Y0230685D01*
X0099063Y0235060D01*
X0100650Y0234704D02*
X0107051Y0234704D01*
X0108638Y0234704D02*
X0109063Y0234704D01*
X0109063Y0233131D02*
X0108638Y0233131D01*
X0108638Y0231557D02*
X0109063Y0231557D01*
X0110650Y0234704D02*
X0117051Y0234704D01*
X0118638Y0234704D02*
X0119063Y0234704D01*
X0119063Y0233131D02*
X0118638Y0233131D01*
X0118638Y0231557D02*
X0119063Y0231557D01*
X0120650Y0234704D02*
X0124897Y0234704D01*
X0123687Y0233131D02*
X0122589Y0233131D01*
X0115111Y0233131D02*
X0112589Y0233131D01*
X0113321Y0231557D02*
X0114379Y0231557D01*
X0114283Y0229984D02*
X0113418Y0229984D01*
X0112948Y0228411D02*
X0114752Y0228411D01*
X0116049Y0226837D02*
X0111652Y0226837D01*
X0112243Y0225264D02*
X0115457Y0225264D01*
X0113919Y0223691D02*
X0113782Y0223691D01*
X0106049Y0226837D02*
X0101652Y0226837D01*
X0102948Y0228411D02*
X0104752Y0228411D01*
X0104283Y0229984D02*
X0103418Y0229984D01*
X0103321Y0231557D02*
X0104379Y0231557D01*
X0105111Y0233131D02*
X0102589Y0233131D01*
X0099063Y0233131D02*
X0098638Y0233131D01*
X0098638Y0231557D02*
X0099063Y0231557D01*
X0099063Y0229984D02*
X0098638Y0229984D01*
X0098638Y0228411D02*
X0099063Y0228411D01*
X0099063Y0226837D02*
X0098638Y0226837D01*
X0096049Y0226837D02*
X0091652Y0226837D01*
X0092243Y0225264D02*
X0105457Y0225264D01*
X0103919Y0223691D02*
X0101837Y0223691D01*
X0102918Y0222117D02*
X0103268Y0222117D01*
X0103208Y0218971D02*
X0102977Y0218971D01*
X0103860Y0217397D02*
X0101980Y0217397D01*
X0105314Y0215824D02*
X0092387Y0215824D01*
X0093841Y0217397D02*
X0095721Y0217397D01*
X0094724Y0218971D02*
X0094493Y0218971D01*
X0094433Y0222117D02*
X0094783Y0222117D01*
X0093782Y0223691D02*
X0095864Y0223691D01*
X0094752Y0228411D02*
X0092948Y0228411D01*
X0093418Y0229984D02*
X0094283Y0229984D01*
X0094379Y0231557D02*
X0093321Y0231557D01*
X0092589Y0233131D02*
X0095111Y0233131D01*
X0086049Y0226837D02*
X0018584Y0226837D01*
X0018584Y0225264D02*
X0085457Y0225264D01*
X0083919Y0223691D02*
X0018584Y0223691D01*
X0018584Y0222117D02*
X0083268Y0222117D01*
X0083063Y0220544D02*
X0018584Y0220544D01*
X0018584Y0218971D02*
X0083208Y0218971D01*
X0083860Y0217397D02*
X0018584Y0217397D01*
X0018584Y0215824D02*
X0085314Y0215824D01*
X0094771Y0206384D02*
X0018584Y0206384D01*
X0018584Y0204811D02*
X0093769Y0204811D01*
X0093925Y0203238D02*
X0018584Y0203238D01*
X0018584Y0201664D02*
X0095421Y0201664D01*
X0112387Y0215824D02*
X0115314Y0215824D01*
X0113860Y0217397D02*
X0113841Y0217397D01*
X0122387Y0215824D02*
X0125314Y0215824D01*
X0123860Y0217397D02*
X0123841Y0217397D01*
X0132387Y0215824D02*
X0371584Y0215824D01*
X0371180Y0217397D02*
X0342263Y0217397D01*
X0342349Y0217484D02*
X0342774Y0218068D01*
X0343102Y0218711D01*
X0343325Y0219398D01*
X0343438Y0220111D01*
X0343438Y0220260D01*
X0339063Y0220260D01*
X0339063Y0220685D01*
X0338638Y0220685D01*
X0338638Y0225060D01*
X0338489Y0225060D01*
X0337776Y0224947D01*
X0337089Y0224724D01*
X0336446Y0224396D01*
X0335862Y0223972D01*
X0335351Y0223461D01*
X0334927Y0222877D01*
X0334599Y0222233D01*
X0334376Y0221547D01*
X0334263Y0220833D01*
X0334263Y0220685D01*
X0338638Y0220685D01*
X0338638Y0220260D01*
X0339063Y0220260D01*
X0339063Y0215885D01*
X0339211Y0215885D01*
X0339925Y0215998D01*
X0340611Y0216221D01*
X0341255Y0216549D01*
X0341839Y0216973D01*
X0342349Y0217484D01*
X0343186Y0218971D02*
X0371416Y0218971D01*
X0372433Y0220544D02*
X0339063Y0220544D01*
X0338638Y0220544D02*
X0333238Y0220544D01*
X0333238Y0221345D02*
X0332570Y0222958D01*
X0331336Y0224192D01*
X0329723Y0224860D01*
X0327978Y0224860D01*
X0326365Y0224192D01*
X0325131Y0222958D01*
X0324463Y0221345D01*
X0324463Y0219600D01*
X0325131Y0217987D01*
X0326365Y0216753D01*
X0327978Y0216085D01*
X0329723Y0216085D01*
X0331336Y0216753D01*
X0332570Y0217987D01*
X0333238Y0219600D01*
X0333238Y0221345D01*
X0332918Y0222117D02*
X0334561Y0222117D01*
X0335581Y0223691D02*
X0331837Y0223691D01*
X0331420Y0226837D02*
X0336049Y0226837D01*
X0335862Y0226973D02*
X0336446Y0226549D01*
X0337089Y0226221D01*
X0337776Y0225998D01*
X0338489Y0225885D01*
X0338638Y0225885D01*
X0338638Y0230260D01*
X0339063Y0230260D01*
X0339063Y0230685D01*
X0338638Y0230685D01*
X0338638Y0230260D01*
X0334263Y0230260D01*
X0334263Y0230111D01*
X0334376Y0229398D01*
X0334599Y0228711D01*
X0334927Y0228068D01*
X0335351Y0227484D01*
X0335862Y0226973D01*
X0334752Y0228411D02*
X0332745Y0228411D01*
X0333238Y0229984D02*
X0334283Y0229984D01*
X0334379Y0231557D02*
X0333150Y0231557D01*
X0332397Y0233131D02*
X0335111Y0233131D01*
X0338638Y0233131D02*
X0339063Y0233131D01*
X0339063Y0231557D02*
X0338638Y0231557D01*
X0339063Y0230260D02*
X0343438Y0230260D01*
X0343438Y0230111D01*
X0343325Y0229398D01*
X0343102Y0228711D01*
X0342774Y0228068D01*
X0342349Y0227484D01*
X0341839Y0226973D01*
X0341255Y0226549D01*
X0340611Y0226221D01*
X0339925Y0225998D01*
X0339211Y0225885D01*
X0339063Y0225885D01*
X0339063Y0230260D01*
X0339063Y0229984D02*
X0338638Y0229984D01*
X0338638Y0228411D02*
X0339063Y0228411D01*
X0339063Y0226837D02*
X0338638Y0226837D01*
X0341652Y0226837D02*
X0409117Y0226837D01*
X0409117Y0228411D02*
X0342948Y0228411D01*
X0343418Y0229984D02*
X0409117Y0229984D01*
X0409117Y0231557D02*
X0343321Y0231557D01*
X0342589Y0233131D02*
X0397855Y0233131D01*
X0399925Y0233131D02*
X0409117Y0233131D01*
X0409117Y0234704D02*
X0401480Y0234704D01*
X0402763Y0236277D02*
X0404161Y0236277D01*
X0406217Y0236277D02*
X0409117Y0236277D01*
X0409117Y0237851D02*
X0407778Y0237851D01*
X0407962Y0239424D02*
X0409117Y0239424D01*
X0409117Y0240997D02*
X0407651Y0240997D01*
X0390128Y0240997D02*
X0194380Y0240997D01*
X0195363Y0239424D02*
X0202220Y0239424D01*
X0201624Y0237851D02*
X0195180Y0237851D01*
X0190001Y0237851D02*
X0037700Y0237851D01*
X0037883Y0239424D02*
X0189818Y0239424D01*
X0190801Y0240997D02*
X0037572Y0240997D01*
X0039273Y0242570D02*
X0388427Y0242570D01*
X0386854Y0244144D02*
X0040847Y0244144D01*
X0041035Y0245717D02*
X0386666Y0245717D01*
X0387645Y0247290D02*
X0040055Y0247290D01*
X0037761Y0248864D02*
X0389940Y0248864D01*
X0390006Y0250437D02*
X0037695Y0250437D01*
X0037888Y0252010D02*
X0389813Y0252010D01*
X0390789Y0253584D02*
X0036912Y0253584D01*
X0031589Y0255157D02*
X0396112Y0255157D01*
X0389818Y0239424D02*
X0206583Y0239424D01*
X0207180Y0237851D02*
X0390001Y0237851D01*
X0386049Y0222117D02*
X0409117Y0222117D01*
X0388464Y0220544D02*
X0387645Y0220544D01*
X0372921Y0214251D02*
X0018584Y0214251D01*
X0018584Y0228411D02*
X0084752Y0228411D01*
X0084283Y0229984D02*
X0018584Y0229984D01*
X0018584Y0231557D02*
X0084379Y0231557D01*
X0085111Y0233131D02*
X0029846Y0233131D01*
X0027776Y0233131D02*
X0018584Y0233131D01*
X0018584Y0234704D02*
X0026220Y0234704D01*
X0024937Y0236277D02*
X0023540Y0236277D01*
X0021484Y0236277D02*
X0018584Y0236277D01*
X0018584Y0237851D02*
X0019922Y0237851D01*
X0019739Y0239424D02*
X0018584Y0239424D01*
X0018584Y0240997D02*
X0020050Y0240997D01*
X0133782Y0223691D02*
X0135864Y0223691D01*
X0134783Y0222117D02*
X0134433Y0222117D01*
X0134493Y0218971D02*
X0134724Y0218971D01*
X0133841Y0217397D02*
X0135721Y0217397D01*
X0141980Y0217397D02*
X0145721Y0217397D01*
X0145131Y0217987D02*
X0146365Y0216753D01*
X0147978Y0216085D01*
X0149723Y0216085D01*
X0151336Y0216753D01*
X0152570Y0217987D01*
X0153238Y0219600D01*
X0153238Y0221345D01*
X0152570Y0222958D01*
X0151336Y0224192D01*
X0149723Y0224860D01*
X0147978Y0224860D01*
X0146365Y0224192D01*
X0145131Y0222958D01*
X0144463Y0221345D01*
X0144463Y0219600D01*
X0145131Y0217987D01*
X0144723Y0218971D02*
X0142977Y0218971D01*
X0143238Y0220544D02*
X0144463Y0220544D01*
X0144783Y0222117D02*
X0142918Y0222117D01*
X0141837Y0223691D02*
X0145864Y0223691D01*
X0146049Y0226837D02*
X0141652Y0226837D01*
X0142948Y0228411D02*
X0144752Y0228411D01*
X0144283Y0229984D02*
X0143418Y0229984D01*
X0143321Y0231557D02*
X0144379Y0231557D01*
X0145111Y0233131D02*
X0142589Y0233131D01*
X0148638Y0233131D02*
X0149063Y0233131D01*
X0149063Y0231557D02*
X0148638Y0231557D01*
X0148638Y0229984D02*
X0149063Y0229984D01*
X0149063Y0228411D02*
X0148638Y0228411D01*
X0148638Y0226837D02*
X0149063Y0226837D01*
X0151652Y0226837D02*
X0156281Y0226837D01*
X0154956Y0228411D02*
X0152948Y0228411D01*
X0153418Y0229984D02*
X0154463Y0229984D01*
X0154551Y0231557D02*
X0153321Y0231557D01*
X0152589Y0233131D02*
X0155304Y0233131D01*
X0162397Y0233131D02*
X0165304Y0233131D01*
X0164551Y0231557D02*
X0163150Y0231557D01*
X0163238Y0229984D02*
X0164463Y0229984D01*
X0164956Y0228411D02*
X0162745Y0228411D01*
X0161420Y0226837D02*
X0166281Y0226837D01*
X0167978Y0224860D02*
X0166365Y0224192D01*
X0165131Y0222958D01*
X0164463Y0221345D01*
X0164463Y0219600D01*
X0165131Y0217987D01*
X0166365Y0216753D01*
X0167978Y0216085D01*
X0169723Y0216085D01*
X0171336Y0216753D01*
X0172570Y0217987D01*
X0173238Y0219600D01*
X0173238Y0221345D01*
X0172570Y0222958D01*
X0171336Y0224192D01*
X0169723Y0224860D01*
X0167978Y0224860D01*
X0165864Y0223691D02*
X0161837Y0223691D01*
X0161336Y0224192D02*
X0159723Y0224860D01*
X0157978Y0224860D01*
X0156365Y0224192D01*
X0155131Y0222958D01*
X0154463Y0221345D01*
X0154463Y0219600D01*
X0155131Y0217987D01*
X0156365Y0216753D01*
X0157978Y0216085D01*
X0159723Y0216085D01*
X0161336Y0216753D01*
X0162570Y0217987D01*
X0163238Y0219600D01*
X0163238Y0221345D01*
X0162570Y0222958D01*
X0161336Y0224192D01*
X0162918Y0222117D02*
X0164783Y0222117D01*
X0164463Y0220544D02*
X0163238Y0220544D01*
X0162977Y0218971D02*
X0164723Y0218971D01*
X0165721Y0217397D02*
X0161980Y0217397D01*
X0155721Y0217397D02*
X0151980Y0217397D01*
X0152977Y0218971D02*
X0154723Y0218971D01*
X0154463Y0220544D02*
X0153238Y0220544D01*
X0152918Y0222117D02*
X0154783Y0222117D01*
X0155864Y0223691D02*
X0151837Y0223691D01*
X0139063Y0226837D02*
X0138638Y0226837D01*
X0141199Y0207958D02*
X0409117Y0207958D01*
X0409117Y0206384D02*
X0142201Y0206384D01*
X0142043Y0204811D02*
X0409117Y0204811D01*
X0409117Y0203238D02*
X0140544Y0203238D01*
X0171980Y0217397D02*
X0175721Y0217397D01*
X0175131Y0217987D02*
X0176365Y0216753D01*
X0177978Y0216085D01*
X0179723Y0216085D01*
X0181336Y0216753D01*
X0182570Y0217987D01*
X0183238Y0219600D01*
X0183238Y0221345D01*
X0182570Y0222958D01*
X0181336Y0224192D01*
X0179723Y0224860D01*
X0177978Y0224860D01*
X0176365Y0224192D01*
X0175131Y0222958D01*
X0174463Y0221345D01*
X0174463Y0219600D01*
X0175131Y0217987D01*
X0174723Y0218971D02*
X0172977Y0218971D01*
X0173238Y0220544D02*
X0174463Y0220544D01*
X0174783Y0222117D02*
X0172918Y0222117D01*
X0171837Y0223691D02*
X0175864Y0223691D01*
X0176281Y0226837D02*
X0171420Y0226837D01*
X0172745Y0228411D02*
X0174956Y0228411D01*
X0174463Y0229984D02*
X0173238Y0229984D01*
X0173150Y0231557D02*
X0174551Y0231557D01*
X0175304Y0233131D02*
X0172397Y0233131D01*
X0182397Y0233131D02*
X0185304Y0233131D01*
X0184551Y0231557D02*
X0183150Y0231557D01*
X0183238Y0229984D02*
X0184463Y0229984D01*
X0184956Y0228411D02*
X0182745Y0228411D01*
X0181420Y0226837D02*
X0186281Y0226837D01*
X0187978Y0224860D02*
X0186365Y0224192D01*
X0185131Y0222958D01*
X0184463Y0221345D01*
X0184463Y0219600D01*
X0185131Y0217987D01*
X0186365Y0216753D01*
X0187978Y0216085D01*
X0189723Y0216085D01*
X0191336Y0216753D01*
X0192570Y0217987D01*
X0193238Y0219600D01*
X0193238Y0221345D01*
X0192570Y0222958D01*
X0191336Y0224192D01*
X0189723Y0224860D01*
X0187978Y0224860D01*
X0185864Y0223691D02*
X0181837Y0223691D01*
X0182918Y0222117D02*
X0184783Y0222117D01*
X0184463Y0220544D02*
X0183238Y0220544D01*
X0182977Y0218971D02*
X0184723Y0218971D01*
X0185721Y0217397D02*
X0181980Y0217397D01*
X0191980Y0217397D02*
X0195721Y0217397D01*
X0194723Y0218971D02*
X0192977Y0218971D01*
X0193238Y0220544D02*
X0194463Y0220544D01*
X0194783Y0222117D02*
X0192918Y0222117D01*
X0191837Y0223691D02*
X0195864Y0223691D01*
X0196281Y0226837D02*
X0191420Y0226837D01*
X0192745Y0228411D02*
X0194956Y0228411D01*
X0194463Y0229984D02*
X0193238Y0229984D01*
X0193150Y0231557D02*
X0194551Y0231557D01*
X0195304Y0233131D02*
X0192397Y0233131D01*
X0221420Y0226837D02*
X0226281Y0226837D01*
X0224956Y0228411D02*
X0222745Y0228411D01*
X0223238Y0229984D02*
X0224463Y0229984D01*
X0224551Y0231557D02*
X0223150Y0231557D01*
X0222397Y0233131D02*
X0225304Y0233131D01*
X0232397Y0233131D02*
X0235304Y0233131D01*
X0234551Y0231557D02*
X0233150Y0231557D01*
X0233238Y0229984D02*
X0234463Y0229984D01*
X0234956Y0228411D02*
X0232745Y0228411D01*
X0231420Y0226837D02*
X0236281Y0226837D01*
X0237978Y0224860D02*
X0236365Y0224192D01*
X0235131Y0222958D01*
X0234463Y0221345D01*
X0234463Y0219600D01*
X0235131Y0217987D01*
X0236365Y0216753D01*
X0237978Y0216085D01*
X0239723Y0216085D01*
X0241336Y0216753D01*
X0242570Y0217987D01*
X0243238Y0219600D01*
X0243238Y0221345D01*
X0242570Y0222958D01*
X0241336Y0224192D01*
X0239723Y0224860D01*
X0237978Y0224860D01*
X0235864Y0223691D02*
X0231837Y0223691D01*
X0231336Y0224192D02*
X0229723Y0224860D01*
X0227978Y0224860D01*
X0226365Y0224192D01*
X0225131Y0222958D01*
X0224463Y0221345D01*
X0224463Y0219600D01*
X0225131Y0217987D01*
X0226365Y0216753D01*
X0227978Y0216085D01*
X0229723Y0216085D01*
X0231336Y0216753D01*
X0232570Y0217987D01*
X0233238Y0219600D01*
X0233238Y0221345D01*
X0232570Y0222958D01*
X0231336Y0224192D01*
X0232918Y0222117D02*
X0234783Y0222117D01*
X0234463Y0220544D02*
X0233238Y0220544D01*
X0232977Y0218971D02*
X0234723Y0218971D01*
X0235721Y0217397D02*
X0231980Y0217397D01*
X0225721Y0217397D02*
X0221980Y0217397D01*
X0222977Y0218971D02*
X0224723Y0218971D01*
X0224463Y0220544D02*
X0223238Y0220544D01*
X0222918Y0222117D02*
X0224783Y0222117D01*
X0225864Y0223691D02*
X0221837Y0223691D01*
X0241420Y0226837D02*
X0246281Y0226837D01*
X0244956Y0228411D02*
X0242745Y0228411D01*
X0243238Y0229984D02*
X0244463Y0229984D01*
X0244551Y0231557D02*
X0243150Y0231557D01*
X0242397Y0233131D02*
X0245304Y0233131D01*
X0252397Y0233131D02*
X0255304Y0233131D01*
X0254551Y0231557D02*
X0253150Y0231557D01*
X0253238Y0229984D02*
X0254463Y0229984D01*
X0254956Y0228411D02*
X0252745Y0228411D01*
X0251420Y0226837D02*
X0256281Y0226837D01*
X0257978Y0224860D02*
X0256365Y0224192D01*
X0255131Y0222958D01*
X0254463Y0221345D01*
X0254463Y0219600D01*
X0255131Y0217987D01*
X0256365Y0216753D01*
X0257978Y0216085D01*
X0259723Y0216085D01*
X0261336Y0216753D01*
X0262570Y0217987D01*
X0263238Y0219600D01*
X0263238Y0221345D01*
X0262570Y0222958D01*
X0261336Y0224192D01*
X0259723Y0224860D01*
X0257978Y0224860D01*
X0255864Y0223691D02*
X0251837Y0223691D01*
X0251336Y0224192D02*
X0249723Y0224860D01*
X0247978Y0224860D01*
X0246365Y0224192D01*
X0245131Y0222958D01*
X0244463Y0221345D01*
X0244463Y0219600D01*
X0245131Y0217987D01*
X0246365Y0216753D01*
X0247978Y0216085D01*
X0249723Y0216085D01*
X0251336Y0216753D01*
X0252570Y0217987D01*
X0253238Y0219600D01*
X0253238Y0221345D01*
X0252570Y0222958D01*
X0251336Y0224192D01*
X0252918Y0222117D02*
X0254783Y0222117D01*
X0254463Y0220544D02*
X0253238Y0220544D01*
X0252977Y0218971D02*
X0254723Y0218971D01*
X0255721Y0217397D02*
X0251980Y0217397D01*
X0245721Y0217397D02*
X0241980Y0217397D01*
X0242977Y0218971D02*
X0244723Y0218971D01*
X0244463Y0220544D02*
X0243238Y0220544D01*
X0242918Y0222117D02*
X0244783Y0222117D01*
X0245864Y0223691D02*
X0241837Y0223691D01*
X0261420Y0226837D02*
X0266281Y0226837D01*
X0264956Y0228411D02*
X0262745Y0228411D01*
X0263238Y0229984D02*
X0264463Y0229984D01*
X0264551Y0231557D02*
X0263150Y0231557D01*
X0262397Y0233131D02*
X0265304Y0233131D01*
X0272397Y0233131D02*
X0275304Y0233131D01*
X0274551Y0231557D02*
X0273150Y0231557D01*
X0273238Y0229984D02*
X0274463Y0229984D01*
X0274956Y0228411D02*
X0272745Y0228411D01*
X0271420Y0226837D02*
X0276281Y0226837D01*
X0277978Y0224860D02*
X0276365Y0224192D01*
X0275131Y0222958D01*
X0274463Y0221345D01*
X0274463Y0219600D01*
X0275131Y0217987D01*
X0276365Y0216753D01*
X0277978Y0216085D01*
X0279723Y0216085D01*
X0281336Y0216753D01*
X0282570Y0217987D01*
X0283238Y0219600D01*
X0283238Y0221345D01*
X0282570Y0222958D01*
X0281336Y0224192D01*
X0279723Y0224860D01*
X0277978Y0224860D01*
X0275864Y0223691D02*
X0271837Y0223691D01*
X0271336Y0224192D02*
X0269723Y0224860D01*
X0267978Y0224860D01*
X0266365Y0224192D01*
X0265131Y0222958D01*
X0264463Y0221345D01*
X0264463Y0219600D01*
X0265131Y0217987D01*
X0266365Y0216753D01*
X0267978Y0216085D01*
X0269723Y0216085D01*
X0271336Y0216753D01*
X0272570Y0217987D01*
X0273238Y0219600D01*
X0273238Y0221345D01*
X0272570Y0222958D01*
X0271336Y0224192D01*
X0272918Y0222117D02*
X0274783Y0222117D01*
X0274463Y0220544D02*
X0273238Y0220544D01*
X0272977Y0218971D02*
X0274723Y0218971D01*
X0275721Y0217397D02*
X0271980Y0217397D01*
X0265721Y0217397D02*
X0261980Y0217397D01*
X0262977Y0218971D02*
X0264723Y0218971D01*
X0264463Y0220544D02*
X0263238Y0220544D01*
X0262918Y0222117D02*
X0264783Y0222117D01*
X0265864Y0223691D02*
X0261837Y0223691D01*
X0281420Y0226837D02*
X0286281Y0226837D01*
X0284956Y0228411D02*
X0282745Y0228411D01*
X0283238Y0229984D02*
X0284463Y0229984D01*
X0284551Y0231557D02*
X0283150Y0231557D01*
X0282397Y0233131D02*
X0285304Y0233131D01*
X0292397Y0233131D02*
X0295304Y0233131D01*
X0294551Y0231557D02*
X0293150Y0231557D01*
X0293238Y0229984D02*
X0294463Y0229984D01*
X0294956Y0228411D02*
X0292745Y0228411D01*
X0291420Y0226837D02*
X0296281Y0226837D01*
X0297978Y0224860D02*
X0296365Y0224192D01*
X0295131Y0222958D01*
X0294463Y0221345D01*
X0294463Y0219600D01*
X0295131Y0217987D01*
X0296365Y0216753D01*
X0297978Y0216085D01*
X0299723Y0216085D01*
X0301336Y0216753D01*
X0302570Y0217987D01*
X0303238Y0219600D01*
X0303238Y0221345D01*
X0302570Y0222958D01*
X0301336Y0224192D01*
X0299723Y0224860D01*
X0297978Y0224860D01*
X0295864Y0223691D02*
X0291837Y0223691D01*
X0291336Y0224192D02*
X0289723Y0224860D01*
X0287978Y0224860D01*
X0286365Y0224192D01*
X0285131Y0222958D01*
X0284463Y0221345D01*
X0284463Y0219600D01*
X0285131Y0217987D01*
X0286365Y0216753D01*
X0287978Y0216085D01*
X0289723Y0216085D01*
X0291336Y0216753D01*
X0292570Y0217987D01*
X0293238Y0219600D01*
X0293238Y0221345D01*
X0292570Y0222958D01*
X0291336Y0224192D01*
X0292918Y0222117D02*
X0294783Y0222117D01*
X0294463Y0220544D02*
X0293238Y0220544D01*
X0292977Y0218971D02*
X0294723Y0218971D01*
X0295721Y0217397D02*
X0291980Y0217397D01*
X0285721Y0217397D02*
X0281980Y0217397D01*
X0282977Y0218971D02*
X0284723Y0218971D01*
X0284463Y0220544D02*
X0283238Y0220544D01*
X0282918Y0222117D02*
X0284783Y0222117D01*
X0285864Y0223691D02*
X0281837Y0223691D01*
X0301420Y0226837D02*
X0306281Y0226837D01*
X0304956Y0228411D02*
X0302745Y0228411D01*
X0303238Y0229984D02*
X0304463Y0229984D01*
X0304551Y0231557D02*
X0303150Y0231557D01*
X0302397Y0233131D02*
X0305304Y0233131D01*
X0312397Y0233131D02*
X0315304Y0233131D01*
X0314551Y0231557D02*
X0313150Y0231557D01*
X0313238Y0229984D02*
X0314463Y0229984D01*
X0314956Y0228411D02*
X0312745Y0228411D01*
X0311420Y0226837D02*
X0316281Y0226837D01*
X0317978Y0224860D02*
X0316365Y0224192D01*
X0315131Y0222958D01*
X0314463Y0221345D01*
X0314463Y0219600D01*
X0315131Y0217987D01*
X0316365Y0216753D01*
X0317978Y0216085D01*
X0319723Y0216085D01*
X0321336Y0216753D01*
X0322570Y0217987D01*
X0323238Y0219600D01*
X0323238Y0221345D01*
X0322570Y0222958D01*
X0321336Y0224192D01*
X0319723Y0224860D01*
X0317978Y0224860D01*
X0315864Y0223691D02*
X0311837Y0223691D01*
X0311336Y0224192D02*
X0309723Y0224860D01*
X0307978Y0224860D01*
X0306365Y0224192D01*
X0305131Y0222958D01*
X0304463Y0221345D01*
X0304463Y0219600D01*
X0305131Y0217987D01*
X0306365Y0216753D01*
X0307978Y0216085D01*
X0309723Y0216085D01*
X0311336Y0216753D01*
X0312570Y0217987D01*
X0313238Y0219600D01*
X0313238Y0221345D01*
X0312570Y0222958D01*
X0311336Y0224192D01*
X0312918Y0222117D02*
X0314783Y0222117D01*
X0314463Y0220544D02*
X0313238Y0220544D01*
X0312977Y0218971D02*
X0314723Y0218971D01*
X0315721Y0217397D02*
X0311980Y0217397D01*
X0305721Y0217397D02*
X0301980Y0217397D01*
X0302977Y0218971D02*
X0304723Y0218971D01*
X0304463Y0220544D02*
X0303238Y0220544D01*
X0302918Y0222117D02*
X0304783Y0222117D01*
X0305864Y0223691D02*
X0301837Y0223691D01*
X0321420Y0226837D02*
X0326281Y0226837D01*
X0324956Y0228411D02*
X0322745Y0228411D01*
X0323238Y0229984D02*
X0324463Y0229984D01*
X0324551Y0231557D02*
X0323150Y0231557D01*
X0322397Y0233131D02*
X0325304Y0233131D01*
X0325864Y0223691D02*
X0321837Y0223691D01*
X0322918Y0222117D02*
X0324783Y0222117D01*
X0324463Y0220544D02*
X0323238Y0220544D01*
X0322977Y0218971D02*
X0324723Y0218971D01*
X0325721Y0217397D02*
X0321980Y0217397D01*
X0331980Y0217397D02*
X0335438Y0217397D01*
X0335351Y0217484D02*
X0335862Y0216973D01*
X0336446Y0216549D01*
X0337089Y0216221D01*
X0337776Y0215998D01*
X0338489Y0215885D01*
X0338638Y0215885D01*
X0338638Y0220260D01*
X0334263Y0220260D01*
X0334263Y0220111D01*
X0334376Y0219398D01*
X0334599Y0218711D01*
X0334927Y0218068D01*
X0335351Y0217484D01*
X0334515Y0218971D02*
X0332977Y0218971D01*
X0338638Y0218971D02*
X0339063Y0218971D01*
X0339063Y0217397D02*
X0338638Y0217397D01*
X0338638Y0222117D02*
X0339063Y0222117D01*
X0339063Y0223691D02*
X0338638Y0223691D01*
X0406649Y0167051D02*
X0409117Y0167051D01*
X0409117Y0165478D02*
X0407422Y0165478D01*
X0407568Y0163905D02*
X0409117Y0163905D01*
X0409117Y0162331D02*
X0407134Y0162331D01*
X0405926Y0160758D02*
X0409117Y0160758D01*
X0409117Y0152892D02*
X0407353Y0152892D01*
X0406495Y0151318D02*
X0409117Y0151318D01*
X0403197Y0151318D02*
X0402772Y0151318D01*
X0402772Y0152892D02*
X0403197Y0152892D01*
X0399011Y0146598D02*
X0396778Y0146598D01*
X0397372Y0145025D02*
X0398456Y0145025D01*
X0398473Y0143452D02*
X0397372Y0143452D01*
X0396734Y0141878D02*
X0399067Y0141878D01*
X0400703Y0140305D02*
X0394825Y0140305D01*
X0396322Y0137158D02*
X0399397Y0137158D01*
X0398581Y0135585D02*
X0397197Y0135585D01*
X0397372Y0134012D02*
X0398397Y0134012D01*
X0398780Y0132438D02*
X0396966Y0132438D01*
X0395763Y0130865D02*
X0399923Y0130865D01*
X0407189Y0132438D02*
X0409117Y0132438D01*
X0409117Y0134012D02*
X0407572Y0134012D01*
X0407387Y0135585D02*
X0409117Y0135585D01*
X0409117Y0137158D02*
X0406572Y0137158D01*
X0389647Y0137158D02*
X0337339Y0137158D01*
X0335663Y0133762D02*
X0334558Y0133762D01*
X0333537Y0133339D01*
X0332755Y0132558D01*
X0332332Y0131537D01*
X0332332Y0130432D01*
X0332755Y0129411D01*
X0333537Y0128629D01*
X0334558Y0128206D01*
X0335663Y0128206D01*
X0336684Y0128629D01*
X0337465Y0129411D01*
X0337888Y0130432D01*
X0337888Y0131537D01*
X0337465Y0132558D01*
X0336684Y0133339D01*
X0335663Y0133762D01*
X0337515Y0132438D02*
X0359790Y0132438D01*
X0358750Y0130865D02*
X0337888Y0130865D01*
X0337346Y0129292D02*
X0358491Y0129292D01*
X0358848Y0127719D02*
X0018584Y0127719D01*
X0018584Y0129292D02*
X0332874Y0129292D01*
X0332332Y0130865D02*
X0018584Y0130865D01*
X0018584Y0132438D02*
X0332706Y0132438D01*
X0332881Y0137158D02*
X0018584Y0137158D01*
X0018584Y0135585D02*
X0388771Y0135585D01*
X0388597Y0134012D02*
X0018584Y0134012D01*
X0018584Y0138732D02*
X0332332Y0138732D01*
X0332703Y0140305D02*
X0070407Y0140305D01*
X0065955Y0140305D02*
X0018584Y0140305D01*
X0018584Y0141878D02*
X0065403Y0141878D01*
X0065772Y0143452D02*
X0018584Y0143452D01*
X0018584Y0126145D02*
X0237261Y0126145D01*
X0236641Y0124572D02*
X0018584Y0124572D01*
X0018584Y0122999D02*
X0057837Y0122999D01*
X0055984Y0121425D02*
X0018584Y0121425D01*
X0018584Y0119852D02*
X0055184Y0119852D01*
X0054850Y0118279D02*
X0018584Y0118279D01*
X0018584Y0116705D02*
X0054866Y0116705D01*
X0055518Y0115132D02*
X0018584Y0115132D01*
X0018584Y0113559D02*
X0056789Y0113559D01*
X0058562Y0111985D02*
X0018584Y0111985D01*
X0018584Y0110412D02*
X0056797Y0110412D01*
X0056143Y0108839D02*
X0018584Y0108839D01*
X0018584Y0107265D02*
X0056093Y0107265D01*
X0056611Y0105692D02*
X0018584Y0105692D01*
X0018584Y0104119D02*
X0058030Y0104119D01*
X0060425Y0104119D02*
X0060850Y0104119D01*
X0060850Y0105692D02*
X0060425Y0105692D01*
X0060425Y0107265D02*
X0060850Y0107265D01*
X0063246Y0104119D02*
X0088912Y0104119D01*
X0088806Y0103863D02*
X0088806Y0102200D01*
X0089114Y0101457D01*
X0088806Y0100713D01*
X0088806Y0099051D01*
X0089114Y0098307D01*
X0088806Y0097563D01*
X0088806Y0095901D01*
X0089442Y0094366D01*
X0090618Y0093190D01*
X0092153Y0092554D01*
X0093815Y0092554D01*
X0095351Y0093190D01*
X0096526Y0094366D01*
X0097162Y0095901D01*
X0097162Y0097563D01*
X0096854Y0098307D01*
X0097162Y0099051D01*
X0097162Y0100713D01*
X0096854Y0101457D01*
X0097162Y0102200D01*
X0097162Y0103863D01*
X0096854Y0104606D01*
X0097162Y0105350D01*
X0097162Y0107012D01*
X0096854Y0107756D01*
X0097162Y0108500D01*
X0097162Y0110162D01*
X0096854Y0110905D01*
X0097162Y0111649D01*
X0097162Y0113311D01*
X0096526Y0114847D01*
X0095351Y0116022D01*
X0093815Y0116658D01*
X0092153Y0116658D01*
X0090618Y0116022D01*
X0089442Y0114847D01*
X0088806Y0113311D01*
X0088806Y0111649D01*
X0089114Y0110905D01*
X0088806Y0110162D01*
X0088806Y0108500D01*
X0089114Y0107756D01*
X0088806Y0107012D01*
X0088806Y0105350D01*
X0089114Y0104606D01*
X0088806Y0103863D01*
X0088806Y0102545D02*
X0018584Y0102545D01*
X0018584Y0100972D02*
X0088914Y0100972D01*
X0088806Y0099399D02*
X0018584Y0099399D01*
X0018584Y0097826D02*
X0088915Y0097826D01*
X0088806Y0096252D02*
X0018584Y0096252D01*
X0018584Y0094679D02*
X0089313Y0094679D01*
X0090822Y0093106D02*
X0055610Y0093106D01*
X0055575Y0093188D02*
X0054794Y0093969D01*
X0053773Y0094392D01*
X0052668Y0094392D01*
X0051647Y0093969D01*
X0050865Y0093188D01*
X0050443Y0092167D01*
X0050443Y0091062D01*
X0050865Y0090041D01*
X0051647Y0089259D01*
X0052668Y0088836D01*
X0052805Y0088836D01*
X0052805Y0088699D01*
X0053228Y0087678D01*
X0054009Y0086897D01*
X0055030Y0086474D01*
X0055167Y0086474D01*
X0055167Y0086337D01*
X0055590Y0085316D01*
X0056371Y0084535D01*
X0057392Y0084112D01*
X0057529Y0084112D01*
X0057529Y0083975D01*
X0057952Y0082954D01*
X0058734Y0082173D01*
X0059755Y0081750D01*
X0059891Y0081750D01*
X0059891Y0081613D01*
X0060314Y0080592D01*
X0061096Y0079810D01*
X0062117Y0079387D01*
X0062254Y0079387D01*
X0062254Y0079251D01*
X0062676Y0078230D01*
X0063458Y0077448D01*
X0064479Y0077025D01*
X0065584Y0077025D01*
X0066605Y0077448D01*
X0067387Y0078230D01*
X0067809Y0079251D01*
X0067809Y0080356D01*
X0067387Y0081377D01*
X0066605Y0082158D01*
X0065584Y0082581D01*
X0065447Y0082581D01*
X0065447Y0082718D01*
X0065024Y0083739D01*
X0064243Y0084520D01*
X0063222Y0084943D01*
X0063085Y0084943D01*
X0063085Y0085080D01*
X0062662Y0086101D01*
X0061881Y0086883D01*
X0060860Y0087305D01*
X0060723Y0087305D01*
X0060723Y0087442D01*
X0060300Y0088463D01*
X0059518Y0089245D01*
X0058497Y0089668D01*
X0058361Y0089668D01*
X0058361Y0089805D01*
X0057938Y0090826D01*
X0057156Y0091607D01*
X0056135Y0092030D01*
X0055998Y0092030D01*
X0055998Y0092167D01*
X0055575Y0093188D01*
X0057231Y0091532D02*
X0346899Y0091532D01*
X0347125Y0093106D02*
X0105613Y0093106D01*
X0103190Y0093106D02*
X0095146Y0093106D01*
X0096656Y0094679D02*
X0100940Y0094679D01*
X0100241Y0096252D02*
X0097162Y0096252D01*
X0097054Y0097826D02*
X0100224Y0097826D01*
X0100243Y0099399D02*
X0097162Y0099399D01*
X0097055Y0100972D02*
X0100224Y0100972D01*
X0100244Y0102545D02*
X0097162Y0102545D01*
X0097056Y0104119D02*
X0100224Y0104119D01*
X0100245Y0105692D02*
X0097162Y0105692D01*
X0097057Y0107265D02*
X0100224Y0107265D01*
X0100246Y0108839D02*
X0097162Y0108839D01*
X0097059Y0110412D02*
X0100224Y0110412D01*
X0100247Y0111985D02*
X0097162Y0111985D01*
X0097060Y0113559D02*
X0100224Y0113559D01*
X0100815Y0115132D02*
X0096241Y0115132D01*
X0102734Y0116705D02*
X0066409Y0116705D01*
X0065758Y0115132D02*
X0089727Y0115132D01*
X0088909Y0113559D02*
X0064487Y0113559D01*
X0062714Y0111985D02*
X0088806Y0111985D01*
X0088910Y0110412D02*
X0064479Y0110412D01*
X0065133Y0108839D02*
X0088806Y0108839D01*
X0088911Y0107265D02*
X0065183Y0107265D01*
X0064664Y0105692D02*
X0088806Y0105692D01*
X0106069Y0116705D02*
X0110603Y0116705D01*
X0109552Y0115132D02*
X0107988Y0115132D01*
X0108580Y0113559D02*
X0109637Y0113559D01*
X0108556Y0111985D02*
X0110964Y0111985D01*
X0113587Y0111985D02*
X0116476Y0111985D01*
X0115149Y0113559D02*
X0114914Y0113559D01*
X0114999Y0115132D02*
X0115064Y0115132D01*
X0116115Y0116705D02*
X0113948Y0116705D01*
X0108580Y0107265D02*
X0389754Y0107265D01*
X0388816Y0105692D02*
X0108558Y0105692D01*
X0108580Y0104119D02*
X0388597Y0104119D01*
X0388959Y0102545D02*
X0108559Y0102545D01*
X0067742Y0080519D02*
X0390626Y0080519D01*
X0390499Y0080572D02*
X0392112Y0079904D01*
X0393857Y0079904D01*
X0395470Y0080572D01*
X0396704Y0081806D01*
X0397372Y0083419D01*
X0397372Y0085164D01*
X0396704Y0086777D01*
X0395470Y0088011D01*
X0393857Y0088679D01*
X0392112Y0088679D01*
X0390499Y0088011D01*
X0389265Y0086777D01*
X0388597Y0085164D01*
X0388597Y0083419D01*
X0389265Y0081806D01*
X0390499Y0080572D01*
X0389146Y0082092D02*
X0066671Y0082092D01*
X0065055Y0083666D02*
X0388597Y0083666D01*
X0388628Y0085239D02*
X0063019Y0085239D01*
X0061951Y0086812D02*
X0389301Y0086812D01*
X0391404Y0088386D02*
X0060332Y0088386D01*
X0058297Y0089959D02*
X0347797Y0089959D01*
X0351557Y0089959D02*
X0391979Y0089959D01*
X0393990Y0089959D02*
X0401473Y0089959D01*
X0401223Y0090040D02*
X0401910Y0089817D01*
X0402623Y0089704D01*
X0402772Y0089704D01*
X0402772Y0094079D01*
X0398397Y0094079D01*
X0398397Y0093930D01*
X0398510Y0093217D01*
X0398733Y0092530D01*
X0399061Y0091887D01*
X0399485Y0091303D01*
X0399996Y0090792D01*
X0400580Y0090368D01*
X0401223Y0090040D01*
X0401910Y0088766D02*
X0401223Y0088543D01*
X0400580Y0088215D01*
X0399996Y0087790D01*
X0399485Y0087280D01*
X0399061Y0086696D01*
X0398733Y0086052D01*
X0398510Y0085366D01*
X0398397Y0084652D01*
X0398397Y0084504D01*
X0402772Y0084504D01*
X0402772Y0088879D01*
X0402623Y0088879D01*
X0401910Y0088766D01*
X0402772Y0088386D02*
X0403197Y0088386D01*
X0403197Y0088879D02*
X0403197Y0084504D01*
X0407572Y0084504D01*
X0407572Y0084652D01*
X0407459Y0085366D01*
X0407236Y0086052D01*
X0406908Y0086696D01*
X0406483Y0087280D01*
X0405973Y0087790D01*
X0405389Y0088215D01*
X0404745Y0088543D01*
X0404058Y0088766D01*
X0403345Y0088879D01*
X0403197Y0088879D01*
X0403197Y0089704D02*
X0403345Y0089704D01*
X0404058Y0089817D01*
X0404745Y0090040D01*
X0405389Y0090368D01*
X0405973Y0090792D01*
X0406483Y0091303D01*
X0406908Y0091887D01*
X0407236Y0092530D01*
X0407459Y0093217D01*
X0407572Y0093930D01*
X0407572Y0094079D01*
X0403197Y0094079D01*
X0403197Y0094504D01*
X0407572Y0094504D01*
X0407572Y0094652D01*
X0407459Y0095366D01*
X0407236Y0096052D01*
X0406908Y0096696D01*
X0406483Y0097280D01*
X0405973Y0097790D01*
X0405389Y0098215D01*
X0404745Y0098543D01*
X0404058Y0098766D01*
X0403345Y0098879D01*
X0403197Y0098879D01*
X0403197Y0094504D01*
X0402772Y0094504D01*
X0402772Y0098879D01*
X0402623Y0098879D01*
X0401910Y0098766D01*
X0401223Y0098543D01*
X0400580Y0098215D01*
X0399996Y0097790D01*
X0399485Y0097280D01*
X0399061Y0096696D01*
X0398733Y0096052D01*
X0398510Y0095366D01*
X0398397Y0094652D01*
X0398397Y0094504D01*
X0402772Y0094504D01*
X0402772Y0094079D01*
X0403197Y0094079D01*
X0403197Y0089704D01*
X0403197Y0089959D02*
X0402772Y0089959D01*
X0402772Y0091532D02*
X0403197Y0091532D01*
X0403197Y0093106D02*
X0402772Y0093106D01*
X0402772Y0094679D02*
X0403197Y0094679D01*
X0403197Y0096252D02*
X0402772Y0096252D01*
X0402772Y0097826D02*
X0403197Y0097826D01*
X0405924Y0097826D02*
X0409117Y0097826D01*
X0409117Y0096252D02*
X0407134Y0096252D01*
X0407567Y0094679D02*
X0409117Y0094679D01*
X0409117Y0093106D02*
X0407422Y0093106D01*
X0406650Y0091532D02*
X0409117Y0091532D01*
X0409117Y0089959D02*
X0404496Y0089959D01*
X0405053Y0088386D02*
X0409117Y0088386D01*
X0409117Y0086812D02*
X0406823Y0086812D01*
X0407479Y0085239D02*
X0409117Y0085239D01*
X0409117Y0083666D02*
X0407530Y0083666D01*
X0407572Y0083930D02*
X0407459Y0083217D01*
X0407236Y0082530D01*
X0406908Y0081887D01*
X0406483Y0081303D01*
X0405973Y0080792D01*
X0405389Y0080368D01*
X0404745Y0080040D01*
X0404058Y0079817D01*
X0403345Y0079704D01*
X0403197Y0079704D01*
X0403197Y0084079D01*
X0403197Y0084504D01*
X0402772Y0084504D01*
X0402772Y0084079D01*
X0398397Y0084079D01*
X0398397Y0083930D01*
X0398510Y0083217D01*
X0398733Y0082530D01*
X0399061Y0081887D01*
X0399485Y0081303D01*
X0399996Y0080792D01*
X0400580Y0080368D01*
X0401223Y0080040D01*
X0401910Y0079817D01*
X0402623Y0079704D01*
X0402772Y0079704D01*
X0402772Y0084079D01*
X0403197Y0084079D01*
X0407572Y0084079D01*
X0407572Y0083930D01*
X0407012Y0082092D02*
X0409117Y0082092D01*
X0409117Y0080519D02*
X0405597Y0080519D01*
X0403197Y0080519D02*
X0402772Y0080519D01*
X0402772Y0082092D02*
X0403197Y0082092D01*
X0403197Y0083666D02*
X0402772Y0083666D01*
X0402772Y0085239D02*
X0403197Y0085239D01*
X0403197Y0086812D02*
X0402772Y0086812D01*
X0400915Y0088386D02*
X0394564Y0088386D01*
X0396668Y0086812D02*
X0399146Y0086812D01*
X0398490Y0085239D02*
X0397341Y0085239D01*
X0397372Y0083666D02*
X0398439Y0083666D01*
X0398956Y0082092D02*
X0396822Y0082092D01*
X0395342Y0080519D02*
X0400372Y0080519D01*
X0409117Y0078946D02*
X0067683Y0078946D01*
X0066422Y0077372D02*
X0409117Y0077372D01*
X0409117Y0075799D02*
X0018584Y0075799D01*
X0018584Y0074226D02*
X0409117Y0074226D01*
X0409117Y0072653D02*
X0399455Y0072653D01*
X0399320Y0072709D02*
X0398454Y0072940D01*
X0397905Y0073013D01*
X0397905Y0067008D01*
X0396330Y0067008D01*
X0396330Y0073013D01*
X0395781Y0072940D01*
X0394915Y0072709D01*
X0394087Y0072366D01*
X0393311Y0071917D01*
X0392600Y0071372D01*
X0391966Y0070738D01*
X0391420Y0070027D01*
X0390972Y0069251D01*
X0390629Y0068423D01*
X0390397Y0067557D01*
X0390325Y0067007D01*
X0396330Y0067007D01*
X0396330Y0065433D01*
X0390325Y0065433D01*
X0390397Y0064883D01*
X0390629Y0064018D01*
X0390972Y0063189D01*
X0391420Y0062413D01*
X0391966Y0061702D01*
X0392600Y0061068D01*
X0393311Y0060523D01*
X0394087Y0060075D01*
X0394915Y0059732D01*
X0395781Y0059500D01*
X0396330Y0059427D01*
X0396330Y0065433D01*
X0397905Y0065433D01*
X0397905Y0067007D01*
X0403910Y0067007D01*
X0403838Y0067557D01*
X0403606Y0068423D01*
X0403263Y0069251D01*
X0402815Y0070027D01*
X0402269Y0070738D01*
X0401636Y0071372D01*
X0400925Y0071917D01*
X0400148Y0072366D01*
X0399320Y0072709D01*
X0397905Y0072653D02*
X0396330Y0072653D01*
X0394780Y0072653D02*
X0379377Y0072653D01*
X0379242Y0072709D02*
X0378377Y0072940D01*
X0377827Y0073013D01*
X0377827Y0067008D01*
X0376252Y0067008D01*
X0376252Y0073013D01*
X0375703Y0072940D01*
X0374837Y0072709D01*
X0374009Y0072366D01*
X0373233Y0071917D01*
X0372522Y0071372D01*
X0371888Y0070738D01*
X0371342Y0070027D01*
X0370894Y0069251D01*
X0370551Y0068423D01*
X0370319Y0067557D01*
X0370247Y0067007D01*
X0376252Y0067007D01*
X0376252Y0065433D01*
X0370247Y0065433D01*
X0370319Y0064883D01*
X0370551Y0064018D01*
X0370894Y0063189D01*
X0371342Y0062413D01*
X0371888Y0061702D01*
X0372522Y0061068D01*
X0373233Y0060523D01*
X0374009Y0060075D01*
X0374837Y0059732D01*
X0375703Y0059500D01*
X0376252Y0059427D01*
X0376252Y0065433D01*
X0377827Y0065433D01*
X0377827Y0067007D01*
X0383832Y0067007D01*
X0383760Y0067557D01*
X0383528Y0068423D01*
X0383185Y0069251D01*
X0382737Y0070027D01*
X0382191Y0070738D01*
X0381558Y0071372D01*
X0380847Y0071917D01*
X0380070Y0072366D01*
X0379242Y0072709D01*
X0377827Y0072653D02*
X0376252Y0072653D01*
X0374702Y0072653D02*
X0063503Y0072653D01*
X0062982Y0073173D02*
X0064701Y0071454D01*
X0065631Y0069208D01*
X0065631Y0058115D01*
X0064701Y0055869D01*
X0062982Y0054149D01*
X0060735Y0053219D01*
X0058304Y0053219D01*
X0056058Y0054149D01*
X0054338Y0055869D01*
X0053408Y0058115D01*
X0053408Y0069208D01*
X0054338Y0071454D01*
X0056058Y0073173D01*
X0058304Y0074104D01*
X0060735Y0074104D01*
X0062982Y0073173D01*
X0064856Y0071079D02*
X0372229Y0071079D01*
X0371042Y0069506D02*
X0065508Y0069506D01*
X0065631Y0067933D02*
X0370420Y0067933D01*
X0370345Y0064786D02*
X0065631Y0064786D01*
X0065631Y0066359D02*
X0376252Y0066359D01*
X0376252Y0064786D02*
X0377827Y0064786D01*
X0377827Y0065433D02*
X0377827Y0059427D01*
X0378377Y0059500D01*
X0379242Y0059732D01*
X0380070Y0060075D01*
X0380847Y0060523D01*
X0381558Y0061068D01*
X0382191Y0061702D01*
X0382737Y0062413D01*
X0383185Y0063189D01*
X0383528Y0064018D01*
X0383760Y0064883D01*
X0383832Y0065433D01*
X0377827Y0065433D01*
X0377827Y0066359D02*
X0396330Y0066359D01*
X0396330Y0064786D02*
X0397905Y0064786D01*
X0397905Y0065433D02*
X0397905Y0059427D01*
X0398454Y0059500D01*
X0399320Y0059732D01*
X0400148Y0060075D01*
X0400925Y0060523D01*
X0401636Y0061068D01*
X0402269Y0061702D01*
X0402815Y0062413D01*
X0403263Y0063189D01*
X0403606Y0064018D01*
X0403838Y0064883D01*
X0403910Y0065433D01*
X0397905Y0065433D01*
X0397905Y0066359D02*
X0409117Y0066359D01*
X0409117Y0064786D02*
X0403812Y0064786D01*
X0403273Y0063213D02*
X0409117Y0063213D01*
X0409117Y0061639D02*
X0402206Y0061639D01*
X0400127Y0060066D02*
X0409117Y0060066D01*
X0409117Y0058493D02*
X0391682Y0058493D01*
X0391434Y0059091D02*
X0389989Y0060536D01*
X0388101Y0061318D01*
X0386057Y0061318D01*
X0384169Y0060536D01*
X0382723Y0059091D01*
X0381941Y0057203D01*
X0381941Y0055159D01*
X0382723Y0053271D01*
X0384169Y0051826D01*
X0386057Y0051044D01*
X0388101Y0051044D01*
X0389989Y0051826D01*
X0391434Y0053271D01*
X0392216Y0055159D01*
X0392216Y0057203D01*
X0391434Y0059091D01*
X0390459Y0060066D02*
X0394108Y0060066D01*
X0396330Y0060066D02*
X0397905Y0060066D01*
X0397905Y0061639D02*
X0396330Y0061639D01*
X0396330Y0063213D02*
X0397905Y0063213D01*
X0397905Y0067933D02*
X0396330Y0067933D01*
X0396330Y0069506D02*
X0397905Y0069506D01*
X0397905Y0071079D02*
X0396330Y0071079D01*
X0392307Y0071079D02*
X0381850Y0071079D01*
X0383038Y0069506D02*
X0391120Y0069506D01*
X0390498Y0067933D02*
X0383659Y0067933D01*
X0383734Y0064786D02*
X0390423Y0064786D01*
X0390963Y0063213D02*
X0383195Y0063213D01*
X0382129Y0061639D02*
X0392029Y0061639D01*
X0383698Y0060066D02*
X0380049Y0060066D01*
X0377827Y0060066D02*
X0376252Y0060066D01*
X0376252Y0061639D02*
X0377827Y0061639D01*
X0377827Y0063213D02*
X0376252Y0063213D01*
X0371951Y0061639D02*
X0065631Y0061639D01*
X0065631Y0060066D02*
X0374030Y0060066D01*
X0370885Y0063213D02*
X0065631Y0063213D01*
X0065631Y0058493D02*
X0382476Y0058493D01*
X0381941Y0056919D02*
X0065136Y0056919D01*
X0064178Y0055346D02*
X0381941Y0055346D01*
X0382516Y0053773D02*
X0294570Y0053773D01*
X0294552Y0053818D02*
X0293770Y0054599D01*
X0292749Y0055022D01*
X0291644Y0055022D01*
X0290623Y0054599D01*
X0289842Y0053818D01*
X0289419Y0052797D01*
X0289419Y0051692D01*
X0289842Y0050671D01*
X0290623Y0049889D01*
X0291644Y0049466D01*
X0292749Y0049466D01*
X0293770Y0049889D01*
X0294552Y0050671D01*
X0294975Y0051692D01*
X0294975Y0052797D01*
X0294552Y0053818D01*
X0294975Y0052199D02*
X0373857Y0052199D01*
X0374009Y0052288D02*
X0373233Y0051839D01*
X0372522Y0051294D01*
X0371888Y0050660D01*
X0371342Y0049949D01*
X0370894Y0049173D01*
X0370551Y0048345D01*
X0370319Y0047479D01*
X0370247Y0046930D01*
X0376252Y0046930D01*
X0376252Y0052935D01*
X0375703Y0052863D01*
X0374837Y0052631D01*
X0374009Y0052288D01*
X0376252Y0052199D02*
X0377827Y0052199D01*
X0377827Y0052935D02*
X0378377Y0052863D01*
X0379242Y0052631D01*
X0380070Y0052288D01*
X0380847Y0051839D01*
X0381558Y0051294D01*
X0382191Y0050660D01*
X0382737Y0049949D01*
X0383185Y0049173D01*
X0383528Y0048345D01*
X0383760Y0047479D01*
X0383832Y0046930D01*
X0377827Y0046930D01*
X0376252Y0046930D01*
X0376252Y0045355D01*
X0370247Y0045355D01*
X0370319Y0044805D01*
X0370551Y0043940D01*
X0370894Y0043112D01*
X0371342Y0042335D01*
X0371888Y0041624D01*
X0372522Y0040990D01*
X0373233Y0040445D01*
X0374009Y0039997D01*
X0374837Y0039654D01*
X0375703Y0039422D01*
X0376252Y0039349D01*
X0376252Y0045355D01*
X0377827Y0045355D01*
X0377827Y0046930D01*
X0377827Y0052935D01*
X0377827Y0050626D02*
X0376252Y0050626D01*
X0376252Y0049053D02*
X0377827Y0049053D01*
X0377827Y0047479D02*
X0376252Y0047479D01*
X0376252Y0045906D02*
X0294567Y0045906D01*
X0294552Y0045944D02*
X0293770Y0046725D01*
X0292749Y0047148D01*
X0291644Y0047148D01*
X0290623Y0046725D01*
X0289842Y0045944D01*
X0289419Y0044923D01*
X0289419Y0043817D01*
X0289842Y0042796D01*
X0290623Y0042015D01*
X0291644Y0041592D01*
X0292749Y0041592D01*
X0293770Y0042015D01*
X0294552Y0042796D01*
X0294975Y0043817D01*
X0294975Y0044923D01*
X0294552Y0045944D01*
X0294975Y0044333D02*
X0370446Y0044333D01*
X0371098Y0042760D02*
X0294515Y0042760D01*
X0289879Y0042760D02*
X0051924Y0042760D01*
X0051963Y0042880D02*
X0052076Y0043588D01*
X0052076Y0043750D01*
X0047717Y0043750D01*
X0047717Y0044143D01*
X0052076Y0044143D01*
X0052076Y0044305D01*
X0051963Y0045013D01*
X0051742Y0045695D01*
X0051416Y0046334D01*
X0050995Y0046914D01*
X0050488Y0047421D01*
X0049907Y0047843D01*
X0049269Y0048169D01*
X0048587Y0048390D01*
X0047878Y0048502D01*
X0047717Y0048502D01*
X0047717Y0044143D01*
X0047323Y0044143D01*
X0047323Y0043750D01*
X0042964Y0043750D01*
X0042964Y0043588D01*
X0043076Y0042880D01*
X0043298Y0042198D01*
X0043623Y0041559D01*
X0044045Y0040978D01*
X0044552Y0040471D01*
X0045132Y0040050D01*
X0045771Y0039724D01*
X0046453Y0039503D01*
X0047161Y0039391D01*
X0047323Y0039391D01*
X0047323Y0043750D01*
X0047717Y0043750D01*
X0047717Y0039391D01*
X0047878Y0039391D01*
X0048587Y0039503D01*
X0049269Y0039724D01*
X0049907Y0040050D01*
X0050488Y0040471D01*
X0050995Y0040978D01*
X0051416Y0041559D01*
X0051742Y0042198D01*
X0051963Y0042880D01*
X0052071Y0044333D02*
X0289419Y0044333D01*
X0289826Y0045906D02*
X0051634Y0045906D01*
X0050408Y0047479D02*
X0370320Y0047479D01*
X0370845Y0049053D02*
X0018584Y0049053D01*
X0018584Y0050626D02*
X0289886Y0050626D01*
X0289419Y0052199D02*
X0018584Y0052199D01*
X0018584Y0053773D02*
X0056967Y0053773D01*
X0054861Y0055346D02*
X0018584Y0055346D01*
X0018584Y0056919D02*
X0053903Y0056919D01*
X0053408Y0058493D02*
X0018584Y0058493D01*
X0018584Y0060066D02*
X0031684Y0060066D01*
X0031560Y0060156D02*
X0032140Y0059735D01*
X0032779Y0059409D01*
X0033461Y0059188D01*
X0034169Y0059076D01*
X0034331Y0059076D01*
X0034331Y0063435D01*
X0029972Y0063435D01*
X0029972Y0063273D01*
X0030084Y0062565D01*
X0030305Y0061883D01*
X0030631Y0061244D01*
X0031053Y0060664D01*
X0031560Y0060156D01*
X0030429Y0061639D02*
X0018584Y0061639D01*
X0018584Y0063213D02*
X0029981Y0063213D01*
X0029972Y0063828D02*
X0034331Y0063828D01*
X0034331Y0063435D01*
X0034724Y0063435D01*
X0034724Y0059076D01*
X0034886Y0059076D01*
X0035594Y0059188D01*
X0036276Y0059409D01*
X0036915Y0059735D01*
X0037496Y0060156D01*
X0038003Y0060664D01*
X0038424Y0061244D01*
X0038750Y0061883D01*
X0038971Y0062565D01*
X0039083Y0063273D01*
X0039083Y0063435D01*
X0034724Y0063435D01*
X0034724Y0063828D01*
X0034331Y0063828D01*
X0034331Y0068187D01*
X0034169Y0068187D01*
X0033461Y0068075D01*
X0032779Y0067854D01*
X0032140Y0067528D01*
X0031560Y0067107D01*
X0031053Y0066599D01*
X0030631Y0066019D01*
X0030305Y0065380D01*
X0030084Y0064698D01*
X0029972Y0063990D01*
X0029972Y0063828D01*
X0030112Y0064786D02*
X0018584Y0064786D01*
X0018584Y0066359D02*
X0030878Y0066359D01*
X0033022Y0067933D02*
X0018584Y0067933D01*
X0018584Y0069506D02*
X0053531Y0069506D01*
X0053408Y0067933D02*
X0036033Y0067933D01*
X0036276Y0067854D02*
X0035594Y0068075D01*
X0034886Y0068187D01*
X0034724Y0068187D01*
X0034724Y0063828D01*
X0039083Y0063828D01*
X0039083Y0063990D01*
X0038971Y0064698D01*
X0038750Y0065380D01*
X0038424Y0066019D01*
X0038003Y0066599D01*
X0037496Y0067107D01*
X0036915Y0067528D01*
X0036276Y0067854D01*
X0034724Y0067933D02*
X0034331Y0067933D01*
X0034331Y0066359D02*
X0034724Y0066359D01*
X0034724Y0064786D02*
X0034331Y0064786D01*
X0034331Y0063213D02*
X0034724Y0063213D01*
X0034724Y0061639D02*
X0034331Y0061639D01*
X0034331Y0060066D02*
X0034724Y0060066D01*
X0037371Y0060066D02*
X0053408Y0060066D01*
X0053408Y0061639D02*
X0038626Y0061639D01*
X0039074Y0063213D02*
X0053408Y0063213D01*
X0053408Y0064786D02*
X0038943Y0064786D01*
X0038177Y0066359D02*
X0053408Y0066359D01*
X0054183Y0071079D02*
X0018584Y0071079D01*
X0018584Y0072653D02*
X0055537Y0072653D01*
X0063641Y0077372D02*
X0018584Y0077372D01*
X0018584Y0078946D02*
X0062380Y0078946D01*
X0060387Y0080519D02*
X0037483Y0080519D01*
X0037306Y0080446D02*
X0039433Y0081327D01*
X0041061Y0082955D01*
X0041942Y0085082D01*
X0041942Y0087384D01*
X0041061Y0089511D01*
X0039433Y0091139D01*
X0037306Y0092020D01*
X0035003Y0092020D01*
X0032876Y0091139D01*
X0031248Y0089511D01*
X0030500Y0087705D01*
X0030406Y0087994D01*
X0030078Y0088637D01*
X0029653Y0089222D01*
X0029143Y0089732D01*
X0028559Y0090157D01*
X0027915Y0090484D01*
X0027229Y0090708D01*
X0026515Y0090820D01*
X0026367Y0090820D01*
X0026367Y0086446D01*
X0025942Y0086446D01*
X0025942Y0090820D01*
X0025793Y0090820D01*
X0025080Y0090708D01*
X0024393Y0090484D01*
X0023750Y0090157D01*
X0023166Y0089732D01*
X0022655Y0089222D01*
X0022231Y0088637D01*
X0021903Y0087994D01*
X0021680Y0087307D01*
X0021567Y0086594D01*
X0021567Y0086446D01*
X0025942Y0086446D01*
X0025942Y0086020D01*
X0026367Y0086020D01*
X0026367Y0081646D01*
X0026515Y0081646D01*
X0027229Y0081759D01*
X0027915Y0081982D01*
X0028559Y0082310D01*
X0029143Y0082734D01*
X0029653Y0083245D01*
X0030078Y0083829D01*
X0030406Y0084472D01*
X0030500Y0084761D01*
X0031248Y0082955D01*
X0032876Y0081327D01*
X0035003Y0080446D01*
X0037306Y0080446D01*
X0034826Y0080519D02*
X0018584Y0080519D01*
X0018584Y0082092D02*
X0024176Y0082092D01*
X0024393Y0081982D02*
X0025080Y0081759D01*
X0025793Y0081646D01*
X0025942Y0081646D01*
X0025942Y0086020D01*
X0021567Y0086020D01*
X0021567Y0085872D01*
X0021680Y0085159D01*
X0021903Y0084472D01*
X0022231Y0083829D01*
X0022655Y0083245D01*
X0023166Y0082734D01*
X0023750Y0082310D01*
X0024393Y0081982D01*
X0025942Y0082092D02*
X0026367Y0082092D01*
X0026367Y0083666D02*
X0025942Y0083666D01*
X0025942Y0085239D02*
X0026367Y0085239D01*
X0026367Y0086812D02*
X0025942Y0086812D01*
X0025942Y0088386D02*
X0026367Y0088386D01*
X0026367Y0089959D02*
X0025942Y0089959D01*
X0023478Y0089959D02*
X0018584Y0089959D01*
X0018584Y0091532D02*
X0033825Y0091532D01*
X0031696Y0089959D02*
X0028831Y0089959D01*
X0030206Y0088386D02*
X0030782Y0088386D01*
X0030954Y0083666D02*
X0029959Y0083666D01*
X0028132Y0082092D02*
X0032110Y0082092D01*
X0040198Y0082092D02*
X0058927Y0082092D01*
X0057657Y0083666D02*
X0041355Y0083666D01*
X0041942Y0085239D02*
X0055667Y0085239D01*
X0054213Y0086812D02*
X0041942Y0086812D01*
X0041527Y0088386D02*
X0052935Y0088386D01*
X0050947Y0089959D02*
X0040613Y0089959D01*
X0038484Y0091532D02*
X0050443Y0091532D01*
X0050831Y0093106D02*
X0018584Y0093106D01*
X0018584Y0088386D02*
X0022103Y0088386D01*
X0021602Y0086812D02*
X0018584Y0086812D01*
X0018584Y0085239D02*
X0021667Y0085239D01*
X0022349Y0083666D02*
X0018584Y0083666D01*
X0062073Y0053773D02*
X0289823Y0053773D01*
X0294507Y0050626D02*
X0371862Y0050626D01*
X0377827Y0045906D02*
X0396330Y0045906D01*
X0396330Y0045355D02*
X0390325Y0045355D01*
X0390397Y0044805D01*
X0390629Y0043940D01*
X0390972Y0043112D01*
X0391420Y0042335D01*
X0391966Y0041624D01*
X0392600Y0040990D01*
X0393311Y0040445D01*
X0394087Y0039997D01*
X0394915Y0039654D01*
X0395781Y0039422D01*
X0396330Y0039349D01*
X0396330Y0045355D01*
X0396330Y0046930D01*
X0396330Y0052935D01*
X0395781Y0052863D01*
X0394915Y0052631D01*
X0394087Y0052288D01*
X0393311Y0051839D01*
X0392600Y0051294D01*
X0391966Y0050660D01*
X0391420Y0049949D01*
X0390972Y0049173D01*
X0390629Y0048345D01*
X0390397Y0047479D01*
X0390325Y0046930D01*
X0396330Y0046930D01*
X0397905Y0046930D01*
X0397905Y0052935D01*
X0398454Y0052863D01*
X0399320Y0052631D01*
X0400148Y0052288D01*
X0400925Y0051839D01*
X0401636Y0051294D01*
X0402269Y0050660D01*
X0402815Y0049949D01*
X0403263Y0049173D01*
X0403606Y0048345D01*
X0403838Y0047479D01*
X0403910Y0046930D01*
X0397905Y0046930D01*
X0397905Y0045355D01*
X0403910Y0045355D01*
X0403838Y0044805D01*
X0403606Y0043940D01*
X0403263Y0043112D01*
X0402815Y0042335D01*
X0402269Y0041624D01*
X0401636Y0040990D01*
X0400925Y0040445D01*
X0400148Y0039997D01*
X0399320Y0039654D01*
X0398454Y0039422D01*
X0397905Y0039349D01*
X0397905Y0045355D01*
X0396330Y0045355D01*
X0396330Y0044333D02*
X0397905Y0044333D01*
X0397905Y0045906D02*
X0409117Y0045906D01*
X0409117Y0044333D02*
X0403712Y0044333D01*
X0403060Y0042760D02*
X0409117Y0042760D01*
X0409117Y0041186D02*
X0401831Y0041186D01*
X0399168Y0039613D02*
X0409117Y0039613D01*
X0409117Y0038040D02*
X0294564Y0038040D01*
X0294552Y0038070D02*
X0293770Y0038851D01*
X0292749Y0039274D01*
X0291644Y0039274D01*
X0290623Y0038851D01*
X0289842Y0038070D01*
X0289419Y0037049D01*
X0289419Y0035943D01*
X0289842Y0034922D01*
X0290623Y0034141D01*
X0291644Y0033718D01*
X0292749Y0033718D01*
X0293770Y0034141D01*
X0294552Y0034922D01*
X0294975Y0035943D01*
X0294975Y0037049D01*
X0294552Y0038070D01*
X0294975Y0036466D02*
X0409117Y0036466D01*
X0409117Y0034893D02*
X0294522Y0034893D01*
X0289871Y0034893D02*
X0018584Y0034893D01*
X0018584Y0036466D02*
X0289419Y0036466D01*
X0289829Y0038040D02*
X0018584Y0038040D01*
X0018584Y0039613D02*
X0046114Y0039613D01*
X0047323Y0039613D02*
X0047717Y0039613D01*
X0048926Y0039613D02*
X0374989Y0039613D01*
X0376252Y0039613D02*
X0377827Y0039613D01*
X0377827Y0039349D02*
X0378377Y0039422D01*
X0379242Y0039654D01*
X0380070Y0039997D01*
X0380847Y0040445D01*
X0381558Y0040990D01*
X0382191Y0041624D01*
X0382737Y0042335D01*
X0383185Y0043112D01*
X0383528Y0043940D01*
X0383760Y0044805D01*
X0383832Y0045355D01*
X0377827Y0045355D01*
X0377827Y0039349D01*
X0379090Y0039613D02*
X0395067Y0039613D01*
X0396330Y0039613D02*
X0397905Y0039613D01*
X0397905Y0041186D02*
X0396330Y0041186D01*
X0396330Y0042760D02*
X0397905Y0042760D01*
X0397905Y0047479D02*
X0396330Y0047479D01*
X0396330Y0049053D02*
X0397905Y0049053D01*
X0397905Y0050626D02*
X0396330Y0050626D01*
X0396330Y0052199D02*
X0397905Y0052199D01*
X0400301Y0052199D02*
X0409117Y0052199D01*
X0409117Y0050626D02*
X0402295Y0050626D01*
X0403313Y0049053D02*
X0409117Y0049053D01*
X0409117Y0047479D02*
X0403838Y0047479D01*
X0409117Y0053773D02*
X0391642Y0053773D01*
X0392216Y0055346D02*
X0409117Y0055346D01*
X0409117Y0056919D02*
X0392216Y0056919D01*
X0393934Y0052199D02*
X0390362Y0052199D01*
X0391940Y0050626D02*
X0382217Y0050626D01*
X0383235Y0049053D02*
X0390923Y0049053D01*
X0390397Y0047479D02*
X0383760Y0047479D01*
X0383795Y0052199D02*
X0380223Y0052199D01*
X0377827Y0044333D02*
X0376252Y0044333D01*
X0376252Y0042760D02*
X0377827Y0042760D01*
X0377827Y0041186D02*
X0376252Y0041186D01*
X0372326Y0041186D02*
X0051146Y0041186D01*
X0047717Y0041186D02*
X0047323Y0041186D01*
X0047323Y0042760D02*
X0047717Y0042760D01*
X0047323Y0044143D02*
X0042964Y0044143D01*
X0042964Y0044305D01*
X0043076Y0045013D01*
X0043298Y0045695D01*
X0043623Y0046334D01*
X0044045Y0046914D01*
X0044552Y0047421D01*
X0045132Y0047843D01*
X0045771Y0048169D01*
X0046453Y0048390D01*
X0047161Y0048502D01*
X0047323Y0048502D01*
X0047323Y0044143D01*
X0047323Y0044333D02*
X0047717Y0044333D01*
X0047717Y0045906D02*
X0047323Y0045906D01*
X0047323Y0047479D02*
X0047717Y0047479D01*
X0044632Y0047479D02*
X0018584Y0047479D01*
X0018584Y0045906D02*
X0043405Y0045906D01*
X0042968Y0044333D02*
X0018584Y0044333D01*
X0018584Y0042760D02*
X0043115Y0042760D01*
X0043894Y0041186D02*
X0018584Y0041186D01*
X0018584Y0033320D02*
X0409117Y0033320D01*
X0409117Y0031746D02*
X0018584Y0031746D01*
X0018584Y0030173D02*
X0409117Y0030173D01*
X0409117Y0028600D02*
X0400478Y0028600D01*
X0401579Y0027026D02*
X0409117Y0027026D01*
X0409117Y0025453D02*
X0406775Y0025453D01*
X0407877Y0023880D02*
X0409117Y0023880D01*
X0409117Y0022306D02*
X0407863Y0022306D01*
X0407750Y0020733D02*
X0409117Y0020733D01*
X0403603Y0025453D02*
X0403338Y0025453D01*
X0397301Y0028600D02*
X0030400Y0028600D01*
X0031500Y0027026D02*
X0396200Y0027026D01*
X0394441Y0025453D02*
X0394176Y0025453D01*
X0391005Y0025453D02*
X0036696Y0025453D01*
X0037798Y0023880D02*
X0389902Y0023880D01*
X0389917Y0022306D02*
X0294558Y0022306D01*
X0294552Y0022322D02*
X0293770Y0023103D01*
X0292749Y0023526D01*
X0291644Y0023526D01*
X0290623Y0023103D01*
X0289842Y0022322D01*
X0289419Y0021301D01*
X0289419Y0020195D01*
X0289842Y0019174D01*
X0290623Y0018393D01*
X0291644Y0017970D01*
X0292749Y0017970D01*
X0293770Y0018393D01*
X0294552Y0019174D01*
X0294975Y0020195D01*
X0294975Y0021301D01*
X0294552Y0022322D01*
X0294975Y0020733D02*
X0390030Y0020733D01*
X0387861Y0019160D02*
X0294537Y0019160D01*
X0289856Y0019160D02*
X0039840Y0019160D01*
X0040945Y0017587D02*
X0386755Y0017587D01*
X0386765Y0016013D02*
X0040936Y0016013D01*
X0039795Y0014440D02*
X0387906Y0014440D01*
X0390039Y0012867D02*
X0037662Y0012867D01*
X0037793Y0011293D02*
X0389907Y0011293D01*
X0389912Y0009720D02*
X0037789Y0009720D01*
X0036659Y0008147D02*
X0391041Y0008147D01*
X0394140Y0008147D02*
X0394495Y0008147D01*
X0392404Y0041186D02*
X0381753Y0041186D01*
X0382982Y0042760D02*
X0391175Y0042760D01*
X0390524Y0044333D02*
X0383634Y0044333D01*
X0377827Y0067933D02*
X0376252Y0067933D01*
X0376252Y0069506D02*
X0377827Y0069506D01*
X0377827Y0071079D02*
X0376252Y0071079D01*
X0401928Y0071079D02*
X0409117Y0071079D01*
X0409117Y0069506D02*
X0403116Y0069506D01*
X0403737Y0067933D02*
X0409117Y0067933D01*
X0399318Y0091532D02*
X0396430Y0091532D01*
X0397242Y0093106D02*
X0398546Y0093106D01*
X0398401Y0094679D02*
X0397372Y0094679D01*
X0396921Y0096252D02*
X0398835Y0096252D01*
X0400044Y0097826D02*
X0395655Y0097826D01*
X0395870Y0100972D02*
X0399816Y0100972D01*
X0398728Y0102545D02*
X0397010Y0102545D01*
X0402772Y0102545D02*
X0403197Y0102545D01*
X0403197Y0100972D02*
X0402772Y0100972D01*
X0402772Y0105692D02*
X0403197Y0105692D01*
X0403197Y0107265D02*
X0402772Y0107265D01*
X0403598Y0108839D02*
X0409117Y0108839D01*
X0409117Y0110412D02*
X0405449Y0110412D01*
X0406958Y0111985D02*
X0409117Y0111985D01*
X0409117Y0113559D02*
X0407513Y0113559D01*
X0407496Y0115132D02*
X0409117Y0115132D01*
X0409117Y0116705D02*
X0406901Y0116705D01*
X0405263Y0118279D02*
X0409117Y0118279D01*
X0403197Y0118279D02*
X0402772Y0118279D01*
X0402772Y0116705D02*
X0403197Y0116705D01*
X0403197Y0115132D02*
X0402772Y0115132D01*
X0402772Y0113559D02*
X0403197Y0113559D01*
X0403197Y0111985D02*
X0402772Y0111985D01*
X0399011Y0111985D02*
X0396778Y0111985D01*
X0397372Y0113559D02*
X0398456Y0113559D01*
X0398473Y0115132D02*
X0397372Y0115132D01*
X0396733Y0116705D02*
X0399068Y0116705D01*
X0400705Y0118279D02*
X0394823Y0118279D01*
X0406494Y0107265D02*
X0409117Y0107265D01*
X0409117Y0105692D02*
X0407353Y0105692D01*
X0388726Y0093106D02*
X0352229Y0093106D01*
X0352455Y0091532D02*
X0389539Y0091532D01*
X0289836Y0022306D02*
X0037784Y0022306D01*
X0037671Y0020733D02*
X0289419Y0020733D01*
X0242338Y0121425D02*
X0240481Y0121425D01*
X0238756Y0121425D02*
X0065292Y0121425D01*
X0063439Y0122999D02*
X0236931Y0122999D01*
X0033524Y0025453D02*
X0033260Y0025453D01*
X0027222Y0028600D02*
X0018584Y0028600D01*
X0018584Y0027026D02*
X0026122Y0027026D01*
X0024362Y0025453D02*
X0024098Y0025453D01*
X0020926Y0025453D02*
X0018584Y0025453D01*
X0018584Y0023880D02*
X0019824Y0023880D01*
X0019838Y0022306D02*
X0018584Y0022306D01*
X0018584Y0020733D02*
X0019951Y0020733D01*
X0033206Y0008147D02*
X0033561Y0008147D01*
D19*
X0028811Y0016811D03*
X0398890Y0016811D03*
X0398890Y0245157D03*
X0028811Y0245157D03*
D20*
X0059520Y0067992D02*
X0059520Y0059331D01*
M02*
