G75*
%MOIN*%
%OFA0B0*%
%FSLAX25Y25*%
%IPPOS*%
%LPD*%
%AMOC8*
5,1,8,0,0,1.08239X$1,22.5*
%
%ADD10C,0.00394*%
%ADD11C,0.00000*%
D10*
X0017000Y0016811D02*
X0017000Y0245157D01*
X0017003Y0245442D01*
X0017014Y0245728D01*
X0017031Y0246013D01*
X0017055Y0246297D01*
X0017086Y0246581D01*
X0017124Y0246864D01*
X0017169Y0247145D01*
X0017220Y0247426D01*
X0017278Y0247706D01*
X0017343Y0247984D01*
X0017415Y0248260D01*
X0017493Y0248534D01*
X0017578Y0248807D01*
X0017670Y0249077D01*
X0017768Y0249345D01*
X0017872Y0249611D01*
X0017983Y0249874D01*
X0018100Y0250134D01*
X0018223Y0250392D01*
X0018353Y0250646D01*
X0018489Y0250897D01*
X0018630Y0251145D01*
X0018778Y0251389D01*
X0018931Y0251630D01*
X0019091Y0251866D01*
X0019256Y0252099D01*
X0019426Y0252328D01*
X0019602Y0252553D01*
X0019784Y0252773D01*
X0019970Y0252989D01*
X0020162Y0253200D01*
X0020359Y0253407D01*
X0020561Y0253609D01*
X0020768Y0253806D01*
X0020979Y0253998D01*
X0021195Y0254184D01*
X0021415Y0254366D01*
X0021640Y0254542D01*
X0021869Y0254712D01*
X0022102Y0254877D01*
X0022338Y0255037D01*
X0022579Y0255190D01*
X0022823Y0255338D01*
X0023071Y0255479D01*
X0023322Y0255615D01*
X0023576Y0255745D01*
X0023834Y0255868D01*
X0024094Y0255985D01*
X0024357Y0256096D01*
X0024623Y0256200D01*
X0024891Y0256298D01*
X0025161Y0256390D01*
X0025434Y0256475D01*
X0025708Y0256553D01*
X0025984Y0256625D01*
X0026262Y0256690D01*
X0026542Y0256748D01*
X0026823Y0256799D01*
X0027104Y0256844D01*
X0027387Y0256882D01*
X0027671Y0256913D01*
X0027955Y0256937D01*
X0028240Y0256954D01*
X0028526Y0256965D01*
X0028811Y0256968D01*
X0028811Y0256969D02*
X0398890Y0256969D01*
X0398890Y0256968D02*
X0399175Y0256965D01*
X0399461Y0256954D01*
X0399746Y0256937D01*
X0400030Y0256913D01*
X0400314Y0256882D01*
X0400597Y0256844D01*
X0400878Y0256799D01*
X0401159Y0256748D01*
X0401439Y0256690D01*
X0401717Y0256625D01*
X0401993Y0256553D01*
X0402267Y0256475D01*
X0402540Y0256390D01*
X0402810Y0256298D01*
X0403078Y0256200D01*
X0403344Y0256096D01*
X0403607Y0255985D01*
X0403867Y0255868D01*
X0404125Y0255745D01*
X0404379Y0255615D01*
X0404630Y0255479D01*
X0404878Y0255338D01*
X0405122Y0255190D01*
X0405363Y0255037D01*
X0405599Y0254877D01*
X0405832Y0254712D01*
X0406061Y0254542D01*
X0406286Y0254366D01*
X0406506Y0254184D01*
X0406722Y0253998D01*
X0406933Y0253806D01*
X0407140Y0253609D01*
X0407342Y0253407D01*
X0407539Y0253200D01*
X0407731Y0252989D01*
X0407917Y0252773D01*
X0408099Y0252553D01*
X0408275Y0252328D01*
X0408445Y0252099D01*
X0408610Y0251866D01*
X0408770Y0251630D01*
X0408923Y0251389D01*
X0409071Y0251145D01*
X0409212Y0250897D01*
X0409348Y0250646D01*
X0409478Y0250392D01*
X0409601Y0250134D01*
X0409718Y0249874D01*
X0409829Y0249611D01*
X0409933Y0249345D01*
X0410031Y0249077D01*
X0410123Y0248807D01*
X0410208Y0248534D01*
X0410286Y0248260D01*
X0410358Y0247984D01*
X0410423Y0247706D01*
X0410481Y0247426D01*
X0410532Y0247145D01*
X0410577Y0246864D01*
X0410615Y0246581D01*
X0410646Y0246297D01*
X0410670Y0246013D01*
X0410687Y0245728D01*
X0410698Y0245442D01*
X0410701Y0245157D01*
X0410701Y0016811D01*
X0410698Y0016526D01*
X0410687Y0016240D01*
X0410670Y0015955D01*
X0410646Y0015671D01*
X0410615Y0015387D01*
X0410577Y0015104D01*
X0410532Y0014823D01*
X0410481Y0014542D01*
X0410423Y0014262D01*
X0410358Y0013984D01*
X0410286Y0013708D01*
X0410208Y0013434D01*
X0410123Y0013161D01*
X0410031Y0012891D01*
X0409933Y0012623D01*
X0409829Y0012357D01*
X0409718Y0012094D01*
X0409601Y0011834D01*
X0409478Y0011576D01*
X0409348Y0011322D01*
X0409212Y0011071D01*
X0409071Y0010823D01*
X0408923Y0010579D01*
X0408770Y0010338D01*
X0408610Y0010102D01*
X0408445Y0009869D01*
X0408275Y0009640D01*
X0408099Y0009415D01*
X0407917Y0009195D01*
X0407731Y0008979D01*
X0407539Y0008768D01*
X0407342Y0008561D01*
X0407140Y0008359D01*
X0406933Y0008162D01*
X0406722Y0007970D01*
X0406506Y0007784D01*
X0406286Y0007602D01*
X0406061Y0007426D01*
X0405832Y0007256D01*
X0405599Y0007091D01*
X0405363Y0006931D01*
X0405122Y0006778D01*
X0404878Y0006630D01*
X0404630Y0006489D01*
X0404379Y0006353D01*
X0404125Y0006223D01*
X0403867Y0006100D01*
X0403607Y0005983D01*
X0403344Y0005872D01*
X0403078Y0005768D01*
X0402810Y0005670D01*
X0402540Y0005578D01*
X0402267Y0005493D01*
X0401993Y0005415D01*
X0401717Y0005343D01*
X0401439Y0005278D01*
X0401159Y0005220D01*
X0400878Y0005169D01*
X0400597Y0005124D01*
X0400314Y0005086D01*
X0400030Y0005055D01*
X0399746Y0005031D01*
X0399461Y0005014D01*
X0399175Y0005003D01*
X0398890Y0005000D01*
X0028811Y0005000D01*
X0028526Y0005003D01*
X0028240Y0005014D01*
X0027955Y0005031D01*
X0027671Y0005055D01*
X0027387Y0005086D01*
X0027104Y0005124D01*
X0026823Y0005169D01*
X0026542Y0005220D01*
X0026262Y0005278D01*
X0025984Y0005343D01*
X0025708Y0005415D01*
X0025434Y0005493D01*
X0025161Y0005578D01*
X0024891Y0005670D01*
X0024623Y0005768D01*
X0024357Y0005872D01*
X0024094Y0005983D01*
X0023834Y0006100D01*
X0023576Y0006223D01*
X0023322Y0006353D01*
X0023071Y0006489D01*
X0022823Y0006630D01*
X0022579Y0006778D01*
X0022338Y0006931D01*
X0022102Y0007091D01*
X0021869Y0007256D01*
X0021640Y0007426D01*
X0021415Y0007602D01*
X0021195Y0007784D01*
X0020979Y0007970D01*
X0020768Y0008162D01*
X0020561Y0008359D01*
X0020359Y0008561D01*
X0020162Y0008768D01*
X0019970Y0008979D01*
X0019784Y0009195D01*
X0019602Y0009415D01*
X0019426Y0009640D01*
X0019256Y0009869D01*
X0019091Y0010102D01*
X0018931Y0010338D01*
X0018778Y0010579D01*
X0018630Y0010823D01*
X0018489Y0011071D01*
X0018353Y0011322D01*
X0018223Y0011576D01*
X0018100Y0011834D01*
X0017983Y0012094D01*
X0017872Y0012357D01*
X0017768Y0012623D01*
X0017670Y0012891D01*
X0017578Y0013161D01*
X0017493Y0013434D01*
X0017415Y0013708D01*
X0017343Y0013984D01*
X0017278Y0014262D01*
X0017220Y0014542D01*
X0017169Y0014823D01*
X0017124Y0015104D01*
X0017086Y0015387D01*
X0017055Y0015671D01*
X0017031Y0015955D01*
X0017014Y0016240D01*
X0017003Y0016526D01*
X0017000Y0016811D01*
D11*
X0043189Y0041978D02*
X0051850Y0041978D01*
X0053819Y0043946D02*
X0053817Y0044032D01*
X0053812Y0044118D01*
X0053802Y0044203D01*
X0053789Y0044288D01*
X0053772Y0044372D01*
X0053752Y0044456D01*
X0053728Y0044538D01*
X0053700Y0044619D01*
X0053669Y0044700D01*
X0053635Y0044778D01*
X0053597Y0044855D01*
X0053555Y0044931D01*
X0053511Y0045004D01*
X0053463Y0045075D01*
X0053412Y0045145D01*
X0053358Y0045212D01*
X0053302Y0045276D01*
X0053242Y0045338D01*
X0053180Y0045398D01*
X0053116Y0045454D01*
X0053049Y0045508D01*
X0052979Y0045559D01*
X0052908Y0045607D01*
X0052835Y0045651D01*
X0052759Y0045693D01*
X0052682Y0045731D01*
X0052604Y0045765D01*
X0052523Y0045796D01*
X0052442Y0045824D01*
X0052360Y0045848D01*
X0052276Y0045868D01*
X0052192Y0045885D01*
X0052107Y0045898D01*
X0052022Y0045908D01*
X0051936Y0045913D01*
X0051850Y0045915D01*
X0043189Y0045915D01*
X0043103Y0045913D01*
X0043017Y0045908D01*
X0042932Y0045898D01*
X0042847Y0045885D01*
X0042763Y0045868D01*
X0042679Y0045848D01*
X0042597Y0045824D01*
X0042516Y0045796D01*
X0042435Y0045765D01*
X0042357Y0045731D01*
X0042280Y0045693D01*
X0042205Y0045651D01*
X0042131Y0045607D01*
X0042060Y0045559D01*
X0041990Y0045508D01*
X0041923Y0045454D01*
X0041859Y0045398D01*
X0041797Y0045338D01*
X0041737Y0045276D01*
X0041681Y0045212D01*
X0041627Y0045145D01*
X0041576Y0045075D01*
X0041528Y0045004D01*
X0041484Y0044931D01*
X0041442Y0044855D01*
X0041404Y0044778D01*
X0041370Y0044700D01*
X0041339Y0044619D01*
X0041311Y0044538D01*
X0041287Y0044456D01*
X0041267Y0044372D01*
X0041250Y0044288D01*
X0041237Y0044203D01*
X0041227Y0044118D01*
X0041222Y0044032D01*
X0041220Y0043946D01*
X0041222Y0043860D01*
X0041227Y0043774D01*
X0041237Y0043689D01*
X0041250Y0043604D01*
X0041267Y0043520D01*
X0041287Y0043436D01*
X0041311Y0043354D01*
X0041339Y0043273D01*
X0041370Y0043192D01*
X0041404Y0043114D01*
X0041442Y0043037D01*
X0041484Y0042962D01*
X0041528Y0042888D01*
X0041576Y0042817D01*
X0041627Y0042747D01*
X0041681Y0042680D01*
X0041737Y0042616D01*
X0041797Y0042554D01*
X0041859Y0042494D01*
X0041923Y0042438D01*
X0041990Y0042384D01*
X0042060Y0042333D01*
X0042131Y0042285D01*
X0042205Y0042241D01*
X0042280Y0042199D01*
X0042357Y0042161D01*
X0042435Y0042127D01*
X0042516Y0042096D01*
X0042597Y0042068D01*
X0042679Y0042044D01*
X0042763Y0042024D01*
X0042847Y0042007D01*
X0042932Y0041994D01*
X0043017Y0041984D01*
X0043103Y0041979D01*
X0043189Y0041977D01*
X0051850Y0041977D02*
X0051936Y0041979D01*
X0052022Y0041984D01*
X0052107Y0041994D01*
X0052192Y0042007D01*
X0052276Y0042024D01*
X0052360Y0042044D01*
X0052442Y0042068D01*
X0052523Y0042096D01*
X0052604Y0042127D01*
X0052682Y0042161D01*
X0052759Y0042199D01*
X0052835Y0042241D01*
X0052908Y0042285D01*
X0052979Y0042333D01*
X0053049Y0042384D01*
X0053116Y0042438D01*
X0053180Y0042494D01*
X0053242Y0042554D01*
X0053302Y0042616D01*
X0053358Y0042680D01*
X0053412Y0042747D01*
X0053463Y0042817D01*
X0053511Y0042888D01*
X0053555Y0042962D01*
X0053597Y0043037D01*
X0053635Y0043114D01*
X0053669Y0043192D01*
X0053700Y0043273D01*
X0053728Y0043354D01*
X0053752Y0043436D01*
X0053772Y0043520D01*
X0053789Y0043604D01*
X0053802Y0043689D01*
X0053812Y0043774D01*
X0053817Y0043860D01*
X0053819Y0043946D01*
X0059331Y0057332D02*
X0059331Y0069931D01*
X0059245Y0069929D01*
X0059159Y0069924D01*
X0059074Y0069914D01*
X0058989Y0069901D01*
X0058905Y0069884D01*
X0058821Y0069864D01*
X0058739Y0069840D01*
X0058658Y0069812D01*
X0058577Y0069781D01*
X0058499Y0069747D01*
X0058422Y0069709D01*
X0058347Y0069667D01*
X0058273Y0069623D01*
X0058202Y0069575D01*
X0058132Y0069524D01*
X0058065Y0069470D01*
X0058001Y0069414D01*
X0057939Y0069354D01*
X0057879Y0069292D01*
X0057823Y0069228D01*
X0057769Y0069161D01*
X0057718Y0069091D01*
X0057670Y0069020D01*
X0057626Y0068947D01*
X0057584Y0068871D01*
X0057546Y0068794D01*
X0057512Y0068716D01*
X0057481Y0068635D01*
X0057453Y0068554D01*
X0057429Y0068472D01*
X0057409Y0068388D01*
X0057392Y0068304D01*
X0057379Y0068219D01*
X0057369Y0068134D01*
X0057364Y0068048D01*
X0057362Y0067962D01*
X0057362Y0059301D01*
X0057364Y0059215D01*
X0057369Y0059129D01*
X0057379Y0059044D01*
X0057392Y0058959D01*
X0057409Y0058875D01*
X0057429Y0058791D01*
X0057453Y0058709D01*
X0057481Y0058628D01*
X0057512Y0058547D01*
X0057546Y0058469D01*
X0057584Y0058392D01*
X0057626Y0058317D01*
X0057670Y0058243D01*
X0057718Y0058172D01*
X0057769Y0058102D01*
X0057823Y0058035D01*
X0057879Y0057971D01*
X0057939Y0057909D01*
X0058001Y0057849D01*
X0058065Y0057793D01*
X0058132Y0057739D01*
X0058202Y0057688D01*
X0058273Y0057640D01*
X0058347Y0057596D01*
X0058422Y0057554D01*
X0058499Y0057516D01*
X0058577Y0057482D01*
X0058658Y0057451D01*
X0058739Y0057423D01*
X0058821Y0057399D01*
X0058905Y0057379D01*
X0058989Y0057362D01*
X0059074Y0057349D01*
X0059159Y0057339D01*
X0059245Y0057334D01*
X0059331Y0057332D01*
X0059417Y0057334D01*
X0059503Y0057339D01*
X0059588Y0057349D01*
X0059673Y0057362D01*
X0059757Y0057379D01*
X0059841Y0057399D01*
X0059923Y0057423D01*
X0060004Y0057451D01*
X0060085Y0057482D01*
X0060163Y0057516D01*
X0060240Y0057554D01*
X0060316Y0057596D01*
X0060389Y0057640D01*
X0060460Y0057688D01*
X0060530Y0057739D01*
X0060597Y0057793D01*
X0060661Y0057849D01*
X0060723Y0057909D01*
X0060783Y0057971D01*
X0060839Y0058035D01*
X0060893Y0058102D01*
X0060944Y0058172D01*
X0060992Y0058243D01*
X0061036Y0058317D01*
X0061078Y0058392D01*
X0061116Y0058469D01*
X0061150Y0058547D01*
X0061181Y0058628D01*
X0061209Y0058709D01*
X0061233Y0058791D01*
X0061253Y0058875D01*
X0061270Y0058959D01*
X0061283Y0059044D01*
X0061293Y0059129D01*
X0061298Y0059215D01*
X0061300Y0059301D01*
X0061299Y0059301D02*
X0061299Y0067962D01*
X0061300Y0067962D02*
X0061298Y0068048D01*
X0061293Y0068134D01*
X0061283Y0068219D01*
X0061270Y0068304D01*
X0061253Y0068388D01*
X0061233Y0068472D01*
X0061209Y0068554D01*
X0061181Y0068635D01*
X0061150Y0068716D01*
X0061116Y0068794D01*
X0061078Y0068871D01*
X0061036Y0068947D01*
X0060992Y0069020D01*
X0060944Y0069091D01*
X0060893Y0069161D01*
X0060839Y0069228D01*
X0060783Y0069292D01*
X0060723Y0069354D01*
X0060661Y0069414D01*
X0060597Y0069470D01*
X0060530Y0069524D01*
X0060460Y0069575D01*
X0060389Y0069623D01*
X0060316Y0069667D01*
X0060240Y0069709D01*
X0060163Y0069747D01*
X0060085Y0069781D01*
X0060004Y0069812D01*
X0059923Y0069840D01*
X0059841Y0069864D01*
X0059757Y0069884D01*
X0059673Y0069901D01*
X0059588Y0069914D01*
X0059503Y0069924D01*
X0059417Y0069929D01*
X0059331Y0069931D01*
X0036496Y0067962D02*
X0036496Y0059301D01*
X0034528Y0057332D02*
X0034442Y0057334D01*
X0034356Y0057339D01*
X0034271Y0057349D01*
X0034186Y0057362D01*
X0034102Y0057379D01*
X0034018Y0057399D01*
X0033936Y0057423D01*
X0033855Y0057451D01*
X0033774Y0057482D01*
X0033696Y0057516D01*
X0033619Y0057554D01*
X0033544Y0057596D01*
X0033470Y0057640D01*
X0033399Y0057688D01*
X0033329Y0057739D01*
X0033262Y0057793D01*
X0033198Y0057849D01*
X0033136Y0057909D01*
X0033076Y0057971D01*
X0033020Y0058035D01*
X0032966Y0058102D01*
X0032915Y0058172D01*
X0032867Y0058243D01*
X0032823Y0058317D01*
X0032781Y0058392D01*
X0032743Y0058469D01*
X0032709Y0058547D01*
X0032678Y0058628D01*
X0032650Y0058709D01*
X0032626Y0058791D01*
X0032606Y0058875D01*
X0032589Y0058959D01*
X0032576Y0059044D01*
X0032566Y0059129D01*
X0032561Y0059215D01*
X0032559Y0059301D01*
X0032559Y0067962D01*
X0032561Y0068048D01*
X0032566Y0068134D01*
X0032576Y0068219D01*
X0032589Y0068304D01*
X0032606Y0068388D01*
X0032626Y0068472D01*
X0032650Y0068554D01*
X0032678Y0068635D01*
X0032709Y0068716D01*
X0032743Y0068794D01*
X0032781Y0068871D01*
X0032823Y0068947D01*
X0032867Y0069020D01*
X0032915Y0069091D01*
X0032966Y0069161D01*
X0033020Y0069228D01*
X0033076Y0069292D01*
X0033136Y0069354D01*
X0033198Y0069414D01*
X0033262Y0069470D01*
X0033329Y0069524D01*
X0033399Y0069575D01*
X0033470Y0069623D01*
X0033544Y0069667D01*
X0033619Y0069709D01*
X0033696Y0069747D01*
X0033774Y0069781D01*
X0033855Y0069812D01*
X0033936Y0069840D01*
X0034018Y0069864D01*
X0034102Y0069884D01*
X0034186Y0069901D01*
X0034271Y0069914D01*
X0034356Y0069924D01*
X0034442Y0069929D01*
X0034528Y0069931D01*
X0034614Y0069929D01*
X0034700Y0069924D01*
X0034785Y0069914D01*
X0034870Y0069901D01*
X0034954Y0069884D01*
X0035038Y0069864D01*
X0035120Y0069840D01*
X0035201Y0069812D01*
X0035282Y0069781D01*
X0035360Y0069747D01*
X0035437Y0069709D01*
X0035513Y0069667D01*
X0035586Y0069623D01*
X0035657Y0069575D01*
X0035727Y0069524D01*
X0035794Y0069470D01*
X0035858Y0069414D01*
X0035920Y0069354D01*
X0035980Y0069292D01*
X0036036Y0069228D01*
X0036090Y0069161D01*
X0036141Y0069091D01*
X0036189Y0069020D01*
X0036233Y0068947D01*
X0036275Y0068871D01*
X0036313Y0068794D01*
X0036347Y0068716D01*
X0036378Y0068635D01*
X0036406Y0068554D01*
X0036430Y0068472D01*
X0036450Y0068388D01*
X0036467Y0068304D01*
X0036480Y0068219D01*
X0036490Y0068134D01*
X0036495Y0068048D01*
X0036497Y0067962D01*
X0036497Y0059301D02*
X0036495Y0059215D01*
X0036490Y0059129D01*
X0036480Y0059044D01*
X0036467Y0058959D01*
X0036450Y0058875D01*
X0036430Y0058791D01*
X0036406Y0058709D01*
X0036378Y0058628D01*
X0036347Y0058547D01*
X0036313Y0058469D01*
X0036275Y0058392D01*
X0036233Y0058317D01*
X0036189Y0058243D01*
X0036141Y0058172D01*
X0036090Y0058102D01*
X0036036Y0058035D01*
X0035980Y0057971D01*
X0035920Y0057909D01*
X0035858Y0057849D01*
X0035794Y0057793D01*
X0035727Y0057739D01*
X0035657Y0057688D01*
X0035586Y0057640D01*
X0035513Y0057596D01*
X0035437Y0057554D01*
X0035360Y0057516D01*
X0035282Y0057482D01*
X0035201Y0057451D01*
X0035120Y0057423D01*
X0035038Y0057399D01*
X0034954Y0057379D01*
X0034870Y0057362D01*
X0034785Y0057349D01*
X0034700Y0057339D01*
X0034614Y0057334D01*
X0034528Y0057332D01*
X0027433Y0150866D02*
X0025071Y0150866D01*
X0023693Y0152244D02*
X0023695Y0152316D01*
X0023701Y0152388D01*
X0023710Y0152460D01*
X0023723Y0152531D01*
X0023740Y0152601D01*
X0023760Y0152670D01*
X0023785Y0152738D01*
X0023812Y0152804D01*
X0023843Y0152870D01*
X0023878Y0152933D01*
X0023915Y0152995D01*
X0023956Y0153054D01*
X0024000Y0153111D01*
X0024047Y0153166D01*
X0024097Y0153218D01*
X0024149Y0153268D01*
X0024204Y0153315D01*
X0024261Y0153359D01*
X0024320Y0153400D01*
X0024382Y0153437D01*
X0024445Y0153472D01*
X0024511Y0153503D01*
X0024577Y0153530D01*
X0024645Y0153555D01*
X0024714Y0153575D01*
X0024784Y0153592D01*
X0024855Y0153605D01*
X0024927Y0153614D01*
X0024999Y0153620D01*
X0025071Y0153622D01*
X0027433Y0153622D01*
X0027505Y0153620D01*
X0027577Y0153614D01*
X0027649Y0153605D01*
X0027720Y0153592D01*
X0027790Y0153575D01*
X0027859Y0153555D01*
X0027927Y0153530D01*
X0027993Y0153503D01*
X0028059Y0153472D01*
X0028122Y0153437D01*
X0028184Y0153400D01*
X0028243Y0153359D01*
X0028300Y0153315D01*
X0028355Y0153268D01*
X0028407Y0153218D01*
X0028457Y0153166D01*
X0028504Y0153111D01*
X0028548Y0153054D01*
X0028589Y0152995D01*
X0028626Y0152933D01*
X0028661Y0152870D01*
X0028692Y0152804D01*
X0028719Y0152738D01*
X0028744Y0152670D01*
X0028764Y0152601D01*
X0028781Y0152531D01*
X0028794Y0152460D01*
X0028803Y0152388D01*
X0028809Y0152316D01*
X0028811Y0152244D01*
X0028809Y0152172D01*
X0028803Y0152100D01*
X0028794Y0152028D01*
X0028781Y0151957D01*
X0028764Y0151887D01*
X0028744Y0151818D01*
X0028719Y0151750D01*
X0028692Y0151684D01*
X0028661Y0151618D01*
X0028626Y0151555D01*
X0028589Y0151493D01*
X0028548Y0151434D01*
X0028504Y0151377D01*
X0028457Y0151322D01*
X0028407Y0151270D01*
X0028355Y0151220D01*
X0028300Y0151173D01*
X0028243Y0151129D01*
X0028184Y0151088D01*
X0028122Y0151051D01*
X0028059Y0151016D01*
X0027993Y0150985D01*
X0027927Y0150958D01*
X0027859Y0150933D01*
X0027790Y0150913D01*
X0027720Y0150896D01*
X0027649Y0150883D01*
X0027577Y0150874D01*
X0027505Y0150868D01*
X0027433Y0150866D01*
X0025071Y0150866D02*
X0024999Y0150868D01*
X0024927Y0150874D01*
X0024855Y0150883D01*
X0024784Y0150896D01*
X0024714Y0150913D01*
X0024645Y0150933D01*
X0024577Y0150958D01*
X0024511Y0150985D01*
X0024445Y0151016D01*
X0024382Y0151051D01*
X0024320Y0151088D01*
X0024261Y0151129D01*
X0024204Y0151173D01*
X0024149Y0151220D01*
X0024097Y0151270D01*
X0024047Y0151322D01*
X0024000Y0151377D01*
X0023956Y0151434D01*
X0023915Y0151493D01*
X0023878Y0151555D01*
X0023843Y0151618D01*
X0023812Y0151684D01*
X0023785Y0151750D01*
X0023760Y0151818D01*
X0023740Y0151887D01*
X0023723Y0151957D01*
X0023710Y0152028D01*
X0023701Y0152100D01*
X0023695Y0152172D01*
X0023693Y0152244D01*
X0035898Y0155591D02*
X0037472Y0155591D01*
X0038752Y0156870D02*
X0038750Y0156939D01*
X0038744Y0157008D01*
X0038735Y0157077D01*
X0038722Y0157145D01*
X0038705Y0157212D01*
X0038685Y0157279D01*
X0038661Y0157344D01*
X0038634Y0157407D01*
X0038603Y0157470D01*
X0038569Y0157530D01*
X0038531Y0157588D01*
X0038491Y0157645D01*
X0038448Y0157699D01*
X0038401Y0157750D01*
X0038352Y0157799D01*
X0038301Y0157846D01*
X0038247Y0157889D01*
X0038190Y0157929D01*
X0038132Y0157967D01*
X0038072Y0158001D01*
X0038009Y0158032D01*
X0037946Y0158059D01*
X0037881Y0158083D01*
X0037814Y0158103D01*
X0037747Y0158120D01*
X0037679Y0158133D01*
X0037610Y0158142D01*
X0037541Y0158148D01*
X0037472Y0158150D01*
X0035898Y0158150D01*
X0035829Y0158148D01*
X0035760Y0158142D01*
X0035691Y0158133D01*
X0035623Y0158120D01*
X0035556Y0158103D01*
X0035489Y0158083D01*
X0035424Y0158059D01*
X0035361Y0158032D01*
X0035298Y0158001D01*
X0035238Y0157967D01*
X0035180Y0157929D01*
X0035123Y0157889D01*
X0035069Y0157846D01*
X0035018Y0157799D01*
X0034969Y0157750D01*
X0034922Y0157699D01*
X0034879Y0157645D01*
X0034839Y0157588D01*
X0034801Y0157530D01*
X0034767Y0157470D01*
X0034736Y0157407D01*
X0034709Y0157344D01*
X0034685Y0157279D01*
X0034665Y0157212D01*
X0034648Y0157145D01*
X0034635Y0157077D01*
X0034626Y0157008D01*
X0034620Y0156939D01*
X0034618Y0156870D01*
X0034620Y0156801D01*
X0034626Y0156732D01*
X0034635Y0156663D01*
X0034648Y0156595D01*
X0034665Y0156528D01*
X0034685Y0156461D01*
X0034709Y0156396D01*
X0034736Y0156333D01*
X0034767Y0156270D01*
X0034801Y0156210D01*
X0034839Y0156152D01*
X0034879Y0156095D01*
X0034922Y0156041D01*
X0034969Y0155990D01*
X0035018Y0155941D01*
X0035069Y0155894D01*
X0035123Y0155851D01*
X0035180Y0155811D01*
X0035238Y0155773D01*
X0035298Y0155739D01*
X0035361Y0155708D01*
X0035424Y0155681D01*
X0035489Y0155657D01*
X0035556Y0155637D01*
X0035623Y0155620D01*
X0035691Y0155607D01*
X0035760Y0155598D01*
X0035829Y0155592D01*
X0035898Y0155590D01*
X0037472Y0155590D02*
X0037541Y0155592D01*
X0037610Y0155598D01*
X0037679Y0155607D01*
X0037747Y0155620D01*
X0037814Y0155637D01*
X0037881Y0155657D01*
X0037946Y0155681D01*
X0038009Y0155708D01*
X0038072Y0155739D01*
X0038132Y0155773D01*
X0038190Y0155811D01*
X0038247Y0155851D01*
X0038301Y0155894D01*
X0038352Y0155941D01*
X0038401Y0155990D01*
X0038448Y0156041D01*
X0038491Y0156095D01*
X0038531Y0156152D01*
X0038569Y0156210D01*
X0038603Y0156270D01*
X0038634Y0156333D01*
X0038661Y0156396D01*
X0038685Y0156461D01*
X0038705Y0156528D01*
X0038722Y0156595D01*
X0038735Y0156663D01*
X0038744Y0156732D01*
X0038750Y0156801D01*
X0038752Y0156870D01*
X0037472Y0174685D02*
X0035898Y0174685D01*
X0034618Y0175965D02*
X0034620Y0176034D01*
X0034626Y0176103D01*
X0034635Y0176172D01*
X0034648Y0176240D01*
X0034665Y0176307D01*
X0034685Y0176374D01*
X0034709Y0176439D01*
X0034736Y0176502D01*
X0034767Y0176565D01*
X0034801Y0176625D01*
X0034839Y0176683D01*
X0034879Y0176740D01*
X0034922Y0176794D01*
X0034969Y0176845D01*
X0035018Y0176894D01*
X0035069Y0176941D01*
X0035123Y0176984D01*
X0035180Y0177024D01*
X0035238Y0177062D01*
X0035298Y0177096D01*
X0035361Y0177127D01*
X0035424Y0177154D01*
X0035489Y0177178D01*
X0035556Y0177198D01*
X0035623Y0177215D01*
X0035691Y0177228D01*
X0035760Y0177237D01*
X0035829Y0177243D01*
X0035898Y0177245D01*
X0035898Y0177244D02*
X0037472Y0177244D01*
X0037472Y0177245D02*
X0037541Y0177243D01*
X0037610Y0177237D01*
X0037679Y0177228D01*
X0037747Y0177215D01*
X0037814Y0177198D01*
X0037881Y0177178D01*
X0037946Y0177154D01*
X0038009Y0177127D01*
X0038072Y0177096D01*
X0038132Y0177062D01*
X0038190Y0177024D01*
X0038247Y0176984D01*
X0038301Y0176941D01*
X0038352Y0176894D01*
X0038401Y0176845D01*
X0038448Y0176794D01*
X0038491Y0176740D01*
X0038531Y0176683D01*
X0038569Y0176625D01*
X0038603Y0176565D01*
X0038634Y0176502D01*
X0038661Y0176439D01*
X0038685Y0176374D01*
X0038705Y0176307D01*
X0038722Y0176240D01*
X0038735Y0176172D01*
X0038744Y0176103D01*
X0038750Y0176034D01*
X0038752Y0175965D01*
X0038750Y0175896D01*
X0038744Y0175827D01*
X0038735Y0175758D01*
X0038722Y0175690D01*
X0038705Y0175623D01*
X0038685Y0175556D01*
X0038661Y0175491D01*
X0038634Y0175428D01*
X0038603Y0175365D01*
X0038569Y0175305D01*
X0038531Y0175247D01*
X0038491Y0175190D01*
X0038448Y0175136D01*
X0038401Y0175085D01*
X0038352Y0175036D01*
X0038301Y0174989D01*
X0038247Y0174946D01*
X0038190Y0174906D01*
X0038132Y0174868D01*
X0038072Y0174834D01*
X0038009Y0174803D01*
X0037946Y0174776D01*
X0037881Y0174752D01*
X0037814Y0174732D01*
X0037747Y0174715D01*
X0037679Y0174702D01*
X0037610Y0174693D01*
X0037541Y0174687D01*
X0037472Y0174685D01*
X0035898Y0174685D02*
X0035829Y0174687D01*
X0035760Y0174693D01*
X0035691Y0174702D01*
X0035623Y0174715D01*
X0035556Y0174732D01*
X0035489Y0174752D01*
X0035424Y0174776D01*
X0035361Y0174803D01*
X0035298Y0174834D01*
X0035238Y0174868D01*
X0035180Y0174906D01*
X0035123Y0174946D01*
X0035069Y0174989D01*
X0035018Y0175036D01*
X0034969Y0175085D01*
X0034922Y0175136D01*
X0034879Y0175190D01*
X0034839Y0175247D01*
X0034801Y0175305D01*
X0034767Y0175365D01*
X0034736Y0175428D01*
X0034709Y0175491D01*
X0034685Y0175556D01*
X0034665Y0175623D01*
X0034648Y0175690D01*
X0034635Y0175758D01*
X0034626Y0175827D01*
X0034620Y0175896D01*
X0034618Y0175965D01*
X0027433Y0179213D02*
X0025071Y0179213D01*
X0023693Y0180591D02*
X0023695Y0180663D01*
X0023701Y0180735D01*
X0023710Y0180807D01*
X0023723Y0180878D01*
X0023740Y0180948D01*
X0023760Y0181017D01*
X0023785Y0181085D01*
X0023812Y0181151D01*
X0023843Y0181217D01*
X0023878Y0181280D01*
X0023915Y0181342D01*
X0023956Y0181401D01*
X0024000Y0181458D01*
X0024047Y0181513D01*
X0024097Y0181565D01*
X0024149Y0181615D01*
X0024204Y0181662D01*
X0024261Y0181706D01*
X0024320Y0181747D01*
X0024382Y0181784D01*
X0024445Y0181819D01*
X0024511Y0181850D01*
X0024577Y0181877D01*
X0024645Y0181902D01*
X0024714Y0181922D01*
X0024784Y0181939D01*
X0024855Y0181952D01*
X0024927Y0181961D01*
X0024999Y0181967D01*
X0025071Y0181969D01*
X0027433Y0181969D01*
X0027505Y0181967D01*
X0027577Y0181961D01*
X0027649Y0181952D01*
X0027720Y0181939D01*
X0027790Y0181922D01*
X0027859Y0181902D01*
X0027927Y0181877D01*
X0027993Y0181850D01*
X0028059Y0181819D01*
X0028122Y0181784D01*
X0028184Y0181747D01*
X0028243Y0181706D01*
X0028300Y0181662D01*
X0028355Y0181615D01*
X0028407Y0181565D01*
X0028457Y0181513D01*
X0028504Y0181458D01*
X0028548Y0181401D01*
X0028589Y0181342D01*
X0028626Y0181280D01*
X0028661Y0181217D01*
X0028692Y0181151D01*
X0028719Y0181085D01*
X0028744Y0181017D01*
X0028764Y0180948D01*
X0028781Y0180878D01*
X0028794Y0180807D01*
X0028803Y0180735D01*
X0028809Y0180663D01*
X0028811Y0180591D01*
X0028809Y0180519D01*
X0028803Y0180447D01*
X0028794Y0180375D01*
X0028781Y0180304D01*
X0028764Y0180234D01*
X0028744Y0180165D01*
X0028719Y0180097D01*
X0028692Y0180031D01*
X0028661Y0179965D01*
X0028626Y0179902D01*
X0028589Y0179840D01*
X0028548Y0179781D01*
X0028504Y0179724D01*
X0028457Y0179669D01*
X0028407Y0179617D01*
X0028355Y0179567D01*
X0028300Y0179520D01*
X0028243Y0179476D01*
X0028184Y0179435D01*
X0028122Y0179398D01*
X0028059Y0179363D01*
X0027993Y0179332D01*
X0027927Y0179305D01*
X0027859Y0179280D01*
X0027790Y0179260D01*
X0027720Y0179243D01*
X0027649Y0179230D01*
X0027577Y0179221D01*
X0027505Y0179215D01*
X0027433Y0179213D01*
X0025071Y0179213D02*
X0024999Y0179215D01*
X0024927Y0179221D01*
X0024855Y0179230D01*
X0024784Y0179243D01*
X0024714Y0179260D01*
X0024645Y0179280D01*
X0024577Y0179305D01*
X0024511Y0179332D01*
X0024445Y0179363D01*
X0024382Y0179398D01*
X0024320Y0179435D01*
X0024261Y0179476D01*
X0024204Y0179520D01*
X0024149Y0179567D01*
X0024097Y0179617D01*
X0024047Y0179669D01*
X0024000Y0179724D01*
X0023956Y0179781D01*
X0023915Y0179840D01*
X0023878Y0179902D01*
X0023843Y0179965D01*
X0023812Y0180031D01*
X0023785Y0180097D01*
X0023760Y0180165D01*
X0023740Y0180234D01*
X0023723Y0180304D01*
X0023710Y0180375D01*
X0023701Y0180447D01*
X0023695Y0180519D01*
X0023693Y0180591D01*
X0025071Y0194173D02*
X0027433Y0194173D01*
X0028811Y0195551D02*
X0028809Y0195623D01*
X0028803Y0195695D01*
X0028794Y0195767D01*
X0028781Y0195838D01*
X0028764Y0195908D01*
X0028744Y0195977D01*
X0028719Y0196045D01*
X0028692Y0196111D01*
X0028661Y0196177D01*
X0028626Y0196240D01*
X0028589Y0196302D01*
X0028548Y0196361D01*
X0028504Y0196418D01*
X0028457Y0196473D01*
X0028407Y0196525D01*
X0028355Y0196575D01*
X0028300Y0196622D01*
X0028243Y0196666D01*
X0028184Y0196707D01*
X0028122Y0196744D01*
X0028059Y0196779D01*
X0027993Y0196810D01*
X0027927Y0196837D01*
X0027859Y0196862D01*
X0027790Y0196882D01*
X0027720Y0196899D01*
X0027649Y0196912D01*
X0027577Y0196921D01*
X0027505Y0196927D01*
X0027433Y0196929D01*
X0025071Y0196929D01*
X0024999Y0196927D01*
X0024927Y0196921D01*
X0024855Y0196912D01*
X0024784Y0196899D01*
X0024714Y0196882D01*
X0024645Y0196862D01*
X0024577Y0196837D01*
X0024511Y0196810D01*
X0024445Y0196779D01*
X0024382Y0196744D01*
X0024320Y0196707D01*
X0024261Y0196666D01*
X0024204Y0196622D01*
X0024149Y0196575D01*
X0024097Y0196525D01*
X0024047Y0196473D01*
X0024000Y0196418D01*
X0023956Y0196361D01*
X0023915Y0196302D01*
X0023878Y0196240D01*
X0023843Y0196177D01*
X0023812Y0196111D01*
X0023785Y0196045D01*
X0023760Y0195977D01*
X0023740Y0195908D01*
X0023723Y0195838D01*
X0023710Y0195767D01*
X0023701Y0195695D01*
X0023695Y0195623D01*
X0023693Y0195551D01*
X0023695Y0195479D01*
X0023701Y0195407D01*
X0023710Y0195335D01*
X0023723Y0195264D01*
X0023740Y0195194D01*
X0023760Y0195125D01*
X0023785Y0195057D01*
X0023812Y0194991D01*
X0023843Y0194925D01*
X0023878Y0194862D01*
X0023915Y0194800D01*
X0023956Y0194741D01*
X0024000Y0194684D01*
X0024047Y0194629D01*
X0024097Y0194577D01*
X0024149Y0194527D01*
X0024204Y0194480D01*
X0024261Y0194436D01*
X0024320Y0194395D01*
X0024382Y0194358D01*
X0024445Y0194323D01*
X0024511Y0194292D01*
X0024577Y0194265D01*
X0024645Y0194240D01*
X0024714Y0194220D01*
X0024784Y0194203D01*
X0024855Y0194190D01*
X0024927Y0194181D01*
X0024999Y0194175D01*
X0025071Y0194173D01*
X0027433Y0194173D02*
X0027505Y0194175D01*
X0027577Y0194181D01*
X0027649Y0194190D01*
X0027720Y0194203D01*
X0027790Y0194220D01*
X0027859Y0194240D01*
X0027927Y0194265D01*
X0027993Y0194292D01*
X0028059Y0194323D01*
X0028122Y0194358D01*
X0028184Y0194395D01*
X0028243Y0194436D01*
X0028300Y0194480D01*
X0028355Y0194527D01*
X0028407Y0194577D01*
X0028457Y0194629D01*
X0028504Y0194684D01*
X0028548Y0194741D01*
X0028589Y0194800D01*
X0028626Y0194862D01*
X0028661Y0194925D01*
X0028692Y0194991D01*
X0028719Y0195057D01*
X0028744Y0195125D01*
X0028764Y0195194D01*
X0028781Y0195264D01*
X0028794Y0195335D01*
X0028803Y0195407D01*
X0028809Y0195479D01*
X0028811Y0195551D01*
X0035898Y0198898D02*
X0037472Y0198898D01*
X0038752Y0200177D02*
X0038750Y0200246D01*
X0038744Y0200315D01*
X0038735Y0200384D01*
X0038722Y0200452D01*
X0038705Y0200519D01*
X0038685Y0200586D01*
X0038661Y0200651D01*
X0038634Y0200714D01*
X0038603Y0200777D01*
X0038569Y0200837D01*
X0038531Y0200895D01*
X0038491Y0200952D01*
X0038448Y0201006D01*
X0038401Y0201057D01*
X0038352Y0201106D01*
X0038301Y0201153D01*
X0038247Y0201196D01*
X0038190Y0201236D01*
X0038132Y0201274D01*
X0038072Y0201308D01*
X0038009Y0201339D01*
X0037946Y0201366D01*
X0037881Y0201390D01*
X0037814Y0201410D01*
X0037747Y0201427D01*
X0037679Y0201440D01*
X0037610Y0201449D01*
X0037541Y0201455D01*
X0037472Y0201457D01*
X0035898Y0201457D01*
X0035829Y0201455D01*
X0035760Y0201449D01*
X0035691Y0201440D01*
X0035623Y0201427D01*
X0035556Y0201410D01*
X0035489Y0201390D01*
X0035424Y0201366D01*
X0035361Y0201339D01*
X0035298Y0201308D01*
X0035238Y0201274D01*
X0035180Y0201236D01*
X0035123Y0201196D01*
X0035069Y0201153D01*
X0035018Y0201106D01*
X0034969Y0201057D01*
X0034922Y0201006D01*
X0034879Y0200952D01*
X0034839Y0200895D01*
X0034801Y0200837D01*
X0034767Y0200777D01*
X0034736Y0200714D01*
X0034709Y0200651D01*
X0034685Y0200586D01*
X0034665Y0200519D01*
X0034648Y0200452D01*
X0034635Y0200384D01*
X0034626Y0200315D01*
X0034620Y0200246D01*
X0034618Y0200177D01*
X0034620Y0200108D01*
X0034626Y0200039D01*
X0034635Y0199970D01*
X0034648Y0199902D01*
X0034665Y0199835D01*
X0034685Y0199768D01*
X0034709Y0199703D01*
X0034736Y0199640D01*
X0034767Y0199577D01*
X0034801Y0199517D01*
X0034839Y0199459D01*
X0034879Y0199402D01*
X0034922Y0199348D01*
X0034969Y0199297D01*
X0035018Y0199248D01*
X0035069Y0199201D01*
X0035123Y0199158D01*
X0035180Y0199118D01*
X0035238Y0199080D01*
X0035298Y0199046D01*
X0035361Y0199015D01*
X0035424Y0198988D01*
X0035489Y0198964D01*
X0035556Y0198944D01*
X0035623Y0198927D01*
X0035691Y0198914D01*
X0035760Y0198905D01*
X0035829Y0198899D01*
X0035898Y0198897D01*
X0037472Y0198897D02*
X0037541Y0198899D01*
X0037610Y0198905D01*
X0037679Y0198914D01*
X0037747Y0198927D01*
X0037814Y0198944D01*
X0037881Y0198964D01*
X0037946Y0198988D01*
X0038009Y0199015D01*
X0038072Y0199046D01*
X0038132Y0199080D01*
X0038190Y0199118D01*
X0038247Y0199158D01*
X0038301Y0199201D01*
X0038352Y0199248D01*
X0038401Y0199297D01*
X0038448Y0199348D01*
X0038491Y0199402D01*
X0038531Y0199459D01*
X0038569Y0199517D01*
X0038603Y0199577D01*
X0038634Y0199640D01*
X0038661Y0199703D01*
X0038685Y0199768D01*
X0038705Y0199835D01*
X0038722Y0199902D01*
X0038735Y0199970D01*
X0038744Y0200039D01*
X0038750Y0200108D01*
X0038752Y0200177D01*
X0037472Y0217992D02*
X0035898Y0217992D01*
X0034618Y0219272D02*
X0034620Y0219341D01*
X0034626Y0219410D01*
X0034635Y0219479D01*
X0034648Y0219547D01*
X0034665Y0219614D01*
X0034685Y0219681D01*
X0034709Y0219746D01*
X0034736Y0219809D01*
X0034767Y0219872D01*
X0034801Y0219932D01*
X0034839Y0219990D01*
X0034879Y0220047D01*
X0034922Y0220101D01*
X0034969Y0220152D01*
X0035018Y0220201D01*
X0035069Y0220248D01*
X0035123Y0220291D01*
X0035180Y0220331D01*
X0035238Y0220369D01*
X0035298Y0220403D01*
X0035361Y0220434D01*
X0035424Y0220461D01*
X0035489Y0220485D01*
X0035556Y0220505D01*
X0035623Y0220522D01*
X0035691Y0220535D01*
X0035760Y0220544D01*
X0035829Y0220550D01*
X0035898Y0220552D01*
X0035898Y0220551D02*
X0037472Y0220551D01*
X0037472Y0220552D02*
X0037541Y0220550D01*
X0037610Y0220544D01*
X0037679Y0220535D01*
X0037747Y0220522D01*
X0037814Y0220505D01*
X0037881Y0220485D01*
X0037946Y0220461D01*
X0038009Y0220434D01*
X0038072Y0220403D01*
X0038132Y0220369D01*
X0038190Y0220331D01*
X0038247Y0220291D01*
X0038301Y0220248D01*
X0038352Y0220201D01*
X0038401Y0220152D01*
X0038448Y0220101D01*
X0038491Y0220047D01*
X0038531Y0219990D01*
X0038569Y0219932D01*
X0038603Y0219872D01*
X0038634Y0219809D01*
X0038661Y0219746D01*
X0038685Y0219681D01*
X0038705Y0219614D01*
X0038722Y0219547D01*
X0038735Y0219479D01*
X0038744Y0219410D01*
X0038750Y0219341D01*
X0038752Y0219272D01*
X0038750Y0219203D01*
X0038744Y0219134D01*
X0038735Y0219065D01*
X0038722Y0218997D01*
X0038705Y0218930D01*
X0038685Y0218863D01*
X0038661Y0218798D01*
X0038634Y0218735D01*
X0038603Y0218672D01*
X0038569Y0218612D01*
X0038531Y0218554D01*
X0038491Y0218497D01*
X0038448Y0218443D01*
X0038401Y0218392D01*
X0038352Y0218343D01*
X0038301Y0218296D01*
X0038247Y0218253D01*
X0038190Y0218213D01*
X0038132Y0218175D01*
X0038072Y0218141D01*
X0038009Y0218110D01*
X0037946Y0218083D01*
X0037881Y0218059D01*
X0037814Y0218039D01*
X0037747Y0218022D01*
X0037679Y0218009D01*
X0037610Y0218000D01*
X0037541Y0217994D01*
X0037472Y0217992D01*
X0035898Y0217992D02*
X0035829Y0217994D01*
X0035760Y0218000D01*
X0035691Y0218009D01*
X0035623Y0218022D01*
X0035556Y0218039D01*
X0035489Y0218059D01*
X0035424Y0218083D01*
X0035361Y0218110D01*
X0035298Y0218141D01*
X0035238Y0218175D01*
X0035180Y0218213D01*
X0035123Y0218253D01*
X0035069Y0218296D01*
X0035018Y0218343D01*
X0034969Y0218392D01*
X0034922Y0218443D01*
X0034879Y0218497D01*
X0034839Y0218554D01*
X0034801Y0218612D01*
X0034767Y0218672D01*
X0034736Y0218735D01*
X0034709Y0218798D01*
X0034685Y0218863D01*
X0034665Y0218930D01*
X0034648Y0218997D01*
X0034635Y0219065D01*
X0034626Y0219134D01*
X0034620Y0219203D01*
X0034618Y0219272D01*
X0027433Y0222520D02*
X0025071Y0222520D01*
X0023693Y0223898D02*
X0023695Y0223970D01*
X0023701Y0224042D01*
X0023710Y0224114D01*
X0023723Y0224185D01*
X0023740Y0224255D01*
X0023760Y0224324D01*
X0023785Y0224392D01*
X0023812Y0224458D01*
X0023843Y0224524D01*
X0023878Y0224587D01*
X0023915Y0224649D01*
X0023956Y0224708D01*
X0024000Y0224765D01*
X0024047Y0224820D01*
X0024097Y0224872D01*
X0024149Y0224922D01*
X0024204Y0224969D01*
X0024261Y0225013D01*
X0024320Y0225054D01*
X0024382Y0225091D01*
X0024445Y0225126D01*
X0024511Y0225157D01*
X0024577Y0225184D01*
X0024645Y0225209D01*
X0024714Y0225229D01*
X0024784Y0225246D01*
X0024855Y0225259D01*
X0024927Y0225268D01*
X0024999Y0225274D01*
X0025071Y0225276D01*
X0027433Y0225276D01*
X0027505Y0225274D01*
X0027577Y0225268D01*
X0027649Y0225259D01*
X0027720Y0225246D01*
X0027790Y0225229D01*
X0027859Y0225209D01*
X0027927Y0225184D01*
X0027993Y0225157D01*
X0028059Y0225126D01*
X0028122Y0225091D01*
X0028184Y0225054D01*
X0028243Y0225013D01*
X0028300Y0224969D01*
X0028355Y0224922D01*
X0028407Y0224872D01*
X0028457Y0224820D01*
X0028504Y0224765D01*
X0028548Y0224708D01*
X0028589Y0224649D01*
X0028626Y0224587D01*
X0028661Y0224524D01*
X0028692Y0224458D01*
X0028719Y0224392D01*
X0028744Y0224324D01*
X0028764Y0224255D01*
X0028781Y0224185D01*
X0028794Y0224114D01*
X0028803Y0224042D01*
X0028809Y0223970D01*
X0028811Y0223898D01*
X0028809Y0223826D01*
X0028803Y0223754D01*
X0028794Y0223682D01*
X0028781Y0223611D01*
X0028764Y0223541D01*
X0028744Y0223472D01*
X0028719Y0223404D01*
X0028692Y0223338D01*
X0028661Y0223272D01*
X0028626Y0223209D01*
X0028589Y0223147D01*
X0028548Y0223088D01*
X0028504Y0223031D01*
X0028457Y0222976D01*
X0028407Y0222924D01*
X0028355Y0222874D01*
X0028300Y0222827D01*
X0028243Y0222783D01*
X0028184Y0222742D01*
X0028122Y0222705D01*
X0028059Y0222670D01*
X0027993Y0222639D01*
X0027927Y0222612D01*
X0027859Y0222587D01*
X0027790Y0222567D01*
X0027720Y0222550D01*
X0027649Y0222537D01*
X0027577Y0222528D01*
X0027505Y0222522D01*
X0027433Y0222520D01*
X0025071Y0222520D02*
X0024999Y0222522D01*
X0024927Y0222528D01*
X0024855Y0222537D01*
X0024784Y0222550D01*
X0024714Y0222567D01*
X0024645Y0222587D01*
X0024577Y0222612D01*
X0024511Y0222639D01*
X0024445Y0222670D01*
X0024382Y0222705D01*
X0024320Y0222742D01*
X0024261Y0222783D01*
X0024204Y0222827D01*
X0024149Y0222874D01*
X0024097Y0222924D01*
X0024047Y0222976D01*
X0024000Y0223031D01*
X0023956Y0223088D01*
X0023915Y0223147D01*
X0023878Y0223209D01*
X0023843Y0223272D01*
X0023812Y0223338D01*
X0023785Y0223404D01*
X0023760Y0223472D01*
X0023740Y0223541D01*
X0023723Y0223611D01*
X0023710Y0223682D01*
X0023701Y0223754D01*
X0023695Y0223826D01*
X0023693Y0223898D01*
M02*
